<?xml version="1.0" encoding="UTF-8"?><svg id="Layer_2" xmlns="http://www.w3.org/2000/svg" viewBox="0 0 536.16 539.86"><defs><style>.cls-1{opacity:.15;}.cls-2{fill:#14100d;}.cls-2,.cls-3,.cls-4,.cls-5,.cls-6,.cls-7,.cls-8,.cls-9,.cls-10,.cls-11,.cls-12,.cls-13,.cls-14,.cls-15,.cls-16,.cls-17{stroke-width:0px;}.cls-2,.cls-3,.cls-4,.cls-5,.cls-6,.cls-7,.cls-8,.cls-9,.cls-17{fill-rule:evenodd;}.cls-3{fill:#05b173;}.cls-4,.cls-14{fill:#3d68ec;}.cls-5,.cls-16{fill:#fff;}.cls-6{fill:#b4eaf5;}.cls-7{fill:#f4d9dc;}.cls-8{fill:#f7f8fc;}.cls-9,.cls-12{fill:#f8d754;}.cls-11{fill:#f3ceaa;}.cls-13{fill:#0a1017;}.cls-15{fill:#dd784b;}</style></defs><g id="Layer_1-2"><path class="cls-2" d="M527.88,387.4c6.69-3.87,7.03-23.59,0-19.53l-259.8,149.99c0,6.19-.06,12.6-.06,18.78.44,0,.76-.03,1.39-.37,86.56-49.98,171.9-99.15,258.47-148.87Z"/><path class="cls-10" d="M268.02,538.14h-1.5v-1.5c0-3.09.01-6.25.03-9.4.01-3.15.03-6.29.03-9.39v-.87l.75-.43,259.8-149.99c1.99-1.15,3.47-.77,4.37-.25,2.63,1.52,3.03,5.76,3.03,8.16,0,5.21-1.84,11.88-5.9,14.22h0c-80.99,46.52-165.54,95.21-258.47,148.87-.88.48-1.45.57-2.14.57ZM269.58,518.73c0,2.82-.02,5.68-.03,8.53-.01,2.41-.02,4.83-.03,7.21,92.58-53.45,176.87-102,257.62-148.38,2.86-1.65,4.4-7.22,4.4-11.62,0-3.22-.79-5.14-1.53-5.56-.31-.18-.77-.09-1.37.25l-259.05,149.56Z"/><path class="cls-2" d="M527.07,385.99c3.02-1.74,4.5-7.62,4.32-12.21-.04-1.19-.21-2.27-.48-3.15-.23-.72-.52-1.26-.86-1.53-.27-.22-.71-.19-1.35.18l-.09.05-258.9,149.47c0,2-.02,5.25-.04,8.48-.01,2.01-.02,4-.02,6.98,41.23-23.8,83.71-48.31,128.19-73.92,42.98-24.76,85.96-49.48,129.24-74.34h0ZM534.64,373.67c.21,5.53-1.84,12.76-5.95,15.14-43.28,24.86-86.27,49.59-129.24,74.34-41.1,23.67-84.22,48.55-129.23,74.53l-.04.02c-.46.25-.82.39-1.17.47-.37.09-.67.1-1,.1-.9,0-1.63-.73-1.63-1.63,0-1.78.02-5.6.04-9.38.01-2.51.03-4.99.03-9.4h0c0-.56.29-1.11.81-1.41l259.71-149.94.09-.05c2-1.15,3.68-.98,5.02.11.86.7,1.5,1.77,1.92,3.09.37,1.16.58,2.54.64,4.01Z"/><path class="cls-10" d="M268.02,539.78c-1.73,0-3.13-1.41-3.13-3.13s.02-5.01.03-8.5v-.89c.02-2.51.03-4.99.03-9.4v-1.5h.39c.27-.5.68-.92,1.18-1.21l259.75-149.97c2.46-1.42,4.84-1.33,6.76.21,1.07.86,1.88,2.14,2.4,3.8.41,1.28.64,2.76.71,4.41.23,5.99-2.04,13.81-6.7,16.49-42.01,24.13-84.28,48.44-129.24,74.34-38.49,22.17-80.76,46.55-129.23,74.53l-.12.06c-.5.28-.99.47-1.49.59-.5.12-.9.14-1.35.14ZM267.95,519.36c0,3.51-.01,5.7-.03,7.91v.89c-.02,3.48-.04,6.84-.04,8.48,0,.12.15.13.26.13v-2.52c0-2.98.02-4.97.03-6.98.02-3.23.03-6.48.04-8.48v-.87s.75-.43.75-.43l259.02-149.54c1.54-.89,2.55-.4,3.01-.03.58.47,1.02,1.2,1.35,2.25.32.99.5,2.19.55,3.55.2,5.17-1.48,11.5-5.07,13.57h0c-43.39,24.92-86.88,49.94-129.24,74.34-41.27,23.77-83.2,47.95-128.18,73.92l-2.11,1.22c.13,0,.24-.02.37-.06.16-.04.39-.11.8-.33,48.48-27.99,90.75-52.37,129.24-74.54,44.96-25.9,87.24-50.22,129.24-74.34,3.5-2.02,5.39-8.59,5.2-13.78h0c-.05-1.36-.25-2.61-.57-3.62-.34-1.07-.83-1.89-1.43-2.37-.59-.48-1.58-.99-3.33.02l-.04.03-259.75,149.97c-.06.03-.06.09-.06.11v1.5ZM271.21,519.66c0,2-.02,4.82-.03,7.62,0,1.36-.01,2.71-.02,4.37,44.13-25.48,85.35-49.25,125.93-72.62,42.36-24.41,85.85-49.42,129.24-74.34,2.15-1.24,3.75-6.11,3.57-10.85-.04-1.08-.18-2.02-.41-2.75-.06-.18-.11-.33-.16-.44l-258.11,149.02Z"/><path class="cls-7" d="M526.11,369.16l-257.88-148.88c-2-1.15-4.29-1.15-6.29,0L4.05,369.16l257.88,148.88c2,1.15,4.29,1.15,6.29,0l257.88-148.88Z"/><path class="cls-10" d="M268.08,518.42c-1.33,0-2.66-.36-3.89-1.07L4.05,367.16l260.13-150.18c2.48-1.43,5.31-1.43,7.79,0l260.13,150.18-260.13,150.18c-1.24.71-2.57,1.07-3.9,1.07ZM10.05,367.16l255.63,147.58c1.55.89,3.25.89,4.79,0l255.63-147.58-255.63-147.58c-1.54-.89-3.25-.89-4.79,0L10.05,367.16Z"/><path class="cls-2" d="M525.86,367.16l-255.44-147.48c-.75-.43-1.54-.64-2.34-.64s-1.6.21-2.34.64L10.3,367.16l255.44,147.47c.74.43,1.54.65,2.34.65s1.6-.21,2.34-.65l255.44-147.47h0ZM272.04,216.87l257.88,148.88c.24.14.45.34.6.6.45.78.18,1.77-.6,2.22l-257.88,148.88c-1.26.73-2.61,1.09-3.96,1.09s-2.69-.36-3.95-1.09L6.24,368.57c-.24-.14-.45-.34-.6-.6-.45-.78-.18-1.77.6-2.22l257.89-148.88c1.26-.73,2.61-1.09,3.96-1.09s2.7.36,3.95,1.09Z"/><path class="cls-10" d="M268.08,520.04c-1.62,0-3.24-.45-4.7-1.29L5.49,369.87c-.48-.28-.88-.68-1.15-1.15-.42-.72-.52-1.56-.31-2.37s.74-1.48,1.46-1.89l257.88-148.88c2.92-1.69,6.49-1.69,9.41,0l257.88,148.88c.48.28.88.68,1.15,1.16.41.72.52,1.56.3,2.37-.22.81-.74,1.48-1.46,1.89l-257.88,148.88c-1.46.84-3.09,1.29-4.71,1.29ZM268.09,217.29c-1.11,0-2.19.3-3.21.89L6.99,367.05c-.05.03-.08.12-.05.17l257.93,148.93c2.04,1.18,4.37,1.18,6.41,0l257.88-148.88c.05-.03.08-.12.05-.17l-257.93-148.93c-1.02-.59-2.1-.89-3.2-.89ZM268.08,516.78c-1.07,0-2.13-.29-3.09-.85L7.3,367.16l257.7-148.77c1.91-1.1,4.26-1.11,6.17,0l257.69,148.78-257.69,148.77c-.95.55-2.02.85-3.09.85ZM13.3,367.16l253.19,146.17c1.02.59,2.16.59,3.17,0l253.2-146.18-253.19-146.18c-1.02-.58-2.16-.58-3.18,0L13.3,367.16Z"/><path class="cls-7" d="M8.27,387.4c-6.69-3.87-7.03-23.59,0-19.53l259.8,149.99c0,6.19-.05,12.6-.05,18.78-.53.04-.84-.18-1.27-.37-86.56-49.98-171.9-99.15-258.47-148.87Z"/><path class="cls-10" d="M267.88,538.15c-.7,0-1.2-.25-1.55-.42l-.34-.17c-92.46-53.39-177.01-102.08-258.47-148.87h0c-4.05-2.34-5.9-9.02-5.9-14.22,0-2.4.39-6.64,3.03-8.16.9-.52,2.38-.89,4.37.25l260.55,150.43v.87c0,3.1-.01,6.25-.03,9.4-.01,3.15-.03,6.29-.03,9.38v1.38l-1.37.12c-.09,0-.18.01-.26.01ZM9.02,386.1c81.17,46.62,165.42,95.14,257.5,148.31,0-2.37.01-4.76.03-7.16.01-2.85.02-5.71.03-8.52L7.52,369.17c-.6-.35-1.06-.43-1.37-.25-.73.42-1.53,2.35-1.53,5.56,0,4.4,1.54,9.97,4.4,11.62h0Z"/><path class="cls-2" d="M7.46,388.81c-4.11-2.37-6.16-9.6-5.95-15.14.06-1.47.27-2.85.64-4.01.42-1.32,1.05-2.39,1.92-3.09,1.34-1.08,3.02-1.26,5.02-.11l259.8,149.99c.52.3.81.85.81,1.41h0c0,1.65-.02,5.54-.04,9.4-.01,2.45-.02,4.9-.02,9.38,0,.88-.7,1.6-1.57,1.63-.81.05-1.28-.17-1.8-.43h0c-.12-.05-.14-.07-.19-.09-.05-.02-.1-.05-.15-.08-45.02-25.99-88.14-50.86-129.22-74.53-42.98-24.76-85.96-49.48-129.24-74.34h0ZM4.76,373.78c-.18,4.6,1.3,10.47,4.32,12.21,43.29,24.86,86.26,49.58,129.24,74.34,44.45,25.6,86.89,50.08,128.07,73.86l.03-6.94c.01-2.27.02-4.51.02-8.45L7.46,369.27c-.64-.37-1.09-.4-1.36-.18-.34.28-.63.82-.86,1.53-.28.87-.44,1.95-.48,3.15Z"/><path class="cls-10" d="M266.95,539.86l-1.47-.73c-.13-.06-.25-.12-.36-.19-46.12-26.62-89.6-51.7-129.16-74.49-42.7-24.6-86.19-49.61-129.24-74.34h0c-4.66-2.69-6.93-10.51-6.7-16.5.06-1.65.3-3.14.71-4.41.52-1.66,1.33-2.93,2.4-3.8,1.91-1.54,4.29-1.63,6.71-.24l259.8,150c.5.29.91.71,1.18,1.21h.38v1.5c0,1.51,0,4.87-.02,8.37v1.04c-.02,2.45-.03,4.89-.03,9.38,0,1.69-1.32,3.06-3.01,3.13-.42.03-.79,0-1.11-.07l-.08.15ZM266.65,536.36l.29.14c.44.22.63.31,1.04.28.11,0,.17-.06.17-.13,0-4.49.01-6.94.02-9.39v-1.04c.02-2.78.03-5.46.03-7.21v-1.15s-.01-.08-.07-.11L8.33,367.76c-1.76-1.01-2.74-.5-3.32-.03-.6.48-1.09,1.3-1.43,2.37-.32,1-.52,2.25-.57,3.62-.19,5.07,1.74,11.78,5.2,13.78,43.05,24.73,86.54,49.74,129.24,74.34,39.55,22.79,83.02,47.86,129.19,74.51ZM267.88,536.78l-2.24-1.29c-43.72-25.24-85.61-49.4-128.07-73.86-45.52-26.22-87.79-50.54-129.24-74.34-3.59-2.07-5.27-8.39-5.07-13.57.05-1.35.24-2.55.55-3.54.33-1.05.78-1.79,1.35-2.25.47-.37,1.48-.87,3.05.04l259.73,149.95v.87c0,3.92-.01,6.16-.02,8.41l-.04,9.57ZM6.84,370.65c-.05.11-.11.26-.16.44-.23.73-.37,1.68-.41,2.75h0c-.18,4.75,1.42,9.62,3.57,10.86,41.44,23.8,83.72,48.12,129.24,74.34,41.73,24.04,82.92,47.79,125.83,72.57l.02-4.36c0-2.12.02-4.19.02-7.58L6.84,370.65Z"/><g class="cls-1"><path class="cls-17" d="M279.03,356.26c-8.22,0-16.45-.93-24.19-2.78-7.46-1.78-14.46-4.43-20.53-7.94h0s0,0,0,0c-6.12-3.54-10.75-7.62-13.88-11.99-3.3-4.6-4.95-9.52-4.95-14.44s1.65-9.85,4.95-14.44c3.13-4.37,7.76-8.46,13.89-11.99l.06-.03c6.06-3.49,13.04-6.13,20.47-7.91,7.74-1.85,15.97-2.78,24.19-2.78h0c8.23,0,16.47.93,24.2,2.78,7.47,1.79,14.46,4.43,20.54,7.94,6.12,3.53,10.75,7.62,13.89,11.99,3.3,4.6,4.95,9.52,4.95,14.45h0c0,4.93-1.65,9.85-4.95,14.44-3.13,4.37-7.76,8.45-13.89,11.99l-.06.03c-6.06,3.49-13.04,6.12-20.47,7.9-7.74,1.85-15.98,2.78-24.2,2.78Z"/></g><path class="cls-9" d="M181.15,135.12c-11.94,37.67,1.07,63.37,14.55,86.46,8.49,14.55,14.53,16.62,19.21,33.16,2.81,9.95,1.83,17.66,9.66,25.78,21.46,22.26,66.28,22.9,85.47,0,7.24-8.64,6.85-15.82,9.66-25.78,4.67-16.54,10.71-18.61,19.21-33.16,13.48-23.09,26.48-48.79,14.55-86.46-12.27-38.72-49.21-58.07-86.15-58.07s-73.88,19.36-86.15,58.07Z"/><path class="cls-10" d="M268.44,298.96c-17.7,0-34.36-6.41-44.95-17.39-5.96-6.18-7.1-12.26-8.32-18.69-.46-2.46-.94-5.01-1.71-7.72-2.9-10.27-6.32-14.78-10.64-20.48-2.48-3.27-5.29-6.98-8.42-12.33-14.51-24.84-26.54-50.25-14.68-87.67h0c11.38-35.92,45.76-59.12,87.58-59.12s76.2,23.21,87.58,59.12c11.86,37.43-.18,62.83-14.68,87.67-3.12,5.34-5.93,9.05-8.41,12.32-4.33,5.7-7.74,10.21-10.64,20.49-.73,2.57-1.24,4.96-1.73,7.26-1.42,6.66-2.65,12.42-8.23,19.07-8.79,10.49-23.43,16.84-40.18,17.43-.86.03-1.71.04-2.56.04ZM267.3,78.55c-40.49,0-73.74,22.38-84.72,57.03h0c-11.49,36.26.26,61.02,14.41,85.25,3.03,5.19,5.79,8.83,8.22,12.03,4.34,5.72,8.08,10.66,11.14,21.48.8,2.84,1.29,5.45,1.77,7.98,1.18,6.24,2.19,11.63,7.53,17.16,10.52,10.91,27.43,17.06,45.25,16.43,15.9-.55,29.75-6.52,37.99-16.35,5.1-6.09,6.2-11.24,7.6-17.77.5-2.35,1.02-4.78,1.77-7.45,3.06-10.82,6.8-15.76,11.14-21.48,2.43-3.2,5.18-6.84,8.21-12.02,14.15-24.24,25.9-48.99,14.41-85.25-10.98-34.64-44.24-57.03-84.72-57.03Z"/><path class="cls-2" d="M261.5,254.25c0,.78-.64,1.42-1.42,1.42s-1.42-.64-1.42-1.42c-.02-10.93-1.55-24.21-3.91-37.95-2.84-16.55-6.87-33.71-10.89-48.23-.21-.76.24-1.54.99-1.75.76-.21,1.54.23,1.75.99,4.05,14.62,8.11,31.89,10.96,48.5,2.38,13.85,3.92,27.29,3.94,38.43h0ZM276.22,262.74c0,.79-.64,1.43-1.43,1.43s-1.43-.64-1.43-1.43c0-11.54,1.31-24.3,3.79-36.92,2.4-12.22,5.89-24.33,10.34-35.11.3-.73,1.13-1.07,1.86-.77.72.3,1.07,1.13.77,1.85-4.37,10.58-7.81,22.51-10.17,34.58-2.44,12.43-3.73,25-3.73,36.37Z"/><path class="cls-10" d="M274.79,265.67c-1.61,0-2.93-1.31-2.93-2.93,0-11.61,1.32-24.47,3.82-37.21,2.48-12.64,6.08-24.88,10.43-35.4.62-1.49,2.33-2.2,3.82-1.59,1.48.61,2.2,2.32,1.59,3.81-4.2,10.16-7.68,22.02-10.09,34.3-2.42,12.36-3.7,24.83-3.7,36.08,0,1.61-1.31,2.93-2.93,2.93ZM260.08,257.17c-1.61,0-2.92-1.31-2.92-2.92-.02-10.09-1.33-22.78-3.89-37.69-2.59-15.07-6.45-32.15-10.86-48.08-.43-1.55.49-3.17,2.04-3.59.75-.21,1.54-.11,2.22.27.68.38,1.17,1.01,1.38,1.77,4.48,16.15,8.38,33.43,10.99,48.65,2.61,15.22,3.95,28.23,3.97,38.68h0c0,1.61-1.31,2.92-2.92,2.92Z"/><path class="cls-9" d="M280.1,187.07c.55,3.38,2.96,7.17,5.38,8.44,2.41,1.27,3.92-.45,3.37-3.84l-1.29-7.86c-.55-3.39-2.96-7.17-5.37-8.44-2.41-1.27-3.92.44-3.37,3.82l1.29,7.88Z"/><path class="cls-10" d="M286.94,197.43c-.61,0-1.33-.16-2.17-.6-2.82-1.48-5.53-5.67-6.16-9.52l-1.29-7.88c-.41-2.5.12-4.41,1.47-5.38.64-.46,2.03-1.08,4.08,0,2.83,1.49,5.53,5.67,6.16,9.53l1.29,7.86c.41,2.5-.12,4.42-1.48,5.4-.38.28-1.03.6-1.91.6ZM280.71,176.45c-.08,0-.13.01-.16.03-.15.11-.53.8-.26,2.46l1.29,7.88c.48,2.93,2.58,6.3,4.59,7.35.52.27.83.27.92.21.16-.11.54-.81.27-2.48l-1.29-7.86c-.48-2.93-2.58-6.29-4.59-7.36-.35-.19-.61-.25-.77-.25Z"/><path class="cls-2" d="M281.5,186.84c.24,1.5.91,3.1,1.78,4.48.84,1.33,1.87,2.41,2.85,2.93.39.21.69.28.9.25.04,0,.08-.02.12-.05.05-.04.11-.11.16-.2.25-.47.31-1.27.14-2.35l-1.29-7.86c-.24-1.5-.91-3.11-1.78-4.48-.85-1.33-1.87-2.41-2.85-2.93-.39-.2-.69-.29-.9-.25-.04,0-.08.02-.12.05-.05.04-.1.11-.15.2-.25.47-.31,1.27-.13,2.34l1.29,7.87h0ZM280.89,192.84c-1.07-1.68-1.89-3.66-2.2-5.55l-1.29-7.88c-.27-1.71-.1-3.12.43-4.12.24-.46.56-.84.94-1.14.4-.31.87-.51,1.39-.6.81-.13,1.72.04,2.68.54,1.43.75,2.82,2.2,3.92,3.92,1.07,1.68,1.89,3.67,2.2,5.55l1.29,7.86c.28,1.71.1,3.13-.43,4.13-.24.46-.56.84-.95,1.14-.4.31-.87.51-1.39.6-.81.13-1.72-.03-2.68-.54-1.43-.75-2.82-2.2-3.92-3.92Z"/><path class="cls-10" d="M286.95,198.85c-.93,0-1.9-.26-2.84-.75-1.6-.84-3.2-2.42-4.48-4.45h0c-1.22-1.93-2.08-4.1-2.41-6.11l-1.29-7.88c-.32-1.99-.12-3.74.58-5.06.34-.66.8-1.2,1.36-1.63.59-.46,1.29-.75,2.05-.88,1.16-.19,2.41.05,3.62.69,1.61.85,3.2,2.42,4.49,4.44,1.23,1.92,2.08,4.1,2.41,6.11l1.29,7.86c.32,1.99.12,3.74-.58,5.07-.34.65-.8,1.2-1.36,1.63-.59.46-1.29.76-2.05.88-.25.04-.51.06-.78.06ZM281.67,178.6s.01.08.02.12l1.29,7.88c.2,1.24.77,2.66,1.57,3.91.45.71.95,1.32,1.43,1.77,0-.05-.01-.09-.02-.14l-1.29-7.86c-.2-1.24-.77-2.67-1.57-3.91-.45-.7-.95-1.32-1.43-1.77Z"/><path class="cls-9" d="M271.62,184.07c.55,3.39,2.96,7.17,5.38,8.44,2.41,1.27,3.92-.45,3.37-3.84l-2.08-12.68c-.55-3.39-2.96-7.18-5.38-8.44-2.41-1.27-3.92.45-3.37,3.83l2.08,12.68Z"/><path class="cls-10" d="M278.46,194.43c-.61,0-1.33-.16-2.17-.59-2.82-1.49-5.53-5.67-6.16-9.53l-2.08-12.68c-.41-2.5.12-4.42,1.48-5.4.65-.47,2.04-1.08,4.07,0,2.82,1.47,5.52,5.65,6.16,9.52l2.08,12.68c.41,2.5-.12,4.42-1.48,5.4-.38.27-1.02.6-1.91.6ZM271.44,168.63c-.08,0-.13.01-.16.03-.16.11-.54.81-.27,2.48l2.08,12.68c.48,2.93,2.58,6.3,4.59,7.36.51.27.83.27.92.21.16-.11.54-.81.27-2.48l-2.08-12.68c-.47-2.89-2.62-6.32-4.59-7.35-.35-.19-.62-.25-.77-.25Z"/><path class="cls-2" d="M273.02,183.84c.25,1.5.91,3.1,1.78,4.48.85,1.33,1.86,2.41,2.85,2.93.39.2.69.28.9.25.05,0,.08-.02.12-.05.05-.04.11-.11.16-.2.25-.47.31-1.27.14-2.35l-2.08-12.68c-.24-1.51-.91-3.11-1.79-4.49-.84-1.32-1.86-2.4-2.84-2.92l-.07-.04c-.36-.18-.64-.25-.83-.22-.05,0-.09.03-.12.05-.05.04-.1.11-.15.2-.25.47-.31,1.27-.14,2.34l2.08,12.68h0ZM272.41,189.84c-1.07-1.68-1.89-3.67-2.2-5.55l-2.08-12.68c-.28-1.71-.1-3.13.43-4.13.24-.46.56-.85.95-1.14.4-.31.87-.51,1.39-.6.79-.13,1.67.03,2.6.5l.08.04c1.43.74,2.82,2.19,3.92,3.92,1.07,1.69,1.89,3.67,2.2,5.56l2.08,12.68c.28,1.71.1,3.13-.43,4.13-.24.46-.56.85-.94,1.14-.4.31-.87.51-1.39.6-.81.13-1.72-.03-2.68-.54-1.43-.75-2.82-2.2-3.92-3.93Z"/><path class="cls-10" d="M278.46,195.85c-.92,0-1.89-.25-2.83-.75-1.61-.85-3.2-2.43-4.49-4.45h0c-1.22-1.92-2.08-4.09-2.41-6.11l-2.08-12.68c-.32-1.98-.12-3.74.58-5.07.34-.65.8-1.2,1.36-1.63.61-.47,1.3-.76,2.06-.89,1.12-.18,2.34.04,3.52.64,1.69.88,3.29,2.45,4.58,4.48,1.23,1.93,2.08,4.1,2.42,6.12l2.08,12.68c.32,1.98.12,3.74-.58,5.07-.34.65-.8,1.2-1.36,1.63-.59.46-1.29.76-2.06.88-.26.04-.52.06-.78.06ZM272.4,170.77s.01.1.02.15l2.08,12.68c.2,1.24.77,2.67,1.57,3.91.45.71.95,1.32,1.43,1.78,0-.05-.01-.1-.02-.14l-2.08-12.68c-.2-1.24-.77-2.67-1.57-3.93-.45-.7-.95-1.32-1.43-1.77Z"/><path class="cls-9" d="M263.16,181.21c.55,3.39,2.96,7.17,5.38,8.44,2.41,1.27,3.92-.45,3.37-3.83l-2.86-17.49c-.55-3.38-2.96-7.17-5.38-8.44-2.41-1.27-3.92.44-3.37,3.82l2.86,17.5Z"/><path class="cls-10" d="M270,191.58c-.61,0-1.33-.16-2.17-.6-2.82-1.49-5.53-5.67-6.16-9.52l-2.86-17.5c-.41-2.5.11-4.41,1.47-5.38.64-.46,2.03-1.08,4.08,0,2.82,1.49,5.53,5.67,6.16,9.52l2.86,17.49c.41,2.5-.12,4.42-1.48,5.39-.38.28-1.02.6-1.91.6ZM262.19,160.97c-.08,0-.13.01-.16.03-.15.11-.53.8-.26,2.47l2.86,17.5c.48,2.93,2.58,6.29,4.59,7.35.51.27.83.27.92.21.16-.11.54-.81.27-2.47l-2.86-17.49c-.48-2.93-2.58-6.29-4.59-7.35-.35-.19-.61-.25-.77-.25Z"/><path class="cls-2" d="M264.56,180.99c.25,1.5.91,3.1,1.78,4.48.85,1.33,1.86,2.41,2.85,2.93.39.21.69.28.89.25.05,0,.08-.03.12-.05.05-.04.11-.11.16-.2.25-.47.31-1.27.14-2.34l-2.86-17.49c-.25-1.5-.91-3.1-1.78-4.47-.85-1.33-1.87-2.41-2.85-2.93-.39-.21-.69-.28-.9-.25-.05,0-.08.02-.11.05-.05.04-.1.11-.15.2-.25.47-.31,1.27-.14,2.33l2.86,17.51h0ZM263.95,186.99c-1.07-1.68-1.89-3.67-2.2-5.55l-2.86-17.5c-.28-1.71-.1-3.12.42-4.12.24-.46.56-.84.94-1.14.41-.31.87-.51,1.39-.59.81-.13,1.72.03,2.68.54,1.43.75,2.82,2.2,3.92,3.92,1.07,1.68,1.89,3.66,2.2,5.55l2.86,17.49c.28,1.71.1,3.13-.43,4.13-.24.46-.56.85-.95,1.14-.4.31-.87.51-1.39.6-.81.13-1.72-.03-2.68-.54-1.43-.75-2.82-2.2-3.92-3.92Z"/><path class="cls-10" d="M270.01,192.99c-.93,0-1.9-.26-2.84-.76-1.6-.84-3.19-2.42-4.48-4.44h0c-1.22-1.93-2.08-4.1-2.41-6.11l-2.86-17.5c-.32-1.98-.12-3.73.58-5.06.34-.65.79-1.19,1.35-1.63.62-.47,1.31-.76,2.07-.89,1.14-.19,2.4.05,3.62.69,1.61.84,3.2,2.42,4.49,4.45,1.23,1.93,2.08,4.1,2.41,6.11l2.86,17.49c.32,1.98.12,3.74-.58,5.07-.34.65-.8,1.2-1.36,1.63-.6.46-1.3.76-2.06.89-.25.04-.51.06-.77.06ZM263.16,163.12s.01.08.02.12l2.86,17.51c.2,1.24.77,2.67,1.57,3.91.45.7.95,1.32,1.43,1.77,0-.04-.01-.09-.02-.14l-2.86-17.49c-.2-1.24-.78-2.66-1.57-3.91-.45-.7-.94-1.31-1.42-1.77Z"/><path class="cls-9" d="M253.84,173.09c.55,3.39,2.96,7.17,5.37,8.43,2.42,1.28,3.93-.44,3.38-3.82l-2.08-12.69c-.55-3.38-2.96-7.17-5.37-8.44-2.41-1.27-3.92.44-3.37,3.82l2.08,12.7Z"/><path class="cls-10" d="M260.69,183.45c-.61,0-1.34-.16-2.18-.6-2.81-1.48-5.51-5.66-6.14-9.51l-2.08-12.7c-.41-2.5.12-4.41,1.47-5.38.65-.47,2.03-1.08,4.08,0,2.82,1.49,5.53,5.67,6.16,9.52l2.08,12.69c.41,2.5-.12,4.41-1.47,5.39-.38.27-1.02.6-1.91.6ZM253.67,157.65c-.08,0-.13.01-.16.03-.15.11-.53.8-.26,2.47l2.08,12.7c.47,2.88,2.61,6.31,4.58,7.34.52.28.84.28.94.22.16-.11.54-.8.26-2.47l-2.08-12.69c-.48-2.93-2.58-6.29-4.59-7.35-.35-.19-.61-.25-.77-.25Z"/><path class="cls-2" d="M255.25,172.86c.25,1.5.91,3.1,1.78,4.48h0c.85,1.33,1.86,2.41,2.84,2.92.39.21.7.29.91.25.05,0,.09-.02.12-.05.05-.04.1-.11.15-.2.25-.47.31-1.27.14-2.34l-2.08-12.68c-.25-1.5-.91-3.11-1.78-4.48-.85-1.33-1.87-2.41-2.85-2.93-.39-.2-.69-.28-.9-.25-.04,0-.08.02-.12.05-.05.04-.1.11-.15.2-.25.47-.31,1.27-.14,2.34l2.08,12.69h0ZM254.63,178.86c-1.07-1.68-1.88-3.66-2.19-5.54l-2.08-12.7c-.28-1.7-.1-3.12.43-4.12.24-.46.56-.84.95-1.14.4-.31.87-.51,1.39-.59.81-.13,1.72.03,2.68.54,1.43.75,2.82,2.2,3.92,3.93,1.07,1.68,1.89,3.66,2.2,5.55l2.08,12.68c.28,1.71.1,3.12-.43,4.13-.24.46-.56.85-.95,1.14-.4.31-.87.51-1.38.59-.81.13-1.73-.03-2.69-.54-1.43-.75-2.82-2.19-3.92-3.92h0Z"/><path class="cls-10" d="M260.69,184.87c-.93,0-1.9-.26-2.85-.76-1.6-.84-3.2-2.42-4.48-4.44l-1.03-1.62.11-.04c-.73-1.46-1.24-3-1.48-4.45l-2.08-12.7c-.32-1.98-.12-3.73.58-5.06.35-.65.8-1.2,1.36-1.63.6-.46,1.29-.76,2.06-.88,1.15-.19,2.4.05,3.62.69,1.61.85,3.2,2.43,4.49,4.45,1.22,1.92,2.08,4.09,2.41,6.11l2.08,12.68c.33,1.97.13,3.73-.58,5.07-.34.65-.8,1.21-1.36,1.63-.6.46-1.29.75-2.05.88-.25.04-.52.06-.78.06ZM258.16,176.32l.13.21c.45.71.95,1.32,1.43,1.77,0-.04-.01-.09-.02-.13l-2.08-12.68c-.2-1.24-.77-2.67-1.57-3.92-.45-.7-.95-1.32-1.43-1.77,0,.04.01.08.02.13l2.08,12.69c.19,1.17.71,2.51,1.44,3.7Z"/><path class="cls-9" d="M244.71,166.1c.55,3.38,2.95,7.16,5.37,8.44,2.41,1.27,3.91-.46,3.37-3.84l-1.29-7.86c-.55-3.39-2.96-7.17-5.38-8.44-2.42-1.28-3.92.44-3.37,3.84l1.29,7.86Z"/><path class="cls-10" d="M251.54,176.46c-.61,0-1.33-.16-2.16-.59-2.83-1.49-5.53-5.67-6.16-9.52l-1.29-7.86c-.41-2.51.11-4.43,1.47-5.41.64-.46,2.03-1.08,4.08,0,2.82,1.49,5.52,5.67,6.16,9.52l1.29,7.86c.4,2.51-.13,4.42-1.49,5.4-.38.27-1.02.6-1.9.6ZM245.31,155.48c-.07,0-.12.01-.15.03-.16.11-.54.81-.26,2.49l1.29,7.86c.47,2.92,2.58,6.29,4.59,7.35.51.27.82.27.92.21.16-.11.54-.81.27-2.48l-1.29-7.86c-.48-2.93-2.58-6.3-4.59-7.36-.36-.19-.62-.25-.78-.25Z"/><path class="cls-2" d="M246.11,165.87c.24,1.51.91,3.11,1.78,4.48.84,1.33,1.86,2.41,2.85,2.93.39.2.68.28.89.25.05,0,.08-.02.12-.05.05-.04.11-.11.16-.21.25-.47.31-1.27.15-2.34l-1.29-7.86c-.24-1.5-.91-3.11-1.78-4.48-.84-1.33-1.86-2.41-2.85-2.93-.39-.21-.7-.29-.9-.26-.05,0-.08.02-.11.05-.05.04-.1.11-.15.19-.25.48-.31,1.28-.14,2.36l1.29,7.86h0ZM245.5,171.88c-1.07-1.68-1.89-3.66-2.19-5.55l-1.29-7.87c-.28-1.72-.1-3.14.43-4.14.24-.46.56-.84.94-1.13.41-.31.87-.51,1.38-.59h0c.81-.13,1.72.04,2.68.54,1.43.75,2.82,2.2,3.92,3.93,1.07,1.68,1.89,3.66,2.2,5.55l1.29,7.87c.27,1.7.09,3.12-.43,4.12-.24.46-.56.85-.95,1.14-.41.31-.88.51-1.4.59-.8.13-1.7-.04-2.66-.54-1.43-.76-2.82-2.2-3.92-3.93Z"/><path class="cls-10" d="M251.56,177.88c-.92,0-1.89-.25-2.83-.75-1.61-.85-3.21-2.43-4.49-4.45-1.22-1.92-2.08-4.09-2.41-6.11l-1.29-7.86c-.32-1.99-.12-3.75.58-5.08.34-.65.79-1.19,1.35-1.62.62-.47,1.31-.76,2.06-.88l.13-.02c1.12-.15,2.32.1,3.49.72,1.6.84,3.19,2.42,4.48,4.45,1.22,1.92,2.08,4.09,2.41,6.11l1.29,7.87c.32,1.99.11,3.73-.59,5.06-.34.65-.8,1.2-1.36,1.63-.61.47-1.31.76-2.08.89-.25.04-.5.06-.76.06ZM246.28,157.63s.01.1.02.15l1.29,7.86c.2,1.24.77,2.67,1.57,3.91.46.72.95,1.33,1.43,1.78,0-.05-.01-.1-.02-.15l-1.29-7.85c-.2-1.24-.77-2.67-1.57-3.91-.45-.71-.95-1.32-1.43-1.78Z"/><path class="cls-2" d="M268.08,59.42c0,.79-.64,1.43-1.43,1.43s-1.43-.64-1.43-1.43V2.93c0-.79.64-1.43,1.43-1.43s1.43.64,1.43,1.43v56.49Z"/><path class="cls-10" d="M266.65,62.34c-1.61,0-2.93-1.31-2.93-2.93V2.93c0-1.61,1.31-2.93,2.93-2.93s2.93,1.31,2.93,2.93v56.49c0,1.61-1.31,2.93-2.93,2.93Z"/><path class="cls-2" d="M352.04,88.46c-.56.55-1.46.55-2.01,0-.56-.56-.55-1.46,0-2.01l39.64-39.57c.56-.55,1.46-.55,2.01,0,.55.56.55,1.46,0,2.01l-39.64,39.57Z"/><path class="cls-10" d="M351.04,90.38h0c-.78,0-1.51-.31-2.06-.86-.55-.55-.85-1.29-.85-2.07,0-.78.31-1.51.87-2.06l39.64-39.57c.55-.55,1.28-.85,2.06-.85h0c.78,0,1.51.31,2.06.86,1.13,1.14,1.13,2.99,0,4.13l-39.64,39.57c-.55.55-1.28.85-2.06.85Z"/><path class="cls-2" d="M381.51,172.92c-.79,0-1.43-.64-1.43-1.43s.64-1.43,1.43-1.43h55.45c.79,0,1.43.64,1.43,1.43s-.64,1.43-1.43,1.43h-55.45Z"/><path class="cls-10" d="M436.96,174.42h-55.45c-1.61,0-2.93-1.31-2.93-2.93s1.31-2.93,2.93-2.93h55.45c1.61,0,2.93,1.31,2.93,2.93s-1.31,2.93-2.93,2.93Z"/><path class="cls-2" d="M183.22,86.45c.56.55.56,1.45,0,2.01-.55.56-1.45.56-2.01,0l-39.64-39.57c-.56-.56-.56-1.46,0-2.01.55-.56,1.45-.56,2.01,0l39.64,39.57Z"/><path class="cls-10" d="M182.22,90.38c-.78,0-1.51-.3-2.06-.85l-39.64-39.57c-1.14-1.14-1.14-2.99,0-4.13.55-.55,1.28-.86,2.06-.86h0c.78,0,1.51.3,2.06.85l39.64,39.57c.55.55.86,1.28.86,2.06,0,.78-.3,1.52-.85,2.07-.55.55-1.28.86-2.06.86h0Z"/><path class="cls-2" d="M151.76,170.07c.79,0,1.43.64,1.43,1.43s-.64,1.43-1.43,1.43h-55.46c-.79,0-1.43-.64-1.43-1.43s.64-1.43,1.43-1.43h55.46Z"/><path class="cls-10" d="M151.75,174.42h-55.46c-1.61,0-2.93-1.31-2.93-2.93s1.31-2.93,2.93-2.93h55.46c1.61,0,2.93,1.31,2.93,2.93s-1.31,2.93-2.93,2.93Z"/><path class="cls-2" d="M228.59,328.39c-14.7-8.49-19.29-20.6-13.78-31.35l10.5-20.44h83.97l10.5,20.44c5.51,10.75.92,22.86-13.78,31.35-21.38,12.34-56.04,12.34-77.41,0Z"/><path class="cls-10" d="M267.3,339.11c-14.29,0-28.58-3.14-39.46-9.42h0c-14.97-8.64-20.47-21.41-14.36-33.33l10.92-21.25h85.81l10.91,21.25c6.11,11.92.61,24.69-14.36,33.33-10.88,6.28-25.17,9.42-39.46,9.42ZM229.34,327.09c20.93,12.08,54.98,12.08,75.91,0,13.44-7.76,18.5-19.01,13.19-29.36l-10.08-19.62h-82.14l-10.08,19.62c-5.31,10.35-.25,21.6,13.19,29.36h0Z"/><path class="cls-2" d="M227.88,329.62c-7.5-4.33-12.48-9.6-14.94-15.2-2.6-5.92-2.4-12.16.61-18.02l10.5-20.43c.25-.49.75-.78,1.27-.78h0s83.97,0,83.97,0c.6,0,1.12.37,1.33.9l10.44,20.32c3.01,5.86,3.21,12.11.61,18.02-2.46,5.6-7.44,10.87-14.94,15.2l-.09.05c-10.9,6.27-25.13,9.4-39.33,9.4s-28.5-3.15-39.41-9.45h0ZM215.55,313.28c2.22,5.06,6.81,9.87,13.76,13.89h0c10.46,6.04,24.22,9.06,38,9.06s27.47-3,37.93-9.02l.07-.04c6.95-4.01,11.53-8.83,13.76-13.89,2.25-5.12,2.07-10.51-.53-15.58l-10.09-19.66h-82.25l-10.1,19.66c-2.6,5.07-2.77,10.47-.53,15.58Z"/><path class="cls-10" d="M267.3,340.57c-14.96,0-29.07-3.35-39.81-9.45h0l-.35-.2c-7.52-4.34-12.9-9.83-15.56-15.9-2.79-6.36-2.57-13.03.65-19.31l10.5-20.44c.25-.5.64-.9,1.1-1.18v-.41h1.5s83.97,0,83.97,0c1.18,0,2.22.69,2.69,1.76l10.41,20.27c3.22,6.28,3.44,12.95.65,19.31-2.66,6.06-8.04,11.56-15.56,15.9l-.12.06c-10.74,6.18-24.97,9.59-40.05,9.59ZM230.6,326.17c9.83,5.51,22.84,8.55,36.7,8.55s27.29-3.13,37.18-8.82c6.49-3.75,11.04-8.31,13.2-13.23,2.06-4.7,1.89-9.64-.49-14.29l-9.68-18.84h-80.42l-9.68,18.84c-2.38,4.65-2.55,9.6-.49,14.29,2.16,4.92,6.7,9.48,13.13,13.19l.54.31Z"/><path class="cls-9" d="M237.05,254.43c-16.71,9.65-16.71,25.29,0,34.93,16.71,9.65,43.79,9.65,60.5,0,16.71-9.64,16.71-25.28,0-34.93-16.71-9.64-43.79-9.64-60.5,0Z"/><path class="cls-10" d="M267.3,298.06c-11.23,0-22.45-2.47-31-7.4-8.56-4.94-13.28-11.61-13.28-18.76,0-7.16,4.72-13.82,13.28-18.77h0c17.09-9.87,44.91-9.87,62,0,8.57,4.95,13.28,11.61,13.28,18.77,0,7.16-4.72,13.82-13.28,18.76-8.55,4.94-19.77,7.4-31,7.4ZM237.8,255.73h0c-7.6,4.39-11.78,10.13-11.78,16.17,0,6.04,4.18,11.78,11.78,16.16,16.27,9.39,42.73,9.39,59,0,7.6-4.38,11.78-10.12,11.78-16.16,0-6.04-4.18-11.78-11.78-16.17-16.27-9.39-42.73-9.39-59,0Z"/><path class="cls-2" d="M237.76,255.66c-4.64,2.68-7.91,5.81-9.82,9.11-1.34,2.32-2.01,4.73-2.01,7.12h0c0,2.4.67,4.81,2,7.12h0c1.91,3.31,5.18,6.44,9.81,9.12h0c8.13,4.69,18.82,7.04,29.54,7.04s21.41-2.35,29.54-7.04l.08-.04c4.59-2.66,7.84-5.78,9.74-9.08,1.33-2.31,2-4.72,2-7.12s-.67-4.81-2-7.12c-1.91-3.3-5.18-6.44-9.82-9.11l-.07-.04c-8.12-4.67-18.78-7-29.47-7s-21.41,2.35-29.54,7.04h0ZM225.48,263.36c2.16-3.74,5.78-7.23,10.85-10.16h0c8.58-4.95,19.78-7.43,30.96-7.43s22.31,2.46,30.88,7.38l.09.05c5.08,2.93,8.7,6.42,10.85,10.16,1.6,2.76,2.39,5.65,2.39,8.54s-.8,5.78-2.39,8.54c-2.14,3.71-5.73,7.18-10.77,10.1l-.08.05c-8.58,4.95-19.78,7.43-30.96,7.43s-22.39-2.48-30.96-7.43h0c-5.08-2.94-8.7-6.42-10.86-10.15h0,0c-1.59-2.77-2.39-5.65-2.39-8.54h0c0-2.9.79-5.78,2.38-8.54Z"/><path class="cls-10" d="M267.3,299.52c-11.93,0-23.19-2.71-31.71-7.63l-2.09-1.21.06-.04c-4.18-2.74-7.33-5.91-9.37-9.45l-1.3-2.25h.18c-.98-2.3-1.47-4.65-1.47-7.04v-1.5h.07c.23-2.67,1.08-5.28,2.52-7.79,2.37-4.11,6.21-7.71,11.4-10.71l.36-.2c8.48-4.79,19.59-7.43,31.36-7.43s23.11,2.69,31.63,7.58l.09.05c5.19,3,9.03,6.6,11.4,10.71,1.72,2.97,2.59,6.1,2.59,9.29s-.87,6.32-2.59,9.29c-2.35,4.07-6.16,7.66-11.32,10.65-8.6,4.97-19.87,7.68-31.8,7.68ZM238.29,286.71l.22.13c7.64,4.41,17.86,6.84,28.79,6.84s21.15-2.43,28.79-6.84l.09-.05c4.24-2.46,7.33-5.33,9.17-8.52,1.19-2.07,1.8-4.21,1.8-6.37s-.61-4.3-1.8-6.38c-1.82-3.15-5.02-6.11-9.27-8.56l-.11-.07c-7.58-4.36-17.79-6.77-28.68-6.77s-20.89,2.37-28.49,6.67l-.3.17c-4.24,2.45-7.45,5.41-9.27,8.56-1.14,1.98-1.75,4.02-1.8,6.08v.3c0,2.06.55,4.11,1.65,6.1l.15.27c1.79,3.11,4.92,6.02,9.04,8.44Z"/><path class="cls-2" d="M224.57,273.08v14.87c.17,2.79,1.49,5.83,3.09,8.11,5.84,8.32,17.84,12.74,27.47,14.39,14.07,2.4,31.75.66,43.95-7.14,5.04-3.22,9.8-8.05,10.82-14.18l.15-1.18v-14.87c-.22,1.77-.47,3.02-1.18,4.7-3.75,8.89-14.77,14.18-23.55,16.53-15.44,4.14-36.12,2.87-49.78-5.87-5.04-3.22-9.8-8.05-10.82-14.18l-.15-1.18Z"/><path class="cls-10" d="M267.14,312.96c-4.11,0-8.24-.33-12.28-1.02-18.88-3.23-26.54-12.3-28.44-15.01-1.93-2.74-3.18-6.06-3.36-8.88v-14.97s2.99-.19,2.99-.19l.15,1.18c1.07,6.44,6.81,10.97,10.14,13.1,12.13,7.76,32.12,10.1,48.59,5.68,4.22-1.13,18.3-5.6,22.55-15.67.64-1.52.86-2.64,1.07-4.3l2.99.19v15.06s-.16,1.18-.16,1.18c-.95,5.72-5.03,11.12-11.5,15.26-8.45,5.4-20.48,8.38-32.74,8.38ZM226.07,281.5v6.46c.14,2.19,1.19,4.94,2.81,7.25,6.84,9.75,22.01,13.01,26.49,13.77,15.37,2.63,32.2-.09,42.89-6.92,3.33-2.13,9.07-6.67,10.15-13.16l.13-1.03v-6.31c-5.74,8.77-17.6,12.8-22.83,14.21-14.57,3.9-35.98,3.54-50.98-6.05-3.73-2.38-6.66-5.18-8.66-8.21Z"/><path class="cls-2" d="M225.99,281.26v6.69c.08,1.15.39,2.37.84,3.54.51,1.35,1.21,2.65,1.99,3.75,2.47,3.53,6.15,6.33,10.28,8.49,5.18,2.71,11.07,4.42,16.26,5.31,7.27,1.24,15.51,1.36,23.44.07,7.09-1.15,13.91-3.42,19.51-7,2.6-1.66,5.12-3.77,7.03-6.27,1.56-2.04,2.7-4.34,3.13-6.88h0l.14-1.09v-6.59c-1.85,2.89-4.42,5.34-7.34,7.39-4.8,3.37-10.55,5.66-15.59,7.01-8.23,2.2-17.91,2.91-27.26,1.81-8.59-1.02-16.93-3.55-23.66-7.85-2.86-1.83-5.65-4.16-7.77-6.94-.35-.46-.69-.94-1.01-1.43h0ZM223.14,287.96v-14.87c0-.71.53-1.33,1.25-1.42.78-.1,1.49.46,1.59,1.24l.15,1.18h0c.43,2.53,1.57,4.83,3.13,6.88,1.91,2.5,4.43,4.61,7.03,6.27,6.34,4.05,14.26,6.45,22.45,7.42,9,1.06,18.3.39,26.2-1.73,4.76-1.28,10.2-3.44,14.69-6.59,3.47-2.44,6.37-5.47,7.92-9.12.32-.76.54-1.43.7-2.09.15-.64.26-1.34.37-2.19.07-.73.68-1.29,1.42-1.29.79,0,1.43.64,1.43,1.43v14.87c0,.06,0,.11-.01.17l-.15,1.18h0s0,.06,0,.06c-.51,3.05-1.86,5.8-3.69,8.2-2.12,2.78-4.91,5.11-7.77,6.94-5.95,3.81-13.14,6.21-20.58,7.42-8.25,1.34-16.82,1.22-24.37-.07-5.43-.93-11.62-2.73-17.1-5.6-4.51-2.36-8.54-5.45-11.29-9.37-.9-1.28-1.72-2.8-2.32-4.38-.54-1.42-.91-2.91-1.01-4.36,0-.06-.01-.13-.01-.19Z"/><path class="cls-10" d="M267.24,314.38c-4.29,0-8.57-.35-12.61-1.04-6.28-1.07-12.51-3.11-17.54-5.75-5.16-2.71-9.14-6.02-11.83-9.84-1.01-1.44-1.87-3.06-2.5-4.71-.63-1.65-1-3.26-1.11-4.78,0-.05-.02-.17-.02-.3v-14.88c0-1.48,1.11-2.73,2.58-2.9.77-.09,1.54.12,2.15.6.62.48,1.01,1.18,1.1,1.95l.15,1.18c.35,2.05,1.31,4.15,2.84,6.15,1.63,2.14,3.93,4.18,6.65,5.92,5.79,3.71,13.34,6.19,21.82,7.19,8.66,1.02,17.76.42,25.64-1.69,5.37-1.44,10.42-3.7,14.21-6.37,3.6-2.53,6.09-5.38,7.4-8.47.28-.66.48-1.25.62-1.86.12-.52.22-1.12.34-2.02.13-1.47,1.39-2.61,2.91-2.61,1.61,0,2.93,1.31,2.93,2.93v14.88c0,.16-.01.24-.02.32l-.45,3.63-.22-.14c-.69,2.33-1.85,4.58-3.48,6.71-2.06,2.7-4.8,5.15-8.16,7.3-5.76,3.68-13.07,6.32-21.15,7.63-3.97.64-8.12.97-12.25.97ZM227.49,287.9c.08.94.33,2,.74,3.07.45,1.2,1.08,2.38,1.81,3.42,2.15,3.07,5.43,5.77,9.75,8.03,4.49,2.35,10.11,4.18,15.82,5.16,7.34,1.26,15.49,1.28,22.95.07,7.3-1.19,13.86-3.53,18.94-6.79,2.72-1.74,5.02-3.78,6.65-5.92,1.53-2,2.49-4.1,2.84-6.22l.12-.94v-2.16c-1.42,1.52-3.08,2.95-4.98,4.28-4.35,3.05-10.05,5.62-16.06,7.23-8.57,2.3-18.45,2.95-27.82,1.85-9.35-1.1-17.75-3.9-24.29-8.08-2.51-1.6-4.67-3.38-6.47-5.3v2.3ZM224.59,276.34l1.39,2.14c-.64-1.35-1.09-2.74-1.33-4.14l-.07-.58v2.58ZM309.96,274.16c-.08.52-.16.93-.25,1.33-.18.77-.43,1.51-.78,2.33-.09.21-.18.41-.28.62l1.3-2.04v-2.23ZM224.49,273.09h0,0s0,0,0,0ZM310.11,273.09s0,0,0,0c0,0,0,0,0,0Z"/><polygon class="cls-2" points="252.19 254.88 252.19 267.8 252.2 267.9 252.22 268 252.26 268.09 252.31 268.18 252.39 268.27 252.48 268.36 252.58 268.44 252.7 268.52 274.48 281.09 274.61 281.16 274.75 281.22 274.9 281.27 275.06 281.32 275.22 281.35 275.38 281.37 275.55 281.38 275.72 281.39 275.89 281.38 276.05 281.37 276.22 281.35 276.38 281.32 276.53 281.27 276.68 281.22 276.82 281.16 276.96 281.09 277.1 281.01 278.68 280.1 282.71 277.77 282.83 277.69 282.93 277.61 283.02 277.52 283.1 277.44 283.15 277.34 283.19 277.25 283.22 277.15 283.22 277.06 283.22 264.13 283.22 264.23 283.19 264.33 283.15 264.42 283.1 264.51 283.02 264.6 282.93 264.69 282.83 264.77 282.71 264.85 278.68 267.17 277.1 268.09 276.96 268.17 276.82 268.24 276.68 268.3 276.53 268.35 276.38 268.39 276.22 268.42 276.05 268.45 275.89 268.46 275.72 268.47 275.55 268.46 275.38 268.45 275.22 268.42 275.06 268.39 274.9 268.35 274.75 268.3 274.61 268.24 274.48 268.17 252.7 255.6 252.58 255.52 252.48 255.44 252.39 255.35 252.31 255.26 252.26 255.17 252.22 255.07 252.2 254.98 252.19 254.88"/><path class="cls-10" d="M275.72,282.89l-1.47-.26-.46-.21-22.56-13.2-.51-1.07-.03-.35v-12.92l2.21-.1.49-.53h.01s0,0,0,0l.03.02h0s.03.03.03.03h0s.04.02.04.02l21.86,12.59.38.04.5-.12,1.68-.97,4.06-2.35h0s.03-.02.03-.02h0s0,0,0,0l.2.25.34.29.23.06h1.94s-.08,13.51-.08,13.51l-.57.97-.55.44-6.86,3.75-.94.1ZM275.39,279.85l.31.04.55-.12,5.47-3.16v-9.46s-4.71,2.62-4.71,2.62l-1.27.19-1.23-.17-.73-.3-20.09-11.6v9.46l21.7,12.5Z"/><path class="cls-2" d="M253.61,257.77v9.64l21.53,12.43h0l.07.04.07.03.09.03c.13.02.26.04.4.04h0c.13-.01.17-.02.29-.04l.09-.03.07-.03c.58-.31,1.17-.67,1.74-1l.08-.04,3.76-2.17v-9.64l-4.19,2.42h0s-.13.07-.13.07c-.07.04-.14.06-.21.09l-.14.05-.15.05-.08.03h0s-.15.04-.15.04c-.06.01-.11.03-.17.03-.11.02-.21.04-.33.06h-.08s-.17.02-.17.02c-.06,0-.13,0-.19,0-.12,0-.25,0-.38,0h0s-.17,0-.17,0c-.06,0-.11-.01-.17-.02h-.08c-.06-.02-.12-.03-.17-.05-.1-.02-.2-.05-.31-.07-.06-.02-.12-.03-.17-.06l-.18-.07h0s-.14-.06-.14-.06l-.1-.05h0s-.13-.07-.13-.07c-.05-.03-.11-.06-.16-.1l-20.05-11.57h0ZM250.76,267.8v-12.92h0c0-.74.57-1.37,1.32-1.42.67-.05,1.27.37,1.46.98l21.54,12.44.16.08.05.02c.14.04.22.04.37.06h0c.09,0,.17,0,.27-.01.08-.01.16-.03.24-.06l.12-.06h0c1.85-1.08,3.71-2.14,5.57-3.21.18-.58.72-.99,1.36-.99.79,0,1.43.64,1.43,1.43v13.13c-.02.08-.03.16-.05.23l-.03.1c-.02.07-.04.14-.07.21l-.04.09h0c-.03.06-.06.12-.1.18h0c-.04.09-.09.17-.15.25l-.07.09s-.07.08-.11.12l-.03.03c-.05.06-.11.11-.18.16l-.11.08h0s-.07.05-.11.08c-1.31.83-2.78,1.61-4.13,2.39l-.08.05c-.61.36-1.23.74-1.86,1.07-.05.03-.1.05-.16.08l-.14.06h0s-.12.04-.12.04c-.07.03-.13.05-.2.07l-.12.03s-.08.02-.13.03l-.16.03h0s-.16.02-.16.02c-.05.01-.11.02-.16.02h-.17s0,.01,0,.01c-.13,0-.25.01-.38,0-.06,0-.13,0-.19,0h-.17v-.02l-.17-.02c-.05,0-.1-.01-.15-.02l-.16-.03-.09-.02-.16-.04h0s-.15-.05-.15-.05c-.06-.02-.12-.04-.18-.06l-.14-.06s-.08-.04-.12-.06l-.13-.07h0s-21.74-12.56-21.74-12.56c-.05-.02-.1-.05-.14-.08l-.12-.07h0s-.07-.05-.11-.08l-.05-.04c-.06-.04-.11-.09-.17-.14l-.07-.06s-.09-.09-.14-.15l-.07-.09h0c-.04-.05-.08-.11-.11-.17-.05-.08-.1-.16-.14-.26l-.04-.09h0c-.03-.07-.06-.14-.07-.22h0c-.03-.11-.05-.22-.06-.32v-.03c0-.06-.01-.11-.01-.18Z"/><path class="cls-10" d="M274.99,284.55v-.16l-.49.04v-.2l-.74-.06v-.18l-.73-.2v-.16l-.72-.42-21-12.12s-.15-.08-.24-.14l-.77-.47v-.15c-.07-.07-.14-.14-.2-.22l-.91-1.15.17-.17-.78-1.73h.67v-13.68h.42c.48-.79,1.31-1.34,2.29-1.42,1.12-.08,2.17.48,2.73,1.41l21.01,12.13c1.14-.67,2.28-1.32,3.42-1.98l1.57-.9c.52-.87,1.46-1.43,2.51-1.43,1.61,0,2.93,1.31,2.93,2.93l-.02,13.23c-.02.2-.04.34-.08.49l-.03.12c-.05.17-.09.31-.15.45l-.41.98h-.2c-.07.08-.14.16-.22.24-.05.05-.16.16-.29.26l-1.17.91-.1-.1c-.64.38-1.31.76-1.97,1.12-.44.25-.88.5-1.31.74l-.63.37c-.45.26-.9.53-1.35.77-.08.04-.19.1-.3.14l-1.06.44-.09-.09-1.8.34ZM275.85,279.2l.21.73-.1-.47-.11-.26ZM255.11,266.54l20.61,11.89c.31-.17.64-.37.97-.56l3.61-2.09v-6.18l-.24.14.07.07-1.72.9v.16l-.73.19v.17l-.74.06v.2l-1.79-.14c-.14-.02-.23-.03-.31-.04-.07,0-.14-.02-.2-.03l-.09.09-.24-.1-.07.07-1.11-.59c-.07-.03-.16-.09-.25-.15l-17.75-10.25v6.18ZM283.15,264.44l-.02.08h.02v-.08Z"/><path class="cls-2" d="M258.46,250.84l-5.75,3.32c-.68.4-.68,1.04,0,1.43l21.78,12.57c.68.39,1.8.4,2.48,0l.14-.08,1.58-.91,4.04-2.33c.68-.39.68-1.03,0-1.43l-21.78-12.57c-.68-.39-1.8-.4-2.48,0Z"/><path class="cls-10" d="M275.72,269.96c-.71,0-1.43-.16-2-.5l-21.78-12.57c-.8-.46-1.26-1.2-1.26-2.01s.46-1.55,1.26-2.02l5.76-3.32c1.15-.67,2.82-.67,3.97,0l21.78,12.57c.8.46,1.26,1.2,1.26,2.01s-.46,1.55-1.26,2.01l-5.77,3.33c-.55.32-1.26.49-1.96.49ZM254.46,254.88l20.77,11.99c.22.12.76.12.97,0l4.75-2.74-20.77-11.99c-.22-.12-.76-.13-.97,0h0s-4.75,2.74-4.75,2.74Z"/><path class="cls-2" d="M259.17,252.08l-4.86,2.81,20.88,12.06c.12.07.31.1.54.1s.4-.03.52-.1l1.72-.99.08-.04,3.06-1.77-20.92-12.08c-.12-.06-.3-.08-.5-.08-.22,0-.41.03-.53.1h0ZM251.99,252.93l5.75-3.32h0s0,0,0,0c.57-.33,1.27-.49,1.95-.49.64,0,1.3.15,1.84.43.04.02.08.04.11.06l21.78,12.57h0c.37.22.65.48.86.78.03.04.06.08.09.13.19.33.28.68.28,1.03s-.1.71-.28,1.04h0c-.21.36-.52.67-.94.91h0s-3.96,2.28-3.96,2.28l-.07.05-1.72.99c-.56.33-1.27.49-1.95.49s-1.38-.16-1.95-.49l-21.78-12.57c-.42-.25-.74-.56-.94-.92-.19-.33-.29-.68-.29-1.03,0-.31.08-.61.22-.91.02-.04.04-.09.07-.13.19-.32.46-.61.84-.84.03-.03.07-.05.1-.07Z"/><path class="cls-10" d="M275.72,271.39c-.97,0-1.92-.24-2.7-.69l-21.78-12.58c-.63-.37-1.15-.87-1.49-1.46-.32-.54-.49-1.16-.49-1.78,0-.54.13-1.07.38-1.57.02-.04.06-.13.11-.22.31-.53.75-.98,1.29-1.33.04-.03.09-.06.14-.09l6.8-3.93.11.11c1.34-.39,2.94-.25,4.13.38.03.01.13.07.23.13l23.4,13.51-.31.31s.06.09.09.14c.34.59.5,1.19.5,1.81s-.16,1.22-.48,1.78l-1.2,2.1-.39-.58-.9.52h0s-4.75,2.75-4.75,2.75c-.76.44-1.72.69-2.7.69ZM257.3,254.88l18.41,10.63,2.39-1.38-18.41-10.63-2.39,1.38Z"/><path class="cls-2" d="M182.51,135.55c-5.88,18.56-5.62,34.15-2.24,47.93,3.4,13.83,9.97,25.93,16.65,37.39,3.06,5.24,5.77,8.81,8.22,12.04,4.47,5.89,8.08,10.66,11.13,21.46.8,2.82,1.29,5.45,1.77,7.97,1.17,6.2,2.2,11.65,7.55,17.2,1.1,1.14,2.27,2.23,3.51,3.27,10.45,8.76,25.03,13.23,39.37,13.23,14.31,0,28.34-4.43,37.72-13.49.96-.92,1.88-1.9,2.74-2.94,5.11-6.1,6.27-11.51,7.61-17.81.5-2.33,1.02-4.78,1.77-7.44,3.05-10.8,6.66-15.57,11.13-21.46,2.45-3.22,5.16-6.8,8.21-12.03,6.69-11.46,13.26-23.55,16.65-37.39,3.39-13.79,3.64-29.38-2.23-47.93-5.73-18.06-16.92-31.84-30.99-41.32-15.58-10.5-34.68-15.75-53.8-15.75s-38.22,5.25-53.8,15.75c-14.07,9.48-25.27,23.26-30.99,41.32h0ZM177.51,184.16c-3.5-14.26-3.78-30.35,2.28-49.46,5.93-18.73,17.54-33,32.11-42.83,16.06-10.83,35.73-16.24,55.4-16.24s39.33,5.42,55.39,16.24c14.58,9.83,26.18,24.1,32.12,42.83,6.06,19.11,5.78,35.21,2.28,49.46-3.49,14.21-10.16,26.51-16.95,38.15-3.09,5.3-5.89,8.98-8.42,12.31-4.28,5.65-7.74,10.21-10.66,20.51-.73,2.57-1.24,4.98-1.73,7.27-1.42,6.66-2.65,12.4-8.21,19.04-.93,1.1-1.91,2.16-2.96,3.17-9.94,9.58-24.69,14.28-39.69,14.27-14.97,0-30.23-4.7-41.2-13.89-1.3-1.09-2.55-2.25-3.73-3.48-5.94-6.16-7.04-12-8.3-18.65-.46-2.44-.94-5-1.71-7.72-2.91-10.3-6.37-14.86-10.65-20.51-2.52-3.33-5.32-7.02-8.41-12.32-6.79-11.63-13.47-23.93-16.96-38.15Z"/><path class="cls-10" d="M268.5,300.37h-.02c-16,0-31.37-5.2-42.17-14.24-1.36-1.14-2.65-2.35-3.85-3.59-6.26-6.49-7.44-12.77-8.69-19.42-.45-2.42-.92-4.91-1.68-7.59-2.83-10.02-6.17-14.43-10.4-20-2.52-3.32-5.37-7.07-8.52-12.47-6.39-10.94-13.51-23.84-17.12-38.54h0c-4-16.3-3.25-32.75,2.31-50.28,5.68-17.95,16.99-33.03,32.7-43.62,15.79-10.64,35.76-16.5,56.24-16.5s40.45,5.86,56.23,16.5c15.71,10.59,27.02,25.67,32.71,43.62,5.56,17.53,6.31,33.97,2.31,50.28-3.61,14.69-10.73,27.6-17.12,38.54-3.13,5.35-5.97,9.11-8.48,12.42-4.26,5.62-7.6,10.03-10.44,20.05-.7,2.48-1.2,4.81-1.68,7.05l-.03.12c-1.46,6.85-2.72,12.76-8.53,19.69-.95,1.13-1.98,2.23-3.07,3.28-9.68,9.34-24.52,14.69-40.71,14.69ZM267.3,79.98c-19.33,0-38.14,5.5-52.96,15.5-14.6,9.84-25.12,23.86-30.4,40.53h0c-5.22,16.49-5.95,31.9-2.21,47.12,3.42,13.91,10.02,25.9,16.49,36.99,3.02,5.16,5.72,8.73,8.12,11.89,4.42,5.83,8.25,10.87,11.38,21.95.83,2.93,1.34,5.68,1.8,8.1,1.13,6.02,2.12,11.21,7.16,16.44,1.06,1.09,2.2,2.16,3.39,3.16,9.76,8.18,23.76,12.88,38.41,12.88h.02c14.69,0,28.05-4.76,36.66-13.07.93-.89,1.81-1.84,2.63-2.82,4.87-5.81,5.94-10.82,7.29-17.15.48-2.25,1.03-4.81,1.8-7.54,3.13-11.07,6.95-16.12,11.38-21.96,2.39-3.15,5.09-6.71,8.11-11.88,6.47-11.08,13.07-23.07,16.49-36.99,3.74-15.22,3.02-30.63-2.21-47.12-5.29-16.68-15.8-30.69-30.4-40.53-14.82-9.99-33.63-15.5-52.96-15.5Z"/><path class="cls-2" d="M182.51,135.55c-5.88,18.56-5.62,34.15-2.24,47.93,3.4,13.83,9.97,25.93,16.65,37.39,3.06,5.24,5.77,8.81,8.22,12.04,4.47,5.89,8.08,10.66,11.13,21.46.8,2.82,1.29,5.45,1.77,7.97,1.17,6.2,2.2,11.65,7.55,17.2,1.1,1.14,2.27,2.23,3.51,3.27,10.45,8.76,25.03,13.23,39.37,13.23,14.31,0,28.34-4.43,37.72-13.49.96-.92,1.88-1.9,2.74-2.94,5.11-6.1,6.27-11.51,7.61-17.81.5-2.33,1.02-4.78,1.77-7.44,3.05-10.8,6.66-15.57,11.13-21.46,2.45-3.22,5.16-6.8,8.21-12.03,6.69-11.46,13.26-23.55,16.65-37.39,3.39-13.79,3.64-29.38-2.23-47.93-5.73-18.06-16.92-31.84-30.99-41.32-15.58-10.5-34.68-15.75-53.8-15.75s-38.22,5.25-53.8,15.75c-14.07,9.48-25.27,23.26-30.99,41.32h0ZM177.51,184.16c-3.5-14.26-3.78-30.35,2.28-49.46,5.93-18.73,17.54-33,32.11-42.83,16.06-10.83,35.73-16.24,55.4-16.24s39.33,5.42,55.39,16.24c14.58,9.83,26.18,24.1,32.12,42.83,6.06,19.11,5.78,35.21,2.28,49.46-3.49,14.21-10.16,26.51-16.95,38.15-3.09,5.3-5.89,8.98-8.42,12.31-4.28,5.65-7.74,10.21-10.66,20.51-.73,2.57-1.24,4.98-1.73,7.27-1.42,6.66-2.65,12.4-8.21,19.04-.93,1.1-1.91,2.16-2.96,3.17-9.94,9.58-24.69,14.28-39.69,14.27-14.97,0-30.23-4.7-41.2-13.89-1.3-1.09-2.55-2.25-3.73-3.48-5.94-6.16-7.04-12-8.3-18.65-.46-2.44-.94-5-1.71-7.72-2.91-10.3-6.37-14.86-10.65-20.51-2.52-3.33-5.32-7.02-8.41-12.32-6.79-11.63-13.47-23.93-16.96-38.15Z"/><path class="cls-10" d="M268.5,300.37h-.02c-16,0-31.37-5.2-42.17-14.24-1.36-1.14-2.65-2.35-3.85-3.59-6.26-6.49-7.44-12.77-8.69-19.42-.45-2.42-.92-4.91-1.68-7.59-2.83-10.02-6.17-14.43-10.4-20-2.52-3.32-5.37-7.07-8.52-12.47-6.39-10.94-13.51-23.84-17.12-38.54h0c-4-16.3-3.25-32.75,2.31-50.28,5.68-17.95,16.99-33.03,32.7-43.62,15.79-10.64,35.76-16.5,56.24-16.5s40.45,5.86,56.23,16.5c15.71,10.59,27.02,25.67,32.71,43.62,5.56,17.53,6.31,33.97,2.31,50.28-3.61,14.69-10.73,27.6-17.12,38.54-3.13,5.35-5.97,9.11-8.48,12.42-4.26,5.62-7.6,10.03-10.44,20.05-.7,2.48-1.2,4.81-1.68,7.05l-.03.12c-1.46,6.85-2.72,12.76-8.53,19.69-.95,1.13-1.98,2.23-3.07,3.28-9.68,9.34-24.52,14.69-40.71,14.69ZM267.3,79.98c-19.33,0-38.14,5.5-52.96,15.5-14.6,9.84-25.12,23.86-30.4,40.53h0c-5.22,16.49-5.95,31.9-2.21,47.12,3.42,13.91,10.02,25.9,16.49,36.99,3.02,5.16,5.72,8.73,8.12,11.89,4.42,5.83,8.25,10.87,11.38,21.95.83,2.93,1.34,5.68,1.8,8.1,1.13,6.02,2.12,11.21,7.16,16.44,1.06,1.09,2.2,2.16,3.39,3.16,9.76,8.18,23.76,12.88,38.41,12.88h.02c14.69,0,28.05-4.76,36.66-13.07.93-.89,1.81-1.84,2.63-2.82,4.87-5.81,5.94-10.82,7.29-17.15.48-2.25,1.03-4.81,1.8-7.54,3.13-11.07,6.95-16.12,11.38-21.96,2.39-3.15,5.09-6.71,8.11-11.88,6.47-11.08,13.07-23.07,16.49-36.99,3.74-15.22,3.02-30.63-2.21-47.12-5.29-16.68-15.8-30.69-30.4-40.53-14.82-9.99-33.63-15.5-52.96-15.5Z"/><g class="cls-1"><path class="cls-17" d="M89.52,343.19c16.59,0,30.03,4.81,30.03,10.76s-13.45,10.76-30.03,10.76-30.04-4.82-30.04-10.76,13.45-10.76,30.04-10.76Z"/></g><polygon class="cls-9" points="128.27 266.02 131.3 261.75 137.83 266.3 140.76 269 132.66 269.88 128.27 266.02"/><path class="cls-2" d="M130.56,265.75l1.16-1.63,5.02,3.51.1.09-3.61.39-2.67-2.35h0ZM129.91,260.76l-2.97,4.18c-.57.71-.49,1.75.2,2.36l4.39,3.86h0c.34.3.81.47,1.31.41l8.08-.87c.41-.04.8-.22,1.1-.54.64-.69.59-1.78-.1-2.42l-2.93-2.7h0c-.06-.05-.12-.1-.18-.14l-6.46-4.5-.06-.04c-.77-.55-1.84-.37-2.38.4Z"/><path class="cls-2" d="M100.99,349.8c-.89-.51-1.33-1.18-1.33-1.86s.44-1.34,1.33-1.86c.89-.51,2.05-.77,3.22-.77s2.33.26,3.22.77l8.46,4.88c.89.51,1.33,1.19,1.33,1.86s-.44,1.35-1.33,1.86c-.89.51-2.05.77-3.22.77s-2.33-.26-3.22-.77l-8.46-4.88Z"/><path class="cls-2" d="M101.84,348.32c-.21-.12-.36-.24-.45-.37v-.02s0,0,0,0h0c.09-.12.24-.24.45-.36h0s0,0,0,0c.29-.17.64-.3,1.01-.39.41-.1.87-.15,1.35-.15s.94.05,1.35.15c.37.09.72.22,1.01.39l.1.05,8.37,4.83c.21.12.36.25.44.37v.02s0,0,0,0h0c-.08.12-.23.24-.45.37l-.07.04c-.27.15-.6.26-.94.35-.41.1-.87.15-1.35.15s-.94-.05-1.35-.15c-.38-.09-.73-.22-1.02-.39l-8.46-4.88h0ZM98.61,349.95c.36.49.87.95,1.53,1.33l8.46,4.88c.58.33,1.24.58,1.93.75.71.17,1.43.25,2.14.25s1.43-.09,2.14-.25c.65-.16,1.27-.39,1.82-.69l.11-.06c.65-.38,1.16-.83,1.52-1.33h0c.45-.63.67-1.31.67-2.01,0-.64-.19-1.26-.57-1.85-.03-.05-.06-.1-.1-.15-.35-.49-.87-.95-1.53-1.33l-8.36-4.83-.09-.05c-.58-.33-1.24-.58-1.94-.75-.7-.17-1.43-.25-2.14-.25s-1.43.08-2.14.25c-.7.17-1.36.42-1.94.75h0c-.66.38-1.17.84-1.52,1.33h0c-.45.63-.67,1.31-.67,2,0,.64.19,1.27.57,1.85.03.05.06.1.1.15Z"/><path class="cls-2" d="M83.15,359.88c-.89-.51-1.33-1.19-1.33-1.86s.44-1.35,1.33-1.86c.89-.51,2.06-.77,3.22-.77s2.33.26,3.22.77l8.46,4.88c.89.51,1.33,1.18,1.33,1.86s-.44,1.34-1.33,1.86c-.89.51-2.06.77-3.22.77s-2.33-.25-3.22-.77l-8.46-4.88Z"/><path class="cls-2" d="M84,358.4c-.21-.12-.36-.25-.44-.37h-.01s0-.02,0-.02h0c.09-.12.23-.25.44-.37h0s0,0,0,0c.29-.17.64-.3,1.01-.39.41-.1.87-.15,1.35-.15s.94.05,1.35.15c.37.09.72.22,1.01.39l.1.05,8.37,4.83c.21.12.36.25.45.37h0s0,.02,0,.02h0c-.09.12-.24.24-.45.37l-.07.04c-.28.15-.6.27-.94.35-.41.1-.87.14-1.35.14s-.94-.05-1.35-.14c-.38-.09-.73-.22-1.02-.39l-8.46-4.88h0ZM80.78,360.03c.35.5.86.95,1.53,1.33l8.46,4.88c.58.33,1.24.58,1.93.75.71.17,1.43.25,2.14.25s1.43-.08,2.14-.25c.65-.16,1.27-.39,1.82-.69l.11-.06c.66-.38,1.16-.83,1.52-1.33h0c.45-.63.67-1.31.67-2,0-.64-.19-1.27-.57-1.85-.03-.05-.06-.1-.1-.15-.35-.5-.86-.95-1.53-1.33l-8.37-4.83-.09-.06c-.58-.33-1.23-.58-1.94-.75-.71-.17-1.43-.25-2.14-.25s-1.43.08-2.14.25c-.7.17-1.36.42-1.94.75h0c-.66.39-1.17.84-1.52,1.33h0c-.45.63-.67,1.31-.67,2,0,.64.19,1.27.57,1.85.03.05.06.1.1.15Z"/><path class="cls-2" d="M106.17,269.82c2.39.93,4.09,3.25,4.09,5.97,0,.18,0,.36-.02.53l-.08,35.25c0,10.93-.94,22.89-1.39,33.93,0,.67-.45,1.35-1.33,1.86-.89.51-2.05.77-3.22.77s-2.33-.26-3.22-.77c-.89-.51-1.33-1.18-1.33-1.86-.03-11.34-.11-22.69-.11-34.03l-2.79-22.41-3.53,2-.91,30.59c-.4,11.3-.93,22.63-1.4,33.93,0,.67-.44,1.34-1.33,1.86-.89.51-2.05.77-3.22.77s-2.33-.26-3.22-.77c-.89-.51-1.33-1.19-1.33-1.86-.03-11.34-.11-22.69-.11-34.03l-2.08-35.14c-.01-.18-.02-.35-.02-.53,0-3.81,2.36-5.04,5.16-6.62l9.08-5.14,6.46-3.66c1.99-1.09,3.91-1.38,5.85-.63Z"/><path class="cls-2" d="M105.55,271.41c.88.34,1.64.95,2.18,1.73.51.75.81,1.66.81,2.65v.2s-.01.2-.01.2c0,.1,0,.19,0,.28l-.08,35.1h0c0,7.36-.42,15.08-.83,22.67-.2,3.75-.4,7.47-.56,11.19v.07h0s0,0-.02.01h0s0,0,0,0c-.09.12-.24.25-.45.37l-.07.04c-.28.15-.6.26-.95.35-.41.1-.87.15-1.35.15s-.94-.05-1.35-.15c-.38-.09-.73-.22-1.02-.39-.21-.12-.36-.25-.45-.37l-.03-.04c-.01-4.22-.03-8.42-.05-12.62-.03-6.32-.05-12.62-.05-21.38,0-.09,0-.18-.02-.27l-2.78-22.35c-.11-.94-.97-1.61-1.91-1.49-.29.04-.55.14-.77.3l-3.38,1.91c-.54.3-.85.86-.87,1.44h0l-.91,30.58c-.27,7.47-.59,15.07-.92,22.65-.16,3.68-.32,7.37-.48,11.27v.07h0s0,0-.02,0h0s0,0,0,0c-.08.12-.23.24-.45.37l-.07.04c-.27.15-.6.27-.95.35-.41.1-.87.15-1.35.15s-.94-.05-1.35-.15c-.38-.09-.73-.22-1.02-.39-.21-.12-.36-.25-.44-.37l-.03-.04c0-4.23-.03-8.43-.05-12.63-.03-6.32-.05-12.63-.05-21.37,0-.08,0-.15-.01-.22l-2.07-35.06h0v-.19s-.01-.2-.01-.2c0-2.72,1.84-3.76,4.06-5.01l.23-.13h0s15.53-8.78,15.53-8.78c.8-.44,1.57-.71,2.32-.8.7-.08,1.4,0,2.09.26h0ZM110.55,271.21c-.92-1.34-2.23-2.39-3.77-2.99-1.24-.48-2.48-.63-3.72-.48-1.2.14-2.38.56-3.57,1.21h0c-5.21,2.87-10.39,5.87-15.57,8.8h0s-.22.12-.22.12c-3.17,1.79-5.81,3.28-5.81,7.98l.03.67h0l2.07,35c0,5.51.03,13.45.07,21.38.02,4.23.04,8.45.05,12.66h0c0,.64.19,1.26.57,1.85.03.05.06.1.1.15.35.49.86.95,1.53,1.33.58.34,1.24.59,1.93.75.71.17,1.43.25,2.14.25s1.43-.08,2.14-.25c.65-.15,1.27-.38,1.82-.69l.11-.06c.65-.38,1.17-.83,1.52-1.33h0c.45-.63.67-1.31.67-2h0c.15-3.58.31-7.39.47-11.19.32-7.52.65-15.05.92-22.68l.89-29.64.47-.27,2.46,19.77c0,5.49.03,13.4.07,21.29.02,4.22.03,8.44.05,12.63h0c0,.64.19,1.27.57,1.85.03.05.06.1.1.15.36.5.87.95,1.53,1.33.58.33,1.23.58,1.93.75.7.17,1.43.25,2.14.25s1.43-.09,2.14-.25c.65-.16,1.27-.39,1.82-.69l.12-.06c.65-.38,1.16-.83,1.52-1.33h0c.45-.63.67-1.31.67-2h0c.15-3.54.35-7.3.56-11.08.42-7.72.85-15.57.85-22.85h0c.03-11.76-.33-24.1.1-35.78,0-1.7-.52-3.27-1.41-4.58Z"/><path class="cls-5" d="M93.12,222.39c1.56,1.24,4.33,1.65,6.18.91,1.85-.74,2.09-2.34.53-3.57-1.56-1.24-4.33-1.64-6.19-.91-1.85.73-2.09,2.33-.52,3.57Z"/><path class="cls-2" d="M92.06,223.73c1.03.81,2.4,1.34,3.79,1.55,1.39.2,2.86.09,4.08-.39.83-.33,1.47-.8,1.91-1.35.38-.48.61-1.02.7-1.58.08-.56.01-1.14-.21-1.71-.26-.66-.74-1.29-1.44-1.85-1.02-.81-2.4-1.35-3.79-1.55-1.39-.2-2.86-.09-4.08.39-.82.33-1.46.8-1.91,1.35-.38.48-.61,1.01-.7,1.58-.08.56,0,1.14.21,1.71.26.66.74,1.29,1.44,1.85h0ZM96.35,221.89c-.84-.12-1.64-.41-2.18-.84-.18-.15-.3-.28-.36-.39.09-.09.24-.18.46-.26.64-.25,1.48-.3,2.33-.18.84.12,1.63.41,2.17.84.18.14.3.27.36.38-.09.09-.24.18-.46.26-.64.25-1.48.3-2.32.18Z"/><path class="cls-3" d="M100.08,228.52c-2.29-4.9,7.61-9.22,10.43-3.05l8.03,24.73,13.36,10.94c3.38,2.77-.48,7.06-3.24,5.14l-14.54-10.17c-.97-.67-1.68-1.09-2.5-2.85l-11.54-24.74Z"/><path class="cls-2" d="M101.62,227.8c-.39-.85-.04-1.7.67-2.35.38-.36.85-.66,1.36-.88.52-.23,1.09-.37,1.68-.42,1.4-.12,2.84.41,3.58,1.93l8.16,25.13,13.74,11.26c.6.49.76,1.01.66,1.43-.05.19-.14.38-.27.55-.13.17-.3.32-.48.43-.34.2-.75.24-1.1,0-4.9-3.43-9.79-6.88-14.71-10.29-.67-.47-1.18-.82-1.76-2.06l-11.54-24.74h0ZM99.96,222.94c-1.74,1.62-2.55,3.89-1.42,6.3l11.54,24.74c.97,2.07,1.81,2.66,2.91,3.42l14.69,10.28c1.58,1.11,3.36.98,4.77.16.57-.33,1.08-.79,1.49-1.32.41-.54.71-1.17.87-1.84.37-1.6-.06-3.39-1.83-4.84l-12.97-10.63-7.9-24.32-.05-.11c-1.44-3.16-4.27-4.25-7.01-4.02-.94.08-1.88.33-2.75.7-.88.38-1.68.89-2.34,1.5Z"/><path class="cls-3" d="M109.5,275.34h0c1.22-.71,1.74-1.67,1.54-2.59v-45.2c-.46-4.12-6.53-7.62-9.2-6.08l-12.97,7.49-4.81,2.78c-2.03,1.14-4.61,3.55-4.67,6.4v46.65c-.07.28-.07.57,0,.85v.19l.05-.02c.2.59-.57,1.11.89,1.96,1.45.84,5.54,1.22,7.65,0l21.51-12.42h0Z"/><path class="cls-2" d="M110.21,276.89c.11-.05.21-.11.3-.18.78-.48,1.36-1.06,1.74-1.69.45-.76.62-1.58.5-2.39v-45.08c0-.11-.01-.21-.03-.31-.12-.93-.45-1.83-.93-2.66-.91-1.58-2.4-2.94-4-3.86-1.65-.95-3.49-1.46-5.03-1.29-.64.07-1.24.26-1.78.57l-17.76,10.26c-1.31.73-2.83,1.94-3.93,3.45-.93,1.27-1.57,2.76-1.6,4.4v46.48c-.04.21-.06.42-.06.63,0,.19.02.39.05.58v.04c0,.15.02.29.05.43-.13.91-.15,1.88,1.75,2.98,1.03.59,2.94,1.01,4.83,1.01,1.6,0,3.27-.29,4.52-1.01l21.38-12.34h0ZM109.32,273.27c-.1.17-.29.35-.56.52-.09.04-.17.09-.26.15l-21.37,12.34c-.67.39-1.74.54-2.82.54-1.34,0-2.58-.22-3.13-.54l-.05.31c.02-.1.03-.19.04-.3h0s0,0,0,0c.03-.25.03-.53-.07-.87-.01-.06-.03-.11-.05-.17v-.04s0-.03,0-.03h0c.03-.13.05-.26.05-.39v-46.61c.02-.87.4-1.71.95-2.46.78-1.07,1.89-1.94,2.85-2.48,5.37-3.56,12.14-7.01,17.8-10.28.11-.06.26-.11.44-.13.82-.09,1.9.24,2.96.85,1.11.64,2.13,1.57,2.74,2.62.25.44.43.89.49,1.35v45.12h0c0,.11,0,.23.03.35.01.04,0,.1-.05.17Z"/><path class="cls-9" d="M90.85,221.01h8.84l.65,8.4c.01.09.02.17.02.26,0,.75-.5,1.51-1.49,2.08-1.99,1.15-5.21,1.15-7.19,0-.99-.57-1.49-1.32-1.49-2.08,0-.08,0-.17.02-.26l.65-8.4Z"/><path class="cls-2" d="M92.44,222.72h5.67l.53,6.82v.13h.02s-.02.07-.07.13h0c-.11.16-.3.32-.57.47-.72.42-1.72.63-2.74.63s-2.02-.21-2.74-.62h0c-.27-.16-.46-.32-.57-.47h0c-.04-.06-.07-.1-.07-.13h0v-.13s.54-6.82.54-6.82h0ZM99.69,219.3h-10.42l-.77,9.91c-.02.16-.03.31-.03.46h0c0,.74.24,1.47.71,2.12h0c.38.54.93,1.03,1.64,1.44h0c1.27.73,2.87,1.09,4.44,1.09s3.19-.36,4.45-1.09c.71-.41,1.25-.9,1.64-1.43h0c.47-.66.7-1.38.7-2.12h0c0-.07,0-.15,0-.26,0-.07-.01-.14-.02-.2l-.77-9.92h-1.58Z"/><path class="cls-9" d="M100.13,201.82l-1.64-.24c-4.15-.61-8.22,2.26-8.66,6.44l-.96,9.27c-.43,4.17,2.29,8.04,6.44,8.66l.82.12c4.15.61,7.85-2.32,8.66-6.44l1.78-9.15c.8-4.12-2.29-8.04-6.44-8.66Z"/><path class="cls-2" d="M100.38,200.13l-1.64-.24c-.09-.01-.23-.03-.39-.05-2.4-.25-4.76.44-6.59,1.79-1.87,1.37-3.21,3.42-3.57,5.84,0,.08-.03.2-.04.37l-.97,9.27c-.27,2.54.45,5,1.87,6.9,1.41,1.89,3.5,3.25,6.02,3.62l.82.12c2.52.37,4.9-.32,6.79-1.73,1.91-1.42,3.3-3.57,3.79-6.08l1.78-9.15c.03-.14.05-.27.07-.39.35-2.42-.35-4.75-1.73-6.59-1.37-1.81-3.41-3.15-5.77-3.61-.14-.03-.28-.05-.43-.08h0ZM98.25,203.27l1.64.24c.09.01.18.03.27.05h0c1.5.29,2.81,1.15,3.69,2.32.86,1.14,1.29,2.57,1.08,4.03-.01.09-.03.17-.04.25l-1.78,9.14c-.32,1.66-1.23,3.07-2.47,3.99-1.18.88-2.68,1.31-4.26,1.08l-.82-.12c-1.58-.23-2.9-1.08-3.78-2.26-.92-1.24-1.38-2.85-1.21-4.52l.96-9.27.03-.22c.22-1.48,1.05-2.73,2.2-3.58,1.18-.87,2.69-1.31,4.23-1.15l.25.03Z"/><path class="cls-2" d="M95.35,201.77c-2.87.78-5.19,3.16-5.51,6.25l-.96,9.27c2.69-1.36,4.59-3.24,5.2-6.66,6.2,1.66,8.33,1.62,12.58-2.31,1.67-1.23,4.97-5.79,3-5.29-1.58.41-4.73-.57-7.43-1.12-2.29-.47-4.54-.77-6.88-.13Z"/><path class="cls-2" d="M94.9,200.12c-1.79.49-3.41,1.49-4.62,2.86-1.16,1.32-1.95,2.98-2.14,4.87l-.97,9.27c-.1.94.59,1.77,1.53,1.87.34.03.66-.03.94-.17,1.54-.78,2.87-1.72,3.92-2.99.74-.89,1.32-1.91,1.74-3.12,2.45.59,4.29.83,6.06.55,2.21-.35,4.04-1.46,6.4-3.64,1.14-.89,2.85-2.96,3.63-4.42.26-.49.45-.96.53-1.37.2-1.04-.11-1.85-1.06-2.32-.46-.23-1-.28-1.62-.12-.79.2-2.69-.24-4.61-.69-.63-.15-1.25-.29-2.05-.45-1.22-.25-2.44-.45-3.68-.51-1.31-.06-2.63.03-3.98.4h0ZM92.85,205.23c.77-.87,1.8-1.51,2.94-1.81.99-.27,1.96-.34,2.94-.29,1.04.05,2.09.23,3.16.45.51.1,1.23.27,1.95.44,1.31.3,2.62.61,3.79.74-.62.86-1.39,1.71-1.95,2.15-.07.05-.14.1-.2.16-1.86,1.72-3.2,2.59-4.66,2.82-1.52.24-3.41-.13-6.25-.89-.07-.02-.14-.04-.21-.05-.93-.16-1.82.46-1.98,1.39-.24,1.38-.73,2.44-1.41,3.27l.56-5.41c.12-1.13.6-2.15,1.31-2.96Z"/><polygon class="cls-8" points="128.09 270.37 113.86 278.59 131.22 276.71 145.46 268.5 128.09 270.37"/><path class="cls-2" d="M127.2,268.91l-14.2,8.2c-.81.47-1.09,1.51-.62,2.33.35.6,1.01.91,1.67.84l17.36-1.87c.29-.03.55-.13.77-.28l14.13-8.16c.81-.47,1.1-1.51.63-2.32-.35-.61-1.01-.91-1.66-.85h0s-17.37,1.87-17.37,1.87c-.26.03-.5.11-.71.24h0ZM121.72,276.02l6.92-4,8.97-.97-6.91,3.99-8.98.97Z"/><path class="cls-9" d="M116.99,266.6l4.08-.15,1.91,2.81,6.43,2.69c-.36.63-1.07,1.86-1.75,1.64-4.26-1.33-2.49,1.33-5.43.91-4.09-.57-4.22-1.04-9.44-3.57l1.33-5.06,2.87.73Z"/><path class="cls-2" d="M117.19,268.3l3-.11,1.37,2.03c.19.29.46.49.76.62h0s2.03.85,2.03.85c-.57.23-.94.62-1.31,1.02-.08.08-.16.16-.57.11-2.95-.41-3.66-.77-6.22-2.07-.43-.22-.91-.46-1.45-.72l.55-2.07,1.23.31c.21.05.42.07.62.04h0ZM121.01,264.74l-3.82.14-2.64-.67h0c-.91-.23-1.83.32-2.07,1.22l-1.33,5.04c-.22.78.15,1.63.9,2,1.08.53,1.94.96,2.66,1.32,2.96,1.49,3.77,1.91,7.29,2.4,2.15.3,2.84-.43,3.52-1.15.12-.13.24-.25,1.62.18,1.17.36,2.09-.19,2.8-1.02.42-.49.73-1.04.94-1.42.03-.06.06-.12.09-.18.36-.87-.05-1.87-.92-2.23l-5.96-2.49-1.58-2.32c-.31-.51-.88-.84-1.51-.81Z"/><path class="cls-3" d="M90.46,237.22l-10.22,4.01,11.84,24.28c.44,1.08,1.37,1.94,2.59,2.24.09.02.18.04.28.06l18.38,3.69c.38.1.79.12,1.21.05,1.65-.27,2.77-1.82,2.5-3.47-.2-1.24-1.14-2.19-2.3-2.46l-16.28-4.56-7.99-23.83Z"/><path class="cls-2" d="M81.44,236.75c.39-.86.02-1.87-.84-2.26-.86-.39-1.87-.01-2.26.84-.4.88-.63,1.84-.65,2.83-.02.95.14,1.91.52,2.84.08.18.17.38.27.59.08.16.16.3.24.44l11.82,24.24c.33.75.82,1.43,1.45,1.98.64.55,1.41.96,2.29,1.17.17.04.14.04.2.05h0s18.44,3.7,18.44,3.7c.3.07.61.12.94.13.31.01.63,0,.95-.06,1.29-.21,2.37-.92,3.08-1.91.71-.98,1.04-2.24.83-3.52-.16-.96-.59-1.8-1.2-2.46-.63-.68-1.46-1.17-2.37-1.38l-15.35-4.3-5.13-15.3c-.3-.89-1.26-1.37-2.16-1.07-.89.3-1.37,1.26-1.08,2.16l5.71,17.02c5.74,1.61,11.48,3.26,17.22,4.82.26.06.49.19.66.38.17.18.29.42.34.68.06.36-.03.71-.23.98-.2.27-.5.47-.86.53-.09.02-.18.02-.27.02h0c-.08,0-.16-.02-.25-.04-6.06-1.1-12.5-2.38-18.51-3.72h-.08v-.02c-.14-.03,0,0-.08-.01-.32-.08-.61-.23-.85-.43-.25-.21-.44-.48-.56-.78l-.05-.11-11.87-24.33-.07-.11c-.07-.11-.13-.21-.17-.29-.04-.08-.09-.18-.14-.31-.2-.49-.29-1.01-.28-1.5,0-.51.13-1.01.34-1.47Z"/><path class="cls-2" d="M103.36,287.18c.82-.47,1.1-1.51.63-2.33-.47-.82-1.51-1.1-2.33-.63l-9.28,5.36c-.82.47-1.1,1.51-.63,2.33.47.81,1.51,1.09,2.33.63l9.28-5.35Z"/><polygon class="cls-12" points="231.79 293.6 233.3 291.73 234.07 289.36 234.04 289.37 234.24 288.83 234.28 288.69 234.29 288.69 234.75 287.39 237.92 285.54 238.19 285.76 237.75 286.89 236.52 287.61 236.29 287.89 237.2 287.52 238.99 286.81 242.23 284.03 242.41 284.95 242.48 285.4 242.37 288.39 242.07 289.34 237.9 292.8 235 294.29 232.44 297.3 229.59 295.84 231.79 293.6"/><path class="cls-10" d="M232.44,298.8c-.23,0-.46-.05-.68-.16l-2.85-1.45c-.43-.22-.72-.62-.8-1.09-.08-.47.08-.95.41-1.29l2.15-2.19,1.29-1.6.6-1.87c.01-.09.04-.18.07-.27l.22-.63c.02-.06.04-.11.06-.16l.43-1.19c.12-.33.35-.61.65-.79l3.16-1.85c.54-.32,1.22-.27,1.71.13l.27.22s.04.03.06.05l2.05-1.76c.41-.35.97-.45,1.47-.28.5.17.88.6.98,1.13l.26,1.42c.02.1.02.2.02.3l-.11,3c0,.13-.03.27-.07.39l-.3.95c-.09.27-.25.52-.47.7l-4.17,3.46c-.08.07-.17.13-.27.18l-2.64,1.36-2.36,2.78c-.29.34-.71.53-1.14.53ZM231.79,293.6h0,0ZM235.54,289.64c-.01.06-.03.12-.05.18l-.76,2.36c-.06.17-.15.34-.26.48l-.3.37s.09-.06.14-.08l2.76-1.42,3.7-3.07.1-.33.04-1-.95.81c-.12.11-.27.19-.42.25l-2.7,1.08c-.39.15-.81.14-1.17-.02,0,0,0,0,0,0l-.14.38Z"/><path class="cls-15" d="M217.7,311.55l-16.73-12.63c-1.36-1.02-1.63-2.95-.6-4.31h0c1.02-1.35,2.95-1.62,4.31-.6l13.51,10.31,12.81-10.84c.25-.43.7-.7,1.2-.72h0c1.85-.07,3.11,1.84,2.31,3.51l-14.03,14.6c-1.34,1.26-1.85,1.39-2.78.68Z"/><path class="cls-10" d="M218.69,314.49c-.75,0-1.59-.26-2.5-.94l-16.73-12.63c-1.19-.9-1.96-2.2-2.16-3.68-.21-1.47.17-2.94,1.07-4.13,1.86-2.45,5.36-2.94,7.81-1.09l11.92,9.1,11.03-9.34c.71-.91,1.78-1.47,2.96-1.51,1.73-.07,3.37.76,4.33,2.23.96,1.46,1.09,3.28.34,4.86l-.17.37-14.4,14.99c-.7.66-1.92,1.79-3.5,1.79ZM202.83,295.89c-.17,0-.35.08-.46.23-.12.16-.12.32-.11.42.01.11.07.26.22.38l16.19,12.22s.04-.04.07-.06l10.03-10.44-10.49,8.88-15.11-11.53c-.1-.07-.21-.11-.33-.11Z"/><path class="cls-11" d="M202.94,435.68h6.92l6.08-.6-2.41-1.75c-.51-.45-1.1-.78-1.74-.98l-1.67-.53-1.14-6.69h-5.01l-1.04,10.55Z"/><path class="cls-10" d="M209.96,437.68h-9.22l1.43-14.55h8.51l1.22,7.15.5.16c.88.28,1.68.72,2.39,1.32l6.58,4.79-11.41,1.12ZM205.15,433.68h4.23l-1.02-.32-1.07-6.23h-1.51l-.64,6.55Z"/><path class="cls-14" d="M219.99,436.05l-7.57,2.57c-2.24.55-5.31,1.08-7.55,1.63h-1.76l-1.21-.58-.18-4.02c0-.13.02-.26.07-.38l1.29-3.05,1.12.28,3.3,1.97c.21.14.46.18.7.12l6.22-.55-1.8-1.38,5.46-.32c.28,0,.55.09.77.26l1.33,1.09c.64.52.6,2.09-.19,2.36Z"/><path class="cls-10" d="M205.06,441.75h-2.28l-2.32-1.11-.22-4.92c-.02-.36.05-.71.19-1.04l1.79-4.23,2.58.65,3.34,1.99,2.32-.21-1.94-1.49,9.48-.56c.73-.03,1.31.19,1.81.6l1.33,1.08c.78.63,1.15,1.78.95,2.93-.18.98-.77,1.73-1.6,2.01h0l-7.69,2.61c-1.15.29-2.52.56-3.84.83-1.29.26-2.62.53-3.71.8l-.18.04ZM203.46,438.75h1.24c1.11-.27,2.4-.53,3.65-.79,1.27-.26,2.58-.53,3.66-.79l5.6-1.9-9.18.81c-.61.11-1.23-.02-1.75-.36l-2.75-1.64-.7,1.64.14,2.98.09.04ZM216.73,433.93l1.49,1.14.9-.3-1.12-.91-1.27.08ZM219.51,434.63s0,0,0,0h0ZM208.25,433.17h.03s-.02,0-.03,0Z"/><polygon class="cls-12" points="209.57 289.45 223.56 290.67 224.71 286.05 226.79 284.3 225.17 279.99 224.91 271.93 211.2 270.74 209.57 289.45"/><path class="cls-10" d="M223.56,292.17s-.09,0-.13,0l-13.99-1.22c-.83-.07-1.44-.8-1.36-1.62l1.63-18.71c.07-.83.82-1.43,1.62-1.36l13.71,1.19c.76.07,1.34.69,1.37,1.45l.25,7.81,1.54,4.07c.22.59.05,1.26-.43,1.67l-1.71,1.44-1.04,4.14c-.17.67-.77,1.13-1.45,1.13ZM211.19,288.08l11.22.98.85-3.37c.08-.3.25-.58.49-.78l1.27-1.07-1.25-3.32c-.06-.15-.09-.32-.1-.48l-.22-6.73-10.89-.95-1.37,15.72Z"/><rect class="cls-11" x="209.44" y="286.03" width="6.14" height="10" transform="translate(398.98 599.39) rotate(-175.02)"/><path class="cls-10" d="M216.96,298.44l-10.1-.88,1.21-13.95,10.1.88-1.21,13.95ZM211.19,293.92l2.13.19.52-5.98-2.13-.19-.52,5.98Z"/><path class="cls-11" d="M218.39,442.05h6.92l6.09-.6-2.41-1.75c-.51-.45-1.1-.78-1.74-.98l-1.67-.53-1.14-6.69h-5.01l-1.04,10.55Z"/><path class="cls-10" d="M225.41,444.05h-9.22l1.43-14.55h8.51l1.22,7.15.5.16c.88.28,1.69.72,2.39,1.32l6.58,4.79-11.41,1.12ZM220.6,440.05h4.23l-1.02-.32-1.06-6.23h-1.51l-.64,6.55Z"/><path class="cls-14" d="M235.44,442.42l-7.57,2.57c-2.24.55-5.31,1.08-7.55,1.63h-1.76l-1.21-.58-.18-4.02c0-.13.02-.26.07-.38l1.29-3.05,1.12.28,3.3,1.97c.21.14.46.18.7.12l6.22-.55-1.8-1.38,5.46-.32c.28,0,.55.08.77.26l1.33,1.09c.64.52.6,2.09-.19,2.35Z"/><path class="cls-10" d="M220.51,448.12h-2.28l-2.32-1.11-.22-4.92c-.02-.36.05-.71.19-1.04l1.79-4.23,2.58.65,3.34,1.99,2.33-.21-1.94-1.49,9.48-.56c.67-.03,1.3.19,1.8.59l1.34,1.09c.78.63,1.15,1.78.94,2.93-.18.98-.77,1.73-1.6,2.01l-7.69,2.61c-1.15.29-2.52.56-3.85.83-1.29.26-2.62.53-3.7.8l-.18.04ZM218.91,445.12h1.24c1.11-.27,2.4-.53,3.65-.79,1.27-.26,2.58-.53,3.66-.79l5.6-1.9-9.17.81c-.61.11-1.24-.01-1.75-.36l-2.75-1.64-.7,1.64.14,2.98.09.04ZM232.18,440.3l1.49,1.14.9-.31-1.12-.91-1.27.08ZM234.96,441h0,0ZM223.7,439.55h.03s-.02,0-.03,0Z"/><path class="cls-14" d="M196.97,342.82l1.69-4.42,17.6-.71.62,9.63-4.66,45.21-1.86,34.94c0,.28-.1.54-.26.76l-.16.21c-1.02,1.36-2.71,2.04-4.39,1.78l-1.37-.21c-.78-.51-1.15.07-1.6-2.7l.37-31.56.64-4.79-4.69-34.54c-2.62-2.72-3.24-8.33-1.93-13.6Z"/><path class="cls-10" d="M206.27,431.79c-.32,0-.63-.02-.95-.08l-1.68-.26-.27-.17c-.07-.05-.13-.06-.19-.09-1.37-.54-1.73-1.51-2.08-3.63l-.02-.13v-.13s.38-31.74.38-31.74l.61-4.59-4.6-33.88c-2.6-3.09-3.39-8.87-1.96-14.62l.06-.18,2.05-5.34,20.05-.81.73,11.22v.12s-4.67,45.21-4.67,45.21l-1.85,34.87c0,.54-.21,1.11-.56,1.59l-.15.21c-1.17,1.55-2.98,2.43-4.87,2.43ZM204.68,428.57l1.1.17c1.14.18,2.27-.28,2.96-1.2l.12-.16,1.86-34.93,4.65-45.16-.52-8.04-15.15.61-1.3,3.41c-1.2,4.93-.55,9.9,1.58,12.11l.34.35,4.78,35.22-.65,4.9-.37,31.34c.12.71.22,1.06.27,1.23.09.04.2.08.33.14ZM208.87,427.44s0,0,0,.01h0ZM208.9,427.34h0s0,0,0,0Z"/><line class="cls-14" x1="227.68" y1="347.44" x2="227.15" y2="389.2"/><rect class="cls-10" x="206.54" y="366.82" width="41.76" height="3" transform="translate(-143.69 591.17) rotate(-89.29)"/><path class="cls-14" d="M205.36,345.74l1.7-4.1,19.47-.78.62,9.63.58,41.01-1.9,42.95c0,.28-.1.54-.26.76l-.16.21c-1.02,1.36-2.13,1.65-3.81,1.38l-1.37-.21c-1.03-.16-1.8-1.04-1.83-2.08l-.58-35.96.58-6.24-9.06-33.67c-2.71-2.31-5.28-7.62-3.98-12.89Z"/><path class="cls-10" d="M222.62,438.38c-.44,0-.86-.05-1.25-.11l-1.37-.21c-1.75-.27-3.05-1.75-3.1-3.52l-.58-36.06.56-6.05-8.87-32.98c-3.05-2.87-5.45-8.6-4.1-14.07l.07-.21,2.07-4.99,21.89-.88.72,11.09.58,41.08-1.91,43.03c0,.56-.2,1.12-.56,1.6l-.16.22c-1.24,1.65-2.68,2.06-3.99,2.06ZM219.31,398.59l.58,35.88c0,.3.25.57.57.62l1.37.21c1.36.22,1.82-.06,2.38-.8l.12-.16,1.9-42.92-.58-40.92-.53-8.1-17.05.69-1.29,3.11c-1.13,4.75,1.37,9.45,3.52,11.28l.35.3,9.25,34.38-.59,6.43ZM224.33,434.4s0,0,0,.01h0Z"/><polygon class="cls-14" points="208.72 293.37 216.3 295 216.3 292.66 208.72 291.03 208.72 293.37"/><polygon class="cls-10" points="217.8 296.86 207.22 294.58 207.22 289.17 217.8 291.45 217.8 296.86"/><path class="cls-15" d="M211.92,351.3c-20.13-3.86-17.17-8.02-14.73-14.16l4.47-12.37-1.48-20.35c-.41-2.96-1.04-8.98.35-10.84,2.82-3.77,5-1.85,8.11-1.85l10.42,2.62c1.18.32,2.33.81,3.28,1.59,5.96,4.88,4.77,14.55,3.54,21.61l-2.19,10.71,4.04,16.06c0,.49,0,.95-.02,1.39-1.14,1.63-5.91,7.47-15.8,5.58Z"/><path class="cls-10" d="M215.7,353.67c-1.29,0-2.67-.12-4.15-.41-10.55-2.02-15.58-4.2-17.38-7.51-1.52-2.8-.35-5.64.78-8.39.13-.32.26-.64.39-.97l4.3-11.91-1.44-19.86c-1.3-9.51.23-11.57.74-12.25,2.81-3.76,5.68-3.25,7.76-2.88.67.12,1.3.23,1.95.23h.25l10.66,2.68c1.62.43,2.98,1.1,4.06,1.98,7.28,5.96,5.23,17.81,4.25,23.5l-2.11,10.32,3.99,15.86v.25c0,.5,0,.98-.02,1.43v.61s-.36.5-.36.5c-1.23,1.75-5.5,6.8-13.66,6.8ZM204.46,293.25c-.85,0-1.43.35-2.32,1.54-.29.4-.87,2.87.03,9.37v.13s1.52,20.77,1.52,20.77l-4.62,12.77c-.16.4-.3.74-.43,1.06-.98,2.37-1.54,3.88-.96,4.96,1.08,1.99,5.99,3.83,14.61,5.49h0c7.69,1.47,11.77-2.18,13.43-4.29,0-.15,0-.31,0-.47l-4.09-16.26,2.28-11.15c1.29-7.47,1.98-15.71-2.85-19.66-.63-.52-1.48-.92-2.53-1.2l-10.17-2.56c-.89-.02-1.68-.16-2.38-.29-.63-.11-1.12-.2-1.54-.2Z"/><path class="cls-13" d="M216.07,275.89c-.25,2.91-2.82,5.07-5.74,4.82-2.91-.25-5.07-2.82-4.82-5.74.25-2.91,2.82-5.07,5.74-4.82,2.91.25,5.07,2.82,4.82,5.73Z"/><path class="cls-10" d="M210.8,282.72c-.21,0-.43,0-.65-.03-1.94-.17-3.7-1.08-4.95-2.58-1.25-1.49-1.85-3.38-1.68-5.33.17-1.94,1.08-3.7,2.58-4.95,1.49-1.25,3.38-1.86,5.33-1.68,4.01.35,6.99,3.89,6.64,7.9h0c-.17,1.94-1.08,3.7-2.58,4.96-1.33,1.11-2.97,1.71-4.68,1.71ZM210.78,272.13c-.77,0-1.51.27-2.11.77-.67.57-1.09,1.36-1.17,2.24-.08.88.19,1.73.76,2.41.57.67,1.36,1.09,2.24,1.16.88.07,1.73-.19,2.41-.76.67-.57,1.09-1.36,1.17-2.24h0c.16-1.81-1.19-3.41-3-3.57-.1,0-.19-.01-.29-.01Z"/><polygon class="cls-12" points="227.02 351.37 227.55 353.98 228.71 355.43 229.11 356.18 229.44 356.66 229.7 357.08 229.83 357.57 230.05 358.37 229.4 362.37 228.74 362.22 228.1 361.05 228.35 359.49 228.27 359.1 227.94 360.13 227.74 362.3 227.82 367.03 227.08 366.96 226.01 365.89 224 364.06 223.4 361.9 223.39 357.15 223.46 353.66 222.21 349.45 226.66 347.91 227.02 351.37"/><path class="cls-10" d="M227.82,368.53s-.09,0-.14,0l-.74-.07c-.35-.03-.67-.18-.92-.43l-1.07-1.06-1.96-1.79c-.21-.19-.36-.44-.44-.71l-.6-2.17c-.04-.13-.05-.26-.05-.4v-4.75s.05-3.29.05-3.29l-1.18-3.99c-.23-.77.19-1.58.95-1.84l4.45-1.54c.44-.15.91-.09,1.3.15s.64.66.69,1.11l.35,3.39.44,2.18.93,1.17c.06.07.11.15.15.23l.36.67.59.88c.08.14.15.29.19.44l.33,1.24c.06.21.07.43.04.65l-.65,4.01c-.07.41-.3.78-.65,1.01-.29.19-.63.27-.97.24l.06,3.13c0,.43-.17.84-.48,1.13-.28.26-.64.4-1.02.4ZM225.33,363.25l.94.86-.03-1.77c0-.06,0-.11,0-.17l.2-2.17c0-.11.03-.21.07-.32l.33-1.03c.2-.62.77-1.04,1.42-1.04l-.38-.56s-.07-.1-.1-.16l-.33-.63-1.07-1.34c-.15-.19-.25-.4-.3-.64l-.53-2.61s-.02-.09-.02-.14l-.16-1.58-1.31.45.84,2.83c.04.15.06.3.06.45l-.07,3.49v4.52s.44,1.55.44,1.55Z"/><path class="cls-15" d="M217.14,328.44l-.06-.43,1.22-24.04c.07-2.85,2.82-4.86,5.55-4.05,1.94.57,3.23,2.41,2.32,4.65l-2.01,23.37c.74,3.61,1.17,6.77,2.1,13.12.54,3.7,1,6.62,1.4,9.4.03.21.05.37.08.57,0,1,.02,1.62-1.23,2.07-1.46.53-3.79,1.2-4.1.18-.74-5.2-3.93-15.82-5.27-24.85Z"/><path class="cls-10" d="M223.47,355.82c-.63,0-1.16-.12-1.62-.34-.66-.33-1.15-.9-1.36-1.59l-.07-.31c-.31-2.19-1.09-5.46-2-9.23-1.17-4.9-2.51-10.46-3.27-15.6l-.09-.62v-.2s1.23-24.04,1.23-24.04c.05-1.93.99-3.74,2.6-4.91,1.6-1.17,3.61-1.52,5.52-.96,1.59.47,2.88,1.53,3.55,2.91.61,1.25.67,2.7.18,4.11l-1.96,22.81c.62,3.09,1.04,5.97,1.72,10.64l.34,2.31c.26,1.75.49,3.32.71,4.79.25,1.64.47,3.14.68,4.61l.1.85c0,1.09,0,3.04-2.56,3.96-1.53.55-2.74.83-3.71.83ZM219.08,327.92l.03.23c.74,4.97,2.05,10.44,3.2,15.26.77,3.22,1.46,6.07,1.86,8.31.36-.08.87-.22,1.56-.46v-.09l-.06-.42c-.21-1.46-.44-2.96-.68-4.59-.22-1.47-.46-3.05-.72-4.81l-.34-2.31c-.72-4.91-1.11-7.62-1.74-10.71l-.06-.28,2.06-23.96.11-.28c.19-.46.2-.85.04-1.18-.18-.37-.57-.66-1.07-.81-.7-.21-1.44-.08-2.03.35-.59.43-.94,1.1-.96,1.83l-1.21,23.89Z"/><polygon class="cls-14" points="218.27 304.43 216.98 328 221.89 350.43 217.08 328.02 218.27 304.43"/><polygon class="cls-10" points="220.42 350.75 215.47 328.12 216.77 304.35 219.77 304.5 218.58 327.9 223.35 350.12 220.42 350.75"/><path class="cls-12" d="M197.36,286.02c0-1.32.68-2.48,1.71-3.15.85-1.7,2.27-3.05,4.01-3.8.57-1.78,1.08-3.63,1.42-5.59.88-5.19,5.37-13.28,19.12-7.74l-.02.02c2.33.79,3.93,3.07,3.7,5.64-.23,2.68-2.37,4.73-4.96,4.96-.32,2.63-2.47,4.61-5.06,4.77-.31,1.22-1.03,2.24-2,2.95.02.25.03.5.01.76-.02.28-.12.52-.18.79,1.15.42,1.98,1.51,1.98,2.8,0,1.65-1.34,2.99-2.99,2.99-.81,0-1.54-.32-2.08-.84-.54.8-1.45,1.33-2.49,1.33-.78,0-1.48-.31-2.01-.79-.66,1.1-1.84,1.84-3.21,1.84-1.89,0-3.45-1.41-3.71-3.23-1.82-.26-3.23-1.81-3.23-3.7Z"/><path class="cls-10" d="M204.29,294.95c-2.37,0-4.46-1.48-5.32-3.61-2.13-.86-3.61-2.95-3.61-5.33,0-1.76.8-3.4,2.17-4.49.92-1.63,2.28-2.97,3.9-3.87.52-1.7.86-3.12,1.1-4.51.35-2.04,1.66-7.06,6.38-9.7,3.99-2.23,9.2-2.08,15.46.45l3.03,1.22-.44.38c1.63,1.52,2.54,3.74,2.33,6.08-.27,3.1-2.41,5.64-5.3,6.5-.8,2.4-2.79,4.23-5.24,4.85-.32.68-.75,1.31-1.27,1.87,1,.93,1.6,2.24,1.6,3.64,0,2.75-2.24,4.99-4.99,4.99-.63,0-1.24-.12-1.81-.34-1.24.82-2.9,1.05-4.34.57-1.01.84-2.28,1.31-3.64,1.31ZM215.32,265.87c-1.71,0-3.2.35-4.46,1.06-3.21,1.79-4.14,5.41-4.39,6.88-.3,1.78-.77,3.64-1.48,5.87l-.28.87-.84.36c-1.3.56-2.37,1.58-3.02,2.86l-.24.48-.45.29c-.5.33-.8.88-.8,1.47,0,.86.65,1.6,1.51,1.72l1.49.21.21,1.49c.12.86.86,1.51,1.72,1.51.61,0,1.17-.32,1.5-.87l1.26-2.1,1.81,1.65c.13.12.36.27.66.27.33,0,.64-.17.82-.44l1.33-1.99,1.72,1.66c.13.13.36.28.69.28.55,0,.99-.45.99-.99,0-.47-.33-.8-.66-.92l-1.69-.61.43-1.75c.03-.11.06-.21.09-.32.02-.06.04-.12.05-.19.01-.12,0-.25-.01-.39l-.06-1.09.87-.71c.63-.46,1.06-1.09,1.24-1.83l.36-1.41,1.45-.09c1.65-.1,3-1.37,3.2-3.02l.2-1.61,1.61-.14c1.68-.15,3-1.47,3.14-3.14.14-1.59-.83-3.06-2.35-3.57l-3.31-1.11.04-.03c-1.58-.43-3.04-.64-4.36-.64Z"/><g class="cls-1"><path class="cls-17" d="M309.77,425.73c17.93,0,32.46,5.2,32.46,11.63s-14.54,11.63-32.46,11.63-32.46-5.2-32.46-11.63,14.53-11.63,32.46-11.63Z"/></g><path class="cls-9" d="M288.05,337.9l-4.38-2.92-6.55,5.57.36,2.07-4.96,5.67c1.65,1.14,3.03,1.89,7.4-1.08,3.69-2.5,4.28-4.37,8.13-9.31Z"/><path class="cls-2" d="M289.08,336.37l-4.38-2.92c-.74-.49-1.7-.39-2.31.21l-6.46,5.5c-.51.44-.73,1.09-.62,1.71h0l.21,1.21-4.38,5c-.67.77-.59,1.93.17,2.6.05.05.11.09.17.13,1.1.76,2.12,1.39,3.79,1.32,1.43-.05,3.18-.69,5.69-2.39,2.91-1.97,4.03-3.53,5.94-6.19.71-.98,1.53-2.13,2.61-3.51.63-.8.49-1.96-.32-2.59l-.11-.08h0ZM283.8,337.28l1.59,1.06c-.57.76-1.06,1.44-1.5,2.05-1.67,2.32-2.66,3.69-5.02,5.29-1.37.93-2.35,1.44-3.07,1.64l2.98-3.4c.41-.41.62-1,.51-1.61l-.18-1.05,4.68-3.99Z"/><path class="cls-2" d="M321.16,427.69c.96-.55,1.44-1.28,1.44-2s-.48-1.46-1.44-2.01c-.96-.56-2.22-.83-3.48-.83s-2.52.28-3.48.83l-9.14,5.28c-.96.55-1.44,1.28-1.44,2s.48,1.45,1.44,2.01c.96.55,2.22.83,3.48.83s2.52-.28,3.48-.83l9.14-5.28Z"/><path class="cls-2" d="M322.08,429.29c.71-.41,1.27-.91,1.65-1.44.04-.05.07-.11.1-.17.41-.63.62-1.31.62-2,0-.75-.25-1.49-.73-2.16h0c-.38-.54-.93-1.03-1.65-1.44h0c-.62-.36-1.34-.63-2.09-.82-.76-.18-1.55-.27-2.31-.27s-1.55.09-2.31.27c-.76.18-1.47.45-2.09.81l-.1.06-9.04,5.22c-.71.41-1.27.9-1.65,1.44-.04.05-.07.11-.1.17-.41.63-.62,1.31-.62,2,0,.75.24,1.49.73,2.16h0c.39.54.94,1.03,1.64,1.44l.13.06c.6.33,1.27.58,1.97.75.76.18,1.55.27,2.31.27s1.55-.09,2.31-.27c.75-.18,1.46-.45,2.08-.81l9.15-5.28h0ZM320.72,425.7c-.1.13-.26.27-.48.4l-9.15,5.28c-.31.18-.69.32-1.1.42-.44.1-.94.16-1.46.16s-1.02-.05-1.46-.16c-.38-.09-.73-.22-1.02-.38l-.08-.05c-.23-.13-.4-.27-.49-.4h0s0,0,0,0v-.02c.11-.13.27-.27.49-.4l9.05-5.22.1-.05c.32-.18.69-.33,1.09-.42.44-.1.94-.16,1.46-.16s1.02.05,1.46.16c.4.1.77.24,1.1.42h0s0,0,0,0c.22.13.38.26.48.4h0s0,0,0,0v.02Z"/><path class="cls-2" d="M340.44,438.58c.96-.55,1.44-1.28,1.44-2.01s-.48-1.45-1.44-2.01c-.96-.55-2.22-.83-3.48-.83s-2.52.28-3.48.83l-9.15,5.28c-.96.56-1.44,1.28-1.44,2.01s.48,1.45,1.44,2.01c.96.56,2.22.83,3.48.83s2.52-.28,3.48-.83l9.15-5.28Z"/><path class="cls-2" d="M341.36,440.18c.72-.41,1.27-.91,1.65-1.44.04-.05.08-.11.11-.17.41-.63.61-1.31.61-2,0-.75-.24-1.49-.73-2.16h0c-.38-.54-.93-1.03-1.64-1.44h0c-.62-.36-1.33-.63-2.09-.81-.76-.18-1.55-.27-2.31-.27s-1.55.09-2.31.27c-.75.18-1.47.45-2.09.81l-.09.06-9.04,5.22c-.72.41-1.27.9-1.65,1.44-.04.05-.08.11-.11.17-.41.63-.61,1.31-.61,2,0,.75.24,1.49.73,2.16h0c.39.54.93,1.04,1.64,1.45l.12.06c.6.33,1.27.58,1.97.75.76.18,1.55.27,2.31.27s1.55-.09,2.31-.27c.75-.18,1.46-.45,2.08-.81l9.14-5.28h0ZM340.01,436.59c-.1.13-.26.27-.48.4l-9.14,5.28c-.32.18-.69.32-1.1.42-.44.1-.94.16-1.46.16s-1.02-.05-1.46-.16c-.38-.09-.72-.22-1.02-.38l-.07-.05c-.24-.13-.4-.27-.49-.4h0s0,0,0,0v-.02c.11-.13.27-.27.49-.4l9.04-5.22.1-.06c.32-.18.69-.32,1.1-.42.44-.11.94-.16,1.46-.16s1.02.05,1.46.16c.4.09.78.24,1.09.42h0s0,0,0,0c.23.13.39.27.48.4h0s0,0,0,0v.02Z"/><path class="cls-2" d="M315.57,341.25c-2.58,1-4.42,3.52-4.42,6.45,0,.2,0,.39.03.58l.08,38.09c0,11.82,1.02,24.74,1.51,36.67,0,.73.48,1.45,1.44,2.01.96.55,2.22.83,3.48.83s2.52-.28,3.48-.83c.96-.56,1.44-1.28,1.44-2.01.03-12.26.11-24.52.11-36.78l2.95-26.32,3.81,2.16,1.05,35.17c.44,12.21,1.01,24.45,1.51,36.67,0,.72.48,1.45,1.44,2.01.96.55,2.22.83,3.48.83s2.52-.28,3.48-.83c.96-.55,1.44-1.28,1.44-2.01.03-12.26.12-24.52.12-36.78l2.25-37.98c.01-.19.02-.38.02-.58,0-4.12-2.55-5.45-5.57-7.15l-9.82-5.55-6.98-3.95c-2.15-1.18-4.23-1.5-6.32-.69Z"/><path class="cls-2" d="M314.9,339.53c-1.67.65-3.08,1.78-4.07,3.23-.96,1.41-1.53,3.11-1.53,4.94.47,12.63.08,25.96.11,38.67h0c0,7.87.46,16.35.91,24.69.22,4.09.44,8.15.6,11.98h0c0,.75.24,1.49.73,2.16h0c.39.54.93,1.04,1.64,1.45l.12.06c.6.33,1.27.58,1.97.75.76.18,1.55.27,2.31.27s1.55-.09,2.31-.27c.75-.18,1.46-.45,2.09-.81.71-.41,1.27-.91,1.65-1.44.04-.05.07-.11.1-.16.41-.63.62-1.31.62-2h0c.01-4.53.03-9.09.05-13.66.03-8.55.07-17.11.07-23.05l2.63-23.41.48.27,1.02,34.14c.29,8.24.64,16.37.99,24.5.18,4.11.35,8.23.51,12.1h0c0,.75.24,1.48.73,2.16h0c.39.55.94,1.04,1.64,1.45l.13.06c.59.33,1.26.58,1.96.74.76.18,1.55.27,2.31.27s1.55-.09,2.31-.27c.75-.18,1.46-.45,2.09-.81.72-.41,1.27-.9,1.65-1.44.04-.05.08-.11.11-.17.41-.63.61-1.31.61-2h0c.02-4.54.03-9.11.05-13.67.04-8.58.07-17.15.07-23.11l2.24-37.83h0l.03-.73c0-5.08-2.85-6.69-6.28-8.63l-.24-.13h0c-5.6-3.17-11.2-6.42-16.83-9.52h0c-1.28-.7-2.56-1.15-3.85-1.31-1.34-.16-2.68,0-4.02.52h0ZM313.88,344.84c.58-.84,1.4-1.5,2.35-1.87.75-.29,1.5-.38,2.26-.28.81.1,1.64.4,2.51.87l16.78,9.49h0s.24.13.24.13c2.4,1.35,4.39,2.48,4.39,5.42v.22s-.01.21-.01.21h0l-2.24,37.89c-.01.08-.02.16-.02.24,0,9.44-.03,16.27-.06,23.09-.02,4.54-.04,9.08-.05,13.65l-.03.05c-.1.13-.26.27-.48.4-.31.18-.69.32-1.1.42-.44.11-.94.16-1.46.16s-1.02-.05-1.46-.16c-.38-.09-.73-.22-1.02-.38l-.08-.04c-.23-.14-.4-.27-.49-.4h0s0,0,0,0c-.01-.02-.02,0-.02,0h0s0-.08,0-.08c-.17-4.22-.35-8.2-.52-12.18-.35-8.2-.71-16.4-.99-24.48l-1.05-35.15h0c-.02-.63-.35-1.23-.94-1.55l-3.68-2.08c-.24-.17-.53-.27-.83-.31-1.01-.11-1.93.62-2.04,1.63l-2.94,26.2c-.02.1-.03.21-.03.32,0,9.47-.03,16.28-.05,23.11-.02,4.54-.04,9.07-.05,13.63l-.04.05c-.1.13-.26.27-.48.4-.32.18-.69.32-1.1.42-.44.1-.94.16-1.46.16s-1.02-.05-1.46-.16c-.37-.09-.72-.22-1.02-.38l-.07-.05c-.23-.13-.4-.27-.49-.4h0s0,0,0,0c-.01-.02-.02,0-.02-.01h0v-.07c-.17-4.03-.39-8.05-.61-12.09-.44-8.21-.9-16.55-.9-24.5h0l-.08-37.94c0-.1,0-.2,0-.3l-.02-.21v-.22c0-1.07.32-2.05.88-2.86Z"/><path class="cls-6" d="M332.33,307.42c-.09-.61-.09-1.25.02-1.89l9.57,1.64c-1.42,8.31.18,20.48-.57,29.23-.01.56-.14,1.11-.4,1.64l-8,18.42c-.15.4-.39.77-.7,1.1-1.25,1.28-3.3,1.32-4.58.07-.97-.94-1.22-2.34-.76-3.52l6.4-18.42-.99-28.26Z"/><path class="cls-6" d="M330.42,306.46c0,.38.02.75.07,1.12l.98,27.82-6.27,18.02h0c-.37.94-.45,1.96-.24,2.94.2.95.68,1.85,1.43,2.58,1.01.98,2.32,1.45,3.61,1.44,1.31-.02,2.6-.54,3.58-1.54.24-.25.45-.52.63-.81.2-.31.35-.61.47-.91h0s7.93-18.27,7.93-18.27h0c.18-.38.32-.77.41-1.17h0c.09-.37.14-.74.16-1.11h0c.33-3.87.21-8.42.09-13.02-.15-5.73-.31-11.53.47-16.05l.31-1.82-13.22-2.26-.31,1.82c-.07.4-.11.81-.11,1.24h0ZM334.19,307.72l5.65.97c-.53,4.47-.39,9.73-.25,14.93.12,4.44.24,8.84-.09,12.62v.12c0,.14-.03.3-.06.44-.04.14-.09.28-.16.43l-.03.07-7.99,18.42-.04.07c-.04.1-.08.18-.12.25-.05.07-.1.15-.18.22-.27.28-.62.42-.97.43-.36,0-.72-.13-1-.39-.2-.2-.33-.45-.39-.7-.06-.27-.04-.56.06-.82l.02-.07,6.52-18.74-.99-28.25Z"/><path class="cls-5" d="M330.72,290.45c-1.86,1.08-4.89,1.08-6.75,0-1.86-1.08-1.86-2.82,0-3.9,1.86-1.08,4.89-1.08,6.75,0,1.87,1.08,1.86,2.82,0,3.9Z"/><path class="cls-2" d="M329.79,288.85c-.64.37-1.53.55-2.45.55s-1.81-.18-2.45-.55c-.22-.13-.37-.25-.45-.35.08-.11.23-.23.45-.36l.07-.04c.63-.34,1.49-.51,2.38-.51s1.81.18,2.45.55h0c.22.13.36.25.45.36-.08.11-.23.23-.44.35h0ZM327.34,293.11c1.52,0,3.08-.36,4.3-1.06h0c.84-.49,1.45-1.09,1.83-1.75h0s0,0,0,0c.33-.58.5-1.18.5-1.79h0c0-.57-.14-1.13-.42-1.66-.02-.05-.05-.09-.07-.14-.39-.67-1-1.27-1.83-1.75h0s0,0,0,0c-1.23-.71-2.78-1.06-4.29-1.06s-2.98.33-4.18.99l-.12.06c-.83.48-1.44,1.08-1.82,1.75h0c-.33.58-.5,1.19-.5,1.8s.17,1.22.5,1.8h0c.39.67,1,1.27,1.82,1.75,1.23.71,2.78,1.06,4.3,1.06Z"/><path class="cls-4" d="M319.93,299.2l-9.38-4.76-13.51,23.55-12.57,14.84c-.26.34-.46.73-.58,1.16-.47,1.73.56,3.51,2.28,3.97,1.31.35,2.64-.14,3.41-1.15l13.22-14.29,17.13-23.32Z"/><path class="cls-2" d="M320.76,297.55l-10.94-5.56-14.3,24.94-12.46,14.7-.04.05c-.21.27-.4.56-.55.86-.16.32-.28.64-.37.96-.36,1.35-.14,2.72.51,3.86.65,1.13,1.73,2.01,3.08,2.38,1,.27,2.02.22,2.94-.09.93-.31,1.77-.89,2.38-1.68l13.24-14.31c6.16-8.37,12.3-16.75,18.45-25.12l-1.94-.99h0ZM311.28,296.88l5.87,2.98-15.81,21.52-13.2,14.27-.03.04c-.17.22-.4.38-.66.47-.25.09-.53.1-.81.02-.37-.1-.67-.34-.85-.64-.17-.31-.23-.69-.13-1.06.03-.11.06-.2.1-.27.03-.06.07-.13.11-.18l12.69-14.97,12.71-22.17Z"/><path class="cls-4" d="M311.97,347.21h0c-1.32-.76-1.88-1.8-1.67-2.79v-48.85c.5-4.46,7.06-8.24,9.94-6.57l14.02,8.1,5.2,3c2.19,1.23,4.98,3.84,5.05,6.92v50.41c.07.31.07.61,0,.92v.21l-.05-.02c-.21.64.61,1.21-.96,2.11-1.57.9-5.99,1.32-8.27,0l-23.25-13.43h0Z"/><path class="cls-2" d="M310.87,348.7c.1.07.21.14.32.19l23.1,13.34c1.35.78,3.16,1.09,4.89,1.09,2.03,0,4.1-.45,5.21-1.09,2.06-1.19,2.03-2.24,1.89-3.22.04-.15.06-.3.06-.47v-.04c.04-.21.05-.42.05-.63,0-.22-.02-.45-.06-.68v-50.23c-.04-1.77-.73-3.39-1.73-4.76-1.19-1.64-2.83-2.94-4.25-3.73l-19.2-11.09c-.58-.33-1.23-.53-1.92-.61-1.66-.18-3.65.36-5.43,1.4-1.73,1-3.34,2.47-4.32,4.18-.52.9-.88,1.86-1.01,2.87-.02.11-.03.22-.03.34v48.72c-.13.88.05,1.77.54,2.59.41.68,1.04,1.31,1.88,1.83h0ZM312.76,345.54c-.3-.19-.5-.38-.61-.56-.05-.08-.06-.14-.05-.19.03-.13.04-.25.04-.38h0v-48.77c.07-.49.26-.98.53-1.45.66-1.14,1.76-2.14,2.96-2.83,1.14-.66,2.31-1.02,3.2-.92.19.02.36.07.48.14,6.41,3.7,12.81,7.47,19.24,11.11,1.04.58,2.24,1.53,3.08,2.68.6.82,1.01,1.73,1.03,2.66v50.38c0,.15.02.29.05.43h0v.03s0,.05,0,.05c-.02.06-.04.12-.05.18-.1.37-.1.67-.07.94h0s.05.32.05.32c-.02-.11-.03-.21-.05-.32h0c-.6.34-1.93.58-3.38.58-1.18,0-2.33-.17-3.05-.59l-23.1-13.34c-.09-.06-.18-.11-.28-.16Z"/><path class="cls-9" d="M332.12,288.5h-9.55l-.7,9.08c-.02.09-.02.19-.02.28,0,.81.54,1.62,1.61,2.24,2.14,1.24,5.63,1.24,7.77,0,1.07-.62,1.61-1.43,1.61-2.24,0-.09,0-.19-.02-.28l-.7-9.08Z"/><path class="cls-2" d="M332.12,286.65h-11.26l-.83,10.72c-.01.07-.02.14-.03.22,0,.11-.01.2-.01.28h0c0,.8.25,1.58.76,2.29h0c.41.58,1.01,1.11,1.77,1.55,1.37.79,3.11,1.18,4.82,1.18s3.44-.39,4.8-1.18h0c.76-.44,1.36-.97,1.77-1.55h0c.51-.71.76-1.49.76-2.29h0c0-.17-.01-.33-.04-.5l-.83-10.72h-1.71ZM324.28,290.35h6.13l.57,7.37v.14h.02s-.03.07-.07.14h0c-.12.17-.33.34-.62.51h0c-.78.45-1.86.68-2.96.68s-2.18-.23-2.97-.68c-.29-.17-.49-.34-.61-.51h0c-.05-.06-.07-.11-.07-.14h0s0,0,0,0h0s.02-.14.02-.14l.57-7.37h0Z"/><path class="cls-9" d="M326.44,267.35h1.79c4.54,0,8.43,3.71,8.24,8.24l-.42,10.06c-.19,4.53-3.71,8.24-8.24,8.24h-.9c-4.53,0-8.03-3.71-8.24-8.24l-.47-10.06c-.21-4.53,3.71-8.24,8.24-8.24Z"/><path class="cls-2" d="M326.44,269.2h2.07c1.67.07,3.21.78,4.33,1.9,1.1,1.09,1.79,2.56,1.79,4.18v.25l-.42,10.06c-.08,1.81-.83,3.45-2.01,4.63-1.13,1.13-2.67,1.83-4.39,1.83h-.9c-1.72,0-3.25-.7-4.38-1.83-1.19-1.18-1.94-2.83-2.02-4.64l-.47-10.06v-.27c0-1.6.69-3.06,1.78-4.14,1.12-1.11,2.66-1.82,4.31-1.9h.31ZM328.24,265.5h-1.79c-.07,0-.24,0-.47.01-2.59.12-4.99,1.23-6.74,2.96-1.78,1.75-2.9,4.14-2.9,6.77,0,.06,0,.21.01.43l.47,10.06c.13,2.77,1.28,5.29,3.09,7.1,1.8,1.8,4.24,2.91,7,2.91h.9c2.76,0,5.21-1.11,7.01-2.92,1.81-1.81,2.96-4.33,3.08-7.1l.42-10.06v-.39c.01-2.65-1.11-5.05-2.89-6.8-1.75-1.73-4.16-2.85-6.78-2.95h-.42Z"/><path class="cls-2" d="M326.44,267.35h1.79c4.54,0,8.43,3.71,8.24,8.24l-.42,10.06c-2.66-1.87-4.4-4.18-4.51-7.94-6.89.81-9.17.42-13.08-4.44.94-3.41,4.26-5.92,7.98-5.92Z"/><path class="cls-2" d="M326.44,269.2h2.07c1.67.07,3.21.78,4.33,1.9,1.1,1.09,1.79,2.56,1.79,4.18v.24l-.25,5.86c-.6-1.01-.96-2.21-1-3.72-.03-1.02-.88-1.82-1.89-1.79-.05,0-.1,0-.16.01h0c-3.2.37-5.29.48-6.9-.03-1.32-.41-2.48-1.32-3.88-2.95.44-.95,1.12-1.77,1.97-2.4,1.1-.82,2.47-1.3,3.92-1.3h0ZM328.24,265.5h-1.79c-2.26,0-4.39.76-6.11,2.03-1.72,1.28-3.03,3.09-3.63,5.17-.18.57-.08,1.22.32,1.71,2.2,2.74,3.99,4.23,6.31,4.96,1.84.58,3.85.61,6.57.36.25,1.36.71,2.55,1.36,3.61.93,1.52,2.2,2.74,3.72,3.81.28.19.62.32.99.33,1.02.04,1.88-.75,1.91-1.77l.42-10.06v-.39c.01-2.65-1.11-5.05-2.89-6.81-1.75-1.73-4.16-2.85-6.78-2.95h-.42Z"/><path class="cls-9" d="M332.32,358.86l-5.24-3.28-5.05,7.91,1.04,2.05-3.36,7.5,3.98.89c6.63-8.5,5.5-6.86,8.64-15.07Z"/><path class="cls-2" d="M333.16,357.21l-5.1-3.19c-.86-.53-1.99-.28-2.53.57l-5.06,7.91c-.36.57-.37,1.26-.09,1.82h0s.64,1.26.64,1.26l-3.01,6.7c-.41.93,0,2.02.93,2.44.11.05.23.09.35.11l3.98.89c.74.17,1.49-.14,1.9-.73l.77-1c2.71-3.47,3.97-5.09,4.87-6.66.8-1.39,1.28-2.68,2.18-5.08.19-.51.42-1.13,1.04-2.75.34-.89-.06-1.88-.89-2.31h0ZM327.66,358.11l2.4,1.51-.51,1.36c-.81,2.18-1.25,3.34-1.93,4.53-.8,1.4-2,2.93-4.57,6.23l-.1.13-.63-.14,2.41-5.37c.25-.5.27-1.11,0-1.66l-.56-1.11,3.5-5.49Z"/><path class="cls-4" d="M333.32,316.06l11.18-5.11c-1.42,8.31-2.4,16.7-3.16,25.44-.01.56-.14,1.11-.4,1.64l-8,18.42c-.15.4-.39.77-.7,1.1-1.25,1.28-3.3,1.32-4.58.07-.97-.94-1.22-2.34-.76-3.52l6.4-18.42v-19.62Z"/><path class="cls-2" d="M346.32,311.26c.17-1.01-.51-1.96-1.51-2.13-1-.17-1.96.51-2.13,1.51-.72,4.21-1.32,8.41-1.84,12.65-.52,4.26-.96,8.56-1.33,12.95v.12c0,.14-.03.3-.06.44-.04.14-.09.28-.16.43l-.03.07-7.99,18.42-.04.07c-.04.1-.08.18-.12.25-.05.07-.1.15-.18.22-.27.28-.62.42-.97.43-.36,0-.72-.13-1-.39-.2-.2-.33-.45-.39-.7-.06-.27-.04-.56.06-.82l.02-.07,6.51-18.71v-19.94c0-1.02-.83-1.84-1.84-1.84s-1.84.83-1.84,1.84v19.31l-6.28,18.05h0c-.37.94-.45,1.96-.24,2.94.2.95.68,1.85,1.43,2.58,1.01.98,2.32,1.45,3.61,1.44,1.31-.02,2.6-.54,3.58-1.54.24-.25.45-.52.63-.81.2-.31.35-.61.47-.91h0s7.93-18.27,7.93-18.27h0c.18-.38.32-.77.41-1.17h0c.09-.37.14-.74.16-1.11h0c.38-4.36.81-8.62,1.32-12.82.52-4.22,1.11-8.37,1.81-12.47Z"/><path class="cls-2" d="M322.55,354.13c0,1.02.83,1.85,1.85,1.85s1.85-.83,1.85-1.85v-52.85c0-1.02-.83-1.85-1.85-1.85s-1.85.83-1.85,1.85v52.85Z"/><path class="cls-2" d="M316.28,304.19c-.9-.48-2.02-.14-2.5.76-.48.9-.14,2.01.76,2.49l3.56,1.91c.9.48,2.01.14,2.49-.76.48-.9.14-2.02-.76-2.49l-3.56-1.91Z"/><path class="cls-12" d="M443.46,265.22c.04.15,1.26,1.97,1.26,1.97l.29,1.73,1.4,2.44.56-.23-.41-1.82,1.3,1.08,2.05,3.04.71-.19.15-2.85-.03-2.29-1.42-1.6-1.99-1.5-1.55-2.03-2.33,2.24Z"/><path class="cls-10" d="M449.48,274.58l-1.79-2.66-1.71.69-1.93-3.36-.29-1.69c-1.19-1.78-1.23-1.91-1.27-2.07l-.16-.58,3.57-3.43,2.15,2.81,2.03,1.56,1.66,1.88.03,2.66-.19,3.64-2.1.56ZM445.76,267.36l2.93,2.47,1.03,1.53.05-1.02-.02-1.85-1.1-1.25-2.1-1.63-.87-1.14-.95.91c.23.36.54.83.82,1.25l.12.18.09.55Z"/><path class="cls-13" d="M427.14,217.99c-.44,2.5-2.06,4.3-3.63,4.02-1.57-.27-2.48-2.52-2.04-5.01.44-2.5,2.06-4.3,3.63-4.02,1.57.27,2.48,2.52,2.04,5.01Z"/><path class="cls-10" d="M423.83,224.04c-.22,0-.44-.02-.66-.06-2.7-.47-4.31-3.69-3.67-7.33.27-1.57.94-3.01,1.87-4.04,1.15-1.27,2.63-1.86,4.07-1.6,2.69.47,4.31,3.69,3.67,7.33h0c-.58,3.34-2.83,5.71-5.28,5.71ZM424.71,214.93c-.19.06-1,.87-1.27,2.41-.27,1.54.22,2.58.46,2.71.19-.06,1-.86,1.27-2.41.27-1.54-.23-2.58-.46-2.71Z"/><path class="cls-13" d="M425.02,222.83c-.44,2.5-2.06,4.3-3.63,4.02-1.57-.27-2.48-2.52-2.05-5.01.44-2.5,2.06-4.3,3.63-4.02,1.57.27,2.48,2.52,2.04,5.01Z"/><path class="cls-10" d="M421.71,228.88c-.22,0-.44-.02-.66-.06-2.7-.47-4.31-3.69-3.67-7.33.28-1.57.94-3.01,1.88-4.04,1.15-1.27,2.63-1.85,4.07-1.6,1.44.25,2.63,1.3,3.28,2.89.53,1.29.67,2.87.39,4.44-.58,3.34-2.83,5.7-5.28,5.7ZM422.59,219.77c-.19.06-1,.87-1.27,2.41-.27,1.54.23,2.58.46,2.71.19-.06,1-.87,1.27-2.41h0c.27-1.54-.22-2.58-.46-2.71Z"/><polygon class="cls-16" points="407.71 267.29 429.95 262.41 429.49 265.06 431.03 271.28 406.36 277.18 407.71 267.29"/><path class="cls-10" d="M409.5,268.94l-.76,5.61,19.87-4.74-1.16-4.67.02-.14-17.97,3.94Z"/><polygon class="cls-14" points="422.08 377.15 423.28 376.71 421.78 375.8 422.08 377.15"/><polygon class="cls-10" points="420.99 379.16 419.54 372.67 426.7 377.05 420.99 379.16"/><path class="cls-14" d="M419.18,373.96l6.33,5.98c.65.5,1.43.8,2.25.86l3.25.31c.48.03,1.25-.52,1.14-.99l-.33-1.49c-.09-.4-.85-1.47-1.14-1.75l-2.67-3.4-4.66-6.23c-.36-.48-.96-.7-1.54-.57l-2.3.52c-.56.13-1.03.52-1.25,1.05-.49,1.2-.96,3.45.92,5.7Z"/><path class="cls-10" d="M431.05,382.62s-.1,0-.15,0l-3.28-.31c-1.08-.08-2.14-.48-3.03-1.17l-.11-.1-6.46-6.11c-1.75-2.1-2.17-4.73-1.16-7.23.4-.99,1.27-1.72,2.31-1.95l2.31-.52c1.15-.25,2.36.19,3.07,1.13l4.66,6.23,2.6,3.32c.43.46,1.3,1.63,1.48,2.41l.33,1.49c.14.62-.05,1.29-.51,1.83-.53.61-1.32.99-2.06.99ZM426.48,378.8c.41.3.89.47,1.39.51l2.61.25-.12-.52c-.12-.25-.56-.89-.73-1.06l-.15-.16-2.67-3.41-4.68-6.26-2.31.51c-.08.02-.15.08-.19.16-.41,1.02-.63,2.55.63,4.11l6.21,5.86ZM430.35,378.97s0,0,0,0h0Z"/><path class="cls-14" d="M418.28,372.15l1.24,3.12c.12.36.42.63.79.71l1.78,1.18-.68-3.02-3.13-1.98Z"/><path class="cls-10" d="M424.36,380.46l-4.7-3.11c-.74-.26-1.33-.86-1.58-1.61l-2.91-7.32,7.55,4.78,1.63,7.26Z"/><path class="cls-11" d="M427.86,374.82l-1.89.67c-.34.12-.72.05-.99-.2l-3.24-2.95c-1.32-1.53-2.08-1.91-2.37-3.22l-1.1-8.34,4.52-1.01.69,6.54,2.1,3.95,2.27,4.56Z"/><path class="cls-10" d="M425.64,377.55c-.73,0-1.45-.27-2.01-.78l-3.4-3.12c-.35-.41-.66-.72-.92-1-.8-.83-1.55-1.61-1.88-3.08l-.03-.18-1.33-10.15,8.5-1.9.89,8.39,1.92,3.61,3.29,6.62-4.01,1.43c-.33.12-.67.17-1,.17ZM423.18,370.94l.95.87-.33-.65-2.26-4.25-.5-4.7-.55.12.84,6.43c.08.29.2.44.84,1.11.29.3.62.64,1,1.07Z"/><path class="cls-14" d="M396.95,354.7l5.1,7.89c.44.69,1.08,1.23,1.84,1.56l3.36,1.4c.44.19.94-.09,1-.57l.18-1.51c.05-.41-.02-.82-.21-1.18l-2.78-5.08-2.31-7.43c-.18-.57-.67-.98-1.26-1.05l-2.34-.28c-.58-.07-1.14.14-1.53.58-.86.97-2.06,2.93-1.04,5.68Z"/><path class="cls-10" d="M407.53,367.1c-.3,0-.61-.06-.89-.18l-3.34-1.38c-1.05-.46-1.92-1.2-2.52-2.14l-5.24-8.18c-.95-2.56-.47-5.18,1.32-7.2.71-.8,1.76-1.2,2.83-1.07l2.35.28c1.17.14,2.16.96,2.51,2.09l2.27,7.29,2.71,4.95c.34.67.47,1.38.38,2.09l-.18,1.51c-.08.7-.5,1.32-1.1,1.66-.34.19-.72.29-1.1.29ZM407.8,364.15h.02s-.02,0-.02,0ZM398.31,354.03l5,7.75c.29.44.69.79,1.18,1l2.4.99.06-.49c.01-.11,0-.22-.06-.32l-2.88-5.32-2.31-7.43-2.35-.29c-.09-.01-.17.02-.23.09-.72.81-1.43,2.16-.8,4.02Z"/><path class="cls-14" d="M396.71,352.69l-.3,3.52c0,.38.19.74.51.93l1.28,1.49.79-3.02-2.29-2.91Z"/><path class="cls-10" d="M398.93,361.77l-3.02-3.51c-.64-.5-1.01-1.27-.99-2.09l.62-7.4,5.1,6.5-1.71,6.5Z"/><path class="cls-11" d="M405.17,357.48l-2.46-.3-2.84-3.3c-.87-1.01-1.67-2.51-1.51-3.83l2.51-8.04,4.75,1.38-2.05,5.54,1.59,8.55Z"/><path class="cls-10" d="M407.63,359.79l-5.94-.71-3.34-3.9c-.69-.81-2.27-2.95-1.98-5.38l.08-.36,3.1-9.91,8.7,2.53-2.6,7.04,1.99,10.68ZM400.33,350.42c0,.56.43,1.44,1.05,2.16l1.07,1.24-.94-5.07,1.5-4.04-.81-.23-1.86,5.94Z"/><polygon class="cls-14" points="398.2 358.62 399.48 358.61 398.57 357.21 398.2 358.62"/><polygon class="cls-10" points="396.25 360.15 397.99 353.54 402.21 360.07 396.25 360.15"/><path class="cls-14" d="M410.97,312.29l2.1-43.81,16.66-.54-4.58,16.56-5.19,30.02-14.88,33.31c-.08.22-.28.36-.51.37l-1.52.03c-1.11.02-2.18-.39-2.97-1.16l-1.18-1.13c-.21-.21-.3-.51-.22-.8l9.57-26.31,2.72-6.55Z"/><path class="cls-10" d="M402.96,349.74c-1.47,0-2.86-.56-3.92-1.58l-1.18-1.13c-.61-.58-.85-1.45-.63-2.26l.04-.13,9.57-26.31,2.64-6.37,2.15-44.93,20.08-.65-5.1,18.45-5.21,30.13-14.94,33.45c-.3.76-1.04,1.27-1.86,1.29l-1.52.03s-.08,0-.12,0ZM400.27,345.17l.85.82c.5.48,1.15.74,1.84.74.02,0,.04,0,.06,0l.92-.02,14.57-32.63,5.19-29.98,4.03-14.6-13.24.43-2.04,42.69-2.82,6.79-9.37,25.76Z"/><path class="cls-14" d="M415.89,328.41l-10.77-33.6c-.49-1.44-.74-2.96-.73-4.48l-1.24-11.75,16.14-3.62,2.82,22.13,3.45,29.93-1.92,36.69c.06.43-.14.85-.52,1.07l-1.16.66c-.94.53-2.09.55-3.05.06l-.87-.45c-.37-.18-.64-.51-.73-.91l.2-26.64-1.62-9.1Z"/><path class="cls-10" d="M420.38,367.36c-.74,0-1.47-.17-2.15-.52l-.88-.45c-.75-.36-1.31-1.06-1.51-1.91l-.04-.17v-.18s.2-26.5.2-26.5l-1.58-8.86-10.74-33.5c-.53-1.55-.8-3.2-.8-4.87l-1.37-13,19.05-4.27,3.03,23.77,3.46,30.07v.12s-1.93,36.57-1.93,36.57c.07.97-.41,1.9-1.26,2.4l-1.18.67c-.72.41-1.52.61-2.32.61ZM418.82,363.77l.79.4c.51.26,1.12.25,1.62-.03l.92-.52,1.92-36.54-3.43-29.8-2.61-20.48-13.23,2.96,1.11,10.5v.08c0,1.36.21,2.71.65,3.99l10.82,33.82,1.64,9.23-.2,26.38ZM418.69,363.7h0s0,0,0,0Z"/><path class="cls-14" d="M432.74,246.25l-1.36-9.8c-1.03-5.71-3.14-11-10.14-8.48l-15.62,8.68c-2.65,1.7-4.11,4.12-3.55,8.16l5.25,18.3-4.91,14.71c-.68,2.04.28,4.28,2.25,5.16,4.63,2.07,11.51,4.25,18.61.84l1.87-15.55,2.12,14.31c.89-.8,5.49-2.89,5.17-5.69l-2.31-15.42,2.62-15.22Z"/><path class="cls-10" d="M415.46,287.1c-3.55,0-7.34-.92-11.43-2.75-2.67-1.2-3.99-4.21-3.06-7l4.76-14.27-5.16-18.06c-.59-4.28.79-7.42,4.22-9.63l15.93-8.83c2.84-1.02,5.27-.97,7.22.15,3.17,1.83,4.29,6.02,4.91,9.47l1.41,10.09-2.62,15.21,2.27,15.18c.36,3.17-3.01,5.32-4.82,6.47-.32.2-.72.46-.83.55l-2.07,1.84-.89-5.99-.63,5.27-.74.36c-2.67,1.28-5.48,1.93-8.45,1.93ZM403.54,244.5l5.34,18.64-5.06,15.15c-.44,1.32.18,2.75,1.44,3.31,4.09,1.84,10.2,3.91,16.61,1.19l3.1-25.81,3.41,23.02c1.2-.81,2.65-1.97,2.54-2.95l-2.34-15.61,2.63-15.23-1.33-9.57c-.46-2.53-1.32-6.12-3.44-7.35-1.14-.66-2.64-.65-4.59.03l-15.51,8.62c-2.34,1.5-3.2,3.48-2.8,6.54Z"/><polygon class="cls-16" points="415.52 234.21 424.5 249.36 420.23 231.91 415.52 234.21"/><path class="cls-10" d="M429.64,261.96l-16.95-28.59,8.89-4.34,8.06,32.94ZM418.34,235.05l1.01,1.71-.48-1.97-.53.26Z"/><path class="cls-11" d="M420.27,227.27l.26,5.31c.07,1.34-.79,2.55-2.07,2.95h0c-1.8.55-3.43-1.33-3.73-3.19l-.79-7.09,6.54-.32-.21,2.35Z"/><path class="cls-10" d="M417.82,237.62c-.8,0-1.6-.23-2.33-.69-1.4-.88-2.45-2.52-2.73-4.29l-1.04-9.3,10.95-.54-.4,4.5.25,5.17c.11,2.26-1.32,4.3-3.49,4.96-.4.12-.81.18-1.22.18ZM416.16,227.13l.55,4.98c.08.51.47,1.17.89,1.43.16.1.23.08.27.07.41-.12.68-.51.66-.93l-.26-5.45.02-.2-2.12.1Z"/><path class="cls-12" d="M412.51,225.61l-1.8-8.26,11.7-4.12,1.68,4.62.02,2.58c.15,1.49,0,2.99-.44,4.42l-.66,3.24c-.28.89-.96,1.6-1.83,1.9l-1.07.38c-.97.34-2.04.24-2.92-.28l-2.47-1.44c-1.13-.66-1.92-1.76-2.2-3.03Z"/><path class="cls-10" d="M418.94,232.56c-.96,0-1.92-.25-2.77-.75l-2.47-1.44c-1.6-.94-2.75-2.52-3.15-4.33h0s-2.17-9.99-2.17-9.99l15.23-5.36,2.47,6.81.03,2.83c.16,1.7,0,3.39-.5,5.02l-.69,3.33c-.46,1.49-1.61,2.68-3.08,3.2l-1.07.38c-.59.21-1.21.31-1.82.31ZM414.46,225.18c.16.73.62,1.36,1.26,1.73l2.46,1.44c.38.22.84.27,1.25.12l1.07-.38c.26-.09.46-.29.56-.54l.69-3.3c.36-1.18.49-2.4.36-3.62v-.19s-.03-2.23-.03-2.23l-.88-2.44-8.16,2.87,1.42,6.53Z"/><path class="cls-13" d="M416.23,206.98s-6.24,0-7.69,4.27c-1.45,4.26-1.41,5.13-2.53,7.82-3.19,7.67-.38,14.07,1.45,15.99,1.84,1.92,3.16-.98,3.16-.98l2.16-.96,2.33-6.61,1.05-10.27,1-3.23.71-.11,1.16-2.45-.06-1.17-2.74-2.29Z"/><path class="cls-10" d="M408.74,237.71c-.71,0-1.73-.24-2.72-1.27-2.53-2.65-5.28-9.91-1.86-18.14.58-1.39.81-2.21,1.17-3.46.29-1.02.65-2.29,1.32-4.24,1.88-5.55,9.26-5.62,9.58-5.62h.73s3.97,3.32,3.97,3.32l.12,2.54-1.82,3.86-.53.08-.57,1.84-1.05,10.31-2.7,7.65-2.34,1.04c-.49.75-1.4,1.8-2.77,2.03-.15.03-.33.04-.53.04ZM415.57,209.02c-1.37.15-4.39.71-5.12,2.86-.63,1.86-.96,3.02-1.26,4.05-.37,1.28-.66,2.3-1.32,3.9-2.63,6.34-.64,11.76.84,13.59.04-.07.08-.14.11-.2l.32-.66,2.05-.93,1.96-5.57,1.1-10.42,1.37-4.42.9-.14.43-.9-1.38-1.15Z"/><path class="cls-13" d="M426.7,213.05c-.15,2.66-2.44,4.69-5.1,4.54-2.66-.15-4.69-2.44-4.54-5.1.15-2.66,2.44-4.69,5.1-4.54,2.66.15,4.69,2.43,4.54,5.1Z"/><path class="cls-10" d="M421.89,219.6c-.13,0-.26,0-.4-.01-3.76-.22-6.64-3.45-6.42-7.21.11-1.82.91-3.49,2.27-4.7s3.1-1.83,4.94-1.72c1.82.1,3.49.91,4.7,2.27,1.21,1.36,1.82,3.11,1.72,4.93-.21,3.62-3.23,6.43-6.81,6.43ZM421.88,209.95c-.69,0-1.35.25-1.88.72-.56.5-.9,1.19-.94,1.95-.09,1.56,1.1,2.9,2.66,2.99.73.05,1.48-.21,2.04-.71.56-.5.9-1.19.94-1.95.04-.75-.21-1.48-.71-2.04s-1.19-.9-1.95-.94c-.06,0-.11,0-.17,0Z"/><path class="cls-13" d="M418.92,216.91c.09,1.91-1.38,3.53-3.29,3.62-1.91.09-3.53-1.38-3.62-3.29-.09-1.91,1.38-3.53,3.29-3.62,1.91-.09,3.53,1.38,3.62,3.29Z"/><path class="cls-10" d="M415.46,222.53c-1.36,0-2.65-.5-3.66-1.42-1.08-.98-1.71-2.32-1.79-3.78-.07-1.46.43-2.85,1.41-3.93.98-1.08,2.32-1.71,3.78-1.79,2.99-.12,5.57,2.18,5.72,5.19.07,1.46-.43,2.85-1.41,3.93s-2.32,1.71-3.78,1.79c-.09,0-.18,0-.27,0ZM415.46,215.62s-.05,0-.07,0c-.8.04-1.42.72-1.38,1.53.02.39.19.75.48,1.01.29.26.65.4,1.05.38.39-.02.75-.19,1.01-.48.26-.29.4-.66.38-1.05-.04-.78-.68-1.39-1.46-1.39Z"/><path class="cls-13" d="M416.69,218.55c.13,2.63-1.9,4.87-4.53,4.99-2.63.13-4.87-1.9-5-4.53-.13-2.63,1.9-4.87,4.53-4.99,2.63-.13,4.87,1.9,5,4.53Z"/><path class="cls-10" d="M411.92,225.55c-1.68,0-3.28-.62-4.54-1.75-1.34-1.21-2.13-2.88-2.21-4.68-.09-1.8.53-3.54,1.75-4.88s2.88-2.12,4.68-2.21c1.8-.07,3.54.53,4.88,1.75,1.34,1.21,2.13,2.88,2.21,4.68.18,3.73-2.7,6.91-6.43,7.09-.11,0-.23,0-.34,0ZM411.93,216.01s-.09,0-.14,0c-.74.04-1.42.36-1.92.9-.5.55-.75,1.26-.71,1.99.04.74.36,1.42.91,1.92.55.5,1.24.76,2,.71,1.52-.07,2.7-1.37,2.63-2.9-.04-.74-.36-1.42-.91-1.92-.51-.47-1.17-.72-1.86-.72Z"/><path class="cls-13" d="M416.03,223.71c.18,3.67-2.07,6.76-5.01,6.9-2.95.14-5.48-2.71-5.66-6.38-.18-3.67,2.07-6.76,5.01-6.9,2.95-.14,5.48,2.71,5.66,6.38Z"/><path class="cls-10" d="M410.81,232.61c-1.91,0-3.77-.88-5.16-2.44-1.37-1.54-2.19-3.62-2.29-5.85-.23-4.76,2.87-8.8,6.91-9,2-.1,4,.79,5.46,2.43,1.37,1.54,2.19,3.62,2.29,5.85h0c.11,2.23-.5,4.38-1.71,6.05-1.29,1.78-3.19,2.85-5.2,2.95-.1,0-.2,0-.3,0ZM410.58,219.32s-.08,0-.11,0c-1.81.09-3.24,2.29-3.11,4.81.06,1.3.53,2.54,1.29,3.39.38.43,1.2,1.15,2.28,1.09,1.09-.05,1.82-.84,2.16-1.31.67-.92,1.02-2.2.95-3.5h0c-.06-1.3-.53-2.54-1.29-3.39-.37-.42-1.13-1.09-2.16-1.09Z"/><path class="cls-13" d="M418.94,215.1c.18,3.67-2.07,6.76-5.01,6.9-2.95.14-5.48-2.71-5.66-6.38-.18-3.67,2.07-6.76,5.01-6.9,2.95-.14,5.48,2.71,5.66,6.38Z"/><path class="cls-10" d="M413.71,224c-3.91,0-7.22-3.65-7.45-8.29-.11-2.23.5-4.38,1.71-6.05,1.29-1.78,3.19-2.85,5.2-2.95,2.01-.1,4,.79,5.46,2.43,1.37,1.54,2.19,3.62,2.29,5.85h0c.11,2.23-.5,4.38-1.71,6.05-1.29,1.78-3.19,2.85-5.2,2.95-.1,0-.21,0-.31,0ZM413.49,210.71s-.08,0-.12,0c-1.09.05-1.82.84-2.16,1.31-.67.92-1.02,2.2-.96,3.5.12,2.47,1.69,4.49,3.46,4.49.04,0,.08,0,.11,0,1.09-.05,1.82-.84,2.16-1.31.67-.92,1.02-2.2.96-3.5h0c-.06-1.3-.53-2.54-1.29-3.39-.37-.41-1.13-1.09-2.16-1.09Z"/><path class="cls-13" d="M416.05,229.12c.13,2.63-1.9,4.87-4.53,4.99-2.63.13-4.87-1.9-5-4.53-.13-2.63,1.9-4.87,4.53-5,2.63-.13,4.87,1.9,5,4.53Z"/><path class="cls-10" d="M411.28,236.12c-1.68,0-3.28-.62-4.54-1.75-1.34-1.21-2.12-2.88-2.21-4.68-.09-1.81.53-3.54,1.75-4.88,1.21-1.34,2.88-2.12,4.68-2.21,1.8-.08,3.54.53,4.88,1.75s2.12,2.88,2.21,4.68h0c.09,1.81-.53,3.54-1.75,4.88-1.21,1.34-2.88,2.12-4.68,2.21-.11,0-.23,0-.34,0ZM411.29,226.58s-.09,0-.14,0c-1.53.07-2.71,1.38-2.63,2.9.04.74.36,1.42.91,1.91.55.5,1.24.76,1.99.71.74-.04,1.42-.36,1.92-.9.5-.55.75-1.26.71-1.99h0c-.04-.74-.36-1.42-.91-1.92-.51-.47-1.17-.72-1.86-.72Z"/><path class="cls-13" d="M420.58,212.76c.11,2.24-1.62,4.14-3.86,4.25-2.24.11-4.14-1.62-4.25-3.86-.11-2.24,1.62-4.14,3.86-4.25,2.24-.11,4.14,1.62,4.25,3.86Z"/><path class="cls-10" d="M416.52,219.02c-3.21,0-5.89-2.53-6.05-5.76-.08-1.62.48-3.17,1.56-4.37,1.09-1.2,2.58-1.9,4.19-1.98,1.61-.09,3.17.48,4.37,1.56,1.2,1.09,1.9,2.58,1.98,4.19h0c.16,3.34-2.42,6.18-5.76,6.35-.1,0-.2,0-.3,0ZM416.53,210.9s-.07,0-.1,0c-1.13.05-2.01,1.02-1.96,2.16s.99,2.01,2.16,1.96c1.13-.05,2.01-1.02,1.95-2.16h0c-.05-1.1-.96-1.96-2.05-1.96Z"/><path class="cls-13" d="M422.57,210.56c.11,2.24-1.95,4.16-4.6,4.29-2.65.13-4.89-1.58-5-3.82-.11-2.24,1.95-4.16,4.6-4.29,2.65-.13,4.89,1.58,5,3.82Z"/><path class="cls-10" d="M417.69,216.85c-3.58,0-6.56-2.5-6.72-5.73-.08-1.66.61-3.29,1.9-4.5,1.21-1.13,2.85-1.8,4.6-1.89,1.74-.09,3.44.42,4.76,1.43,1.4,1.07,2.25,2.63,2.33,4.29.08,1.66-.61,3.29-1.9,4.5-1.21,1.13-2.85,1.8-4.6,1.89-.12,0-.25,0-.38,0ZM417.85,208.73c-.06,0-.12,0-.18,0-.8.04-1.55.34-2.07.82-.25.23-.66.72-.63,1.37.05,1.12,1.38,1.99,2.9,1.92.8-.04,1.55-.34,2.07-.82.25-.23.66-.72.63-1.37h0c-.03-.66-.49-1.1-.76-1.31-.52-.4-1.22-.62-1.96-.62Z"/><path class="cls-13" d="M426.3,212.11c.88,1.37.7,3.06-.41,3.77-1.11.71-2.72.19-3.61-1.18-.88-1.37-.7-3.06.41-3.77,1.11-.72,2.72-.19,3.61,1.18Z"/><path class="cls-10" d="M424.79,218.19c-1.58,0-3.2-.87-4.19-2.41-.67-1.05-.98-2.27-.85-3.43.14-1.3.82-2.44,1.86-3.1,1.03-.67,2.35-.82,3.59-.41,1.12.37,2.1,1.14,2.78,2.19,1.48,2.29,1.02,5.22-1.01,6.54-.66.43-1.42.63-2.18.63ZM423.81,212.6s-.03,0-.04,0c-.06.08-.12.52.19,1,.32.49.74.62.85.58.06-.08.12-.51-.19-1h0c-.28-.44-.66-.59-.81-.59Z"/><polygon class="cls-12" points="393.74 275.08 392.73 277.47 391.96 279.32 391.92 279.75 391.96 281.11 391.37 283.25 389.6 285.46 389.04 285.2 389.08 284.44 390.15 283.09 390.26 282.82 389.62 283.32 388.58 284.59 386.65 287.58 386.21 287.22 385.99 286.11 386.17 284.22 386.7 282.62 388.03 279.55 389.54 277.4 390.63 273.94 393.74 275.08"/><path class="cls-10" d="M386.88,289.06l-1.58-1.29-.32-1.61.23-2.26.54-1.6,1.46-3.32,1.42-2.02,1.36-4.31,5.07,1.86-2.12,5.07-.02.22.05,1.45-.69,2.49-2.38,2.97-1.15-.51-1.87,2.89ZM387.15,284.43l-.06.62.71-1.09,1.19-1.42,1.96-1.55-.04-1.27.12-.78,1.37-3.28-1.14-.42-.91,2.73-1.45,2.07-1.29,2.97-.47,1.41Z"/><path class="cls-14" d="M388.9,277.18l4.34.34,6-17.58,10.08-16.56c.7-1.36-1.21-4.92-2.57-5.62h0c-1.36-.7-3.03-.16-3.73,1.21l-8.91,19.18c-.24.46-.37.96-.41,1.48l-4.8,17.56Z"/><path class="cls-10" d="M394.28,279.1l-7.31-.57,5.24-19.17c.06-.67.25-1.31.55-1.9l8.89-19.13c1.1-2.15,3.67-2.98,5.77-1.91,1.41.72,2.44,2.66,2.72,3.24.5,1.03,1.24,2.97.5,4.4l-.05.1-9.99,16.42-6.32,18.53ZM390.82,275.82l1.37.11,5.76-16.78,10.03-16.48c.13-.7-1.17-3.2-1.92-3.59-.62-.32-1.39-.07-1.71.55l-8.89,19.13c-.17.33-.25.63-.27.94l-.05.3-4.32,15.81Z"/><path class="cls-14" d="M443.74,266.73l3.38-2.74-12.66-16.67-5.35-17.75c-.43-1.47-1.97-2.3-3.44-1.87h0c-1.47.43-2.3,1.97-1.87,3.44l5.7,18.41c.15.49.39.95.72,1.35l13.52,15.83Z"/><path class="cls-10" d="M444.11,268.37c-.31.25-.77.21-1.03-.09l-14-16.4c-.48-.57-.82-1.21-1.02-1.9l-5.7-18.39c-.67-2.28.62-4.66,2.88-5.32,1.09-.32,2.25-.2,3.25.34,1,.54,1.73,1.45,2.05,2.54l5.23,17.35c.03.08.07.16.12.23l12.86,16.94c.24.32.19.77-.12,1.02l-4.53,3.68ZM426.46,229.08c-.12,0-.24.02-.36.05-.32.1-.59.31-.75.61-.16.3-.2.64-.1.97l5.7,18.39c.09.32.24.59.44.83l12.09,14.16c.26.3.72.35,1.03.09h0c.31-.25.36-.7.12-1.02l-11.44-15.06c-.05-.07-.09-.15-.12-.23l-5.39-17.88c-.1-.33-.32-.6-.61-.76-.19-.1-.4-.15-.6-.15Z"/></g></svg>