<?xml version="1.0" encoding="UTF-8"?><svg id="Layer_1" xmlns="http://www.w3.org/2000/svg" viewBox="0 0 720 720"><defs><style>.cls-1{fill:#111;}.cls-1,.cls-2,.cls-3,.cls-4,.cls-5,.cls-6{fill-rule:evenodd;}.cls-2{fill:#0a0a0a;}.cls-3{fill:#00af81;}.cls-4{fill:#f4d9dc;}.cls-6{fill:#3d68ec;}</style></defs><path id="Fill-46" class="cls-6" d="M447.83,431.82l-67.46-35.07c-5.34-3.01-12.02-3.01-17.37,0l-84.83,49.43c-5.68,3.34-9.02,9.02-9.02,15.36l-.67,103.2c0,6.35,3.34,12.36,9.02,15.36l68.46,35.07c5.34,3.01,12.02,3.01,17.37,0l83.83-49.43c5.68-3.34,9.02-9.02,9.02-15.36l.67-103.2c0-6.35-3.34-12.02-8.68-15.36"/><path id="Fill-48" class="cls-2" d="M372.02,397.08c-2.67,0-5.34.67-7.68,2l-84.83,49.43c-4.68,2.67-7.68,7.68-7.68,13.36l-.67,103.2c0,5.34,3.01,10.35,7.68,13.02l68.46,35.07c4.68,2.67,10.35,2.34,15.03,0l83.83-49.43c4.68-2.67,7.68-7.68,7.68-13.36l.67-103.2c0-5.34-3.01-10.35-7.35-13.02l-67.46-35.07c-2.34-1.34-4.68-2-7.35-2M354.32,620.18c-3.34,0-6.68-1-9.69-2.34l-68.46-35.07c-6.35-3.67-10.35-10.35-10.35-17.7l.67-103.2c0-7.35,4.01-14.03,10.35-17.7l84.83-49.43c6.01-3.67,14.03-3.67,20.04,0l67.46,35.07c6.35,3.67,10.35,10.35,10.35,17.37l-.67,103.2c0,7.35-4.01,14.03-10.35,17.7l-83.83,49.43c-3.01,1.67-6.68,2.67-10.35,2.67"/><g id="Group-52"><path id="Fill-50" class="cls-5" d="M372.02,399.42c-2.34,0-4.34.67-6.35,1.67l-84.83,49.43c-4.01,2.34-6.68,6.68-6.68,11.36l-.67,103.2c0,4.68,2.34,8.68,6.35,11.02l68.13,35.07c4.01,2.34,8.68,2,12.69,0l83.83-49.43c4.01-2.34,6.68-6.68,6.68-11.36l.67-103.2c0-4.68-2.34-8.68-6.35-11.02l-67.46-35.07c-2-1-4.01-1.67-6.35-1.67M354.32,617.5c-3.01,0-5.68-.67-8.35-2l-68.46-35.07c-5.34-3.01-9.02-8.68-8.68-15.03l.67-103.2c0-6.35,3.34-12.02,9.02-15.36l84.83-49.43c5.34-3.01,12.02-3.01,17.37,0l67.46,35.07c5.34,3.01,8.68,8.68,8.68,15.03l-.67,103.2c0,6.35-3.34,12.02-9.02,15.36l-83.83,49.43c-2.67,1.67-5.68,2.34-8.68,2.34M372.02,394.41c-3.01,0-6.35.67-9.02,2.34l-84.83,49.43c-5.68,3.34-9.35,9.35-9.35,15.7l-.67,103.2c0,6.35,3.34,12.36,9.02,15.7l68.13,35.07c5.34,3.01,12.36,3.01,17.7,0l83.83-49.43c5.68-3.34,9.02-9.35,9.35-15.7l.67-103.2c0-6.35-3.34-12.36-9.02-15.36l-67.46-35.07c-2.67-1.34-5.68-2.34-8.68-2.34M354.32,622.51c-3.67,0-7.35-1-10.69-2.67l-68.13-35.07c-7.35-4.01-11.69-11.36-11.69-19.7l.67-103.2c0-8.02,4.34-15.7,11.69-19.7l84.49-49.43c6.68-4.01,15.36-4.01,22.38,0l67.46,35.07c7.01,4.01,11.36,11.36,11.36,19.7l-.67,103.2c0,8.02-4.34,15.7-11.36,19.7l-83.83,49.43c-3.34,2-7.35,3.01-11.36,3.01"/></g><path id="Fill-53" class="cls-2" d="M350.65,495.94c-3.67,0-7.01-1-10.35-2.67l-41.41-19.7c-1.34-.67-1.67-2-1.34-3.34.67-1.34,2-1.67,3.34-1.34l41.41,19.7c5.34,2.67,11.36,2.67,16.36,0l84.16-47.76c1.34-.67,2.67,0,3.67,1,.67,1.34,0,2.67-1,3.67l-84.16,47.76c-3.34,2-7.35,3.01-11.02,3.01"/><path id="Fill-55" class="cls-5" d="M300.22,470.89h0v.33l41.41,19.7c6.01,3.34,13.36,3.01,19.37,0l84.16-47.76h0l-84.16,47.76c-5.68,3.34-12.69,3.34-18.7,0l-41.41-19.7h0M350.65,498.28c-4.01,0-8.02-1-11.36-3.01l-41.41-19.7c-1.34-.67-2-1.67-2.34-2.67-.33-1.34-.33-2.67,0-3.67.67-1,1.67-2,2.67-2.34,1.34-.33,2.67-.33,3.67,0l41.41,19.7c4.68,2.34,10.02,2.34,14.36,0l84.16-47.76c1-.67,2.34-.67,3.67-.33,1.34.33,2.34,1,3.01,2.34.67,1,.67,2.34.33,3.67-.33,1.34-1,2.34-2.34,3.01l-84.16,47.76c-3.67,2-8.02,3.34-12.02,3.34"/><path id="Fill-57" class="cls-2" d="M352.32,601.81c-1.34,0-2.67-1-2.67-2.67v-104.87c0-1.34,1-2.67,2.67-2.67s2.67,1,2.67,2.67v104.87c0,1.34-1,2.67-2.67,2.67"/><path id="Fill-59" class="cls-5" d="M352.32,493.93h0v104.87h.67v-104.87h0M352.32,603.81c-2.67,0-5.01-2.34-5.01-5.01v-104.87c0-2.67,2.34-5.01,5.01-5.01s5.01,2.34,5.01,5.01v104.87c0,2.67-2.34,5.01-5.01,5.01"/><path id="Fill-61" class="cls-3" d="M445,287.54l-67.46-35.07c-5.34-3.01-12.02-3.01-17.37,0l-84.83,49.43c-5.68,3.34-9.02,9.02-9.02,15.36l-.67,103.2c0,6.35,3.34,12.36,9.02,15.36l68.46,35.07c5.34,3.01,12.02,3.01,17.37,0l83.83-49.43c5.68-3.34,9.02-9.02,9.02-15.36l.67-103.2c0-6.35-3.34-12.02-8.68-15.36"/><path id="Fill-63" class="cls-1" d="M368.85,252.81c-2.67,0-5.34.67-7.68,2l-84.83,49.43c-4.68,2.67-7.68,7.68-7.68,13.36l-.67,103.2c0,5.34,3.01,10.35,7.68,13.02l68.46,35.07c2.34,1.34,4.68,2,7.35,2h0c2.67,0,5.34-.67,7.68-2l83.83-49.43c4.68-2.67,7.68-7.68,7.68-13.36l.67-103.2c0-5.34-3.01-10.35-7.35-13.02l-67.46-35.07c-2.34-1.34-4.68-2-7.35-2M351.15,475.9h0c-3.34,0-6.68-1-9.69-2.34l-68.46-35.07c-6.35-3.67-10.35-10.35-10.35-17.7l.67-103.2c0-7.35,4.01-14.03,10.35-17.7l84.83-49.43c6.01-3.67,14.03-3.67,20.04,0l67.46,35.07c6.35,3.67,10.35,10.35,10.35,17.37l-.67,103.2c0,7.35-4.01,14.03-10.35,17.7l-83.83,49.43c-3.01,1.67-6.68,2.67-10.35,2.67"/><path id="Fill-65" class="cls-5" d="M368.85,255.14c-2.34,0-4.34.67-6.35,1.67l-84.83,49.43c-4.01,2.34-6.68,6.68-6.68,11.35l-.67,103.2c0,4.68,2.34,8.68,6.35,11.02l68.46,35.07c4.01,2.34,9.02,2,12.69,0l83.83-49.43c4.01-2.34,6.68-6.68,6.68-11.35l.67-103.2c0-4.68-2.34-8.68-6.35-11.02l-67.46-35.07c-2-1-4.01-1.67-6.35-1.67M351.15,472.89c-3.01,0-5.68-.67-8.35-2l-68.46-35.07c-5.34-3.01-9.02-8.68-8.68-15.03l.67-103.2c0-6.35,3.34-12.02,9.02-15.36l84.83-49.43c5.34-3.01,12.02-3.01,17.37,0l67.46,35.07c5.34,3.01,8.68,8.68,8.68,15.03l-.67,103.2c0,6.35-3.34,12.02-9.02,15.36l-83.83,49.43c-2.67,1.67-5.68,2.34-8.68,2.34M368.85,249.8c-3.01,0-6.35.67-9.02,2.34l-84.83,49.43c-5.68,3.34-9.35,9.35-9.35,15.7l-.67,103.2c0,6.35,3.34,12.36,9.02,15.7l68.46,35.07c2.67,1.34,5.68,2.34,8.68,2.34h0c3.01,0,6.35-1,9.02-2.34l83.83-49.43c5.68-3.34,9.02-9.35,9.35-15.7l.67-103.2c0-6.35-3.34-12.36-9.02-15.36l-67.46-35.07c-2.67-1.34-5.68-2.34-8.68-2.34M351.15,478.24h0c-3.67,0-7.35-1-10.69-2.67l-68.46-35.07c-7.35-4.01-11.69-11.35-11.69-19.7l.67-103.2c0-8.02,4.34-15.7,11.69-19.7l84.83-49.43c6.68-4.01,15.7-4.01,22.38,0l67.46,35.07c7.01,4.01,11.36,11.36,11.36,19.7l-.67,103.2c0,8.02-4.34,15.7-11.36,19.7l-83.83,49.43c-3.34,2-7.35,3.01-11.36,3.01"/><path id="Fill-67" class="cls-2" d="M347.81,351.33c-3.67,0-7.01-1-10.35-2.67l-41.41-19.7c-1.34-.67-1.67-2-1.34-3.34.67-1.34,2-2,3.34-1.34l41.41,19.7c5.34,2.67,11.36,2.67,16.36,0l84.16-47.76c1.34-.67,2.67,0,3.67,1,.67,1.34,0,2.67-1,3.67l-84.16,47.76c-3.34,2-7.35,3.01-11.02,3.01"/><path id="Fill-69" class="cls-5" d="M297.05,326.61h0l41.41,19.7c6.01,3.34,13.36,3.01,19.37,0l84.16-47.76v-.33h-.33l-84.16,47.76c-5.68,3.34-12.69,3.34-18.7,0l-41.41-19.7h0M347.81,353.67c-4.01,0-8.02-1-11.36-3.01l-41.41-19.7c-1.34-.67-2-1.67-2.34-2.67-.33-1.34-.33-2.67,0-3.67.67-1.34,1.67-2,2.67-2.34,1.34-.33,2.67-.33,3.67,0l41.41,19.7c4.68,2.34,10.02,2.34,14.36,0l84.16-47.76c2.34-1.34,5.34-.33,6.68,1.67,1.34,2.34.67,5.34-1.67,6.68l-84.16,47.76c-3.67,2-8.02,3.34-12.02,3.34"/><path id="Fill-71" class="cls-2" d="M349.48,457.2c-1.34,0-2.67-1-2.67-2.67v-104.87c0-1.34,1-2.67,2.67-2.67s2.67,1,2.67,2.67v104.87c0,1.34-1,2.67-2.67,2.67"/><path id="Fill-73" class="cls-5" d="M349.48,349.66h0v104.87h.67v-104.87h0M349.48,459.54c-2.67,0-5.01-2.34-5.01-5.01v-104.87c0-2.67,2.34-5.01,5.01-5.01s5.01,2.34,5.01,5.01v104.87c0,2.67-2.34,5.01-5.01,5.01"/><path id="Fill-83" class="cls-4" d="M442.49,139.23l-67.46-35.07c-5.34-3.01-12.02-3.01-17.37,0l-84.83,49.43c-5.68,3.34-9.02,9.02-9.02,15.36l-.67,103.2c0,6.35,3.34,12.36,9.02,15.36l68.46,35.07c5.34,3.01,12.02,3.01,17.37,0l83.83-49.43c5.68-3.34,9.02-9.02,9.02-15.36l.67-103.2c0-6.35-3.34-12.02-8.68-15.36"/><path id="Fill-85" class="cls-2" d="M366.68,104.5c-2.67,0-5.34.67-7.68,2l-84.83,49.43c-4.68,2.67-7.68,8.02-7.68,13.36l-.67,103.2c0,5.34,3.01,10.35,7.68,13.02l68.46,35.07c4.68,2.67,10.35,2.34,15.03,0l83.83-49.43c4.68-2.67,7.68-7.68,7.68-13.36l.67-103.2c0-5.34-3.01-10.35-7.35-13.02l-67.46-35.07c-2.34-1.34-4.68-2-7.35-2M348.98,327.59h0c-3.34,0-6.68-1-9.69-2.34l-68.46-35.07c-6.35-3.67-10.35-10.35-10.35-17.7l.67-103.2c0-7.35,4.01-14.03,10.35-17.7l84.83-49.43c6.01-3.67,14.03-3.67,20.04,0l67.46,35.07c6.35,3.67,10.35,10.35,10.35,17.37l-.67,103.2c0,7.35-4.01,14.03-10.35,17.7l-83.83,49.43c-3.01,1.67-6.68,2.67-10.35,2.67"/><g id="Group-89"><path id="Fill-87" class="cls-5" d="M366.68,106.84c-2.34,0-4.34.67-6.35,1.67l-84.83,49.43c-4.01,2.34-6.68,6.68-6.68,11.35l-.67,103.2c0,4.68,2.34,8.68,6.35,11.02l68.46,35.07c4.01,2.34,8.68,2,12.69,0l83.83-49.43c4.01-2.34,6.68-6.68,6.68-11.35l.67-103.2c0-4.68-2.34-8.68-6.35-11.02l-67.46-35.07c-2-1-4.01-1.67-6.35-1.67M348.98,324.59c-3.01,0-5.68-.67-8.35-2l-68.46-35.07c-5.34-3.01-9.02-8.68-8.68-15.03l.67-103.2c0-6.35,3.34-12.02,9.02-15.36l84.83-49.43c5.34-3.01,12.02-3.01,17.37,0l67.46,35.07c5.34,3.01,8.68,8.68,8.68,15.03l-.67,103.2c0,6.35-3.34,12.02-9.02,15.36l-83.83,49.43c-2.67,1.67-5.68,2.34-8.68,2.34M366.68,101.83c-3.01,0-6.35.67-9.02,2.34l-84.83,49.43c-5.68,3.34-9.35,9.35-9.35,15.7l-.67,103.2c0,6.35,3.34,12.36,9.02,15.7l68.46,35.07c5.34,3.01,12.36,3.01,17.7,0l83.83-49.43c5.68-3.34,9.02-9.35,9.35-15.7l.67-103.2c0-6.35-3.34-12.36-9.02-15.36l-67.46-35.07c-2.67-1.34-5.68-2.34-8.68-2.34M348.98,329.93c-3.67,0-7.35-1-10.69-2.67l-68.46-35.07c-7.35-4.01-11.69-11.35-11.69-19.7l.67-103.2c0-8.02,4.34-15.7,11.69-19.7l84.83-49.43c6.68-4.01,15.36-4.01,22.38,0l67.46,35.07c7.01,4.01,11.35,11.36,11.35,19.37l-.67,103.2c0,8.02-4.34,15.7-11.35,19.7l-83.83,49.43c-3.34,2-7.35,3.01-11.35,3.01"/></g><path id="Fill-90" class="cls-2" d="M345.31,203.36c-3.67,0-7.01-1-10.35-2.67l-41.41-19.7c-1.34-.67-1.67-2-1.34-3.34.67-1.34,2-1.67,3.34-1.34l41.41,19.7c5.34,2.67,11.35,2.67,16.36,0l84.16-47.76c1.34-.67,2.67,0,3.67,1,.67,1.34,0,2.67-1,3.67l-84.16,47.76c-3.34,2-7.35,3.01-11.02,3.01"/><path id="Fill-92" class="cls-5" d="M294.88,178.31h0l41.41,19.7c6.01,3.34,13.36,3.01,19.37,0l84.16-47.76v-.33h0l-84.16,47.76c-5.68,3.34-12.69,3.34-18.7,0l-41.41-19.7h0M345.31,205.36c-4.01,0-8.02-1-11.35-3.01l-41.41-19.7c-1.34-.67-2-1.67-2.34-2.67-.33-1.34-.33-2.67,0-3.67.67-1,1.67-2,2.67-2.34,1.34-.33,2.67-.33,3.67,0l41.41,19.7c4.68,2.34,10.02,2.34,14.36,0l84.16-47.76c1-.67,2.34-.67,3.67-.33,1.34.33,2.34,1,3.01,2.34.67,1,.67,2.34.33,3.67-.33,1.34-1,2.34-2.34,3.01l-84.16,47.76c-3.67,2-8.02,3.34-12.02,3.34"/><path id="Fill-94" class="cls-2" d="M346.98,308.89c-1.34,0-2.67-1-2.67-2.67v-104.87c0-1.34,1-2.67,2.67-2.67s2.67,1,2.67,2.67v104.87c0,1.34-1,2.67-2.67,2.67"/><path id="Fill-96" class="cls-5" d="M346.98,201.35h0v104.87h.67v-104.87h0M346.98,311.23c-2.67,0-5.01-2.34-5.01-5.01v-104.87c0-2.67,2.34-5.01,5.01-5.01s5.01,2.34,5.01,5.01v104.87c0,2.67-2.34,5.01-5.01,5.01"/></svg>