<?xml version="1.0" encoding="UTF-8"?><svg id="Layer_1" xmlns="http://www.w3.org/2000/svg" viewBox="0 0 720 720"><defs><style>.cls-1{fill:#00af81;}.cls-1,.cls-2,.cls-3,.cls-4{fill-rule:evenodd;}.cls-2{fill:#f4d9dc;}.cls-4{fill:#3d68ec;}.cls-5{fill:none;stroke:#000;stroke-miterlimit:10;stroke-width:12.09px;}</style></defs><g id="Layer_1-2"><path class="cls-4" d="M244.29,119.51v12.9s-8.41,4.94-8.41,4.94l-9.42-5.38c-4.37-2.47-8.75-2.47-13.12,0l-4.37,2.47c-1.57,1.01-2.8,2.8-2.8,4.82v305.1c.34,2.36.9,3.48,2.8,4.94l186.76,107.79c19.07,11.33,67.86,12.45,68.87-15.37V236.28s-.34-1.12-.34-1.12c-1.23-10.32-13.12-15.26-21.31-19.85-59.45-34.44-118.9-68.87-178.69-103.31-4.04-2.36-8.75-2.36-13.12,0l-4.04,2.47c-1.91,1.01-2.8,2.8-2.8,4.82h0c0,.07,0,.11,0,.11v.11Z"/><path class="cls-3" d="M257.64,113.79h0c-1.57,0-3.14.45-4.71,1.35l-4.37,2.47c-.56.34-.9,1.01-.9,1.68v13.01c0,1.35-.67,2.58-1.91,3.25l-8.08,4.71c-1.35.67-2.58.67-3.81,0l-9.42-5.38c-3.14-1.79-6.28-1.79-9.42,0l-4.37,2.47c-.56.45-.9,1.01-.9,1.68v304.88c0,1.23.22,1.35.9,1.91l186.76,107.79c12.56,7.4,39.48,9.98,53.84,2.13,6.28-3.37,9.42-8.19,9.42-14.36V235.61c-.9-6.95-8.75-11.33-15.59-15.03-1.57-.79-2.8-1.46-4.04-2.13l-178.69-103.31c-1.23-.9-3.14-1.35-4.71-1.35h0ZM428.25,567.85h0c-12.9,0-26.02-3.03-34.44-7.96l-186.87-107.91c-2.8-1.91-4.37-4.26-4.37-7.96V138.92c0-3.25,1.57-6.28,4.37-7.96l4.37-2.47c5.38-3.14,11.67-3.14,16.94,0l7.52,4.37,4.71-2.8v-10.77c0-3.37,1.57-6.39,4.71-8.08l4.04-2.47c5.72-3.03,11.67-3.03,16.94,0l178.57,103.42c1.35.67,2.58,1.35,3.81,2.02,8.19,4.37,18.17,9.87,19.41,20.3l.34,307.01c-.34,8.86-5.05,16.04-13.46,20.64-7.18,4.04-16.94,5.83-26.58,5.83v-.11Z"/><path class="cls-3" d="M427.02,228.09c-60.12-34.66-119.8-69.32-179.92-103.98-1.91-1.01-2.8-2.8-2.8-4.71v22.55s171.73,99.27,171.73,99.27c5.27,3.14,12.56,4.82,18.51,1.46,2.8-1.68,3.14-4.26,2.47-6.39-.9-3.93-6.28-5.94-9.98-8.08h0v-.11Z"/><path class="cls-3" d="M426.68,228.09h.34-.34ZM247.66,128.94v10.99s170.05,98.04,170.05,98.04c2.24,1.23,9.09,4.82,15.03,1.46.56-.45,1.23-.79.9-2.24-.67-1.57-3.81-3.25-6.28-4.6-.67-.45-1.57-.79-2.24-1.23h0l-177.45-102.41h0ZM426.9,248.17h0c-4.04,0-8.75-1.23-12.79-3.7l-171.73-99.16c-1.23-.67-1.91-1.91-1.91-3.25v-22.55c0-2.13,1.68-3.81,3.81-3.81h0c1.91,0,3.48,1.57,3.48,3.59,0,.79.22,1.23.9,1.68l180.14,104.09,1.91,1.12c3.81,2.02,8.52,4.37,9.76,9.2,1.23,4.15-.22,8.3-4.04,10.43-2.8,1.57-5.94,2.36-9.42,2.36h-.11Z"/><path class="cls-4" d="M354.11,248.17l32.53,22.1c9.98,6.84,15.7,11.78,27.26,14.36,13.12,2.92,28.15.9,39.15-6.51,10.99-7.52,14.36-19.52,8.75-29.28-.67-.9-1.23-1.68-1.91-2.69-3.14-4.15-7.52-6.62-11.89-9.53l-2.8-1.79-23.44-15.93h0l-157.49-106.67c-4.04-2.8-8.75-2.8-13.12,0l-4.04,2.92c-3.81,2.58-3.81,8.86,0,11.44,60.68,41.17,121.37,82.33,182.16,123.61,3.48,2.36,7.52,4.15,8.08,9.2,0,2.24-.67,4.6-2.8,6.17-5.94,3.93-13.12,2.02-18.51-1.68l-189.57-128.32c-4.37-2.92-8.75-2.92-13.12-.11l-4.37,2.92c-1.57,1.23-2.8,3.25-2.8,5.72,0,2.47,1.23,4.49,2.8,5.72l145.15,98.37Z"/><path class="cls-3" d="M257.75,113.79h0c-1.57,0-3.14.45-4.71,1.35l-4.37,2.47c-.56.56-.9,1.35-.9,1.68s.22,1.23.9,1.68l182.39,105.33,1.57.79c3.03,1.79,7.4,4.26,8.08,9.87.34,3.7-1.23,6.95-4.37,8.86-6.28,3.59-14.69,3.14-22.21-1.35l-189.57-109.59c-3.14-1.79-6.28-1.79-9.42,0l-4.37,2.47c-.56.45-.9.9-.9,1.68,0,.79.22,1.35.9,1.68l145.15,84.01h0l37.24,21.54c7.52,4.49,12.23,7.4,21.31,9.09,12.79,2.47,26.92.45,36.57-5.16,5.38-2.92,8.52-6.84,9.42-10.99.56-2.92,0-5.94-1.57-8.64-.67-.67-.9-1.35-1.57-1.79-2.47-2.58-5.61-4.26-8.75-6.17l-186.2-107.46c-1.23-.9-3.14-1.35-4.71-1.35h.11ZM425.67,263.65h0c-4.15,0-8.52-.45-12.56-1.12-10.32-2.02-16.26-5.5-23.78-9.98l-182.39-105.44c-2.8-1.68-4.37-4.82-4.37-8.08,0-3.25,1.57-6.28,4.37-7.96l4.37-2.47c5.38-3.14,11.67-3.14,16.94,0l189.34,109.36c2.24,1.23,9.09,4.82,15.03,1.46.56-.45.9-.9.9-1.79-.34-1.57-1.57-2.36-4.37-4.04l-183.96-106.34c-3.14-1.68-4.71-4.6-4.71-7.96,0-3.37,1.57-6.39,4.71-8.08l4.04-2.47c5.72-3.03,11.67-3.03,16.94,0l157.26,91.08,28.49,16.38c3.81,2.13,7.52,4.15,10.66,7.52,1.01.9,1.57,1.79,2.24,2.69,2.8,4.49,4.04,9.42,2.8,14.47-1.57,6.06-5.94,11.67-12.79,15.59-8.08,4.71-18.4,7.18-29.05,7.18h-.11Z"/><path class="cls-2" d="M235.77,137.24l8.41-4.94,190.58,110.04-.34.34c-5.94,3.48-13.12,1.68-18.51-1.46l-180.14-103.98Z"/><path class="cls-3" d="M244.18,136.56h0l-1.23.67,174.65,100.73c1.35.67,3.81,2.02,6.62,2.47l-179.92-103.87h-.11ZM426.9,248.17h0c-4.04,0-8.75-1.23-12.79-3.7l-180.26-104.09c-1.23-.67-1.91-1.79-1.91-3.14,0-1.35.67-2.58,1.91-3.25l8.41-4.94c1.01-.67,2.58-.67,3.48,0l191.02,110.15c1.23.67,1.57,1.91,1.57,3.25,0,1.35-1.01,2.69-1.91,3.37-2.8,1.68-5.94,2.36-9.42,2.36h-.11Z"/><path class="cls-2" d="M188.88,151.37v12.9s-8.41,4.82-8.41,4.82l-9.42-5.5c-4.04-2.47-8.75-2.47-13.12,0l-4.04,2.47c-1.91,1.12-2.8,2.8-2.8,4.82v305.1c0,2.24.9,3.48,2.8,4.82l186.54,107.91c19.41,11.44,67.86,12.34,68.87-15.37v-306.22c-.34-2.47-1.23-4.94-3.14-7.29-3.48-4.94-9.09-7.4-14.02-10.43-61.02-35.22-122.04-70.33-183.06-105.55-4.04-2.36-8.75-2.36-12.79,0l-4.37,2.47c-1.91,1.01-2.8,2.8-2.8,4.82h0l-.22.22Z"/><path class="cls-3" d="M202.45,145.76h0c-1.57,0-3.14.45-4.71,1.35l-4.04,2.47c-.56.34-.9,1.01-.9,1.68v13.01c0,1.23-1.01,2.47-1.91,3.14l-8.41,4.82c-1.35.67-2.58.67-3.81,0l-9.42-5.38c-2.8-1.79-6.28-1.79-9.42,0l-4.37,2.47c-.56.45-.9,1.01-.9,1.68v304.76c0,1.23.22,1.35.9,1.91l186.76,107.91c12.56,7.4,39.48,9.98,53.84,2.13,6.28-3.37,9.42-8.19,9.76-14.36v-304.43s-.34-1.46-.34-1.46c-.34-1.91-1.01-3.7-2.24-5.5-2.47-3.37-6.62-5.5-10.32-7.74l-185.86-107.12c-1.23-.9-3.14-1.35-4.71-1.35h.11ZM372.73,599.82h0c-12.9,0-26.02-3.03-34.44-7.96l-186.76-107.91c-2.8-1.91-4.04-4.37-4.37-7.96V170.89c0-3.25,1.91-6.28,4.71-7.96l4.04-2.47c5.38-3.14,11.67-3.14,16.94,0l7.52,4.37,4.71-2.8v-10.77c0-3.37,1.91-6.39,4.71-8.08l4.37-2.47c5.38-3.03,11.33-3.03,16.6,0l182.72,105.55,2.8,1.46c4.71,2.58,9.31,5.27,12.79,9.87,1.91,2.8,3.14,5.83,3.48,8.75l.34,307.12c-.34,8.86-5.05,16.04-13.46,20.64-7.18,4.04-16.83,5.83-26.58,5.83l-.11-.11Z"/><path class="cls-1" d="M374.41,261.63c-61.02-35.11-122.04-70.33-182.72-105.55-1.91-.9-2.8-2.69-2.8-4.71v22.55s171.73,99.27,171.73,99.27c5.27,3.14,12.56,4.71,18.51,1.46,2.8-1.68,3.14-4.26,2.47-6.39-.9-3.48-4.37-4.71-7.18-6.51h0v-.11Z"/><path class="cls-3" d="M372.5,264.88l-179.92-103.98v10.99s169.94,98.04,169.94,98.04c1.91,1.23,9.09,4.82,14.69,1.46.56-.34,1.23-.79.9-2.24-.34-1.23-1.57-2.02-4.04-3.37l-1.57-.9h0ZM371.49,280.14h0c-4.04,0-8.41-1.23-12.79-3.7l-171.73-99.27c-1.23-.67-1.91-1.91-1.91-3.25v-22.55c0-2.02,1.68-3.7,3.81-3.7h0c1.91,0,3.81,1.57,3.81,3.59,0,.79.22,1.23.9,1.68l182.39,105.66h0l1.57.67c2.8,1.46,6.62,3.48,7.85,7.96.9,4.26-.67,8.41-4.37,10.54-2.8,1.57-5.94,2.36-9.42,2.36h-.11Z"/><path class="cls-2" d="M298.69,259.72l34.1,19.85c8.08,4.49,14.13,8.64,23.11,10.77,14.13,3.25,30.06,1.68,41.61-4.94,10.32-5.94,14.13-15.14,9.98-23.11-3.14-6.28-9.09-8.86-14.69-12l-15.59-9.2c-55.97-32.3-112.28-64.83-168.37-97.14-4.04-2.36-8.75-2.36-12.79,0l-4.37,2.47c-1.91,1.01-2.8,2.8-2.8,4.82,0,2.02.9,3.81,2.8,4.82,60.12,34.77,119.8,69.43,179.92,104.09,4.04,2.24,9.98,4.49,10.32,9.09,0,2.02-.67,3.93-2.8,5.27-5.94,3.37-13.12,1.68-18.51-1.46l-189.68-109.48c-4.04-2.47-8.75-2.47-13.12,0l-4.04,2.47c-1.91,1.12-2.8,2.8-2.8,4.82,0,2.02.9,3.81,2.8,4.82l144.92,83.79h0v.22Z"/><path class="cls-3" d="M202.34,145.76h0c-1.57,0-3.14.45-4.71,1.35l-4.04,2.47c-.56.34-.9.9-.9,1.68,0,.79.22,1.23.9,1.68l180.26,103.87,2.13,1.12c3.7,2.02,9.31,4.94,9.98,10.88.34,3.59-1.57,6.84-4.71,8.75-6.28,3.59-14.36,3.14-22.21-1.35l-189.68-109.48c-2.8-1.79-6.28-1.79-9.42,0l-4.37,2.47c-.56.45-.9.9-.9,1.68,0,.79.22,1.35.9,1.68l145.15,83.79h0l37.58,21.76c6.17,3.59,11.55,6.84,18.73,8.52,13.8,3.14,28.49,1.46,38.81-4.6,8.41-4.82,11.89-11.89,8.41-18.17-2.24-4.37-6.28-6.62-10.66-9.2l-186.54-107.57c-1.23-.9-2.8-1.35-4.71-1.35h0ZM370.26,295.28h0c-5.05,0-10.32-.67-15.37-1.79-8.08-1.91-14.36-5.5-20.64-9.31l-182.39-105.33c-2.8-1.68-4.71-4.82-4.71-8.08,0-3.25,1.91-6.28,4.71-7.96l4.04-2.47c5.38-3.14,11.67-3.14,16.94,0l189.68,109.48c1.91,1.23,9.09,4.82,14.69,1.46.56-.56.9,0,.9-1.79,0-1.79-3.14-3.48-5.94-4.94-.9-.45-1.46-.79-2.13-1.23l-180.26-104.09c-2.8-1.68-4.71-4.6-4.71-7.96,0-3.37,1.91-6.39,4.71-8.08l4.37-2.47c5.38-3.03,11.33-3.03,16.6,0l168.25,97.25,17.83,10.32c5.38,2.92,10.66,5.94,13.8,12.34,5.05,9.87.67,21.09-11.22,27.82-8.08,4.71-18.4,7.18-29.05,7.18l-.11-.34Z"/><path class="cls-2" d="M180.47,169.2l8.41-4.82,190.58,110.04-.34.34c-5.94,3.48-13.12,1.68-18.51-1.46l-180.26-103.98h0l.11-.11Z"/><path class="cls-3" d="M188.77,168.53h0l-.9.67,174.65,100.73c1.01.67,3.48,2.02,6.28,2.47l-179.92-103.87h-.11ZM371.6,280.14c-4.04,0-8.41-1.23-12.79-3.7l-180.26-104.09c-1.23-.67-1.91-1.79-1.91-3.14,0-1.35.67-2.58,1.91-3.25l8.41-4.82c1.35-.67,2.58-.67,3.81,0l190.58,109.93c1.23.79,1.57,2.13,1.57,3.37,0,1.23-1.01,2.58-1.91,3.37-2.8,1.68-5.94,2.36-9.42,2.36h0Z"/><path class="cls-3" d="M385.62,421.25c1.91,0,3.7-1.68,3.7-3.7v-95.68c0-2.02-1.91-3.7-3.7-3.7s-3.7,1.68-3.7,3.7v95.68c0,2.13,1.57,3.7,3.7,3.7Z"/><path class="cls-3" d="M397.63,445.81c2.24,0,3.7-1.68,3.7-3.59v-127.42c0-2.13-1.57-3.59-3.7-3.59-2.13,0-3.48,1.57-3.48,3.59v127.42c0,1.91,1.57,3.59,3.48,3.59Z"/><path class="cls-3" d="M450.46,477.22c1.91,0,3.81-1.68,3.81-3.81v-189.34c0-2.02-1.91-3.59-3.81-3.59s-3.81,1.57-3.81,3.59v189.34c0,2.02,1.57,3.81,3.81,3.81Z"/></g><line class="cls-5" x1="358.82" y1="290.35" x2="358.82" y2="599.82"/></svg>