<?xml version="1.0" encoding="UTF-8"?><svg id="Layer_1" xmlns="http://www.w3.org/2000/svg" viewBox="0 0 720 720"><defs><style>.cls-1{fill:#00af81;}.cls-1,.cls-2,.cls-3,.cls-4{fill-rule:evenodd;}.cls-2{fill:#f4d9dc;}.cls-4{fill:#3d68ec;}</style></defs><g id="Layer_1-2"><path class="cls-4" d="M383.93,157.98v11.13l7.26,4.26,8.13-4.65c3.77-2.13,7.55-2.13,11.32,0l3.77,2.13c1.35.87,2.42,2.42,2.42,4.16v263.25c-.29,2.03-.77,3-2.42,4.26l-161.14,93.01c-16.45,9.78-58.55,10.74-59.42-13.26v-263.54l.29-.97c1.06-8.9,11.32-13.16,18.39-17.13,51.3-29.71,102.59-59.42,154.18-89.14,3.48-2.03,7.55-2.03,11.32,0l3.48,2.13c1.65.87,2.42,2.42,2.42,4.16h0c0,.06,0,.1,0,.1v.1Z"/><path class="cls-3" d="M372.41,153.04c-1.35,0-3,.39-4.06,1.16l-154.18,89.14c-1.06.58-2.13,1.16-3.48,1.84-5.9,3.19-12.68,6.97-13.45,12.97v263.83c0,5.32,2.71,9.48,8.13,12.39,12.39,6.77,35.62,4.55,46.46-1.84l161.14-93.01c.58-.48.77-.58.77-1.65V174.82c0-.58-.29-1.06-.77-1.45l-3.77-2.13c-2.71-1.55-5.42-1.55-8.13,0l-8.13,4.65c-1.06.58-2.13.58-3.29,0l-6.97-4.06c-1.06-.58-1.65-1.65-1.65-2.81v-11.23c0-.58-.29-1.16-.77-1.45l-3.77-2.13c-1.35-.77-2.71-1.16-4.06-1.16h0ZM225.2,544.92c-8.32,0-16.74-1.55-22.94-5.03-7.26-3.97-11.32-10.16-11.61-17.81l.29-264.9c1.06-9,9.68-13.74,16.74-17.52,1.06-.58,2.13-1.16,3.29-1.74l154.08-89.23c4.55-2.61,9.68-2.61,14.61,0l3.48,2.13c2.71,1.45,4.06,4.06,4.06,6.97v9.29l4.06,2.42,6.48-3.77c4.55-2.71,9.97-2.71,14.61,0l3.77,2.13c2.42,1.45,3.77,4.06,3.77,6.87v263.25c0,3.19-1.35,5.23-3.77,6.87l-161.24,93.11c-7.26,4.26-18.58,6.87-29.71,6.87h0v.1Z"/><path class="cls-3" d="M226.27,251.66c51.88-29.91,103.36-59.81,155.24-89.72,1.65-.87,2.42-2.42,2.42-4.06v19.45l-148.18,85.65c-4.55,2.71-10.84,4.16-15.97,1.26-2.42-1.45-2.71-3.68-2.13-5.52.77-3.39,5.42-5.13,8.61-6.97h0v-.1Z"/><path class="cls-3" d="M226.27,251.66h.29-.29ZM381.03,166.11l-153.11,88.36h0c-.58.39-1.35.68-1.94,1.06-2.13,1.16-4.84,2.61-5.42,3.97-.29,1.26.29,1.55.77,1.94,5.13,2.9,11.03-.19,12.97-1.26l146.72-84.59v-9.48h0ZM226.27,268.99c-3,0-5.71-.68-8.13-2.03-3.29-1.84-4.55-5.42-3.48-9,1.06-4.16,5.13-6.19,8.42-7.94l1.65-.97,155.43-89.81c.58-.39.77-.77.77-1.45,0-1.74,1.35-3.1,3-3.1h0c1.84,0,3.29,1.45,3.29,3.29v19.45c0,1.16-.58,2.23-1.65,2.81l-148.18,85.56c-3.48,2.13-7.55,3.19-11.03,3.19h-.1Z"/><path class="cls-4" d="M289.18,268.99l-28.07,19.07c-8.61,5.9-13.55,10.16-23.52,12.39-11.32,2.52-24.29.77-33.78-5.61-9.48-6.48-12.39-16.84-7.55-25.26.58-.77,1.06-1.45,1.65-2.32,2.71-3.58,6.48-5.71,10.26-8.23l2.42-1.55,20.23-13.74h0l135.88-92.04c3.48-2.42,7.55-2.42,11.32,0l3.48,2.52c3.29,2.23,3.29,7.65,0,9.87-52.36,35.52-104.72,71.04-157.18,106.66-3,2.03-6.48,3.58-6.97,7.94,0,1.94.58,3.97,2.42,5.32,5.13,3.39,11.32,1.74,15.97-1.45l163.56-110.72c3.77-2.52,7.55-2.52,11.32-.1l3.77,2.52c1.35,1.06,2.42,2.81,2.42,4.94s-1.06,3.87-2.42,4.94l-125.24,84.88Z"/><path class="cls-3" d="M372.41,153.04c-1.35,0-3,.39-4.06,1.16l-160.66,92.72c-2.71,1.65-5.42,3.1-7.55,5.32-.58.39-.77.97-1.35,1.55-1.35,2.32-1.84,4.94-1.35,7.45.77,3.58,3.48,6.97,8.13,9.48,8.32,4.84,20.52,6.58,31.55,4.45,7.84-1.45,11.9-3.97,18.39-7.84l32.13-18.58h0l125.24-72.49c.58-.29.77-.77.77-1.45s-.29-1.06-.77-1.45l-3.77-2.13c-2.71-1.55-5.42-1.55-8.13,0l-163.56,94.56c-6.48,3.87-13.74,4.26-19.16,1.16-2.71-1.65-4.06-4.45-3.77-7.65.58-4.84,4.36-6.97,6.97-8.52l1.35-.68,157.37-90.88c.58-.39.77-1.16.77-1.45s-.29-.97-.77-1.45l-3.77-2.13c-1.35-.77-2.71-1.16-4.06-1.16h.1ZM227.33,282.34c-9.19,0-18.1-2.13-25.07-6.19-5.9-3.39-9.68-8.23-11.03-13.45-1.06-4.36,0-8.61,2.42-12.49.58-.77,1.06-1.55,1.94-2.32,2.71-2.9,5.9-4.65,9.19-6.48l24.58-14.13,135.69-78.59c4.55-2.61,9.68-2.61,14.61,0l3.48,2.13c2.71,1.45,4.06,4.06,4.06,6.97s-1.35,5.42-4.06,6.87l-158.72,91.75c-2.42,1.45-3.48,2.13-3.77,3.48,0,.77.29,1.16.77,1.55,5.13,2.9,11.03-.19,12.97-1.26l163.37-94.36c4.55-2.71,9.97-2.71,14.61,0l3.77,2.13c2.42,1.45,3.77,4.06,3.77,6.87s-1.35,5.52-3.77,6.97l-157.37,90.98c-6.48,3.87-11.61,6.87-20.52,8.61-3.48.58-7.26.97-10.84.97h-.1Z"/><path class="cls-2" d="M391.29,173.27l-7.26-4.26-164.43,94.94.29.29c5.13,3,11.32,1.45,15.97-1.26l155.43-89.72Z"/><path class="cls-3" d="M383.93,172.69l-155.24,89.62c2.42-.39,4.55-1.55,5.71-2.13l150.69-86.91-1.06-.58h-.1ZM226.27,268.99c-3,0-5.71-.58-8.13-2.03-.77-.58-1.65-1.74-1.65-2.9s.29-2.23,1.35-2.81l164.82-95.04c.77-.58,2.13-.58,3,0l7.26,4.26c1.06.58,1.65,1.65,1.65,2.81s-.58,2.13-1.65,2.71l-155.53,89.81c-3.48,2.13-7.55,3.19-11.03,3.19h-.1Z"/><path class="cls-2" d="M431.74,185.46v11.13l7.26,4.16,8.13-4.74c3.48-2.13,7.55-2.13,11.32,0l3.48,2.13c1.65.97,2.42,2.42,2.42,4.16v263.25c0,1.94-.77,3-2.42,4.16l-160.95,93.11c-16.74,9.87-58.55,10.65-59.42-13.26v-264.22c.29-2.13,1.06-4.26,2.71-6.29,3-4.26,7.84-6.39,12.1-9,52.65-30.39,105.3-60.68,157.95-91.07,3.48-2.03,7.55-2.03,11.03,0l3.77,2.13c1.65.87,2.42,2.42,2.42,4.16h0l.19.19Z"/><path class="cls-3" d="M420.13,180.62c-1.35,0-3,.39-4.06,1.16l-160.37,92.43c-3.19,1.94-6.77,3.77-8.9,6.68-1.06,1.55-1.65,3.1-1.94,4.74l-.29,1.26v262.67c.29,5.32,3,9.48,8.42,12.39,12.39,6.77,35.62,4.55,46.46-1.84l161.14-93.11c.58-.48.77-.58.77-1.65V202.4c0-.58-.29-1.06-.77-1.45l-3.77-2.13c-2.71-1.55-5.71-1.55-8.13,0l-8.13,4.65c-1.06.58-2.13.58-3.29,0l-7.26-4.16c-.77-.58-1.65-1.65-1.65-2.71v-11.23c0-.58-.29-1.16-.77-1.45l-3.48-2.13c-1.35-.77-2.71-1.16-4.06-1.16h.1ZM273.02,572.5c-8.42,0-16.74-1.55-22.94-5.03-7.26-3.97-11.32-10.16-11.61-17.81l.29-264.99c.29-2.52,1.35-5.13,3-7.55,3-3.97,6.97-6.29,11.03-8.52l2.42-1.26,157.66-91.07c4.55-2.61,9.68-2.61,14.32,0l3.77,2.13c2.42,1.45,4.06,4.06,4.06,6.97v9.29l4.06,2.42,6.48-3.77c4.55-2.71,9.97-2.71,14.61,0l3.48,2.13c2.42,1.45,4.06,4.06,4.06,6.87v263.25c-.29,3.1-1.35,5.23-3.77,6.87l-161.14,93.11c-7.26,4.26-18.58,6.87-29.71,6.87h0l-.1.1Z"/><path class="cls-1" d="M271.66,280.6c52.65-30.29,105.3-60.68,157.66-91.07,1.65-.77,2.42-2.32,2.42-4.06v19.45l-148.18,85.65c-4.55,2.71-10.84,4.06-15.97,1.26-2.42-1.45-2.71-3.68-2.13-5.52.77-3,3.77-4.06,6.19-5.61h0v-.1Z"/><path class="cls-3" d="M273.31,283.41l-1.35.77c-2.13,1.16-3.19,1.84-3.48,2.9-.29,1.26.29,1.65.77,1.94,4.84,2.9,11.03-.19,12.68-1.26l146.63-84.59v-9.48l-155.24,89.72h0ZM274.08,296.57c-3,0-5.71-.68-8.13-2.03-3.19-1.84-4.55-5.42-3.77-9.1,1.06-3.87,4.36-5.61,6.77-6.87l1.35-.58h0l157.37-91.17c.58-.39.77-.77.77-1.45,0-1.74,1.65-3.1,3.29-3.1h0c1.84,0,3.29,1.45,3.29,3.19v19.45c0,1.16-.58,2.23-1.65,2.81l-148.18,85.65c-3.77,2.13-7.55,3.19-11.03,3.19h-.1Z"/><path class="cls-2" d="M336.99,278.95l-29.42,17.13c-6.97,3.87-12.19,7.45-19.94,9.29-12.19,2.81-25.94,1.45-35.91-4.26-8.9-5.13-12.19-13.07-8.61-19.94,2.71-5.42,7.84-7.65,12.68-10.36l13.45-7.94c48.29-27.87,96.88-55.94,145.27-83.81,3.48-2.03,7.55-2.03,11.03,0l3.77,2.13c1.65.87,2.42,2.42,2.42,4.16s-.77,3.29-2.42,4.16c-51.88,30-103.36,59.91-155.24,89.81-3.48,1.94-8.61,3.87-8.9,7.84,0,1.74.58,3.39,2.42,4.55,5.13,2.9,11.32,1.45,15.97-1.26l163.66-94.46c3.48-2.13,7.55-2.13,11.32,0l3.48,2.13c1.65.97,2.42,2.42,2.42,4.16s-.77,3.29-2.42,4.16l-125.04,72.3h0v.19Z"/><path class="cls-3" d="M420.13,180.62c-1.65,0-3,.39-4.06,1.16l-160.95,92.82c-3.77,2.23-7.26,4.16-9.19,7.94-3,5.42,0,11.52,7.26,15.68,8.9,5.23,21.58,6.68,33.49,3.97,6.19-1.45,10.84-4.26,16.16-7.36l32.42-18.78h0l125.24-72.3c.58-.29.77-.77.77-1.45s-.29-1.06-.77-1.45l-3.77-2.13c-2.71-1.55-5.71-1.55-8.13,0l-163.66,94.46c-6.77,3.87-13.74,4.26-19.16,1.16-2.71-1.65-4.36-4.45-4.06-7.55.58-5.13,5.42-7.65,8.61-9.39l1.84-.97,155.53-89.62c.58-.39.77-.77.77-1.45s-.29-1.16-.77-1.45l-3.48-2.13c-1.35-.77-2.71-1.16-4.06-1.16h0ZM275.15,309.93c-9.19,0-18.1-2.13-25.07-6.19-10.26-5.81-14.03-15.49-9.68-24,2.71-5.52,7.26-8.13,11.9-10.65l15.39-8.9,145.17-83.91c4.55-2.61,9.68-2.61,14.32,0l3.77,2.13c2.42,1.45,4.06,4.06,4.06,6.97s-1.65,5.42-4.06,6.87l-155.53,89.81c-.58.39-1.06.68-1.84,1.06-2.42,1.26-5.13,2.71-5.13,4.26s.29,1.06.77,1.55c4.84,2.9,11.03-.19,12.68-1.26l163.66-94.46c4.55-2.71,9.97-2.71,14.61,0l3.48,2.13c2.42,1.45,4.06,4.06,4.06,6.87s-1.65,5.52-4.06,6.97l-157.37,90.88c-5.42,3.29-10.84,6.39-17.81,8.03-4.36.97-8.9,1.55-13.26,1.55h0l-.1.29Z"/><path class="cls-2" d="M439,200.85l-7.26-4.16-164.43,94.94.29.29c5.13,3,11.32,1.45,15.97-1.26l155.53-89.72h0l-.1-.1Z"/><path class="cls-3" d="M431.74,200.27l-155.24,89.62c2.42-.39,4.55-1.55,5.42-2.13l150.69-86.91-.77-.58h-.1ZM274.08,296.57c-3,0-5.71-.58-8.13-2.03-.77-.68-1.65-1.84-1.65-2.9s.29-2.23,1.35-2.9l164.43-94.85c1.06-.58,2.13-.58,3.29,0l7.26,4.16c1.06.58,1.65,1.65,1.65,2.81s-.58,2.13-1.65,2.71l-155.53,89.81c-3.77,2.13-7.55,3.19-11.03,3.19h0Z"/><path class="cls-1" d="M479.26,213.63v11.13l7.26,4.16,8.13-4.65c3.48-2.03,7.55-2.03,11.32,0l3.48,2.13c1.65.87,2.42,2.42,2.42,4.16v263.15c0,2.03-.58,3.1-2.42,4.26l-160.95,93.11c-16.74,9.78-58.55,10.55-59.42-13.36v-264.22c.58-2.9,1.84-5.71,4.36-8.23,3.19-3,7.55-5.13,11.32-7.36,52.36-30.2,104.72-60.49,157.18-90.69,3.48-2.13,7.55-2.13,11.03,0l3.77,2.13c1.65.87,2.42,2.42,2.42,4.16h0l.1.1Z"/><path class="cls-3" d="M467.36,208.88c-1.35,0-2.71.39-4.06,1.06l-159.6,92.14c-2.71,1.55-5.9,3.29-8.13,5.42-1.84,1.94-3,4.06-3.19,6.39l-.29,1.26.29,262.67c0,5.23,2.71,9.48,8.13,12.39,12.19,6.77,35.33,4.55,46.46-1.84l161.14-93.11c.58-.48.58-.58.77-1.55V230.66c0-.68-.29-1.16-.77-1.45l-3.77-2.13c-2.71-1.55-5.42-1.55-8.13,0l-8.13,4.65c-1.06.58-2.13.58-3.29,0l-7.26-4.16c-.77-.58-1.65-1.65-1.65-2.71v-11.23c0-.68-.29-1.06-.77-1.45l-3.48-2.13c-1.35-.77-2.71-1.06-4.36-1.06h0l.1-.1ZM320.54,600.66c-8.42,0-16.74-1.55-23.23-4.94-7.07-4.06-11.03-10.26-11.32-17.9l.29-264.9c.29-3.48,2.13-6.97,5.13-9.97,2.71-2.81,6.19-4.55,9.48-6.48l2.42-1.35,157.18-90.69c4.55-2.71,9.68-2.71,14.32,0l3.77,2.13c2.42,1.45,4.06,4.06,4.06,6.87v9.39l4.06,2.32,6.48-3.77c4.55-2.71,9.68-2.61,14.61,0l3.48,2.13c2.71,1.35,4.06,4.06,4.06,6.97v263.15c0,3.29-1.35,5.23-3.77,6.87l-161.14,93.01c-7.26,4.26-18.58,6.87-29.71,6.87h0l-.19.29Z"/><path class="cls-1" d="M319.18,308.38l76.94-44.52h0l81.01-46.75c1.65-.77,2.42-2.32,2.42-4.06v19.55l-148.18,85.65c-4.55,2.71-10.84,4.16-15.97,1.16-2.42-1.35-3-3.58-2.13-5.61.77-3,3.48-3.97,5.9-5.42h0Z"/><path class="cls-3" d="M319.18,308.38h.29-.29ZM476.26,221.27l-155.53,89.81h0l-1.35.77c-2.13,1.16-3,1.74-3.29,2.81-.58,1.26.29,1.74.77,1.94,4.84,2.9,11.03-.29,12.68-1.26l146.63-84.69v-9.48h0l.1.1ZM321.6,324.15c-2.71,0-5.42-.77-7.84-2.03-3.19-1.84-4.55-5.42-3.77-9.1,1.35-3.87,4.06-5.42,6.48-6.68l1.06-.58,157.95-91.17c.58-.39.77-.77.77-1.45,0-1.74,1.65-3.1,3.29-3.1h0c1.94,0,3,1.45,3,3.1v19.55c0,1.16-.58,2.23-1.35,2.81l-148.27,85.65c-3.77,2.13-7.55,3.29-11.32,3.29h0v-.29Z"/><path class="cls-1" d="M384.8,306.54l-31.84,18.39c-6.19,3.68-9.68,6.1-17.03,7.84-11.9,3-26.23,1.74-36.49-4.06-9.48-5.42-12.39-13.84-8.13-21,3-5.03,9.19-7.65,14.03-10.55l20.81-12h0l135.79-78.49c3.77-2.03,7.84-2.03,11.32,0l3.77,2.13c1.65.87,2.42,2.42,2.42,4.16s-.77,3.19-2.42,4.06c-51.88,29.91-103.36,59.72-155.24,89.62-3.29,1.94-8.13,3.77-8.9,7.55-.29,1.74.29,3.77,2.42,5.03,5.13,2.9,11.32,1.55,15.97-1.16l163.66-94.46c3.48-2.13,7.55-2.13,11.03,0l3.77,2.13c1.65.87,2.42,2.42,2.42,4.16s-.77,3.29-2.42,4.16l-125.04,72.3h0l.1.19Z"/><path class="cls-3" d="M467.65,208.21c-1.35,0-2.71.39-4.06,1.16l-159.31,91.94c-4.06,2.23-8.13,4.45-10.26,7.94-1.35,2.23-1.65,4.74-1.06,7.16.77,3.48,3.48,6.77,7.84,9.29,9.19,5.23,22.65,6.68,34.26,3.77,5.9-1.45,8.9-3.19,13.74-6l34.26-19.94h0l125.04-72.3c.58-.39.77-.77.77-1.45s-.29-1.06-.77-1.45l-3.77-2.13c-2.42-1.55-5.42-1.55-7.84,0l-163.66,94.46c-6.77,3.77-13.74,4.26-19.16,1.16-3-1.74-4.55-4.94-3.77-8.42.77-4.55,5.13-6.87,8.61-8.61l1.65-1.06,155.24-89.52c.58-.39.77-.77.77-1.45s-.29-1.16-.77-1.45l-3.77-2.23c-1.35-.77-2.71-1.06-4.06-1.06h0l.1.19ZM322.67,337.51c-9.19,0-17.81-2.13-24.87-6.19-5.9-3.29-9.78-7.94-11.03-13.16-1.06-4.26-.58-8.32,1.84-12.1,3-4.94,8.13-7.74,12.68-10.26l23.23-13.45,136.08-78.59c4.36-2.61,9.68-2.61,14.32,0l3.77,2.13c2.42,1.45,3.77,4.06,3.77,6.97s-1.35,5.42-3.77,6.87l-155.24,89.72c-.58.39-1.35.68-1.84,1.06-2.42,1.26-5.13,2.71-5.42,4.26-.29.87,0,1.35.77,1.74,4.84,2.9,11.03-.29,12.68-1.26l163.66-94.46c4.55-2.71,9.68-2.71,14.32,0l3.77,2.13c2.42,1.45,4.06,4.06,4.06,6.87s-1.65,5.52-4.06,6.87l-159.6,92.14c-4.84,3-8.32,5.13-15.1,6.68-4.55,1.16-9.19,1.74-14.03,1.74h0v.29Z"/><path class="cls-2" d="M486.81,228.34l-7.26-4.06-164.43,94.94.29.19c4.84,3,11.32,1.55,15.97-1.16l155.53-89.81h0l-.1-.1Z"/><path class="cls-3" d="M479.55,227.85l-155.24,89.62c2.42-.39,4.55-1.65,5.42-2.13l150.69-87.1-.77-.39h-.1ZM321.6,324.15c-3,0-5.71-.77-7.84-2.03-1.06-.58-1.84-1.74-1.84-2.9s.58-2.23,1.65-2.9l164.43-94.94c1.06-.48,2.13-.48,3.29,0l7.26,4.16c.77.58,1.65,1.65,1.65,2.71s-.77,2.23-1.65,2.81l-155.53,89.81c-3.77,2.13-7.55,3.29-11.32,3.29h-.1Z"/><path class="cls-1" d="M511.97,232.89v260.93c0,2.03-.58,3.1-2.42,4.26l-160.95,93.11v-263.83l163.37-94.46h0Z"/><path class="cls-3" d="M351.89,329.19v256.38l156.3-90.3c.58-.48.58-.58.77-1.55v-255.31l-157.18,90.69h0l.1.1ZM348.6,594.18c-.58,0-1.06,0-1.65-.39-.77-.58-1.65-1.74-1.65-2.81v-263.64c0-1.16.77-2.23,1.65-2.81l163.66-94.36c.77-.68,2.13-.68,3,0,1.06.48,1.65,1.65,1.65,2.71v260.93c0,3.29-1.35,5.23-3.77,6.87l-161.14,93.01c-.58.39-1.06.48-1.65.48h-.1Z"/><path class="cls-3" d="M301.66,549.17c-1.84,0-3.19-1.45-3.19-3.1v-190.76c0-1.74,1.35-3.1,3.19-3.1s3.19,1.45,3.19,3.1v190.76c0,1.74-1.65,3.1-3.19,3.1Z"/><path class="cls-3" d="M261.98,418.32c-1.65,0-3.19-1.45-3.19-3.19v-82.56c0-1.74,1.65-3.19,3.19-3.19s3.19,1.45,3.19,3.19v82.56c0,1.84-1.35,3.19-3.19,3.19Z"/><path class="cls-3" d="M251.63,439.52c-1.94,0-3.19-1.45-3.19-3.1v-109.95c0-1.84,1.35-3.1,3.19-3.1s3,1.35,3,3.1v109.95c0,1.65-1.35,3.1-3,3.1Z"/><path class="cls-3" d="M206.04,466.62c-1.65,0-3.29-1.45-3.29-3.29v-163.37c0-1.74,1.65-3.1,3.29-3.1s3.29,1.35,3.29,3.1v163.37c0,1.74-1.35,3.29-3.29,3.29Z"/></g></svg>