<?xml version="1.0" encoding="UTF-8"?><svg id="Layer_1" xmlns="http://www.w3.org/2000/svg" viewBox="0 0 720 720"><defs><style>.cls-1{fill:#f4d74b;}.cls-1,.cls-2{fill-rule:evenodd;}</style></defs><path class="cls-1" d="M498.47,81.84v16.66l10.86,6.23,12.17-6.95c5.21-3.04,11.3-3.04,16.95,0l5.21,3.19c2.46,1.3,3.62,3.62,3.62,6.23v393.8c0,3.04-.87,4.63-3.62,6.37l-240.86,139.33c-25.06,14.63-87.62,15.79-88.93-19.99V231.3c.87-4.34,2.75-8.55,6.52-12.31,4.78-4.49,11.3-7.68,16.95-11.01,78.35-45.19,156.71-90.52,235.21-135.71,5.21-3.19,11.3-3.19,16.51,0l5.65,3.19c2.46,1.3,3.62,3.62,3.62,6.23h0l.14.14Z"/><path class="cls-2" d="M480.65,74.74c-2.03,0-4.06.58-6.08,1.59l-238.83,137.88c-4.06,2.32-8.83,4.92-12.17,8.11-2.75,2.9-4.49,6.08-4.78,9.56l-.43,1.88.43,393.07c0,7.82,4.06,14.19,12.17,18.54,18.25,10.14,52.86,6.81,69.52-2.75l241.14-139.33c.87-.72.87-.87,1.16-2.32V107.33c0-1.01-.43-1.74-1.16-2.17l-5.65-3.19c-4.06-2.32-8.11-2.32-12.17,0l-12.17,6.95c-1.59.87-3.19.87-4.92,0l-10.86-6.23c-1.16-.87-2.46-2.46-2.46-4.06v-16.8c0-1.01-.43-1.59-1.16-2.17l-5.21-3.19c-2.03-1.16-4.06-1.59-6.52-1.59h0l.14-.14ZM260.94,661.02c-12.6,0-25.06-2.32-34.76-7.39-10.57-6.08-16.51-15.35-16.95-26.79l.43-396.4c.43-5.21,3.19-10.43,7.68-14.92,4.06-4.2,9.27-6.81,14.19-9.7l3.62-2.03,235.21-135.71c6.81-4.06,14.48-4.06,21.44,0l5.65,3.19c3.62,2.17,6.08,6.08,6.08,10.28v14.05l6.08,3.48,9.7-5.65c6.81-4.06,14.48-3.91,21.87,0l5.21,3.19c4.06,2.03,6.08,6.08,6.08,10.43v393.8c0,4.92-2.03,7.82-5.65,10.28l-241.14,139.18c-10.86,6.37-27.81,10.28-44.46,10.28h0l-.29.43Z"/><path class="cls-2" d="M258.91,223.63h.43-.43ZM493.98,93.28l-232.74,134.4h0l-2.03,1.16c-3.19,1.74-4.49,2.61-4.92,4.2-.87,1.88.43,2.61,1.16,2.9,7.24,4.34,16.51-.43,18.97-1.88l219.42-126.73v-14.19h0l.14.14ZM262.54,247.24c-4.06,0-8.11-1.16-11.73-3.04-4.78-2.75-6.81-8.11-5.65-13.61,2.03-5.79,6.08-8.11,9.7-9.99l1.59-.87,236.37-136.43c.87-.58,1.16-1.16,1.16-2.17,0-2.61,2.46-4.63,4.92-4.63h0c2.9,0,4.49,2.17,4.49,4.63v29.26c0,1.74-.87,3.33-2.03,4.2l-221.88,128.18c-5.65,3.19-11.3,4.92-16.95,4.92h0v-.43Z"/><path class="cls-1" d="M357.11,220.88l-47.65,27.52c-9.27,5.5-14.48,9.12-25.49,11.73-17.81,4.49-39.25,2.61-54.6-6.08-14.19-8.11-18.54-20.71-12.17-31.43,4.49-7.53,13.76-11.44,21-15.79l31.14-17.96h0l203.2-117.46c5.65-3.04,11.73-3.04,16.95,0l5.65,3.19c2.46,1.3,3.62,3.62,3.62,6.23s-1.16,4.78-3.62,6.08c-77.63,44.75-154.68,89.36-232.31,134.11-4.92,2.9-12.17,5.65-13.32,11.3-.43,2.61.43,5.65,3.62,7.53,7.68,4.34,16.95,2.32,23.9-1.74l244.91-141.36c5.21-3.19,11.3-3.19,16.51,0l5.65,3.19c2.46,1.3,3.62,3.62,3.62,6.23s-1.16,4.92-3.62,6.23l-187.12,108.19h0l.14.29Z"/><path class="cls-2" d="M481.09,73.73c-2.03,0-4.06.58-6.08,1.74l-238.39,137.59c-6.08,3.33-12.17,6.66-15.35,11.88-2.03,3.33-2.46,7.1-1.59,10.72,1.16,5.21,5.21,10.14,11.73,13.9,13.76,7.82,33.89,9.99,51.27,5.65,8.83-2.17,13.32-4.78,20.57-8.98l51.27-29.84h0l187.12-108.19c.87-.58,1.16-1.16,1.16-2.17s-.43-1.59-1.16-2.17l-5.65-3.19c-3.62-2.32-8.11-2.32-11.73,0l-244.91,141.36c-10.14,5.65-20.57,6.37-28.68,1.74-4.49-2.61-6.81-7.39-5.65-12.6,1.16-6.81,7.68-10.28,12.89-12.89l2.46-1.59,232.31-133.97c.87-.58,1.16-1.16,1.16-2.17s-.43-1.74-1.16-2.17l-5.65-3.33c-2.03-1.16-4.06-1.59-6.08-1.59h0l.14.29ZM264.13,267.22c-13.76,0-26.65-3.19-37.22-9.27-8.83-4.92-14.63-11.88-16.51-19.7-1.59-6.37-.87-12.46,2.75-18.1,4.49-7.39,12.17-11.59,18.97-15.35l34.76-20.13,203.63-117.6c6.52-3.91,14.48-3.91,21.44,0l5.65,3.19c3.62,2.17,5.65,6.08,5.65,10.43s-2.03,8.11-5.65,10.28l-232.31,134.26c-.87.58-2.03,1.01-2.75,1.59-3.62,1.88-7.68,4.06-8.11,6.37-.43,1.3,0,2.03,1.16,2.61,7.24,4.34,16.51-.43,18.97-1.88l244.91-141.36c6.81-4.06,14.48-4.06,21.44,0l5.65,3.19c3.62,2.17,6.08,6.08,6.08,10.28s-2.46,8.26-6.08,10.28l-238.83,137.88c-7.24,4.49-12.46,7.68-22.59,9.99-6.81,1.74-13.76,2.61-21,2.61h0v.43Z"/><path class="cls-2" d="M498.9,103.13l-232.31,134.11c3.62-.58,6.81-2.46,8.11-3.19l225.5-130.35-1.16-.58h-.14ZM262.54,247.24c-4.49,0-8.55-1.16-11.73-3.04-1.59-.87-2.75-2.61-2.75-4.34s.87-3.33,2.46-4.34l246.07-142.08c1.59-.72,3.19-.72,4.92,0l10.86,6.23c1.16.87,2.46,2.46,2.46,4.06s-1.16,3.33-2.46,4.2l-232.74,134.4c-5.65,3.19-11.3,4.92-16.95,4.92h-.14Z"/><path class="cls-1" d="M547.42,110.66v390.47c0,3.04-.87,4.63-3.62,6.37l-240.86,139.33V252.02l244.48-141.36h0Z"/><path class="cls-2" d="M307.87,254.77v383.66l233.9-135.13c.87-.72.87-.87,1.16-2.32V118.91l-235.21,135.71h0l.14.14ZM302.94,651.32c-.87,0-1.59,0-2.46-.58-1.16-.87-2.46-2.61-2.46-4.2V252.02c0-1.74,1.16-3.33,2.46-4.2l244.91-141.21c1.16-1.01,3.19-1.01,4.49,0,1.59.72,2.46,2.46,2.46,4.06v390.47c0,4.92-2.03,7.82-5.65,10.28l-241.14,139.18c-.87.58-1.59.72-2.46.72h-.14Z"/><path class="cls-2" d="M244.84,590.98c-2.75,0-4.78-2.17-4.78-4.63v-285.46c0-2.61,2.03-4.63,4.78-4.63s4.78,2.17,4.78,4.63v285.46c0,2.61-2.46,4.63-4.78,4.63Z"/><path d="M386.68,405.4c.37,17.79-10.72,39.77-24.77,49.11l.93,44.38,35.06-23.29h0c-.37-17.79,10.72-39.77,24.77-49.11,14.05-9.34,25.75-2.48,26.12,15.3h0l35.06-23.29-.93-44.38c14.05-9.34,25.14-31.32,24.77-49.11-.37-17.79-12.07-24.64-26.12-15.3l-.93-44.38-35.06,23.29c-.37-17.79-12.07-24.64-26.12-15.3-14.05,9.34-25.14,31.32-24.77,49.11l-35.06,23.29.93,44.38c14.05-9.34,25.75-2.48,26.12,15.3Z"/></svg>