<?xml version="1.0" encoding="UTF-8"?><svg id="Layer_1" xmlns="http://www.w3.org/2000/svg" viewBox="0 0 720 720"><defs><style>.cls-1{fill:#00af81;}.cls-1,.cls-2,.cls-3,.cls-4{fill-rule:evenodd;}.cls-2{fill:#f4d9dc;}.cls-4{fill:#3d68ec;}</style></defs><g id="Layer_1-2"><path class="cls-4" d="M395.47,96.84v12.79l8.34,4.89,9.34-5.34c4.34-2.45,8.67-2.45,13.01,0l4.34,2.45c1.56,1,2.78,2.78,2.78,4.78v302.41c-.33,2.33-.89,3.45-2.78,4.89l-185.11,106.84c-18.9,11.23-67.26,12.34-68.26-15.23V212.58l.33-1.11c1.22-10.23,13.01-15.12,21.12-19.68,58.93-34.13,117.85-68.26,177.11-102.4,4-2.33,8.67-2.33,13.01,0l4,2.45c1.89,1,2.78,2.78,2.78,4.78h0c0,.07,0,.11,0,.11v.11Z"/><path class="cls-3" d="M382.24,91.17c-1.56,0-3.45.44-4.67,1.33l-177.11,102.4c-1.22.67-2.45,1.33-4,2.11-6.78,3.67-14.56,8-15.45,14.9v303.08c0,6.11,3.11,10.9,9.34,14.23,14.23,7.78,40.91,5.23,53.37-2.11l185.11-106.84c.67-.56.89-.67.89-1.89V116.19c0-.67-.33-1.22-.89-1.67l-4.34-2.45c-3.11-1.78-6.23-1.78-9.34,0l-9.34,5.34c-1.22.67-2.45.67-3.78,0l-8-4.67c-1.22-.67-1.89-1.89-1.89-3.22v-12.9c0-.67-.33-1.33-.89-1.67l-4.34-2.45c-1.56-.89-3.11-1.33-4.67-1.33h0ZM213.13,541.34c-9.56,0-19.23-1.78-26.35-5.78-8.34-4.56-13.01-11.67-13.34-20.46l.33-304.3c1.22-10.34,11.12-15.79,19.23-20.12,1.22-.67,2.45-1.33,3.78-2l177-102.51c5.23-3,11.12-3,16.79,0l4,2.45c3.11,1.67,4.67,4.67,4.67,8v10.67l4.67,2.78,7.45-4.34c5.23-3.11,11.45-3.11,16.79,0l4.34,2.45c2.78,1.67,4.34,4.67,4.34,7.89v302.41c0,3.67-1.56,6-4.34,7.89l-185.23,106.95c-8.34,4.89-21.35,7.89-34.13,7.89h0v.11Z"/><path class="cls-3" d="M214.35,204.47c59.59-34.35,118.74-68.71,178.33-103.06,1.89-1,2.78-2.78,2.78-4.67v22.35l-170.22,98.39c-5.23,3.11-12.45,4.78-18.34,1.45-2.78-1.67-3.11-4.22-2.45-6.34.89-3.89,6.23-5.89,9.89-8h0v-.11Z"/><path class="cls-3" d="M214.35,204.47h.33-.33ZM392.13,106.18l-175.89,101.51h0c-.67.44-1.56.78-2.22,1.22-2.45,1.33-5.56,3-6.23,4.56-.33,1.45.33,1.78.89,2.22,5.89,3.34,12.67-.22,14.9-1.45l168.55-97.17v-10.9h0ZM214.35,224.37c-3.45,0-6.56-.78-9.34-2.33-3.78-2.11-5.23-6.23-4-10.34,1.22-4.78,5.89-7.12,9.67-9.12l1.89-1.11,178.55-103.17c.67-.44.89-.89.89-1.67,0-2,1.56-3.56,3.45-3.56h0c2.11,0,3.78,1.67,3.78,3.78v22.35c0,1.33-.67,2.56-1.89,3.22l-170.22,98.28c-4,2.45-8.67,3.67-12.67,3.67h-.11Z"/><path class="cls-4" d="M286.62,224.37l-32.24,21.9c-9.9,6.78-15.57,11.67-27.02,14.23-13.01,2.89-27.91.89-38.8-6.45-10.9-7.45-14.23-19.35-8.67-29.02.67-.89,1.22-1.67,1.89-2.67,3.11-4.11,7.45-6.56,11.79-9.45l2.78-1.78,23.24-15.79h0l156.1-105.73c4-2.78,8.67-2.78,13.01,0l4,2.89c3.78,2.56,3.78,8.78,0,11.34-60.15,40.8-120.3,81.61-180.56,122.52-3.45,2.33-7.45,4.11-8,9.12,0,2.22.67,4.56,2.78,6.11,5.89,3.89,13.01,2,18.34-1.67l187.89-127.19c4.34-2.89,8.67-2.89,13.01-.11l4.34,2.89c1.56,1.22,2.78,3.22,2.78,5.67s-1.22,4.45-2.78,5.67l-143.87,97.5Z"/><path class="cls-3" d="M382.24,91.17c-1.56,0-3.45.44-4.67,1.33l-184.56,106.51c-3.11,1.89-6.23,3.56-8.67,6.11-.67.44-.89,1.11-1.56,1.78-1.56,2.67-2.11,5.67-1.56,8.56.89,4.11,4,8,9.34,10.9,9.56,5.56,23.57,7.56,36.24,5.11,9.01-1.67,13.68-4.56,21.12-9.01l36.91-21.35h0l143.87-83.27c.67-.33.89-.89.89-1.67s-.33-1.22-.89-1.67l-4.34-2.45c-3.11-1.78-6.23-1.78-9.34,0l-187.89,108.62c-7.45,4.45-15.79,4.89-22.01,1.33-3.11-1.89-4.67-5.11-4.34-8.78.67-5.56,5-8,8-9.78l1.56-.78,180.78-104.4c.67-.44.89-1.33.89-1.67s-.33-1.11-.89-1.67l-4.34-2.45c-1.56-.89-3.11-1.33-4.67-1.33h.11ZM215.58,239.71c-10.56,0-20.79-2.45-28.8-7.12-6.78-3.89-11.12-9.45-12.67-15.45-1.22-5,0-9.9,2.78-14.34.67-.89,1.22-1.78,2.22-2.67,3.11-3.34,6.78-5.34,10.56-7.45l28.24-16.23,155.87-90.28c5.23-3,11.12-3,16.79,0l4,2.45c3.11,1.67,4.67,4.67,4.67,8s-1.56,6.23-4.67,7.89l-182.33,105.4c-2.78,1.67-4,2.45-4.34,4,0,.89.33,1.33.89,1.78,5.89,3.34,12.67-.22,14.9-1.45l187.67-108.4c5.23-3.11,11.45-3.11,16.79,0l4.34,2.45c2.78,1.67,4.34,4.67,4.34,7.89s-1.56,6.34-4.34,8l-180.78,104.51c-7.45,4.45-13.34,7.89-23.57,9.89-4,.67-8.34,1.11-12.45,1.11h-.11Z"/><path class="cls-2" d="M403.92,114.41l-8.34-4.89-188.89,109.07.33.33c5.89,3.45,13.01,1.67,18.34-1.45l178.55-103.06Z"/><path class="cls-3" d="M395.47,113.74l-178.33,102.95c2.78-.44,5.23-1.78,6.56-2.45l173.11-99.84-1.22-.67h-.11ZM214.35,224.37c-3.45,0-6.56-.67-9.34-2.33-.89-.67-1.89-2-1.89-3.34s.33-2.56,1.56-3.22l189.34-109.18c.89-.67,2.45-.67,3.45,0l8.34,4.89c1.22.67,1.89,1.89,1.89,3.22s-.67,2.45-1.89,3.11l-178.67,103.17c-4,2.45-8.67,3.67-12.67,3.67h-.11Z"/><path class="cls-2" d="M450.39,128.42v12.79l8.34,4.78,9.34-5.45c4-2.45,8.67-2.45,13.01,0l4,2.45c1.89,1.11,2.78,2.78,2.78,4.78v302.41c0,2.22-.89,3.45-2.78,4.78l-184.89,106.95c-19.23,11.34-67.26,12.23-68.26-15.23V243.16c.33-2.45,1.22-4.89,3.11-7.23,3.45-4.89,9.01-7.34,13.9-10.34,60.48-34.91,120.96-69.71,181.45-104.62,4-2.33,8.67-2.33,12.67,0l4.34,2.45c1.89,1,2.78,2.78,2.78,4.78h0l.22.22Z"/><path class="cls-3" d="M437.05,122.86c-1.56,0-3.45.44-4.67,1.33l-184.22,106.18c-3.67,2.22-7.78,4.34-10.23,7.67-1.22,1.78-1.89,3.56-2.22,5.45l-.33,1.45v301.74c.33,6.11,3.45,10.9,9.67,14.23,14.23,7.78,40.91,5.23,53.37-2.11l185.11-106.95c.67-.56.89-.67.89-1.89V147.87c0-.67-.33-1.22-.89-1.67l-4.34-2.45c-3.11-1.78-6.56-1.78-9.34,0l-9.34,5.34c-1.22.67-2.45.67-3.78,0l-8.34-4.78c-.89-.67-1.89-1.89-1.89-3.11v-12.9c0-.67-.33-1.33-.89-1.67l-4-2.45c-1.56-.89-3.11-1.33-4.67-1.33h.11ZM268.05,573.03c-9.67,0-19.23-1.78-26.35-5.78-8.34-4.56-13.01-11.67-13.34-20.46l.33-304.41c.33-2.89,1.56-5.89,3.45-8.67,3.45-4.56,8-7.23,12.67-9.78l2.78-1.45,181.11-104.62c5.23-3,11.12-3,16.45,0l4.34,2.45c2.78,1.67,4.67,4.67,4.67,8v10.67l4.67,2.78,7.45-4.34c5.23-3.11,11.45-3.11,16.79,0l4,2.45c2.78,1.67,4.67,4.67,4.67,7.89v302.41c-.33,3.56-1.56,6-4.34,7.89l-185.11,106.95c-8.34,4.89-21.35,7.89-34.13,7.89h0l-.11.11Z"/><path class="cls-1" d="M266.5,237.71c60.48-34.8,120.96-69.71,181.11-104.62,1.89-.89,2.78-2.67,2.78-4.67v22.35l-170.22,98.39c-5.23,3.11-12.45,4.67-18.34,1.45-2.78-1.67-3.11-4.22-2.45-6.34.89-3.45,4.34-4.67,7.12-6.45h0v-.11Z"/><path class="cls-3" d="M268.39,240.93l-1.56.89c-2.45,1.33-3.67,2.11-4,3.34-.33,1.45.33,1.89.89,2.22,5.56,3.34,12.67-.22,14.56-1.45l168.44-97.17v-10.9l-178.33,103.06h0ZM269.28,256.05c-3.45,0-6.56-.78-9.34-2.33-3.67-2.11-5.23-6.23-4.34-10.45,1.22-4.45,5-6.45,7.78-7.89l1.56-.67h0l180.78-104.73c.67-.44.89-.89.89-1.67,0-2,1.89-3.56,3.78-3.56h0c2.11,0,3.78,1.67,3.78,3.67v22.35c0,1.33-.67,2.56-1.89,3.22l-170.22,98.39c-4.34,2.45-8.67,3.67-12.67,3.67h-.11Z"/><path class="cls-2" d="M341.54,235.82l-33.8,19.68c-8,4.45-14.01,8.56-22.9,10.67-14.01,3.22-29.8,1.67-41.25-4.89-10.23-5.89-14.01-15.01-9.9-22.9,3.11-6.23,9.01-8.78,14.56-11.9l15.45-9.12c55.48-32.02,111.29-64.26,166.88-96.28,4-2.33,8.67-2.33,12.67,0l4.34,2.45c1.89,1,2.78,2.78,2.78,4.78s-.89,3.78-2.78,4.78c-59.59,34.47-118.74,68.82-178.33,103.17-4,2.22-9.9,4.45-10.23,9.01,0,2,.67,3.89,2.78,5.23,5.89,3.34,13.01,1.67,18.34-1.45l188.01-108.51c4-2.45,8.67-2.45,13.01,0l4,2.45c1.89,1.11,2.78,2.78,2.78,4.78s-.89,3.78-2.78,4.78l-143.64,83.05h0v.22Z"/><path class="cls-3" d="M437.05,122.86c-1.89,0-3.45.44-4.67,1.33l-184.89,106.62c-4.34,2.56-8.34,4.78-10.56,9.12-3.45,6.23,0,13.23,8.34,18.01,10.23,6,24.79,7.67,38.47,4.56,7.12-1.67,12.45-4.89,18.57-8.45l37.25-21.57h0l143.87-83.05c.67-.33.89-.89.89-1.67s-.33-1.22-.89-1.67l-4.34-2.45c-3.11-1.78-6.56-1.78-9.34,0l-188.01,108.51c-7.78,4.45-15.79,4.89-22.01,1.33-3.11-1.89-5-5.11-4.67-8.67.67-5.89,6.23-8.78,9.9-10.78l2.11-1.11,178.67-102.95c.67-.44.89-.89.89-1.67s-.33-1.33-.89-1.67l-4-2.45c-1.56-.89-3.11-1.33-4.67-1.33h0ZM270.5,271.4c-10.56,0-20.79-2.45-28.8-7.12-11.79-6.67-16.12-17.79-11.12-27.57,3.11-6.34,8.34-9.34,13.68-12.23l17.68-10.23,166.77-96.39c5.23-3,11.12-3,16.45,0l4.34,2.45c2.78,1.67,4.67,4.67,4.67,8s-1.89,6.23-4.67,7.89l-178.67,103.17c-.67.44-1.22.78-2.11,1.22-2.78,1.45-5.89,3.11-5.89,4.89s.33,1.22.89,1.78c5.56,3.34,12.67-.22,14.56-1.45l188.01-108.51c5.23-3.11,11.45-3.11,16.79,0l4,2.45c2.78,1.67,4.67,4.67,4.67,7.89s-1.89,6.34-4.67,8l-180.78,104.4c-6.23,3.78-12.45,7.34-20.46,9.23-5,1.11-10.23,1.78-15.23,1.78h0l-.11.33Z"/><path class="cls-2" d="M458.73,146.1l-8.34-4.78-188.89,109.07.33.33c5.89,3.45,13.01,1.67,18.34-1.45l178.67-103.06h0l-.11-.11Z"/><path class="cls-3" d="M450.39,145.43l-178.33,102.95c2.78-.44,5.23-1.78,6.23-2.45l173.11-99.84-.89-.67h-.11ZM269.28,256.05c-3.45,0-6.56-.67-9.34-2.33-.89-.78-1.89-2.11-1.89-3.34s.33-2.56,1.56-3.34l188.89-108.96c1.22-.67,2.45-.67,3.78,0l8.34,4.78c1.22.67,1.89,1.89,1.89,3.22s-.67,2.45-1.89,3.11l-178.67,103.17c-4.34,2.45-8.67,3.67-12.67,3.67h0Z"/><path class="cls-4" d="M504.98,160.77v12.79l8.34,4.78,9.34-5.34c4-2.33,8.67-2.33,13.01,0l4,2.45c1.89,1,2.78,2.78,2.78,4.78v302.3c0,2.33-.67,3.56-2.78,4.89l-184.89,106.95c-19.23,11.23-67.26,12.12-68.26-15.34v-303.52c.67-3.34,2.11-6.56,5-9.45,3.67-3.45,8.67-5.89,13.01-8.45,60.15-34.69,120.3-69.49,180.56-104.18,4-2.45,8.67-2.45,12.67,0l4.34,2.45c1.89,1,2.78,2.78,2.78,4.78h0l.11.11Z"/><path class="cls-3" d="M491.3,155.32c-1.56,0-3.11.44-4.67,1.22l-183.34,105.84c-3.11,1.78-6.78,3.78-9.34,6.23-2.11,2.22-3.45,4.67-3.67,7.34l-.33,1.45.33,301.74c0,6,3.11,10.9,9.34,14.23,14.01,7.78,40.58,5.23,53.37-2.11l185.11-106.95c.67-.56.67-.67.89-1.78V180.34c0-.78-.33-1.33-.89-1.67l-4.34-2.45c-3.11-1.78-6.23-1.78-9.34,0l-9.34,5.34c-1.22.67-2.45.67-3.78,0l-8.34-4.78c-.89-.67-1.89-1.89-1.89-3.11v-12.9c0-.78-.33-1.22-.89-1.67l-4-2.45c-1.56-.89-3.11-1.22-5-1.22h0l.11-.11ZM322.64,605.38c-9.67,0-19.23-1.78-26.68-5.67-8.12-4.67-12.67-11.79-13.01-20.57l.33-304.3c.33-4,2.45-8,5.89-11.45,3.11-3.22,7.12-5.23,10.9-7.45l2.78-1.56,180.56-104.18c5.23-3.11,11.12-3.11,16.45,0l4.34,2.45c2.78,1.67,4.67,4.67,4.67,7.89v10.78l4.67,2.67,7.45-4.34c5.23-3.11,11.12-3,16.79,0l4,2.45c3.11,1.56,4.67,4.67,4.67,8v302.3c0,3.78-1.56,6-4.34,7.89l-185.11,106.84c-8.34,4.89-21.35,7.89-34.13,7.89h0l-.22.33Z"/><path class="cls-1" d="M321.09,269.62l88.39-51.14h0l93.06-53.7c1.89-.89,2.78-2.67,2.78-4.67v22.46l-170.22,98.39c-5.23,3.11-12.45,4.78-18.34,1.33-2.78-1.56-3.45-4.11-2.45-6.45.89-3.45,4-4.56,6.78-6.23h0Z"/><path class="cls-3" d="M321.09,269.62h.33-.33ZM501.53,169.55l-178.67,103.17h0l-1.56.89c-2.45,1.33-3.45,2-3.78,3.22-.67,1.45.33,2,.89,2.22,5.56,3.34,12.67-.33,14.56-1.45l168.44-97.28v-10.9h0l.11.11ZM323.87,287.74c-3.11,0-6.23-.89-9.01-2.33-3.67-2.11-5.23-6.23-4.34-10.45,1.56-4.45,4.67-6.23,7.45-7.67l1.22-.67,181.45-104.73c.67-.44.89-.89.89-1.67,0-2,1.89-3.56,3.78-3.56h0c2.22,0,3.45,1.67,3.45,3.56v22.46c0,1.33-.67,2.56-1.56,3.22l-170.33,98.39c-4.34,2.45-8.67,3.78-13.01,3.78h0v-.33Z"/><path class="cls-4" d="M396.47,267.5l-36.58,21.12c-7.12,4.22-11.12,7-19.57,9.01-13.68,3.45-30.13,2-41.91-4.67-10.9-6.23-14.23-15.9-9.34-24.13,3.45-5.78,10.56-8.78,16.12-12.12l23.9-13.79h0l155.99-90.17c4.34-2.33,9.01-2.33,13.01,0l4.34,2.45c1.89,1,2.78,2.78,2.78,4.78s-.89,3.67-2.78,4.67c-59.59,34.35-118.74,68.6-178.33,102.95-3.78,2.22-9.34,4.34-10.23,8.67-.33,2,.33,4.34,2.78,5.78,5.89,3.34,13.01,1.78,18.34-1.33l188.01-108.51c4-2.45,8.67-2.45,12.67,0l4.34,2.45c1.89,1,2.78,2.78,2.78,4.78s-.89,3.78-2.78,4.78l-143.64,83.05h0l.11.22Z"/><path class="cls-3" d="M491.64,154.55c-1.56,0-3.11.44-4.67,1.33l-183,105.62c-4.67,2.56-9.34,5.11-11.79,9.12-1.56,2.56-1.89,5.45-1.22,8.23.89,4,4,7.78,9.01,10.67,10.56,6,26.02,7.67,39.36,4.34,6.78-1.67,10.23-3.67,15.79-6.89l39.36-22.9h0l143.64-83.05c.67-.44.89-.89.89-1.67s-.33-1.22-.89-1.67l-4.34-2.45c-2.78-1.78-6.23-1.78-9.01,0l-188.01,108.51c-7.78,4.34-15.79,4.89-22.01,1.33-3.45-2-5.23-5.67-4.34-9.67.89-5.23,5.89-7.89,9.9-9.89l1.89-1.22,178.33-102.84c.67-.44.89-.89.89-1.67s-.33-1.33-.89-1.67l-4.34-2.56c-1.56-.89-3.11-1.22-4.67-1.22h0l.11.22ZM325.09,303.08c-10.56,0-20.46-2.45-28.57-7.12-6.78-3.78-11.23-9.12-12.67-15.12-1.22-4.89-.67-9.56,2.11-13.9,3.45-5.67,9.34-8.89,14.56-11.79l26.68-15.45,156.32-90.28c5-3,11.12-3,16.45,0l4.34,2.45c2.78,1.67,4.34,4.67,4.34,8s-1.56,6.23-4.34,7.89l-178.33,103.06c-.67.44-1.56.78-2.11,1.22-2.78,1.45-5.89,3.11-6.23,4.89-.33,1,0,1.56.89,2,5.56,3.34,12.67-.33,14.56-1.45l188.01-108.51c5.23-3.11,11.12-3.11,16.45,0l4.34,2.45c2.78,1.67,4.67,4.67,4.67,7.89s-1.89,6.34-4.67,7.89l-183.34,105.84c-5.56,3.45-9.56,5.89-17.34,7.67-5.23,1.33-10.56,2-16.12,2h0v.33Z"/><path class="cls-2" d="M513.65,177.67l-8.34-4.67-188.89,109.07.33.22c5.56,3.45,13.01,1.78,18.34-1.33l178.67-103.17h0l-.11-.11Z"/><path class="cls-3" d="M505.31,177.12l-178.33,102.95c2.78-.44,5.23-1.89,6.23-2.45l173.11-100.06-.89-.44h-.11ZM323.87,287.74c-3.45,0-6.56-.89-9.01-2.33-1.22-.67-2.11-2-2.11-3.34s.67-2.56,1.89-3.34l188.89-109.07c1.22-.56,2.45-.56,3.78,0l8.34,4.78c.89.67,1.89,1.89,1.89,3.11s-.89,2.56-1.89,3.22l-178.67,103.17c-4.34,2.45-8.67,3.78-13.01,3.78h-.11Z"/><path class="cls-4" d="M542.56,182.9v299.74c0,2.33-.67,3.56-2.78,4.89l-184.89,106.95v-303.08l187.67-108.51h0Z"/><path class="cls-3" d="M358.67,293.52v294.52l179.56-103.73c.67-.56.67-.67.89-1.78V189.23l-180.56,104.18h0l.11.11ZM354.89,597.93c-.67,0-1.22,0-1.89-.44-.89-.67-1.89-2-1.89-3.22v-302.85c0-1.33.89-2.56,1.89-3.22l188.01-108.4c.89-.78,2.45-.78,3.45,0,1.22.56,1.89,1.89,1.89,3.11v299.74c0,3.78-1.56,6-4.34,7.89l-185.11,106.84c-.67.44-1.22.56-1.89.56h-.11Z"/><path class="cls-3" d="M300.96,546.23c-2.11,0-3.67-1.67-3.67-3.56v-219.14c0-2,1.56-3.56,3.67-3.56s3.67,1.67,3.67,3.56v219.14c0,2-1.89,3.56-3.67,3.56Z"/><path class="cls-3" d="M255.38,395.92c-1.89,0-3.67-1.67-3.67-3.67v-94.84c0-2,1.89-3.67,3.67-3.67s3.67,1.67,3.67,3.67v94.84c0,2.11-1.56,3.67-3.67,3.67Z"/><path class="cls-3" d="M243.48,420.27c-2.22,0-3.67-1.67-3.67-3.56v-126.3c0-2.11,1.56-3.56,3.67-3.56s3.45,1.56,3.45,3.56v126.3c0,1.89-1.56,3.56-3.45,3.56Z"/><path class="cls-3" d="M191.12,451.4c-1.89,0-3.78-1.67-3.78-3.78v-187.67c0-2,1.89-3.56,3.78-3.56s3.78,1.56,3.78,3.56v187.67c0,2-1.56,3.78-3.78,3.78Z"/></g></svg>