<?xml version="1.0" encoding="UTF-8"?><svg id="Layer_2" xmlns="http://www.w3.org/2000/svg" viewBox="0 0 335.6 469"><defs><style>.cls-1{fill:#05b173;}.cls-1,.cls-2,.cls-3,.cls-4{fill-rule:evenodd;stroke-width:0px;}.cls-2{fill:#3d68ec;}.cls-3{fill:#f4d9dc;}</style></defs><g id="Layer_1-2"><path class="cls-2" d="M199.74,11.55v11.47l7.53,4.35,8.37-4.83c3.9-2.2,7.81-2.2,11.72-.08l3.9,2.23c1.39.92,2.51,2.48,2.51,4.32v272c-.28,2.07-.84,3.15-2.51,4.35l-166.54,96.08c-17.02,10.1-60.54,11.11-61.37-13.7V115.74l.28-1.03c1.12-9.23,11.72-13.59,18.97-17.74,53-30.74,106.01-61.37,159.29-92.11,3.62-2.12,7.81-2.12,11.72,0l3.62,2.23c1.67.92,2.51,2.51,2.51,4.35v.11Z"/><path class="cls-4" d="M187.75,6.53c-1.4,0-3.07.39-4.19,1.23L24.27,99.82c-1.12.55-2.23,1.2-3.63,1.87-6.14,3.32-13.11,7.2-13.95,13.42v272.63c0,5.47,2.79,9.82,8.37,12.78,12.83,7.03,36.82,4.72,47.98-1.87l166.54-96.13c.55-.48.84-.64.84-1.67V29.01c0-.64-.28-1.09-.84-1.48l-3.91-2.2c-2.79-1.59-5.58-1.59-8.37,0l-8.37,4.8c-1.12.64-2.23.64-3.35,0l-7.25-4.24c-1.12-.64-1.67-1.67-1.67-2.87v-11.58c0-.64-.28-1.2-.84-1.48l-3.91-2.21c-1.4-.84-2.79-1.23-4.18-1.23h0ZM35.71,411.42c-8.65,0-17.29-1.56-23.71-5.16-7.53-4.07-11.72-10.46-12-18.41L.28,114.07c1.11-9.35,10.04-14.25,17.3-18.13,1.11-.64,2.23-1.2,3.35-1.84L180.22,2.01c4.74-2.68,10.04-2.68,15.06,0l3.63,2.2c2.79,1.51,4.19,4.19,4.19,7.23v9.62l4.18,2.51,6.7-3.9c4.74-2.76,10.32-2.76,15.06,0l3.91,2.23c2.51,1.48,3.9,4.16,3.9,7.11v272c0,3.26-1.39,5.38-3.9,7.06l-166.55,96.24c-7.53,4.43-19.25,7.11-30.69,7.11Z"/><path class="cls-4" d="M36.83,108.43c53.56-30.91,106.84-61.82,160.41-92.65,1.67-.92,2.51-2.51,2.51-4.24v20.06L46.59,120.09c-4.74,2.79-11.16,4.27-16.46,1.28-2.51-1.48-2.79-3.79-2.23-5.72.84-3.54,5.58-5.3,8.93-7.23Z"/><path class="cls-4" d="M36.83,108.43h.28-.28ZM196.67,19.95L38.5,111.31h0c-.56.36-1.4.72-1.95,1.12-2.23,1.2-5.02,2.68-5.58,4.07-.28,1.28.28,1.64.84,2.03,5.3,2.96,11.44-.2,13.39-1.31L196.67,29.76v-9.82h0ZM36.83,126.29c-3.07,0-5.86-.72-8.37-2.12-3.35-1.95-4.74-5.55-3.63-9.34,1.12-4.27,5.3-6.39,8.65-8.15l1.67-1.03L195.84,12.91c.56-.36.84-.84.84-1.48,0-1.76,1.39-3.24,3.07-3.24h0c1.95,0,3.35,1.48,3.35,3.35v20.06c0,1.2-.56,2.32-1.67,2.87L48.26,122.97c-3.63,2.2-7.81,3.32-11.44,3.32Z"/><path class="cls-2" d="M101.82,126.28l-29.01,19.74c-8.93,6.09-13.95,10.54-24.27,12.84-11.72,2.62-25.11.75-34.87-5.76-9.76-6.74-12.83-17.38-7.81-26.06.56-.76,1.12-1.54,1.67-2.39,2.79-3.7,6.7-5.86,10.6-8.48l2.51-1.64,20.93-14.21h0L181.89,5.13c3.62-2.49,7.81-2.49,11.72,0l3.62,2.62c3.35,2.29,3.35,7.92,0,10.21-54.12,36.71-108.24,73.44-162.36,110.15-3.07,2.06-6.7,3.7-7.25,8.25,0,1.97.56,4.13,2.51,5.53,5.3,3.5,11.72,1.77,16.46-1.51L215.65,25.89c3.9-2.58,7.81-2.58,11.72-.1l3.9,2.62c1.39,1.08,2.51,2.91,2.51,5.07s-1.12,4.03-2.51,5.11L101.82,126.28Z"/><path class="cls-4" d="M187.75,6.53c-1.4,0-3.07.39-4.19,1.23L17.58,103.53c-2.79,1.67-5.58,3.15-7.81,5.47-.56.45-.84,1-1.4,1.56-1.39,2.4-1.95,5.1-1.39,7.7.84,3.68,3.63,7.23,8.37,9.79,8.65,4.99,21.2,6.75,32.64,4.55,8.09-1.48,12.28-4.07,18.97-8.06l33.2-19.25h0L229.59,30.52c.55-.31.84-.84.84-1.51s-.28-1.09-.84-1.48l-3.91-2.2c-2.79-1.59-5.58-1.59-8.37,0L48.26,122.97c-6.69,3.96-14.23,4.43-19.81,1.2-2.79-1.67-4.19-4.55-3.91-7.87.56-4.99,4.46-7.22,7.25-8.79l1.39-.67L195.84,12.91c.56-.45.84-1.2.84-1.48s-.28-1.01-.84-1.48l-3.91-2.21c-1.4-.84-2.79-1.23-4.18-1.23h0ZM37.94,140.07c-9.48,0-18.69-2.2-25.94-6.39-6.14-3.48-10.04-8.51-11.44-13.95-1.12-4.46,0-8.9,2.51-12.89.56-.81,1.12-1.56,1.95-2.4,2.79-2.96,6.14-4.8,9.49-6.67l25.39-14.62L180.22,2.01c4.74-2.68,10.04-2.68,15.06,0l3.63,2.2c2.79,1.51,4.19,4.19,4.19,7.23s-1.39,5.63-4.19,7.11L34.87,113.34c-2.51,1.48-3.63,2.21-3.91,3.6,0,.75.28,1.2.84,1.59,5.3,2.96,11.44-.2,13.39-1.31L213.97,19.67c4.74-2.76,10.32-2.76,15.06,0l3.91,2.23c2.51,1.48,3.9,4.16,3.9,7.11s-1.39,5.66-3.9,7.23l-162.64,93.96c-6.69,3.96-11.99,7.11-21.2,8.87-3.63.64-7.53,1-11.16,1Z"/><path class="cls-3" d="M207.27,27.37l-7.53-4.35L29.85,121.1l.28.28c5.3,3.07,11.72,1.51,16.46-1.28L207.27,27.37Z"/><path class="cls-4" d="M199.74,26.81L39.34,119.42c2.51-.45,4.74-1.64,5.86-2.2L200.86,27.37l-1.12-.56h0ZM36.83,126.29c-3.07,0-5.86-.64-8.37-2.12-.84-.64-1.67-1.76-1.67-2.96,0-1.12.28-2.32,1.39-2.87L198.35,20.14c.84-.56,2.23-.56,3.07,0l7.53,4.35c1.12.56,1.67,1.67,1.67,2.87,0,1.12-.56,2.2-1.67,2.76L48.26,122.97c-3.63,2.2-7.81,3.32-11.44,3.32Z"/><path class="cls-3" d="M249.12,40.03v11.49l7.53,4.35,8.37-4.91c3.62-2.15,7.81-2.15,11.72,0l3.62,2.2c1.67.95,2.51,2.51,2.51,4.35v271.99c0,2.04-.84,3.15-2.51,4.27l-166.26,96.16c-17.29,10.18-60.54,10.99-61.37-13.7V143.22c.28-2.2,1.12-4.44,2.79-6.47,3.07-4.35,8.09-6.55,12.55-9.26,54.4-31.36,108.8-62.74,163.2-94.12,3.63-2.12,7.81-2.12,11.44,0l3.91,2.23c1.67.92,2.51,2.48,2.51,4.35v.08Z"/><path class="cls-4" d="M237.13,35.04c-1.4,0-3.07.36-4.18,1.2l-165.71,95.52c-3.35,2.04-6.97,3.88-9.2,6.95-1.12,1.56-1.67,3.24-1.95,4.91l-.28,1.28v271.35c.28,5.47,3.07,9.82,8.65,12.78,12.83,7.03,36.82,4.71,47.98-1.87l166.54-96.16c.56-.45.84-.64.84-1.73V57.52c0-.64-.28-1.09-.84-1.48l-3.9-2.2c-2.79-1.59-5.86-1.59-8.37,0l-8.37,4.8c-1.11.64-2.23.64-3.35,0l-7.53-4.35c-.84-.56-1.67-1.65-1.67-2.76v-11.58c0-.64-.28-1.2-.84-1.48l-3.62-2.23c-1.4-.84-2.79-1.2-4.18-1.2h0ZM85.09,439.93c-8.65,0-17.3-1.56-23.71-5.16-7.53-4.07-11.72-10.46-12-18.44l.28-273.75c.28-2.6,1.4-5.27,3.07-7.79,3.07-4.15,7.25-6.47,11.44-8.79l2.51-1.28L229.59,30.52c4.74-2.68,10.04-2.68,14.78,0l3.91,2.2c2.51,1.48,4.18,4.19,4.18,7.22v9.63l4.18,2.51,6.7-3.91c4.74-2.76,10.32-2.76,15.06,0l3.63,2.23c2.51,1.48,4.19,4.15,4.19,7.11v271.99c-.28,3.24-1.39,5.39-3.91,7.06l-166.54,96.24c-7.53,4.44-19.25,7.11-30.69,7.11Z"/><path class="cls-1" d="M83.69,138.31c54.4-31.35,108.8-62.74,162.92-94.1,1.67-.84,2.51-2.43,2.51-4.18v20.09l-153.15,88.49c-4.74,2.76-11.16,4.24-16.46,1.28-2.51-1.48-2.79-3.79-2.23-5.74.84-3.13,3.91-4.16,6.42-5.83Z"/><path class="cls-4" d="M85.37,141.18l-1.4.84c-2.23,1.2-3.35,1.87-3.63,2.96-.28,1.31.28,1.67.84,2.03,5.02,2.96,11.44-.17,13.11-1.28L245.77,58.28v-9.82l-160.41,92.73h0ZM86.2,154.8c-3.07,0-5.86-.73-8.37-2.12-3.35-1.95-4.74-5.55-3.9-9.35,1.12-3.99,4.46-5.75,6.97-7.14l1.4-.64h0L244.93,41.43c.56-.36.84-.84.84-1.48,0-1.76,1.67-3.23,3.35-3.23h0c1.95,0,3.35,1.48,3.35,3.32v20.09c0,1.2-.56,2.32-1.67,2.87l-153.15,88.49c-3.91,2.2-7.81,3.32-11.44,3.32Z"/><path class="cls-3" d="M151.2,136.58l-30.41,17.66c-7.25,3.99-12.56,7.7-20.64,9.62-12.56,2.87-26.78,1.48-37.1-4.44-9.21-5.27-12.56-13.53-8.93-20.56,2.79-5.64,8.09-7.87,13.11-10.71l13.95-8.17c49.93-28.85,100.15-57.75,150.09-86.62,3.63-2.12,7.81-2.12,11.44,0l3.91,2.23c1.67.92,2.51,2.48,2.51,4.35,0,1.76-.84,3.43-2.51,4.27-53.56,30.99-106.84,61.9-160.41,92.81-3.63,2.04-8.93,3.99-9.2,8.15,0,1.76.55,3.52,2.51,4.71,5.3,2.96,11.72,1.48,16.46-1.28l169.06-97.64c3.62-2.15,7.81-2.15,11.72,0l3.62,2.2c1.67.95,2.51,2.51,2.51,4.35s-.84,3.43-2.51,4.35l-129.16,74.71Z"/><path class="cls-4" d="M237.13,35.04c-1.67,0-3.07.36-4.18,1.2l-166.27,95.88c-3.91,2.31-7.53,4.27-9.48,8.23-3.07,5.55,0,11.94,7.53,16.21,9.21,5.38,22.32,6.95,34.59,4.07,6.41-1.48,11.16-4.35,16.74-7.59l33.48-19.36h0l129.44-74.68c.56-.28.84-.84.84-1.48s-.28-1.09-.84-1.48l-3.9-2.2c-2.79-1.59-5.86-1.59-8.37,0l-169.05,97.64c-6.98,3.96-14.23,4.44-19.81,1.2-2.79-1.67-4.46-4.55-4.18-7.78.56-5.27,5.58-7.87,8.92-9.71l1.95-1.03L244.93,41.43c.56-.36.84-.84.84-1.48s-.28-1.2-.84-1.48l-3.62-2.23c-1.4-.84-2.79-1.2-4.18-1.2h0ZM87.32,168.58c-9.49,0-18.69-2.21-25.94-6.39-10.6-6-14.51-16.01-10.04-24.8,2.79-5.72,7.53-8.42,12.27-11.02l15.9-9.24L229.59,30.52c4.74-2.68,10.04-2.68,14.78,0l3.91,2.2c2.51,1.48,4.18,4.19,4.18,7.22s-1.67,5.63-4.18,7.12l-160.69,92.84c-.56.36-1.12.73-1.95,1.12-2.51,1.28-5.3,2.76-5.3,4.44,0,.73.28,1.12.84,1.56,5.02,2.96,11.44-.17,13.11-1.28l169.05-97.56c4.74-2.76,10.32-2.76,15.06,0l3.63,2.23c2.51,1.48,4.19,4.15,4.19,7.11s-1.67,5.66-4.19,7.22l-162.64,93.93c-5.58,3.43-11.16,6.58-18.41,8.34-4.46,1-9.2,1.56-13.67,1.56Z"/><path class="cls-3" d="M256.65,55.87l-7.53-4.35-169.89,98.09.28.28c5.3,3.07,11.72,1.48,16.46-1.28l160.68-92.73Z"/><path class="cls-4" d="M249.12,55.32l-160.41,92.62c2.51-.45,4.74-1.65,5.58-2.2L249.96,55.87l-.84-.56h0ZM86.2,154.8c-3.07,0-5.86-.64-8.37-2.12-.83-.67-1.67-1.87-1.67-2.96,0-1.23.28-2.34,1.39-2.98L247.45,48.65c1.12-.56,2.23-.56,3.35,0l7.53,4.35c1.12.56,1.67,1.65,1.67,2.87,0,1.09-.56,2.21-1.67,2.76l-160.68,92.84c-3.91,2.2-7.81,3.32-11.44,3.32Z"/><path class="cls-1" d="M298.22,69.1v11.49l7.53,4.32,8.37-4.8c3.63-2.12,7.81-2.12,11.72,0l3.63,2.21c1.67.95,2.51,2.51,2.51,4.35v271.91c0,2.12-.56,3.23-2.51,4.35l-166.27,96.16c-17.3,10.1-60.54,10.91-61.37-13.78V172.29c.56-2.96,1.95-5.91,4.46-8.51,3.35-3.15,7.81-5.3,11.72-7.59,54.12-31.19,108.24-62.49,162.36-93.68,3.63-2.2,7.81-2.2,11.44-.08l3.91,2.23c1.67.92,2.51,2.48,2.51,4.35v.08Z"/><path class="cls-4" d="M285.94,64.19c-1.4,0-2.79.36-4.18,1.12l-164.87,95.24c-2.79,1.65-6.14,3.43-8.37,5.55-1.95,2.04-3.07,4.24-3.35,6.56l-.28,1.31.28,271.35c0,5.44,2.79,9.8,8.37,12.78,12.55,7.03,36.54,4.71,47.98-1.87l166.54-96.16c.56-.47.56-.64.84-1.64V86.67c0-.72-.28-1.2-.84-1.48l-3.91-2.23c-2.79-1.56-5.58-1.56-8.37,0l-8.37,4.82c-1.12.56-2.23.56-3.35,0l-7.53-4.35c-.84-.56-1.67-1.67-1.67-2.85v-11.58c0-.67-.28-1.12-.84-1.48l-3.63-2.23c-1.39-.75-2.79-1.12-4.46-1.12h0ZM134.19,469c-8.65,0-17.3-1.59-23.99-5.08-7.26-4.18-11.44-10.57-11.72-18.52l.28-273.67c.28-3.6,2.23-7.23,5.3-10.27,2.79-2.87,6.42-4.71,9.76-6.67l2.51-1.4,162.36-93.73c4.74-2.79,10.04-2.79,14.79,0l3.91,2.21c2.51,1.48,4.18,4.15,4.18,7.14v9.71l4.18,2.4,6.69-3.88c4.74-2.79,10.04-2.68,15.06,0l3.63,2.23c2.79,1.45,4.18,4.16,4.18,7.2v271.91c0,3.35-1.4,5.36-3.91,7.14l-166.54,96.13c-7.53,4.44-19.25,7.14-30.69,7.14Z"/><path class="cls-1" d="M132.79,167.02l79.51-46h0l83.69-48.32c1.67-.84,2.51-2.4,2.51-4.24v20.17l-153.15,88.46c-4.74,2.79-11.16,4.27-16.46,1.23-2.51-1.4-3.07-3.71-2.23-5.75.84-3.07,3.63-4.07,6.14-5.55Z"/><path class="cls-4" d="M132.79,167.02h.28-.28ZM295.15,76.97l-160.69,92.84h0l-1.39.81c-2.23,1.2-3.07,1.76-3.35,2.87-.56,1.29.28,1.76.84,2.04,5.02,2.96,11.44-.28,13.11-1.28l151.48-87.49v-9.79h0ZM135.3,183.31c-2.79,0-5.58-.76-8.09-2.15-3.35-1.93-4.74-5.64-3.9-9.43,1.39-3.96,4.18-5.64,6.69-6.95l1.11-.64,163.2-94.21c.56-.37.84-.84.84-1.48,0-1.76,1.67-3.23,3.35-3.23h0c1.95,0,3.07,1.48,3.07,3.23v20.17c0,1.2-.56,2.32-1.4,2.88l-153.16,88.46c-3.9,2.23-7.81,3.35-11.72,3.35Z"/><path class="cls-1" d="M200.58,165.06l-32.92,18.97c-6.42,3.79-10.04,6.3-17.58,8.15-12.27,3.07-27.06,1.76-37.66-4.24-9.77-5.55-12.83-14.34-8.37-21.68,3.07-5.19,9.49-7.86,14.51-10.91l21.48-12.41h0l140.32-81.07c3.91-2.12,8.09-2.12,11.72,0l3.91,2.23c1.67.92,2.51,2.48,2.51,4.35,0,1.76-.84,3.32-2.51,4.24-53.56,30.91-106.84,61.74-160.41,92.65-3.35,2.04-8.37,3.9-9.21,7.78-.28,1.84.28,3.88,2.51,5.19,5.3,3.04,11.72,1.56,16.46-1.23l169.05-97.61c3.63-2.15,7.81-2.15,11.44,0l3.91,2.21c1.67.92,2.51,2.51,2.51,4.35s-.84,3.43-2.51,4.35l-129.16,74.68Z"/><path class="cls-4" d="M286.22,63.55c-1.39,0-2.79.36-4.19,1.2l-164.59,95.04c-4.19,2.32-8.37,4.63-10.6,8.23-1.4,2.31-1.67,4.91-1.12,7.42.84,3.6,3.63,7.03,8.09,9.62,9.49,5.36,23.44,6.95,35.43,3.88,6.14-1.48,9.21-3.32,14.23-6.19l35.43-20.56h0l129.16-74.68c.56-.36.84-.84.84-1.48s-.28-1.12-.84-1.48l-3.91-2.23c-2.51-1.56-5.58-1.56-8.09,0l-169.06,97.64c-6.97,3.88-14.22,4.44-19.81,1.2-3.07-1.84-4.74-5.08-3.9-8.68.83-4.71,5.3-7.06,8.93-8.9l1.67-1.12,160.4-92.53c.56-.37.84-.84.84-1.48,0-.75-.28-1.23-.84-1.48l-3.91-2.32c-1.39-.75-2.79-1.12-4.18-1.12h0ZM136.42,197.09c-9.49,0-18.41-2.23-25.66-6.39-6.14-3.4-10.05-8.23-11.44-13.61-1.12-4.35-.56-8.59,1.95-12.47,3.07-5.11,8.37-7.98,13.11-10.55l23.99-13.89,140.6-81.18c4.47-2.68,10.04-2.68,14.79,0l3.91,2.23c2.51,1.48,3.9,4.16,3.9,7.22s-1.4,5.64-3.9,7.12l-160.41,92.65c-.56.36-1.4.72-1.95,1.12-2.51,1.28-5.3,2.76-5.58,4.44-.28.92,0,1.39.84,1.76,5.02,2.96,11.44-.28,13.11-1.28l169.05-97.56c4.74-2.79,10.05-2.79,14.79,0l3.91,2.23c2.51,1.48,4.18,4.15,4.18,7.11s-1.67,5.66-4.18,7.14l-164.87,95.21c-5.02,3.07-8.65,5.27-15.62,6.95-4.74,1.2-9.48,1.76-14.5,1.76Z"/><path class="cls-3" d="M306.03,84.28l-7.53-4.24-169.89,98.09.28.2c5.02,3.15,11.72,1.56,16.46-1.23l160.69-92.81Z"/><path class="cls-4" d="M298.5,83.83l-160.41,92.62c2.51-.45,4.74-1.67,5.58-2.2l155.67-89.97-.84-.45h0ZM135.3,183.31c-3.07,0-5.86-.76-8.09-2.15-1.11-.64-1.95-1.84-1.95-2.96,0-1.2.56-2.32,1.67-2.96l169.89-98.11c1.12-.53,2.23-.53,3.35,0l7.53,4.35c.84.56,1.67,1.67,1.67,2.79,0,1.2-.84,2.31-1.67,2.87l-160.69,92.81c-3.9,2.23-7.81,3.35-11.72,3.35Z"/><path class="cls-1" d="M331.98,88.99v269.6c0,2.12-.56,3.23-2.51,4.35l-166.27,96.16V186.63l168.78-97.64Z"/><path class="cls-4" d="M166.55,188.47v264.88l161.52-93.29c.56-.47.56-.64.84-1.64V94.74l-162.36,93.73h0ZM163.2,462.33c-.56,0-1.12-.08-1.67-.36-.84-.64-1.67-1.76-1.67-2.87V186.63c0-1.2.84-2.32,1.67-2.87l169.06-97.53c.84-.67,2.23-.67,3.07,0,1.12.53,1.67,1.65,1.67,2.76v269.6c0,3.35-1.4,5.36-3.91,7.14l-166.54,96.13c-.56.39-1.12.48-1.67.48Z"/><path class="cls-4" d="M114.66,415.77c-1.95,0-3.35-1.48-3.35-3.23v-197.12c0-1.76,1.39-3.23,3.35-3.23,1.67,0,3.35,1.48,3.35,3.23v197.12c0,1.76-1.67,3.23-3.35,3.23Z"/><path class="cls-4" d="M73.65,280.56c-1.68,0-3.35-1.45-3.35-3.32v-85.34c0-1.84,1.67-3.32,3.35-3.32,1.95,0,3.35,1.48,3.35,3.32v85.34c0,1.87-1.4,3.32-3.35,3.32Z"/><path class="cls-4" d="M63.05,302.51c-1.95,0-3.35-1.51-3.35-3.24v-113.65c0-1.87,1.39-3.23,3.35-3.23,1.67,0,3.07,1.37,3.07,3.23v113.65c0,1.73-1.39,3.24-3.07,3.24Z"/><path class="cls-4" d="M15.9,330.47c-1.67,0-3.35-1.51-3.35-3.35v-168.8c0-1.84,1.68-3.24,3.35-3.24,1.95,0,3.35,1.4,3.35,3.24v168.8c0,1.84-1.39,3.35-3.35,3.35Z"/></g></svg>