<?xml version="1.0" encoding="UTF-8"?><svg id="Layer_1" xmlns="http://www.w3.org/2000/svg" viewBox="0 0 720 720"><defs><style>.cls-1{fill:#f4d74b;}.cls-1,.cls-2{stroke:#000;stroke-miterlimit:10;stroke-width:13.29px;}.cls-2{fill:#00af81;}</style></defs><circle class="cls-2" cx="457.88" cy="373.56" r="79.8"/><path d="M387.94,324.6h0c-21.46,0-38.86,17.4-38.86,38.86v142.48l-76.7-76.7c-7.82-7.82-20.49-7.82-28.31,0h0c-7.82,7.82-7.82,20.49,0,28.31l100.25,100.25c1.44,1.44,3.06,2.62,4.77,3.53v77.33c0,21.46,17.4,38.86,38.86,38.86h0c21.46,0,38.86-17.4,38.86-38.86v-275.19c0-21.46-17.4-38.86-38.86-38.86Z"/><circle class="cls-2" cx="378.08" cy="258.38" r="179.92"/><path class="cls-1" d="M491.91,93.53c4-9.84,3.75-21.32-1.67-31.42-9.66-17.99-32.07-24.74-50.05-15.08-17.13,9.2-24.06,29.96-16.33,47.46-2.72.73-5.41,1.77-8,3.16-17.99,9.66-24.74,32.07-15.08,50.05,9.66,17.99,32.07,24.74,50.05,15.08,4.45-2.39,8.21-5.56,11.2-9.25,10.92,13.7,30.38,18.08,46.37,9.5,17.99-9.66,24.74-32.07,15.08-50.05-6.49-12.09-18.76-19.1-31.56-19.46Z"/><circle class="cls-2" cx="241.8" cy="420.38" r="79.8"/></svg>