<?xml version="1.0" encoding="UTF-8"?>
<svg width="160px" height="146.403782px" viewBox="0 0 160 146.403782" version="1.1" xmlns="http://www.w3.org/2000/svg" xmlns:xlink="http://www.w3.org/1999/xlink">
    <title>Group 144</title>
    <defs>
        <polygon id="path-1" points="0 0 27.5521255 0 27.5521255 37.8206673 0 37.8206673"></polygon>
    </defs>
    <g id="website" stroke="none" stroke-width="1" fill="none" fill-rule="evenodd">
        <g id="Hubs" transform="translate(-550.000000, -815.000000)">
            <g id="Group-144" transform="translate(550.000000, 815.000000)">
                <path d="M60.005063,45.6036438 C51.5132879,49.1211132 51.0156818,51.9321049 44.6020922,58.3474497 C38.1867475,64.7619169 38.3508609,70.9912079 34.8325138,79.482983 C31.7266444,86.9734027 31.594125,87.2454625 31.7240116,95.8056913 C31.8714505,105.633192 27.9730973,107.151461 48.0221468,118.734186 C58.8325732,124.978397 72.8410183,147.912157 96.5900805,141.094866 C103.357348,143.711906 113.17344,146.593984 120.110086,144.966891 C130.068351,142.630687 141.209637,136.743665 141.342157,131.350738 C161.309588,124.479035 156.071121,114.110048 158.611808,105.125932 C160.962931,96.8167005 152.916106,85.4367038 149.811992,77.9436513 C146.293644,69.4527538 140.31184,62.5108417 133.89825,56.0963746 C127.483783,49.6819074 120.337388,45.3368497 111.844735,41.817625 C103.663634,38.4291645 102.765837,39.5217916 93.3411604,39.5217916 C83.919994,39.5217916 68.187041,42.2143056 60.005063,45.6036438" id="Fill-1" fill="#DD784B"></path>
                <path d="M48.0569002,53.2150861 C51.236489,49.622142 53.2356895,47.3658012 59.6387477,44.7127797 C63.6898054,43.0339076 69.5487441,41.5252924 75.585838,40.4247667 C81.9239529,39.2698291 88.4709395,38.5554529 93.3416869,38.5554529 C95.5523919,38.5554529 97.1786072,38.5010409 98.561724,38.4562827 C103.656262,38.2895364 105.682669,38.2237155 112.210348,40.9267609 C116.50626,42.7074359 120.467801,44.6996155 124.167814,47.0603922 C127.886256,49.429945 131.334394,52.1637068 134.582437,55.4126269 C137.807662,58.6431173 140.932838,62.0122703 143.70697,65.660504 C146.493389,69.3245347 148.912088,73.2536043 150.702417,77.5732112 C151.470327,79.4293609 152.548035,81.5294868 153.692441,83.7612545 C157.230974,90.6627964 161.404019,98.8000162 159.539971,105.386495 C158.96689,107.414657 158.803655,109.570072 158.640419,111.736019 C158.08489,119.108839 157.516197,126.620321 142.239603,132.058884 C141.806062,134.707517 139.287316,137.338598 135.719822,139.627411 C131.495875,142.3366 125.736106,144.639454 120.329138,145.907603 C117.213615,146.636899 113.568892,146.501747 109.876777,145.894439 C105.184185,145.12214 100.397689,143.583686 96.5423384,142.109298 C78.6881969,147.063419 66.335806,135.797511 56.6750515,126.98453 C53.313797,123.917276 50.2860351,121.15543 47.539109,119.568708 C30.0965676,109.492843 30.2527826,106.717833 30.6415648,99.8040045 C30.7082633,98.6165953 30.783738,97.2949114 30.76092,95.8170125 C30.6301558,87.1014463 30.7635529,86.7793627 33.8922402,79.2318982 L33.9413865,79.1125429 C35.0392793,76.4621543 35.772963,74.0469656 36.4601333,71.7783382 C38.0187725,66.642552 39.3597638,62.2220196 43.9180813,57.6637021 C45.6715504,55.910233 46.9423328,54.4753372 48.0569002,53.2150861 M60.3715538,46.4943323 C54.3818509,48.9753419 52.4984953,51.1026737 49.4996946,54.4902566 C48.3280824,55.8136957 46.9941119,57.3214334 45.2854011,59.0310218 C41.0561881,63.2602348 39.7818953,67.4578537 38.3022412,72.3364996 C37.5948858,74.6718255 36.8392618,77.1581007 35.7229391,79.8532476 L35.6737928,79.9726029 C32.6881563,87.1734105 32.5609026,87.4814524 32.6864011,95.793317 C32.709219,97.3721413 32.634622,98.7087446 32.5661682,99.909318 C32.2247771,105.979761 32.0878696,108.416012 48.50536,117.899489 C51.4374622,119.593281 54.5354331,122.419192 57.9739175,125.557533 C67.3424271,134.102842 79.3341195,145.044033 96.3255682,140.167142 C96.5563802,140.100444 96.7924579,140.125895 96.9951863,140.219799 C100.791736,141.683656 105.547517,143.229131 110.185697,143.992654 C113.647877,144.562224 117.040725,144.695621 119.89121,144.026881 C125.101593,142.805244 130.634937,140.596295 134.678097,138.002951 C138.041106,135.846658 140.326408,133.482371 140.379065,131.327833 C140.387841,130.9136 140.659901,130.566943 141.029376,130.439689 C155.67409,125.39693 156.199779,118.429567 156.714938,111.592091 C156.885194,109.333117 157.056329,107.083797 157.682944,104.865194 C159.342508,98.9966013 155.358149,91.227101 151.978465,84.6362338 C150.810363,82.3588303 149.709837,80.2139462 148.922619,78.3130383 C147.193723,74.1443806 144.86103,70.3539737 142.175537,66.8224625 C139.477757,63.2760318 136.403482,59.9648011 133.216872,56.7781914 C130.051325,53.6161549 126.715522,50.9666438 123.133986,48.6839746 C119.534899,46.3890189 115.674283,44.4468632 111.477542,42.7083135 C105.329869,40.1623607 103.420185,40.2255488 98.6231568,40.3817637 C97.1320938,40.4300324 95.3759919,40.4879548 93.3416869,40.4879548 C88.5595784,40.4879548 82.1389679,41.1882893 75.9263515,42.3212866 C70.0156337,43.3998719 64.2979906,44.8672394 60.3715538,46.4943323" id="Fill-3" fill="#000000"></path>
                <path d="M60.7594584,138.495028 C61.8485751,138.129941 63.025453,137.436628 63.3212083,136.238687 L67.1370659,118.366993 C66.5306359,120.528552 63.5651844,121.052487 61.656378,121.004218 C59.0761983,120.937519 55.6824721,119.836994 54.1484061,117.667536 C53.6806388,117.006695 53.4226209,116.277399 53.544609,115.46473 L49.729629,133.335546 C49.4382617,134.931923 50.8784233,136.379983 52.1044474,137.172466 C54.4941853,138.717941 58.0213085,139.348067 60.7594584,138.495028" id="Fill-5" fill="#000000"></path>
                <path d="M63.1225169,138.279662 C62.5292511,138.800086 61.7964449,139.160784 61.1013761,139.39774 L61.0460865,139.41617 C59.5585339,139.878671 57.8717634,139.949758 56.2429153,139.701394 C54.5807179,139.447764 52.9501145,138.856253 51.6249202,138.009357 L51.5836724,137.983907 C50.7938214,137.474892 49.9188421,136.714002 49.3545375,135.80304 C48.8823822,135.037763 48.6208538,134.168049 48.7691702,133.236902 L52.593804,115.297633 C52.684198,114.783352 53.1686399,114.433185 53.6890639,114.510415 C54.2165088,114.5894 54.5789626,115.08174 54.4999775,115.609185 C54.460485,115.871591 54.4824253,116.119078 54.5500014,116.351645 C54.6245985,116.60703 54.7606283,116.862415 54.9370284,117.111657 C55.528539,117.948899 56.4710944,118.609741 57.5373932,119.089795 L57.5865395,119.109102 C58.913489,119.698858 60.4071849,120.009532 61.6788449,120.041126 C62.6573824,120.066577 63.9378186,119.928792 64.9277651,119.452249 C65.5350727,119.160004 66.023025,118.732607 66.2020579,118.130565 C66.3275564,117.630326 66.828673,117.314385 67.3368104,117.423209 C67.8589896,117.533788 68.1916046,118.046314 68.0810255,118.566738 L64.258147,136.469148 C64.0729708,137.214241 63.6561051,137.811895 63.1225169,138.279662 L63.1225169,138.279662 Z M60.4835372,137.570551 C60.9723671,137.403805 61.4752389,137.163339 61.848224,136.834235 C62.0992211,136.609566 62.2949286,136.344527 62.3774242,136.036485 L65.5245413,121.295234 C64.2695559,121.834965 62.7758601,121.996446 61.6340867,121.966607 C60.1272266,121.92887 58.3632262,121.563783 56.8010766,120.869592 L56.7501751,120.845019 C55.6268315,120.339514 54.5973925,119.65761 53.8198281,118.79755 L50.6692005,133.552843 C50.6095229,133.970586 50.7499408,134.397106 50.9930394,134.791154 C51.385332,135.423912 52.0330098,135.977685 52.625398,136.360324 L52.6640129,136.38753 C53.7566401,137.085232 55.1230822,137.576695 56.5298944,137.790832 C57.8901933,137.998826 59.2759428,137.947047 60.4721282,137.574062 L60.4835372,137.570551 Z" id="Fill-7" fill="#000000"></path>
                <path d="M60.005063,45.6036438 C51.5132879,49.1211132 51.0156818,51.9321049 44.6020922,58.3474497 C38.1867475,64.7619169 38.3508609,70.9912079 34.8325138,79.482983 C31.7266444,86.9734027 31.594125,87.2454625 31.7240116,95.8056913 C31.8714505,105.633192 27.9730973,107.151461 48.0221468,118.734186 C58.8325732,124.978397 72.8410183,147.912157 96.5900805,141.094866 C103.357348,143.711906 113.17344,146.593984 120.110086,144.966891 C130.068351,142.630687 141.209637,136.743665 141.342157,131.350738 C141.569458,117.012311 138.194162,114.776155 138.871678,105.227735 C139.186741,100.780875 138.590843,93.4098102 132.570423,88.5030807 C127.06955,84.0211154 118.242527,80.0534309 117.797578,76.102421 C117.029667,69.2702105 115.24987,69.2596791 108.838913,62.8460896 C102.427957,56.4333776 102.122548,60.5695637 96.3987611,53.3757769 C89.5498759,44.7716674 83.8427641,47.8073279 74.4189649,47.8073279 C64.9969209,47.8073279 68.187041,42.2143056 60.005063,45.6036438" id="Fill-9" fill="#DD784B"></path>
                <path d="M48.0569002,53.2150861 C51.236489,49.622142 53.2356895,47.3658012 59.6387477,44.7127797 C64.5445996,42.6811075 65.8294238,43.5947018 67.6434481,44.8865469 C68.8606961,45.7545053 70.385986,46.8409891 74.4186138,46.8409891 C76.4774919,46.8409891 78.3529491,46.6935503 80.0993973,46.558398 C86.6376078,46.049383 91.499579,45.6711321 97.1540341,52.7762801 C100.038745,56.4016958 101.441169,56.9817975 103.025259,57.6364961 C104.611105,58.2911948 106.35843,59.0143472 109.466933,62.1114405 L109.522222,62.1632196 C110.910604,63.551602 112.03307,64.5977157 112.982647,65.4823487 C116.809913,69.0463316 118.111412,70.2565588 118.756457,75.9961422 C119.001311,78.189295 122.882112,80.7255941 126.990214,83.409332 C129.118424,84.8021025 131.309821,86.2334879 133.178257,87.756145 C135.846198,89.9299903 137.508396,92.5593162 138.511506,95.2246243 C139.891113,98.8868998 140.02451,102.608853 139.834068,105.296101 C139.519883,109.721022 140.106128,112.551321 140.780134,115.810772 C141.546289,119.50903 142.423024,123.747897 142.303669,131.34714 L142.303669,131.373469 C142.23346,134.250281 139.595357,137.141136 135.719822,139.627411 C131.495875,142.3366 125.736106,144.639454 120.329138,145.907603 C117.213615,146.636899 113.568892,146.501747 109.876777,145.894439 C105.184185,145.12214 100.397689,143.583686 96.5423384,142.109298 C78.6881969,147.063419 66.335806,135.797511 56.6750515,126.98453 C53.313797,123.917276 50.2860351,121.15543 47.539109,119.568708 C30.0965676,109.492843 30.2527826,106.717833 30.6415648,99.8040045 C30.7082633,98.6165953 30.783738,97.2949114 30.76092,95.8170125 C30.6301558,87.1014463 30.7635529,86.7793627 33.8922402,79.2318982 L33.9413865,79.1125429 C35.0392793,76.4621543 35.772963,74.0469656 36.4601333,71.7783382 C38.0187725,66.642552 39.3597638,62.2220196 43.9180813,57.6637021 C45.6715504,55.910233 46.9423328,54.4753372 48.0569002,53.2150861 M60.3715538,46.4943323 C54.3818509,48.9753419 52.4984953,51.1026737 49.4996946,54.4902566 C48.3280824,55.8136957 46.9941119,57.3214334 45.2854011,59.0310218 C41.0561881,63.2602348 39.7818953,67.4578537 38.3022412,72.3364996 C37.5948858,74.6718255 36.8392618,77.1581007 35.7229391,79.8532476 L35.6737928,79.9726029 C32.6881563,87.1734105 32.5609026,87.4814524 32.6864011,95.793317 C32.709219,97.3721413 32.634622,98.7087446 32.5661682,99.909318 C32.2247771,105.979761 32.0878696,108.416012 48.50536,117.899489 C51.4374622,119.593281 54.5354331,122.419192 57.9739175,125.557533 C67.3424271,134.102842 79.3341195,145.044033 96.3255682,140.167142 C96.5563802,140.100444 96.7924579,140.125895 96.9951863,140.219799 C100.791736,141.683656 105.547517,143.229131 110.185697,143.992654 C113.647877,144.562224 117.040725,144.695621 119.89121,144.026881 C125.101593,142.805244 130.634937,140.596295 134.678097,138.002951 C138.041106,135.846658 140.326408,133.482371 140.379065,131.327833 C140.49491,123.939216 139.639238,119.803908 138.89239,116.196044 C138.188545,112.793542 137.577727,109.839499 137.908587,105.160071 C138.084109,102.676429 137.966509,99.2458432 136.708014,95.9038961 C135.811972,93.5264448 134.332317,91.1823428 131.962765,89.2515961 C130.203152,87.8167002 128.036328,86.4011118 125.931814,85.025016 C121.434052,82.0858929 117.187287,79.3100057 116.838875,76.2076467 C116.273692,71.1806844 115.105591,70.0924453 111.668861,66.893549 C110.665751,65.9597697 109.483607,64.8574889 108.154902,63.5296617 L108.107511,63.4778826 C105.267558,60.6475834 103.706286,60.0025385 102.292453,59.4180488 C100.458244,58.6606695 98.8364166,57.9884186 95.6436636,53.9750983 C90.6289878,47.6747207 86.2005569,48.0196222 80.2442033,48.4838791 C78.4494864,48.6225418 76.5222502,48.7734911 74.4186138,48.7734911 C69.7760456,48.7734911 67.9690422,47.486034 66.5262478,46.4574726 C65.2186057,45.5272037 64.2936025,44.8698722 60.3715538,46.4943323" id="Fill-11" fill="#000000"></path>
                <path d="M148.922005,73.909005 C149.319563,74.2635603 149.355545,74.8743784 149.00099,75.2728143 C148.647312,75.6703726 148.036494,75.7054771 147.638936,75.3517994 C147.485354,75.2166471 147.326506,75.0876381 147.167658,74.9674053 C145.307121,73.5658587 143.150828,73.3490885 141.289412,73.6711721 C139.429752,73.9941334 137.901829,74.8243545 137.255029,75.5492621 L137.165513,75.6624741 C136.845184,76.0872384 136.238754,76.1714891 135.81399,75.8511607 C135.388348,75.5299546 135.304097,74.9244023 135.625303,74.499638 L135.804336,74.2819902 C136.688969,73.286778 138.657453,72.1695777 140.964696,71.768509 C143.272816,71.3691955 145.963574,71.6517866 148.320841,73.4228079 C148.523569,73.5702467 148.72542,73.7352378 148.922005,73.909005" id="Fill-13" fill="#000000"></path>
                <path d="M151.118229,110.021604 C150.966403,110.531497 150.429304,110.822864 149.918534,110.671037 C149.407763,110.51921 149.117274,109.981234 149.269101,109.471341 C150.983955,103.737023 151.711495,99.6280433 150.83125,95.7384662 C149.948372,91.8383579 147.423482,88.0330316 142.63523,82.8893468 C142.272777,82.4988094 142.294717,81.888869 142.683499,81.5255375 C143.073159,81.1630837 143.684855,81.185024 144.047308,81.5738062 C149.076904,86.9781418 151.742212,91.0423637 152.711095,95.3163348 C153.681735,99.6025925 152.925233,103.979244 151.118229,110.021604" id="Fill-15" fill="#000000"></path>
                <path d="M152.068069,95.8819558 C152.599024,95.9126723 153.005359,96.3699082 152.973765,96.9008635 C152.943048,97.4318189 152.485812,97.8381533 151.954857,97.8074369 C149.931961,97.687204 147.310534,97.1228994 145.146342,95.8196454 C143.455183,94.8007377 142.032574,93.3316149 141.349792,91.2762473 C141.183046,90.7724979 141.456861,90.2266232 141.96061,90.0598769 C142.465237,89.8940082 143.011112,90.1669455 143.17698,90.6715725 C143.694772,92.2275789 144.808461,93.3623314 146.144187,94.1662241 C148.008235,95.2895676 150.294415,95.7766424 152.068069,95.8819558" id="Fill-17" fill="#000000"></path>
                <path d="M147.647712,122.705557 C147.312464,123.118912 146.705157,123.181223 146.291801,122.845975 C145.879324,122.510727 145.817013,121.903419 146.152261,121.490064 C146.540166,121.012643 146.912273,120.383395 147.296667,119.733962 C148.553408,117.610141 149.933014,115.280958 153.237224,115.022062 C153.768179,114.980815 154.234191,115.378373 154.276317,115.909328 C154.317565,116.439406 153.920006,116.905418 153.389051,116.947543 C151.081809,117.128332 149.969874,119.004666 148.957987,120.71601 C148.540244,121.420733 148.135665,122.102637 147.647712,122.705557" id="Fill-19" fill="#000000"></path>
                <path d="M106.793989,83.1799242 C106.355183,82.8806585 106.241094,82.2794941 106.541237,81.8406881 C106.840503,81.4010044 107.441667,81.2877924 107.880473,81.5879358 C111.298772,83.9276497 112.152689,87.6785641 113.115429,91.9095322 C114.171197,96.5459572 115.372648,101.814263 120.503169,106.044353 C122.610315,107.781148 124.603372,110.135781 126.256794,112.698409 C127.949708,115.322469 129.29772,118.182607 130.052466,120.834751 C130.197272,121.347276 129.900639,121.881742 129.387236,122.027426 C128.874711,122.173109 128.340245,121.876477 128.194561,121.363951 C127.491594,118.889085 126.2252,116.208857 124.632334,113.740134 C123.079838,111.331967 121.22281,109.134426 119.279777,107.531906 C113.638486,102.881439 112.359805,97.2699872 111.235584,92.3316637 C110.361483,88.4938657 109.586551,85.0922411 106.793989,83.1799242" id="Fill-21" fill="#000000"></path>
                <path d="M113.809006,94.9529156 C113.79672,95.483871 113.354403,95.9060024 112.823448,95.8928382 C112.29337,95.8814293 111.871239,95.4399904 111.883525,94.9081574 C111.917752,93.6049034 113.028809,91.6451954 114.561998,89.994407 C115.915276,88.5358156 117.63364,87.2562571 119.259855,86.8218391 C119.774136,86.6849316 120.304214,86.9903406 120.440244,87.5054989 C120.577151,88.0206573 120.27262,88.550735 119.757461,88.6867649 C118.505987,89.0211351 117.109706,90.0839234 115.973198,91.3081924 C114.728744,92.6483061 113.831824,94.110408 113.809006,94.9529156" id="Fill-23" fill="#000000"></path>
                <path d="M126.113918,114.041243 C125.705829,114.380879 125.097644,114.324712 124.758885,113.916622 C124.419249,113.508532 124.475417,112.900347 124.882629,112.561589 C126.153411,111.501434 126.932731,110.271899 127.293429,108.838758 C127.669047,107.346818 127.61288,105.609146 127.207423,103.592393 C127.104743,103.071091 127.441746,102.563831 127.963047,102.460273 C128.484349,102.356715 128.991609,102.694596 129.095167,103.21502 C129.557669,105.516119 129.613836,107.530239 129.166254,109.306526 C128.703752,111.13898 127.719071,112.702885 126.113918,114.041243" id="Fill-25" fill="#000000"></path>
                <path d="M117.386329,103.094348 C117.898854,103.234766 118.198998,103.766599 118.05858,104.279124 C117.916407,104.79165 117.385451,105.092671 116.872926,104.951375 C115.415212,104.546796 113.509039,103.571769 111.870537,102.348378 C110.425987,101.269792 109.154327,99.9744368 108.514548,98.661529 C108.281103,98.1823528 108.481199,97.6031288 108.960375,97.3705616 C109.439551,97.1371167 110.017897,97.3363347 110.251342,97.8155109 C110.746315,98.8309082 111.802083,99.8875532 113.025474,100.801147 C114.487576,101.892019 116.147141,102.751202 117.386329,103.094348" id="Fill-27" fill="#000000"></path>
                <path d="M102.878961,125.443356 C102.851755,125.974311 102.398908,126.383278 101.867075,126.357827 C101.336119,126.330621 100.927152,125.876896 100.95348,125.345941 C101.394919,116.760261 100.085522,111.787711 96.8848705,109.369889 C93.6649115,106.935393 88.3755431,106.938903 80.9211055,108.341328 C80.3980487,108.438743 79.8934217,108.093841 79.7960067,107.570784 C79.6985918,107.04685 80.0434934,106.5431 80.5674278,106.445685 C88.554576,104.943213 94.3152221,105.008157 98.0477065,107.82968 C101.802131,110.667 103.356382,116.150321 102.878961,125.443356" id="Fill-29" fill="#000000"></path>
                <path d="M89.1000997,105.584134 C89.481861,105.954486 89.4897595,106.566182 89.1194071,106.947065 C88.7499324,107.328827 88.1373592,107.337603 87.7564755,106.966373 C87.4738844,106.69168 87.1026544,106.082617 86.7928573,105.278725 C86.3417647,104.103602 85.9503497,102.394891 86.0749706,100.572968 C86.203102,98.704532 86.8630663,96.7079644 88.519998,95.0045192 C89.513455,93.9847339 90.8649777,93.0764053 92.6746139,92.3804589 C93.1695872,92.1908947 93.7268709,92.4392589 93.9164351,92.9351098 C94.1059994,93.4309606 93.8567575,93.9873667 93.3609066,94.1778086 C91.8400048,94.7622983 90.7157836,95.5135343 89.9013596,96.3481434 C88.6139025,97.6724601 88.1004994,99.2346098 87.999574,100.7011 C87.8960158,102.212348 88.2180995,103.621793 88.5884518,104.584533 C88.7973235,105.123387 88.9886429,105.47531 89.1000997,105.584134" id="Fill-31" fill="#000000"></path>
                <path d="M99.6204753,110.586962 C99.1316453,110.792323 98.5664631,110.562389 98.3602242,110.073559 C98.154863,109.583851 98.3839198,109.018669 98.8736273,108.81243 C99.7556275,108.4412 100.915831,107.835648 101.785544,106.919421 C102.590315,106.071647 103.149354,104.921098 102.967688,103.384399 C102.9045,102.855199 103.283628,102.374267 103.812828,102.311957 C104.341151,102.250524 104.822082,102.629652 104.884393,103.157975 C105.146799,105.370435 104.339396,107.026489 103.181825,108.247248 C102.087443,109.401308 100.682386,110.139379 99.6204753,110.586962" id="Fill-33" fill="#000000"></path>
                <path d="M130.678467,131.110975 C131.136581,130.84067 131.728969,130.99162 132.000151,131.449733 C132.270455,131.908724 132.119506,132.501112 131.660515,132.771417 C127.242615,135.390212 123.052017,136.955872 119.023778,136.811943 C114.933228,136.663627 111.077,134.771495 107.419112,130.467685 C107.075088,130.061351 107.126867,129.452288 107.532324,129.108264 C107.937781,128.76424 108.546844,128.815141 108.891746,129.220598 C112.159973,133.068928 115.545801,134.758331 119.091354,134.885585 C122.70185,135.016349 126.5572,133.554247 130.678467,131.110975" id="Fill-35" fill="#000000"></path>
                <path d="M117.167804,134.923146 C117.610998,134.630024 118.210407,134.751134 118.503529,135.195206 C118.795774,135.639278 118.674664,136.238687 118.231469,136.53181 C116.376197,137.758711 114.241845,138.749535 111.965319,139.126031 C110.015265,139.448992 107.967795,139.321739 105.914183,138.517846 C105.418332,138.323894 105.173478,137.763977 105.366553,137.268126 C105.559628,136.772275 106.120422,136.527421 106.615395,136.720496 C108.322351,137.389237 110.027551,137.492795 111.655522,137.224246 C113.631027,136.897774 115.513505,136.018406 117.167804,134.923146" id="Fill-37" fill="#000000"></path>
                <path d="M127.019175,133.31343 C127.522925,133.48632 127.792352,134.036583 127.62034,134.54121 C127.44745,135.044959 126.897187,135.313508 126.39256,135.141496 C124.898864,134.628093 123.473622,134.101526 122.236189,133.273938 C120.936446,132.403346 119.899986,131.235245 119.311108,129.485286 C119.142606,128.980659 119.414666,128.433907 119.919293,128.265405 C120.423043,128.096904 120.970673,128.368963 121.139174,128.87359 C121.571837,130.161925 122.34238,131.027251 123.307754,131.673173 C124.337193,132.361221 125.641324,132.841275 127.019175,133.31343" id="Fill-39" fill="#000000"></path>
                <path d="M132.686707,54.1343849 C133.210641,54.0387251 133.713513,54.3853819 133.809173,54.9084388 C133.904833,55.4314956 133.559053,55.9343674 133.035119,56.0300271 C131.902122,56.2415316 131.022754,56.5820451 130.144265,56.921681 C128.505763,57.5535618 126.862873,58.188953 123.693815,58.188953 C122.910985,58.188953 121.895588,57.9239141 120.747671,57.6228931 C119.394393,57.2692154 117.830488,56.8602482 116.440351,56.8602482 C115.906763,56.8602482 115.4741,56.4267078 115.4741,55.8931196 C115.4741,55.360409 115.906763,54.9268686 116.440351,54.9268686 C118.055157,54.9268686 119.758602,55.3735732 121.232113,55.7579673 C122.241367,56.0230062 123.135654,56.256451 123.693815,56.256451 C126.520604,56.256451 127.987971,55.688636 129.450073,55.1243314 C130.412814,54.7522238 131.379065,54.3792386 132.686707,54.1343849" id="Fill-41" fill="#000000"></path>
                <path d="M135.033091,66.386728 C135.564046,66.4306086 135.959849,66.8974983 135.916846,67.4284536 C135.872966,67.9602866 135.405198,68.3552121 134.874243,68.3122091 C133.836905,68.2262031 132.554714,67.9778388 131.157555,67.7075343 C128.293029,67.153761 124.905447,66.4990624 122.54467,67.0624894 C122.026001,67.1844775 121.5047,66.8623938 121.381834,66.3446026 C121.25809,65.8250563 121.581052,65.3037546 122.098843,65.1817666 C124.858056,64.5244351 128.467674,65.2212591 131.520009,65.8118921 C132.85749,66.0707877 134.086147,66.3086205 135.033091,66.386728" id="Fill-43" fill="#000000"></path>
                <path d="M131.307539,65.8139106 C131.83674,65.7594986 132.31065,66.145648 132.364184,66.6739705 C132.418596,67.2031706 132.033325,67.6770812 131.504125,67.7306155 C130.787993,67.8052125 129.952506,68.211547 129.169676,68.7196844 C127.869055,69.5613144 126.776428,70.6328789 126.471896,71.0427237 C126.155079,71.4692432 125.551281,71.5587597 125.124762,71.2428193 C124.696487,70.9268789 124.607848,70.3222042 124.923789,69.8948071 C125.304672,69.3822816 126.61758,68.0755171 128.119174,67.1031228 C129.126673,66.451057 130.247384,65.9244897 131.307539,65.8139106" id="Fill-45" fill="#000000"></path>
                <path d="M116.595337,43.4462976 C117.024489,43.1338677 117.626531,43.2295274 117.939839,43.6586797 C118.251391,44.0869544 118.156609,44.6889964 117.727457,45.0014263 C115.439522,46.669767 113.595659,47.3551821 111.679832,47.4552299 C109.800864,47.5535224 107.957878,47.0848775 105.573406,46.4363222 C104.788821,46.22394 104.126224,46.1045848 103.476791,46.0413967 C102.829113,45.9799638 102.128779,45.9676773 101.302946,45.9676773 C100.769357,45.9676773 100.336695,45.5350145 100.336695,45.0014263 C100.336695,44.4678381 100.769357,44.0351753 101.302946,44.0351753 C102.140188,44.0351753 102.874749,44.0492171 103.657579,44.1238142 C104.439531,44.2001664 105.20832,44.3353187 106.079788,44.5713964 C108.29927,45.1751935 110.006225,45.6113667 111.582417,45.5297488 C113.122626,45.4498861 114.645283,44.8671516 116.595337,43.4462976" id="Fill-47" fill="#000000"></path>
                <path d="M111.622523,45.9581991 C111.868255,45.487799 112.450112,45.304378 112.921389,45.5501094 C113.39179,45.7958408 113.57521,46.3785753 113.329479,46.8489754 C112.560691,48.3163429 111.490004,49.3062894 110.295574,50.0434836 C109.149412,50.750839 107.924266,51.2054421 106.745633,51.6345944 C106.244516,51.8162601 105.690743,51.5573646 105.510832,51.0571256 C105.330044,50.5568867 105.587185,50.0039911 106.087424,49.8223253 C107.178296,49.4256447 108.30866,49.006146 109.283687,48.4049817 C110.212201,47.8327786 111.038911,47.0710113 111.622523,45.9581991" id="Fill-49" fill="#000000"></path>
                <path d="M99.3976495,38.4946343 C99.8873571,38.2892731 100.452539,38.5192075 100.658778,39.0080374 C100.864139,39.497745 100.634205,40.0629272 100.145375,40.2691661 C98.2514881,41.0686708 97.1667595,41.7663724 96.2417563,42.3596382 C94.5988663,43.414528 93.4079467,44.1780506 89.5201248,44.729191 C88.9918023,44.8020328 88.5047276,44.4334357 88.4318858,43.9059908 C88.359044,43.3794235 88.7276411,42.8914712 89.255086,42.819507 C92.7172659,42.3297994 93.7607467,41.6593037 95.199153,40.7360558 C96.176813,40.1085631 97.3229744,39.3713689 99.3976495,38.4946343" id="Fill-51" fill="#000000"></path>
                <path d="M68.9405588,94.3592988 C68.5140393,94.6761167 67.9093646,94.5857227 67.5934242,94.1592032 C67.2774838,93.7326837 67.3661226,93.1280089 67.7926421,92.8120685 C75.0013483,87.4463479 76.2501904,82.8783767 77.5315041,78.1849069 C78.7566507,73.7020641 80.0125137,69.1077645 85.9223539,63.6630587 C86.8824615,62.7801809 87.7267244,61.8402583 88.2041454,60.7107715 C88.6745455,59.5997145 88.8123307,58.2438037 88.3945873,56.4710272 C88.2743544,55.9523584 88.5973157,55.4319344 89.1159845,55.3117016 C89.6355308,55.1905911 90.1541996,55.5153076 90.2753101,56.0330987 C90.7957341,58.2420485 90.6000266,59.9858638 89.9786772,61.4576194 C89.3643487,62.9100675 88.3577276,64.0430648 87.2291183,65.0830352 C81.7212245,70.156511 80.5399586,74.476118 79.389409,78.6904115 C78.0185789,83.7112306 76.6828532,88.5968974 68.9405588,94.3592988" id="Fill-53" fill="#000000"></path>
                <path d="M66.5316013,79.4283078 C66.2876251,79.9004631 65.7066458,80.0865169 65.2336129,79.844296 C64.7614576,79.6003198 64.5754038,79.0175853 64.8185023,78.54543 C66.6105863,75.0700859 67.2872253,71.7211179 67.9208613,68.5775112 C68.756348,64.4378147 69.5260139,60.6316109 72.5493877,57.1562668 C72.8969221,56.7534428 73.505985,56.7104398 73.9079313,57.0570966 C74.3098777,57.4055086 74.3537583,58.0136938 74.0053463,58.4165178 C71.3128322,61.5136111 70.591435,65.0784716 69.8094826,68.9548844 C69.1477631,72.230133 68.4430405,75.7203965 66.5316013,79.4283078" id="Fill-55" fill="#000000"></path>
                <path d="M70.0003633,69.193946 C69.5554139,69.483558 68.95776,69.3571819 68.668148,68.9113549 C68.3776584,68.4655279 68.5049122,67.867874 68.9507391,67.5773844 C69.9152349,66.9507694 70.6734918,66.5005543 71.3299457,66.1117721 C72.7025311,65.2982257 73.6178805,64.7541062 74.6683823,63.6246193 C75.0308361,63.2340819 75.6416541,63.2130192 76.0313139,63.575473 C76.4209737,63.9379269 76.442914,64.5487449 76.0804602,64.9384047 C74.8403942,66.2732528 73.8293851,66.8735395 72.311116,67.7722143 C71.6502741,68.164507 70.8858739,68.61911 70.0003633,69.193946" id="Fill-57" fill="#000000"></path>
                <path d="M53.4500024,94.1773698 C53.5746233,94.6934057 53.2569277,95.2155849 52.7400141,95.3402059 C52.2239782,95.4639492 51.701799,95.1462536 51.5771781,94.6302176 C49.7517448,87.1161024 52.1985274,82.8280895 54.8331191,78.2118496 C56.9350002,74.5267562 59.1676455,70.6152389 59.1676455,64.5368971 C59.1676455,64.003309 59.6003083,63.5706462 60.1338965,63.5706462 C60.6674847,63.5706462 61.1010251,64.003309 61.1010251,64.5368971 C61.1010251,71.117233 58.7358603,75.2586847 56.5093583,79.1631812 C54.0704742,83.4371523 51.8053572,87.4065921 53.4500024,94.1773698" id="Fill-59" fill="#000000"></path>
                <path d="M55.5958518,80.5361176 C55.507213,81.0609297 55.0078517,81.4137298 54.482162,81.3250909 C53.95735,81.2355745 53.6054275,80.7362132 53.6940663,80.2114011 C54.3031291,76.6474182 54.4189739,74.1471012 53.9898216,72.068038 C53.570323,70.0302226 52.6014392,68.3346759 51.0428,66.3609262 C50.7136955,65.9440605 50.784782,65.3367529 51.2016478,65.0094035 C51.6185136,64.680299 52.224066,64.7513856 52.5522929,65.1673737 C54.2978635,67.3772011 55.3878577,69.305315 55.8784429,71.6827663 C56.3611296,74.0189698 56.2461624,76.7343018 55.5958518,80.5361176" id="Fill-61" fill="#000000"></path>
                <path d="M51.8200133,59.2583234 C51.5163595,59.6927414 50.9151952,59.7998101 50.479022,59.4961563 C50.044604,59.1925025 49.9375353,58.5913381 50.2411891,58.1551649 C51.8472193,55.8610868 53.5840137,53.9829968 55.6507903,52.6665785 C57.7553043,51.3273424 60.1731257,50.5813721 63.0999622,50.5813721 C63.6335504,50.5813721 64.0662132,51.0140349 64.0662132,51.5467454 C64.0662132,52.0812112 63.6335504,52.513874 63.0999622,52.513874 C60.5583975,52.513874 58.4775791,53.1501428 56.6854951,54.2910386 C54.8556737,55.4556299 53.2891361,57.1590751 51.8200133,59.2583234" id="Fill-63" fill="#000000"></path>
                <path d="M39.0605859,88.4281326 C38.5480604,88.5667953 38.0188602,88.2640191 37.8793199,87.7523712 C37.7397796,87.2389681 38.0416782,86.709768 38.5550813,86.5702277 C40.4305384,86.0585798 42.0690403,84.4578152 43.1607898,82.4436954 C44.3034408,80.3391814 44.8291305,77.8116585 44.4061214,75.6114848 C44.3060737,75.0875504 44.64922,74.5820458 45.1731545,74.481998 C45.6962113,74.3828278 46.2017159,74.7259742 46.3026413,75.249031 C46.8107787,77.8967868 46.2008383,80.8955875 44.8598469,83.3660657 C43.5364078,85.8075827 41.4801626,87.7681683 39.0605859,88.4281326" id="Fill-65" fill="#000000"></path>
                <path d="M48.622258,117.979001 C49.0391237,118.309861 49.1093327,118.918046 48.7775953,119.334034 C48.4467355,119.7509 47.8394279,119.820231 47.4225622,119.489372 C44.2666689,116.987299 42.8203641,114.508923 42.3183699,111.589107 C41.8321728,108.760563 42.263958,105.614323 42.8651223,101.623821 C42.9432298,101.096376 43.4355702,100.733922 43.9630151,100.812907 C44.4913376,100.891893 44.8529138,101.384233 44.7748063,101.911678 C44.1990927,105.730168 43.7848598,108.732479 44.2201554,111.26439 C44.6405316,113.706785 45.8858633,115.808666 48.622258,117.979001" id="Fill-67" fill="#000000"></path>
                <path d="M61.9881154,101.44549 C61.9407244,100.91629 62.3312618,100.446768 62.8604619,100.400254 C63.3887844,100.352863 63.8583069,100.743401 63.905698,101.272601 C64.0715666,103.116464 64.5674175,104.906793 65.3230416,106.598829 C67.1037166,110.591086 70.3315741,114.030448 74.1412884,116.381571 C77.941349,118.724796 82.3065918,119.978026 86.3804674,119.609429 C87.9013692,119.471644 89.3871666,119.103924 90.7843251,118.48082 C91.2696447,118.264049 91.8400926,118.481697 92.0559851,118.967894 C92.273633,119.453214 92.0551075,120.023662 91.569788,120.239554 C89.9760444,120.95042 88.2857634,121.369919 86.553357,121.527011 C82.0547171,121.933346 77.2682205,120.572169 73.1311568,118.020073 C69.0063797,115.475876 65.5038297,111.73637 63.5625516,107.384292 C62.724432,105.507079 62.1741692,103.511389 61.9881154,101.44549" id="Fill-69" fill="#000000"></path>
                <path d="M75.7725061,119.020551 C75.6610494,118.499249 75.9910315,117.984091 76.5123331,117.872634 C77.0327571,117.759422 77.5479155,118.09116 77.6611274,118.612461 C78.3640948,121.812235 79.7252712,124.617961 81.4866388,126.872547 C83.3375228,129.238589 85.6263353,130.999079 88.0538105,131.967963 C88.5470285,132.162793 88.7892495,132.723587 88.5944196,133.216805 C88.3978344,133.710023 87.8379179,133.952244 87.3446999,133.756537 C84.6021619,132.661277 82.0298807,130.692793 79.970125,128.058201 C78.0323574,125.579824 76.5377839,122.509059 75.7725061,119.020551" id="Fill-71" fill="#000000"></path>
                <path d="M54.7520277,110.809524 C54.6168755,110.294366 54.9249173,109.767798 55.4391981,109.631769 C55.9534788,109.495739 56.4818013,109.803781 56.6169536,110.318939 C57.6788643,114.353322 59.7184349,116.169979 62.5671639,118.706278 L63.1788596,119.256541 C63.5746627,119.611096 63.6088895,120.220159 63.2552118,120.615962 C62.9006565,121.011765 62.2915937,121.045992 61.8957906,120.691437 L61.2849726,120.14644 C58.1826136,117.388982 55.9622549,115.4126 54.7520277,110.809524" id="Fill-73" fill="#000000"></path>
                <path d="M87.7366414,85.3695665 C87.5576086,85.8698054 87.0064681,86.1295786 86.5053516,85.9514234 C86.0051127,85.7732681 85.7453395,85.2203724 85.9243724,84.7201335 C87.5233817,80.2557205 90.0974181,77.0524362 93.3261532,74.9198387 C96.8611749,72.5853904 101.157086,71.5480528 105.803165,71.5480528 C106.336753,71.5480528 106.768538,71.9807156 106.768538,72.5151814 C106.768538,73.0487696 106.336753,73.4805548 105.803165,73.4805548 C101.518663,73.4805548 97.5852049,74.4187221 94.3906967,76.5276241 C91.4980871,78.4390634 89.1847015,81.327285 87.7366414,85.3695665" id="Fill-75" fill="#000000"></path>
                <path d="M93.8185814,76.5545668 C93.7518829,77.0820117 93.2700738,77.4549969 92.7426289,77.3882984 C92.2160616,77.3224775 91.8430764,76.8406684 91.9088973,76.3132235 C92.1142586,74.6905186 92.5495542,73.0318317 93.2665633,71.4214134 C93.9230172,69.9479026 94.8120383,68.5138843 95.971364,67.1799139 C96.3188984,66.7779675 96.9279612,66.7340869 97.3299076,67.0816213 C97.7318539,67.4300333 97.7757345,68.0382186 97.4273225,68.4401649 C96.3952506,69.6293294 95.6036445,70.901867 95.0270533,72.2033658 C94.3881517,73.6400169 94.0011247,75.1144053 93.8185814,76.5545668" id="Fill-77" fill="#000000"></path>
                <polygon id="Fill-79" fill="#000000" points="85.7380553 28.1145012 70.9011444 19.5490066 62.5059066 21.3007205 77.3436951 29.8670926"></polygon>
                <path d="M71.5155606,18.4799873 L86.2866507,27.0077445 C86.614,27.1692251 86.8667523,27.4755117 86.946615,27.8616611 C87.0861553,28.5295239 86.657003,29.1851002 85.9891401,29.3237629 L77.59478,31.0754768 C77.3078008,31.1351544 76.9980037,31.0939066 76.7233111,30.9350588 L61.8872778,22.3686867 C61.5941553,22.1984299 61.3721194,21.9096955 61.2975224,21.5516298 C61.1588597,20.8837669 61.5871344,20.2290683 62.2549973,20.0904055 L70.6502351,18.3386917 C70.935459,18.2825245 71.2435009,18.3228947 71.5155606,18.4799873 L71.5155606,18.4799873 Z M82.321599,27.5650282 L70.6958709,20.8539281 L65.9269265,21.8482627 L77.551777,28.561118 L82.321599,27.5650282 Z" id="Fill-81" fill="#000000"></path>
                <polygon id="Fill-83" fill="#000000" points="71.5349559 9.79873567 56.6989225 1.23236351 48.8697446 10.4165746 63.7075331 18.9820692"></polygon>
                <path d="M57.3123734,0.163607442 L72.0869739,8.69311989 C72.1756127,8.73787811 72.2607411,8.79316767 72.3388486,8.86074381 C72.8566398,9.30306033 72.9163174,10.0841351 72.4731232,10.6019263 L64.6579871,19.771218 C64.2797362,20.2258211 63.6171391,20.3574629 63.0888166,20.0511763 L48.2519056,11.4848041 L48.0676071,11.3540399 C47.5489383,10.9117234 47.4901383,10.1306486 47.9333324,9.61285742 L55.7598775,0.42864631 C56.139006,-0.0110373754 56.7901942,-0.1356583 57.3123734,0.163607442 L57.3123734,0.163607442 Z M69.634048,10.1245053 L56.9727375,2.81487373 L50.7732853,10.0876456 L63.4345958,17.3981548 L69.634048,10.1245053 Z" id="Fill-85" fill="#000000"></path>
                <polygon id="Fill-87" fill="#000000" points="63.7072698 18.9822447 48.8703589 10.4167501 44.4191101 10.8573114 59.2551434 19.4236836"></polygon>
                <path d="M49.4903919,9.34685317 L64.3264252,17.9132253 C64.657285,18.1071776 64.8951179,18.4512016 64.935488,18.8610464 C65.0021866,19.538563 64.5054581,20.1441154 63.8279415,20.2108139 L59.3766927,20.6513752 C59.1283285,20.6733155 58.8720657,20.6241692 58.6412537,20.4916498 L43.8482234,11.9507284 C43.4910353,11.763797 43.2321397,11.4074865 43.1900143,10.9774565 C43.1241934,10.29994 43.6191666,9.6952652 44.2975608,9.62856667 L48.7137051,9.19151582 C48.9726007,9.15816656 49.2464157,9.20555762 49.4903919,9.34685317 L49.4903919,9.34685317 Z M59.7654749,18.1317508 L48.5952275,11.6839343 L48.356517,11.7067522 L59.5258868,18.1563239 L59.7654749,18.1317508 Z" id="Fill-89" fill="#000000"></path>
                <polygon id="Fill-91" fill="#F4D9DC" points="56.5739506 11.2773366 41.7379172 2.71096446 30.4009235 9.25619584 45.2387121 17.822568"></polygon>
                <path d="M42.3508416,1.64282271 L57.1289525,10.1732128 C57.3369466,10.2776486 57.5177347,10.4417621 57.6432332,10.6576547 C57.9846243,11.2465324 57.7827735,12.0039117 57.1938958,12.3453028 L45.8577797,18.8905342 C45.488305,19.1011611 45.0187825,19.1169581 44.6247346,18.8905342 L29.8466237,10.3610218 C29.6386296,10.2565859 29.4569639,10.0915948 29.332343,9.87570225 C28.9909519,9.2868245 29.1928027,8.52944522 29.7816804,8.1880541 L41.1177965,1.64282271 C41.4872712,1.4321958 41.9567937,1.41552117 42.3508416,1.64282271 L42.3508416,1.64282271 Z M54.1064563,11.2754936 L41.7400235,4.13611882 L32.8682423,9.2578633 L45.2355527,16.3972381 L54.1064563,11.2754936 Z" id="Fill-93" fill="#000000"></path>
                <polygon id="Fill-95" fill="#000000" points="45.238361 17.8223925 30.4014501 9.25602032 27.7221002 20.4973543 42.5581336 29.0628488"></polygon>
                <path d="M31.014901,8.18814186 L45.7552746,16.6974692 C46.2800867,16.937935 46.5819852,17.5241799 46.4433225,18.1077919 L43.763095,29.3473707 C43.7332562,29.4623379 43.6893756,29.5746722 43.6270651,29.6826185 C43.2847964,30.2706187 42.5282947,30.4733471 41.939417,30.131956 L27.1762255,21.6077092 C26.6689656,21.3593449 26.3819865,20.7836314 26.5180164,20.2114283 L29.1973662,8.9718495 C29.2289603,8.85951515 29.2710857,8.74805841 29.3325185,8.64274495 C29.6712768,8.0538672 30.4260232,7.84938357 31.014901,8.18814186 L31.014901,8.18814186 Z M43.821895,18.4272428 L31.2211398,11.1535933 L29.1394438,19.888467 L41.7393214,27.1629941 L43.821895,18.4272428 Z" id="Fill-97" fill="#000000"></path>
                <polygon id="Fill-99" fill="#F4D9DC" points="42.557958 29.0626733 27.7219247 20.4971788 23.2697983 25.1967918 38.1058316 33.763164"></polygon>
                <path d="M28.3411678,19.4275451 L43.1772012,27.9939172 C43.2596967,28.0421859 43.3369266,28.1001083 43.4088908,28.1676844 C43.9021088,28.6372069 43.9222939,29.4209146 43.4527714,29.913255 L38.9997673,34.6137457 C38.6162508,35.015692 37.9931462,35.1192503 37.4911521,34.8313935 L22.7139188,26.3001258 C22.6094829,26.2483467 22.5085575,26.1781377 22.4190411,26.0921317 C21.925823,25.6226092 21.905638,24.8397792 22.3751605,24.3465612 L26.7983257,19.6776645 C27.1792094,19.2458794 27.8242543,19.129157 28.3411678,19.4275451 L28.3411678,19.4275451 Z M40.5864901,29.3507056 L27.9479976,22.0533606 L25.2405641,24.912621 L37.8773014,32.2082108 L40.5864901,29.3507056 Z" id="Fill-101" fill="#000000"></path>
                <polygon id="Fill-103" fill="#000000" points="38.1059194 33.7632517 23.269886 25.1968796 15.4415857 25.0538288 30.2784966 33.6193233"></polygon>
                <path d="M23.8836002,24.1290011 L38.6836514,32.673433 C39.0803321,32.8840599 39.3462486,33.3044361 39.3393635,33.7827347 C39.3278188,34.4628841 38.766147,35.0070037 38.0859976,34.9955947 L30.3164973,34.8542991 C30.0935838,34.8621977 29.8654046,34.8086633 29.6582881,34.6884305 L14.8213772,26.1220583 C14.4501473,25.9026553 14.201783,25.4954432 14.2078149,25.0338192 C14.2193353,24.3519146 14.7801294,23.8086727 15.4611565,23.819204 L23.2894568,23.96401 C23.4913076,23.9683981 23.6966688,24.0210548 23.8836002,24.1290011 L23.8836002,24.1290011 Z M33.3530353,32.442621 L22.9296358,26.4257121 L20.200262,26.373933 L30.6227839,32.3934747 L33.3530353,32.442621 Z" id="Fill-105" fill="#000000"></path>
                <polygon id="Fill-107" fill="#F4D9DC" points="30.2782334 33.6192356 15.4413224 25.053741 7.43837726 38.9147473 22.2752882 47.4802418"></polygon>
                <path d="M16.0604778,23.9838441 L30.8965111,32.5510938 C31.4818784,32.892485 31.6837292,33.6454762 31.3458485,34.2343539 L23.3446586,48.0953602 C23.0059003,48.6842379 22.2511539,48.8887215 21.6613985,48.5490856 L6.82448757,39.9835911 C6.23473221,39.6448328 6.03112619,38.8900864 6.36900686,38.300331 L14.371952,24.4340591 C14.7142208,23.8451813 15.4707224,23.6424529 16.0604778,23.9838441 L16.0604778,23.9838441 Z M28.5919016,34.0746285 L15.890221,26.7386686 L9.12295378,38.4635669 L21.8246344,45.796894 L28.5919016,34.0746285 Z" id="Fill-109" fill="#000000"></path>
                <polygon id="Fill-111" fill="#000000" points="22.275376 47.4804173 7.43934264 38.9149228 11.4781137 45.6225124 9.633373 51.8263527 24.4702839 60.3918472 26.3141471 54.188007"></polygon>
                <path d="M8.05279353,37.8461667 L22.8072089,46.3642702 C23.0187135,46.464318 23.2047672,46.6266762 23.3346538,46.8416912 L27.3743025,53.5484032 C27.5445593,53.83626 27.6016041,54.1908153 27.4998011,54.5365945 L25.6550603,60.7404348 C25.6269767,60.8317064 25.5883618,60.9212229 25.5392155,61.0063512 C25.2013349,61.5961066 24.4465884,61.7997126 23.8568331,61.4618319 L9.08486541,52.9323195 C8.5565429,52.6707911 8.27746224,52.0617283 8.44859661,51.4772386 L10.138,45.7938223 L6.38006478,39.554 C6.15978413,39.1792596 6.13872144,38.7018386 6.36953343,38.3007698 C6.70916933,37.7110144 7.46303817,37.5065308 8.05279353,37.8461667 L8.05279353,37.8461667 Z M21.3767011,48.385411 L10.9647106,42.3737678 L12.5356364,44.9820311 C12.7339767,45.3120132 12.7620603,45.6964074 12.6427051,46.0325328 L11.0945972,51.245549 L23.7322121,58.542894 L24.9757885,54.3601945 L21.3767011,48.385411 Z" id="Fill-113" fill="#000000"></path>
                <polygon id="Fill-115" fill="#F4D9DC" points="24.4707227 60.3921105 9.63381181 51.826616 1.23769641 59.7681283 16.0746073 68.335378"></polygon>
                <path d="M10.2529672,50.7575966 L25.0890005,59.3239688 C25.1872931,59.3854016 25.2811976,59.4582434 25.3645707,59.5468822 C25.8305828,60.0401003 25.8086425,60.8202975 25.316302,61.2871871 L16.9939061,69.1611233 C16.6112672,69.5867652 15.9688551,69.70261 15.4545744,69.4042219 L0.61854104,60.8387273 C0.52024848,60.7764169 0.42634398,60.7035751 0.342970827,60.6158138 C-0.123041223,60.1225958 -0.101100919,59.341521 0.392117107,58.875509 L8.71451309,51.0015728 C9.09627437,50.5750533 9.73868646,50.4592085 10.2529672,50.7575966 L10.2529672,50.7575966 Z M22.4210596,60.6368765 L9.80977304,53.3544509 L3.28560435,59.5258196 L15.8977685,66.8073675 L22.4210596,60.6368765 Z" id="Fill-117" fill="#000000"></path>
                <polygon id="Fill-119" fill="#000000" points="16.0741685 68.3349392 1.23813522 59.7685671 1.23813522 72.8590298 10.4205911 78.1606848 7.43934264 86.5532898 22.275376 95.1196619 26.3141471 83.7484413 24.4702839 79.6728105 16.0741685 74.824881"></polygon>
                <g id="Group-123" transform="translate(0.000000, 58.534447)">
                    <mask id="mask-2" fill="white">
                        <use xlink:href="#path-1"></use>
                    </mask>
                    <g id="Clip-122"></g>
                    <path d="M1.85685178,0.165890757 L16.6928851,8.73226291 C17.059727,8.9481555 17.3080912,9.3457138 17.3080912,9.80119451 L17.3080912,15.5758824 L25.0433647,20.0420506 C25.2811976,20.1657939 25.4804155,20.3676447 25.5980155,20.6300508 L27.4427563,24.7065592 C27.5682548,24.9865175 27.5919503,25.3129892 27.4813712,25.6254191 L23.4417225,36.9966397 L23.3443076,37.2046338 C23.0029164,37.7943891 22.2464148,37.9962399 21.6566594,37.6539712 L6.86801713,29.114805 C6.33004089,28.8357243 6.06675724,28.1950675 6.27387371,27.6079449 L8.91109821,20.181591 L0.696648521,15.4372197 C0.284170813,15.2362465 -0.000175522429,14.8132375 -0.000175522429,14.3244075 L-0.000175522429,1.23482235 C0.00245731401,1.02419544 0.0559916549,0.810935685 0.169203622,0.616105788 C0.510594746,0.0272280383 1.26709642,-0.175500367 1.85685178,0.165890757 L1.85685178,0.165890757 Z M14.8411235,10.5155708 L2.47644595,3.37619599 L2.47644595,13.6126641 L11.0393077,18.5580085 C11.5614869,18.8599071 11.7791347,19.4873998 11.5851824,20.036785 L8.94795792,27.4631389 L21.6075131,34.7736481 L24.9828094,25.2708638 L23.5075434,22.0070242 L15.455452,17.3591903 C15.0403414,17.117847 14.8165503,16.6702648 14.8420011,16.221805 L14.8411235,10.5155708 Z" id="Fill-121" fill="#000000" mask="url(#mask-2)"></path>
                </g>
                <polygon id="Fill-124" fill="#000000" points="42.557958 90.1155175 27.7219247 81.5500229 30.4012746 89.6960189 45.2381855 98.262391"></polygon>
                <path d="M28.334849,80.4810036 L43.0813659,88.994719 C43.379754,89.1333817 43.6228526,89.3905221 43.7334317,89.7284027 L46.4154145,97.8752763 C46.5154622,98.1982376 46.4891339,98.561569 46.3083458,98.8775094 C45.9695875,99.4663871 45.214841,99.6708707 44.6250857,99.3321125 L29.8785688,90.818397 C29.5801807,90.6788567 29.3370821,90.4217163 29.226503,90.0838357 L26.5453979,81.9369621 C26.4444725,81.6140008 26.4708008,81.251547 26.6515889,80.9356067 C26.9903472,80.3458513 27.7450937,80.1422453 28.334849,80.4810036 L28.334849,80.4810036 Z M41.5279924,90.9438956 L29.90753,84.2363059 L31.4319423,88.8683428 L43.0524047,95.5768101 L41.5279924,90.9438956 Z" id="Fill-126" fill="#000000"></path>
                <path d="M45.8416316,63.5417727 L31.0055983,54.9754006 C31.895497,55.4396574 32.7002674,55.5511141 33.7007452,55.3791022 C36.96634,54.8130423 39.8826452,51.4667072 41.3886276,48.6723901 C42.788419,46.0755358 43.958276,42.0920543 42.7085563,39.2582447 C42.3452248,38.4350445 41.8818456,37.906722 41.1349977,37.4301786 L55.9719086,45.9965507 C58.7258555,47.6675242 58.2528226,51.9037581 57.4059269,54.5006124 C56.2272938,58.112864 53.2179617,62.378059 49.5390116,63.6786802 C48.4411188,64.0665848 47.1913991,64.1850624 46.1084257,63.6813131 L45.8416316,63.5417727 Z" id="Fill-128" fill="#000000"></path>
                <path d="M35.4912495,56.139202 L46.4438491,62.4623976 L46.6729059,62.5817528 C46.9914791,62.7212931 47.3442791,62.7818484 47.7023449,62.7818484 C48.1780107,62.7765827 48.6685959,62.6739021 49.127587,62.5132991 C50.6177725,61.9876094 52.0070325,60.873042 53.1777671,59.5065998 C54.5714152,57.8812622 55.6456124,55.9101453 56.2301021,54.1171837 C56.667153,52.7753147 56.9980128,50.9586575 56.7364843,49.4087945 C56.5741261,48.4425435 56.1704245,47.5868717 55.3875945,47.0857551 L44.3884814,40.734476 C44.5192457,41.6858076 44.4929173,42.6818974 44.3560098,43.6709663 C44.0742963,45.6912294 43.3116513,47.7097374 42.4779198,49.2578452 C41.5888987,50.9086337 40.2303551,52.7481087 38.5997517,54.1698404 C37.6519306,54.9956734 36.6066945,55.6898646 35.4912495,56.139202 L35.4912495,56.139202 Z M45.2230906,64.6099145 L30.3870573,56.0444199 C29.7973019,55.7030288 29.5945735,54.9456495 29.9368422,54.3558942 C30.2782334,53.7670164 31.0356126,53.5651656 31.6244904,53.9065567 C31.9228785,54.057506 32.2063472,54.1514105 32.4915712,54.1926583 C32.7934698,54.2374165 33.1208191,54.2233747 33.4929267,54.1601867 C34.7128075,53.9486821 35.9072377,53.243082 36.9752916,52.3119355 C38.3645517,51.0999531 39.5308982,49.5167408 40.3005641,48.0871106 C41.0184508,46.7540178 41.6713942,45.033898 41.9092271,43.3313304 C42.08826,42.049139 42.0329704,40.7871328 41.5766121,39.7559385 C41.4432151,39.4531623 41.2984091,39.2135742 41.1325404,39.0222548 C40.9693045,38.8335681 40.7683313,38.664189 40.5217223,38.5027084 L40.4716984,38.4693591 C39.8986177,38.1042724 39.7292386,37.3407499 40.0943252,36.7676691 C40.4515134,36.2086302 41.1860747,36.0331078 41.7530122,36.36309 L56.6899709,44.9917726 C58.1652369,45.9220414 58.9024311,47.3858985 59.1736133,49.0024601 C59.5106163,51.0007829 59.1139356,53.24747 58.5812251,54.8824615 C57.9045861,56.956259 56.6645201,59.2345401 55.0541019,61.1135077 C53.619206,62.7862364 51.8762683,64.1649651 49.9499096,64.8442369 C49.2416766,65.0934788 48.4711331,65.2532042 47.7023449,65.2532042 C46.9862134,65.2488161 46.2656938,65.1145415 45.5872996,64.7977235 L45.2230906,64.6099145 Z" id="Fill-130" fill="#000000"></path>
                <path d="M55.9714698,57.6939797 C58.7684197,52.8495607 58.7684197,47.6119714 55.9714698,45.9962874 C53.1745199,44.3814811 48.6390203,47.0002757 45.8411928,51.8446948 C43.0451205,56.6899914 43.0451205,61.9275807 45.8411928,63.5415095 C48.6390203,65.1563158 53.1745199,62.5375212 55.9714698,57.6939797 L55.9714698,57.6939797 Z M75.4992177,55.3516329 L79.5388664,62.0592225 C76.8709255,66.6789729 74.2029845,71.2996008 71.5359212,75.9202288 L63.7076209,75.7754228 L59.2554945,80.4759134 L56.5743894,91.7172474 C52.7953915,93.8981136 49.0163936,96.080735 45.2382733,98.2624788 L42.5580458,90.1156052 L38.106797,90.5561665 L30.2784966,99.7395 C27.6105557,98.1992907 24.9434924,96.659959 22.2755515,95.1197497 L26.3143226,83.7494067 L24.4704595,79.6728983 L16.0743441,81.4246121 C16.0752217,77.0611246 16.0752217,72.697637 16.0743441,68.335027 L24.4704595,60.3917595 L26.3143226,54.1879192 L22.2755515,47.4803296 C24.9426148,42.8605792 27.6096781,38.2390737 30.2784966,33.6193233 L38.1059194,33.7632517 L42.5580458,29.0627611 L45.2382733,17.8223047 C49.0163936,15.6405609 52.7953915,13.4588171 56.5743894,11.2770733 L59.2554945,19.4239469 L63.7076209,18.982508 L71.5350436,9.79829686 C74.2021069,11.3385062 76.8709255,12.8787155 79.5379888,14.4189248 L75.4992177,25.7901454 L77.3430808,29.8666538 L85.7383186,28.1140623 L85.7383186,41.2054027 L77.3430808,49.1460374 L75.4992177,55.3516329 Z" id="Fill-132" fill="#F4D9DC"></path>
                <path d="M59.3069225,50.63359 C59.3069225,48.0779834 58.4012268,45.9734695 56.590713,44.9282334 L56.5073398,44.8834752 C54.7143782,43.8935287 52.4738344,44.1726094 50.2938458,45.42935 C48.2806035,46.5904309 46.2796479,48.6159597 44.774543,51.224223 L44.7332953,51.2996976 C43.2492531,53.8974296 42.5067932,56.6101287 42.5067932,58.9042069 C42.5067932,61.4571806 43.4142442,63.5625721 45.2273909,64.6095634 C47.0343943,65.6530443 49.309165,65.384495 51.5207476,64.1084469 C53.5331122,62.9482436 55.5340679,60.9227148 57.0391728,58.3144515 L57.0804205,58.2380993 C58.5635851,55.6430001 59.3069225,52.9276682 59.3069225,50.63359 L59.3069225,50.63359 Z M54.9390469,57.0173408 C56.2001756,54.8110238 56.8311787,52.5336203 56.8311787,50.63359 C56.8311787,48.9564732 56.337083,47.6347893 55.3532798,47.0660966 L55.3041336,47.0362578 C54.3194527,46.5053025 52.9486226,46.744013 51.5216252,47.5672132 C49.8690815,48.5203 48.2016185,50.2298884 46.9115286,52.4616561 L46.8755465,52.5204561 C45.6144178,54.7285283 44.9834147,57.0050542 44.9834147,58.9042069 C44.9834147,60.5830789 45.4739999,61.906518 46.4560479,62.4734555 C47.4433616,63.0421481 48.8396425,62.8087033 50.2920906,61.9714613 C51.9446343,61.0192521 53.6129749,59.3087861 54.9021872,57.0761408 L54.9390469,57.0173408 Z M78.1036195,62.0741419 L74.4404664,55.9896569 C74.2702096,55.7026778 74.2131648,55.3481225 74.3149679,55.0023433 L76.158831,48.7967478 C76.222019,48.5957746 76.3334758,48.4062104 76.4975893,48.2517506 L84.4996568,40.6823459 L84.4996568,29.6349642 L77.6490164,31.0645944 C77.0776909,31.210278 76.4659952,30.9303197 76.2149981,30.3747912 L74.3728903,26.2982828 C74.2465141,26.0183245 74.2245738,25.6909752 74.3333977,25.3794229 L78.0290225,14.9718205 L71.8093852,11.3806316 L64.6454372,19.7855231 C64.4435864,20.0180903 64.1583625,20.1778157 63.8275027,20.2102874 L59.471036,20.6429501 C58.8751374,20.7482636 58.2739731,20.403362 58.0800208,19.8109738 L55.8728262,13.106017 L46.3191404,18.6200542 L43.7626562,29.347985 C43.7108771,29.5533463 43.6090741,29.7490538 43.4528591,29.9140449 L38.9998551,34.6136579 C38.7690431,34.853246 38.4443266,35.0024401 38.0862609,34.9954192 L30.9811129,34.8655326 L23.7092187,47.4627773 L27.3723718,53.5490176 C27.5435062,53.8359967 27.6014286,54.190552 27.4987479,54.5363312 L25.6548848,60.7410491 C25.5916967,60.9428999 25.4793624,61.1324641 25.3161265,61.2869238 L17.3123038,68.8580838 L17.3123038,79.9045879 L24.1638218,78.4740801 C24.7351473,78.3283965 25.346843,78.6092324 25.5969624,79.1647609 L27.4417031,83.2403917 C27.5672017,83.5212276 27.5900196,83.8468217 27.4803181,84.1601292 L23.7846933,94.5677316 L30.003453,98.1580429 L37.1682786,89.754029 C37.3701293,89.5205842 37.6553533,89.3608588 37.9862131,89.3283871 L42.3619872,88.8948467 C42.9534978,88.8000646 43.5423756,89.1458438 43.733695,89.7329663 L45.9382567,96.4344127 L55.4928202,90.9186203 L58.0510596,80.1906895 C58.1028387,79.9853282 58.2046417,79.7896207 58.3608567,79.6255072 L62.8138607,74.9250166 C63.0446727,74.6845509 63.3693892,74.5362344 63.7283325,74.5423777 L70.8290924,74.6731419 L78.1036195,62.0741419 Z M76.8389804,55.1778657 L80.5969156,61.4194433 C80.8496679,61.8371867 80.8242171,62.3462017 80.5758529,62.7314734 L72.6036242,76.5380677 C72.359648,76.9601992 71.9024121,77.1831126 71.4460537,77.1515186 L64.2312043,77.0181216 L60.3837527,81.0805882 L57.7789998,92.003349 C57.6877281,92.3859878 57.4279549,92.684376 57.0953399,92.8397133 L45.8522507,99.3305328 C45.2624954,99.6701687 44.5077489,99.465685 44.1689906,98.8759297 L44.0654324,98.6433624 L41.6923692,91.4416772 L38.7242849,91.7347996 L31.216313,100.543393 C30.8082233,101.020814 30.1096441,101.108575 29.5971186,100.769817 L21.6617496,96.1886813 C21.1386927,95.8876603 20.9192897,95.2601676 21.1123643,94.7099048 L24.9835115,83.8055739 L23.7513441,81.0840986 L16.3249901,82.6339617 C15.6580049,82.7726244 15.0033062,82.3443497 14.8646435,81.6764868 L14.8383151,81.4246121 L14.8365599,68.335027 C14.8365599,67.9330806 15.0270017,67.5767701 15.3218794,67.3512238 L23.3783589,59.7309175 L24.975613,54.3599312 L21.2168002,48.1183536 C20.957027,47.6883236 20.9912539,47.1635116 21.258048,46.7747294 L29.2083364,33.0049948 C29.4391484,32.6030485 29.8639127,32.3810126 30.2974531,32.3862783 L37.5825115,32.5196753 L41.4299631,28.4589639 L44.0338384,17.5370808 C44.1242324,17.1535643 44.3848832,16.8542985 44.7166206,16.6998388 L55.9597098,10.2081417 C56.5494652,9.87026106 57.3042116,10.0738671 57.6429699,10.6636224 L57.7447729,10.8918016 L60.1222242,18.0978749 L63.0894309,17.8029972 L70.5974028,8.99528175 C71.0063701,8.51698313 71.7040717,8.42922191 72.2165972,8.76885782 L80.1519662,13.3491156 C80.6759007,13.6510142 80.8953037,14.2793845 80.7004738,14.8287697 L76.8310819,25.7339782 L78.0606165,28.4545759 L85.4860929,26.9055904 C86.1539557,26.7669277 86.8086544,27.1952024 86.9473171,27.8630653 L86.9727678,28.1140623 L86.9762783,41.2054027 C86.9762783,41.6055939 86.7849588,41.962782 86.4892035,42.1892059 L78.4344793,49.807757 L76.8389804,55.1778657 Z" id="Fill-134" fill="#000000"></path>
                <path d="M55.9714698,57.6939797 C53.1745199,62.5375212 48.6390203,65.1563158 45.8411928,63.5415095 C43.0451205,61.9275807 43.0451205,56.6899914 45.8411928,51.8446948 C48.6390203,47.0002757 53.1745199,44.3814811 55.9714698,45.9962874 C58.7684197,47.6119714 58.7684197,52.8495607 55.9714698,57.6939797 M65.0687973,62.9456108 C72.8900768,49.3987897 72.8900768,34.7549535 65.0687973,30.239639 C57.2475179,25.7243245 44.5660224,33.045365 36.7447429,46.5930637 C28.9225859,60.1407624 28.9234635,74.7828434 36.7447429,79.2990355 C44.5660224,83.8152276 57.2466403,76.4941871 65.0687973,62.9456108" id="Fill-136" fill="#3D68EC"></path>
                <path d="M59.3069225,50.63359 C59.3069225,52.9267905 58.5644627,55.6421225 57.0804205,58.2389769 L57.040928,58.3135739 C55.5340679,60.9227148 53.5331122,62.9482436 51.5207476,64.1084469 C49.3100426,65.384495 47.0343943,65.6530443 45.2273909,64.6095634 C43.4142442,63.5625721 42.5067932,61.4571806 42.5067932,58.9042069 C42.5067932,56.6101287 43.2492531,53.8974296 44.7332953,51.2996976 L44.774543,51.224223 C46.2796479,48.6159597 48.2806035,46.5904309 50.2938458,45.42935 C52.4738344,44.1726094 54.7143782,43.8935287 56.5073398,44.8834752 L56.590713,44.9282334 C58.4012268,45.9734695 59.3069225,48.0779834 59.3069225,50.63359 L59.3069225,50.63359 Z M54.9399245,57.0164631 L54.9030648,57.0752632 C53.6138526,59.3087861 51.9446343,61.0192521 50.2920906,61.9714613 C48.8396425,62.8087033 47.4451168,63.0430258 46.4560479,62.4734555 C45.4739999,61.906518 44.9834147,60.5830789 44.9834147,58.9042069 C44.9834147,57.0050542 45.6144178,54.7285283 46.8755465,52.5204561 L46.9115286,52.4616561 C48.2016185,50.2298884 49.8690815,48.5203 51.5216252,47.5672132 C52.9486226,46.744013 54.3194527,46.5053025 55.3041336,47.0362578 L55.3532798,47.0660966 C56.337083,47.6347893 56.8311787,48.9564732 56.8311787,50.63359 C56.8311787,52.5327427 56.1992979,54.8092686 54.9399245,57.0164631 L54.9399245,57.0164631 Z M66.1005182,63.6292707 C62.0863202,70.5588962 56.810116,75.9132079 51.51987,78.9664205 C46.0646329,82.1144153 40.5479629,82.848099 36.2467858,80.4320328 L36.0344037,80.3109223 C31.7727191,77.7965635 29.6409992,72.6441026 29.6409992,66.3349489 C29.643632,60.2346669 31.6419549,52.9952443 35.6333349,46.0542098 L35.6763379,45.9717143 C39.6966791,39.0096171 44.9886804,33.6342427 50.2894577,30.5740092 C55.7797993,27.406707 61.3289409,26.6817993 65.6441599,29.1461342 L65.6889181,29.1707074 C70.0058922,31.6648811 72.1674509,36.8480584 72.1683358,43.2054808 C72.1727166,49.2899658 70.1796594,56.5197347 66.1961779,63.4581363 L66.1005182,63.6292707 Z M64.0390072,62.2601957 L64.0565595,62.2321121 C67.8153723,55.6851255 69.6969811,48.8967956 69.6969811,43.2054808 C69.7013608,37.7669183 67.9724649,33.389389 64.5199387,31.3498183 L64.3874193,31.2734661 C60.8971558,29.2970835 56.2405457,29.9886419 51.5268909,32.7092395 C46.5797912,35.5684999 41.6151393,40.6279339 37.8142011,47.2109026 L37.7808518,47.2653146 C34.0009763,53.8316087 32.112355,60.6374909 32.112355,66.3349489 C32.116743,71.8121263 33.8667017,76.2098408 37.3622308,78.2283487 L37.4192756,78.2634532 C40.9139272,80.2433462 45.5740477,79.5517878 50.291213,76.8285573 C55.2356798,73.9754403 60.1941884,68.9168838 63.994249,62.336548 L64.0390072,62.2601957 Z" id="Fill-138" fill="#000000"></path>
                <path d="M0.618453279,73.9270838 C0.0286979172,73.5856927 -0.172275264,72.829191 0.169115861,72.2394357 C0.510506985,71.6496803 1.26700865,71.4487071 1.85676402,71.7900982 L16.6927973,80.3555928 C17.2825527,80.6969839 17.4844035,81.4543632 17.1430124,82.0441186 C16.8016212,82.6338739 16.044242,82.8348471 15.4544866,82.493456 L0.618453279,73.9270838 Z" id="Fill-140" fill="#000000"></path>
                <path d="M10.8629076,46.6903031 C10.2731523,46.3515448 10.0695462,45.5967984 10.4083045,45.0079206 C10.7470628,44.4181653 11.5018093,44.2136816 12.0915646,44.5524399 L26.9293532,53.1188121 C27.5182309,53.458448 27.7227146,54.2123168 27.3839563,54.8020722 C27.0460756,55.3909499 26.2904515,55.5945559 25.7015738,55.2566753 L10.8629076,46.6903031 Z" id="Fill-142" fill="#000000"></path>
            </g>
        </g>
    </g>
</svg>