<?xml version="1.0" encoding="UTF-8"?><svg id="Layer_2" xmlns="http://www.w3.org/2000/svg" viewBox="0 0 328.31 423.36"><defs><style>.cls-1{stroke:#000;stroke-miterlimit:10;stroke-width:4px;}.cls-1,.cls-2{fill:#f8d754;}.cls-3,.cls-2,.cls-4,.cls-5,.cls-6,.cls-7,.cls-8{stroke-width:0px;}.cls-4{fill:#05b173;}.cls-5{fill:#14100d;}.cls-6{fill:#130f0c;}.cls-7{fill:#15110e;}.cls-8{fill:#007f4e;}</style></defs><g id="Layer_1-2"><path class="cls-4" d="M314.86,160.51v173.98s-149.9,86.55-149.9,86.55c-.36.21-.8-.05-.8-.46v-173.05s150.7-87.01,150.7-87.01Z"/><path class="cls-3" d="M164.69,422.1c-.27,0-.53-.07-.77-.21-.47-.27-.77-.78-.77-1.33v-173.05c0-.36.19-.69.5-.87l150.71-87.01c.31-.18.69-.18,1,0,.31.18.5.51.5.87v173.98c0,.36-.19.69-.5.87l-149.9,86.54c-.24.14-.5.21-.77.21ZM165.15,248.09v171.67l148.71-85.85v-171.67l-148.71,85.85Z"/><path class="cls-7" d="M163.79,422.12c-.55-.32-.89-.91-.89-1.55v-173.78s153.22-88.46,153.22-88.46v176.88s-150.53,86.91-150.53,86.91c-.28.16-.58.24-.89.24s-.62-.08-.9-.24ZM313.6,162.68l-148.19,85.56v171.08s148.19-85.56,148.19-85.56v-171.08Z"/><path class="cls-3" d="M164.69,423.36c-.49,0-.97-.13-1.4-.37,0,0,0,0,0,0-.86-.5-1.39-1.42-1.39-2.41v-173.78c0-.36.19-.69.5-.87l153.22-88.46c.31-.18.69-.18,1,0,.31.18.5.51.5.87v176.88c0,.36-.19.69-.5.87l-150.53,86.91c-.43.24-.91.37-1.39.37ZM164.29,421.25c.25.14.55.14.79,0l150.03-86.62v-174.57l-151.22,87.3v173.2c0,.28.15.54.39.68ZM165.41,420.32c-.17,0-.35-.04-.5-.13-.31-.18-.5-.51-.5-.87v-171.08c0-.36.19-.69.5-.87l148.19-85.56c.31-.18.69-.18,1,0,.31.18.5.51.5.87v171.08c0,.36-.19.69-.5.87l-148.19,85.56c-.15.09-.33.13-.5.13ZM166.41,248.82v168.77l146.19-84.4v-168.77l-146.19,84.4Z"/><path class="cls-8" d="M13.45,160.51v173.98s149.9,86.55,149.9,86.55c.36.21.8-.05.8-.46v-173.05S13.45,160.51,13.45,160.51Z"/><path class="cls-3" d="M163.62,422.1c-.27,0-.53-.07-.77-.21L12.95,335.35c-.31-.18-.5-.51-.5-.87v-173.98c0-.36.19-.69.5-.87.31-.18.69-.18,1,0l150.71,87.01c.31.18.5.51.5.87v173.05c0,.55-.29,1.06-.77,1.33-.24.14-.5.21-.77.21ZM14.45,333.91l148.71,85.85v-171.67L14.45,162.24v171.67Z"/><path class="cls-7" d="M162.72,422.12L12.19,335.21v-176.88s152.59,88.1,152.59,88.1l.63.36v173.78c0,.64-.34,1.23-.89,1.55-.28.16-.59.24-.9.24s-.62-.08-.9-.24ZM14.7,162.68v171.08s148.19,85.56,148.19,85.56v-171.08S14.7,162.68,14.7,162.68Z"/><path class="cls-3" d="M163.62,423.36c-.49,0-.97-.13-1.39-.37,0,0,0,0,0,0L11.69,336.08c-.31-.18-.5-.51-.5-.87v-176.88c0-.36.19-.69.5-.87.31-.18.69-.18,1,0l153.22,88.46c.31.18.5.51.5.87v173.78c0,.99-.53,1.91-1.39,2.41-.43.25-.91.38-1.41.38ZM163.22,421.25c.24.14.56.14.8,0,.24-.14.39-.4.39-.68v-173.2l-.13-.07L13.19,160.06v174.57l150.03,86.62ZM162.9,420.32c-.17,0-.35-.04-.5-.13L14.2,334.63c-.31-.18-.5-.51-.5-.87v-171.08c0-.36.19-.69.5-.87.31-.18.69-.18,1,0l148.19,85.56c.31.18.5.51.5.87v171.08c0,.36-.19.69-.5.87-.15.09-.33.13-.5.13ZM15.7,333.18l146.19,84.4v-168.77L15.7,164.41v168.77Z"/><path class="cls-4" d="M3.09,136.2l161.06,92.99,161.4-93.19c.22-.13.22-.44,0-.57L164.15,42.25,3.09,135.24c-.37.21-.37.75,0,.96Z"/><path class="cls-3" d="M164.15,230.19c-.17,0-.35-.04-.5-.13L2.59,137.07h0c-.48-.28-.78-.79-.78-1.35s.3-1.07.78-1.35L163.65,41.38c.31-.18.69-.18,1,0l161.41,93.19c.41.23.66.67.67,1.15s-.25.92-.67,1.15l-161.4,93.19c-.15.09-.33.13-.5.13ZM4.26,135.72l159.9,92.32,159.9-92.32L164.15,43.4,4.26,135.72ZM325.06,136.3s0,0,0,0h0Z"/><path class="cls-7" d="M2.46,137.29h0c-.56-.33-.9-.93-.9-1.57,0-.65.35-1.25.91-1.57L163.53,41.16l.63-.36,162.03,93.55c.49.28.79.81.79,1.37,0,.56-.3,1.09-.79,1.37l-161.4,93.19-.63.36L2.46,137.29ZM164.15,43.7L4.77,135.72l159.39,92.02,159.38-92.02L164.15,43.7Z"/><path class="cls-3" d="M164.16,231.64c-.17,0-.35-.04-.5-.13L1.96,138.16h0c-.89-.54-1.41-1.46-1.41-2.44s.54-1.93,1.41-2.43L163.65,39.93c.31-.18.69-.18,1,0l162.03,93.55c.8.46,1.29,1.32,1.29,2.24s-.5,1.78-1.29,2.24l-162.03,93.55c-.15.09-.33.13-.5.13ZM2.96,136.42l161.19,93.06.13-.07,161.4-93.19c.18-.1.29-.3.29-.51s-.11-.4-.29-.51L164.15,41.95l-.13.07L2.96,135.02c-.25.14-.41.41-.41.7s.16.56.41.71h0ZM164.16,228.74c-.17,0-.35-.04-.5-.13L4.27,136.59c-.31-.18-.5-.51-.5-.87s.19-.69.5-.87L163.65,42.84c.31-.18.69-.18,1,0l159.38,92.02c.31.18.5.51.5.87s-.19.69-.5.87l-159.38,92.02c-.15.09-.33.13-.5.13ZM6.77,135.72l157.39,90.87,157.38-90.87L164.15,44.86,6.77,135.72Z"/><path class="cls-4" d="M326.05,136.29v49s-161.9,93.47-161.9,93.47v-49.57s161.4-93.19,161.4-93.19c.22-.13.49.03.49.28Z"/><path class="cls-3" d="M164.15,279.76c-.17,0-.35-.04-.5-.13-.31-.18-.5-.51-.5-.87v-49.57c0-.36.19-.69.5-.87l161.4-93.19c.41-.24.92-.24,1.33,0,.41.24.66.68.66,1.15v49c0,.36-.19.69-.5.87l-161.9,93.47c-.15.09-.33.13-.5.13ZM165.15,229.77v47.26l159.9-92.32v-47.26l-159.9,92.32ZM326.05,185.29h0,0Z"/><path class="cls-7" d="M162.9,228.47l162.03-93.55c.49-.28,1.1-.28,1.58,0,.49.28.79.81.79,1.37v49.73s-164.41,94.92-164.41,94.92v-52.47ZM324.8,137.9l-159.38,92.02v46.67s159.38-92.02,159.38-92.02v-46.67Z"/><path class="cls-3" d="M162.9,281.94c-.17,0-.35-.04-.5-.13-.31-.18-.5-.51-.5-.87v-52.47c0-.36.19-.69.5-.87l162.03-93.55c.8-.46,1.79-.46,2.59,0,.8.46,1.29,1.32,1.29,2.24v49.73c0,.36-.19.69-.5.87l-164.41,94.92c-.15.09-.33.13-.5.13ZM163.9,229.04v50.16l162.41-93.77v-49.15c0-.21-.11-.4-.29-.51-.18-.1-.4-.11-.58,0l-161.53,93.26ZM165.41,277.59c-.17,0-.35-.04-.5-.13-.31-.18-.5-.51-.5-.87v-46.67c0-.36.19-.69.5-.87l159.38-92.02c.31-.18.69-.18,1,0,.31.18.5.51.5.87v46.67c0,.36-.19.69-.5.87l-159.38,92.02c-.15.09-.33.13-.5.13ZM166.41,230.5v44.36l157.38-90.87v-44.36l-157.38,90.87Z"/><path class="cls-8" d="M2.26,136.68v48.61s161.9,93.47,161.9,93.47v-49.57S3.09,136.2,3.09,136.2c-.37-.21-.83.05-.83.48Z"/><path class="cls-3" d="M164.15,279.76c-.17,0-.35-.04-.5-.13L1.76,186.16c-.31-.18-.5-.51-.5-.87v-48.61c0-.55.3-1.07.78-1.35.48-.28,1.08-.28,1.56,0l161.06,92.99c.31.18.5.51.5.87v49.57c0,.36-.19.69-.5.87-.15.09-.33.13-.5.13ZM3.26,184.71l159.9,92.32v-47.26L3.26,137.45v47.26Z"/><path class="cls-7" d="M1.63,186.38l-.63-.36v-49.33c0-.65.35-1.25.91-1.57.56-.32,1.25-.32,1.81,0l161.07,92.99.63.36v52.47S1.63,186.38,1.63,186.38ZM3.51,137.9v46.67s159.39,92.02,159.39,92.02v-46.67S3.51,137.9,3.51,137.9Z"/><path class="cls-3" d="M165.41,281.94c-.17,0-.35-.04-.5-.13L1.13,187.25s0,0,0,0l-.63-.36c-.31-.18-.5-.51-.5-.87v-49.33c0-1,.54-1.94,1.41-2.44.86-.5,1.93-.5,2.81,0l161.69,93.35c.31.18.5.51.5.87v52.47c0,.36-.19.69-.5.87-.15.09-.33.13-.5.13ZM2.13,185.51l162.28,93.69v-50.16l-.13-.07L3.22,135.98c-.25-.15-.57-.14-.81,0-.26.15-.41.42-.41.71v48.75l.13.07ZM162.9,277.59c-.17,0-.35-.04-.5-.13L3.01,185.43c-.31-.18-.5-.51-.5-.87v-46.67c0-.36.19-.69.5-.87.31-.18.69-.18,1,0l159.39,92.02c.31.18.5.51.5.87v46.67c0,.36-.19.69-.5.87-.15.09-.33.13-.5.13ZM4.51,183.99l157.39,90.87v-44.36L4.51,139.63v44.36Z"/><polygon class="cls-2" points="231.78 191.42 69.2 98.03 107.36 76 269.26 169.47 231.78 191.42"/><path class="cls-7" d="M64.6,98.01l40.67-23.49,164.4,94.92-39.97,23.41L64.6,98.01ZM105.27,77.43l-35.64,20.58,160.05,91.94,34.99-20.49L105.27,77.43Z"/><path class="cls-3" d="M229.7,193.85c-.17,0-.34-.04-.5-.13L64.1,98.88c-.31-.18-.5-.51-.5-.87s.19-.69.5-.87l40.67-23.49c.31-.18.69-.18,1,0l164.4,94.92c.31.18.5.51.5.86,0,.36-.19.69-.49.87l-39.97,23.41c-.16.09-.33.14-.51.14ZM66.6,98.01l163.09,93.69,37.99-22.25L105.27,75.68l-38.67,22.33ZM229.68,190.95c-.17,0-.34-.04-.5-.13L69.13,98.87c-.31-.18-.5-.51-.5-.87s.19-.69.5-.87l35.64-20.58c.31-.18.69-.18,1,0l159.4,92.03c.31.18.5.51.5.86s-.19.69-.5.87l-34.99,20.49c-.16.09-.33.14-.5.14ZM71.63,98l158.04,90.79,33-19.33L105.27,78.58l-33.64,19.42Z"/><polygon class="cls-2" points="263.84 363.92 263.84 221.25 226.36 242.85 226.36 385.56 263.84 363.92"/><path class="cls-3" d="M226.36,386.56c-.17,0-.35-.04-.5-.13-.31-.18-.5-.51-.5-.87v-142.71c0-.36.19-.69.5-.87l37.48-21.59c.31-.18.69-.18,1,0,.31.18.5.51.5.87v142.67c0,.36-.19.69-.5.87l-37.48,21.64c-.15.09-.33.13-.5.13ZM227.36,243.43v140.4l35.48-20.48v-140.36l-35.48,20.44ZM263.84,363.92h0,0Z"/><polygon class="cls-2" points="265.83 364.61 265.83 221.94 228.35 243.53 228.35 386.25 265.83 364.61"/><path class="cls-7" d="M225.11,242.12l39.99-23.04v145.57s-39.99,23.09-39.99,23.09v-145.62ZM262.59,223.43l-34.97,20.15v139.81s34.97-20.19,34.97-20.19v-139.77Z"/><path class="cls-3" d="M225.11,388.74c-.17,0-.35-.04-.5-.13-.31-.18-.5-.51-.5-.87v-145.62c0-.36.19-.69.5-.87l39.99-23.04c.31-.18.69-.18,1,0,.31.18.5.51.5.87v145.57c0,.36-.19.69-.5.87l-39.99,23.09c-.15.09-.33.13-.5.13ZM226.11,242.7v143.31l37.99-21.93v-143.26l-37.99,21.89ZM227.62,384.38c-.17,0-.35-.04-.5-.13-.31-.18-.5-.51-.5-.87v-139.81c0-.36.19-.69.5-.87l34.97-20.15c.31-.18.69-.18,1,0,.31.18.5.51.5.87v139.77c0,.36-.19.69-.5.87l-34.97,20.19c-.15.09-.33.13-.5.13ZM228.62,244.15v137.5l32.97-19.03v-137.46l-32.97,18.99Z"/><polygon class="cls-2" points="267.42 217.78 267.42 170.09 229.94 192.04 229.94 239.42 267.42 217.78"/><path class="cls-7" d="M228.43,190.68l37.48-21.95c1.11-.65,2.51.15,2.51,1.44v49.89s-39.99,23.09-39.99,23.09v-52.47ZM265.91,171.64l-34.97,20.48v46.67s34.97-20.19,34.97-20.19v-46.96Z"/><path class="cls-3" d="M228.43,244.15c-.17,0-.35-.04-.5-.13-.31-.18-.5-.51-.5-.87v-52.47c0-.36.19-.68.49-.86l37.48-21.95c.84-.49,1.84-.49,2.67-.01.84.48,1.34,1.35,1.34,2.31v49.89c0,.36-.19.69-.5.87l-39.99,23.09c-.15.09-.33.13-.5.13ZM229.43,191.25v50.16l37.99-21.94v-49.31c0-.35-.23-.52-.34-.58-.1-.06-.37-.17-.67,0l-36.98,21.66ZM230.94,239.8c-.17,0-.35-.04-.5-.13-.31-.18-.5-.51-.5-.87v-46.67c0-.36.19-.68.5-.86l34.97-20.48c.31-.18.69-.18,1,0,.31.18.5.51.5.87v46.96c0,.36-.19.69-.5.87l-34.97,20.19c-.15.09-.33.13-.5.13ZM231.94,192.69v44.37l32.97-19.03v-44.64l-32.97,19.31Z"/><polygon class="cls-2" points="94.98 194.66 257.56 101.27 219.4 79.24 57.5 172.71 94.98 194.66"/><path class="cls-7" d="M58.52,169.44l163.77-94.55.63-.36,40.68,23.49-165.1,94.84-39.97-23.41ZM222.92,77.43L63.52,169.46l34.99,20.49,160.06-91.94-35.64-20.58Z"/><path class="cls-3" d="M98.49,193.85c-.17,0-.35-.05-.51-.14l-39.97-23.41c-.31-.18-.5-.51-.49-.87,0-.36.19-.68.5-.86l164.4-94.91c.31-.18.69-.18,1,0l40.68,23.49c.31.18.5.51.5.87s-.19.69-.5.87l-165.1,94.84c-.15.09-.33.13-.5.13ZM60.51,169.45l37.99,22.25,163.09-93.69-38.67-22.33-.13.07L60.51,169.45ZM98.5,190.95c-.17,0-.35-.05-.51-.14l-34.98-20.49c-.31-.18-.5-.51-.5-.87s.19-.68.5-.86l159.4-92.03c.31-.18.69-.18,1,0l35.64,20.58c.31.18.5.51.5.87s-.19.69-.5.87l-160.06,91.94c-.15.09-.33.13-.5.13ZM65.51,169.46l33,19.33,158.05-90.79-33.64-19.42-157.41,90.88Z"/><path class="cls-2" d="M317.09,56.64s2.63,53.61-55.69,59.91c-43.01,4.65-70.91,12.78-78.48,15.85-1.27.52-9.11-4.34-9.49-5.45l-2.52-28.12s39.89-18.33,41.88-18.33,34.66,2.68,48.61-6.01c13.94-8.69,9.97-22.39,4-34.47-5.97-12.08,4.57-16.11,4.57-16.11l40.03,20.04,1.55,1.73c2.89,3.25,4.8,7,5.55,10.96h0Z"/><path class="cls-5" d="M297.8,102.4l-36.41-27.66c.14-.09.3-.17.44-.25,13.94-8.69,9.96-22.39,4-34.47-5.97-12.08,4.57-16.11,4.57-16.11l40.03,20.04,1.55,1.73c2.89,3.25,4.8,7,5.55,10.96,0,0,1.36,27.85-19.72,45.77Z"/><path class="cls-3" d="M297.8,103.4c-.21,0-.43-.07-.61-.2l-36.41-27.66c-.26-.2-.41-.52-.39-.85.02-.33.2-.63.49-.8l.21-.12c.07-.04.14-.08.21-.12,13.49-8.41,9.4-21.49,3.63-33.18-2.07-4.2-2.48-7.97-1.22-11.2,1.76-4.5,6.14-6.22,6.33-6.29.26-.1.55-.09.8.04l40.03,20.04c.11.06.21.13.3.23l1.55,1.73c3,3.37,5,7.32,5.78,11.44,0,.04.01.09.02.14.01.28,1.14,28.55-20.07,46.58-.19.16-.42.24-.65.24ZM263.16,74.82l34.61,26.29c19.36-16.99,18.82-42.88,18.77-44.37-.72-3.74-2.55-7.33-5.29-10.41l-1.42-1.59-39.44-19.74c-.99.49-3.65,2.02-4.81,5-1.04,2.68-.65,5.9,1.16,9.56,5.7,11.55,10.39,25.92-3.57,35.25Z"/><path class="cls-7" d="M180.18,132.95c-1.72-.78-7.37-3.95-7.94-5.59l-2.66-29.3.81-.37c12.07-5.55,40.36-18.45,42.41-18.45.2,0,.69.02,1.42.06,28.29,1.47,40.92-2.39,46.53-5.88,13.31-8.3,9.26-21.26,3.53-32.85-2.11-4.27-2.52-8.11-1.23-11.4,1.81-4.61,6.28-6.37,6.47-6.44l.52-.2,40.53,20.29,1.92,2.02c3.03,3.4,5.05,7.4,5.84,11.56l.02.17c.03.55,2,54.87-56.81,61.22-43.87,4.74-71.28,12.98-78.14,15.76-.21.09-.44.13-.71.13-.61,0-1.4-.24-2.51-.74ZM310.61,46.51l-1.39-1.55-39.28-19.67c-1.03.52-3.46,1.99-4.56,4.79-1.02,2.61-.64,5.77,1.14,9.37,5.86,11.86,10.64,26.68-4.46,36.09-5.91,3.68-19.02,7.76-47.99,6.26-.66-.03-1.11-.06-1.18-.07-2.04.34-25.67,10.98-40.65,17.86l2.41,26.91c1.05,1.14,6.55,4.48,7.95,4.66,7.19-2.87,34.82-11.13,78.66-15.87,55.82-6.03,54.7-55.38,54.57-58.52-.71-3.68-2.52-7.23-5.23-10.27Z"/><path class="cls-3" d="M182.69,134.69c-.76,0-1.66-.26-2.92-.83-.08-.03-7.62-3.72-8.47-6.18-.03-.08-.04-.15-.05-.23l-2.66-29.3c-.04-.42.19-.82.58-1l.81-.37c26.78-12.3,41.19-18.54,42.82-18.54.21,0,.71.02,1.47.06,28.03,1.46,40.46-2.31,45.95-5.73,12.63-7.87,8.69-20.37,3.17-31.56-2.24-4.53-2.66-8.64-1.26-12.21,1.97-5.03,6.84-6.93,7.05-7.01l.51-.2c.26-.1.55-.09.8.04l40.53,20.29c.1.05.2.12.28.21l1.92,2.02c3.18,3.56,5.28,7.73,6.1,12.07l.03.24c.03.63,2,55.89-57.7,62.34-43.76,4.73-71.05,12.93-77.88,15.69-.33.14-.69.2-1.08.2ZM173.23,127.11c.55,1.05,4.96,3.83,7.37,4.92,1.25.57,2.02.76,2.42.6,6.9-2.79,34.43-11.08,78.41-15.83,57.76-6.24,55.94-59.64,55.92-60.18v-.1c-.76-3.92-2.7-7.75-5.61-11.02l-1.78-1.87-39.98-20.01-.1.04s-4.25,1.65-5.9,5.87c-1.18,3.03-.78,6.59,1.19,10.6,5.92,11.99,10.09,25.42-3.9,34.14-5.73,3.57-18.56,7.52-47.11,6.03-.71-.04-1.17-.06-1.37-.06-1.25.13-12.96,5.02-41.99,18.36l-.16.08,2.58,28.44ZM182.61,132.17s-.08,0-.13,0c-1.73-.22-7.41-3.73-8.56-4.97-.15-.16-.24-.37-.26-.59l-2.41-26.91c-.04-.42.19-.82.58-1,.38-.17,38.03-17.45,40.9-17.93.09-.01.18-.02.27,0,.09,0,.51.03,1.14.06,28.69,1.5,41.62-2.5,47.41-6.11,14.42-8.99,9.76-23.32,4.09-34.8-1.91-3.87-2.31-7.3-1.17-10.18,1.22-3.13,3.93-4.76,5.04-5.32.28-.14.61-.14.9,0l39.28,19.67c.11.06.21.13.3.23l1.39,1.55h0c2.83,3.17,4.72,6.89,5.46,10.75,0,.05.02.1.02.15.09,2.18,1.57,53.39-55.46,59.55-43.65,4.72-71.39,13.01-78.4,15.8-.12.05-.24.07-.37.07ZM175.62,126.05c1.32,1.16,5.58,3.68,6.9,4.08,7.52-2.93,35.34-11.14,78.64-15.82,22.94-2.48,38.91-12.5,47.48-29.79,6.49-13.1,6.27-25.85,6.21-27.61-.69-3.48-2.41-6.84-4.98-9.72l-1.26-1.41-38.65-19.35c-1.04.6-2.8,1.88-3.64,4.03-.92,2.34-.55,5.22,1.11,8.57,6.04,12.24,10.96,27.55-4.83,37.39-6.04,3.76-19.36,7.92-48.57,6.41-.49-.03-.86-.04-1.06-.06-2.2.55-21.6,9.18-39.66,17.46l2.32,25.84Z"/><path class="cls-2" d="M315,50.66c-20.31-37.06-107.24,40.62-121.16,73.65,0,0-.03.08-.1.21-3.83,7.64-15.18,10.72-24.02,6.63l-14.69-6.81h0s10.13-98.09,80.23-114.11c52.92-12.1,79.75,40.43,79.75,40.43h0Z"/><path class="cls-7" d="M169.19,132.29l-15.51-7.19.09-.89c.1-.99,11.03-99.17,81.2-115.21,53.26-12.18,80.88,40.55,81.15,41.09l-2.22,1.18c-3.54-6.46-9.49-9.51-17.64-9.11-31.93,1.64-89.66,55.12-101.28,82.69l-.12.25c-2.89,5.78-9.63,9.16-16.68,9.16-3.03,0-6.12-.62-8.99-1.95ZM307.72,41.74c-10.64-14.29-34.94-38.8-72.19-30.29-64.88,14.83-77.9,102.33-79.16,112.13l13.87,6.43c8.22,3.81,18.88.92,22.44-6.19,11.81-28.02,70.78-82.5,103.45-84.18.55-.03,1.09-.04,1.62-.04,3.78,0,7.11.71,9.97,2.13Z"/><path class="cls-3" d="M178.18,135.25c-3.27,0-6.52-.71-9.41-2.05h0l-15.51-7.19c-.39-.18-.62-.58-.57-1.01l.09-.89c.1-1,11.14-99.89,81.97-116.08,54.29-12.42,81.99,41.07,82.26,41.61.25.49.06,1.08-.42,1.33l-2.22,1.18c-.48.26-1.08.08-1.34-.4-3.33-6.08-8.96-8.97-16.71-8.59-14.2.73-35.22,12.17-57.66,31.38-20.33,17.41-37.11,37.31-42.75,50.69l-.15.3c-2.96,5.9-9.85,9.72-17.58,9.72ZM169.61,131.39c2.63,1.22,5.59,1.86,8.57,1.86,6.97,0,13.17-3.38,15.78-8.61l.12-.24c11.67-27.68,69.91-81.59,102.13-83.24,8.22-.4,14.3,2.54,18.07,8.77l.48-.25c-3.81-6.78-30.7-50.88-79.56-39.7-69.45,15.88-80.33,113.36-80.43,114.34l-.02.18,14.86,6.89ZM177.98,132.68c-2.77,0-5.58-.56-8.16-1.75l-13.87-6.43c-.4-.18-.63-.6-.57-1.03,1.28-9.99,14.39-98,79.92-112.98,37.46-8.57,61.95,15.54,73.21,30.66.28.37.26.88-.03,1.24-.29.36-.8.46-1.21.26-3.1-1.54-6.83-2.2-11.09-1.99-32.37,1.66-90.85,55.74-102.58,83.57-2.66,5.32-9.05,8.46-15.62,8.46ZM157.47,122.99l13.2,6.12c7.75,3.6,17.82.86,21.12-5.73,11.87-28.17,71.33-83.04,104.3-84.73,3.17-.16,6.06.13,8.68.88-25.07-31.48-53.84-30.57-69-27.11-62.86,14.37-76.56,97.81-78.29,110.56Z"/><path class="cls-6" d="M11.21,52.85s-2.48,56.27,52.55,62.88c40.59,4.88,66.92,13.42,74.06,16.63,1.2.54,8.6-4.56,8.96-5.72l2.38-29.51s-33.07-12.11-34.94-12.11c-1.88,0-37.29-4.32-50.45-13.44-13.16-9.12-9.4-23.5-3.77-36.18,5.63-12.68-4.31-16.91-4.31-16.91l-37.78,21.04-1.46,1.82c-2.73,3.41-4.53,7.35-5.23,11.5h0Z"/><path class="cls-3" d="M138.04,133.41c-.24,0-.44-.04-.63-.13-6.48-2.92-32.36-11.58-73.76-16.55-28.9-3.47-41.9-20.69-47.72-34.53-6.27-14.93-5.74-28.81-5.72-29.39,0-.04,0-.08.01-.12.73-4.3,2.61-8.44,5.44-11.96l1.46-1.82c.08-.1.18-.18.29-.25l37.78-21.04c.27-.15.59-.17.88-.05.17.07,4.09,1.78,5.84,6.21,1.35,3.43,1.02,7.48-1,12.03-9.8,22.08-3.32,30.28,3.43,34.95,12.98,9,48.03,13.26,49.88,13.26s27.49,9.32,35.29,12.17c.42.16.69.57.65,1.02l-2.38,29.51c0,.07-.02.15-.04.21-.45,1.46-5.66,4.95-7.93,5.97-.74.33-1.3.5-1.76.5ZM138.23,131.46h.01-.01ZM12.21,52.96c-.03,1.01-.33,14.5,5.59,28.54,8.17,19.37,23.67,30.56,46.08,33.25,41.41,4.98,67.48,13.66,74.23,16.66,1.37-.15,6.86-3.89,7.68-5.04l2.3-28.55c-12.55-4.59-32.27-11.64-33.92-11.79h0c-1.86,0-37.66-4.38-50.99-13.61-14.05-9.74-9.58-25.11-4.12-37.41,1.79-4.03,2.12-7.54.98-10.45-1.12-2.87-3.42-4.39-4.36-4.92l-37.14,20.68-1.34,1.67c-2.6,3.24-4.33,7.04-5.02,10.98Z"/><path class="cls-2" d="M63.73,71.85c6.22,4.32,1.79,3.37,12.07,5.58l-32.7,32.54C8.11,89.61,11.18,53.11,11.18,53.11h0c.71-4.15,2.5-8.1,5.23-11.5l1.46-1.82,37.78-21.04s9.94,4.23,4.31,16.91c-5.63,12.68-9.39,27.06,3.77,36.18Z"/><path class="cls-7" d="M137.31,133.52c-6.47-2.91-32.32-11.56-73.69-16.53C8.07,110.31,9.93,53.37,9.95,52.8l.02-.16c.74-4.34,2.64-8.52,5.49-12.08l1.46-1.82,38.69-21.65.56.24c.17.07,4.19,1.83,5.98,6.35,1.38,3.5,1.04,7.61-1.01,12.23-5.43,12.22-9.27,25.9,3.34,34.64,12.9,8.94,47.88,13.21,49.73,13.21,1.95,0,27.57,9.33,35.37,12.19l.9.33-2.46,30.47-.05.27c-.51,1.64-5.99,5.19-8.07,6.13-.77.35-1.37.52-1.87.52-.27,0-.51-.05-.73-.15ZM147.83,97.99c-12.48-4.56-31.93-11.51-33.61-11.7-1.9,0-37.79-4.39-51.17-13.66-14.2-9.84-9.71-25.33-4.21-37.72,1.76-3.96,2.09-7.41.98-10.25-1.04-2.69-3.15-4.16-4.12-4.73l-36.97,20.59-1.31,1.63c-2.56,3.2-4.28,6.95-4.96,10.85-.07,2.31-.91,55.22,51.45,61.51,41.28,4.96,67.36,13.61,74.23,16.65,1.46-.28,6.67-3.85,7.4-4.81l2.28-28.34Z"/><path class="cls-3" d="M138.04,134.67c-.4,0-.79-.08-1.14-.24,0,0,0,0,0,0-6.43-2.89-32.16-11.49-73.4-16.45C7.13,111.2,8.93,53.34,8.96,52.76l.02-.22c.78-4.57,2.75-8.91,5.71-12.6l1.46-1.82c.08-.1.18-.18.29-.25l38.69-21.65c.27-.15.6-.17.88-.05l.56.24c.18.08,4.57,1.97,6.51,6.91,1.48,3.76,1.13,8.13-1.03,13-9.37,21.12-3.75,28.74,3,33.41,12.73,8.82,47.33,13.03,49.17,13.04,1.88,0,20.46,6.66,35.72,12.25l.9.33c.42.15.69.57.65,1.02l-2.46,30.47s0,.07-.01.1l-.05.27s-.02.07-.03.11c-.71,2.29-7.06,6.04-8.62,6.75-.92.41-1.64.61-2.28.61ZM137.72,132.6c.36.16.9.03,1.78-.37,2.42-1.09,7.09-4.39,7.51-5.47l.03-.15,2.39-29.66-.18-.07c-19.9-7.29-33.65-12.05-35.04-12.13-1.86,0-37.21-4.33-50.29-13.39-13.21-9.16-9.28-23.27-3.68-35.87,1.93-4.36,2.27-8.21.99-11.45-1.64-4.16-5.39-5.78-5.43-5.8l-.12-.05-38.09,21.31-1.34,1.67c-2.75,3.43-4.57,7.44-5.29,11.62v.09c-.03.5-1.75,56.54,52.78,63.09,41.49,4.99,67.47,13.68,73.98,16.61ZM138.15,132.14c-.14,0-.28-.03-.4-.08-6.65-2.94-32.9-11.64-73.95-16.57-27.63-3.32-40.36-19.69-46.18-32.84-6.51-14.71-6.17-29.09-6.15-29.7,0-.05,0-.1.01-.14.71-4.06,2.49-7.96,5.16-11.3l1.31-1.63c.08-.1.18-.18.29-.25l36.97-20.59c.31-.17.68-.17.99,0,1.21.7,3.42,2.32,4.55,5.23,1.21,3.1.87,6.81-1,11.02-10.17,22.92-3.28,31.55,3.86,36.5,13.2,9.15,48.72,13.48,50.6,13.48.04,0,.08,0,.11,0,2.41.27,33.53,11.64,33.84,11.76.42.15.69.57.65,1.02l-2.28,28.34c-.02.19-.08.37-.2.52-.85,1.12-6.25,4.85-8.01,5.19-.06.01-.12.02-.19.02ZM13.46,53.08c-.08,3.07-.52,54.27,50.57,60.42,17.98,2.16,34.85,5.21,50.14,9.07,11.75,2.96,20.04,5.79,24.04,7.51,1.4-.52,5.34-3.16,6.36-4.16l2.2-27.25c-14.99-5.47-31.04-11.14-32.64-11.38-2.67-.1-38.26-4.55-51.66-13.84-14.8-10.26-10.21-26.21-4.55-38.95,1.65-3.71,1.97-6.89.96-9.48-.79-2.03-2.29-3.3-3.22-3.93l-36.29,20.21-1.19,1.47c-2.44,3.05-4.08,6.62-4.74,10.32Z"/><path class="cls-2" d="M13.18,46.58C32.35,7.68,114.38,89.22,127.52,123.88c0,0,.03.08.1.22,3.61,8.02,14.33,11.25,22.67,6.96l13.87-7.15h0S154.59,20.96,88.44,4.14C38.5-8.55,13.18,46.58,13.18,46.58h0Z"/><path class="cls-7" d="M136.12,133.18c-4.43-1.55-7.85-4.58-9.64-8.56l-.13-.29c-10.75-28.37-66.27-85.34-95.72-86.75-7.53-.36-13.01,2.85-16.32,9.55l-2.27-1.08c.26-.56,26.35-55.93,76.71-43.13,66.25,16.84,76.56,119.84,76.65,120.87l.08.84-14.62,7.54c-2.64,1.36-5.57,2.05-8.52,2.05-2.1,0-4.2-.35-6.22-1.05ZM88.13,5.36C52.99-3.57,30.07,22.26,20.08,37.24c3.02-1.64,6.59-2.35,10.67-2.17,32.69,1.56,87.8,61.58,98.02,88.52,1.5,3.34,4.41,5.9,8.18,7.21,4.2,1.47,8.86,1.15,12.76-.86l13.1-6.75c-1.12-9.83-13.27-102.22-74.68-117.83Z"/><path class="cls-3" d="M142.34,135.23c-2.24,0-4.44-.37-6.55-1.11-4.69-1.64-8.32-4.87-10.22-9.09l-.13-.3c-10.69-28.21-65.7-84.76-94.85-86.15-7.08-.35-12.26,2.68-15.37,9-.24.49-.83.69-1.33.46l-2.27-1.08c-.49-.24-.71-.82-.48-1.32.26-.57,26.69-56.7,77.86-43.68,66.89,17.01,77.31,120.7,77.41,121.75l.08.85c.04.41-.18.79-.54.98l-14.62,7.54c-2.74,1.42-5.85,2.16-8.98,2.16ZM29.48,36.55c.39,0,.79,0,1.2.03,29.75,1.42,85.77,58.81,96.61,87.39l.11.25c1.67,3.71,4.89,6.56,9.05,8.01h0c4.54,1.59,9.74,1.24,13.96-.94l14.02-7.23-.02-.17c-.1-1.03-10.36-103.33-75.91-120C42.45-7.8,16.96,38.53,13.39,45.59l.48.23c3.35-6.15,8.59-9.26,15.61-9.26ZM142.34,132.72c-1.93,0-3.87-.32-5.72-.97-4.03-1.41-7.14-4.16-8.76-7.75-10.13-26.7-64.8-86.39-97.16-87.93-3.9-.18-7.31.51-10.15,2.05-.41.22-.91.13-1.22-.21-.31-.34-.35-.85-.09-1.23,4.96-7.44,13.31-17.85,24.89-25.19C57.83,2.8,72.72.41,88.38,4.39h0c26.06,6.63,46.46,27.38,60.62,61.67,10.92,26.44,14.25,52.13,14.8,57.02.05.41-.17.81-.54,1l-13.1,6.75c-2.43,1.25-5.12,1.88-7.83,1.88ZM29.53,34.04c.42,0,.84,0,1.26.03,33.01,1.58,88.65,62.13,98.91,89.17,1.37,3.03,4.06,5.4,7.57,6.62,3.94,1.38,8.31,1.08,11.98-.8l12.49-6.44c-.75-6.21-4.2-30.66-14.58-55.79-13.91-33.68-33.85-54.03-59.27-60.5h0c-14.3-3.63-41.43-4.56-65.06,28.67,2.05-.64,4.29-.96,6.7-.96Z"/><path class="cls-2" d="M185.49,129.47h0c.41-1.4.56-2.84.41-4.28-.57-5.57-3.76-18.58-20.99-18.73-16.55-.14-21.09,11.27-22.32,16.87-.38,1.74-.31,3.53.15,5.25l.17.63c1.52,5.6,7.12,9.54,13.56,9.54h15.52c6.33,0,11.87-3.81,13.49-9.28Z"/><path class="cls-7" d="M141.71,129.55l-.17-.63c-.53-1.96-.59-3.93-.17-5.85,1.18-5.39,5.81-17.86,23.25-17.86.1,0,.21,0,.31,0,18.23.16,21.62,13.94,22.22,19.85.17,1.59.01,3.19-.46,4.77h0c-1.78,5.99-7.82,10.18-14.69,10.18h-15.52c-7.03,0-13.1-4.3-14.77-10.47ZM143.82,123.61c-.33,1.52-.29,3.08.14,4.65l.17.63c1.37,5.07,6.45,8.61,12.35,8.61h15.52c5.77,0,10.82-3.45,12.28-8.38h0c.37-1.26.5-2.54.37-3.79-.54-5.25-3.54-17.46-19.75-17.6-.1,0-.2,0-.29,0-15.04,0-19.48,9.93-20.79,15.88Z"/><path class="cls-3" d="M172,141.01h-15.52c-7.48,0-13.95-4.61-15.74-11.2,0,0,0,0,0,0l-.17-.63c-.57-2.11-.63-4.24-.18-6.32,1.23-5.61,6.06-18.65,24.22-18.65h.32c19.04.17,22.57,14.57,23.21,20.75.18,1.71.01,3.45-.49,5.15-1.9,6.42-8.34,10.9-15.65,10.9ZM142.67,129.29c1.55,5.73,7.23,9.73,13.81,9.73h15.52c6.44,0,12.08-3.89,13.73-9.47.43-1.46.57-2.93.42-4.38-.58-5.65-3.81-18.81-21.24-18.96h-.3c-16.71,0-21.14,11.94-22.27,17.07-.38,1.76-.33,3.57.16,5.37l.17.63h0ZM172,138.5h-15.52c-6.35,0-11.82-3.84-13.31-9.35l-.17-.63c-.47-1.72-.52-3.45-.15-5.13h0c1.37-6.23,6.01-16.67,21.77-16.67h.3c17.01.15,20.16,12.99,20.73,18.5.14,1.38,0,2.79-.4,4.18-1.59,5.36-7.03,9.1-13.24,9.1ZM144.8,123.82c-.3,1.36-.25,2.77.13,4.17l.17.63c1.25,4.63,5.94,7.87,11.38,7.87h15.52c5.33,0,9.99-3.15,11.33-7.67.34-1.14.45-2.28.33-3.41-.51-4.98-3.37-16.57-18.76-16.7h-.29c-14.35,0-18.57,9.46-19.81,15.1h0Z"/><path class="cls-6" d="M185.96,105.41s-13.71,3.9-14.69,24.86c0,0,1.3,9.75-7.8,10.4,0,0,19.82,13,37.21-.81,8.32-6.61,16.9-21.45,29.01-18.2,12.1,3.25-11.62-18.04-11.62-18.04h-12.67s-7.8,4.39-7.8,4.39l-4.39-3.25-7.25.65Z"/><path class="cls-3" d="M182.7,147.17c-10.95,0-19.65-5.58-19.78-5.67-.36-.24-.53-.67-.42-1.09s.47-.71.9-.75c2.28-.16,4.03-.97,5.19-2.39,2.22-2.72,1.7-6.83,1.69-6.88,0-.06-.01-.12,0-.18,1-21.43,14.83-25.61,15.41-25.78.06-.02.12-.03.18-.03l7.25-.65c.24-.02.49.05.68.19l3.87,2.86,7.23-4.07c.15-.08.32-.13.49-.13h12.67c.25,0,.48.09.67.26,6.41,5.75,16.9,15.87,15.16,19.08-.89,1.63-3.49.93-4.47.67-8.29-2.23-14.87,4.68-21.23,11.36-2.37,2.49-4.62,4.85-6.89,6.66-6.2,4.92-12.72,6.53-18.6,6.53ZM166.36,141.13c5.64,2.81,20.51,8.43,33.7-2.05,2.17-1.72,4.37-4.03,6.69-6.47,6.45-6.77,13.77-14.44,23.2-11.91,1.45.39,2.02.31,2.19.26.14-1.69-6.37-9.04-14.45-16.33h-12.03l-7.57,4.26c-.34.2-.77.17-1.09-.07l-4.08-3.02-6.77.61c-1.22.39-12.95,4.6-13.88,23.84.08.73.44,5.14-2.14,8.31-.98,1.2-2.24,2.06-3.78,2.58Z"/><path class="cls-7" d="M162.78,141.72l-3.11-2.04,3.71-.26c2.2-.16,3.88-.93,5-2.29,2.14-2.62,1.65-6.65,1.65-6.69v-.11s-.01-.11-.01-.11c1.01-21.62,15-25.84,15.6-26.01l7.96-.74,4.12,3.05,7.38-4.15h13.48s.36.32.36.32c7.9,7.08,16.94,16.2,15.21,19.39-.98,1.81-3.73,1.07-4.76.8-8.14-2.19-14.67,4.66-20.98,11.29-2.38,2.5-4.63,4.86-6.92,6.68-6.25,4.97-12.83,6.59-18.75,6.59-11.03,0-19.79-5.62-19.93-5.71ZM230.01,120.45c1.01.27,1.57.31,1.84.29-.44-2.2-7.47-9.72-14.27-15.86h-11.86s-8.22,4.62-8.22,4.62l-4.66-3.45-6.64.6c-1.31.42-12.75,4.66-13.67,23.58.09.81.42,5.27-2.2,8.48-.89,1.09-2,1.91-3.33,2.45,5.94,2.85,20.19,7.81,32.9-2.28,2.16-1.71,4.35-4.01,6.66-6.45,5.62-5.9,11.89-12.49,19.69-12.49,1.21,0,2.47.16,3.76.51Z"/><path class="cls-3" d="M182.71,148.43c-11.25,0-20.1-5.63-20.47-5.87,0,0,0,0,0,0l-3.11-2.04c-.36-.24-.53-.67-.42-1.09s.47-.71.9-.75l3.71-.26c1.92-.14,3.36-.78,4.29-1.92,1.82-2.23,1.45-5.79,1.43-5.95v-.11c-.02-.05-.02-.1-.02-.16v-.11c1.04-22.32,15.7-26.76,16.33-26.94.06-.02.12-.03.18-.03l7.96-.74c.24-.02.49.05.69.19l3.6,2.67,6.81-3.83c.15-.08.32-.13.49-.13h13.48c.25,0,.48.09.67.25l.36.32c17.9,16.06,16.1,19.37,15.43,20.61-1.36,2.51-4.77,1.59-5.9,1.29-7.57-2.04-13.89,4.6-19.99,11.01-2.41,2.53-4.68,4.91-7.03,6.78-5.68,4.51-12.2,6.8-19.37,6.8ZM163.33,140.88c.19.12,8.78,5.54,19.38,5.54,6.71,0,12.81-2.14,18.13-6.37,2.24-1.78,4.46-4.11,6.82-6.59,6.51-6.84,13.24-13.91,21.96-11.56,1.29.35,3.08.69,3.62-.31.29-.53.91-3.89-15-18.17l-.07-.06h-12.84l-7.15,4.02c-.34.2-.77.17-1.09-.07l-3.81-2.82-7.48.69c-1.27.39-13.85,4.8-14.79,25.07v.02s0,.03,0,.03c.05.48.44,4.63-1.87,7.45-1.29,1.58-3.21,2.47-5.7,2.65l-.76.05.63.41ZM182.67,145.91c-6.93,0-12.9-2.31-16.09-3.85-.36-.17-.58-.54-.57-.93.01-.4.26-.75.62-.9,1.17-.48,2.16-1.21,2.93-2.16,2.35-2.89,2.06-6.95,1.98-7.74,0-.05,0-.1,0-.15.95-19.58,12.99-24.04,14.36-24.48.07-.02.14-.04.22-.04l6.64-.6c.24-.03.49.05.68.19l4.13,3.06,7.66-4.31c.15-.08.32-.13.49-.13h11.86c.25,0,.49.09.67.26,5.54,5.01,14,13.51,14.58,16.41.06.28-.01.57-.18.8-.17.23-.43.37-.72.39-.5.04-1.23-.07-2.17-.33-1.17-.31-2.34-.47-3.5-.47-7.37,0-13.53,6.47-18.97,12.18-2.35,2.47-4.56,4.79-6.77,6.54-5.94,4.72-12.22,6.25-17.86,6.25ZM169.25,141.07c6.34,2.64,18.86,5.89,30.03-2.98,2.1-1.67,4.26-3.94,6.56-6.34,5.72-6.01,12.2-12.81,20.42-12.81,1.26,0,2.53.16,3.79.48-1.87-2.69-6.72-7.97-12.85-13.54h-11.22l-7.99,4.5c-.35.19-.77.17-1.09-.07l-4.35-3.22-6.15.55c-1.63.56-11.98,4.81-12.87,22.57.1,1.09.36,5.72-2.42,9.13-.54.67-1.17,1.25-1.86,1.73Z"/><path class="cls-2" d="M185.96,105.41l24.51-10.55c8.49-3.65,18.49-1.62,24.56,5.35,5.8,6.66,11.02,17.25,10.08,33.47-1.88,32.25,7.11,52.82,28,54.78,1.95.18,2.98,2.43,1.93,4.08l-15.57,24.44c-1.72,2.71-4.9,4.11-8.06,3.54-12.06-2.18-40.5-10.54-42.35-40.98-2.35-38.71,6.55-59.51-23.09-74.13Z"/><path class="cls-7" d="M251.18,221.76c-12.41-2.24-41.48-10.84-43.38-42.14-.54-8.86-.49-16.85-.45-23.89.15-23.85.24-38.24-21.94-49.19l-2.44-1.2,27.01-11.63c9.17-3.95,19.62-1.66,26.01,5.68,7.7,8.86,11.2,20.42,10.38,34.37-1.91,32.66,7.64,51.65,26.87,53.45,1.33.13,2.48.93,3.08,2.14.61,1.25.53,2.69-.21,3.86l-15.57,24.44c-1.71,2.68-4.62,4.25-7.7,4.25-.54,0-1.09-.05-1.64-.15ZM210.96,96.02l-22.07,9.5c21.2,11.52,21.11,27.08,20.97,50.22-.04,7.01-.09,14.95.44,23.73,1.8,29.52,29.5,37.68,41.32,39.82,2.65.47,5.32-.69,6.78-2.98l15.57-24.44c.27-.42.3-.95.07-1.41-.1-.2-.4-.68-1.06-.75-20.79-1.95-31.14-21.87-29.14-56.1.77-13.27-2.51-24.23-9.77-32.58-3.81-4.38-9.26-6.73-14.9-6.73-2.75,0-5.54.56-8.21,1.71Z"/><path class="cls-3" d="M252.82,222.91c-.6,0-1.21-.05-1.81-.16h0c-12.64-2.29-42.26-11.06-44.21-43.06-.54-8.89-.49-16.9-.45-23.96.15-23.46.23-37.62-21.39-48.29l-2.44-1.21c-.35-.17-.57-.53-.56-.92.01-.39.25-.74.6-.89l27.01-11.63c9.57-4.12,20.48-1.73,27.16,5.95,7.88,9.06,11.46,20.87,10.62,35.09-1.87,32.04,7.35,50.65,25.96,52.4,1.68.16,3.13,1.17,3.88,2.7.76,1.56.67,3.37-.27,4.84l-15.57,24.44c-1.88,2.95-5.07,4.71-8.55,4.71ZM251.36,220.78c3.29.6,6.55-.87,8.32-3.65l15.57-24.44c.56-.87.62-1.95.16-2.89-.44-.9-1.29-1.49-2.28-1.59-19.85-1.86-29.71-21.22-27.77-54.51.8-13.68-2.61-25-10.14-33.66-6.1-7.01-16.08-9.19-24.86-5.42l-25.02,10.77.5.25c22.74,11.22,22.65,25.85,22.5,50.09-.04,7.03-.09,15,.45,23.83,1.86,30.59,30.39,39.02,42.56,41.22h0ZM252.8,220.39c-.45,0-.9-.04-1.36-.12-12.06-2.18-40.31-10.51-42.15-40.75-.54-8.79-.49-16.74-.44-23.75.14-22.99.23-38.14-20.44-49.38-.34-.18-.54-.54-.52-.92.02-.38.25-.72.6-.87l22.07-9.5h0c2.76-1.19,5.65-1.79,8.61-1.79,6.04,0,11.75,2.58,15.66,7.07,7.43,8.55,10.8,19.75,10.01,33.29-1.96,33.61,8.07,53.16,28.23,55.05.8.08,1.5.56,1.86,1.3.38.78.33,1.67-.13,2.39l-15.57,24.44c-1.43,2.24-3.86,3.54-6.44,3.54ZM191.14,105.64c19.95,11.73,19.86,27.93,19.72,50.11-.04,7.02-.09,14.93.44,23.66,1.75,28.82,28.91,36.8,40.5,38.9,2.26.4,4.52-.59,5.75-2.53l15.57-24.44c.08-.13.09-.29.02-.43-.08-.17-.21-.18-.25-.19-21.41-2.01-32.08-22.31-30.04-57.16.76-13-2.45-23.72-9.53-31.86-3.53-4.06-8.69-6.39-14.15-6.39-2.68,0-5.31.55-7.82,1.63l-20.22,8.7Z"/><polygon class="cls-1" points="58.72 217.5 58.72 360.76 96.71 382.7 96.71 239.39 58.72 217.5"/><path class="cls-1" d="M56.4,166.28c-.3-.18-.57-.06-.67,0-.1.06-.34.23-.34.58v49.31s37.99,21.94,37.99,21.94v-50.16s-36.98-21.66-36.98-21.66Z"/><path class="cls-2" d="M164.15,140.57c.06.37-.28.7-.65.61-4.44-1.03-27.04-4.75-32.41,25.13-5.8,32.31-48.8,48.99-75.57,22.09-1.34-1.35-2.36-3-2.92-4.82l-8.12-26.33c-.69-2.24,1.87-4.04,3.75-2.65,11.48,8.54,36.26,23.52,48.14,4.24,15.76-25.57,29.99-39.67,48.05-35.52,0,0,17.35,2.19,19.73,17.24Z"/><path class="cls-7" d="M54.63,189.29c-1.51-1.51-2.62-3.36-3.23-5.33l-8.12-26.33c-.48-1.55.07-3.15,1.38-4.08,1.32-.93,3.02-.91,4.32.06,7.86,5.85,22.82,15.32,34.7,13.05,4.82-.92,8.73-3.77,11.62-8.46,13.3-21.58,28.49-40.88,49.27-36.11.18.02,18.32,2.49,20.82,18.29h0c.09.59-.11,1.19-.55,1.6-.44.41-1.05.57-1.62.43-2.53-.59-11.36-2.11-19.06,2.95-6.04,3.98-10.02,11.1-11.83,21.18-2.89,16.09-14.92,29.28-31.39,34.42-4.59,1.43-9.24,2.14-13.83,2.14-11.97,0-23.51-4.78-32.48-13.8ZM162.71,139.73c-2.8-13-17.81-15.07-18.58-15.18-15.65-3.59-29.18,6.54-46.7,34.96-3.27,5.31-7.75,8.54-13.29,9.61-12.83,2.46-28.48-7.41-36.67-13.5-.63-.47-1.21-.13-1.37-.02-.16.11-.67.54-.44,1.29l8.12,26.33c.49,1.59,1.39,3.08,2.61,4.3,11.74,11.8,28.11,15.93,43.78,11.04,15.57-4.86,26.94-17.3,29.66-32.46,1.94-10.79,6.29-18.47,12.93-22.84,4.88-3.21,10.14-4.04,14.26-4.04,2.35,0,4.33.27,5.67.52Z"/><path class="cls-3" d="M87.11,204.09c-12.36,0-24.15-5.01-33.19-14.1-1.62-1.62-2.82-3.61-3.48-5.74l-8.12-26.33c-.61-1.97.08-4.01,1.76-5.19,1.68-1.19,3.84-1.16,5.49.07,7.73,5.75,22.4,15.07,33.91,12.87,4.54-.87,8.22-3.56,10.96-8,13.48-21.88,28.92-41.45,50.3-36.57,1.17.17,19.07,2.99,21.62,19.12.15.92-.18,1.85-.86,2.49-.68.63-1.62.89-2.53.67-2.42-.57-10.91-2.03-18.27,2.81-5.8,3.82-9.64,10.73-11.4,20.53-2.96,16.46-15.25,29.95-32.07,35.2-4.64,1.45-9.39,2.18-14.13,2.18ZM46.78,153.85c-.53,0-1.07.17-1.55.51-.96.68-1.35,1.84-1.01,2.97l8.12,26.33c.56,1.82,1.59,3.53,2.98,4.92h0c8.66,8.71,19.95,13.51,31.77,13.51,4.54,0,9.09-.7,13.53-2.09,16.11-5.03,27.88-17.92,30.7-33.64,1.86-10.36,5.99-17.71,12.27-21.84,8.03-5.28,17.21-3.7,19.83-3.09.25.06.52-.01.71-.19.2-.18.29-.45.25-.71-2.37-15-19.78-17.43-19.96-17.45-20.29-4.66-35.19,14.38-48.29,35.64-3.04,4.94-7.18,7.94-12.29,8.92-12.26,2.34-27.49-7.28-35.48-13.23-.49-.36-1.04-.55-1.6-.55ZM87.12,201.57c-11.58,0-22.74-4.62-31.42-13.36-1.33-1.34-2.32-2.97-2.86-4.71l-8.12-26.33c-.34-1.11.22-1.99.82-2.4.59-.42,1.61-.66,2.54.04,8.06,6,23.45,15.7,35.88,13.32,5.26-1.01,9.51-4.09,12.63-9.15,17.78-28.86,31.62-39.12,47.77-35.41,1.6.21,16.47,2.62,19.33,15.94.07.33-.03.67-.26.91-.23.24-.57.35-.9.29-1.23-.23-3.17-.5-5.49-.5-5.2,0-9.81,1.3-13.71,3.87-6.4,4.21-10.61,11.68-12.49,22.18-2.79,15.53-14.42,28.27-30.35,33.24-4.44,1.39-8.94,2.06-13.37,2.06ZM46.79,156.37s-.06.01-.1.04c-.09.06-.08.11-.06.18l8.12,26.33c.44,1.44,1.26,2.78,2.37,3.89,11.47,11.54,27.46,15.57,42.78,10.79,15.21-4.75,26.32-16.89,28.97-31.68,1.99-11.07,6.48-18.97,13.36-23.5,4.18-2.75,9.3-4.2,14.81-4.2,1.65,0,3.13.13,4.32.29-3.31-10.73-15.88-12.76-17.36-12.96-15.24-3.5-28.46,6.5-45.71,34.49-3.43,5.56-8.12,8.95-13.95,10.06-13.19,2.53-29.13-7.49-37.45-13.68-.03-.03-.06-.05-.1-.05Z"/></g></svg>