<?xml version="1.0" encoding="UTF-8"?>
<svg width="143px" height="200px" viewBox="0 0 143 200" version="1.1" xmlns="http://www.w3.org/2000/svg" xmlns:xlink="http://www.w3.org/1999/xlink">
    <title>Group 155</title>
    <defs>
        <polygon id="path-1" points="0 0 20.475279 0 20.475279 20.6916549 0 20.6916549"></polygon>
        <polygon id="path-3" points="0 0 14.7853811 0 14.7853811 23.3819028 0 23.3819028"></polygon>
    </defs>
    <g id="Illustraties" stroke="none" stroke-width="1" fill="none" fill-rule="evenodd">
        <g transform="translate(-727, -2854)" id="Group-155">
            <g transform="translate(727, 2854)">
                <polygon id="Fill-1" fill="#000000" points="103.022037 161.315114 98.3041051 158.598691 97.3401107 157.622654 96.9592029 155.707341 96.9725125 145.744164 101.69298 148.478968 101.69298 158.428201 102.057409 160.352387"></polygon>
                <g id="Group-154">
                    <path d="M103.022037,162.755718 C102.778662,162.755718 102.521977,162.695508 102.302685,162.562412 L97.580317,159.841553 C97.4732065,159.768667 97.3749691,159.696415 97.2881399,159.610219 L96.3254131,158.633549 C96.1200652,158.440243 95.9869693,158.182924 95.9216889,157.900254 L95.5578935,155.976068 L95.5458515,145.744164 C95.5458515,145.230161 95.8145784,144.767494 96.265203,144.501936 C96.6930112,144.258561 97.2418732,144.258561 97.691864,144.501936 L102.409796,147.231669 C102.863589,147.488354 103.133584,147.964964 103.133584,148.478968 L103.120274,158.428201 L103.376959,159.631134 L104.033566,160.303585 C104.534893,160.81949 104.595737,161.625037 104.157155,162.194814 C103.874484,162.562412 103.446676,162.755718 103.022037,162.755718 L103.022037,162.755718 Z M99.1825378,157.451531 L100.280262,158.084687 L100.267586,149.29212 L98.3998073,148.233691 L98.3998073,155.707341 L98.6564922,156.914711 L99.1825378,157.451531 Z" id="Fill-2" fill="#000000"></path>
                    <polygon id="Fill-4" fill="#7BCCEC" points="101.693233 148.478651 96.972766 145.744481 105.485832 140.830075 110.203763 143.559808"></polygon>
                    <path d="M101.693233,149.905629 C101.449858,149.905629 101.205215,149.840348 100.987191,149.707886 L96.2648228,146.986393 C95.814832,146.734144 95.5454713,146.254999 95.5454713,145.744164 C95.5454713,145.230161 95.814832,144.767494 96.2648228,144.501302 L104.778522,139.58753 C105.217105,139.342253 105.764065,139.342253 106.205183,139.58753 L110.923115,142.317263 C111.37374,142.574581 111.644368,143.04929 111.644368,143.560124 C111.644368,144.074128 111.37374,144.548203 110.923115,144.806789 L102.410049,149.707886 C102.190758,149.840348 101.947383,149.905629 101.693233,149.905629 L101.693233,149.905629 Z M99.8387639,145.744164 L101.693233,146.815903 L107.342202,143.560124 L105.485832,142.488386 L99.8387639,145.744164 Z" id="Fill-6" fill="#000000"></path>
                    <polygon id="Fill-8" fill="#000000" points="70.877799 179.865446 66.1554306 177.135713 65.1958728 176.171085 64.8270071 174.24373 64.8403166 164.281187 69.5493754 167.01092 69.5493754 176.976632 69.9131708 178.887509"></polygon>
                    <path d="M70.877799,181.292424 C70.6331561,181.292424 70.3897808,181.232214 70.1704895,181.099118 L65.4481211,178.366216 C65.3289686,178.312978 65.2307312,178.233121 65.1445358,178.146925 L64.1799076,177.170255 C63.9745597,176.976949 63.8414638,176.707588 63.7901268,176.423651 L63.4256976,174.512774 L63.3997123,164.28087 C63.3997123,163.766867 63.6703405,163.3042 64.1196976,163.034206 C64.5608153,162.793365 65.1096773,162.793365 65.5463586,163.047515 L70.2687269,165.768375 C70.7193515,166.02506 70.9849095,166.499769 70.9849095,167.010603 L70.9849095,176.976949 L71.2282848,178.181784 L71.9013696,178.854235 C72.4026974,179.363802 72.4635412,180.169349 72.0224235,180.730253 C71.7302464,181.099118 71.3056071,181.292424 70.877799,181.292424 L70.877799,181.292424 Z M67.0338634,175.986969 L68.136024,176.621393 L68.1220806,167.842136 L66.2676114,166.76596 L66.2676114,174.244047 L66.5109867,175.463459 L67.0338634,175.986969 Z" id="Fill-10" fill="#000000"></path>
                    <polygon id="Fill-12" fill="#7BCCEC" points="69.5491853 167.01073 64.8407603 164.280997 73.3538259 159.378632 78.0717577 162.099492"></polygon>
                    <path d="M69.5491853,168.437771 C69.3045424,168.437771 69.0611671,168.377561 68.8418758,168.244465 L64.1195074,165.523606 C63.6707842,165.266287 63.4001559,164.80362 63.4001559,164.280744 C63.4001559,163.778782 63.6707842,163.304707 64.1195074,163.034079 L72.6344744,158.136151 C73.0711556,157.879466 73.6200176,157.879466 74.0706422,158.136151 L78.7911092,160.852574 C79.2277904,161.109259 79.4984187,161.585869 79.4984187,162.099873 C79.4984187,162.610707 79.2277904,163.085416 78.7911092,163.342101 L70.2685368,168.257775 C70.0467103,168.377561 69.8014336,168.437771 69.5491853,168.437771 L69.5491853,168.437771 Z M67.7067581,164.280744 L69.5491853,165.352482 L75.2057599,162.099873 L73.3538259,161.037007 L67.7067581,164.280744 Z" id="Fill-14" fill="#000000"></path>
                    <polygon id="Fill-16" fill="#000000" points="38.74592 198.400695 34.0235516 195.667793 33.0468814 194.707601 32.6951281 192.778978 32.6951281 182.829745 37.4124261 185.546168 37.4124261 195.508711 37.7812918 197.424024"></polygon>
                    <path d="M38.74592,199.841299 C38.5012771,199.841299 38.2439584,199.768413 38.0246671,199.643557 L33.3042001,196.915091 C33.1970896,196.854247 33.0849088,196.768052 32.9987134,196.683758 L32.0359866,195.71913 C31.8426807,195.508711 31.6975428,195.256463 31.645572,194.973793 L31.2817766,193.049607 L31.2557913,182.829745 C31.2557913,182.315741 31.5384615,181.839765 31.9751428,181.582447 C32.4257674,181.330198 32.9657563,181.330198 33.4144796,181.582447 L38.1317776,184.31725 C38.5735291,184.573935 38.8530305,185.036601 38.8530305,185.546168 L38.8530305,195.508711 L39.0964058,196.730658 L39.7574486,197.389166 C40.2575088,197.900001 40.3177189,198.706181 39.8766011,199.267085 C39.5983674,199.630881 39.1692916,199.841299 38.74592,199.841299 L38.74592,199.841299 Z M34.9019844,194.523802 L35.9990747,195.156958 L35.9857651,186.377701 L34.1357324,185.302793 L34.1357324,192.778978 L34.3791078,194.000292 L34.9019844,194.523802 Z" id="Fill-18" fill="#000000"></path>
                    <polygon id="Fill-20" fill="#7BCCEC" points="37.4126796 185.546042 32.6947478 182.829618 41.2052782 177.915212 45.9396886 180.631635"></polygon>
                    <path d="M37.4126796,186.986646 C37.1604312,186.986646 36.9290979,186.926436 36.7053701,186.792706 L31.9753963,184.060438 C31.5387151,183.815162 31.2560448,183.327143 31.2560448,182.829618 C31.2560448,182.315615 31.5387151,181.839638 31.9753963,181.58232 L40.5024052,176.668547 C40.9390865,176.415665 41.4879485,176.415665 41.9246297,176.668547 L46.6469981,179.389407 C47.0957213,179.660035 47.3663496,180.122702 47.3663496,180.631635 C47.3663496,181.159582 47.0957213,181.622249 46.6469981,181.878933 L38.1320311,186.792706 C37.9146412,186.926436 37.6693645,186.986646 37.4126796,186.986646 L37.4126796,186.986646 Z M35.562647,182.829618 L37.4126796,183.901357 L43.0597474,180.631635 L41.2052782,179.559896 L35.562647,182.829618 Z" id="Fill-22" fill="#000000"></path>
                    <path d="M45.9396252,180.631889 L45.9275832,190.5976 C45.9275832,197.099017 37.4037432,202.008987 37.4126093,195.508838 L37.4126093,185.546295 L45.9396252,180.631889 Z" id="Fill-24" fill="#3D68EC"></path>
                    <path d="M39.5984307,200 C38.9633733,200 38.3631743,199.852961 37.842199,199.549375 C36.9878502,199.061357 35.9858285,197.951591 35.9858285,195.508965 L35.9858285,185.545788 C35.9858285,185.036855 36.2564567,184.574188 36.70518,184.30356 L45.2201469,179.389153 C45.6568281,179.14451 46.2056902,179.14451 46.6588499,179.389153 C47.0961649,179.659782 47.3661594,180.122448 47.3661594,180.632015 L47.3661594,190.597727 C47.3661594,194.510112 44.7783954,197.793144 42.3915427,199.168468 C41.4275483,199.71733 40.4768635,200 39.5984307,200 L39.5984307,200 Z M38.8530938,186.37732 L38.8530938,195.508965 C38.8530938,196.473593 39.0711176,196.93626 39.280902,197.073792 C39.5255449,197.204987 40.1472928,197.146044 40.9528397,196.683378 C42.7166769,195.667412 44.486852,193.255208 44.486852,190.597727 L44.5001616,183.121542 L38.8530938,186.37732 Z" id="Fill-26" fill="#000000"></path>
                    <path d="M78.0715042,162.099746 L78.0715042,172.062923 C78.0715042,178.562438 69.5489317,183.476844 69.5489317,176.976696 L69.5489317,167.010984 L78.0715042,162.099746 Z" id="Fill-28" fill="#3D68EC"></path>
                    <path d="M71.7424785,181.463231 C70.6586978,181.463231 69.6940696,181.012606 69.047604,180.195017 C68.4397995,179.414822 68.1102287,178.326605 68.1102287,176.976632 L68.1222707,167.01092 C68.1222707,166.500086 68.3884625,166.025377 68.8416222,165.768058 L77.3521527,160.852384 C77.7932704,160.600136 78.3421324,160.600136 78.7908557,160.852384 C79.2281707,161.109703 79.498799,161.585679 79.498799,162.099682 L79.498799,172.062859 C79.498799,177.037476 75.1586059,181.463231 71.7424785,181.463231 L71.7424785,181.463231 Z M70.9850996,167.841819 L70.9850996,176.976632 C70.9850996,178.597233 71.5460036,178.597233 71.7424785,178.597233 C73.4011066,178.597233 76.6328012,175.63173 76.6328012,172.062859 L76.6328012,164.584773 L70.9850996,167.841819 Z" id="Fill-30" fill="#000000"></path>
                    <path d="M110.203573,143.559871 L110.203573,153.513541 C110.203573,160.01369 101.693043,164.941406 101.693043,158.427948 L101.693043,148.478714 L110.203573,143.559871 Z" id="Fill-32" fill="#3D68EC"></path>
                    <path d="M103.888174,162.926525 L103.888174,162.926525 C102.131942,162.926525 100.254023,161.744507 100.254023,158.427884 L100.267966,148.465341 C100.267966,147.964647 100.532257,147.488671 100.987318,147.231986 L109.495947,142.317579 C109.937698,142.060261 110.485927,142.060261 110.923242,142.317579 C111.373233,142.574264 111.644495,143.048973 111.644495,143.559808 L111.644495,153.514111 C111.630551,158.50077 107.303034,162.926525 103.888174,162.926525 L103.888174,162.926525 Z M103.133964,149.291803 L103.120021,158.427884 C103.120021,160.060527 103.690432,160.060527 103.888174,160.060527 C105.532859,160.060527 108.776595,157.099461 108.776595,153.514111 L108.776595,146.049334 L103.133964,149.291803 Z" id="Fill-34" fill="#000000"></path>
                    <polygon id="Fill-36" fill="#7BCCEC" points="128.619352 27.6507945 123.910927 24.9343711 132.531103 19.9584868 134.374164 19.3113873 135.702588 19.6631407 140.424956 22.3966764 139.091462 22.0411203 137.253472 22.6882197"></polygon>
                    <path d="M128.619352,29.089751 C128.375977,29.089751 128.131334,29.0295409 127.91331,28.8932761 L123.190942,26.1768527 C122.740951,25.9182665 122.47159,25.4435578 122.47159,24.9346246 C122.47159,24.4187196 122.740951,23.944011 123.190942,23.6873261 L131.811752,18.7127094 L133.911498,17.9661049 C134.168182,17.872304 134.473669,17.860262 134.738593,17.9325141 L136.071453,18.2880702 C136.178564,18.3089852 136.302787,18.3603222 136.409897,18.4332081 L141.132266,21.150899 C141.75338,21.5178634 142.018304,22.2727071 141.74007,22.9451582 C141.469442,23.6011307 140.729175,23.9699964 140.044048,23.7716202 L139.156743,23.5409206 L137.716138,24.0428822 L129.340605,28.8932761 C129.116877,29.0295409 128.873502,29.089751 128.619352,29.089751 L128.619352,29.089751 Z M126.764883,24.9346246 L128.619352,26.0044619 L136.216591,21.6256076 L135.141684,21.0038598 L134.434374,20.8244972 L132.995671,21.3220223 L126.764883,24.9346246 Z" id="Fill-38" fill="#000000"></path>
                    <polygon id="Fill-40" fill="#7BCCEC" points="128.619352 37.4927273 123.898885 34.7718673 123.910927 24.9341809 128.619352 27.6506043"></polygon>
                    <path d="M128.619352,38.9318739 C128.375977,38.9318739 128.131334,38.8729315 127.91331,38.7353991 L123.190942,36.0145391 C122.740951,35.761657 122.458281,35.2856808 122.458281,34.7716772 L122.47159,24.9346246 C122.47159,24.4187196 122.740951,23.944011 123.190942,23.6873261 C123.632693,23.4300074 124.181555,23.4300074 124.618237,23.6873261 L129.340605,26.420228 C129.789328,26.6775467 130.05552,27.1395795 130.05552,27.651048 L130.05552,37.4925371 C130.05552,38.0065407 129.789328,38.4825169 129.340605,38.7353991 C129.116877,38.8729315 128.873502,38.9318739 128.619352,38.9318739 L128.619352,38.9318739 Z M125.337588,33.9452152 L127.192057,35.0150525 L127.192057,28.4819465 L125.337588,27.4197147 L125.337588,33.9452152 Z" id="Fill-42" fill="#000000"></path>
                    <polygon id="Fill-44" fill="#7BCCEC" points="128.607183 64.7830854 123.889885 62.0533524 132.519568 57.0787357 134.361995 56.4316363 135.681546 56.7954316 140.399478 59.5169254 139.079927 59.1613692 137.227993 59.8084687"></polygon>
                    <path d="M128.607183,66.2100633 C128.36254,66.2100633 128.119165,66.1498533 127.899874,66.0167574 L123.177506,63.2952637 C122.728782,63.0385788 122.458154,62.5626026 122.458154,62.0530355 C122.458154,61.5390319 122.728782,61.0630558 123.177506,60.8108074 L131.799583,55.8311204 L133.886019,55.0908538 C134.16869,54.978673 134.460233,54.978673 134.726425,55.0515588 L136.045975,55.4083825 C136.179071,55.4337341 136.28935,55.4806346 136.396461,55.5535204 L141.118829,58.2743803 C141.739943,58.6388095 142.006135,59.4050614 141.727901,60.0654705 C141.4484,60.724612 140.717006,61.0884073 140.035049,60.9039745 L139.143306,60.661233 L137.703969,61.1612932 L129.326535,66.030067 C129.109145,66.1498533 128.864502,66.2100633 128.607183,66.2100633 L128.607183,66.2100633 Z M126.750813,62.0530355 L128.607183,63.1247742 L136.204423,58.7503565 L135.128247,58.1292424 L134.413332,57.9308662 L132.981601,58.4283913 L126.750813,62.0530355 Z" id="Fill-46" fill="#000000"></path>
                    <polygon id="Fill-48" fill="#7BCCEC" points="128.607183 74.6113917 123.889885 71.8829263 123.889885 62.0534792 128.607183 64.7832122"></polygon>
                    <path d="M128.607183,76.0519961 C128.36254,76.0519961 128.119165,75.9791103 127.887832,75.8542537 L123.165464,73.1257883 C122.728782,72.8805116 122.458154,72.405803 122.458154,71.8829263 L122.458154,62.0534792 C122.458154,61.5394756 122.728782,61.0628656 123.177506,60.8106172 C123.618623,60.5532986 124.155443,60.5532986 124.6048,60.8106172 L129.326535,63.5403502 C129.777159,63.7976689 130.04652,64.2603355 130.04652,64.7832122 L130.034478,74.6113917 C130.034478,75.1266629 129.76385,75.6013715 129.326535,75.8542537 C129.109145,75.9791103 128.864502,76.0519961 128.607183,76.0519961 L128.607183,76.0519961 Z M125.325419,71.0640698 L127.180522,72.1263016 L127.180522,65.6147445 L125.325419,64.5379355 L125.325419,71.0640698 Z" id="Fill-50" fill="#000000"></path>
                    <polygon id="Fill-52" fill="#7BCCEC" points="128.59362 101.894271 123.876322 99.1734112 132.4984 94.1987945 134.348432 93.5516951 135.667983 93.9072512 140.385915 96.6357166 139.070801 96.284597 137.22774 96.9272599"></polygon>
                    <path d="M128.59362,103.333418 C128.350245,103.333418 128.09356,103.270039 127.887578,103.136943 L123.156337,100.416083 C122.715219,100.161933 122.436985,99.6872247 122.436985,99.1732211 C122.436985,98.6579499 122.715219,98.1876779 123.156337,97.930993 L131.778414,92.9563762 L133.873724,92.1977298 C134.156394,92.1109006 134.44667,92.0994923 134.717298,92.1717444 L136.045722,92.5266667 C136.153466,92.5526521 136.277055,92.6128621 136.384165,92.6597626 L141.106534,95.3926645 C141.727648,95.7450517 141.997009,96.5157402 141.714338,97.1843885 C141.448146,97.8447975 140.703443,98.2092267 140.021485,98.0159208 L139.131011,97.7845875 L137.690406,98.2681692 L129.314873,103.136943 C129.095582,103.270039 128.850939,103.333418 128.59362,103.333418 L128.59362,103.333418 Z M126.725208,99.1732211 L128.59362,100.248129 L136.190859,95.8565987 L135.107079,95.2475266 L134.413079,95.0510518 L132.973108,95.5517458 L126.725208,99.1732211 Z" id="Fill-54" fill="#000000"></path>
                    <polygon id="Fill-56" fill="#7BCCEC" points="128.59362 111.731767 123.876322 109.015344 123.876322 99.1732211 128.59362 101.894081"></polygon>
                    <path d="M128.59362,113.170724 C128.336935,113.170724 128.09356,113.098472 127.874269,112.978686 L123.156337,110.244516 C122.703177,109.987197 122.436985,109.512489 122.436985,109.015598 L122.436985,99.1734746 C122.436985,98.6582035 122.715219,98.1879314 123.156337,97.9306127 C123.606962,97.6859698 124.14188,97.6726602 124.592505,97.9306127 L129.314873,100.659078 C129.751554,100.904355 130.034225,101.392373 130.034225,101.894335 L130.034225,111.732021 C130.034225,112.246025 129.751554,112.722001 129.314873,112.978686 C129.08354,113.098472 128.838263,113.170724 128.59362,113.170724 L128.59362,113.170724 Z M125.311856,108.184065 L127.166959,109.246931 L127.166959,102.733472 L125.311856,101.649692 L125.311856,108.184065 Z" id="Fill-58" fill="#000000"></path>
                    <path d="M128.59362,101.894271 L137.22774,96.9272599 C142.849456,93.6708476 142.837414,103.512971 137.215698,106.757341 L128.59362,111.731958 L128.59362,101.894271 Z" id="Fill-60" fill="#3D68EC"></path>
                    <path d="M128.59362,113.170724 C128.336935,113.170724 128.09356,113.098472 127.874269,112.978686 C127.424912,112.722001 127.166959,112.246025 127.166959,111.732021 L127.166959,101.894335 C127.166959,101.392373 127.437588,100.904355 127.887578,100.659078 L136.508388,95.6844614 C139.374386,94.0264671 141.337867,95.0633473 142.202356,96.5762037 C143.907885,99.5379038 142.249257,105.514542 137.935049,108.004069 L129.314873,112.978686 C129.08354,113.098472 128.838263,113.170724 128.59362,113.170724 L128.59362,113.170724 Z M130.034225,102.733472 L130.034225,109.246931 L136.508388,105.526584 C139.605719,103.723452 140.558305,99.4422015 139.726773,98.0155405 C139.645014,97.8570931 139.362344,97.3430895 137.935049,98.161946 L130.034225,102.733472 Z" id="Fill-62" fill="#000000"></path>
                    <path d="M128.607183,64.7830854 L137.227993,59.8084687 C142.863019,56.5507888 142.863019,66.3941793 137.227993,69.6366483 L128.607183,74.611265 L128.607183,64.7830854 Z" id="Fill-64" fill="#3D68EC"></path>
                    <path d="M128.607183,76.0519961 C128.36254,76.0519961 128.119165,75.9791103 127.887832,75.8542537 C127.451151,75.6013715 127.180522,75.1266629 127.180522,74.6113917 L127.180522,64.7832122 C127.180522,64.2603355 127.451151,63.7976689 127.899874,63.5403502 L136.520684,58.5657335 C139.374006,56.9077392 141.338121,57.9446194 142.21592,59.4562083 C143.93349,62.4172746 142.26282,68.3945469 137.947345,70.8790032 L129.326535,75.8542537 C129.109145,75.9791103 128.864502,76.0519961 128.607183,76.0519961 L128.607183,76.0519961 Z M130.04652,65.6147445 L130.034478,72.1263016 L136.520684,68.3945469 C139.619282,66.6123297 140.557925,62.3234737 139.738435,60.8923761 C139.645268,60.7332949 139.348654,60.2364036 137.947345,61.0419506 L130.04652,65.6147445 Z" id="Fill-66" fill="#000000"></path>
                    <path d="M128.619352,27.6507945 L137.253472,22.6882197 C142.875188,19.4444832 142.875188,29.2739303 137.24143,32.5183007 L128.619352,37.4929174 L128.619352,27.6507945 Z" id="Fill-68" fill="#3D68EC"></path>
                    <path d="M128.619352,38.9318739 C128.375977,38.9318739 128.131334,38.8729315 127.91331,38.7353991 C127.458249,38.4825169 127.192057,38.0065407 127.192057,37.4925371 L127.192057,27.651048 C127.192057,27.1395795 127.458249,26.6775467 127.91331,26.408186 L136.53412,21.4456113 C138.642739,20.2242982 140.107427,20.5551366 140.973818,21.0558305 C142.190695,21.7491967 142.910046,23.2626869 142.896103,25.1779999 C142.896103,27.9337183 141.363599,31.8106109 137.960781,33.7607824 L129.340605,38.7353991 C129.116877,38.8729315 128.873502,38.9318739 128.619352,38.9318739 L128.619352,38.9318739 Z M130.05552,28.4819465 L130.05552,35.0150525 L136.53412,31.2756923 C138.827172,29.9561417 140.035175,27.2004234 140.035175,25.1779999 C140.035175,24.2342868 139.777857,23.6645097 139.533214,23.5288786 C139.310754,23.4078248 138.799919,23.4426832 137.960781,23.9307014 L130.05552,28.4819465 Z" id="Fill-70" fill="#000000"></path>
                    <path d="M133.05886,10.1629474 L123.396733,4.59003302 C122.873857,4.39609332 122.681818,4.48288781 122.179857,4.71362205 L16.1005444,65.9047667 C15.6454833,66.2102535 15.4749938,66.3807429 15.1226067,66.8098187 C14.6345884,67.562761 14.4425501,68.0045126 14.3652278,68.905128 L14.3170597,191.412274 C14.3652278,191.947826 14.3912131,192.17916 14.8190213,192.548025 L24.490021,198.122207 C24.0489032,197.767285 24.0229178,197.535952 23.9760174,196.999132 L24.0140448,74.4799437 C24.0862968,73.7466488 24.1940411,73.4291201 24.5229781,72.7731476 C24.9267022,72.1609066 25.1459935,71.8953486 25.7582345,71.4795825 L131.837547,10.2884378 C132.325565,10.0526679 132.531547,9.97090904 133.05886,10.1629474" id="Fill-72" fill="#DD784B"></path>
                    <path d="M24.4763945,199.549439 C24.2330192,199.549439 23.9883763,199.484792 23.7703526,199.365006 L14.0993529,193.778148 C13.0155722,192.911757 12.9382499,192.157547 12.8900818,191.545306 L12.9293768,68.9050646 C13.0364873,67.588683 13.354016,66.9206685 13.9269621,66.0162504 C14.4289236,65.4040094 14.6944816,65.124508 15.281371,64.7226852 L121.460188,3.47133052 C122.278411,3.08852143 122.887483,2.87113151 123.898378,3.24760269 L133.766486,8.93396543 C134.420558,9.29839461 134.679144,10.1039415 134.348306,10.7719561 C134.032678,11.4583505 133.264525,11.7746116 132.557215,11.517293 L133.059177,10.162884 L132.472288,11.4919414 L26.4779029,72.7217472 C26.1483322,72.9530805 26.0500948,73.0652613 25.732566,73.5621526 C25.5348236,73.9430603 25.4879231,74.0761562 25.4498957,74.5996666 L25.4029953,196.999702 C25.9759413,197.475678 26.0830518,198.316084 25.6596802,198.923888 C25.3770099,199.327612 24.9390611,199.549439 24.4763945,199.549439 L24.4763945,199.549439 Z M122.681502,5.83663432 L16.8202128,67.1399598 C16.5888795,67.3104493 16.5115572,67.3827013 16.2320558,67.7217789 C15.9284705,68.2097971 15.8435426,68.4290884 15.7909381,69.0292874 L15.7573472,191.412844 L22.5490395,195.341074 L22.5870669,74.4798803 C22.6732623,73.3948321 22.8532586,72.9201235 23.2430394,72.1266185 C23.817253,71.2481858 24.1468238,70.8457292 24.9390611,70.297501 L129.679176,9.87260824 L122.681502,5.83663432 Z" id="Fill-74" fill="#000000"></path>
                    <path d="M133.521527,133.807112 L133.568427,11.2999664 C133.568427,10.1902003 132.77619,9.73957574 131.837547,10.2884378 L25.7582345,71.4795825 C24.8075497,72.0278107 24.0140448,73.3828534 24.0140448,74.4799437 L23.9760174,196.999132 C23.9760174,198.096856 24.7422693,198.559522 25.7068975,197.998618 L131.778605,136.819516 C132.741331,136.257344 133.521527,134.916245 133.521527,133.807112" id="Fill-76" fill="#DD784B"></path>
                    <path d="M24.9269557,199.668781 C24.5111896,199.668781 24.1214088,199.570544 23.7702892,199.365196 C22.9856573,198.914571 22.5356665,198.045646 22.5356665,196.999258 L22.5870035,74.4800705 C22.5870035,72.8683428 23.6327568,71.0379577 25.0385027,70.2368473 L131.117815,9.04126606 C132.022233,8.51838941 132.995735,8.47148896 133.778465,8.93415557 C134.55866,9.38478017 135.008651,10.2492696 135.008651,11.2994594 L134.948441,133.807239 C134.948441,135.42784 133.899519,137.243014 132.49821,138.048561 L26.4265026,199.240973 C25.924541,199.523644 25.4289173,199.668781 24.9269557,199.668781 L24.9269557,199.668781 Z M132.129344,11.7881114 L26.4778395,72.7219374 C25.9638359,73.0134807 25.4498324,73.9058569 25.4498324,74.4800705 L25.4029319,196.51124 L131.070915,135.572978 C131.580482,135.268759 132.082443,134.402368 132.082443,133.807239 L132.129344,11.7881114 Z" id="Fill-78" fill="#000000"></path>
                    <path d="M37.4640166,59.0283367 L32.7416482,56.2986038 L32.7416482,46.3443 C32.7416482,42.5276174 35.4035657,38.1139047 39.9281916,38.5417129 L44.6575316,41.2594039 C40.1474829,40.8468066 37.4640166,45.2091823 37.4640166,49.0651599 L37.4640166,59.0283367 Z" id="Fill-80" fill="#000000"></path>
                    <path d="M37.4640166,60.455378 C37.2206413,60.455378 36.9759984,60.395168 36.7446651,60.2620721 L32.0222967,57.5412122 C31.5856155,57.2838935 31.3073818,56.8079173 31.3073818,56.2983502 L31.3073818,46.3446803 C31.3073818,43.5509345 32.5027095,40.7489495 34.4135859,39.004126 C35.9860186,37.565423 37.9520348,36.9183235 40.0606537,37.1027564 C40.2786774,37.1287417 40.4764198,37.1889518 40.6475431,37.2947947 L45.3787845,40.0289642 C45.9529981,40.3585349 46.2312319,41.0525348 46.025884,41.6996343 C45.8154657,42.3346918 45.2412521,42.759331 44.5263371,42.6851776 C43.2067866,42.5533493 42.0488525,42.9558058 41.0588727,43.8475482 C39.7437588,45.0504814 38.904621,47.0900172 38.904621,49.0655402 L38.904621,59.0280832 C38.904621,59.5420868 38.6206831,60.0186968 38.1833681,60.2709452 C37.9659782,60.395168 37.7086595,60.455378 37.4640166,60.455378 L37.4640166,60.455378 Z M34.1822526,55.4668179 L36.0253136,56.5385566 L36.0373556,49.0655402 C36.0373556,46.2857378 37.2206413,43.4698094 39.1359543,41.7344927 C39.6239725,41.2851357 40.1335395,40.9207065 40.6944436,40.6247267 L39.5124255,39.9427688 C38.2321699,39.8838263 37.2421901,40.2995925 36.3409409,41.1266883 C35.0258269,42.322016 34.1822526,44.3691572 34.1822526,46.3446803 L34.1822526,55.4668179 Z" id="Fill-82" fill="#000000"></path>
                    <path d="M37.4640166,59.0283367 L37.4640166,49.0651599 C37.4773262,42.5656448 45.986589,37.6512381 45.986589,44.1634291 L45.986589,54.1126625 L37.4640166,59.0283367 Z" id="Fill-84" fill="#3D68EC"></path>
                    <path d="M37.4640166,60.455378 C37.2206413,60.455378 36.9759984,60.395168 36.7446651,60.2620721 C36.3079839,60.0186968 36.0253136,59.5420868 36.0253136,59.0280832 L36.0373556,49.0655402 C36.0373556,44.0909235 40.3648728,39.652493 43.7930423,39.652493 C45.549274,39.652493 47.41325,40.8345111 47.41325,44.1631755 L47.41325,54.1130428 C47.41325,54.6283139 47.1476921,55.1030225 46.6938985,55.3565385 L38.1833681,60.2709452 C37.9659782,60.395168 37.7086595,60.455378 37.4640166,60.455378 M43.7930423,42.5279977 C42.1350479,42.5279977 38.904621,45.4922329 38.904621,49.0655402 L38.904621,56.5385566 L44.5472522,53.285947 L44.5472522,44.1631755 C44.5472522,42.5279977 43.9730386,42.5279977 43.7930423,42.5279977" id="Fill-86" fill="#000000"></path>
                    <path d="M126.790361,29.9816201 L122.350663,27.4192076 C121.897504,27.2468168 121.717507,27.3241805 121.262446,27.5294871 L35.3173703,77.101362 C34.3787275,77.7573345 33.8786673,78.6142184 33.7785285,79.7582092 L33.7455714,179.024914 C33.7924718,179.513566 33.8045139,179.706872 34.1942946,180.024401 L38.6339927,182.58618 C38.2442119,182.268651 38.2182265,182.070908 38.1833681,181.58289 L38.2182265,82.3326636 C38.316464,81.1715606 38.8044822,80.3191132 39.7570683,79.6599717 L125.702144,30.0887306 C126.143262,29.8833827 126.327695,29.8092292 126.790361,29.9816201" id="Fill-88" fill="#DD784B"></path>
                    <path d="M38.6943929,184.034453 C38.4282011,184.034453 38.1575728,183.961567 37.9141975,183.815162 L33.4884428,181.266692 C32.438253,180.438329 32.3653672,179.732287 32.3184667,179.158074 L32.3520576,79.7582725 C32.48959,78.0654198 33.2178146,76.8187551 34.4999715,75.9187735 L120.559763,26.2873223 C121.301931,25.9324 121.909736,25.7131087 122.861688,26.0769041 L127.509903,28.7388215 C128.151932,29.1152927 128.397209,29.9208396 128.084117,30.589488 C127.762151,31.2752486 126.969914,31.5883408 126.276548,31.3221491 L126.790551,29.9816835 L126.241689,31.2967975 L40.47661,80.9054322 C39.9746484,81.2578194 39.7059215,81.720486 39.6450777,82.4398375 L39.610853,181.58232 C40.1939397,182.05893 40.2661917,182.843562 39.8415525,183.450732 C39.5848676,183.841147 39.1437499,184.034453 38.6943929,184.034453 L38.6943929,184.034453 Z M35.1844645,178.938782 L36.7562634,179.839398 L36.7911219,82.332727 C36.9286543,80.6367053 37.6435693,79.3805338 38.9377682,78.4767494 L123.459986,29.7243648 L121.923045,28.8326224 L36.0369119,78.3436535 C35.5368517,78.7004772 35.27066,79.1631439 35.2060134,79.8958049 L35.1844645,178.938782 Z" id="Fill-90" fill="#000000"></path>
                    <path d="M125.702081,30.088794 L39.757005,79.6600351 C38.9045576,80.1486871 38.2181632,81.3440148 38.2181632,82.332727 L38.1833047,181.58232 C38.1833047,182.572933 38.8652626,182.962714 39.705668,182.474696 L125.65518,132.902821 C126.507628,132.414803 127.192121,131.219475 127.192121,130.245974 L127.240923,30.9792687 C127.240923,29.9937255 126.545655,29.5912689 125.702081,30.088794" id="Fill-92" fill="#FFFFFF"></path>
                    <path d="M39.0239636,184.119064 C38.6341828,184.119064 38.2577116,184.025263 37.9148313,183.828788 C37.1726634,183.399712 36.7448552,182.58656 36.7448552,181.582637 L36.7911219,82.3324101 C36.7911219,80.8423701 37.7557501,79.162827 39.0360056,78.4174901 L124.986785,28.8462489 C125.839867,28.3487239 126.751256,28.3100627 127.509903,28.7391384 C128.238761,29.1625101 128.667837,29.9813666 128.667837,30.9789518 L128.628542,130.245657 C128.628542,131.72112 127.66835,133.405099 126.374785,134.136493 L40.425273,183.717241 C39.9746484,183.987869 39.4866302,184.119064 39.0239636,184.119064 L39.0239636,184.119064 Z M125.800572,31.6868951 L40.47661,80.9057491 C40.0608438,81.13835 39.6571197,81.8583353 39.6571197,82.3324101 L39.610853,180.876595 L124.947491,131.660276 C125.351215,131.415633 125.766981,130.709591 125.766981,130.245657 L125.800572,31.6868951 Z" id="Fill-94" fill="#000000"></path>
                    <path d="M111.313022,55.5789354 L54.1236271,88.5632617 C53.5582865,88.8928325 53.0956199,89.6863374 53.0956199,90.3454789 L53.086113,156.392088 C53.086113,157.036018 53.5367376,157.304745 54.0976417,156.98785 L111.292107,123.990848 C111.849843,123.661277 112.316946,122.881082 112.316946,122.220673 L112.337861,56.1746978 C112.337861,55.5142888 111.875194,55.2614066 111.313022,55.5789354" id="Fill-96" fill="#3D68EC"></path>
                    <path d="M53.644165,158.561107 C53.3057212,158.561107 52.9622071,158.462869 52.6586218,158.294915 C52.0115223,157.914007 51.6470931,157.220007 51.6470931,156.391644 L51.668642,90.345669 C51.668642,89.1725239 52.4013031,87.9030428 53.4128317,87.3212237 L110.607297,54.331827 C111.326649,53.9204974 112.118886,53.8951458 112.753944,54.271617 C113.400409,54.6354124 113.764839,55.3338488 113.764839,56.1742542 L113.738853,122.220863 C113.738853,123.378797 113.022671,124.659053 112.006705,125.233266 L54.8173101,158.218227 C54.4243603,158.440053 54.0250727,158.561107 53.644165,158.561107 L53.644165,158.561107 Z M110.90201,57.4684531 L54.8401265,89.8063138 C54.7190726,89.8785659 54.5346398,90.2005311 54.5346398,90.345669 L54.5137247,155.086037 L110.568002,122.74374 C110.691592,122.671488 110.876024,122.367269 110.876024,122.220863 L110.90201,57.4684531 Z" id="Fill-98" fill="#000000"></path>
                    <path d="M15.1227334,66.8101356 C14.6347152,67.5630779 14.4426769,68.0041957 14.3653545,68.9054449 L14.3171865,191.412591 C14.3653545,191.94751 14.3913399,192.178843 14.8185143,192.547709 L24.4901477,198.122524 C24.0483962,197.767602 24.0230446,197.536269 23.9761441,196.999449 L24.0141715,74.4796268 C24.0864236,73.7469657 24.1935341,73.429437 24.5231048,72.7734645 L15.1227334,66.8101356 Z" id="Fill-100" fill="#DD784B"></path>
                    <path d="M24.4763945,199.549439 C24.2330192,199.549439 23.9883763,199.484792 23.7703526,199.365006 L14.0993529,193.778148 C13.0155722,192.911757 12.9382499,192.157547 12.8900818,191.545306 L12.9293768,68.9050646 C13.0364873,67.588683 13.354016,66.9206685 13.9269621,66.0162504 C14.3655446,65.370327 15.230034,65.1733098 15.9024851,65.5884422 L25.2914483,71.5657145 C25.9169989,71.9554953 26.1483322,72.7610422 25.8048181,73.4176485 C25.5348236,73.9430603 25.4879231,74.0761562 25.4498957,74.5996666 L25.4029953,196.999702 C25.9759413,197.475678 26.0830518,198.316084 25.6596802,198.923888 C25.3770099,199.327612 24.9390611,199.549439 24.4763945,199.549439 L24.4763945,199.549439 Z M15.8042477,68.93105 C15.7909381,68.9684436 15.7909381,68.9899925 15.7909381,69.0292874 L15.7573472,191.412844 L22.5490395,195.341074 L22.5870669,74.4798803 C22.6219253,74.0159462 22.6732623,73.66039 22.7543874,73.3434951 L15.8042477,68.93105 Z" id="Fill-102" fill="#000000"></path>
                    <path d="M7.25632364,180.194954 L2.53839182,177.460784 C-0.0842306742,173.767691 2.36790235,169.26905 5.70987635,167.340428 L14.3306862,162.365811 L19.0479842,165.086671 L10.4278082,170.061287 C7.08393279,171.98991 4.63370114,176.488551 7.25632364,180.194954" id="Fill-104" fill="#000000"></path>
                    <g id="Group-108" transform="translate(0, 160.9303)">
                        <mask id="mask-2" fill="white">
                            <use xlink:href="#path-1"></use>
                        </mask>
                        <g id="Clip-107"></g>
                        <path d="M7.25632364,20.6916549 C7.01168075,20.6916549 6.76830544,20.6314449 6.54901414,20.4939124 L1.81904032,17.7774891 C1.63460746,17.6672096 1.488202,17.5201704 1.36841572,17.3617229 C0.135060622,15.6188007 -0.280705535,13.5919407 0.186397602,11.5086734 C0.735259632,8.98555593 2.58529227,6.55497176 4.98862347,5.16760573 L13.6113347,0.192989016 C14.0600579,-0.0643296721 14.596878,-0.0643296721 15.0379957,0.192989016 L19.7679695,2.922722 C20.2090873,3.18004069 20.475279,3.65411551 20.475279,4.15607709 C20.475279,4.67895374 20.2090873,5.14162035 19.7679695,5.39893904 L11.1471597,10.3735558 C9.44226491,11.3635355 8.08785595,13.1197673 7.69744139,14.8506474 C7.41477111,16.1404098 7.65814642,17.3496809 8.43073627,18.4334616 C8.82051705,18.9867601 8.76918007,19.7270267 8.31855547,20.2289883 C8.03651897,20.5332074 7.65814642,20.6916549 7.25632364,20.6916549 M3.53597708,15.4597195 L4.73193857,16.1404098 C4.70658698,15.5066199 4.75729017,14.8721963 4.90432942,14.2250968 C5.45129008,11.7140213 7.30766062,9.27583169 9.70655529,7.88846566 L16.1851554,4.15607709 L14.3306862,3.09384527 L6.42922785,7.64382277 C4.70658698,8.64267561 3.36548761,10.3868653 2.97570683,12.1177455 C2.72282467,13.325749 2.902821,14.4348813 3.53597708,15.4597195" id="Fill-106" fill="#000000" mask="url(#mask-2)"></path>
                    </g>
                    <path d="M7.2684924,143.074768 L2.55056059,140.341866 C-0.070160539,136.647505 2.38007111,132.148865 5.72204511,130.220242 L14.342855,125.245625 L19.060153,127.963316 L10.4399769,132.941102 C7.09736914,134.865288 4.6591795,139.365196 7.2684924,143.074768" id="Fill-109" fill="#000000"></path>
                    <path d="M7.2684924,144.501619 C7.02511709,144.501619 6.77984041,144.43824 6.56245049,144.305144 L1.84451867,141.584285 C1.64677623,141.477174 1.50163835,141.344078 1.37741553,141.172955 C0.147229388,139.428765 -0.254593392,137.401905 0.194129838,135.320539 C0.756301456,132.791084 2.59936241,130.366838 5.00269361,128.97757 L13.6228697,123.999785 C14.0734943,123.745635 14.6090467,123.745635 15.0634741,123.999785 L19.7814059,126.732686 C20.2225236,126.990005 20.5007574,127.452672 20.5007574,127.963506 C20.5007574,128.47751 20.2225236,128.951585 19.7814059,129.222847 L11.1593284,134.18352 C9.45443368,135.169063 8.10002472,136.927197 7.719117,138.658077 C7.44088325,139.951642 7.67221655,141.159645 8.43846851,142.243426 C8.82824928,142.780246 8.79529221,143.538893 8.33072423,144.038953 C8.04868774,144.343172 7.65827318,144.501619 7.2684924,144.501619 M3.56208922,139.270318 L4.73206533,139.951642 C4.72002332,139.330528 4.77896578,138.69547 4.91649818,138.048371 C5.47740222,135.525887 7.31666043,133.09974 9.73203364,131.695261 L16.1941552,127.963506 L14.342855,126.90381 L6.43696009,131.46266 C4.73206533,132.440598 3.37892395,134.208872 3.00118519,135.941653 C2.73055691,137.136981 2.92893314,138.254353 3.56208922,139.270318" id="Fill-111" fill="#000000"></path>
                    <path d="M7.28192875,105.951477 L2.56463072,103.22111 C-0.0491187152,99.5242139 2.39350746,95.0287424 5.73548146,93.1013874 L14.3562913,88.1267707 L19.0742231,90.843194 L10.4534133,95.8178108 C7.1095379,97.7464333 4.67324963,102.245074 7.28192875,105.951477" id="Fill-113" fill="#000000"></path>
                    <path d="M7.28192875,107.382891 C7.05059545,107.382891 6.79391055,107.318245 6.57461925,107.185149 L1.8522509,104.463655 C1.67225458,104.366052 1.51380711,104.220914 1.40352767,104.052959 C0.160665733,102.310037 -0.254466634,100.283177 0.207566184,98.1954735 C0.768470221,95.672356 2.59885538,93.2462084 5.02373543,91.8588423 L13.6489818,86.8797891 C14.073621,86.6269069 14.6224831,86.6269069 15.0756428,86.8797891 L19.7935746,89.612691 C20.2441992,89.8668407 20.5129261,90.3453521 20.5129261,90.8428772 C20.5129261,91.3708241 20.2441992,91.8328569 19.7935746,92.0901756 L11.1727648,97.0647923 C9.46343349,98.0503356 8.10902453,99.8065673 7.73255335,101.537447 C7.45305202,102.831646 7.69769491,104.040917 8.46394686,105.124698 C8.84231942,105.67356 8.80682718,106.413827 8.34035784,106.915788 C8.06212408,107.219374 7.67170952,107.382891 7.28192875,107.382891 M3.57552557,102.15159 L4.75754368,102.831646 C4.73219209,102.209899 4.79240213,101.563433 4.92993453,100.929643 C5.49083857,98.4052579 7.3288292,95.9626317 9.74610378,94.5752657 L16.206324,90.8428772 L14.3562913,89.7850819 L6.45039644,94.3439324 C4.74550168,95.3294757 3.39109272,97.0901439 3.01462153,98.8089821 C2.75603526,100.016986 2.94046812,101.135625 3.57552557,102.15159" id="Fill-115" fill="#000000"></path>
                    <path d="M19.074033,100.685 L10.4532231,105.659617 C4.81819737,108.903353 4.83023938,99.0739062 10.4532231,95.8174939 L19.074033,90.8428772 L19.074033,100.685 Z" id="Fill-117" fill="#3D68EC"></path>
                    <path d="M8.43840513,107.747194 C7.71905362,107.747194 7.16258612,107.536776 6.73351037,107.292133 C5.50459181,106.586091 4.79221199,105.085276 4.79221199,103.1744 C4.79221199,100.40664 6.35703919,96.5373524 9.74591364,94.575139 L18.3667235,89.6125643 C18.8034047,89.3552456 19.3427599,89.3552456 19.7933845,89.6125643 C20.2440091,89.866714 20.512736,90.3458591 20.512736,90.8427504 L20.500694,100.684873 C20.500694,101.195708 20.2300657,101.674853 19.7933845,101.927735 L11.1725746,106.902352 C10.088794,107.527903 9.18374202,107.747194 8.43840513,107.747194 L8.43840513,107.747194 Z M17.6467382,93.3329108 L11.1725746,97.0646656 C8.86748088,98.3937229 7.6582098,101.14754 7.6582098,103.1744 C7.6582098,104.099733 7.92883807,104.673947 8.17221338,104.820986 C8.39150468,104.940139 8.90107174,104.90528 9.73197026,104.417262 L17.6334286,99.8584113 L17.6467382,93.3329108 Z" id="Fill-119" fill="#000000"></path>
                    <path d="M19.0604065,137.805376 L10.4395967,142.779993 C4.80457089,146.023729 4.81788048,136.184775 10.4395967,132.941039 L19.0604065,127.963253 L19.0604065,137.805376 Z" id="Fill-121" fill="#3D68EC"></path>
                    <path d="M8.41723655,144.865922 C7.01149061,144.865922 6.01390535,144.085726 5.45173373,143.123 C3.74620518,140.157497 5.41370634,134.183393 9.73235054,131.695134 L18.3411184,126.720518 C18.7911092,126.475875 19.3310982,126.475875 19.7817228,126.73256 C20.2228405,126.989878 20.5010743,127.452545 20.5010743,127.96338 L20.4871309,137.805503 C20.4871309,138.319506 20.2228405,138.795482 19.7817228,139.052167 L11.1590115,144.026784 C10.1221313,144.622546 9.19743188,144.865922 8.41723655,144.865922 L8.41723655,144.865922 Z M17.6331751,130.452906 L11.1590115,134.183393 C8.06168043,135.963075 7.10972804,140.255734 7.94126035,141.696339 C8.02745578,141.853518 8.31899912,142.35548 9.72030853,141.537257 L17.6211331,136.978407 L17.6331751,130.452906 Z" id="Fill-123" fill="#000000"></path>
                    <path d="M19.0482377,174.92404 L10.4274279,179.903094 C4.79240213,183.147464 4.79240213,173.317383 10.4274279,170.060971 L19.0482377,165.086354 L19.0482377,174.92404 Z" id="Fill-125" fill="#3D68EC"></path>
                    <path d="M8.40513116,181.986234 C7.69782166,181.986234 7.12297425,181.780886 6.70784188,181.535609 C5.47702195,180.8283 4.77098003,179.328753 4.77098003,177.41344 C4.77098003,174.64568 6.31742732,170.780829 9.70630177,168.818616 L18.329013,163.839562 C18.7821728,163.594286 19.3170914,163.594286 19.767716,163.852872 C20.2094676,164.110191 20.4750255,164.584899 20.4750255,165.086227 L20.4750255,174.923914 C20.4750255,175.437917 20.2094676,175.901851 19.767716,176.171212 L11.1335966,181.133787 C10.0631255,181.766943 9.15807353,181.986234 8.40513116,181.986234 L8.40513116,181.986234 Z M17.6121967,167.571317 L11.1469062,171.303706 C8.84181239,172.632763 7.63254131,175.38658 7.63254131,177.41344 C7.63254131,178.340041 7.88986,178.912987 8.14654489,179.050519 C8.35379418,179.183615 8.87983978,179.132278 9.70630177,178.656302 L17.6121967,174.097452 L17.6121967,167.571317 Z" id="Fill-127" fill="#000000"></path>
                    <path d="M101.741591,21.9429462 L97.0242932,19.2265228 L97.0242932,9.26397982 C97.0242932,5.45870542 99.6798727,1.02851421 104.217808,1.45632237 L108.935106,4.19049188 C104.423156,3.76268372 101.741591,8.12822837 101.741591,11.9937128 L101.741591,21.9429462 Z" id="Fill-129" fill="#000000"></path>
                    <g id="Group-133" transform="translate(95.5837, 0)">
                        <mask id="mask-4" fill="white">
                            <use xlink:href="#path-3"></use>
                        </mask>
                        <g id="Clip-132"></g>
                        <path d="M6.15790241,23.3819028 C5.90121751,23.3819028 5.65594083,23.3229603 5.43664953,23.1898644 L0.719351506,20.4556949 C0.279501334,20.2123196 0,19.7363434 0,19.2267764 L0.0133095873,9.26359955 C0.0133095873,6.48379716 1.1953277,3.66279844 3.1106407,1.92051007 C4.68434095,0.484342221 6.64592061,-0.153884181 8.76721532,0.0305486719 C8.97256324,0.0565340567 9.1690381,0.115476515 9.34142894,0.213713945 L14.058727,2.94344693 C14.6456164,3.28696104 14.9238501,3.98096095 14.7178684,4.61538462 C14.5125205,5.26248408 13.9123215,5.67825023 13.2189554,5.61296988 C11.8987711,5.49381738 10.728795,5.88359815 9.7571951,6.77407292 C8.43764458,7.96940062 7.59723921,10.0178095 7.59723921,11.9933325 L7.5851972,21.9431998 C7.5851972,22.4572033 7.31456893,22.9331795 6.86394433,23.1898644 C6.64592061,23.3229603 6.40127772,23.3819028 6.15790241,23.3819028 L6.15790241,23.3819028 Z M2.87487087,18.395244 L4.7312414,19.4669827 L4.7312414,11.9933325 C4.7312414,9.20022056 5.91325952,6.39760174 7.81653051,4.65341201 C8.30454871,4.21166047 8.82742536,3.84723129 9.37438602,3.54364594 L8.1923679,2.87119488 C6.95013975,2.79830905 5.95255449,3.22611721 5.03482675,4.04560752 C3.73175477,5.23649869 2.87487087,7.28490756 2.87487087,9.26359955 L2.87487087,18.395244 Z" id="Fill-131" fill="#000000" mask="url(#mask-4)"></path>
                    </g>
                    <path d="M101.741591,21.9429462 L101.741591,11.9937128 C101.741591,5.48025428 110.2686,0.565847599 110.2686,7.07930613 L110.2686,17.0317085 L101.741591,21.9429462 Z" id="Fill-134" fill="#3D68EC"></path>
                    <path d="M101.741591,23.3819028 C101.484906,23.3819028 101.23963,23.3229603 101.020338,23.1898644 C100.571615,22.9331795 100.300987,22.4572033 100.300987,21.9431998 L100.31493,11.9933325 C100.31493,8.0771449 102.898258,4.79981747 105.289547,3.42005691 C106.938668,2.45542873 108.596662,2.32233285 109.827482,3.04168436 C110.67993,3.53033635 111.690825,4.62742662 111.690825,7.07955964 L111.690825,17.031962 C111.690825,17.5427967 111.425267,18.0175053 110.983515,18.2741902 L102.447633,23.1898644 C102.229609,23.3229603 101.984967,23.3819028 101.741591,23.3819028 M108.069349,5.44691693 C107.753088,5.44691693 107.277112,5.57811143 106.716208,5.89564016 C104.958075,6.9071688 103.180928,9.33648538 103.180928,11.9933325 L103.168886,19.4669827 L108.827996,16.2016973 L108.827996,7.07955964 C108.827996,6.11493146 108.605536,5.63895526 108.386244,5.51980276 C108.313992,5.479874 108.206882,5.44691693 108.069349,5.44691693" id="Fill-136" fill="#000000"></path>
                    <path d="M69.5960857,40.4796522 L64.887027,37.7619612 L64.887027,27.8095588 C64.887027,23.9954114 67.5356348,19.5772622 72.0735703,20.0063379 L76.7915021,22.7271978 C72.2789182,22.2981221 69.6093953,26.6649343 69.6093953,30.5304187 L69.5960857,40.4796522 Z" id="Fill-138" fill="#000000"></path>
                    <path d="M69.5960857,41.9186087 C69.3527104,41.9186087 69.1080675,41.8583987 68.8767342,41.7253028 L64.1708444,39.0044429 C63.7176846,38.7471242 63.4514929,38.2730494 63.4514929,37.7615809 L63.4514929,27.8091785 C63.4514929,25.0192355 64.6468206,22.1995044 66.5576971,20.4553146 C68.1358338,19.0286536 70.0980473,18.3954976 72.2047648,18.5792966 C72.4107465,18.5919724 72.608489,18.6521825 72.7929218,18.7637295 L77.5108537,21.4801529 C78.0971093,21.823667 78.363301,22.5176669 78.1579531,23.1641326 C77.9519714,23.7979224 77.4037432,24.2010128 76.6584063,24.1541123 C75.3508978,24.0292557 74.1809217,24.4190365 73.1953784,25.3107789 C71.8891375,26.5061066 71.0366901,28.5545154 71.0366901,30.5300385 L71.0366901,40.4799057 C71.0366901,41.0053175 70.7660618,41.4819275 70.3154372,41.7253028 C70.0980473,41.8583987 69.8527706,41.9186087 69.5960857,41.9186087 L69.5960857,41.9186087 Z M66.3143217,36.93195 L68.1687909,38.0068576 L68.1687909,30.5300385 C68.1687909,27.7356589 69.3527104,24.9343077 71.2680234,23.1901179 C71.7560416,22.7483664 72.2656087,22.384571 72.8265127,22.0923939 L71.6444946,21.4079008 C70.3895906,21.3597328 69.3907378,21.7628232 68.4863196,22.5759756 C67.1712057,23.7719371 66.3143217,25.8203459 66.3143217,27.8091785 L66.3143217,36.93195 Z" id="Fill-140" fill="#000000"></path>
                    <path d="M69.5960857,40.4796522 L69.6093953,30.5304187 C69.6093953,24.0290022 78.1186581,19.1145955 78.1186581,25.6147445 L78.1186581,35.5772875 L69.5960857,40.4796522 Z" id="Fill-142" fill="#3D68EC"></path>
                    <path d="M69.5960857,41.9186087 C69.3527104,41.9186087 69.1080675,41.8583987 68.8767342,41.7253028 C68.4394192,41.4819275 68.1687909,40.9939093 68.1687909,40.4799057 L68.1687909,30.5300385 C68.1687909,25.5554218 72.5102516,21.1283995 75.9251114,21.1283995 C77.6819769,21.1283995 79.5592625,22.2983756 79.5592625,25.6143642 L79.5453191,35.577541 C79.5453191,36.0776012 79.2791274,36.5675208 78.8304042,36.8197692 L70.3154372,41.7253028 C70.0980473,41.8583987 69.8527706,41.9186087 69.5960857,41.9186087 M75.9251114,23.9956649 C74.2671171,23.9956649 71.0366901,26.9554636 71.0366901,30.5300385 L71.0366901,38.0068576 L76.6793213,34.7504452 L76.6793213,25.6143642 C76.6793213,23.9956649 76.1095442,23.9956649 75.9251114,23.9956649" id="Fill-144" fill="#000000"></path>
                    <path d="M71.4018798,114.637948 L77.1750718,112.017226 L77.1750718,102.136442 C77.1750718,101.716873 77.1034535,101.352444 76.9614846,101.043155 C76.8195157,100.734499 76.6179705,100.497462 76.3581166,100.332043 C76.0982628,100.167257 75.7921423,100.081062 75.4397551,100.073456 C75.0867341,100.066485 74.6994885,100.160919 74.2792858,100.356127 C73.8584494,100.552601 73.4718375,100.818159 73.1188166,101.1528 C72.7664294,101.488075 72.4628441,101.857575 72.2093281,102.260031 C71.9558122,102.662488 71.7574359,103.083958 71.615467,103.523175 C71.4728643,103.962391 71.4018798,104.390833 71.4018798,104.807867 L71.4018798,114.637948 Z M77.7137932,122.269411 C77.5280927,122.351804 77.3911941,122.339128 77.3049987,122.231384 C77.2181695,122.124274 77.1750718,121.974699 77.1750718,121.783928 L77.1750718,115.183641 L71.4018798,117.787883 L71.4018798,124.391974 C71.4018798,124.581477 71.3676552,124.758304 71.2998397,124.921188 C71.2320241,125.084072 71.0982945,125.210196 70.900552,125.297659 L68.376167,126.420101 C68.2392684,126.480945 68.1283551,126.467636 68.0421597,126.379539 C67.9553305,126.292076 67.9122328,126.147572 67.9122328,125.945393 L67.9122328,106.252908 C67.9122328,105.39539 68.0820885,104.512521 68.4224336,103.603032 C68.7627788,102.694177 69.223544,101.822716 69.8053631,100.989283 C70.3871822,100.155849 71.0615347,99.3978362 71.8290542,98.7158783 C72.5959399,98.0339204 73.4128951,97.4901287 74.2792858,97.0838694 C75.1450428,96.6782439 75.9651669,96.4564174 76.7390243,96.4177563 C77.512248,96.3803627 78.1897694,96.5096558 78.7715885,96.8037343 C79.3534076,97.0990804 79.8141728,97.5478036 80.154518,98.1473688 C80.4948631,98.7482016 80.6653526,99.4821303 80.6653526,100.349789 L80.6653526,120.229876 C80.6653526,120.408604 80.6304942,120.589868 80.5626786,120.773034 C80.4948631,120.956199 80.3554294,121.094365 80.1450111,121.188166 L77.7137932,122.269411 Z" id="Fill-146" fill="#FFFFFF"></path>
                    <path d="M83.7652189,116.662526 C83.7652189,116.43246 83.8209924,116.237887 83.9325394,116.079439 C84.0434526,115.920992 84.1733796,115.808177 84.3223202,115.741629 L86.7909317,114.6363 C87.00135,114.541865 87.1464879,114.547569 87.227613,114.652778 C87.3074705,114.757987 87.348033,114.899956 87.348033,115.079953 L87.348033,117.331808 C87.348033,117.562508 87.2890906,117.755813 87.1718394,117.910458 C87.0539545,118.065737 86.9398724,118.167777 86.8283253,118.217212 L84.3033065,119.339654 C84.2044353,119.38402 84.0903531,119.389724 83.9604262,119.358034 C83.8304992,119.326345 83.7652189,119.188812 83.7652189,118.946071 L83.7652189,116.662526 Z" id="Fill-148" fill="#FFFFFF"></path>
                    <path d="M90.6522965,90.5146374 C90.6522965,90.3092895 90.6985632,90.1197863 90.7917303,89.9473954 C90.8842636,89.7756384 91.0236974,89.6457115 91.2093978,89.5588822 L93.603856,88.4383418 C93.7895564,88.3515125 93.9289902,88.3508787 94.0215235,88.4364404 C94.1146906,88.522002 94.1609573,88.6684075 94.1609573,88.8743892 L94.1609573,114.260209 C94.1609573,114.480134 94.1172258,114.670271 94.0310304,114.831253 C93.9442011,114.99287 93.8015984,115.117093 93.603856,115.205189 L91.2093978,116.269956 C91.0110216,116.358053 90.8684189,116.360588 90.7822235,116.276294 C90.6953942,116.192634 90.6522965,116.041158 90.6522965,115.822501 L90.6522965,90.5146374 Z" id="Fill-150" fill="#FFFFFF"></path>
                    <path d="M97.4836641,110.528454 C97.4836641,110.295219 97.5394376,110.098744 97.6509846,109.939029 C97.7618978,109.779314 97.8918247,109.665866 98.0407654,109.599318 L100.509377,108.493989 C100.719795,108.399554 100.864933,108.406526 100.946058,108.513002 C101.025916,108.620113 101.066478,108.763983 101.066478,108.945881 L101.066478,111.224989 C101.066478,111.458858 101.007536,111.654065 100.890285,111.809977 C100.7724,111.966523 100.658318,112.069197 100.546771,112.118633 L98.0217517,113.241075 C97.9228804,113.28544 97.8087983,113.29051 97.6788713,113.257553 C97.5489444,113.22523 97.4836641,113.085162 97.4836641,112.839252 L97.4836641,110.528454 Z" id="Fill-152" fill="#FFFFFF"></path>
                </g>
            </g>
        </g>
    </g>
</svg>