<?xml version="1.0" encoding="UTF-8"?><svg id="Layer_1" xmlns="http://www.w3.org/2000/svg" viewBox="0 0 720 720"><defs><style>.cls-1{fill:#f4d9dc;}.cls-2{fill:#3d68ec;}</style></defs><rect class="cls-2" x="89.7" y="89.7" width="540.6" height="540.6"/><path class="cls-1" d="M224.85,109.29c13.48,0,26.93,5.59,39.96,16.61,13.86,11.72,27.03,29.61,38.09,51.73,11.67,23.33,20.86,50.66,27.32,81.21,6.77,31.99,10.2,66.03,10.2,101.16s-3.43,69.17-10.2,101.16c-6.46,30.56-15.65,57.88-27.32,81.21-11.06,22.12-24.23,40.01-38.09,51.73-13.03,11.02-26.47,16.61-39.96,16.61s-26.93-5.59-39.96-16.61c-13.86-11.72-27.03-29.61-38.09-51.73-11.67-23.33-20.86-50.65-27.32-81.21-6.77-31.99-10.2-66.03-10.2-101.16,0-35.13,3.43-69.17,10.2-101.16,6.46-30.56,15.65-57.88,27.32-81.21,11.06-22.12,24.23-40.01,38.09-51.73,13.03-11.02,26.47-16.61,39.96-16.61M224.85,89.7c-74.64,0-135.15,121.02-135.15,270.3,0,149.28,60.51,270.3,135.15,270.3s135.15-121.02,135.15-270.3S299.49,89.7,224.85,89.7h0Z"/><path class="cls-1" d="M495.15,109.29c13.48,0,26.93,5.59,39.96,16.61,13.86,11.72,27.03,29.61,38.09,51.73,11.67,23.33,20.86,50.65,27.32,81.21,6.77,31.99,10.2,66.03,10.2,101.16s-3.43,69.17-10.2,101.16c-6.46,30.56-15.65,57.88-27.32,81.21-11.06,22.12-24.23,40.01-38.09,51.73-13.03,11.02-26.47,16.61-39.96,16.61s-26.93-5.59-39.96-16.61c-13.86-11.72-27.03-29.61-38.09-51.73-11.67-23.33-20.86-50.65-27.32-81.21-6.77-31.99-10.2-66.03-10.2-101.16s3.43-69.17,10.2-101.16c6.46-30.56,15.65-57.88,27.32-81.21,11.06-22.12,24.23-40.01,38.09-51.73,13.03-11.02,26.47-16.61,39.96-16.61M495.15,89.7c-74.64,0-135.15,121.02-135.15,270.3s60.51,270.3,135.15,270.3,135.15-121.02,135.15-270.3-60.51-270.3-135.15-270.3h0Z"/><path class="cls-1" d="M360,109.29c13.48,0,26.93,5.59,39.96,16.61,13.86,11.72,27.03,29.61,38.09,51.73,11.67,23.33,20.86,50.65,27.32,81.21,6.77,31.99,10.2,66.03,10.2,101.16s-3.43,69.17-10.2,101.16c-6.46,30.56-15.65,57.88-27.32,81.21-11.06,22.12-24.23,40.01-38.09,51.73-13.03,11.02-26.47,16.61-39.96,16.61s-26.93-5.59-39.96-16.61c-13.86-11.72-27.03-29.61-38.09-51.73-11.67-23.33-20.86-50.65-27.32-81.21-6.77-31.99-10.2-66.03-10.2-101.16s3.43-69.17,10.2-101.16c6.46-30.56,15.65-57.88,27.32-81.21,11.06-22.12,24.23-40.01,38.09-51.73,13.03-11.02,26.47-16.61,39.96-16.61M360,89.7c-74.64,0-135.15,121.02-135.15,270.3s60.51,270.3,135.15,270.3,135.15-121.02,135.15-270.3-60.51-270.3-135.15-270.3h0Z"/></svg>