<?xml version="1.0" encoding="UTF-8"?><svg id="Layer_1" xmlns="http://www.w3.org/2000/svg" viewBox="0 0 720 720"><defs><style>.cls-1,.cls-2{fill:#00af81;}.cls-1,.cls-2,.cls-3,.cls-4,.cls-5,.cls-6,.cls-7,.cls-8,.cls-9,.cls-10{stroke:#000;stroke-linecap:round;stroke-linejoin:round;}.cls-1,.cls-4,.cls-6,.cls-8{stroke-width:5.88px;}.cls-2,.cls-5,.cls-7{stroke-width:9.29px;}.cls-3{stroke-width:3.06px;}.cls-4,.cls-5{fill:#f4d9dc;}.cls-6,.cls-7{fill:#dd784b;}.cls-8,.cls-9,.cls-10{fill:#101010;}.cls-9{stroke-width:5.76px;}.cls-10{stroke-width:6.97px;}</style></defs><ellipse class="cls-8" cx="155.86" cy="275.4" rx="53.55" ry="70.27"/><ellipse class="cls-4" cx="172.96" cy="281.76" rx="53.55" ry="70.27"/><polygon class="cls-3" points="140.18 280.3 146.33 269.82 168.19 298.69 198.18 247.37 206.73 256.78 169.37 318.18 140.18 280.3"/><ellipse class="cls-8" cx="353.63" cy="521.46" rx="53.55" ry="70.27"/><ellipse class="cls-6" cx="370.72" cy="527.82" rx="53.55" ry="70.27"/><polygon class="cls-3" points="337.94 526.36 344.09 515.88 365.95 544.75 395.94 493.43 404.49 502.84 367.13 564.25 337.94 526.36"/><ellipse class="cls-8" cx="449.74" cy="229.51" rx="53.55" ry="70.27"/><ellipse class="cls-1" cx="466.84" cy="235.87" rx="53.55" ry="70.27"/><polygon class="cls-3" points="434.05 234.41 440.21 223.93 462.07 252.79 492.06 201.48 500.6 210.89 463.25 272.29 434.05 234.41"/><ellipse class="cls-10" cx="306.66" cy="336.77" rx="63.41" ry="83.2"/><ellipse class="cls-2" cx="332.78" cy="343.31" rx="63.41" ry="83.2"/><path class="cls-7" d="M332.78,343.31l60.74,23.87c-8.01,35.11-32.81,59.34-60.74,59.34-34.78,0-63.41-37.56-63.41-83.2,0-20.85,5.97-40.96,16.73-56.31l46.68,56.31Z"/><path class="cls-5" d="M332.78,343.31l-32.35,71.56c-19.23-14.97-31.06-42.22-31.06-71.56,0-36.76,18.57-69.37,45.44-79.79l17.97,79.79Z"/><ellipse class="cls-9" cx="335.1" cy="344.07" rx="19.29" ry="25.32"/></svg>