<?xml version="1.0" encoding="UTF-8"?><svg id="Layer_1" xmlns="http://www.w3.org/2000/svg" xmlns:xlink="http://www.w3.org/1999/xlink" viewBox="0 0 720 720"><defs><style>.cls-1{mask:url(#mask);}.cls-2{fill:#fff;}.cls-2,.cls-3,.cls-4,.cls-5,.cls-6,.cls-7{fill-rule:evenodd;}.cls-3{fill:#f4d74b;}.cls-4{fill:#00af81;}.cls-8{mask:url(#mask-1);}.cls-5{fill:#f4d9dc;}.cls-7{fill:#dd784b;}</style><mask id="mask" x="250.19" y="57.92" width="177.79" height="567.25" maskUnits="userSpaceOnUse"><g id="mask-2"><polygon id="path-1" class="cls-2" points="250.19 57.92 427.97 57.92 427.97 625.17 250.19 625.17 250.19 57.92"/></g></mask><mask id="mask-1" x="85.41" y="265.93" width="512.59" height="217.6" maskUnits="userSpaceOnUse"><g id="mask-4"><polygon id="path-3" class="cls-2" points="85.41 265.93 598 265.93 598 483.53 85.41 483.53 85.41 265.93"/></g></mask></defs><g id="website"><g id="Hubs"><g id="Group"><g id="Group-39"><path id="Fill-1" class="cls-7" d="M144.77,246.23c25.41,0,45.95-20.51,45.95-45.89s-20.54-45.89-45.95-45.89-45.92,20.55-45.92,45.89,20.65,45.89,45.92,45.89"/><path id="Fill-3" class="cls-6" d="M144.77,250.25c-27.52,0-49.87-22.39-49.87-49.9s22.35-49.9,49.87-49.9,49.9,22.38,49.9,49.9-22.35,49.9-49.9,49.9M144.77,158.47c-23.1,0-41.84,18.77-41.84,41.87s18.75,41.91,41.84,41.91,41.87-18.81,41.87-41.91-18.74-41.87-41.87-41.87"/><path id="Fill-5" class="cls-5" d="M341.69,569.01c125.62,0,227.54-101.85,227.54-227.47s-101.91-227.47-227.54-227.47-227.47,101.85-227.47,227.47,101.88,227.47,227.47,227.47"/><path id="Fill-7" class="cls-6" d="M341.69,573.03c-127.6,0-231.41-103.85-231.41-231.48s103.82-231.45,231.41-231.45,231.48,103.82,231.48,231.45-103.82,231.48-231.48,231.48M341.69,118.09c-123.21,0-223.42,100.25-223.42,223.45s100.21,223.48,223.42,223.48,223.45-100.24,223.45-223.48-100.18-223.45-223.45-223.45"/><path id="Fill-9" class="cls-7" d="M441.36,240.21c46.26-5.58,83.07-3.27,107.9,5.24,14.22,4.9,24.8,11.91,31.23,20.68,6.9,9.22,9.29,20.21,6.67,32.55-2.14,10.82-8.23,22.69-18.5,35.35-.1-6.3-.68-12.66-1.33-19.02,4.15-6.7,6.74-13,7.89-18.78,1.8-8.81.21-16.46-4.42-22.83-5.07-6.73-13.64-12.28-25.62-16.36-23.13-7.96-58-10.03-102.22-4.73-59.6,7.18-124.6,26.4-181.58,51.64-56.77,25.14-105.32,56.13-132.16,87.05-11.19,12.72-17.48,24.25-19.63,34.32-1.8,8.77-.24,16.43,4.49,22.79,5.07,6.77,13.67,12.32,25.51,16.36,4.08,1.39,8.33,2.55,12.99,3.57,3.26,4.9,6.77,9.63,10.37,14.22-10.27-1.39-19.42-3.47-27.32-6.19-14.22-4.86-24.83-11.87-31.36-20.68-6.77-9.22-9.15-20.18-6.67-32.55,2.48-12.07,9.79-25.48,22.34-39.84,28.1-32.32,78.2-64.42,136.44-90.25,58-25.68,124.23-45.24,184.95-52.55"/><path id="Fill-11" class="cls-6" d="M162.97,486.29c-.14,0-.34,0-.58-.07-10.38-1.4-19.87-3.54-27.99-6.36-15-5.14-26.16-12.59-33.27-22.08-7.69-10.27-10.17-22.31-7.35-35.75,2.69-13.02,10.51-27.04,23.13-41.63,27.66-31.71,76.5-64.12,137.9-91.27,60.82-26.98,126.95-45.75,186.07-52.9,45.38-5.48,83.31-3.57,109.6,5.45,15,5.17,26.19,12.58,33.3,22.08,7.65,10.3,10.14,22.35,7.31,35.75-2.34,11.67-8.91,24.12-19.29,37.01-1.02,1.33-2.82,1.8-4.39,1.29-1.6-.51-2.62-1.97-2.72-3.67-.24-5.95-.68-12.25-1.36-18.67-.1-.89.13-1.77.58-2.52,3.81-6.23,6.29-12.11,7.45-17.52,1.46-7.52.2-14.15-3.84-19.59-4.52-6.16-12.52-11.19-23.57-15-23.47-8.03-58.24-9.63-100.55-4.53-57.21,6.9-121.3,25.14-180.45,51.3-58.68,26.02-105.04,56.57-130.79,86.06-10.37,11.91-16.6,22.83-18.61,32.48-1.6,7.52-.24,14.12,3.84,19.6,4.49,6.12,12.39,11.16,23.58,14.97,3.7,1.29,7.99,2.48,12.41,3.44.99.23,1.91.81,2.48,1.67,3.26,4.79,6.67,9.49,10.27,13.98.98,1.29,1.12,3.06.34,4.46-.68,1.26-2.04,2.04-3.5,2.04M441.8,244.19c-58.34,7.04-123.68,25.58-183.82,52.25-60.14,26.71-108.11,58.37-134.98,89.19-11.84,13.54-19.05,26.33-21.43,38.03-2.25,11.09-.24,20.95,5.99,29.36,6.09,8.2,15.89,14.66,29.46,19.29,5.06,1.74,10.61,3.2,16.7,4.39-1.26-1.67-2.38-3.37-3.5-5.07-4.28-.99-8.23-2.11-11.87-3.37-12.62-4.32-21.87-10.3-27.42-17.76-5.51-7.38-7.21-16.13-5.17-25.99,2.24-10.98,9.15-23.13,20.41-36.13,26.43-30.34,73.82-61.6,133.52-88.1,59.8-26.46,124.71-44.93,182.7-51.91,43.55-5.28,79.57-3.54,104.16,4.9,12.62,4.32,21.88,10.31,27.42,17.76,5.54,7.41,7.21,16.16,5.2,25.99-1.26,5.99-3.84,12.31-7.79,18.91.34,2.28.54,4.56.68,6.84,5.85-8.74,9.69-17.07,11.29-24.87,2.25-11.12.2-20.99-6.02-29.39-6.06-8.16-15.89-14.66-29.43-19.29-25.17-8.61-61.84-10.38-106.1-5.03"/><path id="Fill-13" class="cls-7" d="M336.52,101.66c11.16-18.91,22.24-30.85,32.52-36.19,8.67-4.49,16.91-4.66,24.59-.68,6.87,3.61,12.96,10.72,17.93,21.09,5.2,10.75,9.36,25.34,12.42,43.54-4.39-1.7-8.81-3.23-13.2-4.66-2.72-13.85-6.08-25.07-10.13-33.54-3.84-7.96-8.17-13.2-12.65-15.58-3.95-2.04-8.37-1.83-13.34.72-8.33,4.32-17.69,14.69-27.75,31.53-22.11,37.15-42.18,97.15-56.78,164.2-14.66,67.18-23.68,141.2-23.68,206.18,0,53.64,6.09,92.32,16.36,113.65,3.84,7.92,8.13,13.16,12.62,15.54,3.98,2.04,8.37,1.83,13.34-.72,8.33-4.28,17.58-14.66,27.76-31.53,1.12-1.97,2.38-4.05,3.5-6.19h1.67c4.22,0,8.27-.1,12.32-.34-2.25,4.49-4.63,8.78-7.11,12.75-11.16,18.95-22.21,30.86-32.59,36.2-8.61,4.49-16.94,4.66-24.49.71-6.91-3.64-13-10.75-17.96-21.13-11.05-22.93-17.72-63.47-17.72-118.95,0-65.82,9.25-140.76,24.05-208.76,14.8-68.13,35.45-129.46,58.34-167.83"/><g id="Group-17"><g class="cls-1"><path id="Fill-15" class="cls-6" d="M301.07,625.17c-4.49,0-8.91-1.09-13.06-3.3-7.79-4.02-14.36-11.74-19.76-22.93-11.84-24.46-18.06-66.2-18.06-120.69,0-63.95,8.57-138.38,24.05-209.61,15.58-71.5,36.43-131.54,58.78-169.03,11.39-19.15,22.93-31.84,34.19-37.69,9.83-5.1,19.32-5.34,28.23-.72,7.79,4.05,14.32,11.77,19.73,22.93,5.45,11.19,9.73,26.22,12.76,44.63.23,1.43-.34,2.82-1.46,3.74-1.12.92-2.59,1.16-3.95.65-4.29-1.67-8.57-3.2-12.96-4.6-1.36-.44-2.48-1.59-2.72-3.06-2.62-13.4-5.89-24.35-9.83-32.55-3.37-7.08-7.22-11.8-10.95-13.78-2.79-1.43-5.85-1.19-9.59.71-7.79,4.05-16.8,14.42-26.06,30.04-21.19,35.58-41.19,93.44-56.33,163-15.2,69.8-23.67,142.73-23.67,205.32,0,50.75,5.75,90.52,16.02,111.91,3.4,7.04,7.25,11.8,10.95,13.74,2.69,1.43,5.85,1.23,9.59-.71,7.66-4.01,16.8-14.42,26.06-30.04,1.12-1.93,2.38-3.98,3.5-6.08.68-1.26,2.04-2.04,3.5-2.04h1.67c4.08,0,8.16-.14,12.11-.34,1.56,0,2.79.65,3.6,1.84.78,1.19.78,2.72.21,4.01-2.35,4.55-4.83,8.88-7.21,12.92-11.39,19.19-22.89,31.87-34.18,37.69-5.21,2.69-10.27,4.01-15.14,4.01h0ZM382.34,65.95c-3.61,0-7.45,1.02-11.4,3.09-9.93,5.14-20.44,16.8-31.05,34.66-21.88,36.77-42.42,95.96-57.76,166.64-15.44,70.69-23.92,144.54-23.92,207.91,0,52.56,6.09,94.16,17.25,117.22,4.63,9.59,10.07,16.09,16.26,19.29,6.43,3.43,13.3,3.16,20.75-.68,9.93-5.14,20.44-16.8,31.05-34.7,1.22-2.07,2.49-4.22,3.71-6.43-1.7.03-3.26.07-4.86.07-.78,1.43-1.67,2.85-2.48,4.22-10.24,17.18-20.07,28.3-29.33,33.06-7.55,3.95-13.33,2.55-16.91.68-5.34-2.79-10.17-8.6-14.46-17.35-10.95-22.79-16.7-62.69-16.7-115.38,0-63.17,8.33-136.68,23.68-207.02,15.37-70.38,35.79-129.13,57.35-165.39,10.14-17.11,20.07-28.23,29.33-33.03,7.55-3.95,13.43-2.55,16.94-.72,5.31,2.79,10.18,8.64,14.43,17.35,3.98,8.37,7.35,19.19,10.07,32.25,1.46.51,3.06,1.02,4.49,1.57-2.79-14.56-6.43-26.54-10.82-35.65-4.62-9.59-10.04-16.09-16.26-19.29-3.03-1.6-6.09-2.38-9.36-2.38h0Z"/></g></g><path id="Fill-18" class="cls-7" d="M338.66,138.7c36.9-21.29,71.67-31.43,101.67-31.43,19.29,0,36.8,4.19,51.7,12.25,14.9,8.13,27.28,20.17,36.33,35.85,10.92,18.95,17.04,43.16,17.04,72.11,0,3.98-.14,7.99-.34,12.01-3.74-7.28-7.79-14.39-12.21-21.19-1.12-22.72-6.29-41.77-15.1-56.84-7.79-13.64-18.51-24.11-31.6-31.16-13.1-7.11-28.54-10.78-45.82-10.78-27.99,0-60.62,9.59-95.59,29.76-53.57,30.99-102.35,80.89-137.56,136.51-35.21,55.45-56.88,116.44-56.88,169.81,0,26.8,5.41,48.95,15.24,66.06l.1-.03c7.79,13.68,18.64,24.12,31.6,31.19,13.09,7.11,28.54,10.75,45.82,10.75,10.51,0,21.66-1.33,33.3-4.08,7.79,2.32,15.68,4.25,23.68,5.75-20.17,7.14-39.39,10.58-56.98,10.58-19.29,0-36.77-4.15-51.67-12.25-15.03-8.09-27.32-20.14-36.37-35.79v-.03c-10.92-18.98-17-43.2-17-72.15,0-55.72,22.45-119.06,58.78-176.37,36.23-57.15,86.43-108.51,141.85-140.52"/><path id="Fill-20" class="cls-6" d="M243.08,579.83c-19.97,0-38.03-4.29-53.61-12.72-15.78-8.57-28.54-21.12-37.89-37.35,0-.1-.1-.17-.1-.27-11.53-20.11-17.38-44.97-17.38-73.88,0-54.67,21.09-118.07,59.32-178.52,38.27-60.21,89.06-110.59,143.21-141.85.14-.04.24-.1.24-.14,59.12-34.02,116.91-40.89,157.09-19.08,15.78,8.54,28.54,21.12,37.93,37.35,11.63,20.18,17.49,45.14,17.49,74.12,0,4.05-.1,8.13-.35,12.25-.13,1.8-1.36,3.33-3.16,3.67-1.7.41-3.6-.48-4.39-2.11-3.64-7.14-7.59-14.15-11.98-20.85-.34-.58-.57-1.26-.57-1.97-1.12-21.6-5.95-40.11-14.56-55.04-7.42-12.86-17.59-22.86-30.11-29.63-33.88-18.4-84.87-11.43-137.46,18.95-51.47,29.66-99.77,77.69-136.2,135.18-36.36,57.25-56.33,116.77-56.33,167.66,0,25.48,4.96,47.04,14.8,64.05,7.45,12.89,17.58,22.89,30.13,29.63,20.31,11.05,46.81,13.23,76.27,6.33.68-.17,1.36-.17,2.04.07,7.69,2.28,15.48,4.19,23.37,5.61,1.8.34,3.17,1.84,3.26,3.61.1,1.84-1.02,3.5-2.72,4.12-20.41,7.18-40.04,10.82-58.34,10.82h0ZM158.68,526.02c8.57,14.8,20.17,26.26,34.63,34.05,24.49,13.33,56.3,15.34,91.2,5.85-2.72-.72-5.55-1.5-8.23-2.31-30.92,7.07-59.05,4.59-80.92-7.28-13.78-7.48-24.93-18.47-33.2-32.69-10.48-18.23-15.89-41.09-15.89-68.03,0-52.39,20.41-113.45,57.56-171.95,37.11-58.58,86.44-107.52,138.92-137.83,55.17-31.84,108.89-38.81,145.35-19.05,13.74,7.52,24.94,18.5,33.16,32.69,9.12,15.78,14.32,35.14,15.55,57.56,1.6,2.45,3.06,4.9,4.52,7.38-.34-26.26-5.85-48.82-16.47-67.01-8.57-14.97-20.3-26.5-34.76-34.32-37.69-20.48-92.76-13.57-149.4,19.12-.14.04-.24.1-.34.13-52.93,30.65-102.69,80.01-140.17,139.06-37.45,59.19-58.1,121.06-58.1,174.23,0,27.62,5.55,51.2,16.47,70.14,0,.1,0,.17.13.27h0Z"/><path id="Fill-22" class="cls-3" d="M498.13,178.2c25.96,0,46.94-21.02,46.94-46.91s-20.99-46.87-46.94-46.87-46.84,20.99-46.84,46.87,20.99,46.91,46.84,46.91"/><path id="Fill-24" class="cls-6" d="M498.13,182.18c-28,0-50.92-22.83-50.92-50.89s22.92-50.88,50.92-50.88,50.89,22.82,50.89,50.88-22.79,50.89-50.89,50.89M498.13,88.4c-23.61,0-42.9,19.25-42.9,42.89s19.29,42.9,42.9,42.9,42.86-19.25,42.86-42.9-19.18-42.89-42.86-42.89"/><path id="Fill-26" class="cls-7" d="M344.75,138.7c-36.87-21.29-71.64-31.43-101.67-31.43-19.29,0-36.77,4.19-51.67,12.25-15.03,8.13-27.32,20.17-36.36,35.85l-.1.2c4.05.92,8.03,2.38,11.63,4.35,7.79-12.89,18.17-22.86,30.69-29.63,13.1-7.11,28.54-10.78,45.82-10.78,27.99,0,60.61,9.59,95.59,29.76,53.61,30.99,102.35,80.89,137.56,136.51,35.21,55.45,56.87,116.44,56.87,169.81,0,26.8-5.41,48.95-15.34,66.06v-.03c-7.89,13.68-18.61,24.12-31.6,31.19-13.1,7.11-28.54,10.75-45.82,10.75-10.51,0-21.67-1.33-33.27-4.08-7.79,2.32-15.71,4.25-23.81,5.75,20.31,7.14,39.49,10.58,57.08,10.58,19.29,0,36.8-4.15,51.7-12.25,15-8.09,27.28-20.14,36.33-35.79v-.03c10.92-18.98,17.04-43.2,17.04-72.15,0-55.72-22.45-119.06-58.81-176.37-36.23-57.15-86.43-108.51-141.85-140.52"/><path id="Fill-28" class="cls-6" d="M440.34,579.83c-18.27,0-37.89-3.64-58.34-10.82-1.7-.61-2.82-2.28-2.72-4.08.14-1.8,1.49-3.3,3.3-3.64,7.89-1.46,15.78-3.33,23.33-5.61.68-.2,1.36-.24,2.04-.07,29.46,6.91,55.95,4.73,76.3-6.33,12.52-6.77,22.69-16.73,30.11-29.63,9.83-17.01,14.8-38.54,14.8-64.05,0-50.89-19.97-110.42-56.3-167.66-36.46-57.52-84.87-105.52-136.23-135.18-52.56-30.38-103.58-37.35-137.43-18.95-12.07,6.53-21.91,15.99-29.25,28.17-1.12,1.84-3.47,2.48-5.31,1.46-3.27-1.8-6.87-3.13-10.58-3.94-1.25-.31-2.28-1.12-2.72-2.28-.54-1.12-.54-2.45.14-3.54,9.46-16.53,22.21-29.12,38-37.65,40.27-21.8,97.96-14.94,157.09,19.08,0,.03.13.1.24.14,54.15,31.3,104.94,81.67,143.21,141.85,38.23,60.48,59.36,123.85,59.36,178.52,0,28.91-5.85,53.78-17.39,73.92,0,.07-.1.14-.1.24-9.39,16.23-22.15,28.78-37.93,37.35-15.58,8.44-33.64,12.72-53.61,12.72M398.8,565.92c35,9.53,66.71,7.48,91.3-5.85,14.46-7.79,26.06-19.25,34.66-34.08,0-.07.1-.14.1-.24,10.95-18.94,16.47-42.55,16.47-70.14,0-53.13-20.65-115.04-58.1-174.23-37.48-59.05-87.25-108.41-140.28-139.06,0-.03-.1-.1-.2-.13-56.57-32.69-111.64-39.63-149.43-19.12-13.1,7.07-23.91,17.21-32.28,30.1,1.36.48,2.72.98,4.08,1.56,7.79-11.91,17.93-21.3,30.24-27.96,36.43-19.76,90.18-12.79,145.35,19.05,52.45,30.31,101.77,79.26,138.92,137.83,37.11,58.51,57.56,119.6,57.56,171.95,0,26.91-5.44,49.8-15.92,68.03-8.23,14.22-19.42,25.21-33.16,32.69-21.91,11.87-50.01,14.39-80.93,7.28-2.72.82-5.54,1.6-8.37,2.31"/><path id="Fill-30" class="cls-7" d="M557.69,269.94c9.39,8.54,16.94,17.48,22.69,26.77,9.04,14.49,13.54,29.66,13.54,44.83s-4.49,30.34-13.54,44.83v.04c-12.18,19.7-32.72,38.1-61.74,53.64-48.95,26.33-112.93,39.46-176.95,39.46s-127.94-13.13-177.06-39.46c-28.88-15.54-49.42-33.95-61.7-53.64-8.91-14.49-13.44-29.66-13.44-44.87s4.52-30.31,13.44-44.83c5.75-9.29,13.41-18.27,22.79-26.77-2.82,8.61-5.2,17.41-7,26.43-1.57,2.14-3.03,4.28-4.39,6.46v-.03c-7.79,12.58-11.74,25.68-11.74,38.74s3.95,26.19,11.74,38.75c11.16,17.92,30.14,34.8,56.98,49.22,46.94,25.17,108.58,37.76,170.39,37.76s123.48-12.58,170.42-37.76c26.87-14.42,45.82-31.3,56.98-49.22,7.79-12.55,11.64-25.65,11.64-38.75s-3.85-26.16-11.64-38.71v-.03c-1.36-2.18-2.82-4.32-4.39-6.47-1.8-8.98-4.18-17.79-7.01-26.39"/><g id="Group-34"><g class="cls-8"><path id="Fill-32" class="cls-6" d="M341.69,483.53c-67.35,0-130.9-14.18-178.86-39.93-28.98-15.54-50.21-34.05-63.31-55.07-9.35-15.07-14.12-30.89-14.12-46.98s4.77-31.7,14.02-46.71c0-.07.1-.17.1-.24,6.09-9.7,14.02-18.98,23.61-27.66,1.36-1.19,3.27-1.36,4.83-.37,1.46.99,2.15,2.89,1.6,4.63-2.82,8.5-5.2,17.25-6.91,25.96-.1.57-.34,1.12-.68,1.59-1.56,2.04-2.92,4.12-4.29,6.2-7.31,11.83-11.05,24.15-11.05,36.6s3.74,24.76,11.05,36.63c11.19,17.89,29.7,33.95,55.21,47.66.1.03.21.07.34.14,44.8,24.05,104.6,37.28,168.45,37.28s123.72-13.23,168.52-37.28c.1-.07.2-.14.34-.17,25.48-13.71,44.02-29.73,55.17-47.62,7.35-11.87,11.05-24.18,11.05-36.63s-3.71-24.77-11.05-36.6c-.1-.1-.24-.21-.24-.31-1.23-1.98-2.58-3.95-4.05-5.92-.34-.48-.58-1.02-.68-1.56-1.7-8.71-4.08-17.45-6.87-25.96-.58-1.7.1-3.61,1.56-4.59,1.6-.98,3.5-.85,4.87.38,9.59,8.67,17.48,17.96,23.47,27.62,9.46,15.03,14.22,30.85,14.22,46.94s-4.76,31.7-13.98,46.7c0,.1-.14.17-.14.27-13.09,21.02-34.42,39.53-63.3,55.07-47.96,25.75-111.5,39.93-178.89,39.93h0ZM106.53,298.58c-.1.07-.1.17-.24.24-8.47,13.81-12.85,28.16-12.85,42.72s4.39,28.98,12.85,42.76c12.32,19.8,32.62,37.38,60.28,52.25,46.84,25.13,109.03,38.98,175.12,38.98s128.35-13.85,175.15-38.98c27.55-14.83,47.76-32.32,60.04-52.01.14-.1.14-.17.14-.27,8.57-13.78,12.96-28.16,12.96-42.72s-4.39-28.95-12.96-42.76c-3.06-5.03-6.8-10-11.05-14.8.88,3.54,1.67,7.14,2.45,10.72,1.49,1.98,2.85,3.98,4.08,5.99,0,.1.1.21.1.31,8.13,13.06,12.21,26.7,12.21,40.55s-4.19,27.69-12.31,40.85c-11.97,19.18-31.6,36.19-58.48,50.61-.1.07-.21.1-.31.14-45.95,24.59-107.02,38.13-172.02,38.13s-126.17-13.57-172.09-38.13c-.1-.07-.1-.1-.2-.14-26.87-14.42-46.5-31.46-58.48-50.61-8.13-13.16-12.27-26.91-12.27-40.85s4.15-27.69,12.27-40.82c1.26-2.04,2.62-4.01,4.08-6.02.68-3.57,1.56-7.18,2.48-10.75-4.18,4.76-7.89,9.63-10.95,14.63h0Z"/></g></g><path id="Fill-35" class="cls-4" d="M388.87,522.68c28.68,0,51.91-23.27,51.91-51.98s-23.23-51.97-51.91-51.97-52.01,23.26-52.01,51.97,23.37,51.98,52.01,51.98"/><path id="Fill-37" class="cls-6" d="M388.87,526.66c-30.92,0-55.95-25.11-55.95-55.96s25.03-55.99,55.95-55.99,56,25.11,56,55.99-25.18,55.96-56,55.96M388.87,422.71c-26.39,0-47.96,21.53-47.96,48s21.57,47.96,47.96,47.96,47.96-21.5,47.96-47.96-21.53-48-47.96-48"/></g></g></g></g></svg>