<?xml version="1.0" encoding="UTF-8"?><svg id="Layer_1" xmlns="http://www.w3.org/2000/svg" viewBox="0 0 720 720"><defs><style>.cls-1{stroke-linecap:round;stroke-linejoin:round;}.cls-1,.cls-2,.cls-3{fill:#dd784b;}.cls-1,.cls-3{stroke:#000;stroke-width:5.79px;}.cls-4{fill:#0a1017;}.cls-5{fill:#fff;}.cls-3{stroke-miterlimit:10;}.cls-6{fill:#3d68ec;}</style></defs><path class="cls-2" d="M451.74,298.94c-.95,0-1.86-.47-2.41-1.29l-4.63-6.94c-.32.36-.74.64-1.23.8l-1.9.63c-.3.1-.61.15-.92.15-1.01,0-1.97-.53-2.5-1.44l-4.43-7.59c-.17-.29-.29-.62-.35-.96l-.84-4.76c-4.27-6.25-4.27-6.45-4.27-7.45v-.32c0-1.23.76-2.28,1.84-2.7l6.64-6.36c.54-.52,1.26-.8,2-.8.08,0,.16,0,.24,0,.83.07,1.58.49,2.08,1.15l4.5,6,6,4.5c.16.12.31.26.44.41l4.43,5.06c.46.53.72,1.21.72,1.91,0,0,0,1.85-.04,3.7-.03,1.5-.06,2.83-.28,3.89v8.86c0,1.29-.86,2.43-2.1,2.78l-2.22.63c-.26.08-.53.11-.8.11Z"/><path d="M438.76,262.82l4.75,6.33,6.33,4.75,4.43,5.06s0,7.28-.32,7.28v9.18l-2.21.63-6.33-9.49-4.11-3.48,1.27,5.7-1.9.63-4.43-7.59-.95-5.38s-4.11-6.01-4.11-6.33v-.32h.32l7.28-6.96M438.76,257.03c-1.48,0-2.92.57-4,1.61l-6.3,6.03c-1.83.97-3.08,2.9-3.08,5.12v.32c0,1.89.26,2.47,4.42,8.56l.73,4.15c.12.67.36,1.32.7,1.91l4.43,7.59c1.06,1.82,2.99,2.87,5,2.87.61,0,1.23-.1,1.83-.3l1.24-.41,3.19,4.78c1.09,1.64,2.92,2.58,4.82,2.58.53,0,1.06-.07,1.59-.22l2.21-.63c2.49-.71,4.2-2.98,4.2-5.57v-8.39c.01-.08.03-.15.04-.23.06-.36.1-.78.13-1.32.05-.7.08-1.6.1-2.75.04-1.86.04-3.69.04-3.76,0-1.4-.51-2.76-1.43-3.81l-4.43-5.06c-.27-.3-.56-.58-.88-.82l-5.67-4.25-4.25-5.67c-.99-1.32-2.51-2.16-4.16-2.3-.16-.01-.32-.02-.48-.02h0Z"/><path class="cls-4" d="M379.27,120.74c-1.27,7.91-6.65,13.61-11.39,12.66-5.06-.95-7.91-7.91-6.33-15.82,1.27-7.91,6.65-13.61,11.39-12.66,5.06.95,7.91,7.91,6.33,15.82Z"/><path d="M368.83,139.73h-2.22c-8.54-1.58-13.61-11.71-11.71-23.1.95-5.06,2.85-9.49,6.01-12.66,3.48-4.11,8.23-6.01,12.97-5.06,8.54,1.58,13.61,11.71,11.71,23.1h0c-1.9,10.44-8.86,18.04-16.77,18.04h0v-.32ZM371.68,110.93c-.63,0-3.16,2.85-4.11,7.59-.95,4.75.63,8.23,1.58,8.54.63,0,3.16-2.85,4.11-7.59.95-4.75-.63-8.23-1.58-8.54Z"/><path class="cls-4" d="M372.62,135.93c-1.27,7.91-6.65,13.61-11.39,12.66-5.06-.95-7.91-7.91-6.33-15.82,1.27-7.91,6.65-13.61,11.39-12.66,5.06.95,7.91,7.91,6.33,15.82h0Z"/><path d="M362.18,155.23h-2.22c-8.54-1.58-13.61-11.71-11.71-23.1.95-5.06,2.85-9.49,6.01-12.66,3.48-4.11,8.23-6.01,12.97-5.06,4.75.95,8.23,4.11,10.44,9.18,1.58,4.11,2.22,9.18,1.27,13.92-1.9,10.44-8.86,18.04-16.77,18.04h0v-.32ZM365.03,126.44c-.63,0-3.16,2.85-4.11,7.59-.95,4.75.63,8.23,1.58,8.54.63,0,3.16-2.85,4.11-7.59h0c.95-4.75-.63-8.23-1.58-8.54Z"/><polygon class="cls-5" points="317.88 276.75 388.45 261.24 386.86 269.79 391.61 289.41 313.77 308.08 317.88 276.75"/><path d="M323.58,281.81l-2.53,17.72,62.97-14.87-3.8-14.87h0c0-.32-56.96,12.02-56.96,12.02h.32Z"/><polygon class="cls-6" points="363.45 624.21 367.24 622.94 362.5 620.09 363.45 624.21"/><path class="cls-6" d="M354.27,614.4l19.94,18.99c1.9,1.58,4.43,2.53,6.96,2.85l10.13.95c1.58,0,3.8-1.58,3.48-3.16l-.95-4.75c0-1.27-2.85-4.75-3.48-5.7l-8.54-10.76-14.87-19.62c-1.27-1.58-3.16-2.22-4.75-1.9l-7.28,1.58c-1.9.32-3.16,1.58-3.8,3.16-1.58,3.8-3.16,11.08,2.85,18.04h.32v.32Z"/><path d="M391.61,641.61h-.32l-10.44-.95c-3.48,0-6.65-1.58-9.49-3.8h-.32c0-.32-20.57-19.62-20.57-19.62-5.7-6.65-6.96-14.87-3.8-22.78,1.27-3.16,4.11-5.38,7.28-6.33l7.28-1.58c3.48-.63,7.59.63,9.81,3.48l14.87,19.62,8.23,10.44c1.27,1.58,4.11,5.06,4.75,7.59l.95,4.75c.32,1.9,0,4.11-1.58,5.7-1.58,1.9-4.11,3.16-6.65,3.16h0v.32ZM377.37,629.59c1.27.95,2.85,1.58,4.43,1.58l8.23.63v-1.58c-.63-.63-2.22-2.85-2.85-3.48v-.63c-.32,0-8.86-10.76-8.86-10.76l-14.87-19.94-7.28,1.58s-.32,0-.63.63c-1.27,3.16-1.9,7.91,1.9,12.97l19.62,18.67h0l.32.32ZM389.71,630.22"/><path class="cls-1" d="M381.8,616.93l-6.01,2.22c-.95.32-2.22,0-3.16-.63l-10.13-9.49c-4.11-4.75-6.65-6.01-7.59-10.13l-3.48-26.27,14.24-3.16,2.22,20.57,6.65,12.66,7.28,14.56h0v-.32Z"/><path class="cls-6" d="M284.02,553.32l16.14,25c1.27,2.22,3.48,3.8,5.7,5.06l10.76,4.43c1.27.63,2.85,0,3.16-1.9l.63-4.75c0-1.27,0-2.53-.63-3.8l-8.86-16.14-7.28-23.42c-.63-1.9-2.22-3.16-4.11-3.16l-7.28-.95c-1.9,0-3.48.32-4.75,1.9-2.85,3.16-6.65,9.18-3.16,18.04h-.32v-.32Z"/><path d="M317.25,592.56c-.95,0-1.9,0-2.85-.63l-10.44-4.43c-3.16-1.58-6.01-3.8-7.91-6.65l-16.46-25.95c-3.16-8.23-1.58-16.46,4.11-22.78,2.22-2.53,5.7-3.8,8.86-3.48l7.59.95c3.8.32,6.96,3.16,7.91,6.65l7.28,23.1,8.54,15.82c.95,2.22,1.58,4.43,1.27,6.65l-.63,4.75c0,2.22-1.58,4.11-3.48,5.38-.95.63-2.22.95-3.48.95h0l-.32-.32ZM318.2,583.07,288.13,551.11l15.82,24.68c.95,1.27,2.22,2.53,3.8,3.16l7.59,3.16v-2.53l-9.18-16.77-7.28-23.42-7.59-.95h-.63c-2.22,2.53-4.43,6.96-2.53,12.66h0Z"/><path class="cls-1" d="M309.97,562.18l-7.91-.95-8.86-10.44c-2.85-3.16-5.38-7.91-4.75-12.02l7.91-25.32,15.19,4.43-6.33,17.4,5.06,26.9h-.32Z"/><path class="cls-6" d="M328.32,419.15l6.65-138.6,52.85-1.58-14.56,52.53-16.46,94.93-47.15,105.38c0,.63-.95,1.27-1.58,1.27h-4.75c-3.48,0-6.96-1.27-9.49-3.48l-3.8-3.48c-.63-.63-.95-1.58-.63-2.53l30.38-83.23,8.54-20.57h0v-.63Z"/><path d="M303.01,537.5c-4.75,0-9.18-1.9-12.34-5.06l-3.8-3.48c-1.9-1.9-2.85-4.75-1.9-7.28h0c0-.32,30.38-83.54,30.38-83.54l8.23-20.25,6.65-142.08,63.61-1.9-16.14,58.54-16.46,95.25-47.15,106.01c-.95,2.53-3.16,4.11-6.01,4.11h-5.06v-.32ZM294.46,523.26l2.85,2.53c1.58,1.58,3.48,2.22,5.7,2.22h3.16l46.2-103.16,16.46-94.93,12.66-46.2-41.77,1.27-6.33,135.12-8.86,21.52-29.75,81.64h-.32Z"/><path class="cls-6" d="M343.83,470.1l-34.18-106.33c-1.58-4.43-2.22-9.49-2.22-14.24l-3.8-37.34,50.95-11.39,8.86,69.93,11.08,94.62-6.01,116.14c0,1.27-.32,2.85-1.58,3.48l-3.8,2.22c-2.85,1.58-6.65,1.58-9.49,0l-2.85-1.58c-1.27-.63-1.9-1.58-2.22-2.85l.63-84.17-5.06-28.8h0l-.32.32Z"/><path d="M358.07,593.51c-2.22,0-4.75-.63-6.65-1.58l-2.85-1.58c-2.53-1.27-4.11-3.48-4.75-6.01v-1.27l.63-83.86-5.06-28.16-33.86-106.01c-1.58-4.75-2.53-10.13-2.53-15.51l-4.43-41.14,60.12-13.61,9.49,75.31,11.08,95.25h0c0,.32-6.01,116.14-6.01,116.14,0,3.16-1.27,6.01-4.11,7.59l-3.8,2.22c-2.22,1.27-4.75,1.9-7.28,1.9h0v.32ZM353,582.12l2.53,1.27c1.58.95,3.48.63,5.06,0l2.85-1.58,6.01-115.5-10.76-94.3-8.23-64.87-41.77,9.49,3.48,33.23h0c0,4.43.63,8.86,1.9,12.97l34.18,106.96,5.06,29.11-.63,83.54h.32v-.32ZM352.69,581.8"/><path class="cls-6" d="M396.99,209.98l-4.43-31.01c-3.16-18.04-9.81-34.81-31.96-26.9l-49.37,27.53c-8.23,5.38-12.97,12.97-11.08,25.95l16.46,57.91-15.51,46.52c-2.22,6.33.95,13.61,6.96,16.46,14.56,6.65,36.39,13.29,58.86,2.53l6.01-49.05,6.65,45.25c2.85-2.53,17.4-9.18,16.46-18.04l-7.28-48.73,8.23-48.1h0v-.32Z"/><path d="M342.56,339.4c-11.08,0-23.1-2.85-36.07-8.86-8.54-3.8-12.66-13.29-9.81-22.15l15.19-45.25-16.46-57.28c-1.9-13.61,2.53-23.42,13.29-30.38l50.32-27.85c8.86-3.16,16.77-3.16,22.78.32,10.13,5.7,13.61,18.99,15.51,30.06l4.43,31.96-8.23,48.1,7.28,48.1c1.27,10.13-9.49,16.77-15.19,20.57-.95.63-2.22,1.58-2.53,1.58l-6.65,5.7-2.85-18.99-1.9,16.77-2.22,1.27c-8.54,4.11-17.4,6.01-26.9,6.01h0v.32ZM304.59,204.6l16.77,58.86-16.14,47.78c-1.27,4.11.63,8.86,4.43,10.44,12.97,5.7,32.28,12.34,52.53,3.8l9.81-81.64,10.76,72.78c3.8-2.53,8.23-6.33,7.91-9.49l-7.28-49.37,8.23-48.1-4.11-30.38c-1.58-7.91-4.11-19.3-10.76-23.42-3.48-2.22-8.23-1.9-14.56,0l-49.05,27.21c-7.28,4.75-10.13,11.08-8.86,20.57h0v.95h.32Z"/><polygon class="cls-5" points="342.56 172 371.04 220.1 357.44 164.73 342.56 172"/><path d="M387.18,259.98l-53.8-90.5,28.16-13.61,25.63,104.11h0ZM351.42,174.85l3.16,5.38-1.58-6.33-1.58.95Z"/><path class="cls-3" d="M357.75,150.17l.95,16.77c0,4.11-2.53,8.23-6.65,9.18h0c-5.7,1.9-10.76-4.11-11.71-10.13l-2.53-22.47,20.57-.95-.63,7.59h0Z"/><path d="M349.84,182.76c-2.53,0-5.06-.63-7.28-2.22-4.43-2.85-7.91-7.91-8.54-13.61l-3.16-29.43,34.81-1.58-1.27,14.24.63,16.46c.32,7.28-4.11,13.61-11.08,15.82-1.27.32-2.53.63-3.8.63h-.32v-.32ZM344.78,149.54l1.58,15.82c0,1.58,1.58,3.8,2.85,4.43,1.27.63.63,0,.95,0,1.27-.32,2.22-1.58,2.22-2.85l-.95-17.09v-.63h-6.65s0,0,0,0h0v.32Z"/><path class="cls-3" d="M333.07,144.79l-5.7-26.27,37.02-12.97,5.38,14.56v8.23c.63,4.75,0,9.49-1.27,13.92l-2.22,10.13c-.95,2.85-3.16,5.06-5.7,6.01l-3.48,1.27c-3.16.95-6.33.63-9.18-.95l-7.91-4.43c-3.48-2.22-6.01-5.7-6.96-9.49h0Z"/><path class="cls-4" d="M344.78,85.93s-19.62,0-24.37,13.61c-4.75,13.61-4.43,16.14-7.91,24.68-10.13,24.37-1.27,44.62,4.75,50.63,5.7,6.01,10.13-3.16,10.13-3.16l6.96-3.16,7.28-20.89,3.16-32.59,3.16-10.13h2.22c0-.32,3.8-8.23,3.8-8.23v-3.8l-8.86-7.28h-.32v.32Z"/><path d="M317.21,183.08c-1.78,0-4.32-.63-6.87-4.11-6.36-8.23-13.48-31.33-4.83-57.28,1.53-4.43,2.04-6.96,3.05-11.08.76-3.16,1.53-7.28,3.31-13.29,4.83-17.72,23.66-17.72,24.42-17.72h1.78l10.18,10.44v7.91c.25,0-4.32,12.34-4.32,12.34h-1.27l-1.53,6.01-2.54,32.59-6.87,24.05-5.85,3.16c-1.27,2.53-3.56,5.7-7.12,6.33h-1.27v.63h-.25ZM334.77,92.26c-3.56.32-11.19,2.22-12.97,9.18-1.53,6.01-2.54,9.49-3.31,12.97-1.02,4.11-1.78,7.28-3.31,12.34-6.61,19.94-1.53,37.34,2.04,43.04,0,0,0-.32.25-.63l.76-2.22,5.09-2.85,5.09-17.72,2.8-32.91,3.56-13.92h2.29c0-.32,1.02-3.16,1.02-3.16l-3.56-3.48h0v-.63h.25Z"/><path class="cls-4" d="M378,105.23c-.32,8.54-7.59,14.87-16.14,14.24-8.54-.32-14.87-7.59-14.24-16.14.63-8.54,7.59-14.87,16.14-14.24,8.54.32,14.87,7.59,14.24,16.14Z"/><path d="M357.03,112.83h-1.27c-12.02-.44-20.89-7.52-20.25-15.92.32-3.98,2.85-7.74,7.28-10.39,4.43-2.65,9.81-3.98,15.51-3.76s11.08,1.99,14.87,5.09c3.8,3.1,5.7,6.85,5.38,10.83-.63,7.96-10.13,14.15-21.52,14.15h0ZM357.03,91.38c-2.22,0-4.43.44-6.01,1.55-1.9,1.11-2.85,2.65-2.85,4.2,0,3.54,3.48,6.41,8.54,6.63,2.22,0,4.75-.44,6.33-1.55,1.58-1.11,2.85-2.65,2.85-4.2s-.63-3.32-2.22-4.42c-1.58-1.11-3.8-1.99-6.33-1.99h-.63.32v-.22Z"/><path class="cls-4" d="M358.7,104.28c.32,6.96-5.06,12.97-12.34,13.29-7.28.32-12.97-5.06-13.29-12.34-.32-7.28,5.06-12.97,12.34-13.29s12.97,5.06,13.29,12.34Z"/><path class="cls-4" d="M365.03,97.32c.32,6.96-6.33,13.29-14.56,13.61-8.23.32-15.51-5.06-15.82-12.02-.32-6.96,6.33-13.29,14.56-13.61s15.51,5.06,15.82,12.02Z"/><path d="M349.52,117.26c-11.39,0-20.89-7.91-21.2-18.04,0-5.38,1.9-10.44,6.01-14.24,3.8-3.48,9.18-5.7,14.56-6.01,5.38,0,10.76,1.27,15.19,4.43,4.43,3.48,6.96,8.23,7.28,13.61,0,5.38-1.9,10.44-6.01,14.24-3.8,3.48-9.18,5.7-14.56,6.01h-1.27,0ZM350.16,91.31h-.63c-2.53,0-4.75.95-6.65,2.53-.63.63-2.22,2.22-1.9,4.43,0,3.48,4.43,6.33,9.18,6.01,2.53,0,4.75-.95,6.65-2.53.63-.63,2.22-2.22,1.9-4.43h0c0-2.22-1.58-3.48-2.53-4.11-1.58-1.27-3.8-1.9-6.33-1.9h.32Z"/><path class="cls-4" d="M376.74,102.07c2.85,4.43,2.22,9.81-1.27,12.02-3.48,2.22-8.54.63-11.39-3.8-2.85-4.43-2.22-9.81,1.27-12.02,3.48-2.22,8.54-.63,11.39,3.8Z"/><path class="cls-2" d="M251.11,343.88c-.76,0-1.5-.3-2.05-.85l-1.27-1.27c-.42-.42-.7-.95-.8-1.53l-.63-3.48c-.05-.27-.06-.55-.03-.82l.63-6.01c.02-.19.06-.38.12-.56l1.58-5.06c.03-.09.06-.17.09-.26l4.11-9.81c.08-.2.19-.39.31-.56l4.48-6.27,3.34-10.64c.24-.76.79-1.39,1.51-1.74.4-.19.82-.29,1.26-.29.35,0,.71.06,1.04.2l9.81,3.8c.73.28,1.31.85,1.62,1.56.31.72.31,1.53,0,2.25l-3.16,7.59-2.1,5.4-.19.94.29,3.72c.03.34,0,.69-.1,1.02l-1.9,6.64c-.1.36-.27.7-.5.99l-5.7,7.28c-.56.72-1.41,1.11-2.28,1.11-.44,0-.88-.1-1.29-.31l-1.51-.76-4.28,6.42c-.48.72-1.26,1.19-2.12,1.28-.1,0-.19.01-.29.01Z"/><path d="M263.77,297.63l9.81,3.8-3.16,7.59-2.22,5.7-.32,1.58.32,4.11-1.9,6.65-5.7,7.28-1.9-.95.32-2.53,3.16-4.11.63-.95-2.22,1.58-3.16,4.11-6.33,9.49-1.27-1.27-.63-3.48.63-6.01,1.58-5.06,4.11-9.81,4.75-6.65,3.48-11.08M263.77,291.84c-.86,0-1.72.19-2.51.57-1.44.69-2.53,1.95-3.01,3.48l-3.2,10.2-4.21,5.9c-.25.35-.46.73-.63,1.13l-4.11,9.81c-.07.17-.13.34-.19.51l-1.58,5.06c-.11.36-.19.74-.23,1.12l-.63,6.01c-.06.55-.04,1.1.06,1.64l.63,3.48c.21,1.16.77,2.22,1.6,3.06l1.27,1.27c1.09,1.09,2.57,1.7,4.09,1.7.19,0,.38,0,.57-.03,1.73-.17,3.28-1.11,4.25-2.55l2.9-4.35c.58.19,1.18.28,1.78.28,1.74,0,3.43-.78,4.56-2.22l5.7-7.28c.46-.59.8-1.26,1.01-1.98l1.9-6.65c.19-.66.26-1.35.21-2.03l-.25-3.32.06-.31,2.01-5.16,3.14-7.53c.6-1.44.59-3.06-.02-4.5-.61-1.44-1.78-2.56-3.23-3.13l-9.81-3.8c-.67-.26-1.38-.39-2.09-.39h0Z"/><path class="cls-6" d="M258.39,308.08l13.61.95,18.99-55.69,31.96-52.53c2.22-4.43-3.8-15.51-8.23-17.72h0c-4.43-2.22-9.49-.63-11.71,3.8l-28.16,60.76c-.63,1.58-1.27,3.16-1.27,4.75l-15.19,55.69h0Z"/><path d="M275.48,314.09l-23.1-1.9,16.46-60.76c0-2.22.63-4.11,1.58-6.01l28.16-60.44c3.48-6.65,11.71-9.49,18.35-6.01,4.43,2.22,7.59,8.54,8.54,10.13,1.58,3.16,3.8,9.49,1.58,13.92h0c0,.32-31.64,52.21-31.64,52.21l-19.94,58.54h0v.32ZM264.4,303.65h4.43c0,.32,18.35-52.85,18.35-52.85l31.64-52.21c.32-2.22-3.8-10.13-6.01-11.39-1.9-.95-4.43,0-5.38,1.9l-28.16,60.44c-.63.95-.63,1.9-.95,2.85v.95l-13.92,50h0v.32Z"/><path class="cls-6" d="M431.8,274.85l10.76-8.54-40.19-52.85-17.09-56.33c-1.27-4.75-6.33-7.28-10.76-6.01h0c-4.75,1.27-7.28,6.33-6.01,10.76l18.04,58.23c.32,1.58,1.27,2.85,2.22,4.43l42.72,50h0l.32.32Z"/><path d="M433.07,280.23c-.95.63-2.53.63-3.16,0l-44.3-51.9c-1.58-1.9-2.53-3.8-3.16-6.01l-18.04-58.23c-2.22-7.28,1.9-14.87,9.18-16.77,3.48-.95,6.96-.63,10.13.95,3.16,1.58,5.38,4.43,6.33,7.91l16.46,55.06s0,.63.32.63l40.82,53.48c.63.95.63,2.53-.32,3.16l-14.24,11.71h0ZM377.37,155.86h-1.27c-.95.32-1.9.95-2.53,1.9s-.63,1.9-.32,3.16l18.04,58.23c0,.95.63,1.9,1.27,2.53l38.29,44.94c.95.95,2.22,1.27,3.16,0h0c.95-.63,1.27-2.22.32-3.16l-36.07-47.78s0-.32-.32-.63l-17.09-56.64c-.32-.95-.95-1.9-1.9-2.53-.63-.32-1.27-.32-1.9-.32h0l.32.32Z"/></svg>