<?xml version="1.0" encoding="UTF-8"?><svg id="Layer_1" xmlns="http://www.w3.org/2000/svg" viewBox="0 0 720 720"><defs><style>.cls-1{fill:none;}.cls-2{fill:#f3ceaa;}.cls-3{fill:#0a1017;}.cls-4{fill:#dd784b;}.cls-5{fill:#f4d74b;}.cls-6{fill:#3d68ec;}</style></defs><path class="cls-2" d="M396.2,661.67h-.34s-3.36-35.3-3.36-35.3h-16.81s-3.7,22.52-3.7,22.52l-5.72,1.68c-2.02.67-4.03,1.68-5.72,3.36l-8.07,6.05,20.51,2.02h23.2s0-.34,0-.34Z"/><path d="M372.33,668.73h0l-38.33-3.7,22.19-16.14c2.35-2.02,5.04-3.36,8.07-4.37l1.68-.67,4.03-23.87h28.58s4.71,48.75,4.71,48.75h-30.93ZM388.81,655.28h0l-2.02-21.85h-5.04s-3.7,20.84-3.7,20.84l-3.36,1.01h14.12s0,0,0,0Z"/><path class="cls-6" d="M338.71,662.68h0l.67.67h0c-2.69-1.01-2.69-6.39-.67-8.07l4.37-3.7c.67-1.01,1.68-1.01,2.69-1.01l18.49,1.01-6.05,4.71,20.84,1.68c.67.67,1.68,0,2.35,0l11.09-6.72,3.7-1.01,4.37,10.09v1.34s-.67,13.45-.67,13.45l-4.03,2.02h-6.05c-7.73-1.68-18.15-3.7-25.55-5.38l-25.55-8.74v-.34Z"/><path d="M388.81,682.17h-.67c-3.7-1.01-8.07-1.68-12.44-2.69-4.37-.67-9.08-1.68-12.78-2.69l-25.89-8.74h0c-2.69-1.01-4.71-3.36-5.38-6.72-.67-3.7.34-7.73,3.03-9.75l4.37-3.7c1.68-1.34,3.7-2.02,6.05-2.02l31.94,2.02-6.39,5.04,7.73.67,11.09-6.72,8.74-2.02,6.05,14.12c.67,1.01.67,2.02.67,3.36l-.67,16.47-7.73,3.7h-7.73v-.34ZM394.19,672.09h1.34s0-10.09,0-10.09l-2.35-5.38-9.41,5.38c-2.02,1.34-4.03,1.34-6.05,1.34l-30.93-2.69,18.83,6.39c3.7,1.01,8.07,1.68,12.44,2.69,4.03,1.01,8.4,1.68,12.1,2.69h4.03s0-.34,0-.34ZM349.81,655.62h-4.37s-3.7,3.03-3.7,3.03l3.03,1.01,5.04-3.7v-.34ZM340.4,658.31,378.38,653.6"/><polygon class="cls-5" points="386.49 98.71 340.67 92.5 333.69 118.84 325.26 131.75 330.88 138.88 331.01 155.11 377.81 161.54 386.49 98.71"/><path d="M329.9,160.03h0c-1.97-.44-3.64-2.2-3.78-4.64l-.24-14.19-4.54-5.85c-1.02-1.61-1.15-4.05-.05-5.87l7.96-12.33,6.43-25.43c.92-2.55,3.08-4.47,5.7-3.88l45.81,6.21c2.62.59,4.8,3.15,4.21,5.78l-8.6,62.51c-.59,2.62-3.15,4.8-5.78,4.21l-46.8-6.43-.33-.07h0ZM373.67,155.44l-.33-.07,7.04-52.52-36.48-4.79-5.62,21.82c-.48.58-.62,1.24-.7,1.57l-6.38,9.93,3.45,4.57c.84.88,1.27,2.01,1.05,2.99l.43,11.82,37.47,5.02.07-.33Z"/><rect class="cls-2" x="347.21" y="166.01" width="33.62" height="20.51" transform="translate(220.15 554.26) rotate(-95)"/><path d="M344.77,153.36l33.95-3.03,4.03,47.07-33.95,3.03-4.03-47.07ZM366.62,165.12l-7.06.67,1.68,20.17,7.06-.67-1.68-20.17Z"/><path class="cls-2" d="M344.09,682.85h-.34s-3.36-35.3-3.36-35.3h-16.81s-3.7,22.52-3.7,22.52l-5.72,1.68c-2.02.67-4.03,1.68-5.72,3.36l-8.07,6.05,20.51,2.02h23.2s0-.34,0-.34Z"/><path d="M320.56,689.91h0l-38.33-3.7,22.19-16.14c2.35-2.02,5.04-3.36,8.07-4.37l1.68-.67,4.03-23.87h28.58s4.71,48.75,4.71,48.75h-30.93ZM336.7,676.46h0l-2.02-21.85h-5.04s-3.7,20.84-3.7,20.84l-3.36,1.01h14.12s0,0,0,0Z"/><path class="cls-6" d="M286.94,684.19h0l.67.67h0c-2.69-1.01-2.69-6.39-.67-8.07l4.37-3.7c.67-1.01,1.68-1.01,2.69-1.01l18.49,1.01-6.05,4.71,20.84,1.68c.67.67,1.68,0,2.35,0l11.09-6.72,3.7-1.01,4.37,10.09v1.34s-.67,13.45-.67,13.45l-4.03,2.02h-6.05c-7.73-1.68-18.15-3.7-25.55-5.38l-25.55-8.74v-.34Z"/><path d="M337.37,703.35h-.67c-3.7-1.01-8.07-1.68-12.44-2.69-4.71-.67-9.41-1.68-13.11-2.69l-25.89-8.74c-2.69-1.01-4.71-3.36-5.38-6.72-.67-3.7.34-7.73,3.03-9.75l4.37-3.7c1.68-1.34,3.7-2.02,6.05-2.02l31.94,2.02-6.39,5.04,7.73.67,11.09-6.72,8.74-2.02,6.05,14.12c.67,1.01.67,2.02.67,3.36l-.67,16.47-7.73,3.7h-7.73s.34-.34.34-.34ZM342.41,693.27h1.34s0-10.09,0-10.09l-2.35-5.38-9.41,5.38c-2.02,1.34-4.03,1.34-6.05,1.34l-30.93-2.69,18.83,6.39c3.7,1.01,8.07,1.68,12.44,2.69,4.03,1.01,8.4,1.68,12.1,2.69h4.03s0-.34,0-.34ZM297.7,677.13h-4.37s-3.7,3.03-3.7,3.03l3.03,1.01,5.04-3.7v-.34ZM288.29,679.82,326.28,674.78"/><path class="cls-6" d="M416.04,349.69h.67c4.37,17.82,2.35,36.64-6.39,45.72l-15.8,115.98,2.02,16.14,1.34,106.23c-1.68,9.08-2.69,7.4-5.38,9.08l-4.71.67c-5.72.67-11.43-1.34-14.79-6.05l-.67-.67c-.67-1.01-1.01-1.68-1.01-2.69l-6.39-117.33-15.8-151.96,2.02-32.27,59.17,2.35,5.72,14.79h0Z"/><path d="M385.11,649.23h0c-6.39,0-12.44-3.03-16.81-8.07v-.67c-1.34-1.68-2.02-3.7-2.02-5.38l-6.39-117.33s-15.8-151.96-15.8-152.29h0l2.35-37.65,67.57,2.69,7.06,17.82v.67c4.71,19.16,2.02,38.66-6.72,49.08l-15.46,113.97,2.02,15.46,1.34,106.57v1.01h0c-1.34,7.06-2.35,10.42-7.06,12.1h-.67s-1.01.67-1.01.67l-5.72,1.01h-3.03s.34.34.34.34ZM390.15,637.46h-.34,1.01c.34-.34.67-1.68,1.01-4.03l-1.34-105.23-2.02-16.47,16.14-118.34,1.01-1.34c7.4-7.4,9.41-24.21,5.38-40.68l-4.37-11.43-50.76-2.02-1.68,26.89,15.46,151.96s6.39,117.33,6.72,117.33v.67c2.35,3.03,6.39,4.71,10.09,4.03l3.7-.67v-.67ZM376.03,634.1,376.03,633.76"/><line class="cls-1" x1="314.85" y1="505.68" x2="312.83" y2="365.15"/><rect x="243.83" y="430.41" width="140.53" height="10.09" transform="translate(-117.49 754.84) rotate(-90.7)"/><path class="cls-6" d="M388.13,359.44h0c4.37,17.82-4.37,35.64-13.45,43.37l-30.59,113.29,2.02,20.84-2.02,121.03c0,3.7-2.69,6.39-6.05,7.06l-4.71.67c-5.72.67-9.41,0-12.78-4.71l-.67-.67c-.67-1.01-1.01-1.68-1.01-2.69l-6.39-144.56,2.02-137.84,2.02-32.27,65.56,2.69,5.72,13.78h.34Z"/><path d="M330.31,671.42h0c-4.37,0-9.41-1.68-13.45-7.06l-.67-.67c-1.34-1.68-2.02-3.36-2.02-5.38l-6.39-144.56,2.02-138.17,2.35-37.32,73.62,3.03,7.06,16.81v.67c4.37,18.49-3.36,37.65-13.78,47.4l-29.92,110.94,2.02,20.17-2.02,121.36c0,5.72-4.37,10.76-10.42,11.77l-4.71.67c-1.01,0-2.69,0-4.03,0l.34.34ZM341.07,537.28h0l-2.02-21.52,30.93-115.65,1.34-1.01c7.06-6.05,15.46-21.85,11.77-37.99l-4.37-10.42-57.49-2.35-1.68,27.23-2.02,137.5s6.39,144.22,6.72,144.22v.67c2.02,2.69,3.36,3.36,8.07,2.69l4.71-.67c1.34,0,2.02-1.01,2.02-2.02l2.02-120.69h0ZM324.26,657.63"/><polygon class="cls-6" points="376.7 175.55 351.15 181.26 351.15 188.99 376.7 183.61 376.7 175.55"/><polygon points="346.11 177.23 381.75 169.49 381.75 187.65 346.11 195.38 346.11 177.23"/><path class="cls-4" d="M365.95,377.93h0c-33.28,6.39-49.42-13.45-53.12-18.83v-4.71s13.45-54.13,13.45-54.13l-7.4-35.97c-4.37-23.87-8.4-56.14,11.77-72.62,3.36-2.69,7.06-4.37,11.09-5.38l34.96-8.74c10.42,0,17.82-6.39,27.23,6.39,4.71,6.05,2.69,26.22,1.34,36.31l-5.04,68.58,15.13,41.69c8.4,20.84,18.15,34.63-49.42,47.74v-.34Z"/><path d="M353.17,386h0c-27.57,0-42.02-16.81-46.06-22.86l-1.34-1.68v-7.4s13.45-53.45,13.45-53.45l-7.06-34.63c-3.36-19.16-10.42-58.83,14.12-79,3.7-3.03,8.4-5.38,13.78-6.72l35.97-9.08h.67c2.02,0,4.03-.34,6.39-.67,7.06-1.01,16.81-3.03,26.22,9.75,1.68,2.02,6.72,9.08,2.35,41.01l-4.71,66.9,14.46,40.01c.34,1.34,1.01,2.35,1.34,3.36,4.03,9.41,7.73,18.83,2.69,28.24-6.05,11.09-22.86,18.49-58.5,25.21-4.71,1.01-9.41,1.34-13.78,1.34v-.34ZM391.16,182.94h0c-1.34,0-3.03.34-5.04.67-2.35.34-5.04,1.01-8.07,1.01l-34.29,8.74c-3.36,1.01-6.39,2.35-8.4,4.03-16.47,13.45-14.12,41.01-9.75,66.23l7.73,37.32-13.78,54.8v1.68c5.38,7.06,19.16,19.5,45.05,14.46h0c28.91-5.72,45.38-11.77,49.08-18.49,1.68-3.7,0-8.74-3.36-16.81-.34-1.34-.67-2.35-1.34-3.7l-15.46-43.03s5.04-69.93,5.04-70.26h0c3.03-21.85,1.01-30.26,0-31.6-3.03-3.7-4.71-5.04-7.73-5.04h.34Z"/><path class="cls-3" d="M366.57,112.13c1.16-9.73,10.3-16.63,19.96-15.14,9.73,1.16,16.63,10.3,15.14,19.96-1.16,9.73-10.3,16.63-19.96,15.14-9.73-1.16-16.63-10.3-15.14-19.96h0Z"/><path d="M378.91,138.35h0c-5.57-1.26-10.71-4.49-14.15-9.06-3.96-5.37-5.57-11.94-4.82-18.32h0c1.65-13.41,14.08-22.67,27.49-21.02,6.38.75,12.09,4.45,16.12,9.5,3.96,5.37,5.57,11.94,4.82,18.32-.75,6.38-4.45,12.09-9.5,16.12-5.05,4.03-11.62,5.65-17.99,4.9l-1.97-.44h0ZM386.76,103.59h0l-.98-.22c-6.05-.68-11.83,3.53-12.5,9.58h0c-.26,2.7.45,5.62,2.31,8.1,1.85,2.49,4.58,4.14,7.28,4.4,2.7.26,5.62-.45,8.1-2.31,2.49-1.85,4.14-4.58,4.4-7.28.26-2.7-.45-5.62-2.31-8.1-1.6-2.08-3.67-3.59-6.29-4.18h0Z"/><polygon class="cls-5" points="316.19 366.83 331.32 372.21 326.95 386.33 327.28 397.76 327.28 413.9 325.27 421.3 318.54 427.35 314.85 431.05 312.49 431.05 312.83 415.24 312.16 407.85 310.81 404.49 310.48 405.83 311.48 410.87 309.47 414.91 307.11 415.58 304.76 402.13 305.77 399.44 306.1 397.76 307.11 396.42 308.12 394.74 309.47 392.05 313.16 387.34 315.18 378.6 316.19 366.83"/><path d="M312.49,436.09h0v-.67h0c-1.34,0-2.35-.34-3.36-1.34-1.01-1.01-1.34-2.35-1.34-3.7v-10.42c-1.34.34-2.35,0-3.36-.67-1.01-.67-2.02-2.02-2.02-3.36l-2.02-13.45v-2.02s1.01-4.03,1.01-4.03c.34-.34.67-1.34.67-1.34l2.02-3.03,1.34-2.35c0-.67.34-.67.34-.67l3.03-4.03,1.34-7.4,1.34-11.43c.34-1.34,1.01-3.36,2.35-3.7,1.34-.34,3.03-.67,4.37-.34l14.79,5.04c2.35.67,3.7,3.36,3.03,6.05l-3.7,13.45v28.24s-2.02,7.4-2.02,7.4c0,1.01-.67,1.68-1.34,2.35l-6.72,6.05-3.7,3.7c-.67,1.01-1.68,1.68-3.03,1.68h-3.03s0,0,0,0ZM320.9,418.61h.67s1.34-5.04,1.34-5.04v-28.58s2.69-9.41,2.69-9.41l-4.37-1.68s-.67,5.38-.67,5.72h0l-1.68,8.74-1.01,2.02-3.7,4.37-1.01,2.02-.34.67-1.34,2.02c2.02,0,4.03,1.34,4.71,3.36l1.01,3.36v1.01s.67,7.4.67,7.4v6.72s3.03-3.03,3.03-3.03v.34Z"/><path class="cls-4" d="M348.46,301.61h0c-4.71,30.59-15.46,66.23-17.82,83.71-1.01,3.36-8.74,1.01-13.78-.67-4.03-1.68-4.03-3.7-4.03-7.06v-2.02c1.34-9.41,3.03-19.16,4.71-31.6,3.03-21.18,4.71-31.94,7.06-44.04l-6.72-78.67c-3.03-7.4,1.34-13.45,7.73-15.46,9.41-3.03,18.83,3.7,18.83,13.45l4.03,80.68v1.34s0,.34,0,.34Z"/><path d="M326.95,393.73h.34c-3.36,0-7.4-1.01-12.44-2.69-8.74-3.36-8.74-9.75-8.4-13.45v-3.03c.67-5.04,1.68-10.09,2.35-15.46.67-5.04,1.34-10.09,2.35-16.14l1.01-7.73c2.35-15.46,3.7-25.21,5.72-35.64l-6.72-76.65c-1.68-4.71-1.34-9.75.67-13.78,2.35-4.71,6.72-8.07,12.1-9.75,6.39-1.68,13.11-.67,18.49,3.36,5.38,4.03,8.74,10.09,8.74,16.47l4.03,80.68v2.69c-2.69,17.15-7.06,35.97-11.09,52.44-3.03,12.44-5.72,23.53-7.06,30.93v1.01c-1.01,2.35-2.35,4.37-4.71,5.38-1.34,1.01-3.36,1.01-5.38,1.01v.34ZM341.74,299.26h-.34s-4.03-80.35-4.03-80.35c-.34-2.35-1.34-4.71-3.36-6.05-2.02-1.34-4.37-2.02-6.72-1.34-1.68.34-3.03,1.34-3.7,2.69-.67,1.01-.67,2.35.34,4.03v1.01s6.72,80.68,6.72,80.68v1.01c-2.02,10.42-3.36,19.5-5.72,35.97l-1.01,7.73c-.67,6.05-1.68,11.09-2.35,16.14-1.01,5.38-1.68,10.42-2.35,15.46v1.68h0c2.35,1.01,4.03,1.68,5.38,1.68,1.34-7.4,3.7-17.15,6.39-27.9,3.7-16.47,8.07-34.63,10.76-51.44v-.67s0-.34,0-.34Z"/><polygon class="cls-6" points="348.46 299.93 332.33 375.24 348.8 299.93 344.43 220.59 348.46 299.93"/><polygon points="327.28 374.23 343.42 299.6 339.39 220.93 349.47 220.59 353.84 300.27 337.37 376.58 327.28 374.23"/><path class="cls-5" d="M420.41,159.1l.33.07-.22.98h0c-1.41,6.23-7.11,10.11-13.23,9.76-2.32,5.68-9.91,8.79-14.5,7.75-4.59-1.04-7.68-4.15-9.16-8.27-2.01,1.27-3.54,1.96-7.15,1.14-3.61-.81-6.19-3.12-7.24-6.11-2.34,1.2-1.9,2.33-7.48,1.07-5.57-1.26-8.58-7.8-7.62-12.06.96-4.26,4.73-7.2,8.63-7.7-.11-1.06-.29-1.79-.06-2.77l.59-2.62c-2.69-3.36-4.24-7.16-4.34-11.32-8.38-2.58-14.11-10.77-13.17-19.52-8.3-2.91-14.04-11.1-12.69-20.1,1.27-8.67,8.22-15.03,16.35-15.95h0c49.07-8.22,57.83,21.68,56.93,39.4-.5,6.78-.19,13.05.44,19.4,4.98,3.88,8.61,9.18,10.3,15.42,2.83,2.71,4.24,7.16,3.28,11.42h0Z"/><path d="M391.12,183.5h0l-.8.51h0c-4.26-.96-8.16-3.57-10.84-6.93-4.89.27-10.31-1.64-13.66-5.15-2.12.21,3.06,1.72-6.12-.35s-14.77-10.92-12.69-20.1c1.04-4.59,3.97-8.41,7.91-10.62-1.2-2.34-2.39-4.68-2.86-7.19-7.35-4.07-12.58-11.46-13.42-19.92-8.84-5.1-13.88-14.85-12.57-25.24,1.12-8.02,5.7-14.57,12.06-18.3l-1.02-1.61,10.73-1.71c22.58-3.86,39.71-.34,51.2,9.84,13.49,12.01,13.97,29.69,13.8,36.55-.38,4.74-.11,9.63.27,15.57,4.58,4.14,8.13,9.76,9.9,15.68,3.78,4.64,5.58,8.84,3.88,16.39s-8.18,13.32-15.73,14.71c-4.18,6.29-12.18,9.66-20.05,7.88h0ZM376.6,79.93h0l1.16.95h0c-4.59-1.04-9.33-1.42-14.95-.96h0l-11.64,1.16c-5.62.45-9.68,4.71-10.54,10.03-.93,5.65,2.37,10.87,7.72,13.12l5.25,1.18-.53,5.39c-.53,5.39,3.1,10.69,8.2,12.54l4.59,1.04.27,4.89c-.19,2.37,1,4.71,2.6,6.79l2.1,2.89-1.48,6.56-.02,6.2-6.02.71c-1.39.03-2.59.79-2.96,2.43-.37,1.64.57,3.58,2.54,4.02.98.22,2.12-.21,2.52-.47l6.83-4.32,2.78,7.52c.51.8,1.34,1.68,2.33,1.9s2.12-.21,2.52-.47l7.09-3.91,2.71,7.85c.54,2.19,1.63,3.47,4.25,4.06,2.62.59,5.69-.78,6.69-3.66l1.77-4.77,5.07.46c3.03.34,5.51-1.51,6.18-4.46.44-1.97-.1-4.16-1.51-5.51l-1.09-1.28-.29-1.79c-1-4.71-3.87-8.8-7.69-11.73l-2.33-1.9-.32-3.17c-.59-8.06-.9-14.33-.55-20.46.13-5.14-.16-17.61-9.32-25.89-3.74-3.26-8.37-5.68-13.94-6.94h0Z"/></svg>