<?xml version="1.0" encoding="UTF-8"?>
<svg width="129.261689px" height="160px" viewBox="0 0 129.261689 160" version="1.1" xmlns="http://www.w3.org/2000/svg" xmlns:xlink="http://www.w3.org/1999/xlink">
    <title>Group 70</title>
    <defs>
        <polygon id="path-1" points="1.3056923e-14 0 65.6132478 0 65.6132478 62.7251164 1.3056923e-14 62.7251164"></polygon>
        <polygon id="path-3" points="1.3056923e-14 -1.3056923e-14 65.6132478 -1.3056923e-14 65.6132478 62.7275221 1.3056923e-14 62.7275221"></polygon>
        <polygon id="path-5" points="1.3056923e-14 0 65.6132478 0 65.6132478 62.7217471 1.3056923e-14 62.7217471"></polygon>
    </defs>
    <g id="website" stroke="none" stroke-width="1" fill="none" fill-rule="evenodd">
        <g id="Hubs" transform="translate(-1230.000000, -1330.000000)">
            <g id="Group-2" transform="translate(160.000000, 1176.000000)">
                <g id="Group-70" transform="translate(1070.000000, 154.000000)">
                    <path d="M127.19949,98.6400118 L63.4522779,61.8466949 C62.6671639,61.4727436 62.0768354,61.6684478 61.2917214,62.0616939 L4.22417966,95.0162675 C3.24152384,95.6543736 2.6521141,96.3126933 2.06270437,97.3137251 L65.8099168,134.098773 C66.3988671,133.086715 66.9882769,132.439421 67.8730806,131.800856 L125.038934,98.8462823 C125.725277,98.4530362 126.413458,98.2573319 127.19949,98.6400118" id="Fill-1" fill="#000000"></path>
                    <path d="M65.8099168,135.258114 C65.6128344,135.258114 65.4166707,135.199311 65.2209665,135.099621 L1.47375404,98.3159513 C1.17927887,98.1588367 0.983115223,97.9029511 0.884344301,97.5988285 C0.884344301,97.2951653 0.884344301,96.9804766 1.08050795,96.7048368 C1.66945828,95.6344357 2.35763894,94.8190013 3.63522933,94.0430753 L60.7018522,61.0604784 C61.6849675,60.5583546 62.6671639,60.2147236 63.9429167,60.8045928 L127.788441,97.6378775 C128.279998,97.9429188 128.476621,98.6209927 128.181687,99.1704347 C127.886293,99.7198766 127.297342,99.9367133 126.707473,99.6808277 C126.413458,99.532901 126.217294,99.5246318 125.529573,99.8673439 L68.4620309,132.801704 C67.7743097,133.264319 67.282752,133.734745 66.7921132,134.707753 C66.4976381,135.061031 66.2017847,135.258114 65.8099168,135.258114 M3.73308145,96.9405088 L65.4166707,132.566032 C65.9077689,131.918278 66.4976381,131.369296 67.282752,130.828123 L123.957966,98.1188689 L62.8633275,62.8480024 C62.6671639,62.7588788 62.4700814,62.7400434 61.7828196,63.0933218 L4.8140488,96.0074682 C4.41942451,96.2927553 4.02755662,96.5674763 3.73308145,96.9405088" id="Fill-3" fill="#000000"></path>
                    <path d="M128.083375,100.624435 C128.083375,99.6422381 127.788441,98.9545168 127.19949,98.6398281 C126.61054,98.3159513 125.824048,98.3550003 125.038934,98.8465579 L67.8730806,131.800672 C67.0870478,132.291311 66.3005556,133.136606 65.8099168,134.098589 L65.8099168,134.107777 C65.2209665,135.071138 64.8263422,136.162212 64.8263422,137.14303 L64.8263422,156.639951 C64.8263422,157.623526 65.2209665,158.310328 65.8099168,158.635124 C66.3005556,158.95946 67.0870478,158.909845 67.8730806,158.418287 L125.038934,125.47428 C126.707473,124.482895 128.083375,122.095395 128.083375,120.132381 L128.083375,100.624435 Z" id="Fill-5" fill="#05B173"></path>
                    <g id="Group-9" transform="translate(63.648442, 97.274884)">
                        <mask id="mask-2" fill="white">
                            <use xlink:href="#path-1"></use>
                        </mask>
                        <g id="Clip-8"></g>
                        <path d="M2.94658927,62.7251164 C2.45640986,62.7251164 1.96439285,62.5974033 1.57252496,62.3626501 C0.588950335,61.8113705 1.3056923e-14,60.7216746 1.3056923e-14,59.3650674 L1.3056923e-14,39.8681469 C1.3056923e-14,38.7191884 0.394164889,37.4328694 1.08096735,36.2545093 C1.7682292,35.065583 2.75042563,34.102222 3.73308145,33.5238379 L60.801542,0.569723702 C61.979902,-0.107890763 63.1578027,-0.186448101 64.1399991,0.362993865 C65.023884,0.903707238 65.6132938,1.99432198 65.6132938,3.34955091 L65.6132938,22.8574971 C65.6132938,25.2234052 64.0416876,28.0128798 61.979902,29.1912399 L4.8135894,62.1453541 C4.22463906,62.5289527 3.53691781,62.7251164 2.94658927,62.7251164 M62.765016,2.30855133 C62.5688524,2.30855133 62.2739178,2.38710867 61.979902,2.57362492 L4.8135894,35.5268203 C4.22463906,35.8906648 3.53691781,36.5788455 3.14367172,37.4034678 C2.6521141,38.2276307 2.35763894,39.1321886 2.35763894,39.8681469 L2.35763894,59.3650674 C2.35763894,59.8676507 2.45640986,60.2406832 2.6521141,60.3582895 C2.84919655,60.456601 3.14367172,60.4464942 3.73308145,60.1515596 L60.801542,27.1983643 C62.0768354,26.4228977 63.2561142,24.3983235 63.2561142,22.8574971 L63.2561142,3.34955091 C63.2561142,2.76060057 63.1578027,2.45509981 62.9620985,2.36735448 C62.8633275,2.32830551 62.8633275,2.30855133 62.765016,2.30855133" id="Fill-7" fill="#000000" mask="url(#mask-2)"></path>
                    </g>
                    <polygon id="Fill-10" fill="#F8D754" points="119.046892 119.856373 124.547284 116.673653 124.547284 110.319237 119.046892 113.501958"></polygon>
                    <path d="M119.046892,121.016128 C118.84981,121.016128 118.653646,120.956406 118.457942,120.858094 C118.163008,120.652283 117.965925,120.268225 117.965925,119.856603 L117.965925,113.501728 C117.965925,113.088728 118.163008,112.70467 118.457942,112.499777 L123.957875,109.326245 C124.350202,109.120893 124.841759,109.110327 125.136235,109.326245 C125.529481,109.533893 125.725644,109.907385 125.725644,110.319007 L125.725644,116.673882 C125.725644,117.09653 125.529481,117.469563 125.136235,117.675833 L119.635843,120.858094 C119.43876,120.956406 119.243975,121.016128 119.046892,121.016128 L119.046892,121.016128 Z M120.225253,114.169236 L120.225253,117.862809 L123.466776,116.015563 L123.466776,112.323827 L120.225253,114.169236 Z" id="Fill-12" fill="#000000"></path>
                    <path d="M65.8099168,134.098773 L2.06270437,97.3137251 L2.06270437,97.3247507 C1.47375404,98.3652909 1.17927887,99.1600522 1.17927887,100.359085 L1.17927887,119.856465 C1.17927887,120.710949 1.27759039,121.339867 2.06270437,121.85026 L65.8099168,158.635307 C65.023884,158.123536 64.9264913,157.495537 64.8268016,156.640135 L64.8268016,137.143214 C64.9264913,135.946019 65.2209665,135.149879 65.8099168,134.107961 L65.8099168,134.098773 Z" id="Fill-14" fill="#F4D9DC"></path>
                    <path d="M65.8099168,159.78399 C65.6128344,159.78399 65.4166707,159.745401 65.2209665,159.637442 L1.47375404,122.852394 C0.197082444,121.99837 0,120.937157 0,119.905805 L0,100.359269 C0,98.846466 0.394164889,97.873917 0.983115223,96.7644669 C1.17927887,96.4993933 1.37544251,96.2926635 1.7682292,96.2049181 C2.06270437,96.1157946 2.35763894,96.1649504 2.6521141,96.312877 L66.3005556,133.096547 C66.8899654,133.410776 67.0870478,134.098957 66.7921132,134.647939 C66.2017847,135.64989 66.1048514,136.26962 66.0060805,137.193473 L66.0060805,156.640319 C66.0060805,157.35836 66.2017847,157.495721 66.3988671,157.682237 C66.8899654,158.035515 67.0870478,158.732425 66.7921132,159.253843 C66.4976381,159.597474 66.1048514,159.78399 65.8099168,159.78399 L65.8099168,159.78399 Z M2.55472138,98.9438588 C2.35763894,99.4170404 2.35763894,99.858064 2.25978681,100.408425 L2.25978681,119.85619 C2.35763894,120.563206 2.45595046,120.711132 2.75042563,120.897189 L63.6484415,156.109712 L63.6484415,137.142939 C63.7472124,136.101939 63.9429167,135.307178 64.2373918,134.561113 L2.55472138,98.9438588 Z" id="Fill-16" fill="#000000"></path>
                    <polygon id="Fill-18" fill="#F8D754" points="109.912052 125.130695 115.412444 121.95854 115.412444 115.594018 109.912052 118.77582"></polygon>
                    <path d="M109.912052,126.290082 C109.715889,126.290082 109.518806,126.240466 109.323102,126.132507 C109.028167,125.927156 108.733692,125.553205 108.733692,125.130557 L108.733692,118.775682 C108.733692,118.362681 109.028167,117.980002 109.323102,117.773731 L114.921805,114.601117 C115.21628,114.394847 115.608148,114.394847 116.002773,114.601117 C116.394641,114.807847 116.591723,115.181339 116.591723,115.594339 L116.591723,121.958402 C116.591723,122.370484 116.394641,122.754083 116.002773,122.960812 L110.502381,126.132507 C110.305298,126.240466 110.108216,126.290082 109.912052,126.290082 L109.912052,126.290082 Z M111.091331,119.443649 L111.091331,123.137681 L114.332855,121.290435 L114.332855,117.597781 L111.091331,119.443649 Z" id="Fill-20" fill="#000000"></path>
                    <path d="M127.19949,68.6826074 L63.4522779,31.9072071 C62.6671639,31.513961 62.0768354,31.7211503 61.2917214,32.1139369 L4.22417966,65.0671323 C3.24152384,65.7066166 2.6521141,66.3534513 2.06270437,67.3659681 L65.8099168,104.150097 C66.3988671,103.138958 66.9882769,102.490286 67.8730806,101.851721 L125.038934,68.8985253 C125.725277,68.5052792 126.413458,68.3095749 127.19949,68.6826074" id="Fill-22" fill="#000000"></path>
                    <path d="M65.8099168,105.309254 C65.6128344,105.309254 65.4166707,105.260098 65.2209665,105.15214 L1.47375404,68.3670918 C1.17927887,68.2113553 0.983115223,67.9458223 0.884344301,67.6513471 C0.884344301,67.3463058 0.884344301,67.031617 1.08050795,66.756896 C1.66945828,65.6961423 2.35763894,64.8715199 3.63522933,64.095594 L60.7018522,31.1120782 C61.6849675,30.6108732 62.6671639,30.2571355 63.9429167,30.8571114 L127.788441,67.6802893 C128.279998,67.9940593 128.476621,68.6721331 128.181687,69.2215751 C127.886293,69.7728547 127.19949,69.9984199 126.707473,69.7333463 C126.413458,69.5955264 126.217294,69.5757722 125.529573,69.9290505 L68.4620309,102.854223 C67.7743097,103.326026 67.282752,103.787263 66.7921132,104.760272 C66.4976381,105.112172 66.2017847,105.309254 65.8099168,105.309254 M3.73308145,66.9930275 L65.4166707,102.618551 C65.9077689,101.970338 66.4976381,101.420436 67.282752,100.879263 L123.957966,68.1617401 L62.8633275,32.900521 C62.6671639,32.8109381 62.4700814,32.7921027 61.7828196,33.1352742 L4.8140488,66.0586086 C4.41942451,66.3448146 4.02755662,66.619995 3.73308145,66.9930275" id="Fill-24" fill="#000000"></path>
                    <path d="M128.083375,70.6859114 C128.083375,69.703715 127.788441,69.0063464 127.19949,68.6824696 C126.61054,68.3673215 125.824048,68.4072892 125.038934,68.8983875 L67.8730806,101.851583 C67.0870478,102.3436 66.3005556,103.187517 65.8099168,104.149959 C65.2209665,105.122508 64.8263422,106.213123 64.8263422,107.195319 L64.8263422,126.69224 C64.8263422,127.674436 65.2209665,128.362617 65.8099168,128.687413 C66.3005556,129.011289 67.0870478,128.971781 67.8730806,128.479764 L125.038934,95.5160024 C125.824048,95.0262824 126.61054,94.1910939 127.19949,93.2180854 C127.788441,92.2556432 128.083375,91.1645691 128.083375,90.1832914 L128.083375,70.6859114 Z" id="Fill-26" fill="#05B173"></path>
                    <g id="Group-30" transform="translate(63.648442, 67.324721)">
                        <mask id="mask-4" fill="white">
                            <use xlink:href="#path-3"></use>
                        </mask>
                        <g id="Clip-29"></g>
                        <path d="M2.94658927,62.7275221 C2.45640986,62.7275221 1.96439285,62.5988902 1.57252496,62.364137 C0.588950335,61.8229642 1.3056923e-14,60.7231615 1.3056923e-14,59.3674732 L1.3056923e-14,39.8705526 C1.3056923e-14,38.7215941 0.394164889,37.4352751 1.08096735,36.2463488 C1.7682292,35.0679888 2.75042563,34.1046277 3.73308145,33.5248654 L60.801542,0.57167001 C61.979902,-0.106403854 63.1578027,-0.184961192 64.1399991,0.355752181 C65.023884,0.905194147 65.6132938,1.99672768 65.6132938,3.36114461 L65.6132938,22.8585246 C65.6132938,24.0079425 65.2209665,25.2938021 64.5332452,26.4730809 C63.845524,27.651441 62.9620985,28.6244494 61.979902,29.1936456 L4.8135894,62.1477598 C4.22463906,62.5304397 3.53691781,62.7275221 2.94658927,62.7275221 M62.765016,2.31003824 C62.5688524,2.31003824 62.2739178,2.37894818 61.979902,2.57511183 L4.8135894,35.529226 C4.22463906,35.8921517 3.53691781,36.5807918 3.14367172,37.4058735 C2.6521141,38.2309553 2.35763894,39.1240282 2.35763894,39.8705526 L2.35763894,59.3674732 C2.35763894,59.8686782 2.45640986,60.2421701 2.6521141,60.3606952 C2.84919655,60.4580879 3.14367172,60.4488999 3.73308145,60.1539653 L60.801542,27.1993918 C61.3904923,26.8263593 62.0768354,26.1395568 62.5688524,25.3241225 C63.0590318,24.4990407 63.2561142,23.605049 63.2561142,22.8585246 L63.2561142,3.36114461 C63.2561142,2.8599396 63.1578027,2.4777191 62.9620985,2.359194 C62.8633275,2.32979242 62.8633275,2.31003824 62.765016,2.31003824" id="Fill-28" fill="#000000" mask="url(#mask-4)"></path>
                    </g>
                    <polygon id="Fill-31" fill="#F8D754" points="119.046892 89.9075138 124.547284 86.7353593 124.547284 80.3712962 119.046892 83.5530981"></polygon>
                    <path d="M119.046892,91.0672682 C118.84981,91.0672682 118.653646,91.0084651 118.457942,90.9096941 C118.163008,90.7043425 117.965925,90.3207438 117.965925,89.9077435 L117.965925,83.5528684 C117.965925,83.1407869 118.163008,82.7571882 118.457942,82.5518366 L123.957875,79.3783039 C124.350202,79.162386 124.841759,79.162386 125.136235,79.3783039 C125.529481,79.5753863 125.725644,79.9585256 125.725644,80.3715259 L125.725644,86.735589 C125.725644,87.1389419 125.529481,87.520703 125.136235,87.7283517 L119.635843,90.9096941 C119.43876,91.0084651 119.243975,91.0672682 119.046892,91.0672682 L119.046892,91.0672682 Z M120.225253,84.220376 L120.225253,87.9043017 L123.466776,86.0667032 L123.466776,82.3749677 L120.225253,84.220376 Z" id="Fill-33" fill="#000000"></path>
                    <path d="M65.8099168,104.149913 L2.06270437,67.3662437 C1.47375404,68.4173501 1.17927887,69.2134897 1.17927887,70.4019565 L1.17927887,89.9076057 C1.17927887,90.762089 1.27759039,91.3910071 2.06270437,91.9027783 L65.8099168,128.687367 C65.023884,128.175595 64.9264913,127.546677 64.8268016,126.692194 L64.8268016,107.195273 C64.9264913,105.997619 65.2209665,105.201479 65.8099168,104.149913" id="Fill-35" fill="#F4D9DC"></path>
                    <path d="M65.8099168,129.845881 C65.6128344,129.845881 65.4166707,129.796725 65.2209665,129.688766 L1.47375404,92.9050965 C0.197082444,92.0496943 0,90.9884812 0,89.957129 L0,70.4018646 C0,68.898709 0.394164889,67.9151344 0.983115223,66.8157911 C1.17927887,66.5401513 1.37544251,66.3449065 1.7682292,66.2557829 C2.06270437,66.1666594 2.35763894,66.2066272 2.6521141,66.374308 L66.3005556,103.14879 C66.8899654,103.463019 67.0870478,104.149821 66.7921132,104.701101 C66.2017847,105.702592 66.1048514,106.320944 66.0060805,107.244337 L66.0060805,126.692562 C66.0060805,127.409684 66.2017847,127.546586 66.3988671,127.743668 C66.8899654,128.087758 67.0870478,128.774561 66.7921132,129.306086 C66.4976381,129.649717 66.1048514,129.845881 65.8099168,129.845881 L65.8099168,129.845881 Z M2.55472138,68.9961018 C2.35763894,69.4683646 2.35763894,69.910307 2.25978681,70.459749 L2.25978681,89.9075138 C2.35763894,90.6255555 2.45595046,90.7619972 2.75042563,90.9485134 L63.6484415,126.163333 L63.6484415,107.195182 C63.7472124,106.154182 63.9429167,105.369068 64.2373918,104.611977 L2.55472138,68.9961018 Z" id="Fill-37" fill="#000000"></path>
                    <polygon id="Fill-39" fill="#F8D754" points="109.912052 95.1825702 115.412444 92.0108751 115.412444 85.6454337 109.912052 88.8281544"></polygon>
                    <path d="M109.912052,96.341222 C109.715889,96.341222 109.518806,96.292985 109.323102,96.1836479 C109.028167,95.9782963 108.733692,95.5946976 108.733692,95.1826161 L108.733692,88.8282003 C108.733692,88.4147407 109.028167,88.0320608 109.323102,87.8257903 L114.921805,84.6522576 C115.21628,84.4473654 115.608148,84.4473654 116.002773,84.6522576 C116.394641,84.8603657 116.591723,85.2425862 116.591723,85.6454796 L116.591723,92.0104616 C116.591723,92.4239213 116.394641,92.805223 116.002773,93.0128716 L110.502381,96.1836479 C110.305298,96.292985 110.108216,96.341222 109.912052,96.341222 L109.912052,96.341222 Z M111.091331,89.495708 L111.091331,93.1888217 L114.332855,91.3429539 L114.332855,87.6498403 L111.091331,89.495708 Z" id="Fill-41" fill="#000000"></path>
                    <path d="M127.19949,38.1446597 L63.4522779,1.35042401 C62.6671639,0.9773915 62.0768354,1.17355515 61.2917214,1.56634183 L4.22417966,34.5195372 C3.24152384,35.1581027 2.6521141,35.8168818 2.06270437,36.818373 L65.8099168,73.6034207 C66.3988671,72.5918227 66.9882769,71.9431504 67.8730806,71.3045849 L125.038934,38.3504708 C125.725277,37.9581435 126.413458,37.761061 127.19949,38.1446597" id="Fill-43" fill="#F4D9DC"></path>
                    <path d="M65.8099168,74.7616591 C65.6128344,74.7616591 65.4166707,74.7134221 65.2209665,74.6054632 L1.47375404,37.8208749 C1.17927887,37.6637602 0.983115223,37.4087934 0.884344301,37.103752 C0.884344301,36.7987107 0.884344301,36.4840219 1.08050795,36.2203265 C1.66945828,35.1490066 2.35763894,34.3234654 3.63522933,33.54708 L60.7018522,0.574589898 C61.6849675,0.0729254948 62.6671639,-0.290000218 63.9429167,0.3191637 L127.788441,37.1423416 C128.279998,37.447383 128.476621,38.124538 128.181687,38.6753582 C127.886293,39.225719 127.19949,39.4416368 126.707473,39.1857512 C126.413458,39.0483907 126.217294,39.0286365 125.529573,39.3722674 L68.4620309,72.3066274 C67.7743097,72.7784309 67.282752,73.2493155 66.7921132,74.2112983 C66.4976381,74.5654954 66.2017847,74.7616591 65.8099168,74.7616591 M3.73308145,36.4454324 L65.4166707,72.0709554 C65.9077689,71.4218237 66.4976381,70.8728412 67.282752,70.3316684 L123.957966,37.6247112 L62.8633275,2.35154769 C62.6671639,2.26334296 62.4700814,2.24450758 61.7828196,2.5968671 L4.8140488,35.5128511 C4.41942451,35.7976789 4.02755662,36.0719405 3.73308145,36.4454324" id="Fill-45" fill="#000000"></path>
                    <path d="M128.083375,40.1386839 C128.083375,39.1564874 127.788441,38.4582 127.19949,38.14443 C126.61054,37.8205533 125.824048,37.8692497 125.038934,38.3502411 L67.8730806,71.3048146 C67.0870478,71.7959128 66.3005556,72.63983 65.8099168,73.603191 L65.8099168,73.6128384 C65.2209665,74.5752807 64.8263422,75.665436 64.8263422,76.6485512 L64.8263422,96.1450124 C64.8263422,97.1276682 65.2209665,97.8158489 65.8099168,98.1388068 C66.3005556,98.4626836 67.0870478,98.414906 67.8730806,97.9325364 L125.038934,64.979341 C125.824048,64.4887022 126.61054,63.6424881 127.19949,62.6708579 C127.788441,61.7079562 128.083375,60.6182603 128.083375,59.6356045 L128.083375,40.1386839 Z" id="Fill-47" fill="#05B173"></path>
                    <g id="Group-51" transform="translate(63.648442, 36.783268)">
                        <mask id="mask-6" fill="white">
                            <use xlink:href="#path-5"></use>
                        </mask>
                        <g id="Clip-50"></g>
                        <path d="M2.94658927,62.7217471 C2.45640986,62.7217471 1.96439285,62.5935746 1.57252496,62.3579026 C0.588950335,61.8176486 1.3056923e-14,60.7173865 1.3056923e-14,59.3616981 L1.3056923e-14,39.8656963 C1.3056923e-14,38.7167378 0.394164889,37.4281219 1.08096735,36.2497618 C1.7682292,35.0714017 2.75042563,34.0997715 3.73308145,33.5190904 L60.801542,0.565894989 C61.979902,-0.112178875 63.1578027,-0.180629421 64.1399991,0.359165152 C65.023884,0.898959726 65.6132938,2.00014066 65.6132938,3.35536959 L65.6132938,22.8522902 C65.6132938,24.0017081 65.2209665,25.2889459 64.5332452,26.4668465 C63.845524,27.6562322 62.9620985,28.618215 61.979902,29.1887894 L4.8135894,62.1419847 C4.22463906,62.5246646 3.53691781,62.7217471 2.94658927,62.7217471 M62.765016,2.30380382 C62.5688524,2.30380382 62.2739178,2.37317316 61.979902,2.56933681 L4.8135894,35.523451 C4.22463906,35.8964835 3.53691781,36.5736385 3.14367172,37.4000985 C2.6521141,38.2251802 2.35763894,39.1274411 2.35763894,39.8656963 L2.35763894,59.3616981 C2.35763894,59.9602959 2.55334318,60.2653372 2.6521141,60.3544608 C2.84919655,60.4426655 3.14367172,60.4426655 3.73308145,60.1472715 L60.801542,27.1936168 C61.3904923,26.8205842 62.0768354,26.1429698 62.5688524,25.317888 C63.0590318,24.4932657 63.2561142,23.5882484 63.2561142,22.8522902 L63.2561142,3.35536959 C63.2561142,2.75539366 63.1578027,2.4517305 62.9620985,2.36352577 C62.8633275,2.3240174 62.8633275,2.30380382 62.765016,2.30380382" id="Fill-49" fill="#000000" mask="url(#mask-6)"></path>
                    </g>
                    <polygon id="Fill-52" fill="#F8D754" points="119.046892 59.3602863 124.547284 56.1881318 124.547284 49.8240686 119.046892 53.0054111"></polygon>
                    <path d="M119.046892,60.5196731 C118.84981,60.5196731 118.653646,60.4714362 118.457942,60.3625584 C118.163008,60.1558286 117.965925,59.7736081 117.965925,59.3601484 L117.965925,53.0052733 C117.965925,52.592273 118.163008,52.2109713 118.457942,52.0033226 L123.957875,48.8311682 C124.350202,48.6152503 124.841759,48.6152503 125.136235,48.8311682 C125.529481,49.0374386 125.725644,49.4109305 125.725644,49.8239308 L125.725644,56.1879939 C125.725644,56.6009942 125.529481,56.9836741 125.136235,57.1904039 L119.635843,60.3625584 C119.43876,60.4714362 119.243975,60.5196731 119.046892,60.5196731 L119.046892,60.5196731 Z M120.225253,53.6732403 L120.225253,57.366354 L123.466776,55.5204863 L123.466776,51.8269132 L120.225253,53.6732403 Z" id="Fill-54" fill="#000000"></path>
                    <path d="M65.8099168,73.6034207 L2.06270437,36.818373 L2.06270437,36.8280204 C1.47375404,37.86902 1.17927887,38.6656189 1.17927887,39.8637332 L1.17927887,59.3601944 C1.17927887,60.2146777 1.27759039,60.844974 2.06270437,61.3549076 L65.8099168,98.1390365 C65.023884,97.6286435 64.9264913,97.0006442 64.8268016,96.1452421 L64.8268016,76.6487809 C64.9264913,75.4598547 65.2209665,74.6540677 65.8099168,73.6130681 L65.8099168,73.6034207 Z" id="Fill-56" fill="#F4D9DC"></path>
                    <path d="M65.8099168,99.2982856 C65.6128344,99.2982856 65.4166707,99.2491298 65.2209665,99.1411709 L1.47375404,62.3561232 C0.197082444,61.5020992 0,60.4408861 0,59.4095339 L0,39.8639169 C0,38.3501951 0.394164889,37.3785649 0.983115223,36.268196 C1.17927887,36.0031224 1.37544251,35.7977707 1.7682292,35.7086472 C2.06270437,35.6204425 2.35763894,35.6686795 2.6521141,35.8271723 L66.3005556,72.6108419 C66.8899654,72.9158832 67.0870478,73.6036045 66.7921132,74.1535058 C66.2017847,75.1545377 66.1048514,75.773349 66.0060805,76.6967422 L66.0060805,96.1454259 C66.0060805,96.8620893 66.2017847,97.000828 66.3988671,97.1965322 C66.8899654,97.5401632 67.0870478,98.2375318 66.7921132,98.7575722 C66.4976381,99.1021219 66.1048514,99.2982856 65.8099168,99.2982856 L65.8099168,99.2982856 Z M2.55472138,38.4498849 C2.35763894,38.9203101 2.35763894,39.3627119 2.25978681,39.9121539 L2.25978681,59.3603781 C2.35763894,60.0678536 2.45595046,60.2144021 2.75042563,60.4013777 L63.6484415,95.6157381 L63.6484415,76.6489647 C63.7472124,75.6065869 63.9429167,74.8214729 64.2373918,74.0643823 L2.55472138,38.4498849 Z" id="Fill-58" fill="#000000"></path>
                    <polygon id="Fill-60" fill="#F8D754" points="109.912052 64.6445306 115.412444 61.4631881 115.412444 55.1083129 109.912052 58.2804674"></polygon>
                    <path d="M109.912052,65.7936269 C109.715889,65.7936269 109.518806,65.7453899 109.323102,65.637431 C109.028167,65.4307012 108.733692,65.0576687 108.733692,64.6446684 L108.733692,58.2806052 C108.733692,57.8685238 109.028167,57.4849251 109.323102,57.2878426 L114.921805,54.1065001 C115.21628,53.8997703 115.608148,53.8997703 116.002773,54.1065001 C116.394641,54.3113924 116.591723,54.6954505 116.591723,55.1084507 L116.591723,61.4628665 C116.591723,61.874948 116.394641,62.2590061 116.002773,62.4643577 L110.502381,65.637431 C110.305298,65.7453899 110.108216,65.7936269 109.912052,65.7936269 L109.912052,65.7936269 Z M111.091331,58.9481129 L111.091331,62.6412266 L114.332855,60.7953588 L114.332855,57.1118925 L111.091331,58.9481129 Z" id="Fill-62" fill="#000000"></path>
                    <path d="M70.4266994,84.3284728 C70.0334533,84.3284728 69.6406666,84.1231211 69.4431248,83.7500886 C69.149109,83.1997279 69.3461915,82.4931712 69.8377491,82.1775637 L104.215543,62.3360933 C104.706182,62.0227828 105.491295,62.209299 105.785771,62.758741 C106.080246,63.319668 105.88546,64.0165772 105.393443,64.340454 L71.0156497,84.1713581 C70.8185673,84.2802358 70.622863,84.3284728 70.4266994,84.3284728" id="Fill-64" fill="#000000"></path>
                    <path d="M70.4266994,114.876068 C70.0334533,114.876068 69.6406666,114.670257 69.4431248,114.297224 C69.149109,113.746864 69.3461915,113.039388 69.8377491,112.726078 L104.215543,92.8942546 C104.706182,92.5703779 105.491295,92.7568941 105.785771,93.3072549 C106.080246,93.8672631 105.88546,94.5733603 105.393443,94.8880491 L71.0156497,114.718953 C70.8185673,114.826912 70.622863,114.876068 70.4266994,114.876068" id="Fill-66" fill="#000000"></path>
                    <path d="M70.4266994,144.824927 C70.0334533,144.824927 69.6406666,144.618657 69.4431248,144.245165 C69.149109,143.694804 69.3461915,142.987329 69.8377491,142.673559 L104.215543,122.832548 C104.706182,122.518319 105.491295,122.704835 105.785771,123.264384 C106.080246,123.814744 105.88546,124.52222 105.393443,124.83599 L71.0156497,144.667813 C70.8185673,144.775772 70.622863,144.824927 70.4266994,144.824927" id="Fill-68" fill="#000000"></path>
                </g>
            </g>
        </g>
    </g>
</svg>