<?xml version="1.0" encoding="UTF-8"?><svg id="Layer_1" xmlns="http://www.w3.org/2000/svg" viewBox="0 0 720 720"><defs><style>.cls-1{fill:none;stroke-width:6.73px;}.cls-1,.cls-2,.cls-3,.cls-4,.cls-5{stroke:#000;stroke-linecap:round;stroke-linejoin:round;}.cls-2{stroke-width:4.92px;}.cls-3{fill:#f4d9dc;stroke-width:10.96px;}.cls-4{fill:#f4d74b;}.cls-4,.cls-5{stroke-width:9.47px;}.cls-5{fill:#101010;}</style></defs><path class="cls-3" d="M374.6,81.18l-142.43,82.23v472.3c0,.66.53.93,1.06.66l199.19-114.94V113.72l-57.82-32.55Z"/><path class="cls-3" d="M410.67,96.96l-142.43,82.23v472.3c0,.66.53.93,1.06.66l199.19-114.94V129.51l-57.82-32.55Z"/><polygon class="cls-3" points="410.67 96.96 410.67 159.33 468.5 129.51 410.67 96.96"/><line class="cls-1" x1="307.22" y1="562.82" x2="429.51" y2="492.25"/><line class="cls-1" x1="307.22" y1="524.13" x2="429.51" y2="453.56"/><line class="cls-1" x1="307.22" y1="485.43" x2="429.51" y2="414.87"/><line class="cls-1" x1="307.22" y1="446.74" x2="429.51" y2="376.18"/><line class="cls-1" x1="307.22" y1="369.36" x2="429.51" y2="298.79"/><line class="cls-1" x1="307.22" y1="330.66" x2="429.51" y2="260.1"/><line class="cls-1" x1="307.22" y1="291.97" x2="429.51" y2="221.41"/><line class="cls-1" x1="307.22" y1="408.05" x2="429.51" y2="337.48"/><ellipse class="cls-5" cx="197.81" cy="431.03" rx="86.21" ry="113.13"/><ellipse class="cls-4" cx="225.33" cy="441.27" rx="86.21" ry="113.13"/><polygon class="cls-2" points="172.55 438.92 182.46 422.05 217.66 468.52 265.94 385.91 279.7 401.06 219.55 499.91 172.55 438.92"/></svg>