<?xml version="1.0" encoding="UTF-8"?><svg id="Layer_1" xmlns="http://www.w3.org/2000/svg" viewBox="0 0 720 720"><defs><style>.cls-1{fill:#fff;}.cls-1,.cls-2,.cls-3,.cls-4,.cls-5,.cls-6{fill-rule:evenodd;}.cls-7{stroke-width:6.18px;}.cls-7,.cls-8,.cls-2{stroke:#14100d;stroke-linecap:round;stroke-linejoin:round;}.cls-7,.cls-8,.cls-2,.cls-5{fill:#ecf0fd;}.cls-8,.cls-2{stroke-width:8.23px;}.cls-4{fill:#14100d;}.cls-9{opacity:.2;}.cls-6{fill:#dd784b;}</style></defs><path class="cls-6" d="M290.64,330.89l-16.24-2.81-11.55,24.04,3.75,5.62-7.18,22.48c5.93,1.25,10.93,1.56,19.67-12.49,7.49-11.86,6.87-17.8,11.55-36.84h0Z"/><path class="cls-4" d="M291.89,325.27l-16.24-2.81c-2.5-.62-5.31.94-6.24,3.43l-11.86,23.73c-.94,1.87-.62,4.06.31,5.62h0l2.19,3.12-6.24,19.67c-.94,3.12.62,6.24,3.75,7.18h.62c4.06.94,7.81,1.25,12.49-.94,4.06-1.87,8.43-5.93,13.43-14.05,5.93-9.37,7.18-14.99,9.05-24.98.62-3.75,1.56-7.81,3.12-13.11.62-3.12-.94-6.24-4.06-7.18h0l-.31.31ZM277.84,334.64l5.93,1.25c-.62,3.12-1.56,5.31-1.87,7.49-1.87,8.74-3.12,14.05-7.81,21.54-2.81,4.37-5,6.87-6.87,8.43l4.37-13.43c.62-1.56.62-3.75-.62-5.31l-1.87-2.5,8.43-17.17h0l.31-.31Z"/><path class="cls-5" d="M333.72,180.4l-32.78-2.19-9.37,83.99-17.8,58.07c-.62,1.25-.62,2.5,0,4.06.62,5.62,5.93,9.37,11.55,8.74,4.37-.62,7.18-3.43,8.43-7.49l19.98-57.45,19.98-88.05h0v.31Z"/><path class="cls-4" d="M334.35,174.47l-38.09-2.5-9.99,88.99-17.48,57.76h0c0,1.25-.31,2.19,0,3.12s0,2.19,0,3.43c.62,4.37,3.12,7.81,6.24,10.62,3.12,2.5,7.49,3.75,11.86,3.12,3.12-.31,5.93-1.87,8.43-3.75,2.19-1.87,4.06-4.68,4.68-7.81l19.98-57.45c7.18-31.85,14.36-63.38,21.86-94.92l-6.56-.62h-.94ZM306.25,184.46l20.61,1.25-18.42,81.18-19.98,57.45h0c0,1.25-.62,1.56-1.25,2.19-.62,0-1.25.94-2.19.94-1.25,0-2.5,0-3.43-.62-.94-.62-1.56-1.87-1.56-3.12v-1.56l17.8-58.7,8.74-79.31h0l-.31.31Z"/><path class="cls-4" d="M400.54,496.69l6.87-118.02v-2.19c0-15.92-8.74-20.92-19.36-26.85h-.62c-17.48-10.3-34.97-20.61-52.45-29.97-4.06-2.19-8.12-3.43-12.18-4.06-4.06-.62-8.43,0-12.49,1.56l1.56-.94h0c-5.31,1.87-9.68,5.62-12.8,9.99-3.12,4.37-4.68,9.68-4.68,15.3,1.56,39.34,0,81.18,0,120.83,0,24.67,1.56,51.21,2.81,77.12.62,12.8,1.25,25.29,1.87,37.47v1.25l-20.92,12.49c-2.19,1.25-4.06,2.81-5,4.37v.62c-1.25,1.87-1.87,4.06-1.87,6.24s.62,4.68,2.19,6.87c1.25,1.56,2.81,3.12,5,4.37h0c1.87,1.25,4.06,1.87,6.24,2.5,2.5.62,4.68.94,7.18.94s4.68,0,7.18-.94c2.5-.62,4.68-1.56,6.56-2.5l28.41-16.55c2.19-1.25,4.06-2.81,5-4.37v-.62c1.25-1.87,1.87-4.06,1.87-6.24s0-3.12-.94-4.37c.31-1.25.62-2.5.62-3.75v-114.59l8.12-73.06,1.56.94,3.12,106.47c.94,25.6,1.87,51.21,3.12,76.5.62,12.8,1.25,25.6,1.56,37.78v1.87l-19.67,11.55c-2.19,1.25-4.06,2.81-5,4.37l-.31.62c-1.25,1.87-1.87,4.06-1.87,6.24s.62,4.68,2.19,6.87c1.25,1.56,2.81,3.12,5,4.68h.31c1.87,1.25,4.06,1.87,6.24,2.5,2.5.62,4.68.94,7.18.94s4.68,0,7.18-.94c2.5-.62,4.68-1.56,6.56-2.5l28.41-16.55h-.31c2.19-1.56,4.06-3.12,5-4.68v-.62c1.25-1.87,1.87-4.06,1.87-6.24s-.31-3.75-1.56-5.62v-117.09h1.25Z"/><path class="cls-5" d="M302.81,340.26h0c-4.06-2.5-5.93-5.62-5.31-8.74v-152.68c1.56-14.05,22.17-25.6,30.91-20.61l43.71,25.29,16.24,9.37c6.87,3.75,15.61,11.86,15.61,21.54v160.8h0c-.62,1.87,1.87,3.75-3.12,6.56-5,2.81-18.73,4.06-25.92,0l-72.44-41.84h.31v.31Z"/><path class="cls-4" d="M299.38,344.94c.31,0,.62.31.94.62l72.13,41.53c4.37,2.5,9.99,3.43,15.3,3.43s12.8-1.56,16.24-3.43c6.56-3.75,6.24-6.87,5.93-9.99v-1.56h0v-161.11c0-5.62-2.19-10.62-5.31-14.99-3.75-5-8.74-9.05-13.11-11.55l-59.95-34.66c-1.87-.94-3.75-1.56-5.93-1.87-5.31-.62-11.24,1.25-16.86,4.37-5.31,3.12-10.3,7.81-13.43,13.11-1.56,2.81-2.81,5.93-3.12,9.05v152.99c-.31,2.81,0,5.62,1.56,8.12,1.25,2.19,3.12,4.06,5.93,5.62h0l-.31.31ZM305.31,334.95c-.94-.62-1.56-1.25-1.87-1.87v-1.87h0v-152.37c0-1.56.94-3.12,1.56-4.68,2.19-3.43,5.62-6.56,9.37-8.74,3.43-2.19,7.18-3.12,9.99-2.81.62,0,1.25,0,1.56.31,19.98,11.55,39.97,23.42,59.95,34.66,3.12,1.87,6.87,4.68,9.68,8.43,1.87,2.5,3.12,5.31,3.12,8.43v158.61h0v.94c-.31,1.25-.31,2.19,0,2.81h0v.94-.94h0c-1.87.94-5.93,1.87-10.62,1.87s-7.18-.62-9.37-1.87l-72.13-41.53s-.62-.31-.94-.62h-.31v.31Z"/><g class="cls-9"><path class="cls-3" d="M335.6,590.05c55.89,0,101.48,16.24,101.48,36.22s-45.27,36.22-101.48,36.22-101.48-16.24-101.48-36.22,45.27-36.22,101.48-36.22Z"/></g><path class="cls-1" d="M361.2,163.23c-5.93,3.43-15.3,3.43-21.23,0-5.93-3.43-5.93-8.74,0-12.18s15.3-3.43,21.23,0c5.93,3.43,5.93,8.74,0,12.18Z"/><path class="cls-4" d="M358.39,158.23c-1.87,1.25-4.68,1.56-7.81,1.56s-5.62-.62-7.81-1.56c-.62-.31-1.25-.62-1.56-1.25,0-.31.62-.62,1.56-1.25h0c1.87-1.25,4.68-1.87,7.49-1.87s5.62.62,7.81,1.56h0c.62.31,1.25.62,1.56,1.25,0,.31-.62.62-1.25,1.25h0v.31ZM350.59,171.34c4.68,0,9.68-1.25,13.43-3.43h0c2.5-1.56,4.68-3.43,5.62-5.62h0c.94-1.87,1.56-3.75,1.56-5.62h0c0-1.87-.31-3.43-1.25-5.31h0c-1.25-2.5-3.12-4.37-5.62-5.93h0c-3.75-2.19-8.74-3.43-13.43-3.43s-9.37.94-13.11,3.12h-.31c-2.5,1.56-4.37,3.43-5.62,5.62h0c-.94,1.87-1.56,3.75-1.56,5.62s.62,3.75,1.56,5.62h0c1.25,2.19,3.12,4.06,5.62,5.62,3.75,2.19,8.74,3.43,13.43,3.43h0l-.31.31Z"/><polyline class="cls-2" points="407.41 295.3 413.39 478.33 362.14 464.31 339.34 339.17 290.64 418.32 298.55 295.3"/><path class="cls-6" d="M402.73,369.3l-18.11-5.93-9.05,27.79,4.68,5.31-4.68,25.29h12.8c13.43-30.91,11.55-25.29,14.67-52.45h-.31Z"/><path class="cls-4" d="M404.29,363.37l-17.8-5.93c-3.12-.94-6.24.62-7.18,3.75l-9.37,27.79c-.62,2.19,0,4.37,1.25,5.31h0l2.81,3.43-4.06,22.48c-.62,3.12,1.56,5.93,4.68,6.56h14.05c2.19,0,4.37-1.87,5.31-3.75l1.56-3.75c5.62-12.8,8.12-18.42,9.68-24.04,1.25-5,1.87-9.05,2.81-17.17,0-1.56.31-3.75.94-9.37,0-2.81-1.56-5.62-4.37-6.24h0l-.31.94ZM388.37,370.55l8.43,2.81v4.68c-1.25,7.18-1.56,10.93-2.81,14.99-1.25,5-3.75,10.3-9.37,22.17h0c0,.31-1.87.62-1.87.62l3.12-18.11c0-1.56,0-3.43-1.25-5l-2.5-2.81,6.56-19.36h-.31Z"/><path class="cls-5" d="M373.38,239.1l29.97-24.04c2.19,26.23,5.31,52.45,9.68,79.31.31,1.87.62,3.43,0,5l-10.3,61.82c0,1.25-.62,2.81-1.25,3.75-2.5,5-9.05,6.56-14.05,3.43-3.75-1.87-5.31-5.93-5-9.99l5.31-60.57-14.99-59.32h0l.62.62Z"/><path class="cls-4" d="M408.97,214.43c0-3.12-3.12-5.62-6.24-5.31-3.12.31-5.62,3.12-5.31,6.24.94,13.11,2.5,26.54,4.06,39.65,1.87,13.43,3.43,26.85,5.93,40.28h0v1.87c.62,0,.62.94,0,1.25h0l-10.3,62.13h0v1.56c-1.25,1.25-1.87,1.56-3.12,1.87-1.25.31-2.19,0-3.43-.31-1.25-.31-1.25-1.25-1.87-1.87l-.62-2.5h0l5.31-61.82-14.99-60.26c-.62-3.12-3.75-5-6.87-4.06-3.12.94-5,3.75-4.06,6.87l14.67,58.39-5.31,59.32h0c-.62,3.12,0,6.56,1.56,9.05,1.25,2.81,3.43,5.31,6.24,6.87,3.75,2.19,8.12,2.81,11.86,1.56,4.06-.94,7.49-3.43,9.68-7.18,2.19-3.75,1.25-1.87,1.25-2.81.31-.94.62-2.19.94-3.12h0l9.99-61.51h0v-4.06h0v-3.43h0c-2.19-13.74-4.06-26.54-5.62-39.65-1.56-13.11-3.12-26.23-4.06-39.34h0v.31h.31Z"/><path class="cls-2" d="M338.72,193.2l-22.48,24.35s-11.24-34.96,0-40.9c11.24-5.93,25.6-1.56,25.6-1.56"/><path class="cls-2" d="M338.72,193.2l6.58,37.25s30.57-16.54,36.82-27.05c6.24-10.51-9.99-19.88-9.99-19.88l-44.65-12.8"/><path class="cls-6" d="M365.57,156.98h-29.66l-2.19,28.41v.94c0,2.5,1.56,5,5,6.87,6.56,3.75,17.48,3.75,24.35,0,3.43-1.87,5-4.37,5-6.87s0-.62,0-.94l-2.19-28.41h-.31Z"/><path class="cls-4" d="M367.34,152.82h-35.28l-2.5,33.41v1.56h0c0,2.5.62,5,2.5,7.18h0c1.25,1.87,3.12,3.43,5.62,4.68,4.37,2.5,9.68,3.75,14.99,3.75s10.62-1.25,14.99-3.75h0c2.5-1.25,4.37-3.12,5.62-4.68h0c1.56-2.19,2.5-4.68,2.5-7.18h0v-1.56l-2.5-33.41h-5.93,0ZM342.99,164.68h19.05l1.87,23.11h0v.62h0c-.31.62-.94.94-1.87,1.56h0c-2.5,1.56-5.93,2.19-9.37,2.19s-6.87-.62-9.37-2.19c-.94-.62-1.56-.94-1.87-1.56h0c0-.62,1.87-23.73,1.87-23.73h-.31Z"/><path class="cls-6" d="M349.54,92.87h5.62c14.05,0,26.23,11.55,25.6,25.6l-1.25,31.54c-.62,14.05-11.55,25.6-25.6,25.6h-2.81c-14.05,0-24.98-11.55-25.6-25.6l-1.56-31.54c-.62-14.05,11.55-25.6,25.6-25.6h0Z"/><path class="cls-4" d="M347.78,96.72h6.56c5.31,0,9.99,2.5,13.43,5.93,3.43,3.43,5.62,8.12,5.62,13.11v.62l-1.25,31.54c0,5.62-2.5,10.93-6.24,14.36-3.43,3.43-8.43,5.62-13.74,5.62h-2.81c-5.31,0-9.99-2.19-13.74-5.62-3.75-3.75-5.93-8.74-6.24-14.36l-1.56-31.54v-.94c0-5,2.19-9.68,5.62-12.8,3.43-3.43,8.43-5.62,13.43-5.93h.94ZM353.4,85.17h-7.18c-8.12.31-15.61,3.75-20.92,9.37-5.62,5.62-9.05,12.8-9.05,21.23s0,.62,0,1.25l1.56,31.54c.31,8.74,4.06,16.55,9.68,22.17,5.62,5.62,13.11,9.05,21.86,9.05h2.81c8.74,0,16.24-3.43,21.86-9.05,5.62-5.62,9.37-13.43,9.68-22.17l1.25-31.54v-1.25c0-8.12-3.43-15.61-9.05-21.23-5.62-5.31-13.11-9.05-21.23-9.37h-1.25,0Z"/><line class="cls-8" x1="338.72" y1="193.2" x2="339.34" y2="339.17"/><rect class="cls-7" x="312.99" y="124.36" width="23.62" height="16.22" rx="5.19" ry="5.19"/><rect class="cls-7" x="340.83" y="124.36" width="23.62" height="16.22" rx="5.19" ry="5.19"/></svg>