<?xml version="1.0" encoding="UTF-8"?>
<svg width="178px" height="220px" viewBox="0 0 178 220" version="1.1" xmlns="http://www.w3.org/2000/svg" xmlns:xlink="http://www.w3.org/1999/xlink">
    <title>Group 43</title>
    <defs>
        <polygon id="path-1" points="0 0 76.4511782 0 76.4511782 152.823103 0 152.823103"></polygon>
        <polygon id="path-3" points="0 0 30.5443444 0 30.5443444 37.6457751 0 37.6457751"></polygon>
    </defs>
    <g id="Illustraties" stroke="none" stroke-width="1" fill="none" fill-rule="evenodd">
        <g transform="translate(-216, -265)" id="Group-43">
            <g transform="translate(216, 265)">
                <path d="M175.497661,148.097438 L144.614424,15.571184 L41.9839226,72.3984225 C41.9839226,72.3984225 74.9862233,215.254205 73.0578752,217.152886 C72.7817915,217.423521 72.4839116,217.654196 72.1593921,217.839463 C105.878542,198.244177 139.591637,178.652523 173.311392,159.057842 C173.632885,158.870759 173.933792,158.642506 174.209875,158.371871 C176.138224,156.472584 176.59352,152.8284 175.497661,148.097438" id="Fill-1" fill="#3D68EC"></path>
                <path d="M43.3689428,73.0153728 C44.6942659,78.7646958 52.2024119,111.377089 59.4259979,143.800582 C64.0776458,164.680021 67.7030614,181.398224 70.2017404,193.488997 C72.8935569,206.513975 73.9482453,212.430401 74.236438,215.231804 L172.702676,158.010419 C172.940617,157.872377 173.16221,157.702852 173.363219,157.506687 C174.951306,155.942213 175.300043,152.612255 174.318008,148.372311 L143.79925,17.4068988 L43.3689428,73.0153728 Z M72.1603608,219.050357 C71.7407862,219.050357 71.3333205,218.833001 71.1093052,218.443094 C70.7775203,217.865497 70.9742905,217.127458 71.5506759,216.792645 L71.6081933,216.759346 C71.7195956,216.692747 71.828576,216.617671 71.9357401,216.531698 C71.9072841,209.737374 53.4260199,127.307606 40.8042701,72.6708736 C40.6825752,72.1441349 40.9241485,71.6004436 41.3970025,71.3382852 L144.028109,14.5116521 C144.359894,14.3282017 144.758884,14.3106438 145.105805,14.4644272 C145.452726,14.6188162 145.707619,14.9269886 145.794198,15.2963112 L176.677434,147.822566 L176.677434,147.824382 C177.871376,152.978551 177.296807,157.031412 175.059681,159.234633 C174.71276,159.574288 174.330117,159.865508 173.919624,160.10466 L72.829985,218.849954 C72.8057672,218.864484 72.7821547,218.87841 72.7579369,218.89173 C72.5690374,218.999499 72.3631855,219.050357 72.1603608,219.050357 L72.1603608,219.050357 Z" id="Fill-3" fill="#000000"></path>
                <polygon id="Fill-5" fill="#3D68EC" points="33.6540642 68.6903635 134.806064 9.90753176 144.614303 15.5714868 43.4623027 74.3543185"></polygon>
                <path d="M36.0698576,68.6867914 L43.4605469,72.9551914 L142.198631,15.5745745 L134.807941,11.3073854 L36.0698576,68.6867914 Z M43.4623632,75.5652727 C43.2528786,75.5652727 43.0446049,75.5113879 42.8569164,75.4036184 L33.0486779,69.7390579 C32.6745118,69.5229134 32.4432299,69.123924 32.4432299,68.6922404 C32.4432299,68.2599513 32.67209,67.8603564 33.0456507,67.643001 L134.197651,8.86077475 C134.572422,8.641603 135.035589,8.641603 135.411572,8.85895841 L145.21981,14.522308 C145.593976,14.7390579 145.825258,15.1380474 145.825258,15.569731 C145.825258,16.0014145 145.596398,16.4016149 145.222837,16.6183649 L44.0708373,75.401802 C43.8825433,75.5107825 43.6724533,75.5652727 43.4623632,75.5652727 L43.4623632,75.5652727 Z" id="Fill-7" fill="#000000"></path>
                <path d="M74.3456606,206.879241 C75.4415193,211.612019 74.9862233,215.254387 73.0578752,217.153068 C71.1295271,219.045089 68.016925,218.905231 64.2910053,216.755289 L12.0875641,186.61433 C8.36164439,184.462572 5.258124,181.014553 3.34793928,176.907807 C1.43472733,172.790163 1.00062196,168.633165 2.12130402,165.182118 L33.6541853,68.6902424 L43.4624238,74.3548028 L74.3456606,206.879241 Z" id="Fill-9" fill="#000000"></path>
                <g id="Group-13" transform="translate(0, 67.1769)">
                    <mask id="mask-2" fill="white">
                        <use xlink:href="#path-1"></use>
                    </mask>
                    <g id="Clip-12"></g>
                    <path d="M34.5130721,3.75725275 L3.55960349,98.4745641 C2.55940534,101.556288 2.97110918,105.328828 4.72085049,109.09289 C6.50086414,112.921736 9.38581823,116.129999 12.8441305,118.126157 L65.0481771,148.267721 C66.8330343,149.297587 70.109107,150.748237 71.9974957,148.896175 C73.5099018,147.407382 73.8289723,144.180955 72.8711554,140.045754 L42.1374639,8.16006203 L34.5130721,3.75725275 Z M69.6326204,152.823103 C68.0251591,152.823103 66.0114429,152.318766 63.53456,150.889306 L11.3305134,120.747742 C7.33819709,118.442806 4.01611039,114.756845 1.97575461,110.369778 C-0.0972953039,105.90824 -0.55682944,101.351042 0.681309306,97.5373325 L32.2154015,1.04364011 C32.3564706,0.609534739 32.6864391,0.263219158 33.1126737,0.0997485163 C33.5383028,-0.0631166782 34.0160003,-0.0249735286 34.4107516,0.202674476 L44.2189901,5.86662947 C44.5816528,6.07611407 44.8413894,6.42606234 44.9364446,6.83413349 L75.8196814,139.359177 C75.8196814,139.359782 75.8202869,139.360388 75.8202869,139.360993 C77.0566093,144.699218 76.4687204,148.742997 74.1195868,151.054593 C73.2937573,151.865286 71.8485557,152.823103 69.6326204,152.823103 L69.6326204,152.823103 Z" id="Fill-11" fill="#000000" mask="url(#mask-2)"></path>
                </g>
                <polygon id="Fill-14" fill="#FFFFFF" points="52.3965181 76.5508795 141.025456 25.0455186 169.919195 149.051925 81.2932839 200.558497"></polygon>
                <path d="M54.1245239,77.2972744 L82.3026243,198.221351 L168.190705,148.305288 L140.015632,27.3830277 L54.1245239,77.2972744 Z M81.2933445,202.071993 C81.0893089,202.071993 80.8852733,202.030823 80.6933467,201.947877 C80.2525814,201.757161 79.9280619,201.369675 79.8190815,200.901664 L50.9223157,76.8946523 C50.7715594,76.2474296 51.0603575,75.5765945 51.6361375,75.2423879 L140.26447,23.7370269 C140.679807,23.4954536 141.184749,23.4663922 141.624909,23.6558971 C142.065674,23.8466128 142.390194,24.2340988 142.499174,24.7021092 L171.392913,148.70791 C171.543669,149.355739 171.254871,150.025968 170.679697,150.360175 L82.0537857,201.866747 C81.8194778,202.003578 81.5573193,202.071993 81.2933445,202.071993 L81.2933445,202.071993 Z" id="Fill-16" fill="#000000"></path>
                <polygon id="Fill-18" fill="#DD784B" points="141.025154 25.0457608 52.3962154 76.5511217 59.5992162 107.457971 148.228154 55.9532155"></polygon>
                <path d="M54.1245239,77.2972744 L60.6088593,105.121188 L146.499967,55.2069417 L140.015632,27.3830277 L54.1245239,77.2972744 Z M59.5995795,108.97183 C59.3955439,108.97183 59.1915083,108.93066 58.9995817,108.847714 C58.5588164,108.657603 58.2342969,108.269512 58.1253165,107.802107 L50.9223157,76.8946523 C50.770954,76.2474296 51.0603575,75.5765945 51.6361375,75.2423879 L140.26447,23.7370269 C140.679807,23.4954536 141.184749,23.4663922 141.624909,23.6558971 C142.065674,23.8466128 142.390194,24.2340988 142.499174,24.7021092 L149.702175,55.6095639 C149.853537,56.2567865 149.564133,56.9270161 148.988959,57.2612228 L60.3600207,108.767189 C60.1257128,108.903415 59.8635543,108.97183 59.5995795,108.97183 L59.5995795,108.97183 Z" id="Fill-20" fill="#000000"></path>
                <path d="M55.8947293,43.5185487 C52.1258229,41.3425728 48.7068647,41.1445917 46.2348253,42.5801061 L45.2721649,43.1401444 C45.2812466,43.1353009 45.2909337,43.1322736 45.29941,43.1268246 C42.8461395,44.5375157 41.3185971,47.5484027 41.3064255,51.8325444 C41.2974065,55.2484754 42.2752031,59.0537086 43.9819577,62.6894168 L45.6426983,61.72494 C44.115156,58.4095132 43.2408908,54.9524119 43.2499725,51.8367825 C43.2590542,48.1556659 44.4826622,45.5001761 46.4691332,44.084036 C48.7129191,43.0426675 51.6765813,43.3145131 54.9290416,45.1920037 C61.8741221,49.2024834 67.5132538,58.9653134 67.4890359,66.9475243 C67.4763215,71.5295458 65.5358645,74.7789789 62.2991458,75.6423461 L62.8731094,76.8774576 C63.6444486,76.6697893 64.3334471,76.3192356 64.9625063,75.8736267 C64.8014575,75.9868453 64.6494903,76.1121728 64.4793598,76.2108606 L65.4420202,75.6514278 C67.9534136,74.1929064 69.4167786,71.0796988 69.4289634,66.9517624 C69.4537108,58.3586557 63.3828956,47.841439 55.8947293,43.5185487" id="Fill-22" fill="#000000"></path>
                <path d="M62.873291,78.0883512 C62.4113351,78.0883512 61.9778351,77.8237709 61.7756159,77.3878492 L61.2010469,76.1527377 C61.0502906,75.8282182 61.0502906,75.4534466 61.2022578,75.1289271 C61.3536195,74.8050131 61.6412067,74.5646507 61.9869168,74.4720173 C64.6635972,73.758801 66.2674259,70.9440787 66.2777185,66.944497 C66.3007254,59.3479558 60.938283,50.0604016 54.3237764,46.2406376 C51.6053202,44.6713194 49.0388312,44.2820171 47.0808161,45.1363026 C45.397674,46.3950265 44.4689186,48.769589 44.4610478,51.8398098 C44.4519661,54.7156822 45.2414687,57.9590608 46.7423714,61.2187865 C47.0039244,61.7860901 46.7914126,62.459347 46.2507486,62.772363 L44.5900079,63.7362343 C44.2951553,63.9063649 43.9452071,63.9457189 43.6206876,63.8452148 C43.2967735,63.7434997 43.0303769,63.5110081 42.8856751,63.2034411 C41.0505658,59.2952819 40.0854836,55.3616939 40.0956947,51.8289117 C40.1078851,47.2880606 41.7074756,43.8497281 44.6015114,42.13147 C44.6214912,42.1187556 44.6426818,42.1054358 44.663267,42.0939323 L45.6259274,41.533894 C48.5998822,39.8059488 52.461422,40.1377336 56.5003578,42.4699148 C64.3227307,46.9853372 70.6653916,57.9699588 70.640039,66.9553951 C70.626643,71.4617358 68.9537934,75.0126814 66.0500705,76.6982453 L65.0892263,77.2576782 L65.0886209,77.2576782 C65.0226272,77.2958213 64.9548172,77.3273046 64.8845853,77.3521279 C64.3360505,77.6578785 63.7681414,77.8909755 63.1881233,78.0471808 C63.083381,78.0750314 62.9774278,78.0883512 62.873291,78.0883512" id="Fill-24" fill="#000000"></path>
                <path d="M79.1770051,30.0379725 C75.4087041,27.8619967 71.9891405,27.6634101 69.5171011,29.09953 L68.5544407,29.6589628 C68.5635224,29.6529083 68.5732095,29.6516975 68.5816858,29.645643 C66.1284153,31.0563341 64.6039002,34.0678266 64.5917283,38.3507574 C64.5827095,41.7672938 65.5574789,45.5719216 67.2642335,49.2088406 L68.9249741,48.2443638 C67.4010645,44.9283316 66.5231666,41.4718357 66.5322483,38.35439 C66.54133,34.6738788 67.7679653,32.0196 69.751409,30.6028544 C71.9982222,29.5614859 74.9588571,29.8339369 78.2113175,31.7114275 C85.1594252,35.7213018 90.7955296,45.4841318 90.7713117,53.4669481 C90.7585973,58.0489696 88.8187457,61.2977973 85.5814216,62.1617699 L86.1553852,63.396276 C86.9267244,63.1892131 87.6187501,62.838054 88.2447821,62.3924451 C88.0867605,62.5062691 87.9317661,62.6315966 87.7616356,62.7302844 L88.7273233,62.1690352 C91.2356894,60.7117248 92.7020816,57.5979118 92.7148513,53.4711862 C92.7359867,44.8774741 86.6651714,34.3608628 79.1770051,30.0379725" id="Fill-26" fill="#000000"></path>
                <path d="M86.1552035,64.607109 C85.6932476,64.607109 85.2597477,64.3425288 85.0575285,63.9072125 L84.4829594,62.6727065 C84.3322032,62.348187 84.3322032,61.9728099 84.4841703,61.6488959 C84.635532,61.3243764 84.9231193,61.084014 85.2688294,60.9913806 C87.9449043,60.2775588 89.5493384,57.4628366 89.5602365,53.4632549 C89.5832434,45.8648973 84.220801,36.5779485 77.605689,32.7600009 C74.8890491,31.1906827 72.32256,30.7995641 70.3639396,31.6550604 C68.6807974,32.9168116 67.7508311,35.2907686 67.7429603,38.3579622 C67.734484,41.228991 68.5239867,44.4729751 70.0248894,47.7393606 C70.2858369,48.3060589 70.0727197,48.9787103 69.5326611,49.2917263 L67.8719205,50.2555976 C67.5776733,50.4257282 67.2271196,50.4656877 66.9026001,50.3645781 C66.5786861,50.262863 66.3122895,50.0303714 66.1675877,49.7228044 C64.3355056,45.8176724 63.3710288,41.8846899 63.3806437,38.348275 C63.3934304,33.8043966 64.9924154,30.3660642 67.8846349,28.6502279 C67.9040092,28.6375135 67.9251998,28.6247991 67.9463904,28.6126902 L67.9463904,28.6120847 L68.9090509,28.0526519 C71.8830057,26.3259175 75.7451509,26.6583078 79.7828758,28.9892781 C87.6034323,33.504095 93.9479096,44.4881112 93.9255672,53.4741529 C93.9121882,57.9780718 92.2393386,61.528412 89.3356157,63.2163977 L88.3747716,63.7746197 C88.3729552,63.7758306 88.3705335,63.7770415 88.3687171,63.7782524 C88.3051452,63.8151846 88.2379406,63.8460624 88.170736,63.8702803 C87.6222012,64.1760309 87.0524757,64.4091279 86.4694304,64.5659387 C86.3646881,64.5937892 86.2587349,64.607109 86.1552035,64.607109" id="Fill-28" fill="#000000"></path>
                <path d="M102.462187,16.5573964 C98.6938861,14.3814205 95.2743224,14.1828339 92.8028885,15.6189538 L91.8396226,16.1783866 C91.8493098,16.1729376 91.8583915,16.1705158 91.8674732,16.1650668 C89.4135972,17.5763634 87.8860549,20.5872504 87.8768621,24.8713921 C87.8648643,28.2867176 88.8426609,32.0925563 90.5494155,35.7282645 L92.2101561,34.7631822 C90.6832192,31.44715 89.8083486,27.9912595 89.8174303,24.8750248 C89.826512,21.1939081 91.05012,18.5390238 93.036591,17.1222782 C95.2803769,16.0803043 98.2446445,16.3533608 101.496499,18.2308514 C108.44158,22.2413311 114.080712,32.0041611 114.056494,39.9863719 C114.044385,44.5683935 112.103928,47.8178266 108.866604,48.6811937 L109.43754,49.9163052 C110.211906,49.708637 110.90151,49.3580833 111.529964,48.9124744 C111.368915,49.025693 111.216948,49.1510205 111.046818,49.2497083 L112.009478,48.6890645 C114.520871,47.231754 115.984842,44.1173356 115.997023,39.9906101 C116.021169,31.3975034 109.950353,20.8796812 102.462187,16.5573964" id="Fill-30" fill="#000000"></path>
                <path d="M109.437722,51.1270172 C108.974555,51.1270172 108.541055,50.8612261 108.338836,50.4246989 L107.767294,49.1895874 C107.617143,48.8650679 107.618354,48.4909018 107.770321,48.1663823 C107.922288,47.8430737 108.20927,47.6033167 108.554375,47.5106834 C111.231055,46.797467 112.834884,43.9827448 112.845782,39.9825576 C112.868789,32.3866218 107.506346,23.0990676 100.891234,19.2793036 C98.1721726,17.7099855 95.6056835,17.3182614 93.6488794,18.1743632 C91.9657372,19.4336926 91.0351655,21.808255 91.0285055,24.8778704 C91.0200293,27.7543482 91.8095319,30.9977268 93.3098292,34.2562416 C93.5713822,34.8229398 93.3582649,35.4961967 92.8188118,35.8098181 L91.1580712,36.7749004 C90.863824,36.9450309 90.5126648,36.984385 90.1881454,36.8838808 C89.8642313,36.7827712 89.5972293,36.5496742 89.4531329,36.2421072 C87.6174182,32.3327371 86.6535468,28.3991491 86.666137,24.8669723 C86.6753429,20.3273321 88.2737225,16.8883941 91.1695746,15.1701361 C91.1853163,15.1598435 91.2010579,15.1495509 91.2167995,15.1404692 C91.2216431,15.1374419 91.2264866,15.1344147 91.2319357,15.1313875 L92.1945961,14.5719546 C95.1667346,12.8440094 99.0288798,13.1770051 103.067816,15.5085808 C110.889583,20.0233978 117.232849,31.007414 117.207497,39.9940611 C117.194706,44.5004018 115.521857,48.0513474 112.617528,49.7363059 L111.66516,50.2902897 C111.661528,50.2927115 111.65729,50.2951333 111.653051,50.2975551 C111.591901,50.332671 111.527724,50.3629434 111.462941,50.3865558 C110.910774,50.6965445 110.344681,50.9272198 109.750738,51.0858469 C109.646601,51.1143029 109.541253,51.1270172 109.437722,51.1270172" id="Fill-32" fill="#000000"></path>
                <path d="M125.744584,3.07682019 C121.97931,0.900844323 118.556719,0.702863213 116.08468,2.13837762 L115.12202,2.69781048 C115.131101,2.69236146 115.140183,2.69054512 115.149265,2.6850961 C112.695994,4.09518174 111.171479,7.10667423 111.159307,11.389605 C111.150288,14.8061414 112.128085,18.6107692 113.831812,22.2476883 L115.492553,21.2826061 C113.968038,17.9671793 113.090745,14.5106834 113.099827,11.3944486 C113.111936,7.71333194 114.335544,5.05844763 116.318988,3.64170208 C118.565801,2.5997281 121.526436,2.87278462 124.778896,4.74966976 C131.727004,8.76014949 137.363108,18.5229795 137.341312,26.5057958 C137.326176,31.0878173 135.385719,34.3360395 132.149,35.2006176 L132.722964,36.4351236 C133.494303,36.2280608 134.186329,35.8769017 134.812361,35.4312928 C134.654339,35.5445113 134.499345,35.6704443 134.329214,35.7691321 L135.294902,35.2084884 C137.803268,33.7505724 139.269661,30.6367594 139.281845,26.5100339 C139.306593,17.9163217 133.23275,7.39971049 125.744584,3.07682019" id="Fill-34" fill="#000000"></path>
                <g id="Group-38" transform="translate(109.9486, 0)">
                    <mask id="mask-4" fill="white">
                        <use xlink:href="#path-3"></use>
                    </mask>
                    <g id="Clip-37"></g>
                    <path d="M22.7739637,37.6457751 C22.3120078,37.6457751 21.8785079,37.3805894 21.6762886,36.9452731 L21.102325,35.710767 C20.9515688,35.3862476 20.9515688,35.0108705 21.1035359,34.6869565 C21.2548976,34.3630424 21.5424849,34.12268 21.888195,34.0300467 C24.5636645,33.3168303 26.168704,30.5015026 26.1820238,26.5013155 C26.2020036,18.9029579 20.8383502,9.61540367 14.2250546,5.79866692 C11.5084147,4.22995421 8.94132021,3.83944101 6.98269975,4.69372647 C5.30197938,5.9536613 4.37201306,8.32882918 4.36232591,11.3978391 C4.35324421,14.2688679 5.14274686,17.5116411 6.64425498,20.7762103 C6.90520256,21.3429086 6.69208527,22.01556 6.15263216,22.3291814 L4.49128608,23.2948691 C4.19703893,23.4649997 3.84587978,23.5049592 3.52136028,23.4038495 C3.19684078,23.3021345 2.93044418,23.0690374 2.78574239,22.7614705 C0.953660317,18.8484677 -0.01021102,14.9154851 0,11.3863356 C0.0121905124,6.84790625 1.60754288,3.41199555 4.49552421,1.69434293 C4.51792574,1.67920675 4.54153817,1.66467603 4.5651506,1.65075075 L5.52781104,1.09131789 C8.50176582,-0.636627331 12.3645165,-0.304842474 16.4016359,2.02794412 C24.2246143,6.5445774 30.569697,17.5279882 30.5443444,26.5134244 C30.5315538,31.0173433 28.8587042,34.5676835 25.9543758,36.2556692 L24.9923208,36.8138912 C24.99111,36.815102 24.9892936,36.8157075 24.9874773,36.8169184 C24.9239054,36.8538506 24.8567008,36.8847284 24.7894962,36.9089463 C24.2409613,37.2146969 23.6712359,37.447794 23.0881906,37.6046047 C22.9834483,37.6324553 22.8774951,37.6457751 22.7739637,37.6457751" id="Fill-36" fill="#000000" mask="url(#mask-4)"></path>
                </g>
                <path d="M116.148615,131.391163 L117.460618,135.560269 L98.8818773,146.286971 L104.909706,135.258152 C108.007172,129.590564 112.902209,122.923989 110.661451,115.806962 C108.739157,109.687711 102.893568,107.845336 95.7026761,111.99749 C88.5814106,116.10908 85.3168413,123.964752 87.5370148,131.026078 C88.9701074,135.58812 92.5688833,136.993968 95.3775511,135.371976 C98.1898516,133.749983 99.8263744,129.585115 98.6057936,125.695724 C97.4669481,122.075152 94.0171121,120.715924 91.445174,122.202296 C89.3830222,123.391999 87.7464994,126.217014 87.4334834,128.729618 C86.5471093,123.055976 89.1735376,117.766793 92.5749378,115.801513 C96.3038848,113.649755 100.066131,117.913311 102.188828,124.671914 C104.356933,131.564926 103.646744,136.452093 100.93192,141.488805 L94.2847196,153.86777 L96.6441459,161.377733 L121.517718,147.017745 L116.534285,131.168964 L116.148615,131.391163 Z" id="Fill-39" fill="#000000"></path>
                <path d="M138.064398,137.530515 C135.941701,138.754123 133.403062,133.627199 130.245052,123.584652 C127.685223,115.436549 127.518119,112.617589 129.598435,111.418199 C131.280366,110.445851 132.804881,112.213756 135.962892,122.256302 C138.76611,131.177561 140.184067,136.305696 138.064398,137.530515 M145.929152,116.502136 C142.959435,107.054743 136.10275,106.072103 130.858369,109.101154 C128.353031,110.546355 127.596827,112.532826 127.867462,115.434733 C125.735684,105.238403 126.959292,94.5062526 133.9074,90.4951674 L133.75846,90.0247353 C120.642665,97.5970586 115.516953,114.15724 119.762346,127.662942 C123.433775,139.342011 130.682184,142.38862 138.091643,138.110533 C145.488992,133.8385 148.550131,124.84156 145.929152,116.502136" id="Fill-41" fill="#000000"></path>
            </g>
        </g>
    </g>
</svg>