<?xml version="1.0" encoding="UTF-8"?><svg id="Layer_2" xmlns="http://www.w3.org/2000/svg" viewBox="0 0 292.84 553.25"><defs><style>.cls-1,.cls-2,.cls-3,.cls-4{stroke-width:0px;}.cls-2{fill:#f4d9dc;}.cls-3{fill:#05b173;}.cls-4{fill:#dd784b;}</style></defs><g id="Layer_1-2"><path class="cls-2" d="M38.24,415.99s1.24,11.31-2.61,19.83c-3.86,8.52.96,16.87,15.11,13.02l15.27-8.68s-4.45-11.3-4.64-24.62c-.19-13.31-10.31-10.9-10.31-10.9l-12.82,11.35Z"/><path class="cls-1" d="M44.15,451.56c-5.26,0-8-2.1-9.32-3.66-2.73-3.2-3.05-8-.86-12.83,3.61-7.95,2.48-18.78,2.47-18.89-.07-.59.16-1.17.6-1.56l12.81-11.35c.22-.2.5-.34.79-.41.18-.04,4.65-1.07,8.28,1.76,2.76,2.15,4.2,5.81,4.27,10.89.18,12.8,4.47,23.87,4.51,23.98.33.84,0,1.8-.79,2.24l-15.27,8.68c-2.93.82-5.4,1.14-7.48,1.14ZM40.13,416.74c.22,2.99.55,12.33-2.85,19.83-1.6,3.52-1.48,6.88.31,8.98,2.19,2.57,6.82,3.14,12.66,1.54l13.52-7.74c-1.22-3.54-4.07-12.95-4.22-23.78-.06-3.9-1.01-6.61-2.84-8.05-1.74-1.37-3.95-1.28-4.84-1.17l-11.74,10.4Z"/><path class="cls-2" d="M134.42,479.48s1.15,10.45-2.41,18.32c-3.56,7.87,1.45,17.76,14.51,14.2l13.55-10.19s-4.11-10.44-4.28-22.74c-.17-12.29-9.52-10.07-9.52-10.07l-11.84,10.48Z"/><path class="cls-1" d="M141.32,514.58c-5.16,0-8.09-2.35-9.53-4.04-3-3.51-3.56-8.81-1.44-13.49,3.32-7.33,2.27-17.27,2.26-17.37-.07-.59.16-1.17.6-1.56l11.83-10.48c.22-.2.5-.34.79-.41.18-.04,4.36-1,7.77,1.65,2.58,2.01,3.93,5.43,3.99,10.16.17,11.83,4.11,22,4.16,22.1.3.76.05,1.63-.6,2.12l-13.54,10.19c-.18.14-.4.24-.61.3-2.14.58-4.02.82-5.67.82ZM136.31,480.23c.2,2.85.48,11.41-2.64,18.31-1.54,3.41-1.19,7.19.89,9.63,2.27,2.66,6.22,3.42,11.16,2.16l12.19-9.17c-1.12-3.22-3.79-11.98-3.93-22.06-.05-3.56-.92-6.02-2.57-7.33-1.55-1.22-3.5-1.16-4.33-1.06l-10.76,9.53Z"/><path class="cls-3" d="M40.32,431.04c-2.69-.79-5.55.55-6.84,3.04-2.95,5.7-11.2,19.85-23.24,26.22-15.28,8.08-6.49,17.24.86,18.85,4.51.99,12.91-2.18,19.47-5.16,4.54-2.07,8.64-4.92,12.5-8.08,2.2-1.8,5.54-3.76,10.07-4.39,6.97-.96,14.84-5.31,18.09-7.27.96-.58,1.5-1.63,1.42-2.75-.37-5.29-1.65-20.54-4.23-22.5-3.12-2.38-6.69-2.35-7.25,4.06-.56,6.41-10.81,9.22-12.09,4.98-.81-2.69-4.93-5.87-8.76-7Z"/><path class="cls-1" d="M12.96,481.14c-.83,0-1.58-.07-2.26-.22-4.65-1.01-9.95-4.79-10.63-9.79-.44-3.2.82-7.96,9.3-12.44,11.58-6.12,19.58-19.84,22.48-25.45,1.72-3.31,5.52-4.96,8.96-3.95h0c3.97,1.16,8.91,4.63,9.99,8.22.21.67,1.41.79,2.31.69,2.8-.29,5.98-2.4,6.24-5.31.31-3.57,1.52-5.85,3.59-6.76,1.91-.84,4.23-.35,6.57,1.42.86.65,3.46,2.64,4.93,23.82.14,1.8-.74,3.51-2.29,4.44-3.2,1.92-11.43,6.5-18.77,7.51-3.42.47-6.5,1.81-9.17,3.99-4.61,3.77-8.7,6.41-12.9,8.33-8.03,3.66-14.18,5.51-18.35,5.51ZM38.74,432.63c-1.48,0-2.91.86-3.65,2.28-3.06,5.91-11.53,20.39-24.01,26.99-5.17,2.73-7.81,5.84-7.41,8.74.44,3.24,4.32,5.96,7.82,6.73,3.15.69,9.67-1.1,18.33-5.04,3.9-1.78,7.74-4.27,12.1-7.83,3.15-2.57,6.94-4.23,10.97-4.78,6.68-.92,14.39-5.22,17.4-7.03.37-.22.57-.62.54-1.06-.87-12.53-2.44-20.15-3.53-21.2-1.15-.87-2.25-1.25-2.87-.97-.73.32-1.27,1.73-1.45,3.76-.42,4.81-5.15,8.16-9.48,8.6-3.15.33-5.45-.93-6.16-3.25-.54-1.81-3.95-4.73-7.53-5.78-.35-.1-.71-.15-1.07-.15Z"/><path class="cls-1" d="M61.14,433.05c-.11,1.22-.57,2.3-1.25,3.24h0c1.71,8.18-.26,15.61-3.15,16.25-2.89.64-12.21,2.57-17.36,6.11-5.14,3.54-19.93,13.5-27.32,14.14-7.32.64-8.11-2.66-9.18-4.47-2.42,5.65,2.97,9.69,8.18,10.83,4.51.99,12.91-2.18,19.47-5.16,4.54-2.07,8.64-4.92,12.5-8.08,2.2-1.8,5.54-3.76,10.07-4.39,6.97-.96,14.84-5.31,18.09-7.27.97-.58,1.5-1.63,1.42-2.75-.37-5.29-1.65-20.54-4.23-22.5-3.12-2.38-6.69-2.35-7.25,4.06Z"/><path class="cls-1" d="M12.94,481.14c-.83,0-1.58-.07-2.26-.22-3.32-.73-7.5-2.76-9.32-6.29-1.12-2.18-1.17-4.61-.14-7.03.27-.63.87-1.05,1.55-1.1.74-.06,1.34.3,1.68.89l.39.72c.86,1.63,1.76,3.32,7.06,2.86,2.71-.24,9.75-2.35,26.45-13.83,5.19-3.57,14.16-5.54,17.55-6.28l.44-.1c1.3-.29,3.42-6.22,1.77-14.1-.1-.5.01-1.02.31-1.44.53-.73.83-1.51.91-2.33h0c.32-3.58,1.53-5.86,3.61-6.77,1.91-.84,4.24-.34,6.56,1.42.85.65,3.45,2.62,4.94,23.82.12,1.81-.75,3.51-2.29,4.44-3.2,1.92-11.43,6.5-18.78,7.51-3.42.47-6.5,1.81-9.17,3.99-4.6,3.77-8.7,6.41-12.89,8.33-8.03,3.66-14.19,5.51-18.36,5.51ZM4.9,473.5c1.19,1.76,3.69,3.24,6.56,3.87,3.15.69,9.68-1.1,18.33-5.04,3.9-1.78,7.74-4.27,12.09-7.83,3.15-2.57,6.94-4.23,10.97-4.78,6.69-.92,14.4-5.22,17.41-7.03.37-.22.57-.62.54-1.07-.93-13.11-2.48-20.18-3.53-21.2-1.14-.87-2.26-1.26-2.87-.97-.73.32-1.28,1.73-1.45,3.76-.11,1.22-.49,2.38-1.12,3.46,1.57,8.58-.55,16.72-4.69,17.65l-.45.1c-3.19.7-11.66,2.56-16.27,5.73-13.27,9.12-22.75,13.98-28.19,14.46-3.46.31-5.74-.19-7.32-1.1Z"/><path class="cls-1" d="M41.02,449.69c-.48,0-.96-.19-1.32-.57-4.65-4.94-10.74-5.8-10.8-5.81-.99-.13-1.69-1.05-1.55-2.04.13-.99,1-1.71,2.04-1.56.3.04,7.44,1.06,12.96,6.93.69.73.65,1.88-.08,2.57-.35.33-.8.49-1.25.49Z"/><path class="cls-1" d="M36.24,454.8c-.49,0-.96-.19-1.32-.57-4.61-4.89-10.74-5.81-10.81-5.81-.99-.14-1.68-1.05-1.55-2.05.14-.99,1.02-1.67,2.04-1.55.3.04,7.44,1.06,12.96,6.93.69.73.65,1.88-.08,2.57-.35.33-.8.49-1.25.49Z"/><path class="cls-4" d="M66,456.08c-.2,0-.41-.03-.61-.11-.95-.34-1.44-1.37-1.1-2.32,2.8-7.86-.48-17.38-.52-17.47-.33-.95.17-1.98,1.11-2.32.96-.31,1.98.17,2.32,1.11.15.44,3.74,10.84.51,19.89-.26.74-.96,1.21-1.71,1.21Z"/><path class="cls-3" d="M140.82,495.71c4.28,1.59,5.95,5.99,6.58,9.73.39,2.31,3.26,3.15,4.85,1.44,3.17-3.42,6.75-7.88,6.2-10.08-.96-3.85-1.74-7.84-1.74-7.84,0,0,4.01-4.53,7.72,3.19,3.71,7.72,1.63,16.63,1.63,20.34s-8.02,8.91-14.25,13.66c-6.23,4.75-11.57,14.31-19.39,21.54-7.66,7.07-29.44,4.73-21.28-11.89,8.16-16.63,10.69-18.85,11.87-24.2,1.19-5.34,4.99-20.82,11.03-20.87,0,0,.05,3.37-2.3,7.74,0,0,2.7-5.13,9.08-2.75Z"/><path class="cls-1" d="M121.3,553.25c-3.67,0-7.25-.92-9.81-2.83-2.61-1.95-6.35-6.55-1.99-15.44,3.51-7.13,5.95-11.59,7.74-14.85,2.31-4.2,3.36-6.12,3.99-8.93,3.28-14.75,7.58-22.25,12.78-22.3h.02c.99,0,1.8.8,1.82,1.78,0,.08.01,1.15-.35,2.83,1.65-.41,3.65-.37,5.95.49h0c4.1,1.52,6.77,5.38,7.73,11.14.09.55.52.73.7.78.19.06.65.14,1.03-.28,6.04-6.51,5.77-8.39,5.77-8.41-.98-3.9-1.76-7.93-1.76-7.93-.11-.56.05-1.13.42-1.55.21-.23,2.1-2.27,4.86-1.89,2.28.32,4.25,2.17,5.85,5.49,3.11,6.48,2.46,13.52,2.01,18.18-.11,1.18-.21,2.18-.21,2.95,0,4.02-5.48,8.07-11.83,12.76-1.06.79-2.12,1.57-3.13,2.34-3.07,2.34-6.03,6.07-9.17,10.02-3.07,3.86-6.24,7.85-10.1,11.41-3.01,2.79-7.74,4.24-12.34,4.24ZM131.61,494.08c-2.09,2.43-4.61,7.94-6.82,17.91-.74,3.32-1.95,5.52-4.35,9.9-1.77,3.23-4.2,7.65-7.67,14.7-1.68,3.43-2.89,8.1.89,10.92,4.37,3.27,13.38,2.67,17.51-1.16,3.65-3.37,6.73-7.25,9.71-11,3.29-4.13,6.39-8.04,9.82-10.65,1.02-.78,2.09-1.57,3.18-2.37,4.12-3.05,10.36-7.65,10.36-9.84,0-.86.1-1.97.22-3.29.4-4.26,1.01-10.69-1.68-16.26-.99-2.06-2.1-3.32-3.06-3.47-.37-.05-.73.06-1.02.22.3,1.43.86,4.09,1.51,6.67.42,1.69.05,4.55-6.63,11.76-1.21,1.31-3.02,1.8-4.74,1.29-1.7-.51-2.94-1.91-3.24-3.66-.51-3.08-1.87-7.01-5.41-8.34-4.68-1.75-6.65,1.53-6.86,1.91h0c-.47.89-1.57,1.21-2.45.74-.83-.44-1.18-1.44-.83-2.29h0s0,0,0-.01h0s.03-.09.06-.13h0s0,0,0,0h0s.02-.05.04-.07c.69-1.28,1.14-2.46,1.44-3.47Z"/><path class="cls-1" d="M156.71,488.96s.78,3.99,1.74,7.84c.03.11,0,.25,0,.37.25.68.51,1.36.68,2.06.31,1.25.45,2.54.47,3.83.09,6.5-3.21,12.58-8.3,16.63-5.67,4.51-14.55,12.34-20.41,21.25-8.87,13.48-19.48,6.49-19.48,6.49,0,3.5,15.62,5.23,21,.25,7.83-7.23,13.16-16.79,19.39-21.54,6.23-4.75,14.25-9.95,14.25-13.66s2.08-12.62-1.63-20.34c-3.71-7.72-7.72-3.19-7.72-3.19Z"/><path class="cls-1" d="M121.45,552.62c-3.36,0-6.59-.56-8.75-1.51-2.57-1.13-3.11-2.62-3.11-3.68,0-.67.37-1.28.95-1.6.6-.31,1.31-.28,1.86.08.36.23,9.25,5.76,16.97-5.98,5.86-8.89,14.55-16.69,20.8-21.67,4.85-3.85,7.7-9.53,7.62-15.19-.02-1.22-.16-2.36-.42-3.41-.15-.63-.39-1.25-.62-1.86-.06-.17-.1-.36-.11-.55-.93-3.91-1.71-7.95-1.71-7.95-.11-.56.05-1.13.42-1.55.21-.23,2.03-2.27,4.86-1.89,2.28.32,4.25,2.16,5.85,5.49,3.11,6.48,2.46,13.52,2.01,18.17-.11,1.18-.21,2.18-.21,2.95,0,4.02-5.47,8.06-11.8,12.74-1.08.79-2.14,1.58-3.16,2.36-3.07,2.34-6.03,6.07-9.17,10.02-3.07,3.86-6.24,7.85-10.1,11.41-2.76,2.56-7.6,3.6-12.19,3.6ZM160.27,496.83c.24.65.47,1.3.63,1.96.33,1.31.51,2.74.53,4.23.09,6.77-3.27,13.53-8.99,18.08-6.05,4.81-14.43,12.33-20.02,20.83-2.05,3.11-4.2,5.21-6.31,6.6,2.07-.4,3.91-1.11,5.07-2.19,3.65-3.37,6.73-7.25,9.72-11.01,3.28-4.13,6.38-8.03,9.81-10.65,1.03-.79,2.12-1.59,3.2-2.39,4.11-3.04,10.33-7.64,10.33-9.82,0-.86.1-1.97.22-3.29.4-4.26,1.01-10.68-1.68-16.26-.99-2.06-2.1-3.32-3.06-3.47-.37-.06-.73.06-1.02.22.3,1.43.86,4.08,1.51,6.68.02.1.05.3.05.47Z"/><path class="cls-1" d="M142.22,517.49c-.39,0-.78-.12-1.11-.38-6.28-4.85-17.64-5.81-17.76-5.83-1-.08-1.74-.95-1.66-1.95.08-1,.98-1.77,1.95-1.66.51.04,12.54,1.05,19.69,6.57.79.61.94,1.75.32,2.55-.35.46-.89.71-1.44.71Z"/><path class="cls-1" d="M138.47,524.14c-.39,0-.78-.12-1.11-.38-6.27-4.83-16.1-5.49-16.2-5.5-1-.06-1.76-.92-1.7-1.92.07-1,.92-1.78,1.92-1.7.45.03,11.04.72,18.21,6.24.79.61.94,1.75.32,2.55-.35.46-.89.71-1.44.71Z"/><path class="cls-1" d="M129.25,505.86c-.25,0-.5-.05-.73-.16-.92-.41-1.34-1.48-.93-2.4l2.77-6.25c.41-.92,1.49-1.33,2.39-.93.92.41,1.34,1.48.93,2.4l-2.77,6.25c-.3.68-.96,1.08-1.66,1.08Z"/><path class="cls-4" d="M161.79,516.35c-.18,0-.37-.03-.54-.09-.96-.3-1.49-1.32-1.19-2.28,2.01-6.37.62-15.23.6-15.32-.16-.99.51-1.92,1.5-2.08,1.04-.16,1.93.51,2.08,1.5.07.4,1.55,9.79-.72,16.99-.24.77-.96,1.27-1.73,1.27Z"/><path class="cls-1" d="M129.2,478.87s3.17-42.73-.37-81.63c-1.58-17.42-2.39-30.01-2.8-38.59-.46-9.51,2.25-18.87,7.73-26.66l25.67-36.5c.34-.48-.17-1.11-.71-.87-7.64,3.34-36.73,15.11-66.53,14.56l-25.04,2.78c-.46.05-.73.54-.51.95,1.64,3.04,6.8,14.28,4.9,32.75-2.25,21.86-7.23,39.05-7.96,68.3,0,0-14.46,12.54-29.25-.96,0,0,.96-69.43,0-97.07-.96-27.64-.64-34.07,20.89-47.25,21.54-13.18,70.72-18.32,93.54-18.64,22.82-.32,63.64,14.46,63.64,14.46l16.07,10.93s14.46,32.79-29.25,59.47c0,0-25.47,19.56-35.19,26.95-.28.21-.35.57-.17.88,1.42,2.34,7.03,13,6.75,35.17-.32,25.39-7.72,45-9.96,71.36l-.64,9s-12.17,9.95-30.81.63Z"/><path class="cls-1" d="M144.93,484.71c-4.69,0-10.27-1.08-16.53-4.21-.66-.33-1.06-1.02-1-1.76.03-.43,3.11-43.04-.37-81.33-1.35-14.83-2.29-27.84-2.81-38.67-.48-9.85,2.38-19.72,8.06-27.79l23.21-33.01c-11.46,4.63-36.98,13.61-63.33,13.04l-23.15,2.59c2.13,4.58,6.05,15.61,4.35,32.27-.82,7.91-1.96,15.07-3.18,22.65-2.12,13.23-4.31,26.9-4.77,45.51-.01.51-.24.99-.63,1.33-.15.14-15.87,13.43-31.66-.99-.38-.35-.6-.85-.59-1.37,0-.69.95-69.7,0-96.99-.98-28.16-.37-35.32,21.76-48.86,21.42-13.11,69.3-18.56,94.46-18.91.25,0,.51,0,.77,0,23,0,61.86,13.97,63.52,14.57l16.47,11.14c.28.19.5.46.64.77.15.34,14.59,34.55-29.96,61.75.01,0-24.02,18.46-34.23,26.23,2.1,3.86,6.76,14.76,6.5,35.24-.18,14.37-2.56,26.68-5.08,39.71-1.92,9.96-3.91,20.27-4.89,31.78l-.64,8.98c-.04.5-.27.96-.66,1.28-.36.3-6.35,5.05-16.23,5.05ZM131.1,477.77c14.54,6.77,24.66,1.16,27.16-.5l.59-8.15c1-11.73,3.01-22.13,4.95-32.18,2.48-12.87,4.83-25.02,5.01-39.07.27-21.96-5.36-32.35-6.49-34.21-.67-1.11-.41-2.48.62-3.27,9.72-7.38,35.18-26.94,35.18-26.94,39.27-23.98,30.33-52.88,28.87-56.84l-15.61-10.62h0c-.16,0-40.39-14.39-62.6-14.15-20.9.29-71.03,5.17-92.61,18.38-20.51,12.56-20.98,18.13-20.02,45.64.9,25.74.12,88.37.01,96.33,11.69,10.11,22.91,2.92,25.63.88.51-18.42,2.68-32,4.79-45.15,1.21-7.53,2.35-14.64,3.15-22.45,1.84-17.96-3.12-28.81-4.69-31.7-.39-.71-.4-1.58-.02-2.3.38-.73,1.11-1.22,1.93-1.32l25.03-2.78c29.48.54,57.97-10.9,66.01-14.41.99-.43,2.12-.17,2.81.67.69.84.74,2,.12,2.9l-25.68,36.51c-5.21,7.41-7.83,16.47-7.4,25.53.51,10.78,1.45,23.74,2.8,38.52,3.18,34.92.93,73.37.46,80.69Z"/><path class="cls-2" d="M157.79,142.35s-.44,1.25-1.15,3.4c-5.37,16.42-8.51,33.48-9.48,50.72l-.26,4.67c-.03.49-.35.9-.82,1.01-3.03.73-10.95,3.85-20.2,10.19-8.44,5.78-30.62,26.04-30.62,26.04l27.48,11.65,60.03-31.17,10.85-40.5-15.48-24.11-14.18-14.22-6.18,2.33Z"/><path class="cls-1" d="M122.74,251.84c-.24,0-.48-.05-.71-.14l-27.48-11.65c-.57-.24-.98-.76-1.08-1.37-.1-.61.11-1.23.57-1.65.91-.83,22.36-20.4,30.81-26.19,9.16-6.28,16.94-9.39,20.26-10.32l.24-4.16c1-17.61,4.22-34.83,9.57-51.18.72-2.18,1.16-3.44,1.16-3.44.18-.51.57-.91,1.08-1.1l6.18-2.33c.67-.24,1.42-.09,1.93.42l14.18,14.22,15.72,24.41c.27.43.35.96.22,1.45l-10.85,40.5c-.14.49-.47.91-.92,1.14l-60.03,31.17c-.27.14-.55.2-.84.2ZM98.58,237.82l24.08,10.2,58.56-30.41,10.43-38.96-15.04-23.43-13.1-13.09-4.29,1.61c-.2.58-.49,1.45-.86,2.57-5.26,16.05-8.42,32.96-9.39,50.26l-.27,4.67c-.07,1.3-.96,2.38-2.22,2.67-3.16.76-10.99,4.03-19.58,9.92-6.73,4.61-22.6,18.8-28.32,23.97Z"/><path class="cls-2" d="M173.28,153.28c-.96.8-10.67-5.63-17.87-13.34,0,0,13.47-41.95,33.83-43.31,20.36-1.36,7.78,20.3,7.78,20.3l-23.74,36.35Z"/><path class="cls-1" d="M173.23,155.06c-4.6,0-16.08-10.6-19.14-13.88-.45-.48-.6-1.17-.4-1.79.56-1.76,14.09-43.14,35.43-44.57,6.02-.43,10.11,1.06,12.17,4.37,4.09,6.58-1.99,17.44-2.7,18.66l-23.79,36.43c-.1.15-.22.29-.35.4-.32.26-.73.38-1.22.38ZM157.49,139.49c5.78,5.98,12.47,10.63,14.94,11.78l23.07-35.34c1.56-2.7,5.2-10.82,2.7-14.84-1.29-2.07-4.29-2.94-8.83-2.66-17.23,1.15-29.69,34.75-31.89,41.05Z"/><path class="cls-3" d="M191.45,98.08s-16.07,5.27-19.45,33.71c-3.38,28.45-16.71,88.99-30.46,109.24,0,0-7.23,11.57,12.78,18.32,20.01,6.75,33.73,8.45,52.95,24.27,19.04,15.67,29.58,21.78,33.19,2.25,3.62-19.53,17.28-65.81,25.47-83.41,8.2-17.6,12.29-78.86,12.29-78.86,0,0-10.45-15.8-38.57-26.98-18.75-7.45-48.22,1.45-48.22,1.45Z"/><path class="cls-1" d="M231.48,299.95c-5.97,0-13.86-5.46-25.36-14.92-15.09-12.41-26.49-15.9-40.94-20.32-3.62-1.11-7.4-2.27-11.44-3.63-7.98-2.69-12.9-6.51-14.63-11.34-1.85-5.19.77-9.49.89-9.67,13.8-20.32,26.99-81.42,30.19-108.49,3.47-29.26,19.99-35,20.68-35.23.02,0,.03,0,.04-.01,1.23-.37,30.3-8.98,49.41-1.4,28.33,11.25,38.98,27,39.42,27.66.22.33.32.73.3,1.12-.17,2.52-4.21,61.8-12.47,79.5-7.99,17.16-21.7,63.38-25.33,82.98-1.41,7.61-3.88,11.81-7.8,13.24-.94.34-1.93.51-2.97.51ZM192,99.8c-.87.3-15.05,5.66-18.2,32.2-3.25,27.38-16.68,89.3-30.76,110.05-.03.06-1.77,3-.49,6.51,1.34,3.66,5.6,6.79,12.35,9.07,4,1.35,7.75,2.5,11.34,3.6,14.24,4.36,26.54,8.12,42.18,20.99,9.73,8,19.68,15.71,24.78,13.81,2.55-.93,4.34-4.36,5.47-10.49,3.66-19.78,17.53-66.49,25.61-83.85,7.52-16.14,11.62-70.96,12.09-77.56-2-2.68-12.91-16.09-37.38-25.82-17.69-7.02-45.93,1.18-46.99,1.49Z"/><path class="cls-2" d="M219.96,95.43c-7.86,5.9-19.9,6.41-26.27,6.2-2.64-.09-5.08-1.56-6.29-3.91-16.35-31.57-6.16-59.53-6.16-59.53l42.2-4.28,9.48,13.76c2.63,3.82,3.61,8.56,2.57,13.08-1.02,4.41-.92,11.44,4.29,21.12,14.6,27.11,7.65,33.02-12.16,48.66-14.07,11.11-37.55,2.55-22.26-29.56l14.61-5.54Z"/><path class="cls-1" d="M214.87,136.96c-3.82,0-7.45-1.13-10.33-3.42-3.47-2.77-10.32-11.12-2.18-30.37-3.34.33-6.41.34-8.74.27-3.33-.11-6.34-1.98-7.84-4.89-16.52-31.91-6.68-59.81-6.25-60.98.24-.66.83-1.11,1.53-1.18l42.2-4.29c.63-.09,1.3.23,1.68.78l9.48,13.76c2.94,4.28,3.98,9.57,2.84,14.51-.89,3.9-.91,10.51,4.12,19.85,15.48,28.75,6.67,35.7-12.64,50.94-4.2,3.32-9.17,5.01-13.86,5.01ZM206.59,102.6c-5.98,13-5.92,23.21.22,28.11,5.08,4.05,13.36,3.38,19.67-1.6,19.24-15.19,25.72-20.31,11.69-46.37-5.57-10.34-5.5-17.88-4.46-22.39.91-3.96.07-8.2-2.29-11.64l-8.87-12.88-39.94,4.06c-1.58,5.34-7.6,29.96,6.4,57,.9,1.74,2.71,2.86,4.74,2.93,2.88.09,6.92.04,11.15-.61.11-.03.23-.05.34-.05,4.77-.76,9.77-2.28,13.63-5.18.79-.59,1.93-.44,2.54.36.6.8.44,1.94-.37,2.54-4.19,3.14-9.43,4.84-14.46,5.72Z"/><path class="cls-1" d="M238.9,18.19c-17.46-14.86-44.05-2.09-49.53-5.21-4.56-2.61-2.79-8.65-2.07-10.59.11-.3-.12-.59-.44-.56-3.51.36-19.44,2.99-21.99,21.06-2.87,20.33,13.23,26.72,13.23,26.72,6.57,3.3,13.62,3.43,21.08,3.13,2.97-.12,5.98.44,8.54,1.96,2.33,1.39,4.72,3.69,5.87,7.47.61,2.02,2.4,3.44,4.5,3.29l6.83-.48,6.88-2.06c1.17,1.68,1.9,3.34,1.9,4.85v7.26s16.94-8.6,16.16-29.59c.78-10.16-1.2-18.94-10.95-27.24Z"/><path class="cls-1" d="M233.69,76.83c-.33,0-.66-.09-.95-.27-.54-.33-.86-.92-.86-1.55v-7.26c0-.76-.3-1.68-.88-2.72l-5.56,1.67-7.22.55c-2.87.2-5.48-1.68-6.36-4.57-.83-2.77-2.54-4.93-5.05-6.43-2.07-1.23-4.65-1.83-7.54-1.7-7.21.28-14.82.27-21.97-3.32-.03,0-17.24-7.09-14.21-28.59C165.83,3.13,183.22.37,186.69.01c.57-.1,1.61.35,2,.85.47.61.59,1.42.32,2.15-.55,1.48-2.08,6.47,1.27,8.39,1.2.68,5.52-.01,9.68-.7,11.01-1.79,27.65-4.51,40.12,6.1h0c9.08,7.73,12.54,16.33,11.58,28.76.83,21.69-16.42,30.69-17.15,31.07-.26.13-.54.2-.82.2ZM231.79,61.08c.59,0,1.15.28,1.49.78,1.48,2.12,2.22,4.11,2.22,5.89v3.96c4.5-3.27,13.09-11.47,12.53-26.22.87-11.49-2.11-18.95-10.31-25.93h0c-11.18-9.51-26.83-6.97-37.18-5.28-5.87.96-9.75,1.59-12.07.26-4.5-2.57-4.24-7.5-3.52-10.61-5.54,1.06-16.27,4.95-18.28,19.2-2.64,18.7,11.95,24.72,12.1,24.78,6.53,3.27,13.63,3.27,20.34,3,3.52-.18,6.86.62,9.54,2.21,3.28,1.96,5.59,4.89,6.67,8.5.39,1.28,1.56,2.07,2.63,2l6.83-.48,6.49-1.99c.17-.05.35-.07.52-.07Z"/><path class="cls-2" d="M223.79,80.48h0c3.91-.72,7.35-3.05,9.44-6.44,1.68-2.72,3.09-6.06,2.55-9.07-1.17-6.52-7.56-4.95-10.3-.91l-2.35,3.65.65,12.77Z"/><path class="cls-1" d="M223.79,82.3c-.86,0-1.63-.61-1.79-1.49-.18-.99.47-1.93,1.46-2.11,3.41-.63,6.41-2.67,8.22-5.61,1.87-3.05,2.67-5.75,2.31-7.79-.3-1.68-.99-2.65-2.05-2.87-1.59-.33-3.74.84-4.97,2.66l-2.32,3.61c-.54.84-1.67,1.09-2.51.55-.85-.54-1.09-1.67-.54-2.51l2.35-3.65c2.09-3.09,5.73-4.85,8.74-4.21,1.49.32,4.1,1.48,4.87,5.78.54,2.98-.4,6.47-2.78,10.35-2.36,3.81-6.24,6.46-10.66,7.27-.11.02-.22.03-.32.03Z"/><path class="cls-1" d="M189.94,85.11c-.48,0-1.15-.19-1.48-.45-.48-.37-.79-.9-.86-1.51-.43-3.56.11-11.61.12-11.95.07-1,1-1.7,1.94-1.69,1,.07,1.76.93,1.69,1.93,0,.07-.41,6.12-.25,9.82,1.28-.26,3.03-.74,4.4-1.54.86-.51,1.97-.22,2.49.64.51.86.22,1.98-.64,2.49-2.58,1.52-5.91,2.09-7.22,2.26-.06,0-.12.01-.18.01Z"/><path class="cls-1" d="M201.92,68.04c.22,2.88-1.1,5.33-2.96,5.47-1.86.14-3.54-2.08-3.76-4.96s1.1-5.33,2.96-5.47c1.86-.14,3.54,2.08,3.76,4.95Z"/><path class="cls-1" d="M184.54,68.7c.22,2.88-1.1,5.33-2.96,5.47-1.85.14-3.54-2.08-3.76-4.96-.22-2.88,1.1-5.33,2.96-5.47,1.86-.14,3.54,2.08,3.76,4.96Z"/><path class="cls-1" d="M194.32,92.97c-.98,0-1.64-.13-1.7-.15-.98-.21-1.61-1.17-1.41-2.15.21-.98,1.18-1.61,2.14-1.4h0c.12.03,2.94.55,5.33-1.44.76-.64,1.91-.54,2.55.23.64.77.54,1.92-.24,2.56-2.36,1.97-5,2.35-6.67,2.35Z"/><path class="cls-2" d="M218.02,135.09l6.12,10.17c.43.72,1.33.98,2.06.57,3.93-2.18,15.86-9.36,23.13-19.71,8.81-12.54,12.36-28.61-4.69-38.09,0,0,1.24,13.34-4.7,23.63-5.95,10.29-21.93,23.44-21.93,23.44Z"/><path class="cls-1" d="M225.47,147.84c-1.15,0-2.25-.59-2.88-1.64l-6.12-10.16c-.47-.77-.3-1.77.4-2.34.15-.13,15.8-13.07,21.51-22.95,5.57-9.64,4.48-22.43,4.47-22.55-.06-.67.25-1.32.82-1.69.57-.37,1.29-.4,1.87-.07,6.83,3.8,11.02,8.88,12.44,15.09,1.72,7.51-.82,16.62-7.15,25.63-7.34,10.45-19.04,17.65-23.74,20.26-.51.28-1.07.42-1.62.42ZM220.37,135.49l5.32,8.84c3.12-2.02,15.06-9.14,22.16-19.25,5.73-8.16,8.07-16.23,6.58-22.73-.98-4.29-3.62-7.97-7.86-10.96-.02,4.82-.73,13.69-5.06,21.19-5.14,8.9-17.26,19.61-21.15,22.92Z"/><path class="cls-2" d="M192.96,130.84c1.85-1,5.83-3,9.02-3.44,0,0-3.42-16.39,4.77-26.67,0,0-6.67,1.86-12.34,1.28,0,0-7.57,12.7-2.87,28.24.18.59.87.88,1.41.59Z"/><path class="cls-1" d="M192.51,132.77c-.36,0-.73-.07-1.08-.22-.79-.32-1.38-.97-1.62-1.78-4.88-16.12,2.72-29.15,3.04-29.69.37-.61,1.06-.93,1.74-.87,5.26.53,11.6-1.21,11.67-1.23.76-.21,1.57.09,2,.75.44.66.4,1.52-.09,2.13-7.57,9.51-4.45,25.01-4.41,25.17.1.49,0,1.01-.3,1.42-.29.41-.73.68-1.24.75-2.98.42-6.87,2.41-8.4,3.24h0c-.41.22-.86.33-1.32.33ZM195.47,103.91c-1.5,3.07-5.64,13.08-2.46,24.85,1.8-.93,4.39-2.13,6.89-2.79-.57-4.06-1.38-14.17,2.97-22.57-2.14.35-4.79.65-7.41.51Z"/><path class="cls-1" d="M196.42,164.9c-.07,0-.14,0-.21-.01-1-.12-1.71-1.02-1.59-2.02,1.97-16.59,7.84-31.93,8.09-32.57.37-.94,1.4-1.4,2.35-1.04.93.36,1.4,1.41,1.04,2.35-.06.15-5.97,15.57-7.88,31.69-.11.93-.89,1.6-1.8,1.6Z"/><path class="cls-1" d="M212.29,148.22c0,1.68-1.36,3.04-3.04,3.04s-3.04-1.36-3.04-3.04,1.36-3.04,3.04-3.04,3.04,1.36,3.04,3.04Z"/><circle class="cls-1" cx="207.45" cy="158.18" r="3.04"/><path class="cls-2" d="M78.79,254.61l90.51,52.26c.19.11.41.11.6,0l62.15-37.02c.39-.23.39-.79,0-1.02l-89.82-52.94c-.19-.11-.42-.11-.6,0l-62.84,37.7c-.39.23-.38.79,0,1.02Z"/><path class="cls-1" d="M169.59,308.76c-.41,0-.83-.11-1.21-.32l-90.51-52.25c-.73-.43-1.19-1.22-1.2-2.07,0-.85.45-1.65,1.18-2.08l62.83-37.7c.74-.45,1.69-.46,2.47,0l89.82,52.93c.73.43,1.19,1.22,1.19,2.07s-.46,1.65-1.19,2.08l-62.14,37.01c-.38.22-.8.34-1.23.34ZM81.5,254.08l88.08,50.85,59.76-35.59-87.41-51.51-60.43,36.26Z"/><path class="cls-1" d="M174.79,290.52c-.62,0-1.22-.31-1.56-.88-.51-.86-.23-1.97.63-2.49l30.93-18.49-19.67-11.55c-.86-.51-1.15-1.62-.64-2.49.5-.87,1.63-1.15,2.49-.65l21.03,12.35c.83.49,1.32,1.36,1.32,2.32,0,.96-.48,1.83-1.31,2.32l-32.28,19.3c-.3.18-.61.26-.93.26Z"/><path class="cls-2" d="M253.73,184.3s-3.94,11.59-6.16,30.38c-1.81,15.34-1.65,28.7-1.64,28.95,0,.01,0,0,0,0-.28-.05-19.79-3.65-36.67,1.6-17,5.28-39.96,2.71-39.96,2.71,0,0-11.75-8.69-16.9-8.2-5.14.49-2.57,5.49-2.57,5.49,0,0-24.43,8.35-15.43,16.14,9,7.79,34.9,2.69,34.9,2.69,0,0,60.71,6.56,92.84,1.96,1.38-.2,2.56-1.04,3.22-2.27,3.55-6.66,16.67-31.41,20.46-76.18,4.54-53.56-32.17-9.06-32.17-9.06l.08,5.79Z"/><path class="cls-1" d="M233.03,269.46c-28.84,0-60.4-3.22-63.67-3.56-2.99.56-27.01,4.76-36.17-3.16-2.61-2.26-2.81-4.56-2.51-6.1,1.16-5.97,12.34-10.8,16.84-12.51-.24-1.1-.31-2.5.38-3.76.53-.98,1.71-2.2,4.3-2.44,5.35-.39,15.35,6.52,17.75,8.26,3.33.32,23.63,2.01,38.75-2.69,14.04-4.36,29.76-2.78,35.4-1.99.02-4.47.25-15.21,1.66-27.04,2.05-17.32,5.49-28.46,6.14-30.45l-.08-5.48c0-.43.14-.85.41-1.18,1.84-2.23,18.27-21.64,28.59-17.4,5.95,2.42,8.18,11.51,6.8,27.76-1.75,20.68-6.76,50.81-20.67,76.88-.94,1.76-2.6,2.93-4.56,3.22-8.36,1.2-18.67,1.64-29.36,1.64ZM169.29,262.25c.07,0,.13,0,.2,0,.61.07,60.86,6.49,92.38,1.97.8-.12,1.49-.6,1.88-1.33,13.62-25.53,18.53-55.14,20.26-75.48,1.58-18.7-2.17-23.12-4.55-24.09-5.84-2.38-17.61,8.25-23.99,15.84l.07,5.11c0,.21-.03.41-.1.61-.04.12-3.91,11.66-6.07,30.01-1.82,15.38-1.64,28.55-1.63,28.68.02.55-.22,1.08-.64,1.44-.41.35-.96.51-1.52.41-.18-.04-19.33-3.56-35.79,1.55-17.17,5.34-39.74,2.89-40.7,2.78-.32-.03-.62-.16-.88-.35-4.2-3.11-11.93-7.87-15.35-7.87-.1,0-.2,0-.3.02-.77.07-1.3.28-1.46.57-.28.5.02,1.66.34,2.3.24.47.25,1.02.06,1.5-.2.49-.6.87-1.09,1.03-6.28,2.15-15.45,6.8-16.15,10.39-.11.55-.09,1.43,1.32,2.65,6.83,5.91,26.39,3.66,33.36,2.29.11-.02.23-.03.35-.03Z"/><path class="cls-2" d="M250.49,184.3c-2.03-2.53-2.95-5.79-2.84-9.03.42-12.39,3.01-50.52,18.85-57.5,18.96-8.36,25.39,48.56,24.43,62.85-.96,14.29-33.03,7.68-37.17,6.26-1.25-.43-2.36-1.43-3.28-2.57Z"/><path class="cls-1" d="M273.83,191.44c-9.32,0-18.95-2.27-20.67-2.85-1.43-.49-2.81-1.55-4.1-3.15,0,0,0,0,0,0-2.21-2.76-3.36-6.4-3.23-10.23.52-15.36,3.51-51.86,19.93-59.1,3.57-1.58,7.13-1.25,10.27.95,13.83,9.7,17.4,53.5,16.71,63.68-.22,3.18-1.71,5.72-4.44,7.53-3.59,2.38-8.97,3.17-14.47,3.17ZM251.9,183.16c.84,1.04,1.68,1.73,2.45,1.99,3.58,1.23,24.1,5.3,31.94.09,1.76-1.17,2.68-2.73,2.82-4.75.77-11.47-3.51-52.29-15.17-60.46-2.13-1.5-4.27-1.68-6.72-.61-11.88,5.24-16.97,32.31-17.76,55.9-.1,2.97.76,5.75,2.44,7.83h0Z"/><path class="cls-1" d="M254.42,259.63c-1.28,0-2.24-.23-2.44-.28-.97-.25-1.55-1.24-1.3-2.21.25-.97,1.24-1.57,2.2-1.3.1.02,2.41.55,4.07-.45.83-.51,1.38-1.34,1.67-2.55.24-.97,1.21-1.57,2.19-1.35.98.23,1.58,1.22,1.35,2.19-.53,2.18-1.65,3.81-3.35,4.83-1.48.89-3.1,1.13-4.39,1.13Z"/><path class="cls-1" d="M271.69,179.44c-6.31,0-11.26-.99-11.66-1.08-.98-.2-1.61-1.16-1.41-2.15.2-.98,1.12-1.61,2.15-1.41.2.04,18.9,3.77,29.21-3.59.81-.58,1.95-.4,2.53.42.59.82.4,1.95-.43,2.53-5.9,4.21-13.87,5.27-20.39,5.27Z"/><path class="cls-3" d="M169.26,306.28l-30.77-70.33c-.02-.05-.06-.1-.11-.12l-92.99-55.17c-.23-.14-.49.1-.39.34l32.87,73.03c.02.05.06.09.11.12l90.89,52.47c.23.13.49-.1.38-.34Z"/><path class="cls-1" d="M168.96,308.43c-.36,0-.71-.07-.99-.23l-90.89-52.48c-.32-.19-.69-.59-.85-.92l-32.88-73.06c-.33-.72-.09-1.87.49-2.4.67-.62,1.66-.72,2.46-.27l93,55.18c.37.22.76.7.9,1.11l30.72,70.18h.01c.3.74.04,1.89-.54,2.4-.35.31-.9.47-1.44.47ZM79.34,252.83l86.38,49.87-28.69-65.57-88.35-52.42,30.66,68.12Z"/><path class="cls-2" d="M102.05,248.43c3.89,4.93,8.86,7.5,11.1,5.74,2.24-1.77.91-7.2-2.98-12.13-3.89-4.93-8.86-7.5-11.1-5.74-2.24,1.77-.91,7.2,2.98,12.13Z"/><path class="cls-1" d="M111.38,256.54c-1.2,0-2.56-.37-4-1.12-2.32-1.2-4.72-3.28-6.76-5.87-2.04-2.59-3.51-5.41-4.13-7.94-.75-3.02-.23-5.41,1.45-6.74,1.68-1.32,4.13-1.26,6.89.17,2.32,1.2,4.72,3.28,6.76,5.87,4.66,5.91,5.81,12.22,2.68,14.68-.8.63-1.79.95-2.89.95ZM100.85,237.56c-.3,0-.52.06-.66.17-.38.3-.58,1.35-.17,3.02.5,2.02,1.76,4.41,3.45,6.56h0c1.7,2.16,3.73,3.94,5.57,4.89,1.53.8,2.6.85,2.97.54.93-.73.38-4.92-3.29-9.58-1.7-2.16-3.73-3.94-5.57-4.89-.98-.51-1.77-.71-2.32-.71Z"/></g></svg>