<?xml version="1.0" encoding="UTF-8"?><svg id="Layer_1" xmlns="http://www.w3.org/2000/svg" viewBox="0 0 720 720"><defs><style>.cls-1{fill:#fff;}.cls-1,.cls-2,.cls-3,.cls-4,.cls-5,.cls-6,.cls-7,.cls-8,.cls-9{fill-rule:evenodd;}.cls-2{fill:#f8d754;}.cls-3{fill:#f4d74b;}.cls-4{fill:#f6cf60;}.cls-5{fill:#dfa73d;}.cls-7{fill:#05b173;}.cls-8{fill:#15110e;}.cls-9{fill:#dd784b;}</style></defs><path id="Fill-1" class="cls-9" d="M669.82,568.73l.64-27.39-39.5-3.82-140.78-81.22c-13.7-7.96-34.4-8.92-46.18-1.91l-96.83,56.06-28.35-2.55-.64,25.48c-.32,5.41,3.19,11.47,11.15,15.93l168.17,97.15c13.7,7.96,34.4,8.92,46.18,1.91l117.85-68.16c5.41-3.19,7.96-7.01,7.96-11.47h.32Z"/><path id="Fill-3" class="cls-6" d="M320.1,509.49l-.64,23.89c-.32,5.1,3.5,10.51,10.51,14.65l168.17,97.15c13.38,7.64,33.44,8.6,44.59,1.91l117.85-68.16c4.78-2.55,7.01-6.05,7.33-10.19v-1.59l.64-24.53-38.54-3.82h0l-140.78-81.22c-13.38-7.64-33.44-8.6-44.91-1.91l-97.46,56.38-27.07-2.55h.32ZM523.94,654.41c-9.24,0-19.11-2.23-27.07-6.69l-168.17-97.15c-8.28-4.78-12.42-11.15-12.1-17.52l.64-27.07,29.62,2.87,96.51-55.74c12.42-7.01,33.76-6.37,47.78,1.91l140.46,80.9,40.45,3.82-.64,30.26h0c-.64,4.46-3.5,8.28-8.6,11.15l-117.85,68.16c-5.41,3.19-13.06,4.78-20.7,4.78h0l-.32.32Z"/><path id="Fill-5" class="cls-8" d="M505.47,647.09v-22.93l-13.7-7.64v23.57l-161.17-93c-1.59-.96-2.87-1.91-3.82-2.55v-23.57l-5.73-4.78v-5.73l26.44,2.55,97.78-56.38c11.15-6.37,30.58-5.41,43.64,1.91l140.78,81.22h.64l37.58,3.82v5.41l-120.08,74.21-15.93,3.5h-9.87v23.57c-5.41,0-11.15-1.27-16.24-3.19h-.32ZM631.6,534.97l-140.14-80.9c-14.33-8.28-36.31-9.24-48.73-1.91l-96.19,55.42-30.26-2.87-.64,28.03c-.64,6.69,4.14,13.38,12.42,18.47l168.17,97.15c7.96,4.46,17.84,6.69,27.39,6.69s15.61-1.59,21.34-4.78l117.85-68.16c6.05-3.5,9.24-8.28,9.24-13.7l.64-29.94-41.41-3.82.32.32Z"/><path id="Fill-7" class="cls-6" d="M507.06,646.13c4.14,1.59,8.92,2.23,13.38,2.55v-23.57h11.15l15.61-3.5,119.12-73.58v-3.19l-36.63-3.5-141.42-81.54c-12.42-7.33-31.53-7.96-42.04-1.91l-98.1,56.69-25.16-2.55v3.19l5.73,4.78v23.25c.96.64,1.91,1.59,3.19,2.23l158.94,91.73v-23.57l16.88,9.56v22.93h-.64ZM523.31,651.86h-1.59c-5.73,0-11.47-1.27-16.88-3.5h-.96v-23.57l-10.51-6.05v23.57l-163.4-94.28c-1.59-.96-2.87-1.91-4.14-2.87h-.64v-23.89l-5.73-4.78v-7.96l27.71,2.55,97.15-56.06c11.47-6.69,31.85-5.73,45.23,1.91l140.78,81.22,38.86,3.82v7.64l-.96.32-120.08,74.21-16.56,3.5h-8.28v24.21ZM317.55,506.62l-.64,26.44c-.64,6.37,3.82,12.42,11.78,17.2l168.17,97.15c7.33,4.14,16.88,6.69,26.75,6.69s15.29-1.59,20.7-4.78l117.85-68.16c5.41-3.19,8.28-7.64,8.6-12.42l.64-28.35-40.13-3.82h0l-140.14-81.22c-14.01-7.96-35.35-8.92-47.46-1.91l-96.83,55.74h-.64l-28.67-2.87v.32ZM523.94,656.96c-10.19,0-20.38-2.55-28.35-7.01l-168.17-97.15c-8.92-5.1-14.01-12.42-13.38-20.07l.64-29.62,31.53,2.87,95.87-55.42c13.06-7.64,35.67-6.69,50.32,1.91l139.83,80.9,42.36,4.14-.64,31.21c0,6.05-3.82,11.15-10.19,14.97l-117.85,68.16c-5.73,3.19-13.7,5.1-22.3,5.1h.32Z"/><path id="Fill-9" class="cls-9" d="M662.5,554.08l-117.85,68.16c-11.78,7.01-32.49,6.05-46.18-1.91l-168.17-97.15c-13.7-7.96-15.29-19.75-3.19-26.75l117.85-68.16c11.78-7.01,32.49-6.05,46.18,1.91l168.17,97.15c13.7,7.96,15.29,19.75,3.19,26.75"/><path id="Fill-11" class="cls-6" d="M464.7,425.08c-7.33,0-14.01,1.59-19.43,4.46l-117.85,68.16c-4.78,2.55-7.33,6.37-7.33,10.19s3.82,9.87,10.51,13.7l168.17,97.15c13.38,7.64,33.44,8.6,44.59,1.91l117.85-68.16c4.78-2.55,7.33-6.37,7.33-10.19s-3.82-9.87-10.51-13.7l-168.17-97.15c-7.33-4.14-16.56-6.37-25.48-6.37M524.58,628.29c-9.24,0-19.11-2.23-27.07-6.69l-168.17-97.15c-7.64-4.46-12.1-10.51-12.1-16.56s3.19-9.56,8.92-13.06l117.85-68.16c12.42-7.01,33.76-6.37,47.78,1.91l168.17,97.15c7.64,4.46,12.1,10.51,12.1,16.56s-3.19,9.56-8.92,13.06l-117.85,68.16c-5.41,3.19-13.06,4.78-20.7,4.78"/><path id="Fill-13" class="cls-8" d="M464.7,426.04c-7.01,0-13.7,1.27-18.79,4.46l-117.85,68.16c-4.46,2.55-6.69,5.73-6.69,9.24s3.82,9.24,10.19,12.74l168.17,97.15c13.06,7.33,32.49,8.28,43.64,1.91l117.85-68.16c4.46-2.55,6.69-5.73,6.69-9.24s-3.5-9.24-10.19-12.74l-168.17-97.15c-7.01-4.14-16.24-6.37-24.84-6.37M524.58,629.25c-9.56,0-19.75-2.23-27.39-6.69l-168.17-97.15c-7.96-4.78-12.74-10.83-12.74-17.2s3.19-10.51,9.24-13.7l117.85-68.16c12.42-7.33,34.4-6.37,48.73,1.91l168.17,97.15c7.96,4.78,12.74,10.83,12.74,17.2s-3.19,10.51-9.24,13.7l-117.85,68.16c-5.73,3.19-13.38,4.78-21.34,4.78"/><path id="Fill-15" class="cls-6" d="M464.7,427.63c-7.01,0-13.38,1.59-18.16,4.14l-117.85,68.16c-2.87,1.59-6.05,4.14-6.05,7.96s3.5,8.28,9.24,11.47l168.17,97.15c12.42,7.33,31.53,7.96,42.04,1.91l117.85-68.16c2.87-1.59,6.05-4.14,6.05-7.96s-3.5-8.28-9.24-11.47l-168.17-97.15c-6.69-3.82-15.29-6.05-24.21-6.05M524.58,625.75c-8.92,0-18.47-2.23-25.8-6.37l-168.17-97.15c-7.01-3.82-10.83-9.24-10.83-14.33s1.27-7.01,7.64-10.83l117.85-68.16c5.1-2.87,12.1-4.46,19.43-4.46s18.47,2.23,25.8,6.37l168.17,97.15c7.01,3.82,10.83,9.24,10.83,14.33s-1.27,7.01-7.64,10.83l-117.85,68.16c-5.1,2.87-12.1,4.46-19.43,4.46M464.7,422.54c-7.64,0-14.97,1.59-20.7,4.78l-117.85,68.16c-5.41,3.19-8.6,7.64-8.6,12.42s4.46,11.78,11.78,15.93l168.17,97.15c7.33,4.14,17.2,6.69,26.75,6.69s15.29-1.59,20.7-4.78l117.85-68.16c5.41-3.19,8.6-7.64,8.6-12.42s-4.46-11.78-11.78-15.93l-168.17-97.15c-7.64-4.46-17.52-6.69-26.75-6.69M524.58,630.84c-10.19,0-20.38-2.55-28.35-7.01l-168.17-97.15c-8.6-4.78-13.38-11.78-13.38-18.79s3.5-11.47,10.19-15.29l117.85-68.16c13.06-7.64,35.67-6.69,50.32,1.91l168.17,97.15c8.6,4.78,13.38,11.78,13.38,18.79s-3.5,11.47-10.19,15.29l-117.85,68.16c-5.73,3.19-13.7,5.1-22.3,5.1"/><path id="Fill-17" class="cls-8" d="M610.9,522.23c-2.87,0-5.73.64-7.64,1.91l-112.12,64.66c-.96.64-2.23,1.59-2.23,3.19s1.59,3.19,3.82,4.78l8.92,5.1c5.41,3.19,13.7,3.5,18.47.96l112.12-64.66c.96-.64,2.23-1.59,2.23-3.19s-1.59-3.19-3.82-4.78l-8.92-5.1c-2.87-1.59-7.01-2.55-10.51-2.55M512.16,609.5c-4.46,0-9.24-1.27-13.06-3.19l-8.92-5.1c-4.14-2.23-6.37-5.73-6.37-9.24s1.59-5.73,4.78-7.64l112.12-64.66c6.05-3.5,16.56-3.19,23.57.96l8.92,5.1c4.14,2.23,6.37,5.73,6.37,9.24s-1.59,5.73-4.78,7.64l-112.12,64.66c-2.87,1.59-6.69,2.55-10.51,2.55"/><path id="Fill-19" class="cls-6" d="M610.9,523.82c-2.87,0-5.41.64-7.01,1.59l-112.12,64.66c-.96.64-1.59,1.27-1.59,1.59,0,.64.96,2.23,3.19,3.19l8.92,5.1c4.78,2.87,12.74,3.19,16.88.96l112.12-64.66c.96-.64,1.59-1.27,1.59-1.59,0-.64-.96-2.23-3.19-3.19l-8.92-5.1c-2.55-1.59-6.37-2.55-9.87-2.55M512.16,606c-3.82,0-7.96-.96-11.47-2.87l-8.92-5.1c-2.87-1.59-4.46-3.82-4.46-6.05s.96-3.19,3.19-4.46l112.12-64.66c2.23-1.27,5.1-1.91,8.6-1.91s8.28.96,11.47,2.87l8.92,5.1c2.87,1.59,4.46,3.82,4.46,6.05s-.96,3.19-3.19,4.46l-112.12,64.66c-2.23,1.27-5.41,1.91-8.6,1.91M610.9,518.73c-3.5,0-7.01.64-9.56,2.23l-112.12,64.66c-2.55,1.59-4.14,3.82-4.14,6.05s1.91,5.73,5.73,7.64l8.92,5.1c3.5,1.91,7.96,3.19,12.42,3.19s7.01-.96,9.56-2.23l112.12-64.66c2.55-1.59,4.14-3.82,4.14-6.05s-1.91-5.73-5.73-7.64l-8.92-5.1c-3.5-2.23-7.96-3.19-12.42-3.19M512.16,611.09c-5.1,0-9.87-1.27-14.01-3.5l-8.92-5.1c-4.46-2.55-7.33-6.37-7.33-10.51s1.91-6.69,5.73-8.92l112.12-64.66c6.69-3.82,17.52-3.5,25.16.96l8.92,5.1c4.46,2.55,7.33,6.37,7.33,10.51s-1.91,6.69-5.73,8.92l-112.12,64.66c-2.87,1.59-7.01,2.55-11.15,2.55"/><path id="Fill-21" class="cls-8" d="M398.77,523.18c-1.27,0-2.87,0-3.82.96l-13.38,7.64c-.64,0-.64.64-.64.64,0,0,.32.96,1.59,1.59l10.51,6.05c2.55,1.59,6.69,1.59,8.92.64l13.38-7.64c.64,0,.64-.64.64-.64,0,0-.32-.96-1.59-1.59l-10.51-6.05c-1.59-.96-3.5-1.27-5.41-1.27M398.13,546.75c-2.87,0-5.73-.64-7.96-1.91l-10.51-6.05c-2.55-1.59-4.14-3.82-4.14-6.05s1.27-3.82,3.19-5.1l13.38-7.64c3.82-2.23,9.87-1.91,14.33.64l10.51,6.05c2.55,1.59,4.14,3.82,4.14,6.05s-1.27,3.82-3.19,5.1l-13.38,7.64c-1.59.96-4.14,1.59-6.37,1.59"/><path id="Fill-23" class="cls-6" d="M383.16,532.74h0l10.51,6.05c2.23,1.27,5.73,1.59,7.64.64l12.74-7.33h0l-10.51-6.05c-1.27-.64-2.87-.96-4.46-.96s-2.23,0-2.87.64l-12.74,7.33-.32-.32ZM398.45,542.93c-2.23,0-4.46-.64-6.05-1.59l-10.51-6.05c-1.59-.96-2.23-1.91-2.23-2.87s.96-1.59,1.59-1.91l13.38-7.64c1.59-.96,3.19-.96,4.46-.96,2.23,0,4.46.64,6.05,1.59l10.51,6.05c1.59.96,2.23,1.91,2.23,2.87s-.96,1.59-1.59,1.91l-13.38,7.64c-1.27.64-2.87.96-4.46.96h0ZM398.77,519.68c-2.23,0-4.14.32-5.41,1.27l-13.38,7.64c-1.59.96-2.55,2.23-2.55,3.82s1.27,3.5,3.5,4.78l10.51,6.05c1.91,1.27,4.46,1.91,7.01,1.91s4.14-.32,5.41-1.27l13.38-7.64c1.59-.96,2.55-2.23,2.55-3.82s-1.27-3.5-3.5-4.78l-10.51-6.05c-1.91-1.27-4.46-1.91-7.01-1.91h0ZM398.13,548.03c-3.19,0-6.05-.64-8.6-2.23l-10.51-6.05c-3.19-1.91-4.78-4.46-4.78-7.33s1.59-5.1,4.14-6.37l13.38-7.64c4.14-2.55,11.15-2.23,15.61.64l10.51,6.05c3.19,1.91,4.78,4.46,4.78,7.33s-1.59,5.1-4.14,6.37l-13.38,7.64c-1.91.96-4.46,1.59-7.01,1.59h0Z"/><path id="Fill-25" class="cls-8" d="M434.44,502.48c-1.27,0-2.87,0-3.82.96l-13.38,7.64c-.64,0-.64.64-.64.64,0,0,.32.96,1.59,1.59l10.51,6.05c2.55,1.59,6.69,1.59,8.92.32l13.38-7.64c.64,0,.64-.64.64-.64,0,0-.32-.96-1.59-1.59l-10.51-6.05c-1.59-.96-3.5-1.27-5.41-1.27M434.12,526.05c-2.87,0-5.73-.64-7.96-1.91l-10.51-6.05c-2.55-1.59-4.14-3.82-4.14-6.05s1.27-3.82,3.19-5.1l13.38-7.64c3.82-2.23,9.87-1.91,14.33.64l10.51,6.05c2.55,1.59,4.14,3.82,4.14,6.05s-1.27,3.82-3.19,5.1l-13.38,7.64c-1.59.96-4.14,1.59-6.37,1.59"/><path id="Fill-27" class="cls-6" d="M418.84,512.04h0l10.51,6.05c2.23,1.27,5.73,1.59,7.64.64l12.74-7.33h0l-10.51-6.05c-1.27-.64-2.87-.96-4.46-.96s-2.23,0-2.87.64l-12.74,7.33-.32-.32ZM434.12,522.23c-2.23,0-4.46-.64-6.05-1.59l-10.51-6.05c-1.59-.96-2.23-1.91-2.23-2.87s.96-1.59,1.59-1.91l13.38-7.64c1.59-.96,3.19-.96,4.46-.96,2.23,0,4.46.64,6.05,1.59l10.51,6.05c1.59.96,2.23,1.91,2.23,2.87s-.96,1.59-1.59,1.91l-13.38,7.64c-1.27.64-2.87.96-4.46.96h0ZM434.76,498.98c-2.23,0-4.14.32-5.41,1.27l-13.38,7.64c-1.59.96-2.55,2.23-2.55,3.82s1.27,3.5,3.5,4.78l10.51,6.05c1.91,1.27,4.46,1.91,7.01,1.91s4.14-.32,5.73-1.27l13.38-7.64c1.59-.96,2.55-2.23,2.55-3.82s-1.27-3.5-3.5-4.78l-10.51-6.05c-1.91-1.27-4.46-1.91-7.01-1.91h-.32ZM434.12,527.33c-3.19,0-6.05-.64-8.6-2.23l-10.51-6.05c-3.19-1.91-4.78-4.46-4.78-7.33s1.59-5.1,4.14-6.37l13.38-7.64c4.14-2.55,11.15-2.23,15.61.64l10.51,6.05c3.19,1.91,4.78,4.46,4.78,7.33s-1.59,5.1-4.14,6.37l-13.38,7.64c-1.91.96-4.46,1.59-7.01,1.59h0Z"/><path id="Fill-29" class="cls-8" d="M470.43,482.1c-1.27,0-2.87,0-3.82.96l-13.38,7.64c-.64,0-.64.64-.64.64,0,0,.32.96,1.59,1.59l10.51,6.05c2.55,1.59,6.69,1.59,8.92.32l13.38-7.64c.64,0,.64-.64.64-.64,0,0-.32-.96-1.59-1.59l-10.51-6.05c-1.59-.96-3.5-1.27-5.41-1.27M469.8,505.35c-2.87,0-5.73-.64-7.96-1.91l-10.51-6.05c-2.55-1.59-4.14-3.82-4.14-6.05s1.27-3.82,3.19-5.1l13.38-7.64c3.82-2.23,9.87-1.91,14.33.64l10.51,6.05c2.55,1.59,4.14,3.82,4.14,6.05s-1.27,3.82-3.19,5.1l-13.38,7.64c-1.59.96-4.14,1.59-6.37,1.59"/><path id="Fill-31" class="cls-6" d="M454.83,491.33h0l10.51,6.05c2.23,1.27,5.73,1.59,7.64.64l12.74-7.33h0l-10.51-6.05c-1.27-.64-2.87-.96-4.46-.96s-2.23,0-2.87.64l-12.74,7.33-.32-.32ZM469.8,501.53c-2.23,0-4.46-.64-6.05-1.59l-10.51-6.05c-1.59-.96-2.23-1.91-2.23-2.87s.96-1.59,1.59-1.91l13.38-7.64c1.59-.96,3.19-.96,4.46-.96,2.23,0,4.46.64,6.05,1.59l10.51,6.05c1.59.96,2.23,1.91,2.23,2.87s-.96,1.59-1.59,1.91l-13.38,7.64c-1.27.64-2.87.96-4.46.96h0ZM470.43,478.28c-2.23,0-4.14.32-5.41,1.27l-13.38,7.64c-1.59.96-2.55,2.23-2.55,3.82s1.27,3.5,3.5,4.78l10.51,6.05c1.91,1.27,4.46,1.91,7.01,1.91s4.14-.32,5.73-1.27l13.38-7.64c1.59-.96,2.55-2.23,2.55-3.82s-1.27-3.5-3.5-4.78l-10.51-6.05c-1.91-1.27-4.46-1.91-7.01-1.91h-.32ZM469.8,506.94c-3.19,0-6.05-.64-8.6-2.23l-10.51-6.05c-3.19-1.91-4.78-4.46-4.78-7.33s1.59-5.1,4.14-6.37l13.38-7.64c4.14-2.55,11.15-2.23,15.61.64l10.51,6.05c3.19,1.91,4.78,4.46,4.78,7.33s-1.59,5.1-4.14,6.37l-13.38,7.64c-1.91.96-4.46,1.59-7.01,1.59h0Z"/><path id="Fill-33" class="cls-8" d="M506.11,461.39c-1.27,0-2.87,0-3.82.96l-13.38,7.64c-.64,0-.64.64-.64.64,0,0,.32.96,1.59,1.59l10.51,6.05c2.55,1.59,6.69,1.59,8.92.64l13.38-7.64c.64,0,.64-.64.64-.64,0,0-.32-.96-1.59-1.59l-10.51-6.05c-1.59-.96-3.5-1.27-5.41-1.27M505.79,484.65c-2.87,0-5.73-.64-7.96-1.91l-10.51-6.05c-2.55-1.59-4.14-3.82-4.14-6.05s1.27-3.82,3.19-5.1l13.38-7.64c3.82-2.23,9.87-1.91,14.33.64l10.51,6.05c2.55,1.59,4.14,3.82,4.14,6.05s-1.27,3.82-3.19,5.1l-13.38,7.64c-1.59.96-4.14,1.59-6.37,1.59"/><path id="Fill-35" class="cls-6" d="M490.5,470.63h0l10.51,6.05c2.23,1.27,5.73,1.59,7.64.64l12.74-7.33h0l-10.51-6.05c-1.27-.64-2.87-.96-4.46-.96s-2.23,0-2.87.64l-12.74,7.33-.32-.32ZM505.79,481.14c-2.23,0-4.46-.64-6.05-1.59l-10.51-6.05c-1.59-.96-2.23-1.91-2.23-2.87s.96-1.59,1.59-1.91l13.38-7.64c1.59-.96,3.19-.96,4.46-.96,2.23,0,4.46.64,6.05,1.59l10.51,6.05c1.59.96,2.23,1.91,2.23,2.87s-.96,1.59-1.59,1.91l-13.38,7.64c-1.27.64-2.87.96-4.46.96h0ZM506.11,457.57c-2.23,0-4.14.32-5.41,1.27l-13.38,7.64c-1.59.96-2.55,2.23-2.55,3.82s1.27,3.5,3.5,4.78l10.51,6.05c1.91,1.27,4.46,1.91,7.01,1.91s4.14-.32,5.41-1.27l13.38-7.64c1.59-.96,2.55-2.23,2.55-3.82s-1.27-3.5-3.5-4.78l-10.51-6.05c-1.91-1.27-4.46-1.91-7.01-1.91h0ZM505.79,486.24c-3.19,0-6.05-.64-8.6-2.23l-10.51-6.05c-3.19-1.91-4.78-4.46-4.78-7.33s1.59-5.1,4.14-6.37l13.38-7.64c4.14-2.55,11.15-2.23,15.61.64l10.51,6.05c3.19,1.91,4.78,4.46,4.78,7.33s-1.59,5.1-4.14,6.37l-13.38,7.64c-1.91.96-4.46,1.59-7.01,1.59h0Z"/><path id="Fill-37" class="cls-8" d="M434.12,543.57c-1.27,0-2.87,0-3.82.96l-13.38,7.64c-.64,0-.64.64-.64.64,0,0,.32.96,1.59,1.59l10.51,6.05c2.55,1.59,6.69,1.59,8.92.32l13.38-7.64c.64,0,.64-.64.64-.64,0,0-.32-.96-1.59-1.59l-10.51-6.05c-1.59-.96-3.5-1.27-5.41-1.27M433.49,566.82c-2.87,0-5.41-.64-7.96-1.91l-10.51-6.05c-2.55-1.59-4.14-3.82-4.14-6.05s1.27-3.82,3.19-5.1l13.38-7.64c3.82-2.23,9.87-1.91,14.33.64l10.51,6.05c2.55,1.59,4.14,3.82,4.14,6.05s-1.27,3.82-3.19,5.1l-13.38,7.64c-1.59.96-4.14,1.59-6.37,1.59"/><path id="Fill-39" class="cls-6" d="M418.52,553.12h0l10.51,6.05c2.23,1.27,5.73,1.59,7.33.64l12.74-7.33h0l-10.51-6.05c-1.27-.64-2.87-.96-4.46-.96s-2.23,0-2.87.64l-12.74,7.33v-.32ZM433.49,563.32c-2.23,0-4.46-.64-6.05-1.59l-10.51-6.05c-1.59-.96-2.23-1.91-2.23-2.87s.96-1.59,1.59-1.91l13.38-7.64c1.59-.96,3.19-.96,4.46-.96,2.23,0,4.46.64,6.05,1.59l10.51,6.05c1.59.96,2.23,1.91,2.23,2.87s-.96,1.59-1.59,1.91l-13.38,7.64c-1.27.64-2.87.96-4.46.96h0ZM434.12,540.07c-2.23,0-4.14.32-5.41,1.27l-13.38,7.64c-1.59.96-2.55,2.23-2.55,3.82s1.27,3.5,3.5,4.78l10.51,6.05c1.91,1.27,4.46,1.91,7.01,1.91s4.14-.32,5.73-1.27l13.38-7.64c1.59-.96,2.55-2.23,2.55-3.82s-1.27-3.5-3.5-4.78l-10.51-6.05c-1.91-1.27-4.78-1.91-7.01-1.91h-.32ZM433.49,568.41c-3.19,0-6.05-.64-8.6-2.23l-10.51-6.05c-3.19-1.91-4.78-4.46-4.78-7.33s1.59-5.1,4.14-6.37l13.38-7.64c4.14-2.55,11.15-2.23,15.61.64l10.51,6.05c3.19,1.91,4.78,4.46,4.78,7.33s-1.59,5.1-4.14,6.37l-13.38,7.64c-1.91.96-4.46,1.59-7.01,1.59h0Z"/><path id="Fill-41" class="cls-8" d="M469.8,522.87c-1.27,0-2.87,0-3.82.96l-13.38,7.64c-.64,0-.64.64-.64.64,0,0,.32.96,1.59,1.59l10.51,6.05c2.55,1.59,6.69,1.59,8.92.32l13.38-7.64c.64,0,.64-.64.64-.64,0,0-.32-.96-1.59-1.59l-10.51-6.05c-1.59-.96-3.5-1.27-5.41-1.27M469.16,546.12c-2.87,0-5.73-.64-7.96-1.91l-10.51-6.05c-2.55-1.59-4.14-3.82-4.14-6.05s1.27-3.82,3.19-5.1l13.38-7.64c3.82-2.23,9.87-1.91,14.33.64l10.51,6.05c2.55,1.59,4.14,3.82,4.14,6.05s-1.27,3.82-3.19,5.1l-13.38,7.64c-1.59.96-4.14,1.59-6.37,1.59"/><path id="Fill-43" class="cls-6" d="M454.19,532.42h0l10.51,6.05c2.23,1.27,5.73,1.59,7.64.64l12.74-7.33h0l-10.51-6.05c-1.27-.64-2.87-.96-4.46-.96s-2.23,0-2.87.64l-12.74,7.33-.32-.32ZM469.16,542.61c-2.23,0-4.46-.64-6.05-1.59l-10.51-6.05c-1.59-.96-2.23-1.91-2.23-2.87s.96-1.59,1.59-1.91l13.38-7.64c1.59-.96,3.19-.96,4.46-.96,2.23,0,4.46.64,6.05,1.59l10.51,6.05c1.59.96,2.23,1.91,2.23,2.87s-.96,1.59-1.59,1.91l-13.38,7.64c-1.27.64-2.87.96-4.46.96h0ZM469.8,519.36c-2.23,0-4.14.32-5.41,1.27l-13.38,7.64c-1.59.96-2.55,2.23-2.55,3.82s1.27,3.5,3.5,4.78l10.51,6.05c1.91,1.27,4.46,1.91,7.01,1.91s4.14-.32,5.73-1.27l13.38-7.64c1.59-.96,2.55-2.23,2.55-3.82s-1.27-3.5-3.5-4.78l-10.51-6.05c-1.91-1.27-4.78-1.91-7.01-1.91h-.32ZM469.16,547.71c-3.19,0-6.05-.64-8.6-2.23l-10.51-6.05c-3.19-1.91-4.78-4.46-4.78-7.33s1.59-5.1,4.14-6.37l13.38-7.64c4.14-2.55,10.83-2.23,15.61.64l10.51,6.05c3.19,1.91,4.78,4.46,4.78,7.33s-1.59,5.1-4.14,6.37l-13.38,7.64c-1.91.96-4.46,1.59-7.01,1.59h0Z"/><path id="Fill-45" class="cls-8" d="M505.47,502.16c-1.27,0-2.87,0-3.82.96l-13.38,7.64c-.64,0-.64.64-.64.64,0,0,.32.96,1.59,1.59l10.51,6.05c2.55,1.59,6.69,1.59,8.92.64l13.38-7.64c.64,0,.64-.64.64-.64,0,0-.32-.96-1.59-1.59l-10.51-6.05c-1.59-.96-3.5-1.27-5.41-1.27M505.15,525.41c-2.87,0-5.73-.64-7.96-1.91l-10.51-6.05c-2.55-1.59-4.14-3.82-4.14-6.05s1.27-3.82,3.19-5.1l13.38-7.64c3.82-2.23,9.87-1.91,14.33.64l10.51,6.05c2.55,1.59,4.14,3.82,4.14,6.05s-1.27,3.82-3.19,5.1l-13.38,7.64c-1.59.96-4.14,1.59-6.37,1.59"/><path id="Fill-47" class="cls-6" d="M489.86,511.72h0l10.51,6.05c2.23,1.27,5.73,1.59,7.64.64l12.74-7.33h0l-10.51-6.05c-1.27-.64-2.87-.96-4.46-.96s-2.23,0-2.87.64l-12.74,7.33-.32-.32ZM505.15,521.91c-2.23,0-4.46-.64-6.05-1.59l-10.51-6.05c-1.59-.96-2.23-1.91-2.23-2.87s.96-1.59,1.59-1.91l13.38-7.64c1.59-.96,3.19-.96,4.46-.96,2.23,0,4.46.64,6.05,1.59l10.51,6.05c1.59.96,2.23,1.91,2.23,2.87s-.96,1.59-1.59,1.91l-13.38,7.64c-1.27.64-2.87.96-4.46.96h0ZM505.79,498.66c-2.23,0-4.14.32-5.41,1.27l-13.38,7.64c-1.59.96-2.55,2.23-2.55,3.82s1.27,3.5,3.5,4.78l10.51,6.05c1.91,1.27,4.46,1.91,7.01,1.91s4.14-.32,5.41-1.27l13.38-7.64c1.59-.96,2.55-2.23,2.55-3.82s-1.27-3.5-3.5-4.78l-10.51-6.05c-1.91-1.27-4.46-1.91-7.01-1.91h0ZM505.15,527.01c-3.19,0-6.05-.64-8.6-2.23l-10.51-6.05c-3.19-1.91-4.78-4.46-4.78-7.33s1.59-5.1,4.14-6.37l13.38-7.64c4.14-2.55,11.15-2.23,15.61.64l10.51,6.05c3.19,1.91,4.78,4.46,4.78,7.33s-1.59,5.1-4.14,6.37l-13.38,7.64c-1.91.96-4.46,1.59-7.01,1.59h0Z"/><path id="Fill-49" class="cls-8" d="M541.46,481.46c-1.27,0-2.87,0-3.82.96l-13.38,7.64c-.64,0-.64.64-.64.64,0,0,.32.96,1.59,1.59l10.51,6.05c2.55,1.59,6.69,1.59,8.92.64l13.38-7.64c.64,0,.64-.64.64-.64,0,0-.32-.96-1.59-1.59l-10.51-6.05c-1.59-.96-3.5-1.27-5.41-1.27M540.83,505.03c-2.87,0-5.73-.64-7.96-1.91l-10.51-6.05c-2.55-1.59-4.14-3.82-4.14-6.05s1.27-3.82,3.19-5.1l13.38-7.64c3.82-2.23,9.87-1.91,14.33.64l10.51,6.05c2.55,1.59,4.14,3.82,4.14,6.05s-1.27,3.82-3.19,5.1l-13.38,7.64c-1.59.96-4.14,1.59-6.37,1.59"/><path id="Fill-51" class="cls-6" d="M525.86,491.02h0l10.51,6.05c2.23,1.27,5.73,1.59,7.64.64l12.74-7.33h0l-10.51-6.05c-1.27-.64-2.87-.96-4.46-.96s-2.23,0-2.87.64l-12.74,7.33-.32-.32ZM540.83,501.21c-2.23,0-4.46-.64-6.05-1.59l-10.51-6.05c-1.59-.96-2.23-1.91-2.23-2.87s.96-1.59,1.59-1.91l13.38-7.64c1.59-.96,3.19-.96,4.46-.96,2.23,0,4.46.64,6.05,1.59l10.51,6.05c1.59.96,2.23,1.91,2.23,2.87s-.96,1.59-1.59,1.91l-13.38,7.64c-1.27.64-2.87.96-4.46.96h0ZM541.46,477.96c-2.23,0-4.14.32-5.41,1.27l-13.38,7.64c-1.59.96-2.55,2.23-2.55,3.82s1.27,3.5,3.5,4.78l10.51,6.05c1.91,1.27,4.46,1.91,7.01,1.91s4.14-.32,5.41-1.27l13.38-7.64c1.59-.96,2.55-2.23,2.55-3.82s-1.27-3.5-3.5-4.78l-10.51-6.05c-1.91-1.27-4.46-1.91-7.01-1.91h0ZM540.83,506.3c-3.19,0-6.05-.64-8.6-2.23l-10.51-6.05c-3.19-1.91-4.78-4.46-4.78-7.33s1.59-5.1,4.14-6.37l13.38-7.64c4.14-2.55,11.15-2.23,15.61.64l10.51,6.05c3.19,1.91,4.78,4.46,4.78,7.33s-1.59,5.1-4.14,6.37l-13.38,7.64c-1.91.96-4.46,1.59-7.01,1.59h0Z"/><path id="Fill-53" class="cls-8" d="M469.16,563.95c-1.27,0-2.87,0-3.82.96l-13.38,7.64c-.64,0-.64.64-.64.64,0,0,.32.96,1.59,1.59l10.51,6.05c2.55,1.59,6.69,1.59,8.92.32l13.38-7.64c.64,0,.64-.64.64-.64,0,0-.32-.96-1.59-1.59l-10.51-6.05c-1.59-.96-3.5-1.27-5.41-1.27M468.52,587.21c-2.87,0-5.73-.64-7.96-1.91l-10.51-6.05c-2.55-1.59-4.14-3.82-4.14-6.05s1.27-3.82,3.19-5.1l13.38-7.64c3.82-2.23,9.87-1.91,14.33.64l10.51,6.05c2.55,1.59,4.14,3.82,4.14,6.05s-1.27,3.82-3.19,5.1l-13.38,7.64c-1.59.96-4.14,1.59-6.37,1.59"/><path id="Fill-55" class="cls-6" d="M453.55,573.19h0l10.51,6.05c2.23,1.27,5.73,1.59,7.64.64l12.74-7.33h0l-10.51-6.05c-1.27-.64-2.87-.96-4.46-.96s-2.23,0-2.87.64l-12.74,7.33-.32-.32ZM468.52,583.7c-2.23,0-4.46-.64-6.05-1.59l-10.51-6.05c-1.59-.96-2.23-1.91-2.23-2.87s.96-1.59,1.59-1.91l13.38-7.64c1.59-.96,3.19-.96,4.46-.96,2.23,0,4.46.64,6.05,1.59l10.51,6.05c1.59.96,2.23,1.91,2.23,2.87s-.96,1.59-1.59,1.91l-13.38,7.64c-1.27.64-2.87.96-4.46.96h0ZM469.16,560.13c-2.23,0-4.14.32-5.41,1.27l-13.38,7.64c-1.59.96-2.55,2.23-2.55,3.82s1.27,3.5,3.5,4.78l10.51,6.05c1.91,1.27,4.46,1.91,7.01,1.91s4.14-.32,5.73-1.27l13.38-7.64c1.59-.96,2.55-2.23,2.55-3.82s-1.27-3.5-3.5-4.78l-10.51-6.05c-1.91-1.27-4.46-1.91-7.01-1.91h-.32ZM468.52,588.8c-3.19,0-6.05-.64-8.6-2.23l-10.51-6.05c-3.19-1.91-4.78-4.46-4.78-7.33s1.59-5.1,4.14-6.37l13.38-7.64c4.14-2.55,11.15-2.23,15.61.64l10.51,6.05c3.19,1.91,4.78,4.46,4.78,7.33s-1.59,5.1-4.14,6.37l-13.38,7.64c-1.91.96-4.46,1.59-7.01,1.59h0Z"/><path id="Fill-57" class="cls-8" d="M504.83,543.25c-1.27,0-2.87,0-3.82.96l-13.38,7.64c-.64,0-.64.64-.64.64,0,0,.32.96,1.59,1.59l10.51,6.05c2.55,1.59,6.69,1.59,8.92.32l13.38-7.64c.64,0,.64-.64.64-.64,0,0-.32-.96-1.59-1.59l-10.51-6.05c-1.59-.96-3.5-1.27-5.41-1.27M504.51,566.5c-2.87,0-5.73-.64-7.96-1.91l-10.51-6.05c-2.55-1.59-4.14-3.82-4.14-6.05s1.27-3.82,3.19-5.1l13.38-7.64c3.82-2.23,9.87-1.91,14.33.64l10.51,6.05c2.55,1.59,4.14,3.82,4.14,6.05s-1.27,3.82-3.19,5.1l-13.38,7.64c-1.59.96-4.14,1.59-6.37,1.59"/><path id="Fill-59" class="cls-6" d="M489.23,552.49h0l10.51,6.05c2.23,1.27,5.73,1.59,7.64.64l12.74-7.33h0l-10.51-6.05c-1.27-.64-2.87-.96-4.46-.96s-2.23,0-2.87.64l-12.74,7.33-.32-.32ZM504.51,563c-2.23,0-4.46-.64-6.05-1.59l-10.51-6.05c-1.59-.96-2.23-1.91-2.23-2.87s.96-1.59,1.59-1.91l13.38-7.64c1.59-.96,3.19-.96,4.46-.96,2.23,0,4.46.64,6.05,1.59l10.51,6.05c1.59.96,2.23,1.91,2.23,2.87s-.96,1.59-1.59,1.91l-13.38,7.64c-1.27.64-2.87.96-4.46.96h0ZM504.83,539.75c-2.23,0-4.14.32-5.41,1.27l-13.38,7.64c-1.59.96-2.55,2.23-2.55,3.82s1.27,3.5,3.5,4.78l10.51,6.05c1.91,1.27,4.46,1.91,7.01,1.91s4.14-.32,5.73-1.27l13.38-7.64c1.59-.96,2.55-2.23,2.55-3.82s-1.27-3.5-3.5-4.78l-10.51-6.05c-1.91-1.27-4.78-1.91-7.01-1.91h-.32ZM504.51,568.09c-3.19,0-6.05-.64-8.6-2.23l-10.51-6.05c-3.19-1.91-4.78-4.46-4.78-7.33s1.59-5.1,4.14-6.37l13.38-7.64c4.14-2.55,10.83-2.23,15.61.64l10.51,6.05c3.19,1.91,4.78,4.46,4.78,7.33s-1.59,5.1-4.14,6.37l-13.38,7.64c-1.91.96-4.46,1.59-7.01,1.59h0Z"/><path id="Fill-61" class="cls-8" d="M540.83,522.55c-1.27,0-2.87,0-3.82.96l-13.38,7.64c-.64,0-.64.64-.64.64,0,0,.32.96,1.59,1.59l10.51,6.05c2.55,1.59,6.69,1.59,8.92.64l13.38-7.64c.64,0,.64-.64.64-.64,0,0-.32-.96-1.59-1.59l-10.51-6.05c-1.59-.96-3.5-1.27-5.41-1.27M540.19,545.8c-2.87,0-5.73-.64-7.96-1.91l-10.51-6.05c-2.55-1.59-4.14-3.82-4.14-6.05s1.27-3.82,3.19-5.1l13.38-7.64c3.82-2.23,9.87-1.91,14.33.64l10.51,6.05c2.55,1.59,4.14,3.82,4.14,6.05s-1.27,3.82-3.19,5.1l-13.38,7.64c-1.59.96-4.14,1.59-6.37,1.59"/><path id="Fill-63" class="cls-6" d="M525.22,532.1h0l10.51,6.05c2.23,1.27,5.73,1.59,7.64.64l12.74-7.33h0l-10.51-6.05c-1.27-.64-2.87-.96-4.46-.96s-2.23,0-2.87.64l-12.74,7.33-.32-.32ZM540.19,542.3c-2.23,0-4.46-.64-6.05-1.59l-10.51-6.05c-1.59-.96-2.23-1.91-2.23-2.87s.96-1.59,1.59-1.91l13.38-7.64c1.59-.96,3.19-.96,4.46-.96,2.23,0,4.46.64,6.05,1.59l10.51,6.05c1.59.96,2.23,1.91,2.23,2.87s-.96,1.59-1.59,1.91l-13.38,7.64c-1.27.64-2.87.96-4.46.96h0ZM540.83,519.04c-2.23,0-4.14.32-5.41,1.27l-13.38,7.64c-1.59.96-2.55,2.23-2.55,3.82s1.27,3.5,3.5,4.78l10.51,6.05c1.91,1.27,4.46,1.91,7.01,1.91s4.14-.32,5.41-1.27l13.38-7.64c1.59-.96,2.55-2.23,2.55-3.82s-1.27-3.5-3.5-4.78l-10.51-6.05c-1.91-1.27-4.46-1.91-7.01-1.91h0ZM540.19,547.39c-3.19,0-6.05-.64-8.6-2.23l-10.51-6.05c-3.19-1.91-4.78-4.46-4.78-7.33s1.59-5.1,4.14-6.37l13.38-7.64c4.14-2.55,11.15-2.23,15.61.64l10.51,6.05c3.19,1.91,4.78,4.46,4.78,7.33s-1.59,5.1-4.14,6.37l-13.38,7.64c-1.91.96-4.46,1.59-7.01,1.59h0Z"/><path id="Fill-65" class="cls-8" d="M576.5,501.84c-1.27,0-2.87,0-3.82.96l-13.38,7.64c-.64,0-.64.64-.64.64,0,0,.32.96,1.59,1.59l10.51,6.05c2.55,1.59,6.69,1.59,8.92.64l13.38-7.64,1.27,2.23-1.27-2.23c.64,0,.64-.64.64-.64,0,0-.32-.96-1.59-1.59l-10.51-6.05c-1.59-.96-3.5-1.27-5.41-1.27M576.18,525.1c-2.87,0-5.73-.64-7.96-1.91l-10.51-6.05c-2.55-1.59-4.14-3.82-4.14-6.05s1.27-3.82,3.19-5.1l13.38-7.64c3.82-2.23,9.87-1.91,14.33.64l10.51,6.05c2.55,1.59,4.14,3.82,4.14,6.05s-1.27,3.82-3.19,5.1l-13.38,7.64c-1.59.96-4.14,1.59-6.37,1.59"/><path id="Fill-67" class="cls-6" d="M560.89,511.4h0l10.51,6.05c2.23,1.27,5.73,1.59,7.64.64l12.1-7.01h.64l-10.51-6.05c-1.27-.64-2.87-.96-4.46-.96s-2.23,0-2.87.64l-12.74,7.33-.32-.64ZM576.18,521.59c-2.23,0-4.46-.64-6.05-1.59l-10.51-6.05c-1.59-.96-2.23-1.91-2.23-2.87s.96-1.59,1.59-1.91l13.38-7.64c1.59-.96,3.19-.96,4.46-.96,2.23,0,4.46.64,6.05,1.59l10.51,6.05c1.59.96,2.23,1.91,2.23,2.87v.96l.64,1.27-2.55,1.59-.64-.96-12.1,7.01c-1.27.64-2.87.96-4.46.96h0l-.32-.32ZM576.5,498.34c-2.23,0-4.14.32-5.41,1.27l-13.38,7.64c-1.59.96-2.55,2.23-2.55,3.82s1.27,3.5,3.5,4.78l10.51,6.05c1.91,1.27,4.46,1.91,7.01,1.91s4.14-.32,5.73-1.27l13.38-7.64c1.59-.96,2.55-2.23,2.55-3.82s-1.27-3.5-3.5-4.78l-10.51-6.05c-1.91-1.27-4.46-1.91-7.01-1.91h-.32ZM576.18,526.69c-3.19,0-6.05-.64-8.6-2.23l-10.51-6.05c-3.19-1.91-4.78-4.46-4.78-7.33s1.59-5.1,4.14-6.37l13.38-7.64c4.14-2.55,11.15-2.23,15.61.64l10.51,6.05c3.19,1.91,4.78,4.46,4.78,7.33s-1.59,5.1-4.14,6.37l-13.38,7.64c-1.91.96-4.46,1.59-7.01,1.59h0Z"/><path id="Fill-69" class="cls-8" d="M363.41,503.12c-1.27,0-2.87,0-3.82.96l-13.38,7.64c-.64,0-.64.64-.64.64,0,0,.32.96,1.59,1.59l10.51,6.05c2.55,1.59,6.69,1.59,8.92.32l13.38-7.64c.64,0,.64-.64.64-.64,0,0-.32-.96-1.59-1.59l-10.51-6.05c-1.59-.96-3.5-1.27-5.41-1.27M362.78,526.37c-2.87,0-5.73-.64-7.96-1.91l-10.51-6.05c-2.55-1.59-4.14-3.82-4.14-6.05s1.27-3.82,3.19-5.1l13.38-7.64c3.82-2.23,9.87-1.91,14.33.64l10.51,6.05c2.55,1.59,4.14,3.82,4.14,6.05,0,1.91-1.27,3.82-3.19,5.1l-13.38,7.64c-1.59.96-4.14,1.59-6.37,1.59"/><path id="Fill-71" class="cls-6" d="M347.81,512.36h0l10.51,6.05c2.23,1.27,5.73,1.59,7.64.64l12.74-7.33h0l-10.51-6.05c-1.27-.64-2.87-.96-4.46-.96s-2.23,0-2.87.64l-12.74,7.33-.32-.32ZM362.78,522.55c-2.23,0-4.46-.64-6.05-1.59l-10.51-6.05c-1.59-.96-2.23-1.91-2.23-2.87s.96-1.59,1.59-1.91l13.38-7.64c1.59-.96,3.19-.96,4.46-.96,2.23,0,4.46.64,6.05,1.59l10.51,6.05c1.59.96,2.23,1.91,2.23,2.87s-.96,1.59-1.59,1.91l-13.38,7.64c-1.27.64-2.87.96-4.46.96h0ZM363.41,499.3c-2.23,0-4.14.32-5.41,1.27l-13.38,7.64c-1.59.96-2.55,2.23-2.55,3.82s1.27,3.5,3.5,4.78l10.51,6.05c1.91,1.27,4.46,1.91,7.01,1.91s4.14-.32,5.73-1.27l13.38-7.64c1.59-.96,2.55-2.23,2.55-3.82s-1.27-3.5-3.5-4.78l-10.51-6.05c-1.91-1.27-4.46-1.91-7.01-1.91h-.32ZM362.78,527.96c-3.19,0-6.05-.64-8.6-2.23l-10.51-6.05c-3.19-1.91-4.78-4.46-4.78-7.33s1.59-5.1,4.14-6.37l13.38-7.64c4.14-2.55,11.15-2.23,15.61.64l10.51,6.05c3.19,1.91,4.78,4.46,4.78,7.33,0,2.55-1.59,5.1-4.14,6.37l-13.38,7.64c-1.91.96-4.46,1.59-7.01,1.59h0Z"/><path id="Fill-73" class="cls-8" d="M399.09,482.42c-1.27,0-2.87,0-3.82.96l-13.38,7.64c-.64,0-.64.64-.64.64,0,0,.32.96,1.59,1.59l10.51,6.05c2.55,1.59,6.69,1.59,8.92.64l13.38-7.64c.64,0,.64-.64.64-.64,0,0-.32-.96-1.59-1.59l-10.51-6.05c-1.59-.96-3.5-1.27-5.41-1.27M398.77,505.67c-2.87,0-5.73-.64-7.96-1.91l-10.51-6.05c-2.55-1.59-4.14-3.82-4.14-6.05,0-1.91,1.27-3.82,3.19-5.1l13.38-7.64c3.82-2.23,9.87-1.91,14.33.64l10.51,6.05c2.55,1.59,4.14,3.82,4.14,6.05s-1.27,3.82-3.19,5.1l-13.38,7.64c-1.59.96-4.14,1.59-6.37,1.59"/><path id="Fill-75" class="cls-6" d="M383.48,491.65h0l10.51,6.05c2.23,1.27,5.73,1.59,7.64.64l12.74-7.33h0l-10.51-6.05c-1.27-.64-2.87-.96-4.46-.96s-2.23,0-2.87.64l-12.74,7.33-.32-.32ZM398.77,502.16c-2.23,0-4.46-.64-6.05-1.59l-10.51-6.05c-1.59-.96-2.23-1.91-2.23-2.87s.96-1.59,1.59-1.91l13.38-7.64c1.59-.96,3.19-.96,4.46-.96,2.23,0,4.46.64,6.05,1.59l10.51,6.05c1.59.96,2.23,1.91,2.23,2.87s-.96,1.59-1.59,1.91l-13.38,7.64c-1.27.64-2.87.96-4.46.96h0ZM399.09,478.59c-2.23,0-4.14.32-5.41,1.27l-13.38,7.64c-1.59.96-2.55,2.23-2.55,3.82s1.27,3.5,3.5,4.78l10.51,6.05c1.91,1.27,4.46,1.91,7.01,1.91s4.14-.32,5.41-1.27l13.38-7.64c1.59-.96,2.55-2.23,2.55-3.82s-1.27-3.5-3.5-4.78l-10.51-6.05c-1.91-1.27-4.46-1.91-7.01-1.91h0ZM398.77,507.26c-3.19,0-6.05-.64-8.6-2.23l-10.51-6.05c-3.19-1.91-4.78-4.46-4.78-7.33,0-2.55,1.59-5.1,4.14-6.37l13.38-7.64c4.14-2.55,11.15-2.23,15.61.64l10.51,6.05c3.19,1.91,4.78,4.46,4.78,7.33s-1.59,5.1-4.14,6.37l-13.38,7.64c-1.91.96-4.46,1.59-7.01,1.59h0Z"/><path id="Fill-77" class="cls-8" d="M435.08,461.71c-1.27,0-2.87,0-3.82.96l-13.38,7.64c-.64,0-.64.64-.64.64,0,0,.32.96,1.59,1.59l10.51,6.05c2.55,1.59,7.01,1.59,8.92.64l13.38-7.64c.64,0,.64-.64.64-.64,0,0-.32-.96-1.59-1.59l-10.51-6.05c-1.59-.96-3.5-1.27-5.41-1.27M434.44,484.96c-2.87,0-5.73-.64-7.96-1.91l-10.51-6.05c-2.55-1.59-4.14-3.82-4.14-6.05s1.27-3.82,3.19-5.1l13.38-7.64c3.82-2.23,9.87-1.91,14.33.64l10.51,6.05c2.55,1.59,4.14,3.82,4.14,6.05s-1.27,3.82-3.19,5.1l-13.38,7.64c-1.59.96-4.14,1.59-6.37,1.59"/><path id="Fill-79" class="cls-6" d="M419.47,470.95h0l10.51,6.05c2.23,1.27,5.73,1.59,7.64.64l12.74-7.33h0l-10.51-6.05c-1.27-.64-2.87-.96-4.46-.96s-2.23,0-2.87.64l-12.74,7.33-.32-.32ZM434.44,481.46c-2.23,0-4.46-.64-6.05-1.59l-10.51-6.05c-1.59-.96-2.23-1.91-2.23-2.87s.96-1.59,1.59-1.91l13.38-7.64c1.59-.96,3.19-.96,4.46-.96,2.23,0,4.46.64,6.05,1.59l10.51,6.05c1.59.96,2.23,1.91,2.23,2.87s-.96,1.59-1.59,1.91l-13.38,7.64c-1.27.64-2.87.96-4.46.96h0ZM435.08,457.89c-2.23,0-4.14.32-5.41,1.27l-13.38,7.64c-1.59.96-2.55,2.23-2.55,3.82s1.27,3.5,3.5,4.78l10.51,6.05c1.91,1.27,4.46,1.91,7.01,1.91s4.14-.32,5.41-1.27l13.38-7.64c1.59-.96,2.55-2.23,2.55-3.82s-1.27-3.5-3.5-4.78l-10.51-6.05c-1.91-1.27-4.46-1.91-7.01-1.91h0ZM434.44,486.56c-3.19,0-6.05-.64-8.6-2.23l-10.51-6.05c-3.19-1.91-4.78-4.46-4.78-7.33s1.59-5.1,4.14-6.37l13.38-7.64c4.14-2.55,11.15-2.23,15.61.64l10.51,6.05c3.19,1.91,4.78,4.46,4.78,7.33s-1.59,5.1-4.14,6.37l-13.38,7.64c-1.91.96-4.46,1.59-7.01,1.59h0Z"/><path id="Fill-81" class="cls-8" d="M470.75,441.01c-1.27,0-2.87,0-3.82.96l-13.38,7.64c-.64,0-.64.64-.64.64,0,0,.32.96,1.59,1.59l10.51,6.05c2.55,1.59,6.69,1.59,8.92.64l13.38-7.64c.64,0,.64-.64.64-.64,0,0-.32-.96-1.59-1.59l-10.51-6.05c-1.59-.96-3.5-1.27-5.41-1.27M470.12,464.26c-2.87,0-5.73-.64-7.96-1.91l-10.51-6.05c-2.55-1.59-4.14-3.82-4.14-6.05s1.27-3.82,3.19-5.1l13.38-7.64c3.82-2.23,9.87-1.91,14.33.64l10.51,6.05c2.55,1.59,4.14,3.82,4.14,6.05s-1.27,3.82-3.19,5.1l-13.38,7.64c-1.59.96-4.14,1.59-6.37,1.59"/><path id="Fill-83" class="cls-6" d="M455.15,450.56h0l10.51,6.05c2.23,1.27,5.73,1.59,7.64.64l12.74-7.33h0l-10.51-6.05c-1.27-.64-2.87-.96-4.46-.96s-2.23,0-2.87.64l-12.74,7.33-.32-.32ZM470.12,460.76c-2.23,0-4.46-.64-6.05-1.59l-10.51-6.05c-1.59-.96-2.23-1.91-2.23-2.87s.96-1.59,1.59-1.91l13.38-7.64c1.59-.96,3.19-.96,4.46-.96,2.23,0,4.46.64,6.05,1.59l10.51,6.05c1.59.96,2.23,1.91,2.23,2.87s-.96,1.59-1.59,1.91l-13.38,7.64c-1.27.64-2.87.96-4.46.96h0ZM470.75,437.51c-2.23,0-4.14.32-5.41,1.27l-13.38,7.64c-1.59.96-2.55,2.23-2.55,3.82s1.27,3.5,3.5,4.78l10.51,6.05c1.91,1.27,4.46,1.91,7.01,1.91s4.14-.32,5.41-1.27l13.38-7.64c1.59-.96,2.55-2.23,2.55-3.82s-1.27-3.5-3.5-4.78l-10.51-6.05c-1.91-1.27-4.78-1.91-7.01-1.91h0ZM470.12,465.85c-3.19,0-6.05-.64-8.6-2.23l-10.51-6.05c-3.19-1.91-4.78-4.46-4.78-7.33s1.59-5.1,4.14-6.37l13.38-7.64c4.14-2.55,11.15-2.23,15.61.64l10.51,6.05c3.19,1.91,4.78,4.46,4.78,7.33s-1.59,5.1-4.14,6.37l-13.38,7.64c-1.91.96-4.46,1.59-7.01,1.59h0Z"/><path id="Fill-85" class="cls-2" d="M120.64,558.26c7.64-100.33,69.75-206.08,156.07-258.31,35.35-19.43,72.62-30.9,110.52-11.15-27.71-15.93-68.16-44.91-96.19-48.41-28.98-3.5-56.38,7.01-81.22,20.7-86.32,52.55-148.43,158.3-155.75,258.63l66.89,38.54,312.46-180.28c-2.55-43.32-19.43-74.21-45.55-89.18-29.3-16.88-69.12-13.06-110.84,11.15-43.32,24.84-82.18,67.84-110.52,116.89-26.12,44.91-42.68,95.23-45.55,141.74"/><path id="Fill-87" class="cls-6" d="M142.94,479.91c-7.96,22.61-13.38,45.87-15.93,68.8l300.36-173.59c-3.19-38.54-18.16-67.21-42.36-81.54-38.86-20.07-76.76-4.78-105.43,10.83-26.75,16.24-51.28,37.58-72.94,63.38-13.06,15.61-25.16,32.81-35.67,51.6-11.47,19.75-20.7,40.13-28.03,60.52h0ZM59.49,516.86l56.38,32.49c2.23-23.25,7.64-47.78,16.24-72.3,7.96-23.57,18.79-46.5,32.17-68.8,10.51-17.2,21.98-33.44,34.4-48.1,22.93-27.39,48.41-49.69,75.17-64.98,15.29-8.92,30.26-14.97,44.27-18.47,7.01-1.91,14.01-2.87,21.02-3.5h11.78c-20.7-12.42-43.64-25.16-60.84-27.39-29.94-3.82-57.33,8.92-78.03,20.07-41.41,25.16-77.72,62.75-105.75,109.25-27.07,44.91-43.32,93.64-47.46,141.42h0l.64.32ZM120.64,564.63l-72.3-42.04v-3.5c4.14-50.32,21.02-102.24,49.37-149.7,28.67-48.1,66.57-86.95,109.57-113.07h0c21.98-12.1,51.6-25.48,84.41-21.34,23.25,2.87,52.87,21.02,78.67,37.27,7.01,4.46,13.7,8.28,19.75,11.78h0c28.35,16.56,45.55,49.69,48.1,93.32v3.19l-317.55,183.46v.64Z"/><polygon id="Fill-89" class="cls-7" points="277.03 299.95 276.71 299.95 210.15 261.41 210.15 261.09 277.03 299.95"/><path id="Fill-132" class="cls-3" d="M120.64,558.26l312.46-180.28c-2.55-43.32-19.43-74.21-45.55-89.18-29.3-16.88-69.12-13.06-110.84,11.15-43.32,24.84-82.18,67.84-110.52,116.89-26.12,44.91-42.68,95.23-45.55,141.74"/><path id="Fill-134" class="cls-6" d="M346.79,283.71c-20.38,0-43.32,7.01-67.21,20.7-41.09,23.57-79.63,64.34-108.61,114.98-24.53,42.36-39.81,87.59-43.95,129.32l300.67-173.59c-3.19-38.54-18.16-67.52-42.68-81.54-11.15-6.37-24.21-9.87-38.22-9.87h0ZM120.64,559.54l-5.1-1.59c2.55-45.87,19.11-96.83,46.18-143.97,29.94-51.92,70.07-94.28,112.43-118.8,43.64-25.16,84.72-28.98,116.26-11.15,28.35,16.56,45.55,49.69,48.1,93.32v3.19l-317.87,178.37v.64Z"/><path id="Fill-136" class="cls-6" d="M120.64,558.26c7.64-100.33,69.75-206.08,156.07-258.31,35.35-19.43,72.62-30.9,110.52-11.15l-82.18-50.01s-71.03,0-128.04,42.68c-57.01,43-83.45,100.01-92.37,116.57-8.92,16.56-31.85,121.99-31.85,121.99l67.52,38.22h.32Z"/><path id="Fill-138" class="cls-3" d="M263.34,33.04c-90.78-11.15-189.51,184.74-112.75,231.24l66.89,38.54c-84.09-53.19,42.04-271.69,130.27-225.51-20.38-11.78-65.61-42.04-84.09-44.27"/><path id="Fill-140" class="cls-6" d="M255.69,37.82c-47.78,0-97.46,59.24-117.85,117.53-16.88,49.05-11.15,87.91,15.29,104.15l38.86,22.3c-16.88-35.35-3.5-89.18,21.34-131.86,25.16-43.32,64.98-81.86,104.79-84.41-19.75-12.1-43.95-26.12-55.42-27.39-2.23,0-4.46-.32-7.01-.32h0ZM214.6,307.28l-66.89-38.54c-31.53-19.11-38.86-62.75-20.07-116.89,11.47-33.13,31.53-65.61,55.1-88.86,26.44-26.12,55.1-38.86,81.22-35.67h0c15.61,1.91,45.87,20.38,70.07,35.35,6.37,3.82,11.78,7.33,16.24,9.87l-5.1,9.24c-23.57-12.42-47.78-2.55-64.02,7.96-21.34,14.01-42.36,36.95-58.61,65.29-16.24,28.35-26.12,57.97-27.39,83.45-.96,19.11,2.55,45.23,25.16,59.56l-5.41,9.24h-.32Z"/><path id="Fill-142" class="cls-1" d="M282.45,296.13h0c25.48-14.65,48.41-39.81,64.98-68.8h0c16.56-28.98,27.07-61.47,27.07-90.78s-10.19-50.01-27.07-59.56c-16.56-9.56-39.81-8.28-64.98,6.37-25.48,14.65-48.41,39.81-64.98,68.8-16.56,28.98-27.07,61.47-27.07,90.78s10.19,50.01,27.07,59.56c16.56,9.56,39.81,8.28,64.98-6.37"/><path id="Fill-144" class="cls-6" d="M323.53,76.36c-11.78,0-24.84,4.14-38.54,11.78-23.89,13.7-46.18,37.58-63.07,66.89-16.88,29.3-26.12,60.52-26.12,87.91s8.6,45.87,24.21,55.1c15.61,8.92,36.95,6.69,59.88-6.37h0c23.57-13.7,46.18-37.58,63.07-66.89l1.27-1.91c16.24-28.67,25.16-59.24,25.16-86s-8.6-45.87-24.21-55.1c-6.37-3.5-13.38-5.41-21.34-5.41M241.04,314.29c-9.87,0-18.79-2.23-26.44-6.69-19.11-11.15-29.62-33.76-29.62-64.34s9.87-62.43,27.71-93.32c17.84-30.9,41.72-56.06,67.21-70.71,13.06-7.64,25.8-11.78,37.9-13.06,12.1-.96,22.93,1.27,32.49,6.69,9.56,5.41,16.88,13.7,21.98,24.84,5.1,11.15,7.64,24.21,7.64,39.5,0,29.3-9.87,62.43-27.71,93.32l-9.87,17.2v-1.59c-16.24,23.57-35.99,42.68-57.01,54.78h0c-13.06,7.64-25.8,12.1-37.9,13.06h-5.73"/><path id="Fill-146" class="cls-4" d="M611.63,342.33c-20.7,11.78-54.15,11.78-74.53,0-20.7-11.78-20.7-31.21,0-43,20.7-11.78,54.15-11.78,74.53,0,20.38,11.78,20.7,31.21,0,43"/><path id="Fill-148" class="cls-6" d="M574.36,291.68c-13.38,0-26.44,2.87-36.63,8.6-9.56,5.41-14.65,12.74-14.65,20.38s5.1,14.97,14.65,20.38c20.07,11.78,53.19,11.78,73.26,0,9.56-5.41,14.65-12.74,14.65-20.38s-5.1-14.97-14.65-20.38c-10.19-5.73-23.25-8.6-36.63-8.6M574.36,352.52c-13.7,0-27.39-2.87-37.9-8.92-10.51-6.05-16.24-14.01-16.24-22.61s5.73-16.56,16.24-22.61c21.02-12.1,55.1-12.1,75.81,0,10.51,6.05,16.24,14.01,16.24,22.61s-5.73,16.56-16.24,22.61c-10.51,6.05-24.21,8.92-37.9,8.92"/><path id="Fill-150" class="cls-6" d="M574.36,292.96c-13.06,0-26.12,2.87-35.99,8.6-9.24,5.41-14.01,12.1-14.01,19.11s5.1,14.01,14.01,19.11c19.75,11.47,52.24,11.47,71.98,0,9.24-5.41,14.01-12.1,14.01-19.11s-5.1-14.01-14.01-19.11c-9.87-5.73-22.93-8.6-35.99-8.6M574.36,353.79c-14.01,0-28.03-3.19-38.54-9.24-10.83-6.37-16.88-14.65-16.88-23.89s6.05-17.52,16.88-23.89c21.34-12.42,56.06-12.42,77.4,0,10.83,6.37,16.88,14.65,16.88,23.89s-6.05,17.52-16.88,23.89c-10.51,6.05-24.53,9.24-38.54,9.24"/><path id="Fill-152" class="cls-6" d="M574.36,294.23c-13.38,0-25.8,2.87-35.35,8.28-8.6,5.1-13.38,11.47-13.38,18.16s4.78,13.06,13.38,18.16c19.43,11.15,51.28,11.15,70.71,0,8.6-5.1,13.38-11.47,13.38-18.16s-4.78-13.06-13.38-18.16c-9.24-5.41-21.98-8.28-35.35-8.28M574.36,349.97c-13.38,0-26.44-2.87-36.63-8.6-9.56-5.41-14.65-12.74-14.65-20.38s5.1-14.97,14.65-20.38c9.87-5.73,22.93-8.92,36.63-8.92s26.75,3.19,36.63,8.92c9.56,5.41,14.65,12.74,14.65,20.38s-5.1,14.97-14.65,20.38c-10.19,5.73-23.25,8.6-36.63,8.6M574.36,289.13c-13.7,0-27.39,2.87-37.9,8.92-10.51,6.05-16.24,14.01-16.24,22.61s5.73,16.56,16.24,22.61c10.19,5.73,23.57,8.92,37.9,8.92s27.71-3.19,37.9-8.92c10.51-6.05,16.24-14.01,16.24-22.61s-5.73-16.56-16.24-22.61c-10.51-6.05-24.21-8.92-37.9-8.92M574.36,355.07c-14.97,0-28.67-3.19-39.18-9.56-11.15-6.37-17.52-15.29-17.52-24.84s6.05-18.47,17.52-24.84c21.66-12.42,57.01-12.42,78.67,0,11.15,6.37,17.52,15.29,17.52,24.84s-6.05,18.47-17.52,24.84c-10.51,6.05-24.53,9.56-39.18,9.56"/><path id="Fill-154" class="cls-5" d="M627.23,320.67v15.29c0,7.96-5.1,15.93-15.61,21.66-20.7,11.78-54.15,11.78-74.53,0-10.19-5.73-15.29-13.7-15.61-21.34v-15.29c0,7.64,5.41,15.29,15.61,21.34,20.7,11.78,54.15,11.78,74.53,0,10.51-6.05,15.61-14.01,15.61-21.98"/><path id="Fill-156" class="cls-6" d="M523.08,330.86v5.41c0,7.64,5.41,14.65,14.65,20.07,20.07,11.78,53.19,11.78,73.26,0,9.56-5.41,14.97-13.06,14.65-20.7v-4.78c-2.55,4.78-7.33,9.24-13.38,12.74-21.02,12.1-55.1,12.1-75.81,0-6.37-3.5-10.83-7.96-13.38-12.74M574.36,367.81c-13.7,0-27.39-2.87-37.9-8.92-10.19-6.05-15.93-14.01-16.24-22.3v-15.29h2.55c0,7.64,5.41,14.65,14.65,20.07,20.07,11.78,53.19,11.78,73.26,0,9.56-5.41,14.65-12.42,14.65-20.07v-.64h2.55v15.29c0,8.6-5.73,16.88-16.24,22.93-10.51,6.05-24.21,8.92-37.9,8.92"/><path id="Fill-158" class="cls-6" d="M524.36,335v1.27c0,7.01,5.1,13.7,14.01,19.11,19.75,11.47,52.24,11.47,71.98,0,9.24-5.41,14.33-12.1,14.01-19.43v-.64c-2.87,3.5-6.69,6.69-11.47,9.56-21.34,12.42-56.06,12.42-77.4,0-4.78-2.87-8.6-6.05-11.47-9.56M574.36,369.08c-14.01,0-28.03-3.19-38.54-9.24-10.83-6.05-16.56-14.65-16.88-23.57v-15.29h5.41c0,7.01,5.1,13.7,14.01,19.11,19.75,11.47,52.24,11.47,71.98,0,8.92-5.1,14.01-11.78,14.01-19.11v-.64h5.41v15.29c0,9.24-5.73,17.84-16.88,24.21-10.51,6.05-24.53,9.24-38.54,9.24"/><path id="Fill-160" class="cls-6" d="M525.95,338.82c1.27,5.41,5.73,10.83,13.06,14.97,19.43,11.15,51.28,11.15,70.71,0,7.33-4.14,11.78-9.56,13.06-14.97-2.55,2.55-5.73,4.78-9.24,6.69-21.66,12.42-57.01,12.42-78.67,0-3.5-1.91-6.69-4.46-9.24-7.01h0l.32.32ZM574.36,364.94c-13.38,0-26.44-2.87-36.63-8.6-9.56-5.41-14.65-12.42-14.65-20.07v-5.1l2.23,2.87c2.87,3.5,6.37,6.37,11.15,9.24,21.02,12.1,55.1,12.1,75.81,0,4.78-2.55,8.28-5.73,11.15-9.24l2.23-2.87v4.46c0,7.64-5.1,14.97-14.65,20.7-10.19,5.73-23.25,8.6-36.63,8.6h0ZM520.21,322.26v14.01c0,8.6,5.73,16.56,16.24,22.3,10.19,5.73,23.57,8.92,37.9,8.92s27.71-3.19,37.9-8.92c10.51-6.05,16.24-14.33,16.24-22.93v-14.01h-2.55c-.32,7.33-5.73,14.01-14.65,19.43-20.07,11.78-53.19,11.78-73.26,0-8.92-5.1-14.01-11.78-14.65-18.79h-3.19ZM574.36,370.35c-14.97,0-28.67-3.19-39.18-9.56-11.15-6.37-17.2-15.29-17.52-24.53v-16.56h7.96v1.27c0,6.69,4.78,13.06,13.38,17.84,19.43,11.15,51.28,11.15,70.71,0,8.6-5.1,13.38-11.15,13.38-17.84v-1.91h7.96v16.56c0,9.56-6.05,18.79-17.52,25.16-10.51,6.05-24.53,9.56-39.18,9.56h0Z"/><path id="Fill-162" class="cls-4" d="M608.44,323.53c-20.7,11.78-54.15,11.78-74.53,0-20.7-11.78-20.7-31.21,0-43,20.7-11.78,54.15-11.78,74.53,0,20.7,11.78,20.7,31.21,0,43"/><path id="Fill-164" class="cls-6" d="M571.18,272.89c-13.38,0-26.44,2.87-36.63,8.6-9.56,5.41-14.65,12.74-14.65,20.38s5.1,14.97,14.65,20.38c20.07,11.78,53.19,11.78,73.26,0,9.56-5.41,14.65-12.74,14.65-20.38s-5.1-14.97-14.65-20.38c-10.19-5.73-23.25-8.6-36.63-8.6M571.18,333.73c-13.7,0-27.39-2.87-37.9-8.92-10.51-6.05-16.24-14.01-16.24-22.61s5.73-16.56,16.24-22.61c21.02-12.1,55.1-12.1,75.81,0,10.51,6.05,16.24,14.01,16.24,22.61s-5.73,16.56-16.24,22.61c-10.51,6.05-24.21,8.92-37.9,8.92"/><path id="Fill-166" class="cls-6" d="M571.18,274.16c-13.06,0-26.12,2.87-35.99,8.6-9.24,5.41-14.01,12.1-14.01,19.11s5.1,14.01,14.01,19.11c19.75,11.47,52.24,11.47,71.98,0,9.24-5.41,14.01-12.1,14.01-19.11s-5.1-14.01-14.01-19.11c-9.87-5.73-22.93-8.6-35.99-8.6M571.18,335c-14.01,0-28.03-3.19-38.54-9.24-10.83-6.37-16.88-14.65-16.88-23.89s6.05-17.52,16.88-23.89c21.34-12.42,56.06-12.42,77.4,0,10.83,6.37,16.88,14.65,16.88,23.89s-6.05,17.52-16.88,23.89c-10.51,6.05-24.53,9.24-38.54,9.24"/><path id="Fill-168" class="cls-6" d="M571.18,275.44c-13.38,0-25.8,2.87-35.35,8.28-8.6,5.1-13.38,11.47-13.38,18.16s4.78,13.06,13.38,18.16c19.43,11.15,51.28,11.15,70.71,0,8.6-5.1,13.38-11.47,13.38-18.16s-4.78-13.06-13.38-18.16c-9.24-5.41-21.98-8.28-35.35-8.28M571.18,331.18c-13.38,0-26.44-2.87-36.63-8.6-9.56-5.41-14.65-12.74-14.65-20.38s5.1-14.97,14.65-20.38c9.87-5.73,22.93-8.92,36.63-8.92s26.75,3.19,36.63,8.92c9.56,5.41,14.65,12.74,14.65,20.38s-5.1,14.97-14.65,20.38c-10.19,5.73-23.25,8.6-36.63,8.6M571.18,270.34c-13.7,0-27.39,2.87-37.9,8.92-10.51,6.05-16.24,14.01-16.24,22.61s5.73,16.56,16.24,22.61c10.19,5.73,23.57,8.92,37.9,8.92s27.71-3.19,37.9-8.92c10.51-6.05,16.24-14.01,16.24-22.61s-5.73-16.56-16.24-22.61c-10.51-6.05-24.21-8.92-37.9-8.92M571.18,336.27c-14.97,0-28.67-3.19-39.18-9.56-11.15-6.37-17.52-15.29-17.52-24.84s6.05-18.47,17.52-24.84c21.66-12.42,57.01-12.42,78.67,0,11.15,6.37,17.52,15.29,17.52,24.84s-6.05,18.47-17.52,24.84c-10.51,6.05-24.53,9.56-39.18,9.56"/><path id="Fill-170" class="cls-5" d="M623.73,301.56v15.29c0,7.96-5.1,15.93-15.61,21.66-20.7,11.78-54.15,11.78-74.53,0-10.19-5.73-15.29-13.7-15.61-21.34v-15.29c0,7.64,5.41,15.29,15.61,21.34,20.7,11.78,54.15,11.78,74.53,0,10.51-6.05,15.61-14.01,15.61-21.66"/><path id="Fill-172" class="cls-6" d="M519.58,311.75v5.41c0,7.64,5.41,14.65,14.65,20.07,20.07,11.78,53.19,11.78,73.26,0,9.56-5.73,14.97-13.06,14.65-20.7v-4.78c-2.55,4.78-7.33,9.24-13.38,12.74-21.02,12.1-55.1,12.1-75.81,0-6.37-3.5-10.83-7.96-13.38-12.74M571.18,348.7c-13.7,0-27.39-2.87-37.9-8.92-10.19-6.05-15.93-14.01-16.24-22.3v-15.29h2.55c0,7.64,5.41,14.65,14.65,20.07,20.07,11.78,53.19,11.78,73.26,0,9.56-5.41,14.65-12.42,14.65-20.07v-.64h2.55v15.29c0,8.6-5.73,16.88-16.24,22.93-10.51,6.05-24.21,8.92-37.9,8.92"/><path id="Fill-174" class="cls-6" d="M520.85,316.21v1.27c0,7.01,5.1,13.7,14.01,19.11,19.75,11.47,52.24,11.47,71.98,0,9.24-5.41,14.33-12.1,14.01-19.43v-.64c-2.87,3.5-6.69,6.69-11.47,9.56-21.34,12.42-56.06,12.42-77.4,0-4.78-2.87-8.6-6.05-11.47-9.56M571.18,350.29c-14.01,0-28.03-3.19-38.54-9.24-10.83-6.05-16.56-14.65-16.88-23.57v-15.29h5.41c0,7.01,5.1,13.7,14.01,19.11,19.75,11.47,52.24,11.47,71.98,0,8.92-5.1,14.01-11.78,14.01-19.11v-.64h5.41v15.29c0,9.24-5.73,17.84-16.88,24.21-10.51,6.05-24.53,9.24-38.54,9.24"/><path id="Fill-176" class="cls-6" d="M522.44,320.03c1.27,5.41,5.73,10.83,13.06,14.97,19.43,11.15,51.28,11.15,70.71,0,7.33-4.14,11.78-9.56,13.06-14.97-2.55,2.55-5.73,4.78-9.24,6.69-21.66,12.42-57.01,12.42-78.67,0-3.5-1.91-6.69-4.46-9.24-7.01h0l.32.32ZM571.18,346.15c-13.38,0-26.44-2.87-36.63-8.6-9.56-5.41-14.65-12.42-14.65-20.07v-5.1l2.23,2.87c2.87,3.5,6.37,6.37,11.15,9.24,21.02,12.1,55.1,12.1,75.81,0,4.78-2.55,8.28-5.73,11.15-9.24l2.23-2.87v4.46c0,7.64-5.1,14.97-14.65,20.7-10.19,5.73-23.25,8.6-36.63,8.6h0ZM517.03,303.47v14.01c0,8.6,5.73,16.56,16.24,22.3,10.19,5.73,23.57,8.92,37.9,8.92s27.71-3.19,37.9-8.92c10.51-6.05,16.24-14.33,16.24-22.93v-14.01h-2.55c-.32,7.33-5.73,14.01-14.65,19.43-20.07,11.78-53.19,11.78-73.26,0-8.92-5.1-14.01-11.78-14.65-18.79h-3.19ZM571.18,351.56c-14.97,0-28.67-3.19-39.18-9.56-11.15-6.37-17.2-15.29-17.52-24.53v-16.56h7.96v1.27c0,6.69,4.78,13.06,13.38,17.84,19.43,11.15,51.28,11.15,70.71,0,8.6-5.1,13.38-11.15,13.38-17.84v-1.91h7.96v16.56c0,9.56-6.05,18.79-17.52,25.16-10.51,6.05-24.53,9.56-39.18,9.56h0Z"/><path id="Fill-178" class="cls-3" d="M606.53,307.61c-20.7,11.78-54.15,11.78-74.53,0-20.7-11.78-20.7-31.21,0-43,20.7-11.78,54.15-11.78,74.53,0,20.7,11.78,20.7,31.21,0,43"/><path id="Fill-180" class="cls-6" d="M568.95,256.96c-13.38,0-26.44,2.87-36.63,8.6-9.56,5.41-14.65,12.74-14.65,20.38s5.1,14.97,14.65,20.38c20.07,11.78,53.19,11.78,73.26,0,9.56-5.41,14.65-12.74,14.65-20.38s-5.1-14.97-14.65-20.38c-10.19-5.73-23.25-8.6-36.63-8.6M568.95,317.8c-13.7,0-27.39-2.87-37.9-8.92-10.51-6.05-16.24-14.01-16.24-22.61s5.73-16.56,16.24-22.61c21.02-12.1,55.1-12.1,75.81,0,10.51,6.05,16.24,14.01,16.24,22.61s-5.73,16.56-16.24,22.61c-10.51,6.05-24.21,8.92-37.9,8.92"/><path id="Fill-182" class="cls-6" d="M568.95,258.24c-13.06,0-26.12,2.87-35.99,8.6-9.24,5.41-14.01,12.1-14.01,19.11s5.1,14.01,14.01,19.11c19.75,11.47,52.24,11.47,71.98,0,9.24-5.41,14.01-12.1,14.01-19.11s-5.1-14.01-14.01-19.11c-9.87-5.73-22.93-8.6-35.99-8.6M568.95,319.07c-14.01,0-28.03-3.19-38.54-9.24-10.83-6.37-16.88-14.65-16.88-23.89s6.05-17.52,16.88-23.89c21.34-12.42,56.06-12.42,77.4,0,10.83,6.37,16.88,14.65,16.88,23.89s-6.05,17.52-16.88,23.89c-10.51,6.05-24.53,9.24-38.54,9.24"/><path id="Fill-184" class="cls-6" d="M568.95,259.51c-13.38,0-25.8,2.87-35.35,8.28-8.6,5.1-13.38,11.47-13.38,18.16s4.78,13.06,13.38,18.16c19.43,11.15,51.28,11.15,70.71,0,8.6-5.1,13.38-11.47,13.38-18.16s-4.78-13.06-13.38-18.16c-9.24-5.41-21.98-8.28-35.35-8.28M568.95,315.25c-13.38,0-26.44-2.87-36.63-8.6-9.56-5.41-14.65-12.74-14.65-20.38s5.1-14.97,14.65-20.38c9.87-5.73,22.93-8.92,36.63-8.92s26.75,3.19,36.63,8.92c9.56,5.41,14.65,12.74,14.65,20.38s-5.1,14.97-14.65,20.38c-10.19,5.73-23.25,8.6-36.63,8.6M568.95,254.42c-13.7,0-27.39,2.87-37.9,8.92-10.51,6.05-16.24,14.01-16.24,22.61s5.73,16.56,16.24,22.61c10.19,5.73,23.57,8.92,37.9,8.92s27.71-3.19,37.9-8.92c10.51-6.05,16.24-14.01,16.24-22.61s-5.73-16.56-16.24-22.61c-10.51-6.05-24.21-8.92-37.9-8.92M568.95,320.67c-14.97,0-28.67-3.19-39.18-9.56-11.15-6.37-17.52-15.29-17.52-24.84s6.05-18.47,17.52-24.84c21.66-12.42,57.01-12.42,78.67,0,11.15,6.37,17.52,15.29,17.52,24.84s-6.05,18.47-17.52,24.84c-10.51,6.05-24.53,9.56-39.18,9.56"/><path id="Fill-186" class="cls-5" d="M621.82,285.95v15.29c0,7.96-5.1,15.93-15.61,21.98-20.7,11.78-54.15,11.78-74.53,0-10.19-5.73-15.29-13.7-15.61-21.34v-15.29c0,7.64,5.41,15.29,15.61,21.34,20.7,11.78,54.15,11.78,74.53,0,10.51-6.05,15.61-14.01,15.61-21.66"/><path id="Fill-188" class="cls-6" d="M517.67,296.14v5.41c0,7.64,5.41,14.65,14.65,20.07,20.07,11.78,53.19,11.78,73.26,0,9.56-5.73,14.97-13.06,14.65-20.7v-4.78c-2.55,4.78-7.33,9.24-13.38,12.74-21.02,12.1-55.1,12.1-75.81,0-6.37-3.5-10.83-7.96-13.38-12.74M568.95,333.09c-13.7,0-27.39-2.87-37.9-8.92-10.19-6.05-15.93-14.01-16.24-22.3v-15.29h2.55c0,7.64,5.41,14.65,14.65,20.07,20.07,11.78,53.19,11.78,73.26,0,9.56-5.41,14.65-12.42,14.65-20.07v-.64h2.55v15.29c0,8.6-5.73,16.88-16.24,22.93-10.51,6.05-24.21,8.92-37.9,8.92"/><path id="Fill-190" class="cls-6" d="M518.94,300.6v1.27c0,7.01,5.1,13.7,14.01,19.11,19.75,11.47,52.24,11.47,71.98,0,9.24-5.41,14.33-12.1,14.01-19.43v-.64c-2.87,3.5-6.69,6.69-11.47,9.56-21.34,12.42-56.06,12.42-77.4,0-4.78-2.87-8.6-6.05-11.47-9.56M568.95,334.36c-14.01,0-28.03-3.19-38.54-9.24-10.83-6.05-16.56-14.65-16.88-23.57v-15.29h5.41c0,7.01,5.1,13.7,14.01,19.11,19.75,11.47,52.24,11.47,71.98,0,8.92-5.1,14.01-11.78,14.01-19.11v-.64h5.41v15.29c0,9.24-5.73,17.84-16.88,24.21-10.51,6.05-24.53,9.24-38.54,9.24"/><path id="Fill-192" class="cls-6" d="M520.53,304.42c1.27,5.41,5.73,10.83,13.06,14.97,19.43,11.15,51.28,11.15,70.71,0,7.33-4.14,11.78-9.56,13.06-14.97-2.55,2.55-5.73,4.78-9.24,6.69-21.66,12.42-57.01,12.42-78.67,0-3.5-1.91-6.69-4.46-9.24-7.01h0l.32.32ZM568.95,330.54c-13.38,0-26.44-2.87-36.63-8.6-9.56-5.41-14.65-12.42-14.65-20.07v-5.1l2.23,2.87c2.87,3.5,6.37,6.37,11.15,9.24,21.02,12.1,55.1,12.1,75.81,0,4.78-2.55,8.28-5.73,11.15-9.24l2.23-2.87v4.46c0,7.64-5.1,14.97-14.65,20.7-10.19,5.73-23.25,8.6-36.63,8.6h0ZM515.12,287.86v14.01c0,8.6,5.73,16.56,16.24,22.3,10.19,5.73,23.57,8.92,37.9,8.92s27.71-3.19,37.9-8.92c10.51-6.05,16.24-14.33,16.24-22.93v-14.01h-2.55c-.32,7.33-5.73,14.01-14.65,19.43-20.07,11.78-53.19,11.78-73.26,0-8.92-5.1-14.01-11.78-14.65-18.79h-3.19ZM568.95,335.64c-14.97,0-28.67-3.19-39.18-9.56-11.15-6.37-17.2-15.29-17.52-24.53v-16.56h7.96v1.27c0,6.69,4.78,13.06,13.38,17.84,19.43,11.15,51.28,11.15,70.71,0,8.6-5.1,13.38-11.15,13.38-17.84v-1.91h7.96v16.56c0,9.56-6.05,18.79-17.52,25.16-10.51,6.05-24.53,9.56-39.18,9.56h0Z"/><path id="Fill-146-2" class="cls-4" d="M680.97,389.23c-20.7,11.78-54.15,11.78-74.53,0-20.7-11.78-20.7-31.21,0-43,20.7-11.78,54.15-11.78,74.53,0,20.38,11.78,20.7,31.21,0,43"/><path id="Fill-148-2" class="cls-6" d="M643.7,338.59c-13.38,0-26.44,2.87-36.63,8.6-9.56,5.41-14.65,12.74-14.65,20.38s5.1,14.97,14.65,20.38c20.07,11.78,53.19,11.78,73.26,0,9.56-5.41,14.65-12.74,14.65-20.38s-5.1-14.97-14.65-20.38c-10.19-5.73-23.25-8.6-36.63-8.6M643.7,399.43c-13.7,0-27.39-2.87-37.9-8.92-10.51-6.05-16.24-14.01-16.24-22.61s5.73-16.56,16.24-22.61c21.02-12.1,55.1-12.1,75.81,0,10.51,6.05,16.24,14.01,16.24,22.61s-5.73,16.56-16.24,22.61c-10.51,6.05-24.21,8.92-37.9,8.92"/><path id="Fill-150-2" class="cls-6" d="M643.7,339.87c-13.06,0-26.12,2.87-35.99,8.6-9.24,5.41-14.01,12.1-14.01,19.11s5.1,14.01,14.01,19.11c19.75,11.47,52.24,11.47,71.98,0,9.24-5.41,14.01-12.1,14.01-19.11s-5.1-14.01-14.01-19.11c-9.87-5.73-22.93-8.6-35.99-8.6M643.7,400.7c-14.01,0-28.03-3.19-38.54-9.24-10.83-6.37-16.88-14.65-16.88-23.89s6.05-17.52,16.88-23.89c21.34-12.42,56.06-12.42,77.4,0,10.83,6.37,16.88,14.65,16.88,23.89s-6.05,17.52-16.88,23.89c-10.51,6.05-24.53,9.24-38.54,9.24"/><path id="Fill-152-2" class="cls-6" d="M643.7,341.14c-13.38,0-25.8,2.87-35.35,8.28-8.6,5.1-13.38,11.47-13.38,18.16s4.78,13.06,13.38,18.16c19.43,11.15,51.28,11.15,70.71,0,8.6-5.1,13.38-11.47,13.38-18.16s-4.78-13.06-13.38-18.16c-9.24-5.41-21.98-8.28-35.35-8.28M643.7,396.88c-13.38,0-26.44-2.87-36.63-8.6-9.56-5.41-14.65-12.74-14.65-20.38s5.1-14.97,14.65-20.38c9.87-5.73,22.93-8.92,36.63-8.92s26.75,3.19,36.63,8.92c9.56,5.41,14.65,12.74,14.65,20.38s-5.1,14.97-14.65,20.38c-10.19,5.73-23.25,8.6-36.63,8.6M643.7,336.04c-13.7,0-27.39,2.87-37.9,8.92-10.51,6.05-16.24,14.01-16.24,22.61s5.73,16.56,16.24,22.61c10.19,5.73,23.57,8.92,37.9,8.92s27.71-3.19,37.9-8.92c10.51-6.05,16.24-14.01,16.24-22.61s-5.73-16.56-16.24-22.61c-10.51-6.05-24.21-8.92-37.9-8.92M643.7,401.97c-14.97,0-28.67-3.19-39.18-9.56-11.15-6.37-17.52-15.29-17.52-24.84s6.05-18.47,17.52-24.84c21.66-12.42,57.01-12.42,78.67,0,11.15,6.37,17.52,15.29,17.52,24.84s-6.05,18.47-17.52,24.84c-10.51,6.05-24.53,9.56-39.18,9.56"/><path id="Fill-154-2" class="cls-5" d="M696.58,367.58v15.29c0,7.96-5.1,15.93-15.61,21.66-20.7,11.78-54.15,11.78-74.53,0-10.19-5.73-15.29-13.7-15.61-21.34v-15.29c0,7.64,5.41,15.29,15.61,21.34,20.7,11.78,54.15,11.78,74.53,0,10.51-6.05,15.61-14.01,15.61-21.98"/><path id="Fill-156-2" class="cls-6" d="M592.42,377.77v5.41c0,7.64,5.41,14.65,14.65,20.07,20.07,11.78,53.19,11.78,73.26,0,9.56-5.41,14.97-13.06,14.65-20.7v-4.78c-2.55,4.78-7.33,9.24-13.38,12.74-21.02,12.1-55.1,12.1-75.81,0-6.37-3.5-10.83-7.96-13.38-12.74M643.7,414.72c-13.7,0-27.39-2.87-37.9-8.92-10.19-6.05-15.93-14.01-16.24-22.3v-15.29h2.55c0,7.64,5.41,14.65,14.65,20.07,20.07,11.78,53.19,11.78,73.26,0,9.56-5.41,14.65-12.42,14.65-20.07v-.64h2.55v15.29c0,8.6-5.73,16.88-16.24,22.93-10.51,6.05-24.21,8.92-37.9,8.92"/><path id="Fill-158-2" class="cls-6" d="M593.7,381.91v1.27c0,7.01,5.1,13.7,14.01,19.11,19.75,11.47,52.24,11.47,71.98,0,9.24-5.41,14.33-12.1,14.01-19.43v-.64c-2.87,3.5-6.69,6.69-11.47,9.56-21.34,12.42-56.06,12.42-77.4,0-4.78-2.87-8.6-6.05-11.47-9.56M643.7,415.99c-14.01,0-28.03-3.19-38.54-9.24-10.83-6.05-16.56-14.65-16.88-23.57v-15.29h5.41c0,7.01,5.1,13.7,14.01,19.11,19.75,11.47,52.24,11.47,71.98,0,8.92-5.1,14.01-11.78,14.01-19.11v-.64h5.41v15.29c0,9.24-5.73,17.84-16.88,24.21-10.51,6.05-24.53,9.24-38.54,9.24"/><path id="Fill-160-2" class="cls-6" d="M595.29,385.73c1.27,5.41,5.73,10.83,13.06,14.97,19.43,11.15,51.28,11.15,70.71,0,7.33-4.14,11.78-9.56,13.06-14.97-2.55,2.55-5.73,4.78-9.24,6.69-21.66,12.42-57.01,12.42-78.67,0-3.5-1.91-6.69-4.46-9.24-7.01h0l.32.32ZM643.7,411.85c-13.38,0-26.44-2.87-36.63-8.6-9.56-5.41-14.65-12.42-14.65-20.07v-5.1l2.23,2.87c2.87,3.5,6.37,6.37,11.15,9.24,21.02,12.1,55.1,12.1,75.81,0,4.78-2.55,8.28-5.73,11.15-9.24l2.23-2.87v4.46c0,7.64-5.1,14.97-14.65,20.7-10.19,5.73-23.25,8.6-36.63,8.6h0ZM589.56,369.17v14.01c0,8.6,5.73,16.56,16.24,22.3,10.19,5.73,23.57,8.92,37.9,8.92s27.71-3.19,37.9-8.92c10.51-6.05,16.24-14.33,16.24-22.93v-14.01h-2.55c-.32,7.33-5.73,14.01-14.65,19.43-20.07,11.78-53.19,11.78-73.26,0-8.92-5.1-14.01-11.78-14.65-18.79h-3.19ZM643.7,417.26c-14.97,0-28.67-3.19-39.18-9.56-11.15-6.37-17.2-15.29-17.52-24.53v-16.56h7.96v1.27c0,6.69,4.78,13.06,13.38,17.84,19.43,11.15,51.28,11.15,70.71,0,8.6-5.1,13.38-11.15,13.38-17.84v-1.91h7.96v16.56c0,9.56-6.05,18.79-17.52,25.16-10.51,6.05-24.53,9.56-39.18,9.56h0Z"/><path id="Fill-162-2" class="cls-4" d="M677.78,370.44c-20.7,11.78-54.15,11.78-74.53,0-20.7-11.78-20.7-31.21,0-43,20.7-11.78,54.15-11.78,74.53,0,20.7,11.78,20.7,31.21,0,43"/><path id="Fill-164-2" class="cls-6" d="M640.52,319.8c-13.38,0-26.44,2.87-36.63,8.6-9.56,5.41-14.65,12.74-14.65,20.38s5.1,14.97,14.65,20.38c20.07,11.78,53.19,11.78,73.26,0,9.56-5.41,14.65-12.74,14.65-20.38s-5.1-14.97-14.65-20.38c-10.19-5.73-23.25-8.6-36.63-8.6M640.52,380.63c-13.7,0-27.39-2.87-37.9-8.92-10.51-6.05-16.24-14.01-16.24-22.61s5.73-16.56,16.24-22.61c21.02-12.1,55.1-12.1,75.81,0,10.51,6.05,16.24,14.01,16.24,22.61s-5.73,16.56-16.24,22.61c-10.51,6.05-24.21,8.92-37.9,8.92"/><path id="Fill-166-2" class="cls-6" d="M640.52,321.07c-13.06,0-26.12,2.87-35.99,8.6-9.24,5.41-14.01,12.1-14.01,19.11s5.1,14.01,14.01,19.11c19.75,11.47,52.24,11.47,71.98,0,9.24-5.41,14.01-12.1,14.01-19.11s-5.1-14.01-14.01-19.11c-9.87-5.73-22.93-8.6-35.99-8.6M640.52,381.91c-14.01,0-28.03-3.19-38.54-9.24-10.83-6.37-16.88-14.65-16.88-23.89s6.05-17.52,16.88-23.89c21.34-12.42,56.06-12.42,77.4,0,10.83,6.37,16.88,14.65,16.88,23.89s-6.05,17.52-16.88,23.89c-10.51,6.05-24.53,9.24-38.54,9.24"/><path id="Fill-168-2" class="cls-6" d="M640.52,322.35c-13.38,0-25.8,2.87-35.35,8.28-8.6,5.1-13.38,11.47-13.38,18.16s4.78,13.06,13.38,18.16c19.43,11.15,51.28,11.15,70.71,0,8.6-5.1,13.38-11.47,13.38-18.16s-4.78-13.06-13.38-18.16c-9.24-5.41-21.98-8.28-35.35-8.28M640.52,378.09c-13.38,0-26.44-2.87-36.63-8.6-9.56-5.41-14.65-12.74-14.65-20.38s5.1-14.97,14.65-20.38c9.87-5.73,22.93-8.92,36.63-8.92s26.75,3.19,36.63,8.92c9.56,5.41,14.65,12.74,14.65,20.38s-5.1,14.97-14.65,20.38c-10.19,5.73-23.25,8.6-36.63,8.6M640.52,317.25c-13.7,0-27.39,2.87-37.9,8.92-10.51,6.05-16.24,14.01-16.24,22.61s5.73,16.56,16.24,22.61c10.19,5.73,23.57,8.92,37.9,8.92s27.71-3.19,37.9-8.92c10.51-6.05,16.24-14.01,16.24-22.61s-5.73-16.56-16.24-22.61c-10.51-6.05-24.21-8.92-37.9-8.92M640.52,383.18c-14.97,0-28.67-3.19-39.18-9.56-11.15-6.37-17.52-15.29-17.52-24.84s6.05-18.47,17.52-24.84c21.66-12.42,57.01-12.42,78.67,0,11.15,6.37,17.52,15.29,17.52,24.84s-6.05,18.47-17.52,24.84c-10.51,6.05-24.53,9.56-39.18,9.56"/><path id="Fill-170-2" class="cls-5" d="M693.07,348.47v15.29c0,7.96-5.1,15.93-15.61,21.66-20.7,11.78-54.15,11.78-74.53,0-10.19-5.73-15.29-13.7-15.61-21.34v-15.29c0,7.64,5.41,15.29,15.61,21.34,20.7,11.78,54.15,11.78,74.53,0,10.51-6.05,15.61-14.01,15.61-21.66"/><path id="Fill-172-2" class="cls-6" d="M588.92,358.66v5.41c0,7.64,5.41,14.65,14.65,20.07,20.07,11.78,53.19,11.78,73.26,0,9.56-5.73,14.97-13.06,14.65-20.7v-4.78c-2.55,4.78-7.33,9.24-13.38,12.74-21.02,12.1-55.1,12.1-75.81,0-6.37-3.5-10.83-7.96-13.38-12.74M640.52,395.6c-13.7,0-27.39-2.87-37.9-8.92-10.19-6.05-15.93-14.01-16.24-22.3v-15.29h2.55c0,7.64,5.41,14.65,14.65,20.07,20.07,11.78,53.19,11.78,73.26,0,9.56-5.41,14.65-12.42,14.65-20.07v-.64h2.55v15.29c0,8.6-5.73,16.88-16.24,22.93-10.51,6.05-24.21,8.92-37.9,8.92"/><path id="Fill-174-2" class="cls-6" d="M590.19,363.12v1.27c0,7.01,5.1,13.7,14.01,19.11,19.75,11.47,52.24,11.47,71.98,0,9.24-5.41,14.33-12.1,14.01-19.43v-.64c-2.87,3.5-6.69,6.69-11.47,9.56-21.34,12.42-56.06,12.42-77.4,0-4.78-2.87-8.6-6.05-11.47-9.56M640.52,397.2c-14.01,0-28.03-3.19-38.54-9.24-10.83-6.05-16.56-14.65-16.88-23.57v-15.29h5.41c0,7.01,5.1,13.7,14.01,19.11,19.75,11.47,52.24,11.47,71.98,0,8.92-5.1,14.01-11.78,14.01-19.11v-.64h5.41v15.29c0,9.24-5.73,17.84-16.88,24.21-10.51,6.05-24.53,9.24-38.54,9.24"/><path id="Fill-176-2" class="cls-6" d="M591.79,366.94c1.27,5.41,5.73,10.83,13.06,14.97,19.43,11.15,51.28,11.15,70.71,0,7.33-4.14,11.78-9.56,13.06-14.97-2.55,2.55-5.73,4.78-9.24,6.69-21.66,12.42-57.01,12.42-78.67,0-3.5-1.91-6.69-4.46-9.24-7.01h0l.32.32ZM640.52,393.06c-13.38,0-26.44-2.87-36.63-8.6-9.56-5.41-14.65-12.42-14.65-20.07v-5.1l2.23,2.87c2.87,3.5,6.37,6.37,11.15,9.24,21.02,12.1,55.1,12.1,75.81,0,4.78-2.55,8.28-5.73,11.15-9.24l2.23-2.87v4.46c0,7.64-5.1,14.97-14.65,20.7-10.19,5.73-23.25,8.6-36.63,8.6h0ZM586.37,350.38v14.01c0,8.6,5.73,16.56,16.24,22.3,10.19,5.73,23.57,8.92,37.9,8.92s27.71-3.19,37.9-8.92c10.51-6.05,16.24-14.33,16.24-22.93v-14.01h-2.55c-.32,7.33-5.73,14.01-14.65,19.43-20.07,11.78-53.19,11.78-73.26,0-8.92-5.1-14.01-11.78-14.65-18.79h-3.19ZM640.52,398.47c-14.97,0-28.67-3.19-39.18-9.56-11.15-6.37-17.2-15.29-17.52-24.53v-16.56h7.96v1.27c0,6.69,4.78,13.06,13.38,17.84,19.43,11.15,51.28,11.15,70.71,0,8.6-5.1,13.38-11.15,13.38-17.84v-1.91h7.96v16.56c0,9.56-6.05,18.79-17.52,25.16-10.51,6.05-24.53,9.56-39.18,9.56h0Z"/><path id="Fill-178-2" class="cls-3" d="M675.87,354.52c-20.7,11.78-54.15,11.78-74.53,0-20.7-11.78-20.7-31.21,0-43,20.7-11.78,54.15-11.78,74.53,0,20.7,11.78,20.7,31.21,0,43"/><path id="Fill-180-2" class="cls-6" d="M638.29,303.87c-13.38,0-26.44,2.87-36.63,8.6-9.56,5.41-14.65,12.74-14.65,20.38s5.1,14.97,14.65,20.38c20.07,11.78,53.19,11.78,73.26,0,9.56-5.41,14.65-12.74,14.65-20.38s-5.1-14.97-14.65-20.38c-10.19-5.73-23.25-8.6-36.63-8.6M638.29,364.71c-13.7,0-27.39-2.87-37.9-8.92-10.51-6.05-16.24-14.01-16.24-22.61s5.73-16.56,16.24-22.61c21.02-12.1,55.1-12.1,75.81,0,10.51,6.05,16.24,14.01,16.24,22.61s-5.73,16.56-16.24,22.61c-10.51,6.05-24.21,8.92-37.9,8.92"/><path id="Fill-182-2" class="cls-6" d="M638.29,305.15c-13.06,0-26.12,2.87-35.99,8.6-9.24,5.41-14.01,12.1-14.01,19.11s5.1,14.01,14.01,19.11c19.75,11.47,52.24,11.47,71.98,0,9.24-5.41,14.01-12.1,14.01-19.11s-5.1-14.01-14.01-19.11c-9.87-5.73-22.93-8.6-35.99-8.6M638.29,365.98c-14.01,0-28.03-3.19-38.54-9.24-10.83-6.37-16.88-14.65-16.88-23.89s6.05-17.52,16.88-23.89c21.34-12.42,56.06-12.42,77.4,0,10.83,6.37,16.88,14.65,16.88,23.89s-6.05,17.52-16.88,23.89c-10.51,6.05-24.53,9.24-38.54,9.24"/><path id="Fill-184-2" class="cls-6" d="M638.29,306.42c-13.38,0-25.8,2.87-35.35,8.28-8.6,5.1-13.38,11.47-13.38,18.16s4.78,13.06,13.38,18.16c19.43,11.15,51.28,11.15,70.71,0,8.6-5.1,13.38-11.47,13.38-18.16s-4.78-13.06-13.38-18.16c-9.24-5.41-21.98-8.28-35.35-8.28M638.29,362.16c-13.38,0-26.44-2.87-36.63-8.6-9.56-5.41-14.65-12.74-14.65-20.38s5.1-14.97,14.65-20.38c9.87-5.73,22.93-8.92,36.63-8.92s26.75,3.19,36.63,8.92c9.56,5.41,14.65,12.74,14.65,20.38s-5.1,14.97-14.65,20.38c-10.19,5.73-23.25,8.6-36.63,8.6M638.29,301.33c-13.7,0-27.39,2.87-37.9,8.92-10.51,6.05-16.24,14.01-16.24,22.61s5.73,16.56,16.24,22.61c10.19,5.73,23.57,8.92,37.9,8.92s27.71-3.19,37.9-8.92c10.51-6.05,16.24-14.01,16.24-22.61s-5.73-16.56-16.24-22.61c-10.51-6.05-24.21-8.92-37.9-8.92M638.29,367.58c-14.97,0-28.67-3.19-39.18-9.56-11.15-6.37-17.52-15.29-17.52-24.84s6.05-18.47,17.52-24.84c21.66-12.42,57.01-12.42,78.67,0,11.15,6.37,17.52,15.29,17.52,24.84s-6.05,18.47-17.52,24.84c-10.51,6.05-24.53,9.56-39.18,9.56"/><path id="Fill-186-2" class="cls-5" d="M691.16,332.86v15.29c0,7.96-5.1,15.93-15.61,21.98-20.7,11.78-54.15,11.78-74.53,0-10.19-5.73-15.29-13.7-15.61-21.34v-15.29c0,7.64,5.41,15.29,15.61,21.34,20.7,11.78,54.15,11.78,74.53,0,10.51-6.05,15.61-14.01,15.61-21.66"/><path id="Fill-188-2" class="cls-6" d="M587.01,343.05v5.41c0,7.64,5.41,14.65,14.65,20.07,20.07,11.78,53.19,11.78,73.26,0,9.56-5.73,14.97-13.06,14.65-20.7v-4.78c-2.55,4.78-7.33,9.24-13.38,12.74-21.02,12.1-55.1,12.1-75.81,0-6.37-3.5-10.83-7.96-13.38-12.74M638.29,380c-13.7,0-27.39-2.87-37.9-8.92-10.19-6.05-15.93-14.01-16.24-22.3v-15.29h2.55c0,7.64,5.41,14.65,14.65,20.07,20.07,11.78,53.19,11.78,73.26,0,9.56-5.41,14.65-12.42,14.65-20.07v-.64h2.55v15.29c0,8.6-5.73,16.88-16.24,22.93-10.51,6.05-24.21,8.92-37.9,8.92"/><path id="Fill-190-2" class="cls-6" d="M588.28,347.51v1.27c0,7.01,5.1,13.7,14.01,19.11,19.75,11.47,52.24,11.47,71.98,0,9.24-5.41,14.33-12.1,14.01-19.43v-.64c-2.87,3.5-6.69,6.69-11.47,9.56-21.34,12.42-56.06,12.42-77.4,0-4.78-2.87-8.6-6.05-11.47-9.56M638.29,381.27c-14.01,0-28.03-3.19-38.54-9.24-10.83-6.05-16.56-14.65-16.88-23.57v-15.29h5.41c0,7.01,5.1,13.7,14.01,19.11,19.75,11.47,52.24,11.47,71.98,0,8.92-5.1,14.01-11.78,14.01-19.11v-.64h5.41v15.29c0,9.24-5.73,17.84-16.88,24.21-10.51,6.05-24.53,9.24-38.54,9.24"/><path id="Fill-192-2" class="cls-6" d="M589.88,351.33c1.27,5.41,5.73,10.83,13.06,14.97,19.43,11.15,51.28,11.15,70.71,0,7.33-4.14,11.78-9.56,13.06-14.97-2.55,2.55-5.73,4.78-9.24,6.69-21.66,12.42-57.01,12.42-78.67,0-3.5-1.91-6.69-4.46-9.24-7.01h0l.32.32ZM638.29,377.45c-13.38,0-26.44-2.87-36.63-8.6-9.56-5.41-14.65-12.42-14.65-20.07v-5.1l2.23,2.87c2.87,3.5,6.37,6.37,11.15,9.24,21.02,12.1,55.1,12.1,75.81,0,4.78-2.55,8.28-5.73,11.15-9.24l2.23-2.87v4.46c0,7.64-5.1,14.97-14.65,20.7-10.19,5.73-23.25,8.6-36.63,8.6h0ZM584.46,334.77v14.01c0,8.6,5.73,16.56,16.24,22.3,10.19,5.73,23.57,8.92,37.9,8.92s27.71-3.19,37.9-8.92c10.51-6.05,16.24-14.33,16.24-22.93v-14.01h-2.55c-.32,7.33-5.73,14.01-14.65,19.43-20.07,11.78-53.19,11.78-73.26,0-8.92-5.1-14.01-11.78-14.65-18.79h-3.19ZM638.29,382.55c-14.97,0-28.67-3.19-39.18-9.56-11.15-6.37-17.2-15.29-17.52-24.53v-16.56h7.96v1.27c0,6.69,4.78,13.06,13.38,17.84,19.43,11.15,51.28,11.15,70.71,0,8.6-5.1,13.38-11.15,13.38-17.84v-1.91h7.96v16.56c0,9.56-6.05,18.79-17.52,25.16-10.51,6.05-24.53,9.56-39.18,9.56h0Z"/><path id="Fill-194" class="cls-3" d="M549.84,372.27c-20.7,11.78-54.15,11.78-74.53,0-20.7-11.78-20.7-31.21,0-43,20.7-11.78,54.15-11.78,74.53,0,20.7,11.78,20.7,31.21,0,43"/><path id="Fill-196" class="cls-6" d="M512.57,321.62c-13.38,0-26.44,2.87-36.63,8.6-9.56,5.41-14.65,12.74-14.65,20.38s5.1,14.97,14.65,20.38c20.07,11.78,53.19,11.78,73.26,0,9.56-5.41,14.65-12.74,14.65-20.38s-5.1-14.97-14.65-20.38c-10.19-5.73-23.25-8.6-36.63-8.6M512.57,382.46c-13.7,0-27.39-2.87-37.9-8.92-10.51-6.05-16.24-14.01-16.24-22.61s5.73-16.56,16.24-22.61c21.02-12.1,55.1-12.1,75.81,0,10.51,6.05,16.24,14.01,16.24,22.61s-5.73,16.56-16.24,22.61c-10.51,6.05-24.21,8.92-37.9,8.92"/><path id="Fill-198" class="cls-6" d="M512.57,322.9c-13.06,0-26.12,2.87-35.99,8.6-9.24,5.41-14.01,12.1-14.01,19.11s5.1,14.01,14.01,19.11c19.75,11.47,52.24,11.47,71.98,0,9.24-5.41,14.01-12.1,14.01-19.11s-5.1-14.01-14.01-19.11c-9.87-5.73-22.93-8.6-35.99-8.6M512.57,383.73c-14.01,0-28.03-3.19-38.54-9.24-10.83-6.37-16.88-14.65-16.88-23.89s6.05-17.52,16.88-23.89c21.34-12.42,56.06-12.42,77.4,0,10.83,6.37,16.88,14.65,16.88,23.89s-6.05,17.52-16.88,23.89c-10.51,6.05-24.53,9.24-38.54,9.24"/><path id="Fill-200" class="cls-6" d="M512.57,324.17c-13.38,0-25.8,2.87-35.35,8.28-8.6,5.1-13.38,11.47-13.38,18.16s4.78,13.06,13.38,18.16c19.43,11.15,51.28,11.15,70.71,0,8.6-5.1,13.38-11.47,13.38-18.16s-4.78-13.06-13.38-18.16c-9.24-5.41-21.98-8.28-35.35-8.28M512.57,379.91c-13.38,0-26.44-2.87-36.63-8.6-9.56-5.41-14.65-12.74-14.65-20.38s5.1-14.97,14.65-20.38c9.87-5.73,22.93-8.92,36.63-8.92s26.75,3.19,36.63,8.92c9.56,5.41,14.65,12.74,14.65,20.38s-5.1,14.97-14.65,20.38c-10.19,5.73-23.25,8.6-36.63,8.6M512.57,319.07c-13.7,0-27.39,2.87-37.9,8.92-10.51,6.05-16.24,14.01-16.24,22.61s5.73,16.56,16.24,22.61c10.19,5.73,23.57,8.92,37.9,8.92s27.71-3.19,37.9-8.92c10.51-6.05,16.24-14.01,16.24-22.61s-5.73-16.56-16.24-22.61c-10.51-6.05-24.21-8.92-37.9-8.92M512.57,385.01c-14.97,0-28.67-3.19-39.18-9.56-11.15-6.37-17.52-15.29-17.52-24.84s6.05-18.47,17.52-24.84c21.66-12.42,57.01-12.42,78.67,0,11.15,6.37,17.52,15.29,17.52,24.84s-6.05,18.47-17.52,24.84c-10.51,6.05-24.53,9.56-39.18,9.56"/><path id="Fill-202" class="cls-5" d="M565.12,350.61v15.29c0,7.96-5.1,15.93-15.61,21.66-20.7,11.78-54.15,11.78-74.53,0-10.19-5.73-15.29-13.7-15.61-21.34v-15.29c0,7.64,5.41,15.29,15.61,21.34,20.7,11.78,54.15,11.78,74.53,0,10.51-6.05,15.61-14.01,15.61-21.66"/><path id="Fill-204" class="cls-6" d="M460.97,360.8v5.41c0,7.64,5.41,14.65,14.65,20.07,20.07,11.78,53.19,11.78,73.26,0,9.56-5.41,14.97-13.06,14.65-20.7v-4.78c-2.55,4.78-7.33,9.24-13.38,12.74-21.02,12.1-55.1,12.1-75.81,0-6.37-3.5-10.83-7.96-13.38-12.74M512.57,397.75c-13.7,0-27.39-2.87-37.9-8.92-10.19-6.05-15.93-14.01-16.24-22.3v-15.29h2.55c0,7.64,5.41,14.65,14.65,20.07,20.07,11.78,53.19,11.78,73.26,0,9.56-5.41,14.65-12.42,14.65-20.07v-.64h2.55v15.29c0,8.6-5.73,16.88-16.24,22.93-10.51,6.05-24.21,8.92-37.9,8.92"/><path id="Fill-206" class="cls-6" d="M462.56,364.94v1.27c0,7.01,5.1,13.7,14.01,19.11,19.75,11.47,52.24,11.47,71.98,0,9.24-5.41,14.33-12.1,14.01-19.43v-.64c-2.87,3.5-6.69,6.69-11.47,9.56-21.34,12.42-56.06,12.42-77.4,0-4.78-2.87-8.6-6.05-11.47-9.56M512.57,399.02c-14.01,0-28.03-3.19-38.54-9.24-10.83-6.05-16.56-14.65-16.88-23.57v-15.29h5.41c0,7.01,5.1,13.7,14.01,19.11,19.75,11.47,52.24,11.47,71.98,0,8.92-5.1,14.01-11.78,14.01-19.11v-.64h5.41v15.29c0,9.24-5.73,17.84-16.88,24.21-10.51,6.05-24.53,9.24-38.54,9.24"/><path id="Fill-208" class="cls-6" d="M464.16,368.76c1.27,5.41,5.73,10.83,13.06,14.97,19.43,11.15,51.28,11.15,70.71,0,7.33-4.14,11.78-9.56,13.06-14.97-2.55,2.55-5.73,4.78-9.24,6.69-21.66,12.42-57.01,12.42-78.67,0-3.5-1.91-6.69-4.46-9.24-7.01h0l.32.32ZM512.57,394.88c-13.38,0-26.44-2.87-36.63-8.6-9.56-5.41-14.65-12.42-14.65-20.07v-5.1l2.23,2.87c2.87,3.5,6.37,6.37,11.15,9.24,21.02,12.1,55.1,12.1,75.81,0,4.78-2.55,8.28-5.73,11.15-9.24l2.23-2.87v4.46c0,7.64-5.1,14.97-14.65,20.7-10.19,5.73-23.25,8.6-36.63,8.6h0ZM458.42,352.2v14.01c0,8.6,5.73,16.56,16.24,22.3,10.19,5.73,23.57,8.92,37.9,8.92s27.71-3.19,37.9-8.92c10.51-6.05,16.24-14.33,16.24-22.93v-14.01h-2.55c-.32,7.33-5.73,14.01-14.65,19.43-20.07,11.78-53.19,11.78-73.26,0-8.92-5.1-14.01-11.78-14.65-18.79h-3.19ZM512.57,400.29c-14.97,0-28.67-3.19-39.18-9.56-11.15-6.37-17.2-15.29-17.52-24.53v-16.56h7.96v1.27c0,6.69,4.78,13.06,13.38,17.84,19.43,11.15,51.28,11.15,70.71,0,8.6-5.1,13.38-11.15,13.38-17.84v-1.91h7.96v16.56c0,9.56-6.05,18.79-17.52,25.16-10.51,6.05-24.53,9.56-39.18,9.56h0Z"/><path id="Fill-194-2" class="cls-3" d="M675.71,320.32c-20.7,11.78-54.15,11.78-74.53,0-20.7-11.78-20.7-31.21,0-43,20.7-11.78,54.15-11.78,74.53,0,20.7,11.78,20.7,31.21,0,43"/><path id="Fill-196-2" class="cls-6" d="M638.45,269.67c-13.38,0-26.44,2.87-36.63,8.6-9.56,5.41-14.65,12.74-14.65,20.38s5.1,14.97,14.65,20.38c20.07,11.78,53.19,11.78,73.26,0,9.56-5.41,14.65-12.74,14.65-20.38s-5.1-14.97-14.65-20.38c-10.19-5.73-23.25-8.6-36.63-8.6M638.45,330.51c-13.7,0-27.39-2.87-37.9-8.92-10.51-6.05-16.24-14.01-16.24-22.61s5.73-16.56,16.24-22.61c21.02-12.1,55.1-12.1,75.81,0,10.51,6.05,16.24,14.01,16.24,22.61s-5.73,16.56-16.24,22.61c-10.51,6.05-24.21,8.92-37.9,8.92"/><path id="Fill-198-2" class="cls-6" d="M638.45,270.95c-13.06,0-26.12,2.87-35.99,8.6-9.24,5.41-14.01,12.1-14.01,19.11s5.1,14.01,14.01,19.11c19.75,11.47,52.24,11.47,71.98,0,9.24-5.41,14.01-12.1,14.01-19.11s-5.1-14.01-14.01-19.11c-9.87-5.73-22.93-8.6-35.99-8.6M638.45,331.78c-14.01,0-28.03-3.19-38.54-9.24-10.83-6.37-16.88-14.65-16.88-23.89s6.05-17.52,16.88-23.89c21.34-12.42,56.06-12.42,77.4,0,10.83,6.37,16.88,14.65,16.88,23.89s-6.05,17.52-16.88,23.89c-10.51,6.05-24.53,9.24-38.54,9.24"/><path id="Fill-200-2" class="cls-6" d="M638.45,272.22c-13.38,0-25.8,2.87-35.35,8.28-8.6,5.1-13.38,11.47-13.38,18.16s4.78,13.06,13.38,18.16c19.43,11.15,51.28,11.15,70.71,0,8.6-5.1,13.38-11.47,13.38-18.16s-4.78-13.06-13.38-18.16c-9.24-5.41-21.98-8.28-35.35-8.28M638.45,327.96c-13.38,0-26.44-2.87-36.63-8.6-9.56-5.41-14.65-12.74-14.65-20.38s5.1-14.97,14.65-20.38c9.87-5.73,22.93-8.92,36.63-8.92s26.75,3.19,36.63,8.92c9.56,5.41,14.65,12.74,14.65,20.38s-5.1,14.97-14.65,20.38c-10.19,5.73-23.25,8.6-36.63,8.6M638.45,267.13c-13.7,0-27.39,2.87-37.9,8.92-10.51,6.05-16.24,14.01-16.24,22.61s5.73,16.56,16.24,22.61c10.19,5.73,23.57,8.92,37.9,8.92s27.71-3.19,37.9-8.92c10.51-6.05,16.24-14.01,16.24-22.61s-5.73-16.56-16.24-22.61c-10.51-6.05-24.21-8.92-37.9-8.92M638.45,333.06c-14.97,0-28.67-3.19-39.18-9.56-11.15-6.37-17.52-15.29-17.52-24.84s6.05-18.47,17.52-24.84c21.66-12.42,57.01-12.42,78.67,0,11.15,6.37,17.52,15.29,17.52,24.84s-6.05,18.47-17.52,24.84c-10.51,6.05-24.53,9.56-39.18,9.56"/><path id="Fill-202-2" class="cls-5" d="M691,298.66v15.29c0,7.96-5.1,15.93-15.61,21.66-20.7,11.78-54.15,11.78-74.53,0-10.19-5.73-15.29-13.7-15.61-21.34v-15.29c0,7.64,5.41,15.29,15.61,21.34,20.7,11.78,54.15,11.78,74.53,0,10.51-6.05,15.61-14.01,15.61-21.66"/><path id="Fill-204-2" class="cls-6" d="M586.85,308.85v5.41c0,7.64,5.41,14.65,14.65,20.07,20.07,11.78,53.19,11.78,73.26,0,9.56-5.41,14.97-13.06,14.65-20.7v-4.78c-2.55,4.78-7.33,9.24-13.38,12.74-21.02,12.1-55.1,12.1-75.81,0-6.37-3.5-10.83-7.96-13.38-12.74M638.45,345.8c-13.7,0-27.39-2.87-37.9-8.92-10.19-6.05-15.93-14.01-16.24-22.3v-15.29h2.55c0,7.64,5.41,14.65,14.65,20.07,20.07,11.78,53.19,11.78,73.26,0,9.56-5.41,14.65-12.42,14.65-20.07v-.64h2.55v15.29c0,8.6-5.73,16.88-16.24,22.93-10.51,6.05-24.21,8.92-37.9,8.92"/><path id="Fill-206-2" class="cls-6" d="M588.44,312.99v1.27c0,7.01,5.1,13.7,14.01,19.11,19.75,11.47,52.24,11.47,71.98,0,9.24-5.41,14.33-12.1,14.01-19.43v-.64c-2.87,3.5-6.69,6.69-11.47,9.56-21.34,12.42-56.06,12.42-77.4,0-4.78-2.87-8.6-6.05-11.47-9.56M638.45,347.07c-14.01,0-28.03-3.19-38.54-9.24-10.83-6.05-16.56-14.65-16.88-23.57v-15.29h5.41c0,7.01,5.1,13.7,14.01,19.11,19.75,11.47,52.24,11.47,71.98,0,8.92-5.1,14.01-11.78,14.01-19.11v-.64h5.41v15.29c0,9.24-5.73,17.84-16.88,24.21-10.51,6.05-24.53,9.24-38.54,9.24"/><path id="Fill-208-2" class="cls-6" d="M590.03,316.81c1.27,5.41,5.73,10.83,13.06,14.97,19.43,11.15,51.28,11.15,70.71,0,7.33-4.14,11.78-9.56,13.06-14.97-2.55,2.55-5.73,4.78-9.24,6.69-21.66,12.42-57.01,12.42-78.67,0-3.5-1.91-6.69-4.46-9.24-7.01h0l.32.32ZM638.45,342.93c-13.38,0-26.44-2.87-36.63-8.6-9.56-5.41-14.65-12.42-14.65-20.07v-5.1l2.23,2.87c2.87,3.5,6.37,6.37,11.15,9.24,21.02,12.1,55.1,12.1,75.81,0,4.78-2.55,8.28-5.73,11.15-9.24l2.23-2.87v4.46c0,7.64-5.1,14.97-14.65,20.7-10.19,5.73-23.25,8.6-36.63,8.6h0ZM584.3,300.25v14.01c0,8.6,5.73,16.56,16.24,22.3,10.19,5.73,23.57,8.92,37.9,8.92s27.71-3.19,37.9-8.92c10.51-6.05,16.24-14.33,16.24-22.93v-14.01h-2.55c-.32,7.33-5.73,14.01-14.65,19.43-20.07,11.78-53.19,11.78-73.26,0-8.92-5.1-14.01-11.78-14.65-18.79h-3.19ZM638.45,348.35c-14.97,0-28.67-3.19-39.18-9.56-11.15-6.37-17.2-15.29-17.52-24.53v-16.56h7.96v1.27c0,6.69,4.78,13.06,13.38,17.84,19.43,11.15,51.28,11.15,70.71,0,8.6-5.1,13.38-11.15,13.38-17.84v-1.91h7.96v16.56c0,9.56-6.05,18.79-17.52,25.16-10.51,6.05-24.53,9.56-39.18,9.56h0Z"/></svg>