<?xml version="1.0" encoding="UTF-8"?><svg id="Layer_1" xmlns="http://www.w3.org/2000/svg" viewBox="0 0 720 720"><defs><style>.cls-1{fill:#f4d9dc;}.cls-2{fill:#3d68ec;}</style></defs><path d="M168.35,504.09c0-.36-.07-.75,0-1.11v-191.49l192.38-68.57c11.66-6.68,180.01,76.39,180.01,76.39v187.5c1.16,5.01-1.99,10.67-9.36,14.9l-147.64,88.24c-11.61,6.68-29.17,7.4-39.23,1.61l-169.42-97.51c-4.68-2.67-6.73-6.25-6.73-9.98v.02Z"/><path d="M342.14,615.64l-169.42-97.51c-5.96-3.41-9.17-8.43-9.04-14.14v-195.84l194.75-69.35c12.11-6.93,120.71,44.82,184.43,76.26l2.63,1.29v189.89c1.41,7.18-2.95,14.44-11.66,19.46l-147.64,88.29c-7.12,4.1-16.03,6.17-24.55,6.17-7.18,0-14.17-1.51-19.49-4.56v.02h0ZM362.34,247.31l-189.24,67.49v189.41c-.07,2.72,2.31,4.66,4.3,5.81l169.49,97.51c8.59,4.92,24.42,4.17,34.43-1.6l147.69-88.29c5.13-2.94,7.82-6.68,7.12-9.73l-.12-.54v-185.16c-76.8-37.83-163.15-76.51-173.66-74.9h0Z"/><path class="cls-2" d="M540.74,319.34v187.5c1.16,5.01-1.99,10.67-9.36,14.9l-147.64,88.25c-8.27,4.78-19.62,6.46-29.11,4.94v-169.78l131.99-151.85c30.32,14.3,54.1,26.02,54.1,26.02v.02h0Z"/><path d="M353.94,619.58l-3.97-.64v-175.53l135.45-155.86,3.27,1.53c30.32,14.32,54.1,26.07,54.1,26.07l2.63,1.29v189.91c1.41,7.2-2.88,14.44-11.61,19.45l-147.69,88.28c-6.86,3.95-15.7,6.11-24.42,6.11-2.63,0-5.25-.2-7.76-.61h0ZM487.85,299.09l-128.47,147.83v163.81c7.69.49,16.03-1.31,21.92-4.74l147.69-88.29c5.13-2.94,7.82-6.68,7.12-9.72l-.19-.54v-185.15c-6.6-3.25-25.26-12.37-48.08-23.18v-.02h0Z"/><path class="cls-2" d="M135.08,331.54c0-.42-.07-.83,0-1.25v-79.38c0-.87.64-1.61,1.54-1.74l169.11-26.06c.26-.04.52-.12.71-.27l25.06-16.15c13.08-7.53,32.89-8.35,44.24-1.82l99.05,57.01c.32.2.77.29,1.16.22l96.03-14.81c1.02-.16,1.99.66,1.99,1.73v74.32c1.41,5.67-2.18,12.01-10.52,16.81l-185.64,110.66c-13.14,7.53-32.89,8.35-44.24,1.83l-190.9-109.89c-5.2-3.01-7.63-7.05-7.57-11.23h0Z"/><path d="M331.18,456.68l-190.9-109.83c-6.48-3.73-10-9.2-9.88-15.39l4.75.09-4.75-.27v-80.36c0-3.23,2.31-5.89,5.51-6.37l168.47-25.98,24.74-15.91c14.61-8.41,36.15-9.2,48.97-1.81l98.15,56.47,95-14.64c1.86-.31,3.78.24,5.2,1.49,1.41,1.23,2.24,3.03,2.24,4.88v73.81c1.6,7.84-3.21,15.82-12.82,21.34l-185.78,110.68c-7.88,4.56-17.82,6.88-27.31,6.88-8.01,0-15.7-1.65-21.61-5.03v-.03ZM476.69,266.69c-1.41.24-2.88-.03-4.23-.79l-99.1-57.01c-9.81-5.65-27.88-4.82-39.3,1.72l-25.13,16.2-1.54.76-167.57,25.86v78.2c-.07,3.36,2.76,5.7,5.2,7.1l190.9,109.86c9.88,5.65,27.95,4.82,39.42-1.8l185.78-110.68c5.96-3.45,9.17-7.9,8.21-11.62l-.12-.54v-71.47l-92.5,14.26v-.06Z"/><path d="M306.25,223.04l25.39-16.36c13.08-7.52,32.89-8.35,44.24-1.83l56.09,32.28-77.18,91.59v128.23c-7.82.29-15.51-1.13-21.09-4.36l-190.91-109.79c-5.2-3.01-7.63-7.04-7.57-11.23,0-.42-.07-.83,0-1.25v-79.43c0-.83.64-1.54,1.47-1.68l169.56-26.14v-.02h0Z"/><path d="M331.31,456.68l-190.91-109.81c-6.48-3.73-10-9.2-9.87-15.59v-80.43c0-3.17,2.31-5.83,5.44-6.3l168.53-25.98,24.81-15.93c14.55-8.41,36.09-9.22,48.92-1.83l60.96,35.08-79.68,94.58v131.04l-4.49.16c-.71,0-1.47.04-2.18.04-8.27,0-15.84-1.76-21.54-5.02h0ZM373.48,208.94c-9.81-5.66-27.95-4.82-39.3,1.71l-25.39,16.36-168.85,26.42v78.2c-.07,3.36,2.76,5.72,5.2,7.1l190.91,109.83c3.59,2.08,8.59,3.35,14.04,3.68v-125.2l74.62-88.63-51.22-29.47h0Z"/><path class="cls-2" d="M142.65,261.91l190.9,109.83c11.35,6.51,31.16,5.71,44.24-1.83l185.71-110.66c13.08-7.52,14.49-18.91,3.14-25.43l-190.9-109.84c-11.35-6.51-31.16-5.7-44.24,1.84l-185.71,110.64c-13.08,7.52-14.49,18.91-3.14,25.44v.02h0Z"/><path class="cls-1" d="M333.55,371.74l-184.88-106.38,182.83-108.96c13.14-7.53,32.89-8.35,44.24-1.83l184.94,106.38-182.89,108.96c-13.08,7.52-32.89,8.35-44.24,1.83h0Z"/><path d="M331.18,375.8l-190.9-109.84c-6.41-3.72-10-9.07-10-15.11,0-6.92,4.8-13.65,13.14-18.44l185.71-110.68c14.61-8.41,36.15-9.22,48.92-1.81l190.96,109.85c6.41,3.72,10,9.07,10,15.11,0,6.9-4.8,13.63-13.14,18.42l-185.78,110.68c-7.88,4.57-43.01,5.21-48.92,1.82h0ZM333.94,129.83l-185.78,110.7c-5.32,3.05-8.46,6.93-8.46,10.33s2.88,5.59,5.32,6.98l190.9,109.84c9.81,5.66,27.95,4.84,39.42-1.81l185.78-110.68c5.25-3.05,8.46-6.92,8.46-10.33s-2.88-5.59-5.32-6.98l-190.9-109.85c-4.36-2.54-10.45-3.75-16.79-3.75-7.89,0-16.29,1.89-22.63,5.55Z"/><path class="cls-2" d="M181.5,361.11l-3.52,6.11,153.98,88.46,3.52-6.11-153.98-88.46Z"/><path d="M391.12,545.28c-2.63-1.51-4.16-4.54-4.16-8.27v-47.7c0-5.5,3.27-11.53,7.57-13.99l101.8-58.58c2.76-1.6,5.7-1.69,8.14-.29,2.69,1.51,4.16,4.54,4.16,8.27v47.7c0,5.48-3.27,11.51-7.57,14l-101.8,58.57c-1.47.85-2.95,1.25-4.42,1.25-1.28,0-2.56-.32-3.72-.98v.02ZM394.45,536.93l2.44,4.01-2.31-4.06s-.07,0-.12.05ZM399.26,483.42c-1.28.75-2.82,3.54-2.82,5.86l.07,46.45,99.88-57.45c1.28-.75,2.82-3.59,2.82-5.86l-.07-46.46-99.88,57.45h0Z"/><path d="M488.04,429.62h-9.43v61.56h9.43v-61.56Z"/><path class="cls-2" d="M305.86,547.4l-101.8-58.58c-3.97-2.3-6.98-7.88-6.98-12.99v-47.7c0-3.31,1.35-5.95,3.59-7.26,2.05-1.17,4.55-1.09,6.93.29l101.8,58.58c4.04,2.3,6.99,7.86,6.99,12.97v47.7c0,3.31-1.28,5.95-3.52,7.26-.96.54-2.05.8-3.14.8-1.28,0-2.56-.36-3.85-1.08v.02h0ZM204.13,428.12v47.7c0,2.8,1.86,5.95,3.46,6.9l101.48,59c.07-.11.26-.51.26-1.32v-47.7c0-2.8-1.86-5.95-3.46-6.88l-101.48-59.02s-.26.51-.26,1.32Z"/><path class="cls-2" d="M275.85,462.48h-7.05v61.58h7.05v-61.58Z"/></svg>