<?xml version="1.0" encoding="UTF-8"?><svg id="Layer_1" xmlns="http://www.w3.org/2000/svg" viewBox="0 0 720 720"><defs><style>.cls-1{fill:#00af81;}.cls-2{fill:#dd784b;}.cls-3{stroke:#000;stroke-miterlimit:10;stroke-width:18.39px;}.cls-4{fill:#f4d74b;}.cls-5{fill:#3d68ec;}</style></defs><path class="cls-5" d="M149.79,247.18l457.64-57.71c1.11,0,1.98.9,1.98,2.02l-.32,267.92c1.01,3.86-.69,7.7-5.38,10.41l-274.8,141.26c-8.59,4.97-23.54,4.33-33.42-1.38l-139.55-80.76c-5.14-2.97-7.84-6.75-8.11-10.38l-.04-269.35c0-1.11.9-2,2-2v-.03s.01,0,.01,0Z"/><path d="M293.96,612.26l-139.52-80.76c-5.83-3.39-9.23-7.91-9.59-12.95l-.04-269.35c0-2.76,2.24-4.99,4.98-4.99l457.6-57.71c1.38,0,2.62.53,3.54,1.47.96.95,1.47,2.19,1.47,3.53l-.32,267.56c1.11,5.21-1.43,10.17-6.9,13.34l-274.8,141.25c-4.37,2.53-10.07,3.77-16.04,3.77-7.08,0-14.49-1.74-20.37-5.15h0s0-.02,0-.02ZM150.76,250.16l.04,268.16c.19,2.78,2.61,5.68,6.62,8.01l139.52,80.76c8.92,5.14,22.85,5.79,30.48,1.38l274.76-141.25c2.34-1.34,4.92-3.65,4.05-7.09l-.09-.36.32-267.32-455.7,57.71h0Z"/><path class="cls-4" d="M415.34,410.46l26.71-15.44c2.57-1.5,4.69-5.55,4.69-9.03v-45.37c0-3.48-2.11-5.07-4.69-3.56l-26.71,15.44c-2.57,1.5-4.69,5.55-4.69,9.03v45.37c0,3.48,2.11,5.07,4.69,3.56Z"/><path d="M410.79,413.3c-1.98-1.15-3.13-3.47-3.13-6.41v-45.37c0-4.58,2.66-9.57,6.21-11.61l26.67-15.45c2.11-1.21,4.32-1.28,6.07-.26,1.98,1.15,3.13,3.48,3.13,6.41v45.38c0,4.58-2.66,9.56-6.21,11.61l-26.67,15.44c-1.11.64-2.25.98-3.36.98-.96,0-1.89-.23-2.71-.71h0ZM443.52,339.64l-26.67,15.45c-1.52.89-3.22,3.82-3.22,6.44v45.37c0,.55.05.9.05,1.07.05-.03.09-.05.18-.09l26.67-15.44c1.56-.88,3.27-3.82,3.27-6.43v-45.37c0-.75-.14-1.12-.23-1.12,0,0-.05.04-.05.13h0s0-.01,0-.01Z"/><path class="cls-5" d="M429.82,388.19c2.57-1.5,4.69-5.55,4.69-9.03v-37.76l7.49-4.35c2.62-1.51,4.73.09,4.73,3.56v45.37c0,3.48-2.11,7.51-4.73,9.03l-26.67,15.44c-2.57,1.5-4.69-.09-4.69-3.56v-7.61l19.17-11.1h0s0,0,0,0Z"/><path d="M410.79,413.3c-1.98-1.15-3.13-3.48-3.13-6.41v-9.34l20.69-11.95c1.52-.88,3.22-3.82,3.22-6.43v-39.48l8.97-5.2c2.11-1.21,4.32-1.28,6.07-.26,1.98,1.15,3.13,3.48,3.13,6.41v45.37c0,4.58-2.66,9.57-6.21,11.61l-26.67,15.44c-1.11.64-2.25.98-3.36.98-.96,0-1.89-.23-2.71-.71h0ZM443.52,339.64l-6.02,3.48v36.03c0,4.58-2.66,9.57-6.21,11.61l-17.65,10.24v5.88c0,.98.23,1.3.23.99l26.67-15.44c1.52-.89,3.22-3.82,3.22-6.44v-45.37c0-.74-.14-1.11-.18-1.11s-.05.04-.05.13h0Z"/><path class="cls-4" d="M358.79,442.32l26.67-15.44c2.57-1.5,4.69-5.55,4.69-9.03v-45.37c0-3.48-2.11-5.08-4.69-3.58l-26.67,15.44c-2.62,1.5-4.73,5.55-4.73,9.03v45.37c0,3.48,2.11,5.08,4.73,3.57h0Z"/><path d="M354.19,445.16c-1.98-1.15-3.13-3.48-3.13-6.4v-45.37c0-4.57,2.66-9.56,6.21-11.61l26.71-15.44c2.02-1.21,4.27-1.3,6.07-.26,1.98,1.15,3.08,3.48,3.08,6.41v45.37c0,4.57-2.62,9.57-6.16,11.61l-26.71,15.44c-1.11.64-2.25.98-3.36.98-.97,0-1.89-.24-2.71-.72h0s0-.01,0-.01ZM383.98,424.3c1.52-.89,3.22-3.82,3.22-6.44v-45.37c0-.98-.23-1.32-.23-.98l-26.71,15.44c-1.52.88-3.22,3.84-3.22,6.43v45.37c0,.55.09.91.09,1.07.05-.03.09-.05.14-.09l26.71-15.45h0s0,.01,0,.01Z"/><path class="cls-5" d="M373.23,420.05c2.62-1.51,4.73-5.55,4.73-9.03v-37.75l7.49-4.35c2.57-1.5,4.69.09,4.69,3.57v45.37c0,3.48-2.11,7.51-4.69,9.03l-26.67,15.44c-2.62,1.5-4.73-.09-4.73-3.58v-7.61l19.17-11.09h0Z"/><path d="M354.19,445.16c-1.98-1.15-3.13-3.48-3.13-6.41v-9.33l20.69-11.95c1.52-.88,3.22-3.82,3.22-6.43v-39.48l8.97-5.2c2.07-1.2,4.27-1.3,6.07-.26,1.98,1.15,3.13,3.48,3.13,6.41v45.37c0,4.58-2.66,9.57-6.21,11.61l-26.67,15.44c-1.11.64-2.25.98-3.36.98-.97,0-1.89-.24-2.71-.72h0ZM386.97,371.51l-6.07,3.48v36.03c0,4.58-2.62,9.57-6.16,11.61l-17.7,10.23v5.88c0,.99.27,1.32.23.99l26.71-15.45c1.52-.88,3.22-3.82,3.22-6.43v-45.37c0-.73-.14-1.11-.23-1.11v.14h0Z"/><path class="cls-4" d="M358.79,535.01l26.67-15.44c2.57-1.51,4.69-5.55,4.69-9.03v-45.37c0-3.48-2.11-5.08-4.69-3.57l-26.67,15.44c-2.62,1.5-4.73,5.55-4.73,9.03v45.37c0,3.48,2.11,5.08,4.73,3.57Z"/><path d="M354.19,537.84c-1.98-1.15-3.13-3.48-3.13-6.41v-45.37c0-4.58,2.66-9.56,6.21-11.61l26.71-15.45c2.02-1.2,4.27-1.3,6.07-.26,1.98,1.15,3.08,3.48,3.08,6.41v45.37c0,4.58-2.62,9.57-6.16,11.61l-26.71,15.44c-1.11.64-2.25.97-3.36.97-.97,0-1.89-.24-2.71-.71h0s0,0,0,0ZM386.97,464.19l-26.71,15.45c-1.52.88-3.22,3.82-3.22,6.43v45.37c0,.55.09.9.09,1.07.05-.03.09-.05.14-.09l26.71-15.44c1.52-.89,3.22-3.82,3.22-6.43v-45.38c0-.74-.14-1.11-.18-1.11s-.05.04-.05.13h0s0-.01,0-.01Z"/><path class="cls-5" d="M373.23,512.74c2.62-1.5,4.73-5.55,4.73-9.03v-37.75l7.49-4.35c2.57-1.5,4.69.09,4.69,3.57v45.37c0,3.48-2.11,7.51-4.69,9.03l-26.67,15.44c-2.62,1.5-4.73-.09-4.73-3.57v-7.61l19.17-11.09h0v-.02Z"/><path d="M354.19,537.84c-1.98-1.15-3.13-3.48-3.13-6.41v-9.34l20.69-11.95c1.52-.88,3.22-3.82,3.22-6.43v-39.48l9.01-5.2c2.02-1.2,4.27-1.3,6.07-.26,1.98,1.15,3.08,3.48,3.08,6.41v45.37c0,4.58-2.62,9.57-6.16,11.61l-26.71,15.44c-1.11.64-2.25.96-3.36.96-.97,0-1.89-.24-2.71-.71h0ZM386.97,464.19l-6.07,3.49v36.03c0,4.58-2.62,9.57-6.16,11.61l-17.7,10.23v5.89c0,.98.27,1.3.23.98l26.71-15.44c1.52-.88,3.22-3.82,3.22-6.43v-45.37c0-.75-.14-1.12-.23-1.12v.13h0Z"/><path d="M147.84,518.57l-.04-269.35c0-1.11.9-2,2-2h21.17l142.4,86.1v281.08c-6.25-.16-12.78-1.72-17.88-4.69l-139.55-80.76c-5.14-2.98-7.84-6.75-8.11-10.38h.01Z"/><path class="cls-5" d="M328.91,339.7l274.76-141.25c8.59-4.97,7.49-13.62-2.39-19.35l-139.54-80.77c-9.88-5.73-24.83-6.34-33.42-1.38L153.53,238.21c-8.57,4.96-7.49,13.62,2.4,19.35l139.55,80.76c9.88,5.73,24.83,6.35,33.42,1.38h0Z"/><path class="cls-2" d="M295.43,337.64l-132.71-76.83L428.3,124.87c8.59-4.96,23.54-4.33,33.42,1.39l132.78,76.83-265.61,135.94c-8.59,4.96-23.54,4.33-33.42-1.39h-.05,0Z"/><path d="M293.96,340.9l-139.51-80.76c-6.15-3.55-9.68-8.48-9.68-13.53,0-4.37,2.59-8.27,7.28-10.99L426.84,94.38c9.56-5.52,25.52-4.92,36.41,1.38l139.54,80.76c6.11,3.55,9.66,8.49,9.66,13.53,0,4.37-2.57,8.27-7.27,10.99l-274.8,141.26c-4.37,2.53-10.07,3.77-16.04,3.77-7.04,0-14.44-1.74-20.37-5.15h0s0-.02,0-.02ZM429.82,99.54L155.02,240.8c-1.96,1.14-4.3,3.06-4.3,5.82s2.51,5.94,6.7,8.36l139.52,80.77c8.92,5.14,22.85,5.79,30.44,1.38l274.8-141.25c1.98-1.14,4.27-3.07,4.27-5.82s-2.48-5.92-6.67-8.37l-139.54-80.76c-4.92-2.85-11.36-4.31-17.47-4.31-4.92,0-9.56.96-12.97,2.93h0Z"/><path class="cls-5" d="M204.18,204.04l348.86-57.71c.73,0,1.34.6,1.34,1.35l-.23,35.55c.69,2.57-.46,5.13-3.59,6.95l-226.85,113.48c-5.7,3.31-15.68,2.9-22.3-.92l-93.14-53.91c-3.43-1.99-5.23-4.5-5.41-6.93l-.03-36.5c0-.74.6-1.34,1.33-1.34v-.03s.02,0,.02,0Z"/><path d="M299.94,305.31l-93.15-53.91c-4.18-2.42-6.62-5.72-6.89-9.51l-.03-36.5c0-2.39,1.93-4.32,4.31-4.32l348.86-57.71c2.39,0,4.32,1.94,4.32,4.35l-.18,35.2c.78,3.88-1.11,7.54-5.15,9.86l-226.8,113.48c-3.04,1.77-7.04,2.64-11.17,2.64-4.92,0-10.02-1.2-14.11-3.56h0v-.02ZM205.81,207.03l.02,34.63c.1,1.49,1.57,3.19,3.93,4.55l93.17,53.92c5.66,3.28,14.53,3.72,19.31.92l226.85-113.49c1.79-1.05,2.57-2.26,2.21-3.63l-.09-.37.18-34.25-345.57,57.71h0Z"/><path d="M202.87,241.9l-.03-36.5c0-.74.6-1.34,1.34-1.34h14.13l95.05,57.48v44.33c-4.18-.1-8.5-1.15-11.95-3.13l-93.13-53.91c-3.43-1.98-5.23-4.5-5.41-6.93h0s0-.01,0-.01Z"/><path class="cls-5" d="M323.75,265.81l226.8-113.48c5.7-3.31,5.01-9.09-1.61-12.91l-93.15-53.92c-6.57-3.82-16.6-4.25-22.3-.92l-226.83,113.48c-5.71,3.31-4.99,9.09,1.6,12.91l93.14,53.91c6.62,3.82,16.6,4.24,22.3.92h.05Z"/><path class="cls-2" d="M455.8,105.31l88.69,51.35-220.78,109.98c-5.7,3.31-15.68,2.9-22.3-.92l-88.71-51.35,220.76-109.98c5.75-3.31,15.72-2.9,22.35.92h0Z"/><path d="M299.94,267.47l-93.15-53.91c-4.42-2.57-6.96-6.17-6.95-9.9,0-3.29,1.9-6.19,5.35-8.18l226.79-113.49c6.67-3.85,17.79-3.44,25.33.92l93.1,53.91c4.46,2.55,6.99,6.17,6.99,9.88,0,3.28-1.93,6.21-5.38,8.2l-226.8,113.48c-3.04,1.77-7.04,2.64-11.22,2.64-4.88,0-9.98-1.21-14.07-3.57h0s0,.01,0,.01ZM322.24,263.23l226.8-113.48c.92-.52,2.39-1.59,2.39-3.02s-1.52-3.3-3.95-4.72l-93.15-53.92c-5.66-3.28-14.53-3.72-19.36-.92l-226.8,113.48c-.9.52-2.38,1.58-2.38,3.02s1.52,3.31,3.98,4.73l93.16,53.91c5.66,3.28,14.53,3.7,19.36.92h-.05Z"/><path class="cls-5" d="M209.47,415.8l-26.68-15.45c-3.27-1.89-5.83-6.7-5.83-10.96v-45.37c0-2.66.99-4.76,2.75-5.76,1.54-.9,3.48-.79,5.31.26l26.69,15.45c3.27,1.9,5.82,6.71,5.82,10.96v45.37c0,2.64-.99,4.75-2.75,5.75-.7.41-1.5.62-2.32.62-.97,0-2-.29-2.99-.86h0s0-.01,0-.01ZM181.93,342.14c-.16.1-.52.69-.52,1.89v45.37c0,2.67,1.68,5.98,3.59,7.08l26.68,15.45c.48.28.78.29.84.26.13-.08.51-.6.51-1.87v-45.38c0-2.66-1.68-5.97-3.59-7.08l-26.69-15.45c-.36-.21-.62-.26-.75-.26h-.1.01s0-.01,0-.01Z"/><path class="cls-5" d="M209.47,415.8l-26.68-15.45c-3.27-1.89-5.83-6.7-5.83-10.96v-45.37c0-2.66.99-4.76,2.75-5.76,1.54-.9,3.48-.79,5.31.26l9.01,5.22v37.36c0,2.66,1.68,5.98,3.59,7.08l19.91,11.51v10.6c0,2.64-.99,4.75-2.75,5.75-.7.41-1.5.62-2.32.62-.97,0-2-.29-2.99-.86h0ZM195.39,392.05c-3.27-1.9-5.83-6.71-5.83-10.96v-34.76l-6.78-3.93c-.47-.28-.78-.27-.84-.26-.16.1-.52.69-.52,1.89v45.37c0,2.67,1.68,5.98,3.59,7.08l26.68,15.45c.48.28.78.29.84.26.13-.08.51-.6.51-1.87v-8.02l-17.67-10.22v-.03h.01Z"/><path class="cls-5" d="M271.02,539.38l-26.69-15.44c-3.26-1.9-5.82-6.72-5.82-10.96v-45.37c0-2.64.99-4.75,2.75-5.76,1.55-.9,3.48-.81,5.32.24l26.69,15.45c3.27,1.9,5.84,6.71,5.84,10.96v45.37c0,2.64-1.01,4.75-2.76,5.76-.73.41-1.52.62-2.34.62-.97,0-1.98-.3-2.99-.86h0s0-.01,0-.01ZM243.47,465.74c-.13.07-.52.59-.52,1.87v45.37c0,2.65,1.68,5.98,3.59,7.08l26.67,15.44c.5.28.78.29.82.26.14-.08.55-.6.55-1.88v-45.37c0-2.66-1.7-5.98-3.63-7.08l-26.66-15.44c-.36-.2-.61-.27-.75-.27-.05,0-.08,0-.1.01h.02Z"/><path class="cls-5" d="M271.02,539.38l-26.69-15.44c-3.27-1.9-5.83-6.71-5.83-10.96v-45.37c0-2.64.99-4.75,2.76-5.76,1.54-.9,3.48-.81,5.32.24l9.01,5.22v37.36c0,2.66,1.68,5.99,3.59,7.08l19.89,11.51v10.6c0,2.65-.96,4.75-2.76,5.75-.69.41-1.47.62-2.3.62-.97,0-2.02-.29-2.99-.86h0ZM256.94,515.64c-3.27-1.89-5.83-6.7-5.83-10.96v-34.76l-6.77-3.92c-.48-.29-.8-.31-.86-.26-.13.08-.52.59-.52,1.87v45.37c0,2.66,1.68,5.98,3.59,7.08l26.67,15.45c.46.27.78.27.82.26.18-.1.55-.69.55-1.89v-8.02l-17.68-10.22h.02Z"/><path class="cls-5" d="M209.47,506.05l-26.68-15.45c-3.27-1.9-5.83-6.71-5.83-10.96v-45.37c0-2.65.99-4.76,2.75-5.75,1.54-.9,3.48-.8,5.32.26l26.68,15.44c3.27,1.9,5.83,6.71,5.83,10.96v45.37c0,2.66-.99,4.76-2.75,5.76-.7.41-1.5.62-2.32.62-.97,0-2.01-.29-2.99-.86h-.01ZM181.93,432.39c-.16.1-.52.67-.52,1.89v45.37c0,2.66,1.68,5.98,3.59,7.08l26.68,15.45c.48.29.78.3.84.26.13-.08.51-.59.51-1.89v-45.37c0-2.66-1.68-5.98-3.59-7.08l-26.69-15.44c-.36-.2-.62-.27-.76-.27-.05,0-.07,0-.09,0h.02Z"/><path class="cls-5" d="M209.47,506.05l-26.68-15.45c-3.27-1.9-5.83-6.71-5.83-10.96v-45.37c0-2.66.99-4.76,2.75-5.76,1.56-.9,3.49-.81,5.32.26l9.01,5.22v37.36c0,2.67,1.68,5.98,3.59,7.08l19.91,11.51v10.6c0,2.66-.99,4.76-2.75,5.76-.7.41-1.5.62-2.32.62-.97,0-2.01-.29-2.99-.86h-.01,0ZM195.39,482.29c-3.26-1.89-5.82-6.7-5.82-10.96v-34.76l-6.78-3.92c-.47-.29-.78-.27-.84-.26-.17.1-.52.68-.52,1.89v45.37c0,2.66,1.68,5.98,3.59,7.08l26.68,15.45c.48.28.78.29.84.26.13-.07.51-.59.51-1.89v-8.01l-17.68-10.24h.01Z"/><path class="cls-4" d="M529.36,344.04l26.67-15.44c2.62-1.5,4.73-5.55,4.73-9.03v-45.38c0-3.47-2.11-5.07-4.73-3.56l-26.67,15.44c-2.62,1.51-4.69,5.55-4.69,9.03v45.37c0,3.48,2.07,5.07,4.69,3.56h0Z"/><path d="M524.77,346.89c-1.98-1.15-3.08-3.47-3.08-6.41v-45.37c0-4.58,2.62-9.57,6.16-11.61l26.71-15.45c2.07-1.21,4.27-1.28,6.07-.26,1.98,1.15,3.13,3.48,3.13,6.41v45.37c0,4.58-2.66,9.57-6.21,11.61l-26.71,15.44c-1.11.64-2.25.98-3.36.98-.96,0-1.89-.23-2.71-.71h0ZM557.55,273.21l-26.71,15.45c-1.52.88-3.22,3.82-3.22,6.43v45.37c0,.55.09.9.09,1.07.05-.03.09-.05.14-.09l26.71-15.44c1.52-.88,3.22-3.82,3.22-6.43v-45.37c0-.75-.14-1.12-.18-1.12s-.05.04-.05.13h0Z"/><path class="cls-5" d="M543.8,321.76c2.62-1.5,4.73-5.55,4.73-9.03v-37.76l7.49-4.35c2.62-1.5,4.69.09,4.69,3.56v45.37c0,3.48-2.07,7.51-4.69,9.03l-26.67,15.44c-2.62,1.5-4.73-.09-4.73-3.56v-7.61l19.17-11.1h0s0,0,0,0Z"/><path d="M524.77,346.89c-1.98-1.15-3.08-3.48-3.08-6.41v-9.34l20.65-11.95c1.52-.89,3.22-3.82,3.22-6.44v-39.48l9.01-5.21c2.07-1.2,4.27-1.28,6.07-.26,1.98,1.15,3.13,3.48,3.13,6.41v45.37c0,4.58-2.66,9.57-6.21,11.61l-26.71,15.44c-1.11.64-2.25.97-3.36.97-.96,0-1.89-.23-2.71-.7h0s0-.01,0-.01ZM557.55,273.21l-6.02,3.49v36.03c0,4.58-2.66,9.56-6.21,11.61l-17.7,10.24v5.88c0,.98.27,1.3.23.99l26.71-15.44c1.52-.88,3.22-3.82,3.22-6.43v-45.37c0-.75-.14-1.11-.23-1.11v.12h0Z"/><path class="cls-4" d="M472.77,375.9l26.71-15.44c2.57-1.5,4.69-5.55,4.69-9.03v-45.37c0-3.48-2.11-5.08-4.69-3.58l-26.71,15.44c-2.57,1.5-4.69,5.55-4.69,9.03v45.37c0,3.48,2.11,5.08,4.69,3.57h0Z"/><path d="M468.21,378.74c-1.98-1.15-3.13-3.48-3.13-6.4v-45.37c0-4.56,2.66-9.56,6.21-11.61l26.67-15.44c2.07-1.2,4.27-1.29,6.07-.26,1.98,1.15,3.13,3.48,3.13,6.41v45.37c0,4.57-2.66,9.57-6.21,11.61l-26.67,15.44c-1.11.64-2.25.98-3.36.98-.96,0-1.89-.24-2.71-.72h0ZM497.96,357.88c1.52-.89,3.22-3.82,3.22-6.43v-45.38c0-.97-.23-1.32-.23-.98l-26.67,15.44c-1.52.88-3.22,3.84-3.22,6.43v45.37c0,.55.05.91.05,1.07.05-.03.14-.05.18-.09l26.67-15.45h0s0,.01,0,.01Z"/><path class="cls-5" d="M487.25,353.62c2.57-1.51,4.69-5.55,4.69-9.03v-37.75l7.49-4.35c2.62-1.5,4.73.09,4.73,3.57v45.37c0,3.48-2.11,7.51-4.73,9.03l-26.67,15.44c-2.57,1.5-4.69-.09-4.69-3.58v-7.61l19.17-11.09h0Z"/><path d="M468.21,378.74c-1.98-1.15-3.13-3.48-3.13-6.41v-9.33l20.65-11.95c1.52-.88,3.22-3.82,3.22-6.43v-39.48l9.01-5.2c2.07-1.21,4.27-1.3,6.07-.26,1.98,1.15,3.13,3.48,3.13,6.41v45.37c0,4.58-2.66,9.57-6.21,11.61l-26.67,15.44c-1.15.64-2.3.98-3.4.98-.92,0-1.84-.24-2.66-.72h0ZM500.95,305.08l-6.02,3.47v36.03c0,4.58-2.66,9.57-6.21,11.61l-17.65,10.23v5.88c0,.99.23,1.32.23.99l26.67-15.45c1.52-.88,3.22-3.82,3.22-6.43v-45.37c0-.73-.14-1.11-.18-1.11s-.05.04-.05.13h0s0,.02,0,.02Z"/><path class="cls-4" d="M529.23,442.05l26.67-15.44c2.57-1.51,4.69-5.55,4.69-9.03v-45.37c0-3.48-2.11-5.07-4.69-3.56l-26.67,15.44c-2.62,1.5-4.73,5.55-4.73,9.03v45.38c0,3.47,2.11,5.07,4.73,3.56h0Z"/><path d="M524.63,444.88c-1.98-1.15-3.13-3.48-3.13-6.41v-45.37c0-4.58,2.66-9.57,6.21-11.61l26.71-15.45c2.02-1.2,4.27-1.29,6.02-.26,2.02,1.15,3.13,3.47,3.13,6.41v45.37c0,4.58-2.62,9.57-6.21,11.61l-26.67,15.44c-1.11.64-2.25.96-3.36.96-.96,0-1.89-.23-2.71-.71h0v.02ZM557.37,371.22l-26.67,15.45c-1.52.89-3.22,3.82-3.22,6.43v45.37c0,.55.05.9.05,1.08.09-.03.14-.05.18-.09l26.71-15.44c1.52-.88,3.22-3.82,3.22-6.43v-45.37c0-.75-.14-1.12-.23-1.12,0,0-.05.04-.05.13h0s0-.01,0-.01Z"/><path class="cls-5" d="M543.66,419.77c2.57-1.5,4.69-5.55,4.69-9.03v-37.76l7.54-4.35c2.57-1.51,4.69.09,4.69,3.56v45.37c0,3.48-2.11,7.51-4.69,9.03l-26.71,15.44c-2.57,1.5-4.69-.09-4.69-3.56v-7.61l19.17-11.1h0s0,0,0,0Z"/><path d="M524.63,444.88c-1.98-1.15-3.13-3.47-3.13-6.41v-9.34l20.69-11.95c1.52-.89,3.22-3.82,3.22-6.43v-39.48l9.01-5.21c2.02-1.2,4.27-1.29,6.02-.26,2.02,1.16,3.13,3.48,3.13,6.41v45.37c0,4.58-2.62,9.57-6.21,11.61l-26.67,15.44c-1.11.64-2.25.96-3.36.96-.96,0-1.89-.23-2.71-.71h0ZM557.37,371.22l-6.02,3.49v36.03c0,4.58-2.66,9.56-6.21,11.61l-17.65,10.24v5.88c0,.98.23,1.3.23.99l26.67-15.44c1.52-.88,3.22-3.82,3.22-6.43v-45.37c0-.75-.14-1.12-.18-1.12s-.05.04-.05.13h0Z"/><path class="cls-3" d="M426.52,558.35v-112.02c0-6.35,3.45-12.21,8.97-15.28l45.38-25.22c5.66-3.13,12.55.96,12.55,7.42v112.95l-66.9,32.16h0Z"/><path d="M101.52,576.98c0,4.5,3.6,8.16,8.04,8.16s8.04-3.65,8.04-8.16v-98.88c0-4.5-3.59-8.16-8.04-8.16s-8.04,3.65-8.04,8.16v98.88Z"/><path d="M109.56,587.25c-5.58,0-10.13-4.61-10.13-10.26v-98.89c0-5.66,4.54-10.27,10.13-10.27s10.13,4.61,10.13,10.27v98.89c0,5.66-4.54,10.26-10.13,10.26ZM109.56,472.05c-3.28,0-5.96,2.71-5.96,6.05v98.89c0,3.34,2.67,6.05,5.96,6.05s5.97-2.71,5.97-6.05v-98.89c0-3.34-2.67-6.05-5.97-6.05Z"/><path class="cls-1" d="M47.31,459.96c0,34.88,27.88,63.15,62.25,63.15s62.26-28.28,62.26-63.15-27.88-63.14-62.26-63.14-62.25,28.28-62.25,63.14Z"/><path d="M109.56,526.27c-36.05,0-65.37-29.75-65.37-66.32s29.32-66.3,65.37-66.3,65.38,29.74,65.38,66.3-29.32,66.31-65.38,66.31h0ZM109.56,399.98c-32.6,0-59.13,26.9-59.13,59.98s26.52,59.98,59.13,59.98,59.15-26.9,59.15-59.98-26.53-59.98-59.15-59.98Z"/><path d="M105.37,545.77c1.11,1.13,2.91,1.13,4.03,0,1.11-1.13,1.11-2.95,0-4.08l-26.18-26.56c-1.11-1.13-2.91-1.13-4.03,0-1.11,1.13-1.11,2.96,0,4.08l26.18,26.56Z"/><path d="M107.38,548.72c-1.32,0-2.56-.52-3.48-1.46l-26.18-26.56c-.94-.94-1.45-2.19-1.45-3.53s.51-2.59,1.45-3.53c.93-.94,2.17-1.47,3.48-1.47s2.56.52,3.48,1.47l26.18,26.56c.94.95,1.45,2.2,1.45,3.53s-.51,2.6-1.45,3.53c-.92.94-2.16,1.46-3.48,1.46ZM81.21,516.39c-.12,0-.35.03-.54.22-.19.19-.22.43-.22.55s.03.35.22.55l26.18,26.56c.2.2.43.23.54.23s.34-.03.54-.23c.2-.2.23-.43.23-.55s-.03-.35-.23-.55l-26.18-26.56c-.2-.2-.43-.24-.54-.24h0s0,0,0,0Z"/><path class="cls-1" d="M65.85,528.65c7.37,7.47,19.3,7.47,26.67,0,7.37-7.48,7.37-19.58,0-27.06-7.37-7.48-19.3-7.48-26.67,0-7.36,7.48-7.36,19.58,0,27.06Z"/><path d="M79.19,537.41c-5.62,0-11.25-2.17-15.53-6.51-8.57-8.69-8.57-22.84,0-31.52,4.15-4.21,9.66-6.53,15.53-6.53s11.4,2.32,15.54,6.53c8.57,8.69,8.57,22.84,0,31.52-4.28,4.34-9.91,6.51-15.54,6.51ZM68.06,526.42c6.14,6.23,16.12,6.22,22.27,0,6.14-6.22,6.13-16.35,0-22.58-2.97-3.01-6.93-4.68-11.13-4.68s-8.16,1.67-11.13,4.68c-6.13,6.22-6.13,16.35,0,22.58h0Z"/></svg>