<?xml version="1.0" encoding="UTF-8"?>
<svg width="133px" height="220px" viewBox="0 0 133 220" version="1.1" xmlns="http://www.w3.org/2000/svg" xmlns:xlink="http://www.w3.org/1999/xlink">
    <title>Group 73</title>
    <defs>
        <polygon id="path-1" points="0 0 49.0941636 0 49.0941636 44.2812827 0 44.2812827"></polygon>
        <polygon id="path-3" points="0 0 87.9560696 0 87.9560696 133.178188 0 133.178188"></polygon>
    </defs>
    <g id="Illustraties" stroke="none" stroke-width="1" fill="none" fill-rule="evenodd">
        <g transform="translate(-732, -1268)" id="Group-73">
            <g transform="translate(732, 1268)">
                <path d="M74.8408411,178.773597 L84.7657079,184.504641 C85.8876606,169.591842 95.1225565,153.905933 107.950872,146.12169 C113.22465,143.23024 118.73756,141.528455 124.390178,144.488473 C120.280352,142.115144 114.284033,137.837325 110.082497,137.314061 C105.757965,136.777084 101.728278,138.360589 98.0247197,140.390646 C85.196404,148.175317 75.9623652,163.860798 74.8408411,178.773597" id="Fill-1" fill="#000000"></path>
                <path d="M84.0853367,185.680677 L74.2234672,179.987775 C73.7503443,179.745642 73.4435001,179.236521 73.4842127,178.673401 C74.0640453,170.945728 76.7587888,163.025205 80.9693253,156.054785 C85.096294,149.219787 90.7013431,143.275324 97.2196394,139.293635 L97.3696331,139.199353 C99.2891235,138.146398 101.311895,137.20358 103.442234,136.586464 C105.623142,135.955204 107.894475,135.670645 110.246375,135.96249 C113.816225,136.406043 118.334891,139.193782 122.170015,141.560682 C123.178401,142.182513 124.142217,142.776917 125.070892,143.31218 C125.694009,143.675164 125.929285,144.470131 125.592442,145.116389 C125.246599,145.779361 124.425063,146.038207 123.761233,145.691079 L123.708521,145.663652 C121.183914,144.358707 118.687162,144.084433 116.231123,144.456417 C113.671374,144.845972 111.11591,145.937497 108.605873,147.314011 C102.45699,151.054424 97.1497852,156.690329 93.2255223,163.190626 C89.2284053,169.810061 86.6716561,177.309745 86.1226792,184.606294 C86.1063942,184.804286 86.0489681,185.003134 85.9422583,185.186127 C85.5659884,185.834956 84.7328808,186.056947 84.0853367,185.680677 M76.2706665,178.031 L83.6216419,182.275821 C84.4967479,175.233832 87.0710678,168.118133 90.8954778,161.784971 C95.043017,154.916976 100.684922,148.943799 107.247359,144.96211 L107.297928,144.934254 C110.056955,143.415032 112.899978,142.20994 115.825711,141.765102 C116.223409,141.705533 116.622392,141.658392 117.020947,141.627108 C114.473197,140.164027 111.917733,138.914365 109.917246,138.665376 C107.947615,138.419815 106.037124,138.660662 104.198631,139.192925 C102.309996,139.739759 100.459931,140.607151 98.6788636,141.582967 L98.6415794,141.603109 C92.5102668,145.345665 87.2167759,150.972999 83.2997984,157.46044 C79.4552464,163.823171 76.945638,171.002297 76.2706665,178.031" id="Fill-3" fill="#000000"></path>
                <path d="M117.612693,111.698571 C114.59482,109.955645 107.860105,105.459263 105.108364,105.117706 C91.6316467,103.443777 76.9648372,132.557119 88.3540708,139.454257 L98.2797947,145.185301 C85.7981786,137.267778 104.544816,104.847289 117.612693,111.698571" id="Fill-5" fill="#05B173"></path>
                <path d="M111.559506,109.629259 C108.959472,108.089038 106.284871,106.635813 104.943928,106.468678 C101.13966,105.997269 97.1305432,108.395453 93.7569713,112.088298 C91.2105073,114.876894 89.0441702,118.387175 87.587946,121.980594 C86.1488638,125.533302 85.4091808,129.140864 85.6868833,132.17245 C85.9285874,134.824766 86.9716863,137.024959 89.0411703,138.284478 L93.4042719,140.804371 C92.5038813,137.867495 92.6761598,134.342215 93.6262625,130.722225 C94.3762309,127.867203 95.6173213,124.942326 97.1909692,122.219727 C98.7671884,119.491985 100.681965,116.957521 102.774162,114.886751 C105.482191,112.208721 108.510349,110.279374 111.559506,109.629259 M115.896037,109.078567 C116.80757,109.635687 117.626964,110.137523 118.293364,110.522364 C118.917338,110.885777 119.152185,111.680315 118.815342,112.326573 C118.469071,112.989545 117.64882,113.247534 116.984991,112.901263 C113.153295,110.892205 108.598202,112.958261 104.689796,116.824241 C102.757877,118.733874 100.993952,121.070347 99.5424414,123.58167 C98.0870742,126.099849 96.9424083,128.793307 96.2545802,131.413053 C94.8579248,136.732257 95.3434758,141.710333 99.0084639,144.034378 C99.6140098,144.425218 99.8184297,145.229184 99.4550165,145.860444 C99.0821751,146.508845 98.2524958,146.733407 97.6040946,146.360565 C94.2986627,144.462074 90.9139484,142.571297 87.6509433,140.613665 C84.7509229,138.857453 83.3054124,135.916292 82.984426,132.417154 C82.6638681,128.932587 83.4759767,124.883615 85.0663381,120.958495 C86.6378432,117.078801 88.9841727,113.280533 91.7453419,110.257946 C95.6781759,105.952271 100.498115,103.173531 105.272628,103.766649 C107.711525,104.069207 112.448325,106.968371 115.896037,109.078567" id="Fill-7" fill="#000000"></path>
                <path d="M124.390221,144.488516 C115.312604,139.248165 100.59694,147.751092 91.5193229,163.466143 C87.6627714,170.145576 85.1583057,177.601547 84.7657508,184.504684 L131.143365,157.728671 C130.75381,151.276372 128.246344,146.715279 124.390221,144.488516" id="Fill-9" fill="#05B173"></path>
                <path d="M107.277229,144.941368 C113.641675,141.266952 120.076403,140.43213 125.065193,143.312008 C127.2581,144.577526 129.054596,146.501731 130.335113,149.015196 C131.541062,151.380382 132.29703,154.280402 132.499736,157.649689 C132.525878,158.146382 132.278603,158.640504 131.819193,158.90535 L85.5118622,185.64065 C85.2774435,185.794501 84.9928841,185.878069 84.6924682,185.862212 C83.9433569,185.821928 83.369524,185.179955 83.4093795,184.430844 C83.6090853,180.91585 84.3371975,177.268432 85.4964342,173.655299 C86.6749559,169.978311 88.3128868,166.321466 90.3005172,162.865183 L90.342944,162.785472 C94.9798911,154.757382 101.079491,148.546359 107.200947,144.989366 L107.277229,144.941368 Z M123.714393,145.663909 C119.629851,143.307294 114.165796,144.102689 108.6396,147.29284 L108.568032,147.33141 C102.839559,150.657841 97.0978017,156.525165 92.6944161,164.147843 L92.6519894,164.215983 C90.7646405,167.498273 89.2077062,170.978126 88.0827537,174.485835 C87.2732164,177.007443 86.6886696,179.539336 86.3646833,182.015946 L129.723568,156.982431 C129.480578,154.359685 128.854461,152.102066 127.909073,150.248573 C126.868117,148.206087 125.438891,146.65901 123.714393,145.663909 L123.714393,145.663909 Z" id="Fill-11" fill="#000000"></path>
                <path d="M121.616067,120.549355 C121.616067,116.189253 120.084417,113.125097 117.612522,111.697585 C115.138483,110.270074 111.719056,110.478351 107.945644,112.656688 C104.170517,114.835882 100.750662,118.576295 98.2796233,122.860971 C95.8047277,127.146076 94.2735066,131.975872 94.2735066,136.335974 C94.2735066,140.692219 95.8047277,143.756375 98.2796233,145.185172 C106.858404,150.13882 121.616067,134.569049 121.616067,120.549355" id="Fill-13" fill="#05B173"></path>
                <path d="M121.82113,114.551365 C122.565527,116.19701 122.978224,118.214639 122.978224,120.54854 C122.978224,125.321339 121.366435,130.24756 118.884254,134.547235 C116.791199,138.171511 114.061743,141.372804 111.146723,143.672422 C108.132707,146.049607 104.889416,147.486975 101.885257,147.486975 C100.378035,147.486975 98.929953,147.129561 97.5984377,146.360737 C96.0912156,145.489916 94.8818381,144.128402 94.0697295,142.331907 C93.3231896,140.684119 92.9117784,138.669061 92.9117784,136.336017 C92.9117784,134.08954 93.2957622,131.723497 93.9904472,129.369454 L94.0054465,129.313313 C94.7271303,126.889416 95.7873713,124.465089 97.1034586,122.184329 C98.4178317,119.906996 99.9893368,117.775372 101.731406,115.936021 C103.429334,114.145096 105.29997,112.615161 107.264887,111.480352 C109.286373,110.313401 111.241005,109.660714 113.040072,109.482008 C115.002846,109.287873 116.786914,109.653429 118.293279,110.522535 C119.800929,111.396355 121.011164,112.758726 121.82113,114.551365 M120.25391,120.54854 C120.25391,118.606765 119.92821,116.967977 119.34152,115.669032 C118.768116,114.400514 117.944008,113.455554 116.936907,112.874007 C115.919093,112.290318 114.687859,112.048185 113.306203,112.184465 C111.887263,112.324602 110.305473,112.863722 108.627258,113.832253 C106.889046,114.835924 105.22283,116.199581 103.699752,117.807942 C102.098676,119.497299 100.657023,121.452359 99.4553594,123.535986 C98.2524101,125.620469 97.2774513,127.849375 96.6119079,130.088995 L96.5960515,130.139136 C95.9785061,132.236904 95.6356634,134.341958 95.6356634,136.336017 C95.6356634,138.277364 95.9617925,139.915294 96.5501963,141.213811 C97.1218864,142.480186 97.9477087,143.424289 98.9603802,144.009265 C99.8517712,144.5231 100.841301,144.762661 101.885257,144.762661 C104.261157,144.762661 106.922901,143.550284 109.465937,141.542512 C112.111825,139.455885 114.603863,136.523723 116.532781,133.185293 C118.789972,129.276458 120.25391,124.825931 120.25391,120.54854" id="Fill-15" fill="#000000"></path>
                <path d="M48.8275677,180.25772 C54.1017736,177.367128 59.6146838,175.664486 65.2668738,178.624504 C61.1574758,176.252032 55.1607289,171.972927 50.9596205,171.450092 C46.6355173,170.913115 42.6054017,172.496619 38.9018438,174.526676 C26.0743852,182.311776 16.8394892,197.996829 15.7179652,212.910485 L25.6436891,218.640672 C26.7652132,203.727444 35.999252,188.041963 48.8275677,180.25772" id="Fill-17" fill="#000000"></path>
                <path d="M57.1084182,178.592319 C54.5490976,178.981446 51.993634,180.073399 49.48274,181.449913 C43.3347138,185.189469 38.0279378,190.82666 34.1015321,197.326957 C30.1039865,203.945106 27.5489515,211.445647 27.0004032,218.742624 C26.9819754,218.938045 26.9241207,219.134322 26.8191252,219.316457 C26.4471409,219.965287 25.6166045,220.189421 24.9677747,219.816579 L15.1367611,214.14039 C14.6422106,213.905972 14.3186528,213.386565 14.3615081,212.808446 C14.9417693,205.082915 17.6365127,197.162392 21.8474779,190.18983 C25.9727323,183.356547 31.5794957,177.411226 38.0973634,173.429966 L38.2469285,173.334398 C40.1668475,172.281871 42.1904764,171.338625 44.3199579,170.722794 C46.501723,170.090678 48.7726271,169.807404 51.1240993,170.099249 C54.6939486,170.541945 59.2126151,173.330541 63.048596,175.696584 C64.0565535,176.318415 65.021227,176.911962 65.9486165,177.448082 C66.571733,177.811495 66.8061517,178.605176 66.4705944,179.251434 C66.1234662,179.915263 65.3032151,180.173252 64.639386,179.82741 L64.5862454,179.799982 C62.0616377,178.494609 59.5648859,178.219478 57.1084182,178.592319 L57.1084182,178.592319 Z M48.1743667,179.067585 C50.9346787,177.550935 53.7777016,176.345843 56.7034352,175.900576 C57.1011327,175.840578 57.4988302,175.794294 57.8990991,175.76301 C55.3500638,174.300357 52.7946002,173.050696 50.7953989,172.801706 C48.8244821,172.556574 46.9148484,172.796564 45.0763546,173.329684 C43.18772,173.875661 41.3376552,174.742196 39.5565875,175.718869 L39.5184463,175.739011 C33.3879908,179.481567 28.0940714,185.108901 24.1766653,191.595485 C20.3338275,197.960787 17.8225049,205.139484 17.1475334,212.169473 L24.4997945,216.415151 C25.3719005,209.370592 27.9475061,202.254892 31.7727732,195.921731 C35.920741,189.052021 41.5630743,183.079701 48.125083,179.098441 L48.1743667,179.067585 Z" id="Fill-19" fill="#000000"></path>
                <path d="M58.4903741,145.834602 C55.47293,144.091675 48.7377857,139.595294 45.9856162,139.253737 C32.5093279,137.579807 17.8420898,166.69315 29.2308948,173.590287 L39.1566187,179.321331 C26.6758598,171.403808 45.4224971,138.983748 58.4903741,145.834602" id="Fill-21" fill="#3D68EC"></path>
                <path d="M52.4355154,143.764432 C49.8371965,142.225068 47.161738,140.771415 45.8216517,140.604708 C42.0165266,140.132442 38.0069815,142.531913 34.6342667,146.226471 C32.0886599,149.013782 29.9218942,152.524062 28.4652414,156.119625 C27.0265878,159.671046 26.2851906,163.280323 26.5633217,166.311052 C26.8071685,168.958226 27.8468389,171.15499 29.9107518,172.416223 L34.2819959,174.937831 C33.3824624,172.000955 33.5538838,168.477817 34.5039865,164.860399 C35.2539549,162.003662 36.4950453,159.078357 38.0678361,156.356186 C39.6449124,153.626301 41.5605458,151.09098 43.6531718,149.021924 C46.3603432,146.343037 49.3880726,144.415405 52.4355154,143.764432 M56.7737608,143.214598 C57.6848652,143.771717 58.5042592,144.273553 59.1710882,144.658394 C59.7950619,145.02095 60.0299091,145.815488 59.6930662,146.461747 C59.3467951,147.125576 58.526544,147.383565 57.8627149,147.037294 C54.0310195,145.028236 49.4767831,147.092577 45.5683767,150.958557 C43.6377439,152.869048 41.8716755,155.206378 40.4193083,157.718557 C38.9647982,160.234165 37.8201323,162.930623 37.1323042,165.550798 C35.7356488,170.869574 36.2220569,175.848506 39.8857594,178.172123 C40.497305,178.562106 40.7004393,179.369072 40.3327405,180.002474 C39.9568992,180.651304 39.1237915,180.873294 38.4758189,180.497453 C35.7553623,178.916091 30.8265703,176.473337 28.5278102,174.749696 C25.6295039,172.993484 24.1839935,170.052751 23.8604358,166.55447 C23.540735,163.071617 24.3545578,159.020502 25.9436335,155.097525 C27.5164243,151.21526 29.8618967,147.418706 32.6222088,144.395691 C36.5550428,140.089159 41.3741251,137.309133 46.1503521,137.901822 C48.5892492,138.205238 53.3264778,141.103544 56.7737608,143.214598" id="Fill-23" fill="#000000"></path>
                <path d="M65.2679452,178.624546 C56.1903283,173.383768 41.4738066,181.887123 32.3970469,197.602174 C28.5404954,204.281606 26.0360296,211.737577 25.6439033,218.640715 L72.0202316,191.864702 C71.6315337,185.412403 69.1236396,180.850881 65.2679452,178.624546" id="Fill-25" fill="#3D68EC"></path>
                <g id="Group-29" transform="translate(24.2851, 175.7187)">
                    <mask id="mask-2" fill="white">
                        <use xlink:href="#path-1"></use>
                    </mask>
                    <g id="Clip-28"></g>
                    <path d="M23.8690289,3.35868133 C30.2343317,-0.315735005 36.6690601,-1.15055691 41.6578495,1.72932154 C43.8498999,2.99483955 45.6459669,4.91904405 46.9269129,7.43165228 C48.1337191,9.79855238 48.8896872,12.6977157 49.0923929,16.0665735 C49.1176775,16.5636954 48.8712594,17.0569603 48.4118502,17.3222348 L2.1036619,44.0579635 C1.86924322,44.2109571 1.58554091,44.2953821 1.28426791,44.2795256 C0.53601378,44.2383845 -0.0386762492,43.5972687 0.0020363181,42.8481574 C0.200885068,39.3323058 0.928997193,35.6857455 2.08823398,32.0721837 C3.26761277,28.3956246 4.90554364,24.7387789 6.89317403,21.2824962 L6.93602936,21.2027853 C11.572548,13.1746956 17.6721476,6.96367203 23.7927465,3.40667931 L23.8690289,3.35868133 Z M40.3061923,4.08122227 C36.222079,1.72375034 30.7584524,2.51914534 25.2314,5.71015351 L25.1606887,5.74786621 C19.4322162,9.07515434 13.6904586,14.941621 9.28750154,22.5642993 L9.24464621,22.6332964 C7.35772585,25.9155864 5.80079157,29.3945824 4.67583905,32.9022915 C3.86587323,35.4238994 3.28046937,37.9566496 2.95734015,40.4332594 L46.3162244,15.3997445 C46.0732346,12.7769981 45.445404,10.5193791 44.5017295,8.6658859 C43.4603449,6.62340068 42.030691,5.07632312 40.3061923,4.08122227 L40.3061923,4.08122227 Z" id="Fill-27" fill="#000000" mask="url(#mask-2)"></path>
                </g>
                <path d="M62.4937908,154.685385 C62.4937908,150.325284 60.9617127,147.261127 58.4902455,145.834473 C56.0162071,144.406105 52.5959229,144.614382 48.8237964,146.792718 C45.0482415,148.971912 41.6283858,152.712326 39.1569187,156.997002 C36.6824517,161.282107 35.1503735,166.111903 35.1503735,170.472005 C35.1503735,174.828249 36.6824517,177.892406 39.1569187,179.321203 C47.736128,184.274422 62.4937908,168.705079 62.4937908,154.685385" id="Fill-30" fill="#3D68EC"></path>
                <path d="M62.6991108,148.68821 C63.4430794,150.334712 63.8557762,152.351484 63.8557762,154.685385 C63.8557762,159.424328 62.2628435,164.319264 59.8055186,168.602655 L59.7622347,168.68408 C57.6687516,172.307927 54.9388669,175.508792 52.0242756,177.809266 C49.0089743,180.187738 45.7656826,181.62382 42.7615237,181.62382 C41.2560158,181.62382 39.8079341,181.266406 38.4759903,180.497153 C36.9687682,179.626761 35.7593907,178.26439 34.9468535,176.468323 C34.2003136,174.820964 33.7880453,172.805478 33.7880453,170.472005 C33.7880453,168.205386 34.1780288,165.820915 34.8834276,163.451015 C35.60554,161.023261 36.6679238,158.598077 37.9814397,156.321602 C39.2940986,154.042984 40.8668894,151.91136 42.6093873,150.072009 C44.3056014,148.27937 46.1779509,146.750292 48.1432965,145.61634 C50.171211,144.449389 52.1245571,143.794988 53.9189099,143.618424 C55.8808271,143.423432 57.6640376,143.787702 59.1712597,144.658523 C60.6771961,145.528915 61.8870022,146.89 62.6991108,148.68821 M61.1314626,154.685385 C61.1314626,152.744039 60.8061906,151.104394 60.2182155,149.805877 C59.6465253,148.539502 58.820703,147.593685 57.8088886,147.009995 C56.7975027,146.425448 55.5658404,146.184173 54.1850415,146.32131 C52.7618159,146.461447 51.1791684,146.998853 49.5035249,147.965669 C47.7670267,148.971055 46.0990971,150.336426 44.5768757,151.94393 C42.9762289,153.634144 41.5345755,155.588347 40.3329119,157.672831 C39.1278199,159.760314 38.1537182,161.987934 37.4898891,164.222411 C36.8612013,166.341608 36.5123589,168.463804 36.5123589,170.472005 C36.5123589,172.413351 36.8380594,174.052139 37.4264632,175.351085 C37.9990104,176.61446 38.8248327,177.560277 39.8383614,178.145681 C40.7293238,178.659516 41.719282,178.899506 42.7615237,178.899506 C45.137852,178.899506 47.7987397,177.687129 50.343918,175.679356 C52.9889492,173.591873 55.4814154,170.660568 57.410334,167.322138 L57.4514751,167.255283 C59.684238,163.362733 61.1314626,158.939206 61.1314626,154.685385" id="Fill-32" fill="#000000"></path>
                <path d="M50.975477,63.1349066 C50.9763341,61.36241 50.9484781,60.498875 51.5793087,58.7958041 C52.3845604,56.6230386 53.9389234,54.4502732 55.9552668,53.2580378 L115.921879,18.6664978 C116.523139,18.3202267 117.92708,17.4549775 118.612336,17.1807034 C119.361876,16.8820017 120.047562,16.7872914 120.8301,16.980569 L110.953231,11.2782383 C110.513107,11.0999601 109.695427,11.1822423 109.22059,11.3142367 C108.781323,11.4363744 108.37634,11.6253665 107.9795,11.8482142 L48.0120307,46.4397542 C47.2980608,46.8515939 46.0059725,47.5424219 45.3224299,48.0584001 C42.9628152,49.837325 41.1328924,53.2040401 41.0994653,56.1764861 L41.0793233,107.482035 C41.0866087,108.407282 41.4050238,109.247675 42.0662816,109.902933 L42.1472782,109.979644 L52.024147,115.682832 C51.3093201,114.997146 50.9634775,114.175609 50.9561921,113.184366 L50.975477,63.1349066 Z" id="Fill-34" fill="#000000"></path>
                <path d="M52.3376767,62.9120161 L52.3128206,113.179609 C52.3136777,113.486881 52.3698182,113.768012 52.4748137,114.015716 C52.5785236,114.26042 52.7435167,114.490553 52.9655073,114.703973 C53.4026317,115.126098 53.5153412,115.807926 53.199926,116.35776 C52.8270846,117.00659 51.9969768,117.230723 51.348147,116.857882 L41.5355612,111.192835 C41.417709,111.134124 41.305428,111.055698 41.2051465,110.958845 L41.1082935,110.865421 C40.690454,110.450581 40.3656105,109.973173 40.135906,109.453766 L40.0746228,109.323914 C39.8444897,108.756938 39.7274946,108.138107 39.7227805,107.493563 L39.7429225,56.1764432 C39.7622074,54.4742293 40.2721859,52.6935902 41.1010081,51.0993718 C41.948258,49.4695834 43.1473503,47.9949314 44.5028645,46.9728317 C45.1131244,46.5125654 46.0713697,45.9730167 46.8183382,45.5538916 C66.6757858,34.3660781 87.9796009,22.5637191 107.309928,10.6675069 C107.560203,10.5252272 107.804907,10.3996611 108.035469,10.2976654 C108.297743,10.1853844 108.570303,10.0855315 108.859148,10.0058205 C109.21099,9.90811037 109.704684,9.83011366 110.169664,9.82068549 C110.619217,9.81082876 111.079912,9.86568359 111.459181,10.0169629 L111.628888,10.1018165 L121.429046,15.7595777 C121.990451,16.0342804 122.304581,16.6741105 122.149873,17.3045125 C121.971166,18.0326246 121.233626,18.4783201 120.505514,18.2996133 C120.271524,18.2417586 120.055104,18.2263307 119.848113,18.2473298 C119.62098,18.2704717 119.37799,18.3386117 119.118715,18.441893 C118.678162,18.6175999 117.725917,19.1811475 117.072373,19.5677027 C97.5140556,30.9342229 75.4525582,42.3804541 56.6463519,54.4288027 C55.8261008,54.9143536 55.0885605,55.5974676 54.4697295,56.3825774 C53.78233,57.2508264 53.2316389,58.2562126 52.8562262,59.2697412 C52.3376767,60.6672537 52.3376767,61.4463636 52.3376767,62.9120161 L52.3376767,62.9120161 Z M49.6159344,63.1348638 L49.6133631,62.9120161 C49.6133631,61.1313769 49.6133631,60.1859883 50.3020483,58.3273524 C50.7648859,57.0751196 51.4582852,55.8164584 52.340248,54.7017912 C53.1634989,53.6578352 54.1521715,52.7450166 55.2625532,52.0871872 C75.1080013,41.5032054 96.2168246,28.7438868 115.689431,17.2295156 C116.103842,16.9818118 116.626677,16.6715392 117.120371,16.4032648 L110.418654,12.5351423 L110.221948,12.5338567 C109.993529,12.5385708 109.751396,12.5762835 109.582975,12.6234243 C109.435552,12.6637083 109.282987,12.7215631 109.130851,12.7875603 C89.2991166,22.8157084 67.7677397,36.6969797 48.1532818,47.9220773 C47.4701678,48.3077753 46.6027759,48.7958976 46.1416525,49.1434543 C45.109696,49.9217072 44.1835923,51.0698016 43.5159061,52.354176 C42.8679335,53.6004091 42.4698074,54.9503521 42.4565223,56.1867285 L42.4359517,107.471707 C42.438523,107.762694 42.4929493,108.045111 42.5962307,108.301815 L42.6253723,108.381097 C42.7102259,108.561946 42.8289351,108.736796 42.9819287,108.895789 L49.5996494,112.716771 L49.6159344,63.1348638 Z" id="Fill-36" fill="#000000"></path>
                <path d="M94.5274245,93.9956327 C106.477206,87.7983228 111.134295,93.1843812 118.735117,97.4480584 C118.804114,91.1607523 118.963965,85.309285 117.592165,79.9335119 L117.832584,79.7938035 C120.572754,78.2137273 122.809802,74.3404623 122.811516,71.172596 C122.81623,58.8324025 122.825659,32.7695026 122.830802,20.4305948 C122.832516,17.2635856 120.596753,15.9702116 117.856583,17.5502878 C97.223025,29.4533568 76.5890388,41.3559973 55.9554811,53.2577807 C53.2140254,54.8391425 50.9774055,58.7141218 50.9765484,61.8794168 L50.9756913,63.1350781 L50.9564064,113.184537 C50.9564064,114.444912 51.58038,115.527867 52.6714769,116.158269 C53.7634308,116.788242 55.0126638,116.789099 56.1046177,116.159554 L94.5274245,93.9956327 Z" id="Fill-38" fill="#DD784B"></path>
                <path d="M114.66146,96.5892803 C109.158836,93.171996 104.564744,90.3204021 95.1498554,95.2020532 L56.779332,117.335119 C56.0177928,117.774386 55.2018272,117.993377 54.3880044,117.993377 C53.6028947,117.993377 52.8173564,117.788957 52.0819589,117.383117 L51.990677,117.334262 C51.2698503,116.918137 50.6925889,116.348161 50.282892,115.673618 L50.2288942,115.588764 C49.8153403,114.873509 49.5942067,114.053686 49.5942067,113.184151 L49.6130631,61.8786025 C49.6199199,60.0521082 50.2498933,58.04605 51.263422,56.2919812 C52.2735222,54.5413408 53.6958908,52.9955489 55.2785382,52.0823017 L117.181354,16.3752374 C118.188454,15.7954047 119.172841,15.5192894 120.069804,15.5192894 C120.792344,15.5138452 121.463459,15.6916948 122.052291,16.0328233 C122.605554,16.3525241 123.074391,16.8153617 123.432662,17.4071939 L123.484945,17.4903332 C123.938783,18.2745858 124.193772,19.2688296 124.193772,20.4310662 L124.168059,71.1726388 C124.17363,72.9948476 123.541514,74.9991916 122.524986,76.7592602 C121.646451,78.2737677 120.467072,79.6352816 119.141557,80.5643853 C120.233939,85.49532 120.171371,90.7476697 120.104516,96.345862 L120.092517,97.3735329 C120.107088,97.622951 120.052661,97.8787973 119.921953,98.1136446 C119.55554,98.767617 118.72586,99.0011785 118.070602,98.635194 C116.868939,97.960651 115.7487,97.2642518 114.66146,96.5892803 L114.66146,96.5892803 Z M93.9053365,92.7888693 C104.689881,87.1958197 109.880519,90.4189693 116.0984,94.2793778 L117.405916,95.0867723 C117.461199,89.7881388 117.432915,84.8203485 116.272392,80.2695406 C116.110828,79.6361387 116.423672,78.9924516 116.988076,78.7130348 L117.221638,78.5801833 C118.355162,77.9064975 119.399975,76.7429751 120.173513,75.4028888 C120.960337,74.0349466 121.449317,72.5161535 121.449317,71.1726388 L121.47503,20.4310662 C121.469459,19.7552376 121.348178,19.2238315 121.133044,18.8518472 L121.102189,18.7939925 C120.989908,18.6152857 120.849342,18.4764344 120.68992,18.3842955 C120.524927,18.2891566 120.312793,18.2380181 120.069804,18.2380181 C119.636536,18.2325876 119.111987,18.392438 118.532583,18.7267096 L56.6301955,54.4342025 C55.4748157,55.0993172 54.404718,56.2855529 53.6148942,57.6539237 C52.8250704,59.0227231 52.332234,60.5436589 52.332234,61.8786025 L52.3129491,113.184151 C52.3185203,113.575421 52.4106593,113.932405 52.580795,114.226822 L52.6137936,114.286819 C52.7843578,114.560236 53.0354901,114.799797 53.3517624,114.98279 L53.4057601,115.01536 C53.7186041,115.183353 54.0541614,115.269063 54.3880044,115.269063 C54.7428466,115.269063 55.0981173,115.173496 55.4285319,114.983647 L93.9053365,92.7888693 Z" id="Fill-40" fill="#000000"></path>
                <path d="M12.2879099,55.284838 C12.3264797,51.8581255 14.6076692,47.905578 17.5569732,46.1609374 L81.0154377,9.5560538 C82.7617925,8.54895345 84.6165714,7.07687273 86.5994877,7.91898004 C85.1972612,7.10901423 75.9602225,1.66252983 75.2985361,1.47182359 C73.4930409,0.95327405 71.5992637,2.39492749 70.1048982,3.25674825 L8.69363306,38.6809674 C5.91317899,40.284614 4.39781438,41.0611526 2.74916968,44.1073098 C1.94048952,45.6016753 1.39622678,47.2760332 1.37651333,48.9851039 L1.35594277,102.684123 C1.36879937,103.86693 1.67650067,105.282013 2.72517069,105.977984 L6.42787155,108.115608 C5.48248288,114.080642 5.58576424,119.532698 5.64919013,125.520445 L16.5597296,131.81975 C16.4813044,124.460204 16.3720233,119.236996 17.7849636,111.881735 L12.2669108,108.696298 L12.2879099,55.284838 Z" id="Fill-42" fill="#F4D9DC"></path>
                <g id="Group-46">
                    <mask id="mask-4" fill="white">
                        <use xlink:href="#path-3"></use>
                    </mask>
                    <g id="Clip-45"></g>
                    <path d="M15.0060523,50.7717428 C14.1738018,52.2129676 13.6603949,53.8238996 13.6436813,55.2959804 L13.6231107,107.913331 L18.3684818,110.652215 C18.9148874,110.91149 19.2393022,111.514893 19.120593,112.136296 C17.779221,119.126858 17.8336473,124.182073 17.9090727,131.071925 L17.915501,131.735754 C17.9313574,131.993743 17.8756455,132.259875 17.7359371,132.500293 C17.3600958,133.149123 16.5269881,133.371114 15.8790155,132.995272 L4.96890456,126.695538 C4.56949285,126.460691 4.29650437,126.027852 4.29350449,125.53073 L4.28579053,124.79619 C4.22536451,119.345848 4.17008113,114.298776 4.94961966,108.827007 L1.97588803,107.111508 C1.25891829,106.635813 0.777652891,105.966842 0.4708087,105.225016 C0.133965774,104.414621 0.00754253879,103.504374 -0.000171421336,102.695694 L0.0208276923,48.9851039 C0.0306844192,48.0238587 0.178963875,47.093898 0.428381919,46.2033641 C0.69794197,45.245976 1.0870684,44.3215864 1.55162022,43.4627655 C3.30911747,40.2147598 4.89005074,39.304941 7.6615052,37.710294 C28.4052011,25.7845117 49.5975923,13.9568681 70.0944415,1.67881486 C71.6548042,0.72614078 73.4812985,-0.387240798 75.5344976,0.13216585 L75.6716346,0.164307351 C76.3766049,0.364870314 82.5867713,3.99728843 85.7143536,5.82463987 L87.2867158,6.74260112 C87.8639772,7.08415814 88.1163951,7.80884183 87.8498349,8.44395788 C87.5601329,9.13435732 86.7634522,9.45748653 86.0739099,9.16821303 C85.0153831,8.71994624 83.7134381,9.5110557 82.4800616,10.2614526 L81.6915234,10.7315756 L18.249344,47.3313165 C16.9791119,48.0817134 15.8383029,49.3309464 15.0060523,50.7717428 L15.0060523,50.7717428 Z M10.9305101,55.2792668 C10.9523663,53.3220637 11.6033388,51.239723 12.6558658,49.4153714 C13.7096785,47.5854487 15.187759,45.9822306 16.8651167,44.9909867 L80.3394376,8.38010344 L81.0658355,7.94297903 C81.5381013,7.65499119 82.0176525,7.36314636 82.5109174,7.10730002 C79.3653359,5.27223461 75.2250821,2.86633616 74.9259518,2.78105405 L74.8440981,2.75534085 C73.890567,2.5444926 72.6061926,3.32788811 71.509096,3.99728843 C51.029389,16.302769 29.7611438,28.132984 9.01273388,40.0617662 C6.6741183,41.4078523 5.34174597,42.1753913 3.94637629,44.7509969 C3.5696779,45.4478246 3.25683396,46.186222 3.04512861,46.937476 C2.85527948,47.6193044 2.74042719,48.3135608 2.73442744,48.9966748 L2.71342833,102.673409 C2.71728531,103.173531 2.79013938,103.722508 2.98127417,104.181488 C3.09655502,104.462191 3.25940528,104.702609 3.47496762,104.845318 L7.10352875,106.939229 C7.60493616,107.227217 7.85263999,107.788622 7.76735787,108.327742 C6.88239522,113.92122 6.93725005,119.106716 6.99853318,124.729764 L15.1783308,129.453279 C15.1230474,123.500673 15.1671884,118.754016 16.2737131,112.574277 L11.5913393,109.872248 C11.1559291,109.621545 10.9112252,109.165992 10.9112252,108.696298 L10.9305101,55.2792668 Z" id="Fill-44" fill="#000000" mask="url(#mask-4)"></path>
                </g>
                <path d="M17.7850065,111.881563 L17.7850065,111.881563 L14.0244509,112.49868 L4.57656398,107.047053 L6.42791441,108.115437 L6.40220121,108.278287 C5.53566635,114.149039 5.5866642,119.621665 5.64923299,125.520273 L16.5597725,131.820008 C16.4894897,125.138432 16.455634,119.197826 17.6534406,112.565963 L17.7850065,111.881563 Z" id="Fill-47" fill="#FFFFFF"></path>
                <path d="M7.13335606,106.956971 L7.767615,108.327913 C7.84989724,107.799507 7.61462146,107.25053 7.13335606,106.956971 L7.13335606,106.956971 Z M14.2803401,111.081369 L17.4876333,110.554677 C17.6637687,110.51525 17.8514751,110.509678 18.0400386,110.545677 C18.7775789,110.685814 19.260987,111.398927 19.1204215,112.136467 L18.9892842,112.822152 C18.401309,116.061587 18.1158925,119.142028 17.9877551,122.22847 C17.8570463,125.341481 17.8819024,128.450207 17.9157581,131.735497 C17.9316146,131.993915 17.8754741,132.260046 17.7361943,132.500465 C17.3599244,133.148866 16.5268167,133.371285 15.8792726,132.995015 L4.96873314,126.69571 C4.56932142,126.460862 4.2967615,126.028023 4.29376163,125.530902 C4.26162013,122.564884 4.23333561,119.703433 4.32076049,116.851839 C4.40089996,114.19138 4.58303513,111.540778 4.95030534,108.828892 L3.90077821,108.222918 L5.25243545,105.871446 L14.2803401,111.081369 Z M16.1106914,113.532265 L14.2417703,113.839538 C13.8980705,113.89525 13.5616562,113.816825 13.2899533,113.641546 L7.50534036,110.303544 C7.24006584,112.550449 7.10035745,114.740786 7.03393168,116.925122 C6.95550642,119.500728 6.9713629,122.076762 6.99879031,124.729935 L15.1815878,129.454307 C15.1640171,126.949842 15.1725882,124.529372 15.2737268,122.12176 C15.3915789,119.29845 15.6367114,116.47557 16.1106914,113.532265 L16.1106914,113.532265 Z" id="Fill-49" fill="#000000"></path>
                <path d="M14.0421073,49.7487431 L3.13113927,43.4481519 L1.377499,48.9854896 L1.67577213,104.586 C2.31474516,106.227359 4.18623759,106.822191 6.42800012,108.115565 C5.47875447,114.140168 5.58674991,119.4838 5.6493187,125.521259 L16.5607153,131.819708 C16.4835757,124.431448 16.369152,119.270809 17.7850922,111.881692 L12.2666108,108.696255 C12.2687536,101.556128 11.8067731,56.0000506 12.6085964,53.0108911 L14.0421073,49.7487431 Z" id="Fill-51" fill="#000000"></path>
                <path d="M3.80593936,42.2728015 L14.6226257,48.5172522 C15.288169,48.8283819 15.585585,49.6194914 15.288169,50.2961771 L13.9043703,53.4447585 C13.3206806,56.2414976 13.4981017,86.0598105 13.5859551,101.063463 L13.625382,107.915174 L18.3686104,110.652344 C18.9145874,110.911619 19.2394308,111.515022 19.1207215,112.136424 C17.7823494,119.125701 17.834633,124.110204 17.907487,130.970058 L17.9160581,131.808737 C17.9177723,132.04187 17.8603462,132.278431 17.7360657,132.494851 C17.3627957,133.14368 16.5326879,133.367814 15.8847153,132.994972 L4.99903186,126.711095 C4.58204946,126.483104 4.29663293,126.040409 4.29363306,125.532144 L4.28463344,124.674609 C4.22549308,119.237553 4.17235247,114.313904 4.94674835,108.845134 L4.32063192,108.517291 C2.51042261,107.566331 1.08805408,106.819363 0.409654138,105.075151 C0.35222799,104.9243 0.319229383,104.761878 0.319229383,104.590885 L0.021813365,49.0983705 C0.00638544477,48.9269492 0.0248132384,48.7503852 0.0792395126,48.575964 L1.83287978,43.0386263 L1.95458893,42.7733518 C2.32743034,42.124522 3.15753816,41.8999601 3.80593936,42.2728015 L3.80593936,42.2728015 Z M12.3080091,50.3120336 L3.91822033,45.4685237 L2.73498456,49.2059374 L3.03154347,104.283613 C3.41724148,104.971869 4.38320071,105.479277 5.58657849,106.111393 L5.65643268,106.150391 C6.10298526,106.385238 6.58167934,106.638942 7.10365731,106.939358 C7.6024934,107.226488 7.85105434,107.784893 7.76834354,108.322299 C6.88252379,113.947491 6.93695006,119.020276 6.99780464,124.652753 L6.99866174,124.734607 L15.1793165,129.455979 C15.1227474,123.488802 15.1638885,118.782001 16.2734131,112.574406 L11.5910393,109.872377 C11.1560577,109.621245 10.9113537,109.166121 10.9113537,108.695998 L10.8727839,101.073748 C10.7823592,85.7863934 10.6019382,55.2446825 11.2944804,52.6596488 L11.3634775,52.4625142 L12.3080091,50.3120336 Z" id="Fill-53" fill="#000000"></path>
                <path d="M110.112195,37.290826 C110.760596,36.9149848 111.593276,37.1369754 111.969117,37.7853766 C112.345387,38.4342063 112.122968,39.2664569 111.474138,39.6422982 L89.2172201,52.4933272 C88.5688188,52.8691685 87.7365683,52.6471779 87.3602984,51.9983481 C86.9844571,51.3499469 87.2073049,50.5172678 87.8552775,50.1414265 L110.112195,37.290826 Z" id="Fill-55" fill="#000000"></path>
                <path d="M106.495462,52.0609598 C107.143863,51.6846899 107.976543,51.9071091 108.352384,52.5555103 C108.728654,53.203483 108.506234,54.0361621 107.857405,54.4115748 L89.2071919,65.1802632 C88.5583621,65.556533 87.7252545,65.3341138 87.3502703,64.6852841 C86.9740004,64.03774 87.1959911,63.2046323 87.8448208,62.828791 L106.495462,52.0609598 Z" id="Fill-57" fill="#000000"></path>
                <path d="M63.6698698,93.3711019 C63.0214686,93.7430862 62.1905036,93.5185242 61.8176622,92.8705516 C61.4456779,92.2221504 61.6702399,91.391614 62.3182125,91.0196297 L110.109195,63.452079 C110.757597,63.0796661 111.587704,63.3042281 111.960117,63.9526293 C112.332959,64.6006019 112.108397,65.4311383 111.459996,65.8039797 L63.6698698,93.3711019 Z" id="Fill-59" fill="#000000"></path>
                <path d="M88.3073585,65.6420723 C88.3120725,52.4104879 88.3227864,24.6522309 88.3283578,11.4219322 C88.3292147,8.07021652 85.9614575,6.70270281 83.0622941,8.3753465 C61.2287871,20.9701006 39.3922802,33.5657118 17.557059,46.1608945 C14.6540386,47.835681 12.2888527,51.933508 12.2871385,55.2847951 L12.266996,108.982957 C12.2657109,112.330387 14.6291825,113.702187 17.5317743,112.0274 L17.7850493,111.881692 C16.3322535,119.22881 16.4925325,125.234128 16.5598153,131.819708 C18.673869,128.201432 20.7793515,124.593441 22.8634064,120.956738 C36.144703,97.7561454 62.2418872,86.0943519 82.8895871,74.8469694 C84.3650963,74.0438605 85.652042,72.7226305 86.7101402,70.9235636 C87.769524,69.1249252 88.3065013,67.347286 88.3073585,65.6420723" id="Fill-61" fill="#F4D9DC"></path>
                <path d="M89.687411,11.4217608 L89.6629584,65.6427579 C89.6685296,66.6267164 89.5138218,67.6312454 89.2086918,68.6413457 C88.9142757,69.6150188 88.4702944,70.6084055 87.8801765,71.6095061 C87.2939155,72.6067497 86.6412288,73.4758559 85.9311159,74.2048251 C85.1987182,74.9569362 84.397752,75.5719103 83.5393597,76.039462 C80.9328983,77.4592592 78.4592884,78.7727752 75.9483944,80.1030047 C57.0106223,90.1495807 35.5503852,101.5341 24.0445851,121.631966 L17.73628,132.506079 C17.4980043,132.902919 17.0664511,133.172908 16.5710434,133.176374 C15.8219322,133.181907 15.2086724,132.578933 15.2031012,131.83025 L15.1911017,130.703155 C15.1302471,125.196673 15.0723924,120.017177 16.0199238,114.030287 C15.7362215,114.080856 15.4580904,114.104855 15.1889589,114.104855 C14.438562,114.104855 13.7408772,113.919292 13.1297601,113.565307 C12.5242142,113.215607 12.0176642,112.704772 11.64268,112.053799 C11.1704142,111.229691 10.9042826,110.192163 10.9042826,108.983643 L10.9304244,55.2850523 C10.9312815,53.3647047 11.5929678,51.257508 12.6592085,49.4125858 C13.7271635,47.570235 15.2206719,45.9417323 16.881316,44.9852013 L82.3861227,7.19965326 C83.4455065,6.58896475 84.473606,6.3001198 85.4052809,6.3001198 C86.1552493,6.3001198 86.8512199,6.48525484 87.4640512,6.83966846 C88.0725969,7.19322496 88.579147,7.70491765 88.9528455,8.35160464 C89.4242542,9.17528416 89.6903858,10.2110976 89.687411,11.4217608 M86.9476444,65.6427579 L86.9716434,11.4217608 C86.9660722,10.6915059 86.8353634,10.1172444 86.6035161,9.71269005 C86.4650934,9.47741426 86.2958148,9.29870752 86.1072513,9.19028353 C85.9135452,9.08228809 85.6769838,9.02486194 85.4052809,9.02486194 C84.9240155,9.02486194 84.3570395,9.19456906 83.7373513,9.55112544 L18.2321162,47.337102 C16.993597,48.0506433 15.8493596,49.3148757 15.0106807,50.7693857 C14.1681449,52.234181 13.6440241,53.8562554 13.6440241,55.2850523 L13.623025,108.983643 C13.6285962,109.712612 13.759305,110.288159 13.9915809,110.692714 C14.1291465,110.92499 14.2988536,111.101982 14.4921312,111.213406 C14.6806946,111.322687 14.9168275,111.380542 15.1889589,111.380542 C15.6680815,111.380542 16.2329148,111.210406 16.8517459,110.85385 L17.1033067,110.705142 C17.7521364,110.330157 18.584387,110.552148 18.9602283,111.200549 C19.1320782,111.495823 19.178362,111.830094 19.1175074,112.140367 C18.0589806,117.509712 17.8738456,122.162515 17.8755598,126.863317 L21.681542,120.280738 C33.5764685,99.5023288 55.413404,87.9193891 74.6820193,77.6966777 C77.3321931,76.2918799 79.9322262,74.9127952 82.2404145,73.6549912 C82.8545315,73.320291 83.4399353,72.8690244 83.9824839,72.3110479 C84.5477457,71.7307867 85.0701522,71.0356732 85.5398467,70.2368497 C86.0073984,69.4423119 86.3639548,68.6447741 86.6022304,67.8549503 C86.8289351,67.1036963 86.944216,66.3627275 86.9476444,65.6427579" id="Fill-63" fill="#000000"></path>
                <path d="M25.6919442,60.8580027 C25.043543,61.229987 24.212578,61.0062822 23.8397366,60.3574524 C23.4677523,59.7090512 23.6923143,58.879372 24.3402869,58.5065306 L68.6158467,32.9900361 C69.2638194,32.6171947 70.0943558,32.8417567 70.4671972,33.4897293 C70.8404671,34.1381305 70.6159052,34.9690955 69.9670754,35.3415083 L25.6919442,60.8580027 Z" id="Fill-65" fill="#000000"></path>
                <path d="M25.6862873,74.281879 C25.0378861,74.6538633 24.2077782,74.4293014 23.8349368,73.7813287 C23.4620954,73.1329275 23.6866574,72.3023911 24.3354871,71.9304068 L74.9090668,42.7579239 C75.5570395,42.3850824 76.3875758,42.6096444 76.7604173,43.2584742 C77.1324016,43.9064468 76.9086967,44.7365546 76.2602955,45.109396 L25.6862873,74.281879 Z" id="Fill-67" fill="#000000"></path>
                <path d="M25.6806304,88.5420343 C25.0322292,88.9148757 24.2021213,88.6903137 23.8292799,88.0423411 C23.4564385,87.3939399 23.6810005,86.5634035 24.3298302,86.1905621 L56.8943129,67.4057835 C57.541857,67.0329421 58.3728219,67.2575041 58.7456633,67.9054767 C59.1185047,68.5538779 58.8939428,69.3848428 58.245113,69.7572557 L25.6806304,88.5420343 Z" id="Fill-69" fill="#000000"></path>
                <path d="M14.2859113,111.08454 C14.933884,111.457381 15.1584459,112.287918 14.7864616,112.936747 C14.4136202,113.584292 13.5826553,113.808854 12.9342541,113.436012 L2.37341411,107.339412 C1.72458435,106.966571 1.5000224,106.136892 1.87286381,105.488062 C2.24570521,104.839661 3.07667014,104.615099 3.72421424,104.98794 L14.2859113,111.08454 Z" id="Fill-71" fill="#000000"></path>
            </g>
        </g>
    </g>
</svg>