<?xml version="1.0" encoding="UTF-8"?>
<svg width="160px" height="177.063px" viewBox="0 0 160 177.063" version="1.1" xmlns="http://www.w3.org/2000/svg" xmlns:xlink="http://www.w3.org/1999/xlink">
    <title>Group 39</title>
    <defs>
        <polygon id="path-1" points="0 0 55.4946348 0 55.4946348 177.063 0 177.063"></polygon>
        <polygon id="path-3" points="0 0 160 0 160 67.9203885 0 67.9203885"></polygon>
    </defs>
    <g id="website" stroke="none" stroke-width="1" fill="none" fill-rule="evenodd">
        <g id="Hubs" transform="translate(-225.000000, -806.000000)">
            <g id="Group" transform="translate(160.000000, 661.000000)">
                <g id="Group-39" transform="translate(65.000000, 145.000000)">
                    <path d="M18.5280779,58.7811626 C26.4601418,58.7811626 32.872376,52.3783684 32.872376,44.4576324 C32.872376,36.547595 26.4601418,30.1341022 18.5280779,30.1341022 C10.6388084,30.1341022 4.19384909,36.547595 4.19384909,44.4576324 C4.19384909,52.3783684 10.6388084,58.7811626 18.5280779,58.7811626" id="Fill-1" fill="#DD784B"></path>
                    <path d="M18.5280779,60.0335904 C9.93773575,60.0335904 2.96288138,53.0461495 2.96288138,44.4576953 C2.96288138,35.8673532 9.93773575,28.8805415 18.5280779,28.8805415 C27.1284893,28.8805415 34.1052317,35.8673532 34.1052317,44.4576953 C34.1052317,53.0461495 27.1284893,60.0335904 18.5280779,60.0335904 M18.5280779,31.3871593 C11.3191131,31.3871593 5.46761118,37.2468425 5.46761118,44.4576953 C5.46761118,51.6666601 11.3191131,57.5383006 18.5280779,57.5383006 C25.749,57.5383006 31.5986139,51.6666601 31.5986139,44.4576953 C31.5986139,37.2468425 25.749,31.3871593 18.5280779,31.3871593" id="Fill-3" fill="#000000"></path>
                    <path d="M79.9950283,159.533352 C119.206636,159.533352 151.017963,127.742793 151.017963,88.5318146 C151.017963,49.3202066 119.206636,17.5296473 79.9950283,17.5296473 C40.7941189,17.5296473 8.99349038,49.3202066 8.99349038,88.5318146 C8.99349038,127.742793 40.7941189,159.533352 79.9950283,159.533352" id="Fill-5" fill="#F4D9DC"></path>
                    <path d="M79.9950283,160.786724 C40.1673071,160.786724 7.76126401,128.370612 7.76126401,88.5321921 C7.76126401,48.6944017 40.1673071,16.2877293 79.9950283,16.2877293 C119.843517,16.2877293 152.248931,48.6944017 152.248931,88.5321921 C152.248931,128.370612 119.843517,160.786724 79.9950283,160.786724 M79.9950283,18.7830191 C41.5367273,18.7830191 10.2571832,50.0738911 10.2571832,88.5321921 C10.2571832,127.000562 41.5367273,158.290805 79.9950283,158.290805 C118.473468,158.290805 149.744201,127.000562 149.744201,88.5321921 C149.744201,50.0738911 118.473468,18.7830191 79.9950283,18.7830191" id="Fill-7" fill="#000000"></path>
                    <path d="M111.104968,56.9018601 C125.545554,55.1598771 137.033956,55.8817176 144.785403,58.5362277 C149.223431,60.0648681 152.526151,62.252416 154.532452,64.9918856 C156.687275,67.8691782 157.431771,71.2990218 156.613014,75.1530332 C155.944037,78.5306424 154.043463,82.2355028 150.837031,86.1858015 C150.805565,84.2204068 150.624318,82.2355028 150.422933,80.2499695 C151.719351,78.1574503 152.526151,76.1933142 152.886127,74.3883983 C153.449376,71.6388595 152.950318,69.2499263 151.506637,67.2637636 C149.923245,65.1624338 147.247967,63.4305201 143.511011,62.1561287 C136.290719,59.6721667 125.407101,59.0239578 111.604026,60.6809813 C93.0016874,62.9213929 72.7108587,68.9207871 54.9266478,76.7987288 C37.2053698,84.6452039 22.0530131,94.3179921 13.6753842,103.970012 C10.1826077,107.94045 8.21910092,111.540212 7.54949477,114.683082 C6.98624523,117.421922 7.47523393,119.812114 8.95101066,121.797018 C10.533144,123.910934 13.2191206,125.641589 16.914541,126.904653 C18.1883031,127.339519 19.5161875,127.700754 20.9705671,128.019824 C21.9894509,129.548464 23.0832248,131.024241 24.2084653,132.457853 C21.0026628,132.022986 18.1455088,131.374777 15.6823147,130.524554 C11.2442859,129.006612 7.93149753,126.819693 5.89372992,124.070154 C3.78044281,121.192233 3.03657582,117.772458 3.81316792,113.909007 C4.58724271,110.139955 6.86981934,105.955546 10.787393,101.474723 C19.5577232,91.3872065 35.1978099,81.3651407 53.3759809,73.3053229 C71.479891,65.2889289 92.1527224,59.1844367 111.104968,56.9018601" id="Fill-9" fill="#DD784B"></path>
                    <path d="M24.2085911,133.711162 C24.1664261,133.711162 24.1028638,133.711162 24.028603,133.689764 C20.7900755,133.253639 17.8271941,132.584662 15.2903685,131.70486 C10.6075307,130.100701 7.12482349,127.77533 4.9058091,124.812448 C2.50680659,121.606016 1.73021448,117.847663 2.61253388,113.653185 C3.45080023,109.587719 5.89385578,105.211364 9.83156793,100.658168 C18.4647045,90.7613387 33.7114605,80.6429855 52.8764194,72.1696986 C71.8620196,63.7492753 92.5033846,57.8889627 110.956572,55.6586204 C125.120882,53.9487333 136.959821,54.5440786 145.167531,57.3584383 C149.84974,58.9714088 153.343775,61.2860812 155.562789,64.2489626 C157.951723,67.4654636 158.726427,71.2250756 157.844737,75.4075968 C157.112827,79.0501536 155.063102,82.9368901 151.824575,86.960191 C151.506763,87.3749189 150.942884,87.5228112 150.455154,87.363591 C149.955467,87.2043707 149.637656,86.7481071 149.604931,86.2169533 C149.531299,84.3598032 149.393476,82.3944084 149.181392,80.3881073 C149.148667,80.1118318 149.222928,79.8355563 149.36138,79.6027045 C150.550812,77.6593363 151.325517,75.8223247 151.686751,74.1338347 C152.143015,71.7870665 151.750314,69.7178324 150.486621,68.0180145 C149.075036,66.0960435 146.579746,64.5252381 143.128505,63.3364354 C135.803114,60.8298176 124.950963,60.3301303 111.741346,61.9235916 C93.882874,64.0784144 73.8790193,69.7706961 55.4145037,77.9349824 C37.099139,86.0577331 22.6270871,95.5920689 14.5886666,104.798524 C11.3507684,108.515342 9.40802945,111.923159 8.78121767,114.937645 C8.28153037,117.285043 8.70695684,119.344208 9.98071893,121.054095 C11.3822348,122.965367 13.8466876,124.536802 17.339464,125.725605 C18.4955416,126.129005 19.8347539,126.500938 21.2142433,126.79924 C21.5226145,126.872242 21.8095886,127.053489 21.9895767,127.319066 C23.0078312,128.814981 24.0701387,130.280689 25.1966378,131.683463 C25.5037504,132.086234 25.5471741,132.638785 25.3023651,133.07428 C25.0909105,133.466353 24.6648547,133.711162 24.2085911,133.711162 M111.242917,58.143841 C93.033909,60.3408289 72.6367237,66.1281393 53.8644661,74.4522752 C35.0922085,82.7883684 20.1204693,92.6732405 11.7327711,102.292536 C8.03798001,106.517851 5.78624051,110.510944 5.04363217,114.16357 C4.34255956,117.624251 4.96937134,120.703558 6.91273959,123.326602 C8.81268413,125.885454 11.8712235,127.902454 16.107867,129.346764 C17.6887417,129.888617 19.420026,130.34551 21.3205999,130.716814 C20.9272692,130.196988 20.5767329,129.665205 20.2268259,129.13468 C18.8895016,128.826938 17.6579046,128.476402 16.5207069,128.083701 C12.5823654,126.734419 9.69500352,124.8672 7.96246052,122.541199 C6.24376276,120.236596 5.712609,117.507196 6.35011938,114.428518 C7.05056266,110.999933 9.20601481,107.209484 12.7195592,103.152199 C20.9700636,93.6814257 35.7611853,83.9236781 54.3949905,75.6524058 C73.0615209,67.3924614 93.3208831,61.6265482 111.423535,59.4496989 C125.015784,57.8027447 136.259378,58.3452263 143.935305,60.9783393 C147.874905,62.3269915 150.763526,64.1960989 152.493551,66.52147 C154.224206,68.835513 154.744032,71.564284 154.11785,74.633522 C153.724519,76.5026294 152.917719,78.4755761 151.686751,80.5359996 C151.792479,81.2477708 151.856041,81.9589127 151.898835,82.6706839 C153.724519,79.9419129 154.92465,77.3408958 155.424337,74.9091681 C156.12541,71.4371595 155.487899,68.3578523 153.54516,65.7354379 C151.654656,63.1872844 148.586676,61.1595861 144.359473,59.7152758 C136.502299,57.0286699 125.056691,56.4761189 111.242917,58.143841" id="Fill-11" fill="#000000"></path>
                    <path d="M78.3814285,13.6549939 C81.864765,7.75125767 85.3248164,4.02437077 88.5318775,2.35790732 C91.2392513,0.955762098 93.808802,0.902898454 96.2084338,2.14456476 C98.3531874,3.27043451 100.253761,5.49070756 101.803799,8.72797643 C103.428097,12.0835592 104.723886,16.6386432 105.679207,22.3189676 C104.310417,21.7884432 102.929039,21.310153 101.55899,20.8639587 C100.711283,16.5423558 99.6596746,13.0395101 98.3959817,10.3944399 C97.1958511,7.91047794 95.8471989,6.27548095 94.4463123,5.53161395 C93.214086,4.89536224 91.8339673,4.95892448 90.2833004,5.75502578 C87.6822832,7.10304871 84.7628255,10.3415762 81.619956,15.5977328 C74.7174745,27.1924921 68.4531327,45.9219553 63.8980487,66.8496651 C59.3215675,87.8201692 56.5078371,110.924099 56.5078371,131.205488 C56.5078371,147.949418 58.4090403,160.021838 61.6154721,166.67951 C62.8149733,169.152774 64.1535563,170.7884 65.5538135,171.531638 C66.7967385,172.167889 68.1667879,172.104327 69.7174548,171.308226 C72.318472,169.970901 75.2058339,166.732374 78.3814285,161.465519 C78.7319648,160.850035 79.1234075,160.202455 79.4745731,159.533478 L79.9950283,159.533478 C81.3122141,159.533478 82.5752776,159.501383 83.8395997,159.427122 C83.1385271,160.828008 82.3940308,162.166591 81.619956,163.408258 C78.1366195,169.322063 74.686008,173.03951 71.4481098,174.706603 C68.7615039,176.107489 66.1592281,176.160982 63.80302,174.929385 C61.6469385,173.792188 59.7463646,171.574432 58.1963271,168.335275 C54.7457156,161.178545 52.6645243,148.523366 52.6645243,131.205488 C52.6645243,110.659781 55.5525155,87.2682476 60.1711618,66.0428652 C64.7904373,44.775947 71.2353966,25.6317559 78.3814285,13.6549939" id="Fill-13" fill="#DD784B"></path>
                    <g id="Group-17" transform="translate(51.433053, 0.000000)">
                        <mask id="mask-2" fill="white">
                            <use xlink:href="#path-1"></use>
                        </mask>
                        <g id="Clip-16"></g>
                        <path d="M15.8836371,177.063 C14.4833798,177.063 13.1020024,176.723162 11.8074725,176.034047 C9.37574487,174.780423 7.32602,172.369463 5.63815937,168.876687 C1.94273892,161.242925 0,148.213925 0,131.205047 C0,111.242728 2.67590732,88.0116741 7.50663746,65.7774771 C12.3700927,43.45895 18.8779849,24.7181589 25.8547272,13.0176723 C29.411066,7.03967527 33.0108284,3.07930727 36.5262607,1.25362356 C39.5936107,-0.339837712 42.5564921,-0.414098545 45.3387561,1.0295824 C47.7698543,2.29327523 49.807622,4.70423499 51.4961119,8.18694221 C53.1959298,11.6797187 54.5319955,16.3726258 55.4785064,22.1171417 C55.5515086,22.5639654 55.3727792,22.9988318 55.0216135,23.2851765 C54.6710772,23.5715213 54.2141843,23.6457821 53.7900165,23.4871912 C52.4514335,22.966736 51.1141092,22.4884459 49.7446891,22.0523208 C49.3192626,21.9151271 48.9693556,21.5551509 48.8950948,21.0976286 C48.0775963,16.9151074 47.0580831,13.4959625 45.8271154,10.936481 C44.7755065,8.7275359 43.5747466,7.2523885 42.4079705,6.63627532 C41.536979,6.19008099 40.5816574,6.26497115 39.4136226,6.85842849 C36.981895,8.12275064 34.1681646,11.3606488 31.2795441,16.235432 C24.6659246,27.3412026 18.4217213,45.4023183 13.6967184,67.1154308 C8.95094773,88.9034334 6.3071362,111.668155 6.3071362,131.205047 C6.3071362,147.046519 8.10198278,159.460036 11.3077852,166.137217 C12.3700927,168.335464 13.569594,169.821939 14.7263008,170.426724 C15.5651965,170.873548 16.5526139,170.809986 17.721278,170.204571 C20.1108406,168.951577 22.9661067,165.702351 25.8547272,160.827568 C26.2040049,160.224041 26.5979649,159.585901 26.9485012,158.928253 C27.1605851,158.534293 27.5847529,158.290742 28.0416459,158.290742 L28.562101,158.290742 C29.8358631,158.290742 31.1102545,158.248577 32.3418516,158.185015 C32.8302109,158.185015 33.2122137,158.3864 33.467092,158.758963 C33.711901,159.129638 33.711901,159.606669 33.5312836,160.011328 C32.7981152,161.432982 32.023411,162.782264 31.2795441,164.045327 C27.7232053,170.034023 24.1341415,173.994391 20.6092692,175.810635 C18.9837122,176.649531 17.4022082,177.063 15.8836371,177.063 L15.8836371,177.063 Z M41.2506342,2.50661779 C40.1247645,2.50661779 38.9246339,2.82505831 37.6930369,3.47263795 C34.5929617,5.07553916 31.3116398,8.71683731 28.0001101,14.2914344 C21.1718894,25.7697678 14.7583966,44.2449821 9.97046087,66.3080015 C5.14979999,88.3722796 2.50535913,111.423346 2.50535913,131.205047 C2.50535913,147.609769 4.40656233,160.594716 7.88864022,167.793612 C9.33295049,170.787959 11.0327684,172.816287 12.9641794,173.815032 C14.9711099,174.88678 17.1164927,174.801191 19.4418638,173.602319 C22.5419389,171.998789 25.8232608,168.356861 29.1347905,162.771565 C29.5167933,162.123986 29.9107533,161.455009 30.2921267,160.765264 C29.7616023,160.775333 29.2738722,160.786661 28.7748142,160.786661 C28.5300052,161.231597 28.2543591,161.677791 28.0001101,162.102589 C24.8031183,167.465102 21.735139,170.93711 18.8465184,172.422956 C16.489681,173.655183 14.6847651,173.219687 13.569594,172.63567 C11.9031305,171.764678 10.395258,169.950322 9.05730435,167.220922 C5.63815937,160.106357 3.84394212,147.651934 3.84394212,131.205047 C3.84394212,111.487537 6.44495927,88.5421985 11.2341537,66.5849063 C16.0321587,44.6162863 22.4041158,26.2795244 29.1347905,14.9604113 C32.2984279,9.61992456 35.3997616,6.14791594 38.2883822,4.65137135 C40.6445903,3.41977431 42.481602,3.85464071 43.5747466,4.42733019 C45.2317701,5.29832166 46.7509705,7.12463469 48.0775963,9.84207773 C49.3192626,12.4544228 50.3708715,15.8314027 51.2204658,19.9081966 C51.6767294,20.0680462 52.1764167,20.2266371 52.6219817,20.3978147 C51.7503609,15.8521706 50.6156805,12.1145851 49.2456311,9.26938825 C47.8025795,6.27566974 46.1128308,4.24671274 44.1707213,3.24922612 C43.2248396,2.74953882 42.2688887,2.50661779 41.2506342,2.50661779 L41.2506342,2.50661779 Z" id="Fill-15" fill="#000000" mask="url(#mask-2)"></path>
                    </g>
                    <path d="M79.0503424,25.2172169 C90.5695822,18.570243 101.421733,15.4066056 110.786779,15.4066056 C116.806941,15.4066056 122.274553,16.7130928 126.925924,19.2297799 C131.576037,21.7666054 135.441376,25.5255881 138.265805,30.4211392 C141.673622,36.3349447 143.584895,43.8944458 143.584895,52.9303529 C143.584895,54.1732779 143.542729,55.4243841 143.479167,56.6780077 C142.311132,54.4061297 141.048069,52.1864859 139.667321,50.0637589 C139.316785,42.97122 137.703185,37.0246894 134.953646,32.3204544 C132.521918,28.063043 129.177034,24.7936784 125.088912,22.5948025 C121.000791,20.3751588 116.18013,19.2297799 110.786779,19.2297799 C102.048545,19.2297799 91.8660001,22.2234984 80.9496576,28.5193066 C64.2271249,38.1927242 49.0017661,53.7692486 38.0124214,71.1286624 C27.0230767,88.4358419 20.2584183,107.473676 20.2584183,124.133276 C20.2584183,132.499577 21.9475376,139.412757 25.0155169,144.753244 L25.0476127,144.742545 C27.4793403,149.011285 30.8670188,152.271209 34.9123463,154.478896 C38.9992094,156.69854 43.8198703,157.834479 49.2144793,157.834479 C52.4958012,157.834479 55.9766204,157.42038 59.6084786,156.560087 C62.0395769,157.283186 64.5034003,157.887342 66.9986902,158.354934 C60.7028819,160.584647 54.702229,161.657024 49.2144793,161.657024 C43.1930585,161.657024 37.7361459,160.360606 33.0854039,157.834479 C28.3924968,155.307722 24.5592533,151.54811 21.734195,146.664516 L21.734195,146.653818 C18.3263779,140.729943 16.4270627,133.168554 16.4270627,124.133276 C16.4270627,106.741767 23.4340129,86.9707637 34.7738939,69.0801962 C46.0816791,51.2424923 61.7526029,35.2090749 79.0503424,25.2172169" id="Fill-18" fill="#DD784B"></path>
                    <path d="M49.2142276,162.910521 C42.9813522,162.910521 37.3425635,161.571938 32.4803669,158.938825 C27.5533494,156.262918 23.5722135,152.345344 20.6521265,147.280504 C20.6521265,147.248408 20.6200308,147.227011 20.6200308,147.195544 C17.0202683,140.919875 15.1939553,133.158988 15.1939553,124.13378 C15.1939553,107.070151 21.777367,87.2790091 33.7113346,68.4117228 C45.6566302,49.618068 61.5100594,33.8917633 78.4125803,24.1352743 C78.4547453,24.123317 78.4874705,24.1031785 78.4874705,24.0924799 C96.9412875,13.4738101 114.981006,11.3296858 127.520388,18.13588 C132.446776,20.8010887 136.429171,24.7287316 139.359957,29.7929429 C142.990556,36.0906391 144.818128,43.8842506 144.818128,52.9302271 C144.818128,54.1939199 144.785403,55.467682 144.709883,56.7534013 C144.668977,57.3153922 144.286345,57.793053 143.723095,57.8994096 C143.191941,58.0271634 142.597855,57.7502586 142.354304,57.2411314 C141.217107,55.0114184 139.98551,52.8238705 138.61546,50.7319805 C138.509733,50.5519924 138.436101,50.3399085 138.436101,50.117126 C138.085565,43.3738647 136.577693,37.597253 133.891087,32.9364417 C131.576414,28.9225807 128.401449,25.8017377 124.493945,23.6884506 C113.918699,17.9439346 98.0023364,20.120784 81.5875456,29.6028855 C65.5226617,38.8615751 50.4451953,53.8540822 39.0738478,71.798772 C27.7238976,89.6685717 21.4910222,108.248884 21.4910222,124.13378 C21.4910222,132.086611 23.0404305,138.817915 26.1102978,144.126936 C28.4344101,148.150866 31.5986768,151.272968 35.5162505,153.374297 C41.8567411,156.824909 50.1267547,157.505214 59.3218822,155.349761 C59.5345954,155.296268 59.7466793,155.296268 59.9587632,155.371788 C62.3577657,156.082301 64.7901227,156.678275 67.2539461,157.122582 C67.815937,157.228309 68.2419928,157.69653 68.2722006,158.248451 C68.3049257,158.822399 67.95376,159.342225 67.4232356,159.533541 C61.0525372,161.773953 54.9266478,162.910521 49.2142276,162.910521 L49.2142276,162.910521 Z M22.8705116,146.112469 C25.5470482,150.731115 29.1669492,154.30948 33.6792388,156.740579 C41.324958,160.902961 51.2519952,161.529144 62.1463111,158.566892 C61.2967169,158.34348 60.4150268,158.09993 59.5761311,157.845051 C49.9253694,160.053367 41.1443406,159.278663 34.3173785,155.573173 C30.0171728,153.237104 26.5344656,149.80726 23.9542163,145.369231 C20.6842223,139.678208 18.995103,132.542875 18.995103,124.13378 C18.995103,107.781922 25.3658015,88.7226901 36.9605607,70.460189 C48.5452507,52.1762908 63.9411577,36.897439 80.3244821,27.4373641 C97.5460728,17.4983696 114.312029,15.3221496 125.694075,21.4908334 C129.983582,23.8376016 133.477618,27.2668159 136.04591,31.6947754 C138.891736,36.6211636 140.517293,42.6627229 140.898666,49.6602331 C141.398354,50.4248679 141.854617,51.1895028 142.310881,51.9642069 C142.205153,43.7671954 140.485197,36.7268908 137.17115,31.0465664 C134.497131,26.3750565 130.833177,22.7752941 126.320887,20.3341266 C114.55558,13.9407723 97.3660847,16.0968537 79.687601,26.3007957 C79.6448067,26.3121236 79.6120815,26.3328915 79.5799858,26.3423314 C63.0588383,35.9100217 47.5257376,51.3159979 35.8258804,69.7484178 C24.1348338,88.2236321 17.6892452,107.537113 17.6892452,124.13378 C17.6892452,132.755588 19.4205295,140.114333 22.8289759,146.02751 C22.8289759,146.059605 22.8289759,146.080373 22.8705116,146.112469 L22.8705116,146.112469 Z" id="Fill-20" fill="#000000"></path>
                    <path d="M128.826624,37.5445152 C136.928607,37.5445152 143.479293,30.98313 143.479293,22.9025445 C143.479293,14.8232175 136.928607,8.27127231 128.826624,8.27127231 C120.756107,8.27127231 114.205421,14.8232175 114.205421,22.9025445 C114.205421,30.98313 120.756107,37.5445152 128.826624,37.5445152" id="Fill-22" fill="#F4D74B"></path>
                    <path d="M128.826624,38.7871884 C120.087131,38.7871884 112.931659,31.6625537 112.931659,22.9022927 C112.931659,14.142661 120.087131,7.019285 128.826624,7.019285 C137.596954,7.019285 144.710261,14.142661 144.710261,22.9022927 C144.710261,31.6625537 137.596954,38.7871884 128.826624,38.7871884 M128.826624,9.51394554 C121.45718,9.51394554 115.437018,15.5240384 115.437018,22.9022927 C115.437018,30.282435 121.45718,36.2918986 128.826624,36.2918986 C136.216835,36.2918986 142.204902,30.282435 142.204902,22.9022927 C142.204902,15.5240384 136.216835,9.51394554 128.826624,9.51394554" id="Fill-24" fill="#000000"></path>
                    <path d="M80.9497835,25.2172169 C69.440613,18.570243 58.5890914,15.4066056 49.2139758,15.4066056 C43.1931844,15.4066056 37.7362718,16.7130928 33.0849004,19.2297799 C28.3926227,21.7666054 24.5587498,25.5255881 21.7343209,30.4211392 L21.7034837,30.4840721 C22.9671766,30.7710461 24.2088429,31.2273097 25.333454,31.8434229 C27.7651816,27.8188634 31.0037091,24.7080896 34.9118428,22.5948025 C38.9993353,20.3751588 43.8199961,19.2297799 49.2139758,19.2297799 C57.951581,19.2297799 68.1341258,22.2234984 79.0504683,28.5193066 C95.7836996,38.1927242 110.998989,53.7692486 121.988963,71.1286624 C132.978308,88.4358419 139.741708,107.473676 139.741708,124.133276 C139.741708,132.499577 138.053218,139.412757 134.953143,144.753244 L134.953143,144.742545 C132.489319,149.011285 129.144435,152.271209 125.089038,154.478896 C121.000916,156.69854 116.180256,157.834479 110.786905,157.834479 C107.505583,157.834479 104.023505,157.42038 100.402346,156.560087 C97.9712475,157.283186 95.4973549,157.887342 92.9699692,158.354934 C99.3085719,160.584647 105.297897,161.657024 110.786905,161.657024 C116.807067,161.657024 122.274679,160.360606 126.92605,157.834479 C131.608258,155.307722 135.440873,151.54811 138.265931,146.664516 L138.265931,146.653818 C141.673748,140.729943 143.58502,133.168554 143.58502,124.133276 C143.58502,106.741767 136.577441,86.9707637 125.226861,69.0801962 C113.918447,51.2424923 98.247523,35.2090749 80.9497835,25.2172169" id="Fill-26" fill="#DD784B"></path>
                    <path d="M110.786779,162.910521 C105.085058,162.910521 98.958539,161.773953 92.577142,159.533541 C92.0472469,159.342225 91.6960812,158.822399 91.7275477,158.25915 C91.7703421,157.69653 92.1938806,157.228309 92.7577594,157.122582 C95.2203242,156.666318 97.6841476,156.082301 100.040985,155.371788 C100.253698,155.308226 100.466412,155.296268 100.678495,155.349761 C109.874252,157.505214 118.144266,156.824909 124.493567,153.374297 C128.401701,151.262269 131.576037,148.150866 133.890709,144.126936 C136.959947,138.817915 138.509985,132.096051 138.509985,124.13378 C138.509985,108.248884 132.277109,89.6685717 120.937228,71.798772 C109.555182,53.8433836 94.4462494,38.8615751 78.412832,29.6028855 C62.0074811,20.120784 46.0816791,17.9439346 35.5165022,23.6884506 C31.7474502,25.7274769 28.6782122,28.6790304 26.384937,32.4801781 C26.03503,33.0541262 25.302491,33.2555115 24.7285428,32.9364417 C23.7090297,32.3731922 22.5837893,31.9603523 21.4264531,31.705474 C21.0350104,31.6091866 20.7159405,31.3549377 20.5768588,30.9937028 C20.4075693,30.6431665 20.4075693,30.2290679 20.6196532,29.8892302 C23.5718359,24.7287316 27.5536011,20.8010887 32.4806186,18.13588 C45.0514673,11.3296858 63.0590901,13.4738101 81.5135365,24.0924799 C81.5135365,24.1031785 81.5550722,24.123317 81.587168,24.1352743 C98.4909475,33.9037205 114.344377,49.627508 126.289672,68.4117228 C138.223011,87.290337 144.81775,107.070151 144.81775,124.13378 C144.81775,133.158988 142.990179,140.919875 139.391045,147.206243 C139.391045,147.227011 139.359579,147.248408 139.359579,147.280504 C136.428793,152.345344 132.446399,156.262918 127.52064,158.938825 C122.657814,161.571938 117.019655,162.910521 110.786779,162.910521 M97.8219707,158.566892 C108.748382,161.540472 118.643953,160.902961 126.320509,156.740579 C130.832799,154.30948 134.453959,150.731115 137.139935,146.10177 C137.139935,146.080373 137.171402,146.059605 137.171402,146.02751 C140.590547,140.114333 142.311132,132.74489 142.311132,124.13378 C142.311132,107.54907 135.866173,88.2236321 124.175756,69.7484178 C112.475269,51.3159979 96.9409099,35.9100217 80.3876667,26.3423314 C80.3876667,26.3328915 80.3562003,26.3121236 80.3241045,26.3007957 C62.667018,16.0968537 45.4762645,13.9313323 33.6794906,20.3341266 C29.5913688,22.5424423 26.2156475,25.7060797 23.6033024,29.7306393 C24.0280995,29.8791609 24.453526,30.0377519 24.8770645,30.2189987 C27.3087921,26.502181 30.4730588,23.5713954 34.3176303,21.4908334 C45.6883484,15.3221496 62.4656327,17.4983696 79.6878528,27.4373641 C96.0598492,36.897439 111.455756,52.1762908 123.049886,70.460189 C134.633947,88.7226901 141.015344,107.791991 141.015344,124.13378 C141.015344,132.532176 139.316785,139.678208 136.046161,145.369231 C133.477869,149.80726 129.983834,153.237104 125.694327,155.573173 C118.856666,159.278663 110.085707,160.064066 100.433686,157.845051 C99.5847215,158.09993 98.7036607,158.34348 97.8219707,158.566892" id="Fill-28" fill="#000000"></path>
                    <path d="M147.418579,66.181884 C150.349364,68.8464634 152.706202,71.6387966 154.501048,74.5374864 C157.324219,79.0598453 158.726364,83.7968054 158.726364,88.5318775 C158.726364,93.2675789 157.324219,98.002651 154.501048,102.525639 L154.501048,102.536967 C150.6999,108.684883 144.286408,114.42877 135.228474,119.280897 C119.948993,127.498676 99.9778633,131.596868 79.9947766,131.596868 C60.0343456,131.596868 40.0606988,127.498676 24.728354,119.280897 C15.7144734,114.42877 9.30098057,108.684883 5.46773705,102.536967 C2.68547312,98.0133496 1.27388796,93.2782775 1.27388796,88.5318775 C1.27388796,83.7968054 2.68547312,79.0711732 5.46773705,74.5374864 C7.26321296,71.6387966 9.65214621,68.8351354 12.5823025,66.181884 C11.7006124,68.8678606 10.9580041,71.6173994 10.3960132,74.4317591 C9.90639516,75.1007359 9.45013157,75.7690834 9.02533443,76.4475002 L9.02533443,76.4380603 C6.5936068,80.3663325 5.36200976,84.4544543 5.36200976,88.5318775 C5.36200976,92.6093007 6.5936068,96.7081211 9.02533443,100.626324 C12.5080416,106.22106 18.4325458,111.487286 26.8101747,115.989506 C41.462844,123.84668 60.7033225,127.774952 79.9947766,127.774952 C99.3088865,127.774952 118.538037,123.84668 133.190706,115.989506 C141.577775,111.487286 147.49221,106.22106 150.974917,100.626324 C153.406016,96.7081211 154.606776,92.6199993 154.606776,88.5318775 C154.606776,84.4544543 153.406016,80.3663325 150.974917,76.4475002 L150.974917,76.4380603 C150.550749,75.7583848 150.094486,75.089408 149.605497,74.4198018 C149.042877,71.6173994 148.299639,68.8678606 147.418579,66.181884" id="Fill-30" fill="#DD784B"></path>
                    <g id="Group-34" transform="translate(0.000000, 64.929788)">
                        <mask id="mask-4" fill="white">
                            <use xlink:href="#path-3"></use>
                        </mask>
                        <g id="Clip-33"></g>
                        <path d="M79.9950283,67.9203885 C58.9716605,67.9203885 39.1370954,63.4936876 24.1666149,55.4552671 C15.1206385,50.6031397 8.4944324,44.8271573 4.4063106,38.2657721 C1.48748225,33.5615372 -0.000251731638,28.6244504 -0.000251731638,23.6024042 C-0.000251731638,18.6124538 1.48748225,13.7068335 4.37484414,9.02336638 C4.37484414,9.00259852 4.4063106,8.96987341 4.4063106,8.94973488 C6.30688447,5.92266193 8.78140647,3.02460144 11.7757543,0.316598341 C12.1999221,-0.054076497 12.7952674,-0.10756947 13.2829975,0.200172458 C13.7392611,0.507914386 13.9526037,1.10325971 13.7820555,1.64448273 C12.9009947,4.29836353 12.1577571,7.02776382 11.6266033,9.74646551 C11.5945075,9.92582431 11.520876,10.0951138 11.4145194,10.2442648 C10.92616,10.8817752 10.5019922,11.5293548 10.0759364,12.1781931 C7.79335979,15.8717256 6.62595432,19.7156677 6.62595432,23.6024042 C6.62595432,27.4778128 7.79335979,31.3318242 10.0759364,35.0373139 C13.5693422,40.6226096 19.345954,45.6339572 27.3088551,49.9133951 C27.3409508,49.9240937 27.3730466,49.9347922 27.4164703,49.9555601 C41.3989042,57.4628269 60.0654345,61.5924844 79.9950283,61.5924844 C99.9346914,61.5924844 118.61192,57.4628269 132.595613,49.9555601 C132.627709,49.9347922 132.659175,49.9133951 132.70134,49.9026965 C140.654172,45.6232586 146.442112,40.6226096 149.92356,35.0373139 C152.217465,31.3318242 153.374172,27.4885114 153.374172,23.6024042 C153.374172,19.7263663 152.217465,15.8717256 149.92356,12.1781931 C149.892723,12.145468 149.849929,12.1133722 149.849929,12.0819058 C149.467297,11.4651633 149.043129,10.8490501 148.586865,10.2341956 C148.479879,10.0856739 148.405618,9.91575504 148.374152,9.74646551 C147.842998,7.02776382 147.10039,4.29836353 146.228769,1.64448273 C146.048781,1.11269965 146.260865,0.51861298 146.717128,0.210241723 C147.216816,-0.0968708755 147.810902,-0.054076497 148.236329,0.327926264 C151.229418,3.03530003 153.693241,5.93336052 155.562349,8.94973488 C158.513902,13.6420126 160.000378,18.5797287 160.000378,23.6024042 C160.000378,28.5929839 158.513902,33.4973456 155.63598,38.1808127 C155.63598,38.2129085 155.593815,38.233047 155.593815,38.2657721 C151.506952,44.8271573 144.84928,50.6031397 135.83414,55.4552671 C120.86366,63.4936876 101.029095,67.9203885 79.9950283,67.9203885 L79.9950283,67.9203885 Z M6.59385853,10.1914012 C6.56239208,10.2127984 6.56239208,10.2442648 6.51896837,10.2662913 C3.87578617,14.5771957 2.50699539,19.0567602 2.50699539,23.6024042 C2.50699539,28.1574882 3.87578617,32.64901 6.51896837,36.9485864 C10.3635398,43.1279687 16.7021425,48.6176064 25.333391,53.2582792 C39.9552232,61.1034957 59.3649912,65.4257279 79.9950283,65.4257279 C100.646463,65.4257279 120.05686,61.1034957 134.666735,53.2582792 C143.267146,48.628305 149.573653,43.1701338 153.406267,37.0228472 C153.449062,36.9907514 153.449062,36.9699835 153.449062,36.9378878 C156.125598,32.6370527 157.494389,28.1467896 157.494389,23.6024042 C157.494389,19.0567602 156.125598,14.5658677 153.449062,10.2555928 C152.49374,8.684158 151.325705,7.13412044 149.99845,5.63568786 C150.274096,6.74078975 150.518905,7.86540085 150.763714,8.980572 C151.229418,9.59794385 151.654844,10.223497 152.037477,10.8490501 C152.037477,10.8817752 152.069572,10.913871 152.069572,10.9453374 C154.607027,15.02339 155.880789,19.2808013 155.880789,23.6024042 C155.880789,27.9655428 154.574302,32.24561 152.037477,36.3544997 C148.299891,42.3419367 142.172743,47.650957 133.785045,52.1531773 C133.752949,52.1739452 133.720853,52.1852731 133.689387,52.196601 C119.345089,59.872528 100.285228,64.0984729 79.9950283,64.0984729 C59.7148982,64.0984729 40.6128721,59.8618294 26.2792727,52.196601 C26.2471769,52.1739452 26.2471769,52.1638759 26.2157104,52.1531773 C17.8273829,47.650957 11.7002348,42.3324968 7.96264932,36.3544997 C5.42582373,32.24561 4.13129378,27.9554736 4.13129378,23.6024042 C4.13129378,19.2487055 5.42582373,14.9591984 7.96264932,10.860378 C8.35660933,10.223497 8.78140647,9.60738378 9.23767007,8.980572 C9.4503833,7.86540085 9.72602944,6.74078975 10.0130035,5.62624792 C8.70714564,7.11146459 7.5491801,8.63066503 6.59385853,10.1914012 L6.59385853,10.1914012 Z" id="Fill-32" fill="#000000" mask="url(#mask-4)"></path>
                    </g>
                    <path d="M94.7212033,145.071559 C103.67278,145.071559 110.92391,137.809101 110.92391,128.847455 C110.92391,119.885808 103.67278,112.62398 94.7212033,112.62398 C85.7822128,112.62398 78.4876592,119.885808 78.4876592,128.847455 C78.4876592,137.809101 85.7822128,145.071559 94.7212033,145.071559" id="Fill-35" fill="#00AF81"></path>
                    <path d="M94.7212033,146.314169 C85.0704416,146.314169 77.2566915,138.477763 77.2566915,128.847769 C77.2566915,119.207077 85.0704416,111.370671 94.7212033,111.370671 C104.341757,111.370671 112.20019,119.207077 112.20019,128.847769 C112.20019,138.477763 104.341757,146.314169 94.7212033,146.314169 M94.7212033,113.865961 C86.4826561,113.865961 79.7513521,120.586566 79.7513521,128.847769 C79.7513521,137.107714 86.4826561,143.818879 94.7212033,143.818879 C102.972337,143.818879 109.692942,137.107714 109.692942,128.847769 C109.692942,120.586566 102.972337,113.865961 94.7212033,113.865961" id="Fill-37" fill="#000000"></path>
                </g>
            </g>
        </g>
    </g>
</svg>