<?xml version="1.0" encoding="UTF-8"?><svg id="Layer_1" xmlns="http://www.w3.org/2000/svg" viewBox="0 0 720 720"><defs><style>.cls-1{fill:#00af81;}.cls-1,.cls-2,.cls-3,.cls-4,.cls-5{fill-rule:evenodd;}.cls-3{fill:#3d68ec;}.cls-4{fill:#05b173;}.cls-5{fill:#15110e;}</style></defs><path id="Fill-91" class="cls-1" d="M480.12,403.49c-42.53-76.63-73.18-57.47-91.96-46.36-18.78,10.73-57.86-16.86-68.97-106.14-12.26-97.71-82.38-147.9-82.38-147.9l-35.63,21.46,21.84,66.29,13.79,19.16v158.25l219.17,126.44,13.41,27.2,37.17,44.06,35.63-21.46s-19.16-64.37-62.07-141"/><path id="Fill-93" class="cls-2" d="M470.93,520.74l36.02,42.91,32.95-19.92c-3.07-9.58-22.61-69.74-61.31-139.09-17.63-31.8-35.25-50.19-52.11-54.79-14.94-4.21-26.82,2.68-36.4,8.43l-1.15.77c-6.13,3.45-13.79,3.45-21.84-.77-9.2-4.6-39.85-25.67-49.81-106.9-11.11-89.66-72.42-139.47-80.85-145.99l-33.34,19.92,21.07,64.75,13.79,19.54v157.86l218.4,126.06,13.41,27.2h1.15ZM506.18,568.63l-38.7-45.6-13.03-26.44-219.55-126.83v-159.01l-13.79-19.54-22.22-67.82,37.93-22.61,1.15.77c.77.38,70.89,52.11,83.15,149.43,5.36,41.38,20.69,90.43,47.9,104.22,6.9,3.45,13.41,3.45,18.39.77l1.15-.77c9.58-5.75,22.99-13.41,39.47-8.81,18.01,4.98,35.63,23.37,54.03,56.71,42.15,76.25,62.07,140.62,62.07,141.39v1.53c.38,0-37.55,22.99-37.55,22.99l-.38-.38Z"/><path id="Fill-95" class="cls-4" d="M407.7,347.93l-39.47,22.61s-19.92,42.91-27.59,57.86l114.95,66.29,13.41,27.2,37.17,44.06,35.63-21.46s-19.16-64.37-62.07-141c-30.27-54.03-54.03-60.54-72.42-55.56"/><path id="Fill-97" class="cls-2" d="M470.93,520.74l36.02,42.91,32.95-19.92c-3.07-9.58-22.61-69.74-61.31-139.09-35.25-63.22-61.31-57.09-70.12-54.79l-38.7,22.22c-2.3,4.98-18.78,40.62-26.82,55.56l114.18,65.9,13.41,27.2h.38ZM506.18,568.63l-38.7-45.6-13.03-26.44-116.1-67.05.77-1.53c7.66-14.56,27.59-57.09,27.59-57.47h0c0-.38,40.62-23.76,40.62-23.76,25.29-6.51,49.43,11.88,74.33,56.33,42.15,76.25,62.07,140.62,62.07,141.39v1.53c.38,0-37.55,22.99-37.55,22.99v-.38Z"/><path id="Fill-99" class="cls-5" d="M507.33,562.12l-35.25-41.76-13.79-27.59-113.42-65.52c7.66-15.33,22.99-48.28,26.06-54.41l37.93-21.84h1.15c.77,0,1.53,0,2.68-.38h4.6c.77,0,0,0,.38,0,9.58,0,19.54,4.6,29.12,13.79h0c2.68,2.3,5.36,5.36,8.05,8.43.38.77,1.15,1.15,1.53,1.92.77.77,1.53,1.92,2.3,2.68.77.77,1.15,1.53,1.92,2.3.77,1.15,1.53,2.3,2.3,3.45.77,1.15,1.53,1.92,2.3,3.07.77,1.53,1.92,2.68,2.68,4.21.38.77,1.15,1.53,1.53,2.3.77,1.53,1.92,2.68,2.68,4.21.38.77.77,1.53,1.15,2.3,1.15,2.3,2.68,4.6,3.83,6.9,37.55,67.44,57.09,125.68,60.92,137.94l-31.04,18.78.38-.77ZM226.08,189.3l-20.69-63.61,31.42-19.16c10.35,8.43,68.59,57.86,79.31,144.84,10.35,82,41.38,103.45,50.58,108.05,3.45,1.53,6.51,2.68,9.96,3.07l-10.73,6.13v.77c-.77.38-18.01,37.93-26.44,54.79l-99.62-57.47v-157.86l-14.18-19.92.38.38ZM545.26,543.73c0-.77-19.92-65.52-62.07-141.77-1.53-2.68-3.07-4.98-4.21-7.66,0-.38-.77-1.15-.77-1.53-1.53-2.3-2.68-4.6-4.21-6.51h0c-15.33-23.37-30.27-37.17-45.6-41.38-7.66-2.3-14.56-1.53-20.69,0h0c-7.66,1.92-14.18,5.75-19.54,8.81l-1.15.77c-4.6,2.68-10.73,2.3-17.24-.77-17.63-8.81-39.47-40.62-47.13-103.07-12.26-97.71-83.15-149.82-83.53-150.2l-1.53-1.15-38.7,23.37v2.3l21.84,66.67,13.41,19.54v159.4l219.94,126.83,13.03,26.06,37.93,45.21,1.92,1.15,39.08-23.76-.77-2.3h0Z"/><g id="Group-103"><path id="Fill-101" class="cls-2" d="M241.79,365.56l96.94,55.94c8.05-15.71,22.22-46.36,24.91-52.49l.77-1.53,6.9-3.83c-1.92-.38-3.83-1.15-5.36-2.3-9.58-4.6-41.38-26.44-51.73-109.2-10.35-83.53-64.37-131.81-77.78-142.54l-29.12,17.63,20.31,61.69,14.18,19.92v157.1-.38ZM340.27,426.48l-101.92-59.01v-157.86l-13.79-19.92-21.07-64.75,33.72-20.31,1.15.77c11.49,9.2,69.35,58.62,80.08,145.99,10.35,81.23,40.62,101.92,49.81,106.52,3.07,1.53,6.13,2.68,9.2,2.68l5.36.77-14.94,8.43v.77c-3.07,6.51-18.39,39.08-26.44,54.41l-.77,1.53h-.38ZM473.61,519.2l34.1,40.62,28.35-17.24c-4.6-14.18-24.14-71.27-60.16-136.41-1.15-2.3-2.68-4.6-3.83-6.9,0-.77-.77-1.15-1.15-1.92h0c-.77-1.53-1.92-3.07-2.68-4.6h0c0-1.15-.77-1.92-1.15-2.3-.77-1.53-1.92-2.68-2.68-4.21-.77-1.15-1.53-1.92-2.3-3.07-.77-1.15-1.53-2.3-2.3-3.45-.38-.77-1.15-1.53-1.53-2.3-.77-1.15-1.53-1.92-2.3-2.68h0c-.38-.77-.77-1.15-1.15-1.92-2.68-3.07-5.36-5.75-7.66-8.05-9.58-8.81-19.16-13.41-28.35-13.41h-4.6c-.77,0-1.53,0-2.3.38h-.77l-37.17,21.46c-3.45,7.28-17.24,37.17-24.91,52.11l112.27,64.75,13.79,27.97-1.53,1.15ZM506.94,564.42l-36.4-43.3-13.41-27.2-114.18-65.9.77-1.53c7.66-14.94,22.99-47.9,26.06-54.03h0c0-.38,39.47-22.99,39.47-22.99h.77c.77,0,1.92,0,2.68-.38h4.98c10.35,0,20.69,4.98,30.65,14.18,2.68,2.68,5.36,5.36,8.43,8.81.38.38.77,1.15,1.15,1.53h0c.77,1.15,1.53,2.3,2.3,3.07.77.77,1.15,1.53,1.92,2.3.77,1.15,1.53,2.3,2.3,3.45.77,1.15,1.53,1.92,2.3,3.07.77,1.53,1.92,2.68,2.68,4.21.38.77.77,1.15,1.15,1.92h0c.77,1.92,1.92,3.45,2.68,4.98h0c0,.77.77,1.53,1.15,2.3,1.15,2.3,2.68,4.6,3.83,6.9,37.93,67.82,57.47,127.21,60.92,138.32v1.53c.38,0-33.34,20.31-33.34,20.31l1.15-1.53ZM505.79,567.1h.77c0,.38,37.17-21.84,37.17-21.84v-1.15c-1.15-2.68-20.69-66.29-62.46-141.39-1.15-2.3-2.68-4.6-4.21-7.28l-.77-1.53c-1.53-2.3-2.68-4.6-4.21-6.51l1.53-1.15-1.53,1.15c-14.94-23.37-29.5-36.4-44.45-40.62-6.51-1.92-13.03-1.92-19.92,0h0c-7.28,1.92-13.79,5.75-18.78,8.81l-1.15.77c-5.36,3.07-11.88,2.68-18.78-.77-18.01-8.81-40.23-41-48.28-104.6-12.26-96.94-82.38-148.28-82.76-149.05h-.77c0-.38-36.78,21.84-36.78,21.84v.77l21.84,66.29,13.79,19.54v158.63l219.17,126.83,13.03,26.44,37.93,44.83h-.38ZM506.56,572.08l-3.07-1.92h0l-38.32-45.98-12.64-25.67-220.32-127.21v-159.78l-13.41-19.54-21.84-67.05v-3.45l40.23-24.52,2.68,1.92c.77.38,72.03,52.88,84.3,151.35,7.66,62.07,29.12,93.11,46.36,101.54,5.75,3.07,11.11,3.07,15.33.77l1.15-.77c5.36-3.07,11.88-6.9,19.92-9.2h0c7.28-1.92,14.56-1.92,21.46,0,15.71,4.21,31.04,18.01,46.36,42.15h0c1.53,2.3,2.68,4.6,4.21,6.9l.77,1.53c1.53,2.68,3.07,5.36,4.21,7.66,41.76,75.48,61.69,139.47,62.46,142.15h0l1.15,3.83-41.38,24.91.38.38Z"/></g><path id="Fill-104" class="cls-1" d="M201.18,389.7V124.16s70.12,50.58,82.38,147.9c11.11,89.66,50.19,117.25,68.97,106.14,18.78-10.73,49.43-30.27,91.96,46.36,42.53,76.63,62.07,141,62.07,141l-305.38-176.26v.38Z"/><path id="Fill-106" class="cls-2" d="M203.09,388.93l300.4,173.19c-5.36-15.71-24.52-72.03-60.16-136.02-17.63-31.8-35.25-50.19-52.11-54.79-14.94-4.21-26.82,2.68-36.4,8.43l-1.15.77c-6.13,3.45-13.79,3.45-21.84-.77-9.2-4.6-39.85-25.67-49.81-106.9-10.73-84.3-65.52-133.72-78.55-144.45v260.55h-.38ZM509.63,569.78l-310.36-178.94V120.71l3.07,1.92c.77.38,70.89,52.11,83.15,149.43,5.36,41.38,20.69,90.43,47.9,104.22,6.9,3.45,13.41,3.45,18.39.77l1.15-.77c9.58-5.75,22.99-13.41,39.47-8.81,18.01,4.98,35.63,23.37,54.03,56.71,42.15,76.25,62.07,140.62,62.07,141.39l1.15,4.6v-.38Z"/><path id="Fill-108" class="cls-5" d="M204.63,388.16l296.57,171.27c-6.51-19.16-25.67-72.42-59.01-132.57-17.63-31.42-34.48-49.43-50.96-54.03-14.18-3.83-26.06,2.68-35.63,8.43l-1.15.77c-6.51,3.83-14.56,3.45-22.99-.77-9.2-4.6-40.23-26.06-50.58-108.05-9.96-80.08-60.16-128.36-76.25-141.77v257.1-.38ZM510.39,567.48l-3.83,2.3-308.45-178.17V122.63l3.45-1.92,1.53,1.15c.77.38,71.27,52.49,83.53,150.2,8.05,62.84,29.5,94.26,47.13,103.07,6.51,3.07,12.26,3.45,17.24.77l1.15-.77c9.96-5.75,23.37-13.41,40.23-8.81,18.39,4.98,36.4,23.76,54.79,57.09,42.53,76.25,62.07,141,62.07,141.77l.77,2.3h.38Z"/><path id="Fill-110" class="cls-2" d="M206.16,387.01l291.59,168.21c-7.66-22.61-26.44-72.03-57.47-127.59-17.24-31.04-34.1-49.05-50.19-53.26-13.41-3.83-24.91,2.68-34.1,8.05l-1.15.77c-6.9,4.21-15.71,3.83-24.91-.38-9.58-4.6-41.38-26.44-51.73-109.2-9.58-74.72-54.41-121.85-72.42-137.94v252.12l.38-.77ZM504.26,563.27l-301.55-174.34V126.84l3.07,2.68c15.33,13.03,66.67,62.07,76.63,142.92,10.35,80.85,40.62,101.92,49.81,106.52,7.66,3.83,15.33,4.21,21.46.77l1.15-.77c9.58-5.75,21.84-12.64,36.78-8.43,16.86,4.6,34.48,23.37,52.11,55.18,33.34,60.16,52.49,113.03,59.39,132.96l1.53,4.6h-.38ZM200.03,390.46l306.53,177.02,1.53-.77v-1.15c-.38-.77-20.31-65.52-62.46-141.39-18.39-32.95-36.02-51.34-54.03-56.33-16.09-4.6-29.12,3.07-39.08,8.81l-1.15.77c-5.36,3.07-11.88,2.68-18.78-.77-18.01-8.81-40.23-41-48.28-104.6-12.26-96.94-82.38-148.28-82.76-149.05h-.77c0-.38-1.53,0-1.53,0v267.07l.77.38ZM506.56,571.7l-310.36-179.32V121.48l5.36-3.07,2.68,1.92c.77.38,72.03,52.88,84.3,151.35,7.66,62.07,29.12,93.11,46.36,101.54,5.75,3.07,11.11,3.07,15.33.77l1.15-.77c10.35-5.75,24.14-13.79,41.76-9.2,18.78,5.36,37.17,24.14,55.94,57.86,42.15,75.87,62.07,141.39,62.46,142.15l1.15,3.83-5.75,3.45-.38.38Z"/><path id="Fill-112" class="cls-3" d="M404.64,485.1c-34.87-62.84-59.77-46.75-75.1-37.93-15.33,8.81-47.13-13.79-56.33-86.6-9.96-79.7-67.05-120.7-67.05-120.7l-29.12,17.63,17.63,54.03,11.11,15.71v129.13l178.55,103.07,11.11,22.22,30.27,36.02,29.12-17.63s-15.71-52.49-50.58-114.95"/><path id="Fill-114" class="cls-2" d="M397.36,580.51l29.12,34.48,26.44-16.09c-2.68-8.43-18.78-57.09-49.81-113.42-14.18-25.67-28.35-40.62-42.15-44.45-11.88-3.45-21.84,2.3-29.5,6.9h-.77c-4.98,3.45-11.49,3.07-18.01,0-7.66-3.83-32.57-21.07-41-87.36-9.2-72.42-57.86-113.03-65.52-118.78l-26.44,16.09,17.24,52.49,11.49,16.09v128.74l178.17,103.07,11.11,22.22h-.38ZM425.71,619.98l-31.8-37.55-10.73-21.46-178.94-103.45v-129.51l-11.11-15.71-18.01-55.56,31.42-18.78,1.15.77c.77.38,57.86,42.53,67.82,122.23,4.21,33.72,16.86,73.57,39.08,84.68,5.36,2.68,10.73,3.07,14.56.77h.77c8.05-4.98,18.78-11.49,32.19-7.66,14.94,4.21,29.5,19.16,44.45,46.36,34.48,62.07,50.58,114.95,50.58,115.33v1.53c.38,0-31.04,19.16-31.04,19.16l-.38-1.15Z"/><path id="Fill-120" class="cls-5" d="M426.86,614.23l-28.74-34.1-11.11-22.61-92.34-53.26c6.51-12.64,18.78-39.47,21.07-44.45l31.04-17.63h.77c.77,0,1.53,0,1.92-.38h3.83c.77,0,0,0,0,0,8.05,0,15.71,3.83,23.76,11.11h0c2.3,1.92,4.21,4.21,6.51,6.9.38.38.77,1.15,1.15,1.53.77.77,1.15,1.53,1.92,2.3.38.77.77,1.15,1.53,1.92.77.77,1.15,1.92,1.92,2.68.77.77,1.15,1.53,1.92,2.68.77,1.15,1.53,2.3,2.3,3.45.38.77.77,1.15,1.15,1.92.77,1.15,1.53,2.3,2.3,3.45,0,.77.77,1.15,1.15,1.92,1.15,1.92,2.3,3.45,3.07,5.36,30.65,55.18,46.36,102.69,49.81,112.65l-25.29,15.33.38-.77ZM197.35,310l-16.86-51.73,25.67-15.33c8.43,6.9,55.94,47.13,64.75,118.01,8.43,67.05,33.72,84.3,41.38,88.13,2.68,1.53,5.36,2.3,8.05,2.3l-8.81,4.98v.77c-.38,0-14.56,31.04-21.46,44.45l-81.23-46.75v-128.74l-11.49-16.09ZM457.52,599.29c0-.38-16.09-53.26-50.58-115.72-1.15-2.3-2.3-4.21-3.45-6.13,0-.38-.38-.77-.77-1.15-1.15-1.92-2.3-3.83-3.45-5.36h0c-12.26-19.16-24.52-30.27-37.17-33.72-6.13-1.53-11.88-1.15-16.86,0h0c-6.13,1.53-11.49,4.6-15.71,7.28h-.77c-3.83,2.68-8.81,2.3-13.79,0-14.56-7.28-32.19-32.95-38.32-83.91-9.96-79.7-67.82-122.23-68.2-122.61l-1.53-1.15-31.8,19.16v1.92l18.01,54.41,11.11,15.71v129.89l179.32,103.45,10.73,21.46,31.04,36.78,1.53,1.15,31.8-19.16v-1.92l-1.15-.38Z"/><path id="Fill-122" class="cls-2" d="M210.37,453.68l78.55,45.21c6.51-13.03,18.01-37.55,20.31-42.53l.77-1.53,4.98-3.07c-1.15-.38-2.68-.77-3.83-1.53-7.66-3.83-33.72-21.84-42.15-89.66-8.43-67.44-52.11-106.9-63.22-116.1l-23.37,14.18,16.48,50.19,11.49,16.48v128.36ZM290.46,504.26l-83.91-48.28v-129.13l-11.49-16.09-17.24-53.26,27.97-16.86,1.15.77c9.2,7.28,56.71,47.9,65.52,119.16,8.43,65.9,32.95,83.15,40.23,86.6,2.3,1.15,4.98,1.92,7.28,2.3l5.36.77-13.03,7.28h0c-2.3,5.75-14.94,32.19-21.46,44.83l-.77,1.53.38.38ZM399.27,578.98l27.59,32.57,22.61-13.79c-3.83-11.88-19.92-58.24-49.05-110.73-1.15-1.92-2.3-3.83-3.07-5.36,0-.77-.77-1.15-1.15-1.92-.77-1.15-1.53-2.3-2.3-3.45h0c0-.77-.77-1.53-1.15-1.92-.77-1.15-1.53-2.3-2.3-3.45-.77-.77-1.15-1.53-1.92-2.68-.77-.77-1.15-1.92-1.92-2.68-.38-.77-.77-1.15-1.15-1.53-.77-.77-1.15-1.53-1.92-2.3h0c0-.77-.77-1.15-1.15-1.53-2.3-2.68-4.21-4.98-6.51-6.51-7.66-7.28-15.33-10.73-22.61-10.73h-6.13l-30.27,17.24c-2.68,6.13-13.79,29.89-20.31,42.15l91.58,52.88,11.49,22.61-.38,1.15ZM426.48,616.53l-29.89-35.63-10.73-21.84-93.49-54.03.77-1.53c6.13-12.26,18.78-39.08,21.07-44.06h0c0-.38,32.19-18.78,32.19-18.78h.77c.77,0,1.53,0,2.3-.38h4.21c8.43,0,16.86,4.21,25.29,11.88,2.3,1.92,4.6,4.6,6.9,6.9,0,.38.77.77,1.15,1.15h0c.77,1.15,1.15,1.92,1.92,2.68.38.77,1.15,1.15,1.53,1.92.77.77,1.15,1.92,1.92,2.68.77.77,1.15,1.53,1.92,2.68.77,1.15,1.53,2.3,2.3,3.45,0,.38.77,1.15,1.15,1.53h0c.77,1.53,1.53,2.68,2.3,3.83,0,.77.77,1.15,1.15,1.92,1.15,1.92,2.3,3.83,3.07,5.75,31.04,55.56,46.75,103.84,49.81,113.03v1.53c.38,0-27.59,16.86-27.59,16.86v-1.53ZM425.71,618.06h.38l29.89-17.63h0c-.77-2.68-16.48-54.41-50.58-115.72-1.15-1.92-2.3-4.21-3.45-6.13l-.77-1.15c-1.15-1.92-2.3-3.45-3.45-5.36h0c-12.26-19.16-24.14-29.89-36.02-32.95-5.36-1.53-10.35-1.53-16.09,0-6.13,1.53-11.11,4.6-15.33,6.9h-.77c-4.21,3.07-9.96,2.68-15.71,0-14.94-7.28-32.95-33.72-39.47-85.45-9.96-78.93-67.05-120.7-67.44-121.46h-.38l-29.89,17.63h0c0,.38,17.63,54.41,17.63,54.41l11.11,16.09v129.51l178.94,103.07,10.73,21.46,30.65,36.4v.38ZM426.1,622.66l-3.07-1.53-31.42-37.55-10.35-20.69-179.7-103.84v-130.28l-11.11-15.71-18.01-54.79v-3.07l33.72-20.31,2.3,1.53c.77.38,58.62,42.91,68.97,123.76,6.51,50.19,23.37,75.87,37.55,82.76,4.6,2.3,8.81,2.68,12.26.77h.77c4.21-3.07,9.96-6.13,16.48-8.05,6.13-1.53,11.88-1.53,18.01,0,13.03,3.45,25.29,14.94,38.32,34.48h0c1.15,1.92,2.3,3.83,3.45,5.75l.77,1.15c1.15,1.92,2.3,4.21,3.45,6.13,34.1,61.31,50.19,113.8,50.96,115.72h0l1.15,3.45-34.1,20.69-.38-.38Z"/><path id="Fill-124" class="cls-3" d="M177.04,473.61v-216.49s57.09,41,67.05,120.7c9.2,72.8,41,95.41,56.33,86.6,15.33-8.81,40.23-24.91,75.1,37.93,34.87,62.84,50.58,114.95,50.58,114.95l-249.06-143.69Z"/><path id="Fill-126" class="cls-2" d="M178.95,472.46l244.08,141c-4.6-14.18-20.31-59.01-49.05-109.97-14.18-25.67-28.35-40.62-42.15-44.45-11.88-3.45-21.84,2.3-29.5,6.9h-.77c-4.98,3.45-11.49,3.07-18.01,0-7.66-3.83-32.57-21.07-41-87.36-8.43-67.44-51.73-107.67-63.61-117.25v211.89-.77ZM429.16,621.51l-254.04-146.75v-221.09l3.07,1.92c.77.38,57.86,42.53,67.82,122.23,4.21,33.72,16.86,73.57,39.08,84.68,5.36,2.68,10.73,3.07,14.56.77h.77c8.05-4.98,18.78-11.49,32.19-7.66,14.94,4.21,29.5,19.16,44.45,46.36,34.48,62.07,50.58,114.95,50.58,115.33l1.15,4.6.38-.38Z"/><path id="Fill-128" class="cls-5" d="M179.72,472.08l241.78,139.85c-5.36-15.71-21.07-59.01-48.28-108.05-14.18-25.67-28.35-40.62-41.76-44.06-11.88-3.07-21.07,2.3-29.12,6.9h-.77c-5.36,3.45-11.88,3.45-18.78,0-7.66-3.83-32.95-21.07-41.38-88.13-8.05-65.14-49.05-104.6-62.07-115.72v209.59l.38-.38ZM429.16,618.44l-3.07,1.92-251.74-145.22v-219.55l2.68-1.53,1.53,1.15c.77.38,58.24,42.53,68.2,122.61,6.51,50.96,24.14,77.02,38.7,83.91,5.36,2.68,9.96,2.68,13.79.77h.77c8.05-4.98,19.16-11.49,32.95-7.66,14.94,4.21,29.89,19.54,44.83,46.75,34.48,62.07,50.58,114.95,50.58,115.72v1.92l.77-.77Z"/><path id="Fill-130" class="cls-2" d="M181.64,471.31l236.8,136.79c-6.51-18.78-21.84-58.62-46.36-103.07-13.79-25.29-27.59-39.85-40.62-43.3-11.11-3.07-20.31,2.3-27.59,6.51h-.77c-5.75,3.83-13.03,3.83-20.69,0-7.66-3.83-33.72-21.84-42.15-89.66-7.66-60.16-43.3-98.47-58.24-111.88v204.61h-.38ZM424.95,615.76l-247.14-142.54v-214.57l3.07,2.68c12.64,10.73,54.41,50.96,62.84,116.87,8.43,65.9,32.95,83.15,40.23,86.6,6.13,3.07,12.26,3.45,16.86.38h.77c8.05-4.98,18.01-10.73,30.27-7.28,13.79,3.83,28.35,19.16,42.91,45.21,27.2,49.05,42.91,92.34,48.28,108.44l1.53,4.6.38-.38ZM176.27,473.99l249.82,144.07h.77v-1.15c-.77-2.3-16.48-54.03-50.58-115.33-14.94-26.82-29.12-41.76-43.68-45.6-13.03-3.45-23.76,2.68-31.42,7.28h-.77c-4.21,3.07-9.96,2.68-15.71,0-14.94-7.28-32.95-33.72-39.47-85.45-9.96-78.93-67.05-120.7-67.44-121.46h-1.15v217.25l-.38.38ZM426.1,622.66l-253.27-146.37v-221.47l4.6-2.68,2.3,1.53c.77.38,59.01,43.3,68.97,123.76,6.51,50.19,23.37,75.87,37.55,82.76,4.6,2.3,8.81,2.68,12.26.77h.77c8.43-5.36,19.92-11.88,34.48-8.05,15.71,4.21,30.65,19.92,45.98,47.51,34.1,61.69,50.19,113.8,50.96,115.72l1.15,3.45-5.36,3.07h-.38Z"/></svg>