<?xml version="1.0" encoding="UTF-8"?>
<svg width="160px" height="126.722311px" viewBox="0 0 160 126.722311" version="1.1" xmlns="http://www.w3.org/2000/svg" xmlns:xlink="http://www.w3.org/1999/xlink">
    <title>Group 82</title>
    <defs>
        <polygon id="path-1" points="-9.65222498e-16 0 55.7612242 0 55.7612242 73.1894137 -9.65222498e-16 73.1894137"></polygon>
    </defs>
    <g id="website" stroke="none" stroke-width="1" fill="none" fill-rule="evenodd">
        <g id="Hubs" transform="translate(-228.000000, -1345.000000)">
            <g id="Group-82" transform="translate(228.000000, 1345.000000)">
                <path d="M44.8540479,2.36044402 C40.0564358,0.324610409 36.0141107,0.94115646 31.2462028,2.71580928 C23.9244468,5.86265743 18.6417846,10.7287345 13.6913038,16.8735468 C8.47457072,23.7475644 5.04516916,30.3788758 2.67715416,38.6808748 C1.09087028,45.0321685 0.45150261,50.6354202 1.9102752,57.0700309 C3.07127995,61.1145296 4.48984302,63.8226954 7.88700451,66.3808906 L11.4808667,68.4641787 L17.7810834,72.0968014 L54.6629986,8.03904325 L44.8540479,2.36044402 Z" id="Fill-1" fill="#000000"></path>
                <g id="Group-5">
                    <mask id="mask-2" fill="white">
                        <use xlink:href="#path-1"></use>
                    </mask>
                    <g id="Clip-4"></g>
                    <path d="M17.7811196,73.1894137 C17.5869547,73.1894137 17.3971368,73.1426837 17.2297782,73.049586 L7.3400463,67.3336752 C3.46833996,64.4295332 2.00630714,61.3844768 0.857256565,57.3783764 C-0.810533105,50.0091659 0.236363538,43.9208642 1.61218134,38.4197665 C3.9693289,30.1630484 7.4201031,23.318373 12.8150622,16.2110677 C18.5834989,9.04761406 24.1280664,4.58363228 30.8119037,1.70665888 C35.0726644,0.11892601 39.7387805,-1.00150697 45.2808123,1.34223742 C45.3202973,1.36143656 45.3641293,1.38027345 45.4047011,1.40852879 L55.2151007,7.08640353 C55.7396358,7.39431431 55.9149638,8.05759035 55.6150225,8.58937037 L18.7251379,72.647853 C18.5834989,72.8901969 18.342604,73.0778413 18.0604128,73.1524644 C17.9669528,73.1807198 17.8753041,73.1894137 17.7811196,73.1894137 M38.8519975,2.19207116 C36.4633344,2.19207116 34.1286462,2.80897946 31.6258749,3.74321698 C25.3466686,6.45102058 20.0607461,10.7197507 14.5484187,17.5557322 C9.33929286,24.4206936 6.00009104,31.0414998 3.73169423,38.9884958 C1.94726072,46.1157247 1.72520271,51.288988 2.98002969,56.8273972 C4.0153344,60.4324891 5.26726339,63.0287203 8.55140352,65.5122924 L17.3761264,70.5931825 L53.1673129,8.4408487 L44.3610647,3.34148398 C42.427385,2.52932402 40.6259258,2.19207116 38.8519975,2.19207116" id="Fill-3" fill="#000000" mask="url(#mask-2)"></path>
                </g>
                <path d="M37.1777236,70.8265789 C51.6277952,62.4865438 63.3425325,42.201744 63.3425325,25.5133421 C63.3425325,8.81407279 51.6277952,2.04365817 37.1777236,10.3931117 C22.7243917,18.7331468 11.0024095,39.0356967 11.0024095,55.7251853 C11.0024095,72.4233679 22.7243917,79.1673384 37.1777236,70.8265789" id="Fill-6" fill="#F4D74B"></path>
                <path d="M25.4785268,75.5054824 C22.7968051,75.5054824 20.3128707,74.8798801 18.1122143,73.6105632 C12.8230316,70.5564505 9.90838443,64.1961006 9.90838443,55.7249318 C9.90838443,38.7090577 21.8919096,17.9384834 36.6306929,9.43942147 C43.9716481,5.19930894 50.9351409,4.55523204 56.2210633,7.6100692 C61.5225624,10.6630951 64.4404698,17.0238073 64.4404698,25.5134508 C64.4404698,42.5195441 52.4569446,63.2712815 37.7246818,71.7703435 L37.7246818,71.7801242 C33.4240739,74.2546401 29.2618447,75.5054824 25.4785268,75.5054824 L25.4785268,75.5054824 Z M48.855113,7.90819928 C45.465921,7.90819928 41.6789807,9.06703055 37.7246818,11.3452081 C23.5995466,19.4972364 12.1039694,39.4096453 12.1039694,55.7249318 C12.1039694,63.3835784 14.6284755,69.0614532 19.2145349,71.7047766 C23.7998697,74.3571563 29.9910498,73.7130794 36.6306929,69.8739754 C50.7525679,61.7212225 62.2441604,41.8189566 62.2441604,25.5134508 C62.2441604,17.8359672 59.7153073,12.157368 55.1270744,9.51476904 C53.2705536,8.4407038 51.1532142,7.90819928 48.855113,7.90819928 L48.855113,7.90819928 Z" id="Fill-8" fill="#000000"></path>
                <path d="M48.8769204,16.7523024 L48.1915472,16.4635908 C45.5319226,15.5855017 43.6022276,15.7064925 40.9096384,16.379187 C35.6056036,18.0324868 31.7197696,21.2260649 28.0281005,25.2796197 C22.978726,31.1813637 19.5862737,37.6627044 17.9449282,45.2833151 C17.1537786,49.7012913 16.9817108,53.6150184 18.4951828,57.8913558 C19.4370276,60.1054154 20.3151167,61.4127683 22.2498831,62.8795104 L24.8392316,64.3640026 L25.802449,64.9240379 C29.2506874,67.3239307 31.8001887,68.6138958 39.7750778,64.0093618 C47.7496047,59.4051901 58.6213908,40.595464 58.6213908,31.3682837 C58.6213908,22.1414655 56.2066459,20.5537327 52.3729756,18.7790798 L48.8769204,16.7523024 Z" id="Fill-10" fill="#F4D9DC"></path>
                <path d="M31.2461666,68.2026357 C28.8886568,68.2026357 27.1527645,67.2028313 25.1756151,65.8208552 L21.7027437,63.8223332 C19.3640708,62.0759357 18.433818,60.543989 17.4843661,58.3215977 C15.7332594,53.3718414 16.153467,49.0379066 16.8645598,45.0875925 C18.4993849,37.4858188 21.8766228,30.7798843 27.1965965,24.5604488 C31.709844,19.6009118 35.7076126,16.8550722 40.5856439,15.3332684 C43.3840094,14.6326809 45.5506146,14.4363425 48.5351756,15.41731 L49.3049526,15.7440576 C49.3480601,15.7625323 49.3875451,15.7810069 49.4281169,15.8002061 L52.9201873,17.8360397 C56.9904056,19.703428 59.7203063,21.6834754 59.7203063,31.368175 C59.7203063,40.9978129 48.6587022,60.1520367 40.3219273,64.9619653 C36.2629388,67.3064342 33.4739916,68.2026357 31.2461666,68.2026357 M44.623622,16.9398382 C43.5216637,16.9398382 42.4385422,17.1354521 41.1753836,17.4433629 C36.758494,18.8260634 33.052335,21.3940393 28.8415646,26.0174102 C23.7885676,31.9195164 20.5681831,38.3077594 19.0173995,45.5168563 C18.3682511,49.1324533 17.9748498,53.1294975 19.5281692,57.5271879 C20.4323401,59.657206 21.2647859,60.7501081 22.914101,62.0009504 L26.3492985,63.9719416 C29.3595792,66.0642859 31.4729338,67.5397219 39.2279384,63.0572654 C46.9220854,58.6106716 57.5239968,40.250133 57.5239968,31.368175 C57.5239968,22.3655883 55.1704718,21.2824669 51.9095155,19.7787756 L47.7606895,17.4716182 C46.6159859,17.0981406 45.6150947,16.9398382 44.623622,16.9398382" id="Fill-12" fill="#000000"></path>
                <path d="M65.5016028,116.057404 L49.293904,103.196877 L28.5345594,63.8976807 C26.2071162,62.1407781 25.2446233,60.2918644 24.449489,57.5271879 C23.2011825,51.9985593 24.1941042,46.8437707 26.0462781,41.5763229 C27.8890335,36.8131243 30.0523784,33.0674802 33.259722,29.089273 C46.0977901,14.0817017 74.6987166,19.1709235 90.9625639,24.2898496 C93.7167352,25.1585202 95.7605383,26.941867 96.9718955,29.5659913 L100.783831,37.7846733 C101.735456,39.8389816 101.957877,41.865759 101.468842,44.0790941 L98.2883047,58.4799001 L115.690335,98.1348235 L97.4518741,108.296241 C97.8210048,109.519553 93.4363553,114.683398 88.4971042,113.283309 C87.8066595,114.319701 88.258745,116.673226 82.7359124,116.495362 C82.9731848,117.533202 81.6165662,118.504389 79.1467595,118.504389 L67.614233,116.953606 C66.8085935,116.841309 66.140246,116.561653 65.5016028,116.057404" id="Fill-14" fill="#F4D9DC"></path>
                <path d="M79.1873313,119.597074 L79.1427748,119.597074 L67.4696961,118.037234 C66.458662,117.906463 65.6149864,117.55146 64.8158674,116.916439 L48.6143268,104.055911 C48.494785,103.963176 48.3929933,103.841098 48.3234417,103.710689 L27.6782052,64.6161634 C25.1826789,62.6643713 24.1796143,60.5626086 23.3910004,57.8269119 C22.2419499,52.746384 22.7454745,47.6372386 25.0145958,41.2116841 C26.9087905,36.30902 29.1156051,32.4793344 32.3986585,28.4076672 C47.2251058,11.0744639 81.2224404,20.0679944 91.291485,23.2441846 C94.3267608,24.19581 96.6357294,26.2225874 97.9666285,29.108617 L101.776028,37.3175183 C102.829807,39.5877264 103.077947,41.8659039 102.538922,44.3215829 L99.4373552,58.3677481 L116.694124,97.6959238 C116.917993,98.2186476 116.72238,98.8159945 116.227911,99.097099 L98.5071024,108.967632 C98.2477329,110.033365 97.2957452,111.116487 96.8077972,111.612042 C95.9423868,112.488682 92.9951373,115.114255 89.1419056,114.552771 C88.5688293,116.019513 87.5480145,117.513786 83.6701499,117.597827 C83.5933534,117.78511 83.4883015,117.952468 83.3564432,118.121276 C82.6047786,119.06457 81.0833372,119.597074 79.1873313,119.597074 L79.1873313,119.597074 Z M50.1585899,102.477597 L66.1887872,115.197572 C66.6655056,115.580468 67.1512801,115.785863 67.7562342,115.870629 L79.2923832,117.410908 C80.846427,117.410908 81.5980915,116.888184 81.6705411,116.701264 C81.5904843,116.364373 81.6748881,116.047768 81.8897011,115.785863 C82.1056009,115.515264 82.5178391,115.384855 82.7696015,115.402605 C86.4605461,115.505483 86.7996102,114.552771 87.1462815,113.619258 C87.2636498,113.311347 87.3842784,112.984237 87.5885863,112.676326 C87.851216,112.283287 88.353654,112.097454 88.7959588,112.228226 C90.8310679,112.797317 92.6263688,112.022469 93.7797664,111.265008 C95.4566122,110.173555 96.3285431,108.781799 96.3810691,108.435852 C96.2307362,107.941383 96.4683708,107.595436 96.9200941,107.343312 L114.282639,97.6589745 L97.28524,58.9285079 C97.1939535,58.7144194 97.1682339,58.480045 97.2149639,58.246395 L100.399848,43.8452268 C100.830561,41.8659039 100.641467,40.0814704 99.7840265,38.2426997 L95.9786116,30.0323494 C94.8918677,27.688605 93.0969289,26.1102905 90.6343672,25.3354421 C80.890259,22.2632171 48.0097349,13.5301429 34.0903566,29.8084801 C30.9771975,33.675115 28.8718123,37.3262123 27.0728888,41.9782008 C24.9635189,47.9549301 24.4820913,52.6800927 25.5228297,57.2849889 C26.2226928,59.7131371 27.0218119,61.3762175 29.1989222,63.0190121 C29.3275202,63.1121098 29.4325721,63.2428813 29.5093687,63.3837958 L50.1585899,102.477597 Z" id="Fill-16" fill="#000000"></path>
                <path d="M112.727762,99.4423937 L102.374353,91.3171717 L94.4650309,79.0637717 L87.5410231,72.1252741 C84.1913161,68.7632506 82.4441941,64.7470073 82.2721263,60.0026456 L81.9584196,51.2891329 L66.9725832,49.8039162 L61.0440328,56.8927468 C59.4392743,58.817008 57.0350345,59.8812926 54.6412999,59.1336127 L49.0597831,57.4154706 C48.5272786,57.2473875 48.14076,56.8840528 47.9505798,56.3602423 C47.7578639,55.8375184 47.8165481,55.3057384 48.1150404,54.8384385 L59.7678332,36.4673948 C60.5948454,35.1694603 61.814172,34.1414006 63.3385115,33.9081129 L88.2343657,30.0418403 C88.7958501,29.9491048 89.2809001,30.2385409 89.707266,30.6123808 L104.738021,43.8452993 C117.814811,55.3604379 111.601533,55.1550433 124.622537,58.2747228 C128.564882,59.2176543 130.693088,60.2174587 136.558608,62.5050546 C145.691966,80.5960807 131.991747,93.8474738 118.608496,98.003907 C118.608496,98.003907 113.888405,99.9375867 112.727762,99.4423937" id="Fill-18" fill="#F4D9DC"></path>
                <path d="M113.241792,100.600971 C112.870126,100.600971 112.54845,100.553517 112.293789,100.441945 C112.201778,100.403909 112.124982,100.357903 112.04891,100.301392 L101.6955,92.1761703 C101.597693,92.1022717 101.51655,92.0084495 101.451345,91.9048466 L93.542023,79.6528956 L86.763639,72.9002312 C83.2367927,69.3607062 81.35419,65.0365521 81.1777752,60.0502088 L80.8981198,52.2792653 L67.442781,50.9530754 L61.8829992,57.593443 C59.8699872,60.0121728 56.9694676,61.0119772 54.3203482,60.1795313 L48.7388314,58.4621137 C47.8741455,58.2002084 47.2289819,57.5836623 46.9188976,56.7341908 C46.6084511,55.8843571 46.7029978,55.0059058 47.1887724,54.249532 L58.8437387,35.8792128 C59.9246866,34.1697646 61.463516,33.0870054 63.1711529,32.8251001 L88.0651959,28.9588275 C89.2809001,28.7628513 90.1416013,29.5384242 90.4339354,29.7898243 L105.463604,43.0238295 C110.326783,47.3008914 112.589021,50.0278941 114.088004,51.8210216 C116.544407,54.7820365 116.99287,55.314541 124.884442,57.2105469 C128.097582,57.9763391 130.133415,58.7790807 133.823273,60.2458227 L136.951647,61.4781903 C137.21319,61.5807065 137.418584,61.7672642 137.539575,62.0106948 C141.09685,69.0614894 141.565237,76.1220646 138.89402,82.4262661 C135.13932,91.2803311 126.117534,96.8180158 118.926912,99.0592441 C117.441695,99.6757901 114.879878,100.600971 113.241792,100.600971 L113.241792,100.600971 Z M113.21571,98.4249479 C113.88442,98.4992087 116.143036,97.8257897 118.189375,96.9853744 C124.996739,94.8658615 133.411759,89.7295475 136.866518,81.5760701 C139.267498,75.9079761 138.902352,69.7906945 135.76456,63.3741962 L133.009302,62.2812941 C129.413991,60.8623687 127.433943,60.0766529 124.371499,59.3485345 C116.030377,57.3500124 115.233794,56.6407309 112.399566,53.2319774 C110.944416,51.4848555 108.743759,48.8422565 104.016423,44.6680731 L88.985668,31.4431241 C88.8063553,31.2840972 88.5654604,31.1160142 88.4017243,31.1253875 L63.5073191,34.9917052 C62.0623119,35.216299 61.1248141,36.3830997 60.6941013,37.0557942 L49.0416707,55.4268379 C48.9246646,55.6039772 48.9069145,55.7814787 48.9837111,55.9770926 C49.0532627,56.1824872 49.1767892,56.2955085 49.3843573,56.3603509 L54.9691343,58.0879115 C56.7575526,58.6388907 58.7567991,57.91041 60.2003573,56.1922679 L66.1296321,49.0943811 C66.3621953,48.8237819 66.7273413,48.6741734 67.0816198,48.711485 L82.068543,50.1967017 C82.6122772,50.2427072 83.0357451,50.6911702 83.0563932,51.2425116 L83.3740847,59.9654428 C83.5316625,64.4478992 85.146564,68.1645634 88.3176828,71.3494476 L95.2416905,78.2799758 L103.195207,90.5601821 L113.21571,98.4249479 Z" id="Fill-20" fill="#000000"></path>
                <path d="M88.4969231,114.38534 L88.4599738,114.38534 C82.4115194,114.179221 77.5555853,112.49839 73.6121538,109.25772 C69.824489,106.129346 63.0721868,98.6391451 61.60146,96.902166 C61.2091455,96.4450091 61.2623959,95.75384 61.7260733,95.3615254 C62.1861283,94.9684864 62.8823689,95.024997 63.2735967,95.4825162 C64.7211396,97.1916022 71.3314406,104.531833 75.0093443,107.558415 C78.5666194,110.491174 82.9878559,112.002835 88.5356836,112.19048 C89.1417244,112.218735 89.6130091,112.72226 89.5945344,113.329025 C89.576422,113.918402 89.0877495,114.38534 88.4969231,114.38534" id="Fill-22" fill="#000000"></path>
                <path d="M97.4452812,109.500933 L97.4307912,109.500933 L96.9522617,109.491153 C92.3129519,109.426672 87.5120795,109.360381 83.125981,105.541201 C79.4267047,102.310311 69.3442569,93.0824061 67.2798057,90.8219787 C66.8664807,90.3742402 66.8958228,89.6830711 67.3442858,89.2722819 C67.7862283,88.8694621 68.4893517,88.8890235 68.8943449,89.3374865 C70.9203978,91.5500971 80.9014162,100.675486 84.5709882,103.887901 C88.3466988,107.174939 92.5458773,107.240506 96.9855885,107.296654 L97.4597711,107.306073 C98.0683477,107.315129 98.550862,107.810322 98.5429898,108.407669 C98.5323873,109.015521 98.0433526,109.500933 97.4452812,109.500933" id="Fill-24" fill="#000000"></path>
                <path d="M108.622479,103.906339 L108.502212,103.906339 C101.998412,103.196696 95.2385027,102.150886 90.27643,97.8546246 C86.3047432,94.4183404 77.5492097,86.6100853 75.837588,84.3963879 C75.4651971,83.9207563 75.5564836,83.2295872 76.0346509,82.8651658 C76.5117315,82.4920503 77.2057986,82.5750051 77.5734803,83.052448 C78.9645125,84.8546316 86.6764096,91.8402215 91.710932,96.1919064 C96.1970109,100.07774 102.326247,101.020672 108.739847,101.72126 C109.341903,101.786826 109.776601,102.328025 109.714294,102.935152 C109.65235,103.495912 109.177805,103.906339 108.622479,103.906339" id="Fill-26" fill="#000000"></path>
                <path d="M82.7292833,117.625974 L82.6148129,117.625974 C77.6172399,117.111944 71.3793298,116.09439 67.5018275,112.676218 C64.3024534,109.855755 59.0600007,104.915055 57.352726,103.020136 C56.9470083,102.570586 56.9832331,101.870723 57.4367675,101.468266 C57.8884907,101.067257 58.5778486,101.094788 58.9864644,101.553032 C60.6028148,103.346521 65.8199101,108.258242 68.9533551,111.032337 C72.364282,114.030663 78.1649588,114.964176 82.8423046,115.440894 C83.4396515,115.496681 83.8808696,116.037879 83.8196497,116.63595 C83.764588,117.205042 83.2827982,117.625974 82.7292833,117.625974" id="Fill-28" fill="#000000"></path>
                <path d="M150.333884,59.3027101 L140.406116,53.5679624 C136.904627,52.0925264 134.298977,52.0555771 130.600425,52.746384 C124.86604,54.17509 120.746918,56.8274697 116.27388,60.6002823 C115.514246,61.2729768 114.537264,62.1883775 113.821824,62.9067152 C107.361856,69.3605251 102.125923,77.9722462 99.2264907,86.6100491 C97.7376515,91.0378061 96.9678746,95.0344879 96.6791629,99.6386597 C96.5299168,106.531152 97.6239056,113.200137 103.442333,117.597827 L113.333151,123.313376 L150.333884,59.3027101 Z" id="Fill-30" fill="#000000"></path>
                <path d="M113.333006,124.406242 C113.146449,124.406242 112.95808,124.35915 112.789272,124.256633 L102.895193,118.550503 C96.1476003,113.459833 95.4459259,105.764961 95.5766974,99.6103681 C95.8846082,94.8192764 96.6822783,90.7193539 98.1823471,86.2651528 C101.170893,77.3828325 106.586862,68.5852782 113.041397,62.1318305 C113.778209,61.3942937 114.774029,60.4596939 115.551413,59.7786677 C119.412614,56.5195227 123.867177,53.2966025 130.329681,51.6722826 C134.04707,50.9807512 136.932737,50.9061281 140.837046,52.5590656 L150.885805,58.3499617 C151.138292,58.4984834 151.315069,58.7321333 151.398386,59.0125132 C151.464677,59.3026739 151.426641,59.600804 151.286813,59.8529285 L114.285719,123.855625 C114.084671,124.210628 113.716265,124.406242 113.333006,124.406242 M134.635361,53.3994809 C133.420743,53.3994809 132.188376,53.5585078 130.795894,53.820413 C125.17453,55.2295577 121.195961,57.8819373 116.984104,61.4410237 C116.255261,62.0858251 115.296028,62.9820265 114.596165,63.6818896 C108.371296,69.9020496 103.147318,78.3913308 100.264911,86.9650159 C98.8318577,91.2333837 98.0628053,95.156167 97.7704712,99.7041903 C97.6531028,105.288967 98.2616794,112.311507 104.10655,116.720789 L112.934896,121.809648 L148.830772,59.7036824 L139.865497,54.5199139 C137.950292,53.7178969 136.316191,53.3994809 134.635361,53.3994809" id="Fill-32" fill="#000000"></path>
                <path d="M132.729067,122.034278 C147.187108,113.693881 158.897861,93.4184997 158.897861,76.7203172 C158.897861,60.0308285 147.187108,53.2600517 132.729067,61.6000867 C118.282256,69.9488158 106.562809,90.2520902 106.562809,106.931798 C106.562809,123.631067 118.282256,130.384094 132.729067,122.034278" id="Fill-34" fill="#F4D74B"></path>
                <path d="M121.03697,126.722311 C118.356335,126.722311 115.872401,126.08729 113.675729,124.827029 C108.378577,121.772554 105.460307,115.412567 105.460307,106.931979 C105.460307,89.9161052 117.45144,69.1545871 132.178631,60.6569741 C139.518862,56.4168616 146.486702,55.763004 151.781318,58.8258106 C157.077021,61.8795611 160,68.2395487 160,76.720136 C160,93.7262294 148.008143,114.478329 133.280952,122.987172 C128.984329,125.470382 124.819926,126.722311 121.03697,126.722311 M144.412832,59.1152468 C141.022915,59.1152468 137.230904,60.274078 133.280952,62.5522555 C119.150745,70.7140646 107.656979,90.6166928 107.656979,106.931979 C107.656979,114.600407 110.184745,120.278281 114.765733,122.92088 C119.35614,125.57326 125.548044,124.920127 132.178631,121.090441 C146.308838,112.92827 157.796808,93.0263663 157.796808,76.720136 C157.796808,69.0527954 155.274837,63.3738339 150.680084,60.7214543 C148.830808,59.657532 146.710571,59.1152468 144.412832,59.1152468" id="Fill-36" fill="#000000"></path>
                <path d="M55.7678187,108.100555 L48.114968,107.875237 C46.9398356,107.839012 45.9400311,107.445973 45.0681003,106.652288 L43.8802892,105.577498 C42.8507804,104.643985 42.3255209,103.448929 42.3255209,102.057534 L42.3255209,99.0592078 L41.6694898,98.8820686 C40.6791038,98.6114693 39.8984594,98.0978017 39.2496733,97.3037541 L37.1258135,94.6879615 C36.4527567,93.8573269 36.1133304,92.9513447 36.0731208,91.878004 L35.9970488,89.786022 L35.2222004,89.514336 C34.0550374,89.0952151 33.1758616,88.3855713 32.5332337,87.3194755 L31.1921917,85.0883902 C30.3014239,83.6129542 29.9286707,82.09912 30.0355339,80.3722839 L30.0895088,79.4195717 C27.1748616,78.0180343 25.0372363,75.2164085 25.1357678,71.5740051 L25.190105,69.2490976 L25.4672247,64.3638214 C25.7620945,61.6462371 26.7220517,61.0764211 28.9147386,60.8905879 C29.9181655,60.8058218 31.0527262,60.9268127 31.9684891,61.3481071 L33.1975964,61.9168364 C34.2459421,62.3935547 34.8034417,62.9166408 35.5840861,63.95267 C36.2404794,64.8311213 36.5871507,65.7457975 36.675177,66.8383373 L36.7363969,67.5675425 L36.7508868,69.9399045 L38.2031389,70.5930376 L39.7749329,71.9659574 C41.0779388,73.106314 41.7379547,74.6183371 41.6868777,76.3466221 L41.5666114,80.7635117 C42.2610407,81.110183 42.8286833,81.4083131 43.5071738,81.9408176 L45.0796922,83.1818792 C46.4301527,84.2381942 47.2405014,86.3580694 47.1847152,88.0291193 L46.998882,93.5026862 C48.8405507,93.5874522 49.6697363,94.2217484 51.3400617,95.5761936 C52.4713621,96.4915942 53.1389851,97.6587572 53.3465532,99.1059378 L54.0214212,103.663017 L55.7678187,108.100555 Z" id="Fill-38" fill="#F4D9DC"></path>
                <path d="M55.7678187,109.193022 L55.7395633,109.193022 L48.0827279,108.977485 C46.6489504,108.931117 45.3897765,108.426868 44.3312879,107.464375 L43.1431145,106.391397 C41.8872008,105.25104 41.2232003,103.757854 41.2232003,102.057462 L41.2279095,99.8995507 C40.0853794,99.5546906 39.1583868,98.9283639 38.4005641,97.9948508 L36.2727195,95.3797827 C35.4482431,94.3615037 35.021515,93.23129 34.970438,91.9145186 L34.8472737,90.552104 C33.4345066,90.0380741 32.3742068,89.1694035 31.5968226,87.8801629 L30.2503469,85.6570471 C29.2509048,83.9957779 28.8201919,82.2486559 28.937198,80.30592 L28.9527747,80.0635762 C25.770064,78.260668 23.9461454,75.1236005 24.0334472,71.5366211 L24.0914069,69.2207698 L24.3761338,64.308325 C24.7485247,60.8057494 26.2920633,60.0124263 28.8201919,59.797251 C30.1039987,59.6856787 31.4091782,59.890711 32.4202123,60.3485924 L33.6543911,60.9173218 C34.9642798,61.5153932 35.6463927,62.2069246 36.4592772,63.290046 C37.246442,64.3452743 37.6633894,65.4475949 37.7724261,66.7455294 L37.830748,67.4649539 L37.8419777,69.2305505 L38.6592091,69.5942475 C38.7541181,69.640253 38.8450423,69.6967636 38.9287216,69.7710245 L40.5016023,71.1443066 C42.0556461,72.4987517 42.8435355,74.3103538 42.7895605,76.3744428 L42.6826974,80.1005254 C43.1757169,80.3722114 43.6466392,80.6609231 44.1856642,81.0717123 L45.7581827,82.3149473 C47.491177,83.6773619 48.3402862,86.2366439 48.283051,88.0670829 L48.1334426,92.5314269 C49.7019763,92.8302815 50.6756989,93.6141861 52.0294196,94.7262874 C53.375533,95.8090466 54.1855195,97.2286964 54.4343839,98.9381446 L55.1085274,103.505367 L56.7900824,107.698025 C56.9219407,108.043972 56.8813689,108.426868 56.6654691,108.724998 C56.4629725,109.024215 56.1268064,109.193022 55.7678187,109.193022 M29.5055651,61.9638562 C29.3421913,61.9638562 29.1737459,61.9732746 29.0089231,61.9830553 C27.3385977,62.1319392 26.8031952,62.2811854 26.5612136,64.4858266 L26.2290322,71.5927695 C26.1565826,74.5349476 27.7736575,77.0844488 30.5669517,78.4294755 C30.9646999,78.6250894 31.2128398,79.0460216 31.1838599,79.4839794 L31.125538,80.4366916 C31.0382363,81.9407451 31.351943,83.2296234 32.1286027,84.5177772 L33.4739916,86.7506737 C33.9854858,87.6001452 34.6570935,88.1511244 35.591331,88.4785966 L36.3647305,88.758252 C36.7834891,88.9074982 37.072563,89.300175 37.0906754,89.7479135 L37.1663852,91.8304771 C37.2000743,92.6708924 37.4558214,93.3530053 37.9807187,93.9970822 L40.1078388,96.6128748 C40.6146237,97.2286964 41.183353,97.602174 41.9600127,97.8260433 L42.6171305,98.003907 C43.0949356,98.1346786 43.4245812,98.5733608 43.4245812,99.0591354 L43.419872,102.057462 C43.419872,103.131527 43.824503,104.046203 44.620724,104.765265 L45.8092596,105.839693 C46.4808674,106.455877 47.2292717,106.755094 48.1439478,106.783349 L54.138065,106.951432 L53.0006064,104.074459 L52.2630695,99.255836 C52.0917262,98.0977293 51.5624819,97.1729102 50.6467191,96.4255926 C49.004649,95.0907088 48.4138226,94.6701389 46.9510652,94.6045721 C46.3490091,94.5763167 45.881347,94.0731543 45.9045308,93.4656644 L46.0863793,87.9924598 C46.1341961,86.5543353 45.3930367,84.8166318 44.401564,84.0417834 L42.8330303,82.7996351 C42.2338721,82.3417537 41.7274495,82.0715167 41.0703316,81.7444067 C40.6914203,81.5487928 40.4537856,81.1557538 40.469,80.7268522 L40.5928888,76.3088759 C40.6323738,74.9084252 40.115446,73.7220631 39.0565952,72.7972441 L37.6003583,71.5272027 L36.2951789,70.9396364 C35.9046755,70.751992 35.6529132,70.3690959 35.6489285,69.939832 L35.5840861,66.9328116 C35.506565,66.0449418 35.23343,65.3262419 34.7012878,64.6071796 C33.9825878,63.6544675 33.5623801,63.290046 32.7418885,62.9165683 L31.5116944,62.3460278 C30.9646999,62.0946277 30.2391172,61.9638562 29.5055651,61.9638562" id="Fill-40" fill="#000000"></path>
                <path d="M26.4344268,63.9163003 L29.7504447,66.4933324 L29.3849365,72.2179371 C29.3740691,72.3584893 29.1918583,72.404857 29.0527551,72.404857 C28.9179989,72.4233317 28.6310985,72.1346201 28.5314803,72.0400733 L27.1603717,70.667878 C26.7401641,70.2567266 26.2801091,69.7713143 26.2953235,69.1739674 L26.4344268,63.9163003 Z" id="Fill-42" fill="#FFFFFF"></path>
                <path d="M29.0575368,73.5069965 C28.5315527,73.5069965 28.1232993,73.1806111 27.7588778,72.8259703 L26.385958,71.4519638 C25.93025,70.9944446 25.1688048,70.2380708 25.1970601,69.1455309 L25.3354389,63.8882261 C25.3466686,63.4767124 25.5908237,63.1032347 25.9632146,62.9260955 C26.3327075,62.7485939 26.7739256,62.7953239 27.1053825,63.0474485 L30.4217627,65.6244806 C30.7093876,65.8490744 30.8702257,66.1950212 30.8452305,66.5587181 L30.4789978,72.2923791 C30.4434975,72.8531389 30.0127847,73.4512103 29.1263639,73.5069965 L29.0575368,73.5069965 Z M27.4770489,66.1200358 L27.3944563,69.2020416 C27.3904716,69.2951393 27.5723201,69.5374832 27.9374661,69.8932107 L28.4036792,70.3594239 L28.619579,66.9974004 L27.4770489,66.1200358 Z" id="Fill-44" fill="#000000"></path>
                <path d="M31.0457348,72.760331 L34.8714356,75.30947 L34.847165,80.2501701 C34.847165,80.3722476 34.803333,80.4747638 34.718567,80.5580809 C34.6345255,80.6417601 34.5294736,80.6801584 34.4124675,80.6801584 L33.9346624,80.6801584 C33.1645232,80.6703777 32.5081299,80.3722476 32.0046052,79.7919264 L31.6510512,79.3909179 C31.224323,78.8964494 31.012408,78.3266333 31.0156312,77.673138 L31.0457348,72.760331 Z" id="Fill-46" fill="#FFFFFF"></path>
                <path d="M34.4155103,81.7814285 L34.3945,81.7814285 L33.9275623,81.7814285 C32.8364714,81.7727345 31.8844838,81.3242715 31.1759267,80.5110248 L30.8216482,80.1103786 C30.2163318,79.409791 29.9149415,78.5878504 29.9181756,77.672812 L29.9471816,72.7603672 C29.9508041,72.3488535 30.1775713,71.9855188 30.5318498,71.7891804 C30.8854038,71.6022604 31.3190147,71.6207351 31.6548185,71.8446043 L35.4823306,74.3944678 C35.7877057,74.5998624 35.9735389,74.936753 35.9735389,75.309144 L35.9485438,80.259987 C35.9485438,80.6606333 35.7844454,81.0533101 35.4855909,81.3434707 C35.2084712,81.6231261 34.8252128,81.7814285 34.4155103,81.7814285 L34.4155103,81.7814285 Z M32.1286389,74.8059815 L32.1137867,77.6818682 C32.1108887,78.074545 32.2271703,78.3730373 32.4792949,78.6628357 L32.8332112,79.0732626 C33.0846113,79.3626988 33.3881751,79.5318686 33.7522343,79.5680934 L33.7746937,75.8887407 L32.1286389,74.8059815 Z" id="Fill-48" fill="#000000"></path>
                <path d="M37.4622331,83.4622953 L41.2959035,86.3765803 L41.2716328,90.9528589 C41.2716328,91.0644313 41.2230916,91.1767282 41.1397746,91.2614942 C41.0524728,91.3448112 40.9499566,91.3828472 40.8296903,91.3828472 L40.3518852,91.3828472 C39.588991,91.3734288 38.9286129,91.0644313 38.4254505,90.4859213 L38.0715342,90.0841883 C37.6408214,89.5897198 37.4336156,89.0285977 37.4336156,88.3660461 L37.4622331,83.4622953 Z" id="Fill-50" fill="#FFFFFF"></path>
                <path d="M40.8368266,92.4850954 L40.8158162,92.4850954 L40.3488786,92.4753147 C39.2545274,92.465534 38.3050755,92.0268517 37.597243,91.204911 L37.2465869,90.8042648 C36.6376481,90.1127334 36.3355333,89.2907928 36.3387674,88.3659737 L36.3645131,83.4535289 C36.3677733,83.0427397 36.605408,82.6602058 36.9803347,82.4725614 C37.3491031,82.2867282 37.7943059,82.3323714 38.1297475,82.5848583 L41.9568973,85.5078372 C42.234017,85.7139563 42.3915949,86.0403417 42.3915949,86.3862885 L42.3658753,90.9618427 C42.3658753,91.3545195 42.2050372,91.7471963 41.9163256,92.0359079 C41.6287007,92.3162878 41.2458046,92.4850954 40.8368266,92.4850954 L40.8368266,92.4850954 Z M38.5499551,85.666864 L38.5343785,88.3757544 C38.5314805,88.7677067 38.6437774,89.0669235 38.9006112,89.3650536 L39.2498182,89.7664243 C39.505203,90.0663657 39.8084046,90.2239435 40.1724638,90.2717603 L40.1909385,86.918793 L38.5499551,85.666864 Z" id="Fill-52" fill="#000000"></path>
                <path d="M43.7809608,95.8468653 L47.6081106,98.6115418 L47.2802762,102.57055 C47.2574546,102.794419 47.0683611,102.973007 46.8419561,102.963227 L46.3311865,102.963227 C45.5617718,102.953446 44.9071897,102.655316 44.4014916,102.076081 L44.3830169,102.048551 C43.9602735,101.571832 43.8066804,100.218112 43.8066804,99.5733102 L43.7809608,95.8468653 Z" id="Fill-54" fill="#FFFFFF"></path>
                <path d="M46.8462307,104.065692 L46.835001,104.065692 L46.3231446,104.055911 C45.2403854,104.055911 44.2876732,103.616867 43.577305,102.794564 C42.7376142,101.842214 42.7115323,99.8067427 42.7082721,99.5730928 L42.6825183,95.8564286 C42.6792922,95.4354965 42.9096819,95.0526003 43.2773636,94.8656804 C43.6428718,94.6798472 44.0902481,94.707378 44.4224295,94.9500842 L48.2535641,97.7234547 C48.5650973,97.9487729 48.7346294,98.3215261 48.7023893,98.7044222 L48.3741926,102.664879 C48.2966716,103.467621 47.6406405,104.065692 46.8462307,104.065692 L46.8462307,104.065692 Z M44.8937141,98.0038346 L44.9049438,99.5636744 C44.9074795,100.282737 45.0795473,101.141627 45.2219108,101.339052 C45.5030152,101.665437 45.8312119,101.832433 46.2318581,101.861051 L46.4600743,99.1441912 L44.8937141,98.0038346 Z" id="Fill-56" fill="#000000"></path>
                <path d="M36.7509593,69.9399407 C35.9703149,70.0142015 35.3352942,70.0993298 34.8219888,70.2109022 C33.5298503,70.4905576 31.9134998,70.9661892 31.1038756,72.032285 C30.3188842,73.0683142 30.2163681,77.9057736 30.0895813,79.4196079 C29.9363504,73.0118035 28.666309,69.5472639 36.7509593,69.9399407" id="Fill-58" fill="#B5EBF6"></path>
                <path d="M30.089545,80.5207693 L30.0565805,80.5207693 C29.472999,80.4932385 29.0060614,80.0255763 28.9912092,79.4467041 C28.973459,78.6816364 28.9404945,77.9622119 28.9042697,77.2800989 C28.7651665,74.2821347 28.6517828,71.9191912 30.2018419,70.3691321 C31.4204441,69.1545147 33.4642472,68.6879393 36.7983775,68.8379099 C37.374714,68.8661653 37.8264373,69.3331029 37.8452742,69.9021945 C37.8637488,70.4807045 37.4337605,70.9661168 36.8632199,71.0229897 C36.1311167,71.106669 35.5355811,71.1820166 35.050531,71.2845327 C34.4600668,71.4156665 32.6611434,71.7978381 31.979755,72.7038203 C31.5378124,73.3584024 31.3364026,76.9439328 31.2606927,78.2889596 C31.2313507,78.7939332 31.2103403,79.2134164 31.1835339,79.512271 C31.1360794,80.082087 30.6586366,80.5207693 30.089545,80.5207693" id="Fill-60" fill="#000000"></path>
                <path d="M52.5069711,47.4036611 L55.5389866,47.7496079 C55.8121216,47.7778633 56.0312816,47.917691 56.1776298,48.1509787 C57.0825252,49.5985216 51.4242119,55.2677024 50.4211472,56.4348653 L46.7331006,55.6886345 C47.9806827,52.839192 49.3876538,50.1781183 51.6973469,47.7869195 C51.9277366,47.5445756 52.1794989,47.3754058 52.5069711,47.4036611" id="Fill-62" fill="#FFFFFF"></path>
                <path d="M50.4212559,57.5368599 C50.3437349,57.5368599 50.2759945,57.5270792 50.1984734,57.5086046 L46.5133248,56.7620115 C46.1923731,56.6964446 45.9119932,56.4816316 45.7584,56.1921954 C45.6055314,55.8929786 45.5943017,55.5481185 45.7283334,55.2489017 C46.9190425,52.5226235 48.3702079,49.654344 50.9052192,47.0208012 C51.4312033,46.4882967 52.0108,46.2466773 52.6277083,46.3209382 L55.6593616,46.6571043 C56.2686627,46.7226712 56.7866773,47.0490566 57.107629,47.5630865 C58.130255,49.2069678 56.1857079,51.8115307 51.9897896,56.3418038 C51.6568838,56.6964446 51.4022234,56.9768245 51.2493548,57.1536015 C51.0410622,57.3970322 50.7349627,57.5368599 50.4212559,57.5368599 L50.4212559,57.5368599 Z M48.301743,54.8848425 L50.0235076,55.2297026 C50.1289218,55.1181302 50.2459279,54.9971394 50.3777862,54.8565871 C53.7992183,51.1583976 54.8859622,49.5235725 55.1239591,48.804148 L52.5255544,48.5157986 C50.5556499,50.5610507 49.3011852,52.7559112 48.301743,54.8848425 L48.301743,54.8848425 Z" id="Fill-64" fill="#000000"></path>
                <path d="M41.5666838,80.7633668 C39.797827,80.950649 37.5971705,81.5012659 36.7955158,83.0607434 C36.2630112,84.1170585 36.1416582,88.3662273 35.996759,89.7858771 C35.812737,85.1440315 34.5365374,80.4279252 41.5666838,80.7633668" id="Fill-66" fill="#B5EBF6"></path>
                <path d="M35.9969039,90.8874369 L35.9566943,90.8874369 C35.3796333,90.8689623 34.9199406,90.4114431 34.8945833,89.8329331 C34.8713994,89.2808672 34.8387971,88.7306125 34.803659,88.1883273 C34.628331,85.5924583 34.4493805,82.9121855 36.1197059,81.2030996 C37.2542666,80.0449928 39.0680422,79.5316875 41.6175434,79.6628212 C42.1935177,79.6892653 42.6470522,80.1565652 42.6648023,80.7267435 C42.6792922,81.3056158 42.2525641,81.7910281 41.6838348,81.8558704 C39.6150366,82.0717702 38.2283514,82.6785356 37.7755414,83.5649564 C37.4766868,84.1354969 37.2948384,86.9363983 37.2068121,88.2908434 C37.1640668,88.9454255 37.1260308,89.5242978 37.0829233,89.9071939 C37.0238769,90.4672293 36.5496943,90.8874369 35.9969039,90.8874369" id="Fill-68" fill="#000000"></path>
                <path d="M46.8815861,93.5210884 C42.6172029,93.8014683 42.5882231,95.603652 42.3143636,99.2181622 C42.2205414,94.791492 41.8293136,93.3345307 46.8815861,93.5210884" id="Fill-70" fill="#B5EBF6"></path>
                <path d="M42.3181672,100.18022 L42.2931721,100.18022 C41.7088661,100.17044 41.2278008,99.8252174 41.2162089,99.2372889 L41.1941118,98.4247667 C41.1350654,96.182814 41.0923201,94.5668258 42.1797885,93.4927606 C43.0441122,92.6338706 44.4014553,92.3259598 46.9259615,92.4190576 C47.5062827,92.4473129 47.9724958,92.9240313 47.9805205,93.5025413 C47.9862613,94.0911942 47.5352625,94.5766065 46.9509566,94.613918 C43.743613,94.8193126 43.6823931,95.6318349 43.4277328,99.041675 C43.4244725,99.0778998 43.4161408,99.1249921 43.4121561,99.171722 L43.4052734,99.1901967 C43.2929765,99.7129205 42.8401666,100.18022 42.3181672,100.18022" id="Fill-72" fill="#000000"></path>
                <path d="M65.6812416,46.19973 C66.0083515,47.1234623 67.2530356,49.4958243 65.4954084,51.6156994 C66.8447821,50.2152488 68.0409249,50.0471657 69.5109272,50.0562219 C67.2570203,49.4871303 66.5788921,47.5443945 65.6812416,46.19973" id="Fill-74" fill="#B5EBF6"></path>
                <path d="M65.4953359,52.71802 C65.2359664,52.71802 64.9729744,52.6249223 64.7646818,52.4376401 C64.3241882,52.0456878 64.2734735,51.3733555 64.6516604,50.9158363 C65.7213787,49.6269581 65.308416,48.2442575 64.7914881,46.9376291 L64.6484002,46.5728454 C64.4614802,46.0403409 64.6918699,45.4708871 65.1841649,45.2187625 C65.6844294,44.9662756 66.2825008,45.1256647 66.5958453,45.5918779 C66.7784183,45.8635639 66.954833,46.1616939 67.1326968,46.4703292 C67.7861921,47.5904 68.4059984,48.6369343 69.7807295,48.9817944 C70.3183055,49.1227089 70.6714972,49.6367388 70.5983231,50.1869934 C70.5291338,50.7379726 70.0658186,51.1483995 69.5108547,51.1483995 C68.1393839,51.2422218 67.3040401,51.32735 66.2864855,52.3731599 C66.072397,52.6057231 65.7829608,52.71802 65.4953359,52.71802" id="Fill-76" fill="#000000"></path>
                <path d="M85.5918392,49.402147 C84.05627,50.2153937 83.5125358,50.7565921 79.594824,51.0467528 C82.761958,51.3637197 81.7143369,52.427642 82.0726001,54.35299 C82.1704071,51.3177142 83.9740398,50.7939037 85.5918392,49.402147" id="Fill-78" fill="#B5EBF6"></path>
                <path d="M82.072419,55.4454575 C81.5471595,55.4454575 81.0871045,55.0719798 80.9918333,54.5485315 C80.8900416,53.9979146 80.8827967,53.5027216 80.8827967,53.0727332 C80.8795364,52.8390833 80.8795364,52.5224786 80.8422249,52.4373503 C80.827735,52.4373503 80.5795951,52.2511548 79.4885042,52.1392202 C78.9197749,52.0924902 78.4901488,51.6067157 78.4962417,51.0372619 C78.503552,50.4674458 78.9498415,50.0012327 79.5145861,49.9534159 C82.7356951,49.7204905 83.422155,49.3375944 84.5563534,48.7112676 L85.078715,48.4308877 C85.5706477,48.1700692 86.1839335,48.3185908 86.4976403,48.777559 C86.814245,49.2437722 86.7345504,49.8700989 86.3118071,50.2337959 C85.9473856,50.5417066 85.5706477,50.8220866 85.2022415,51.0930481 C83.9738586,51.989974 83.2319748,52.5311725 83.1696681,54.3891424 C83.151918,54.9412083 82.7139602,55.3987275 82.1521136,55.4454575 L82.072419,55.4454575 Z" id="Fill-80" fill="#000000"></path>
            </g>
        </g>
    </g>
</svg>