<?xml version="1.0" encoding="UTF-8"?>
<svg width="160px" height="144.571976px" viewBox="0 0 160 144.571976" version="1.1" xmlns="http://www.w3.org/2000/svg" xmlns:xlink="http://www.w3.org/1999/xlink">
    <title>Group 37</title>
    <defs>
        <polygon id="path-1" points="2.23000742e-14 0 81.0270206 0 81.0270206 50.9950133 2.23000742e-14 50.9950133"></polygon>
        <polygon id="path-3" points="0 0 160 0 160 93.2321639 0 93.2321639"></polygon>
    </defs>
    <g id="website" stroke="none" stroke-width="1" fill="none" fill-rule="evenodd">
        <g id="Hubs" transform="translate(-230.000000, -276.000000)">
            <g id="Group-37" transform="translate(230.000000, 276.000000)">
                <path d="M143.041115,115.518657 C147.152493,115.518657 150.49338,112.195032 150.49338,108.083654 C150.49338,103.981691 147.152493,100.658066 143.041115,100.658066 C138.929737,100.658066 135.589635,103.981691 135.589635,108.083654 C135.589635,112.195032 138.929737,115.518657 143.041115,115.518657" id="Fill-1" fill="#F4D9DC"></path>
                <path d="M143.041115,116.520531 C138.415815,116.520531 134.562575,112.743398 134.562575,108.083575 C134.562575,103.432383 138.415815,99.6474042 143.041115,99.6474042 C147.666415,99.6474042 151.435702,103.432383 151.435702,108.083575 C151.435702,112.743398 147.666415,116.520531 143.041115,116.520531 M143.041115,101.659939 C139.529182,101.659939 136.61748,104.546535 136.61748,108.083575 C136.61748,111.630031 139.529182,114.507995 143.041115,114.507995 C146.553048,114.507995 149.464751,111.630031 149.464751,108.083575 C149.464751,104.546535 146.553048,101.659939 143.041115,101.659939" id="Fill-3" fill="#000000"></path>
                <path d="M150.664269,120.674749 C150.578746,116.520217 147.152336,113.180115 143.040958,113.180115 C138.844842,113.180115 135.417648,116.520217 135.332909,120.674749 L135.332909,139.724394 C135.417648,140.778131 135.417648,141.360315 137.645167,142.628251 C139.786379,143.887557 146.296322,143.887557 148.437534,142.628251 C150.664269,141.360315 150.578746,140.778131 150.664269,139.724394 L150.664269,120.674749 Z" id="Fill-5" fill="#F4D74B"></path>
                <path d="M143.041115,144.571976 C140.728857,144.571976 138.330292,144.211838 137.131402,143.492347 C134.732836,142.122411 134.475483,141.23972 134.390745,139.946676 L134.305222,120.674984 C134.305222,120.623984 134.390745,120.562784 134.390745,120.511784 C134.562575,115.903746 138.415815,112.178398 143.041115,112.178398 C147.666415,112.178398 151.521225,115.903746 151.69227,120.511784 L151.69227,120.674984 L151.69227,139.72463 C151.606747,141.23972 151.349394,142.122411 148.950829,143.492347 C147.666415,144.211838 145.353373,144.571976 143.041115,144.571976 L143.041115,144.571976 Z M136.360911,120.803661 L136.360911,139.72463 C136.445649,140.529644 136.445649,140.803474 138.072939,141.753642 C139.957582,142.841902 146.039126,142.841902 147.923769,141.753642 C149.551059,140.803474 149.636581,140.529644 149.636581,139.784261 L149.72132,120.803661 L149.72132,120.700092 C149.636581,117.112051 146.638571,114.190933 143.041115,114.190933 C139.44366,114.190933 136.445649,117.112051 136.360911,120.700092 L136.360911,120.803661 Z" id="Fill-7" fill="#000000"></path>
                <path d="M143.041115,115.518657 C147.152493,115.518657 150.49338,112.195032 150.49338,108.083654 C150.49338,103.981691 147.152493,100.658066 143.041115,100.658066 C138.929737,100.658066 135.589635,103.981691 135.589635,108.083654 C135.589635,112.195032 138.929737,115.518657 143.041115,115.518657" id="Fill-9" fill="#F4D9DC"></path>
                <path d="M143.041115,116.520531 C138.415815,116.520531 134.562575,112.743398 134.562575,108.083575 C134.562575,103.432383 138.415815,99.6474042 143.041115,99.6474042 C147.666415,99.6474042 151.435702,103.432383 151.435702,108.083575 C151.435702,112.743398 147.666415,116.520531 143.041115,116.520531 M143.041115,101.659939 C139.529182,101.659939 136.61748,104.546535 136.61748,108.083575 C136.61748,111.630031 139.529182,114.507995 143.041115,114.507995 C146.553048,114.507995 149.464751,111.630031 149.464751,108.083575 C149.464751,104.546535 146.553048,101.659939 143.041115,101.659939" id="Fill-11" fill="#000000"></path>
                <path d="M35.2039089,48.8290468 L35.2039089,87.4069533 L35.4604778,88.6497821 C36.0607076,91.2366548 37.5161667,93.7795891 39.144241,95.8525396 C42.7416967,100.306794 48.1374879,103.664158 53.3622333,105.873631 C70.0643138,112.974389 93.9620904,112.648774 110.150249,104.212603 C114.518195,101.942714 118.887711,98.7391349 121.713891,94.6873877 C122.913566,92.9063136 124.026149,90.7556864 124.540071,88.6403667 L124.79664,87.4069533 L124.79664,48.8204161 C124.625594,49.6936916 124.454549,50.439075 124.19798,51.295089 C123.255658,53.8905924 121.713891,56.400573 119.828464,58.4131082 C114.604503,64.1862988 106.380963,67.9218466 98.9294823,69.9077049 C84.1975678,73.8739292 65.5245366,73.0602844 51.5631131,66.491495 C46.1681065,63.9634684 40.5997002,60.1008131 37.5161667,54.9278523 C36.6593681,53.48887 35.8041387,51.697596 35.4604778,50.0616756 L35.2039089,48.8290468 Z" id="Fill-13" fill="#000000"></path>
                <path d="M79.9147517,111.886757 C70.4931054,111.886757 60.9859363,110.207682 52.9342263,106.799319 C48.5654949,104.940568 42.4847356,101.634204 38.3733576,96.4863509 C36.4879299,94.1482009 35.1179937,91.4506975 34.4330256,88.8881479 L34.1756722,87.6131499 L34.1756722,48.8288899 C34.1756722,48.3063369 34.5185485,47.8787222 35.0332554,47.8269377 C35.5471776,47.7759377 36.0610999,48.1180295 36.1458382,48.623321 L36.402407,49.8653651 C36.7452834,51.2784551 37.516559,53.0006831 38.3733576,54.4137731 C40.9421842,58.6867816 45.7393149,62.6537905 51.9919047,65.5835396 C65.0117913,71.7239296 83.3403769,73.0436505 98.6725212,68.9401187 C103.727005,67.587444 113.147867,64.3234493 119.058365,57.7460292 C121.028531,55.664448 122.399252,53.2572519 123.170528,50.9795172 C123.427096,50.19098 123.597358,49.5060119 123.769188,48.7088439 C123.854711,48.2121832 124.28311,47.8269377 124.882556,47.8700914 C125.396478,47.9210914 125.824877,48.3063369 125.824877,48.8202591 L125.824877,87.407581 L125.482785,88.8457787 C124.968863,91.0222982 123.941019,93.2914022 122.570298,95.270199 C119.230195,99.9716068 114.175711,103.210494 110.57904,105.102983 C102.012623,109.608237 90.9644722,111.886757 79.9147517,111.886757 M36.1458382,54.6703419 L36.1458382,87.407581 L36.402407,88.4354255 C37.0018522,90.687268 38.2015272,93.1117256 39.9143398,95.2270453 C42.9131349,98.9884853 47.8805268,102.439218 53.7910249,104.949199 C70.5786284,112.109587 94.1335286,111.424619 109.635934,103.321124 C113.062344,101.53142 117.773167,98.4824092 120.857485,94.1136778 C122.142683,92.3231884 123.08422,90.3020225 123.511835,88.4001179 L123.769188,87.2012275 L123.769188,54.6530804 C122.913174,56.1948471 121.88533,57.7107216 120.600132,59.098704 C114.261234,66.0621542 104.411973,69.4705179 99.1872281,70.8843925 C83.427469,75.116601 64.583392,73.7458802 51.1351061,67.3991366 C46.5105906,65.2139863 40.1716932,61.3599618 36.6597604,55.4502484 C36.4879299,55.2007411 36.3176687,54.9363261 36.1458382,54.6703419" id="Fill-15" fill="#000000"></path>
                <polygon id="Fill-17" fill="#3D68EC" points="158.97294 46.6188673 158.97294 49.9934926 79.9999608 95.5960493 79.9999608 92.2206394"></polygon>
                <g id="Group-21" transform="translate(78.972979, 45.610599)">
                    <mask id="mask-2" fill="white">
                        <use xlink:href="#path-1"></use>
                    </mask>
                    <g id="Clip-20"></g>
                    <path d="M1.02705987,50.9950133 C0.856798608,50.9950133 0.684968118,50.9534287 0.513922242,50.8584904 C0.17183049,50.6788138 2.23000742e-14,50.3445682 2.23000742e-14,49.9852149 L2.23000742e-14,46.6105896 C2.23000742e-14,46.2504518 0.17183049,45.9256215 0.513922242,45.7451603 L79.486117,0.134757473 C79.8282087,-0.0449191578 80.1718697,-0.0449191578 80.5139615,0.134757473 C80.7713149,0.314434104 81.0270991,0.649464329 81.0270991,1.00803298 L81.0270991,4.38344288 C81.0270991,4.74279614 80.7713149,5.06841099 80.5139615,5.24808763 L1.45545917,50.8584904 C1.36993624,50.9534287 1.19889036,50.9950133 1.02705987,50.9950133 L1.02705987,50.9950133 Z M1.96938142,47.1927733 L1.96938142,48.2465101 L78.9721947,3.80047459 L78.9721947,2.74673784 L1.96938142,47.1927733 Z" id="Fill-19" fill="#000000" mask="url(#mask-2)"></path>
                </g>
                <polygon id="Fill-22" fill="#000000" points="80.0000392 92.2207963 80.0000392 95.5954216 1.02784448 49.9936495 1.02784448 46.6190242"></polygon>
                <path d="M80.0000392,96.6056122 C79.829778,96.6056122 79.6579475,96.5640277 79.4869016,96.4690894 L0.513922242,50.8586866 C0.17183049,50.67901 0,50.3533951 0,49.9940418 L0,46.6186319 C0,46.2600633 0.17183049,45.9250331 0.513922242,45.7453564 C0.77127567,45.5656798 1.19967497,45.5656798 1.45624379,45.7453564 L80.4284385,91.3557592 C80.7713149,91.5362205 80.9423608,91.8610507 80.9423608,92.2211886 L80.9423608,95.5958139 C80.9423608,95.9551671 80.7713149,96.2894128 80.4284385,96.4690894 C80.3429156,96.5640277 80.1718697,96.6056122 80.0000392,96.6056122 L80.0000392,96.6056122 Z M1.97016603,49.4110736 L78.9729794,93.857109 L78.9729794,92.8033723 L1.97016603,48.3573368 L1.97016603,49.4110736 Z" id="Fill-24" fill="#000000"></path>
                <polygon id="Fill-26" fill="#3D68EC" points="80.0000392 1.00799375 158.973019 46.6191812 80.0000392 92.2209532 1.02784448 46.6191812"></polygon>
                <g id="Group-30">
                    <mask id="mask-4" fill="white">
                        <use xlink:href="#path-3"></use>
                    </mask>
                    <g id="Clip-29"></g>
                    <path d="M80.0000392,93.2321639 C79.829778,93.2321639 79.6579475,93.1890101 79.4869016,93.0940718 L0.513922242,47.4922997 C0.17183049,47.3134077 0,46.9697468 0,46.6190242 C0,46.259671 0.17183049,45.9254254 0.513922242,45.7457487 L79.4869016,0.135345934 C79.829778,-0.0451153113 80.1718697,-0.0451153113 80.4284385,0.135345934 L159.486941,45.7457487 C159.744294,45.9254254 160.000078,46.259671 160.000078,46.6190242 C160.000078,46.9697468 159.744294,47.3134077 159.486941,47.4922997 L80.4284385,93.0940718 C80.3429156,93.1890101 80.1718697,93.2321639 80.0000392,93.2321639 L80.0000392,93.2321639 Z M2.99879513,46.6190242 L80.0000392,91.0642751 L157.002068,46.6190242 L80.0000392,2.17377339 L2.99879513,46.6190242 Z" id="Fill-28" fill="#000000" mask="url(#mask-4)"></path>
                </g>
                <path d="M143.041115,102.602183 C142.527193,102.602183 142.013271,102.156522 142.013271,101.60023 L142.013271,74.4478744 C142.013271,63.381677 134.134176,54.1475535 123.170763,52.4951562 L79.6584182,45.9083208 C79.0589731,45.8220132 78.7153121,45.3088756 78.800835,44.7604303 C78.8871426,44.2112005 79.4010648,43.8353703 79.9149871,43.9130471 L123.51207,50.5077287 C135.417805,52.314695 144.06896,62.3797248 144.06896,74.4478744 L144.06896,101.60023 C144.06896,102.156522 143.64056,102.602183 143.041115,102.602183" id="Fill-31" fill="#000000"></path>
                <path d="M86.7674144,40.9141735 C82.9989128,38.7470693 76.9165842,38.7384386 73.1480827,40.9141735 C69.3787965,43.0985392 69.3787965,46.6277335 73.1480827,48.8120991 C76.9165842,50.9792033 82.9989128,50.9792033 86.7674144,48.8120991 C90.6206543,46.6277335 90.6206543,43.0985392 86.7674144,40.9141735" id="Fill-33" fill="#F4D9DC"></path>
                <path d="M80.0000392,51.4582887 C77.3449051,51.4582887 74.6897709,50.8674743 72.634082,49.6772147 C70.4936547,48.4351705 69.2939797,46.7309887 69.2939797,44.8628225 C69.2939797,42.9954409 70.4936547,41.2912591 72.634082,40.0413688 C76.7454599,37.6773265 83.1698802,37.6773265 87.2804736,40.0413688 C89.4224701,41.2912591 90.6213604,42.9954409 90.6213604,44.8628225 C90.6213604,46.7309887 89.4224701,48.4351705 87.2804736,49.6772147 C85.3110921,50.8674743 82.655958,51.4582887 80.0000392,51.4582887 M80.0000392,40.2806761 C77.6877814,40.2806761 75.3755237,40.7859676 73.6619265,41.7887044 C72.1209443,42.6619799 71.3496687,43.7494551 71.3496687,44.8628225 C71.3496687,45.9761899 72.1209443,47.0636651 73.6619265,47.9377252 C77.1738592,49.951045 82.8270039,49.951045 86.3389366,47.9377252 C87.7951804,47.0636651 88.6511944,45.9761899 88.6511944,44.8628225 C88.6511944,43.7494551 87.7951804,42.6619799 86.3389366,41.7887044 C84.5398165,40.7859676 82.2275587,40.2806761 80.0000392,40.2806761" id="Fill-35" fill="#000000"></path>
            </g>
        </g>
    </g>
</svg>