<?xml version="1.0" encoding="UTF-8"?>
<svg width="168px" height="140px" viewBox="0 0 168 140" version="1.1" xmlns="http://www.w3.org/2000/svg" xmlns:xlink="http://www.w3.org/1999/xlink">
    <title>Group 81</title>
    <defs>
        <polygon id="path-1" points="0 0 144.874474 0 144.874474 133.348874 0 133.348874"></polygon>
    </defs>
    <g id="Illustraties" stroke="none" stroke-width="1" fill="none" fill-rule="evenodd">
        <g transform="translate(-1214, -2887)" id="Group-81">
            <g transform="translate(1214, 2887)">
                <path d="M38.1906063,9.35030849 C27.184659,13.9091507 26.5394389,17.5531666 18.2259861,25.8676387 C9.91151408,34.1821107 10.1245489,42.2565364 5.56366799,53.2614644 C1.53843198,62.9713652 1.36616941,63.3235351 1.53435476,74.4181619 C1.72598413,87.1564183 -3.32620181,89.1246965 22.6589442,104.137023 C36.6708223,112.230306 54.8277048,141.955282 85.6097009,133.119435 C94.3808216,136.510664 107.103279,140.246417 116.094569,138.137984 C129.001521,135.109119 143.442526,127.478601 143.61326,120.489225 C169.494437,111.582537 162.703826,98.1429988 165.997201,86.4984568 C169.044923,75.7284787 158.614883,60.9791333 154.591686,51.2677035 C150.031315,40.2612466 142.27848,31.2643498 133.965027,22.9503874 C125.651574,14.6369346 116.389149,9.00476405 105.381163,4.44388319 C94.7773313,0.0511876748 93.6137945,1.46802182 81.3989513,1.46802182 C69.1876757,1.46802182 48.7949474,4.95710333 38.1906063,9.35030849" id="Fill-1" fill="#D5DFFE"></path>
                <g id="Group-5" fill="#000000">
                    <path d="M22.7043033,19.2157552 C26.8258636,14.5590597 29.4164276,11.6341636 37.7161198,8.1955377 C42.9670702,6.01983087 50.5603839,4.06480361 58.3855894,2.63828606 C66.6006792,1.14041715 75.0858849,0.214888081 81.3989513,0.214888081 C84.2642181,0.214888081 86.3726508,0.144556026 88.1650988,0.0869652854 C94.7681576,-0.129127405 97.3949069,-0.215258689 105.85514,3.28911239 C111.423094,5.59579993 116.557334,8.17871916 121.353674,11.2381635 C126.173459,14.3103492 130.642092,17.8534539 134.852332,22.0642035 C139.032503,26.2509993 143.083731,30.6182122 146.67933,35.3462591 C150.290728,40.0957114 153.425601,45.1886696 155.746559,50.7872031 C156.741401,53.1922536 158.138358,55.9148176 159.620938,58.8076056 C164.207811,67.7530275 169.616244,78.2997779 167.201,86.8369681 C166.457927,89.4647367 166.245402,92.2581425 166.034915,95.0658185 C165.314776,104.621804 164.576799,114.357697 144.776287,121.407212 C144.21465,124.840231 140.950835,128.250317 136.326248,131.216495 C130.852069,134.728001 123.386678,137.713036 116.377936,139.356666 C112.340469,140.302071 107.616499,140.12726 102.830861,139.339847 C96.7486675,138.33838 90.5446667,136.345129 85.5475232,134.433422 C62.4062386,140.855554 46.3960127,126.252988 33.8743587,114.829636 C29.5183582,110.855365 25.5940334,107.274546 22.0325812,105.218607 C-0.574077928,92.1587602 -0.371745858,88.562142 0.132300536,79.6014305 C0.217922168,78.0612604 0.315775461,76.3488278 0.286215612,74.4330438 C0.117520611,63.1365945 0.289273528,62.7191891 4.34508869,52.936408 L4.40879526,52.7824929 C5.83225489,49.3469249 6.78326659,46.2161292 7.67362963,43.2764531 C9.69338278,36.6193713 11.431298,30.889857 17.34021,24.9819644 C19.6122411,22.708914 21.2594382,20.8491917 22.7043033,19.2157552 M38.6661122,10.5047735 C30.9025745,13.7206812 28.4608291,16.4779016 24.5747282,20.8690682 C23.0559635,22.5840491 21.327222,24.5380571 19.1117623,26.7535168 C13.6299392,32.2353398 11.9791746,37.6763907 10.0603326,43.9996501 C9.14448696,47.0264768 8.16544437,50.2485003 6.71803106,53.7426784 L6.65381484,53.8965934 C2.78453252,63.2303706 2.61940508,63.6294286 2.78198425,74.4029743 C2.81103445,76.4492294 2.71521977,78.1810288 2.62704987,79.7375078 C2.18365214,87.6060338 2.00629304,90.7628218 23.2858169,103.055132 C27.0862961,105.250715 31.1008294,108.913589 35.5582508,112.980616 C47.7002136,124.056386 63.2435978,138.237469 85.2667047,131.916248 C85.5658707,131.830626 85.8716623,131.863244 86.134643,131.984541 C91.0558482,133.882487 97.2200961,135.885932 103.231448,136.874658 C107.71792,137.613654 112.115712,137.785407 115.810183,136.919507 C122.564099,135.336016 129.73542,132.472788 134.975668,129.112139 C139.335746,126.316185 142.297337,123.252154 142.365631,120.459768 C142.377353,119.922084 142.729013,119.47308 143.208596,119.308462 C162.189587,112.772168 162.871502,103.741634 163.539147,94.880305 C163.759317,91.9523509 163.981015,89.0366286 164.792892,86.1606591 C166.944645,78.5546041 161.779826,68.484379 157.400381,59.9410729 C155.885694,56.9896749 154.459176,54.2095201 153.439362,51.7463692 C151.198419,46.3430327 148.17516,41.4304915 144.693214,36.8533018 C141.197507,32.2562356 137.212533,27.9639416 133.082309,23.8337172 C128.979606,19.7350912 124.655713,16.3010522 120.013288,13.3430287 C115.349457,10.3681866 110.345179,7.85152221 104.905657,5.59834819 C96.9372389,2.29732849 94.462366,2.37938255 88.244095,2.58171462 C86.3120021,2.64491154 84.0353841,2.72034012 81.3989513,2.72034012 C75.2010664,2.72034012 66.8784399,3.62701205 58.8264389,5.09634041 C51.1658511,6.49329811 43.7549931,8.39634081 38.6661122,10.5047735" id="Fill-3"></path>
                </g>
                <path d="M39.1684257,129.749205 C40.5801634,129.275738 42.1055535,128.37722 42.4893219,126.824309 L47.4349904,103.660599 C46.6485965,106.462669 42.8053065,107.142036 40.3314529,107.078839 C36.9866031,106.993218 32.5877917,105.565681 30.5991274,102.753928 C29.9936601,101.897711 29.6588184,100.951796 29.8173203,99.8993635 L24.8716518,123.062563 C24.4950185,125.131243 26.3608566,127.007784 27.9499533,128.035243 C31.047112,130.037668 35.6197149,130.854641 39.1684257,129.749205" id="Fill-6" fill="#000000"></path>
                <path d="M42.2311319,129.470068 C41.4615565,130.144339 40.5120738,130.61169 39.6115177,130.91901 L39.5401663,130.943474 C37.6121506,131.542825 35.4257411,131.634053 33.3142505,131.312972 C31.1594394,130.984246 29.0469295,130.217219 27.3288907,129.119427 L27.2748675,129.086809 C26.2514852,128.426809 25.1169985,127.441141 24.3856471,126.259767 C23.774064,125.267473 23.4346354,124.141141 23.6267744,122.934284 L28.5851843,99.6818947 C28.7018947,99.0152692 29.3297867,98.5616784 30.0040571,98.6620799 C30.6875011,98.7645201 31.1574008,99.4026051 31.05598,100.086049 C31.004505,100.425987 31.0325359,100.747069 31.1207058,101.048783 C31.2170302,101.380057 31.39337,101.710822 31.622204,102.033941 C32.3887214,103.118992 33.6103586,103.975208 34.9915171,104.598003 L35.0552237,104.622976 C36.7753011,105.387455 38.7109616,105.789061 40.3596876,105.831363 C41.6287226,105.86398 43.2876417,105.685092 44.5704372,105.066884 C45.3578504,104.688212 45.9908389,104.135239 46.2227308,103.353942 C46.3848003,102.705663 47.0346074,102.296412 47.6940978,102.437077 C48.3698971,102.580799 48.8010632,103.244876 48.6583605,103.920166 L43.7024989,127.123118 C43.4634718,128.089419 42.9227304,128.864091 42.2311319,129.470068 L42.2311319,129.470068 Z M38.8108535,128.551674 C39.4448613,128.335072 40.0961973,128.022655 40.5793479,127.596585 C40.9045062,127.306083 41.1583132,126.961558 41.2653403,126.56301 L45.3451091,107.455625 C43.7172788,108.155888 41.782128,108.364846 40.3020969,108.326112 C38.3491083,108.277695 36.0617875,107.804228 34.0374475,106.904691 L33.972212,106.872073 C32.5156249,106.21717 31.1818641,105.333432 30.174281,104.218822 L26.090435,123.344044 C26.0124581,123.885295 26.1949137,124.437759 26.5103887,124.948431 C27.0180026,125.767952 27.8574004,126.486052 28.6259565,126.982454 L28.6759024,127.01711 C30.0922269,127.922253 31.86276,128.558809 33.6868065,128.83708 C35.4486755,129.105667 37.2457104,129.038902 38.7960736,128.555752 L38.8108535,128.551674 Z" id="Fill-8" fill="#000000"></path>
                <path d="M38.1906063,9.35030849 C27.184659,13.9091507 26.5394389,17.5531666 18.2259861,25.8676387 C9.91151408,34.1821107 10.1245489,42.2565364 5.56366799,53.2614644 C1.53843198,62.9713652 1.36616941,63.3235351 1.53435476,74.4181619 C1.72598413,87.1564183 -3.32620181,89.1246965 22.6589442,104.137023 C36.6708223,112.230306 54.8277048,141.955282 85.6097009,133.119435 C94.3808216,136.510664 107.103279,140.246417 116.094569,138.137984 C129.001521,135.109119 143.442526,127.478601 143.61326,120.489225 C143.908349,101.904744 139.534001,99.0068599 140.411623,86.6309665 C140.819345,80.8667959 140.047221,71.3128488 132.24495,64.953404 C125.114401,59.144384 113.67321,54.0019896 113.097303,48.8799812 C112.100932,40.0252775 109.795264,40.0115168 101.485888,31.6990834 C93.1760029,23.38665 92.7800029,28.7476854 85.3609904,19.4246109 C76.4848812,8.27188365 69.0867645,12.2058919 56.8734503,12.2058919 C44.6606457,12.2058919 48.7949474,4.95710333 38.1906063,9.35030849" id="Fill-10" fill="#D5DFFE"></path>
                <g id="Group-14" transform="translate(0, 6.6511)">
                    <mask id="mask-2" fill="white">
                        <use xlink:href="#path-1"></use>
                    </mask>
                    <g id="Clip-13"></g>
                    <path d="M22.7043033,12.564629 C26.8258636,7.90793344 29.4164276,4.98303733 37.7161198,1.54441143 C44.0740356,-1.08896341 45.7395802,0.0949595165 48.0906075,1.77018752 C49.6690015,2.89448109 51.6454342,4.30265115 56.8719213,4.30265115 C59.5414815,4.30265115 61.9720146,4.11153143 64.2358913,3.9367206 C72.7098846,3.27621087 79.011229,2.78643475 86.3405426,11.9958567 C90.0793539,16.6948534 91.8972846,17.4471006 93.9506748,18.2951625 C96.005594,19.1442437 98.27049,20.0814948 102.299294,24.0960281 L102.370645,24.1622829 C104.170738,25.9618661 105.625286,27.3180516 106.856607,28.4642603 C111.816546,33.0832415 113.502986,34.6519521 114.339836,42.0913507 C114.657859,44.9347024 119.68711,48.2214518 125.011451,51.6998306 C127.77071,53.50502 130.611004,55.3606651 133.031853,57.3340398 C136.490356,60.1519089 138.645167,63.5599556 139.94529,67.0138711 C141.732642,71.7607752 141.905924,76.585656 141.659252,80.0681121 C141.25204,85.8037421 142.011932,89.4722213 142.884966,93.6962218 C143.878279,98.4895043 145.014295,103.983559 144.86038,113.833614 L144.86038,113.867251 C144.769152,117.596379 141.349893,121.343345 136.326248,124.565368 C130.852069,128.076875 123.386678,131.06191 116.377936,132.705539 C112.340469,133.650945 107.616499,133.476134 102.830861,132.688721 C96.7486675,131.687253 90.5446667,129.694002 85.5475232,127.782295 C62.4062386,134.204428 46.3960127,119.601862 33.8743587,108.178509 C29.5183582,104.204239 25.5940334,100.62342 22.0325812,98.5674811 C-0.574077928,85.507634 -0.371745858,81.9110158 0.132300536,72.9503043 C0.217922168,71.4101342 0.315775461,69.6977015 0.286215612,67.7819175 C0.117520611,56.4854683 0.289273528,56.0680628 4.34508869,46.2852817 L4.40879526,46.1313666 C5.83225489,42.6957987 6.78326659,39.5650029 7.67362963,36.6253269 C9.69338278,29.968245 11.431298,24.2387308 17.34021,18.3308382 C19.6122411,16.0577877 21.2594382,14.1980655 22.7043033,12.564629 M38.6661122,3.85364723 C30.9025745,7.06955496 28.4608291,9.82677537 24.5747282,14.2179419 C23.0559635,15.9329228 21.327222,17.8869308 19.1117623,20.1023905 C13.6299392,25.5842136 11.9791746,31.0252644 10.0603326,37.3485239 C9.14448696,40.3753505 8.16544437,43.5973741 6.71803106,47.0915521 L6.65381484,47.2454672 C2.78453252,56.5792444 2.61940508,56.9783023 2.78198425,67.751848 C2.81103445,69.7981031 2.71521977,71.5299025 2.62704987,73.0863815 C2.18365214,80.9549075 2.00629304,84.1116956 23.2858169,96.4040059 C27.0862961,98.5995892 31.1008294,102.262462 35.5582508,106.32949 C47.7002136,117.405259 63.2435978,131.586342 85.2667047,125.265121 C85.5658707,125.1795 85.8716623,125.212118 86.134643,125.333415 C91.0558482,127.231361 97.2200961,129.234805 103.231448,130.223531 C107.71792,130.962527 112.115712,131.13428 115.810183,130.268381 C122.564099,128.68489 129.73542,125.821662 134.975668,122.461013 C139.335746,119.665059 142.297337,116.601028 142.365631,113.808641 C142.515468,104.232779 141.406464,98.8717437 140.438634,94.1956813 C139.526356,89.7856576 138.734356,85.9566379 139.163483,79.8917723 C139.391298,76.6728066 139.237893,72.2260879 137.607004,67.8945507 C136.446016,64.8131913 134.527684,61.775662 131.456517,59.2722485 C129.176332,57.4125263 126.367127,55.5777771 123.639466,53.7945027 C117.81057,49.9853594 112.305812,46.3872122 111.85426,42.3665631 C111.121889,35.850655 109.607202,34.4404463 105.153348,30.2934033 C103.853734,29.0834881 102.321718,27.654932 100.599093,25.9338352 L100.537425,25.8665611 C96.8567138,22.1980819 94.8333931,21.361742 93.0006824,20.6043983 C90.6231532,19.6228074 88.5208363,18.7518112 84.3829671,13.5502971 C77.8828582,5.3841339 72.143151,5.83058956 64.4229338,6.43197959 C62.0968795,6.61188695 59.5990722,6.80759353 56.8719213,6.80759353 C50.8549631,6.80759353 48.5125998,5.13899102 46.6421749,3.80624954 C44.9485994,2.60041156 43.7488772,1.74827246 38.6661122,3.85364723" id="Fill-12" fill="#000000" mask="url(#mask-2)"></path>
                </g>
                <path d="M153.438189,46.0375979 C153.953448,46.4973045 153.999827,47.2887949 153.541139,47.805073 C153.082452,48.3208414 152.289942,48.3667101 151.774683,47.9080228 C151.576429,47.7321927 151.370529,47.5650266 151.16412,47.4095826 C148.752953,45.5931808 145.958528,45.311343 143.545323,45.7292581 C141.134667,46.1481925 139.154157,47.2240691 138.316798,48.1638684 L138.200087,48.3101387 C137.78472,48.8610731 136.999346,48.9701388 136.448411,48.5547719 C135.897477,48.1388954 135.787902,47.3540305 136.203778,46.803096 L136.43567,46.5217678 C137.582898,45.2308179 140.134219,43.7834046 143.12435,43.2635589 C146.115501,42.7452423 149.603563,43.1116825 152.65944,45.4071576 C152.921911,45.5982774 153.182853,45.8123314 153.438189,46.0375979" id="Fill-15" fill="#000000"></path>
                <path d="M156.28465,92.84409 C156.088434,93.5056191 155.391739,93.8822523 154.72919,93.6855264 C154.068171,93.4893102 153.691028,92.7915958 153.887754,92.1305764 C156.110349,84.698313 157.054225,79.3724436 155.912094,74.33147 C154.767924,69.2767358 151.495445,64.3438086 145.289405,57.677553 C144.819506,57.1709583 144.848046,56.3799775 145.352602,55.9095682 C145.857668,55.4396685 146.649668,55.4682091 147.120077,55.9727651 C153.639043,62.9764107 157.093469,68.2441797 158.349253,73.7846128 C159.607585,79.3398259 158.627013,85.012259 156.28465,92.84409" id="Fill-17" fill="#000000"></path>
                <path d="M157.515767,74.5172894 C158.203798,74.5570423 158.730269,75.1502779 158.690006,75.8383088 C158.650253,76.5258301 158.057527,77.0528109 157.368987,77.013058 C154.746824,76.857614 151.34948,76.1262625 148.544352,74.4362546 C146.352846,73.1157448 144.508923,71.2121924 143.623147,68.5472191 C143.408074,67.8943542 143.762792,67.1869564 144.415147,66.9708637 C145.069032,66.7557904 145.776429,67.1105085 145.992012,67.7643928 C146.662715,69.7805784 148.106561,71.2519453 149.837341,72.2931655 C152.253094,73.7492429 155.217234,74.3807025 157.515767,74.5172894" id="Fill-19" fill="#000000"></path>
                <path d="M151.786456,109.284157 C151.351723,109.819802 150.564819,109.900327 150.029174,109.465593 C149.494039,109.031369 149.413004,108.243956 149.847738,107.708821 C150.350765,107.089593 150.833406,106.274149 151.331846,105.432203 C152.960696,102.679569 154.748047,99.660897 159.031168,99.325036 C159.719708,99.2715225 160.323647,99.7867812 160.37767,100.475322 C160.431693,101.162843 159.915925,101.766272 159.227384,101.820805 C156.237252,102.054735 154.796464,104.487817 153.484619,106.705315 C152.943877,107.618103 152.419445,108.50235 151.786456,109.284157" id="Fill-21" fill="#000000"></path>
                <path d="M98.8348793,58.0539314 C98.266107,57.6655761 98.1183078,56.886827 98.5076823,56.3180547 C98.8955279,55.7482631 99.6747867,55.6014832 100.243559,55.9903481 C104.673459,59.0227809 105.780934,63.8843568 107.028564,69.3682185 C108.396981,75.3775319 109.95346,82.2058571 116.603916,87.6886995 C119.334635,89.9403445 121.918573,92.9921441 124.060643,96.3130403 C126.255207,99.7144615 128.002806,103.421674 128.980829,106.859791 C129.168891,107.523868 128.783593,108.216486 128.119006,108.405567 C127.454929,108.593629 126.762311,108.209351 126.57323,107.545273 C125.661462,104.33752 124.02089,100.863728 121.956287,97.6636196 C119.94316,94.5425072 117.53658,91.6935494 115.017368,89.6172248 C107.706402,83.5890542 106.049521,76.3158023 104.591405,69.9155853 C103.458957,64.9408666 102.454942,60.5328815 98.8348793,58.0539314" id="Fill-23" fill="#000000"></path>
                <path d="M107.927234,73.3131842 C107.911435,74.0017248 107.338076,74.548582 106.650045,74.5317635 C105.962523,74.5159643 105.415666,73.9441341 105.431465,73.2555935 C105.475296,71.5655855 106.916593,69.0259868 108.903219,66.8859556 C110.656933,64.9956542 112.885134,63.3372448 114.991528,62.7745883 C115.658664,62.5972292 116.345166,62.9932293 116.522525,63.6608741 C116.699884,64.3280094 116.304393,65.0145114 115.637258,65.1918705 C114.014524,65.6250752 112.205767,67.0021564 110.732871,68.5892145 C109.119311,70.3261105 107.956284,72.2215084 107.927234,73.3131842" id="Fill-25" fill="#000000"></path>
                <path d="M123.875945,98.0540134 C123.346926,98.4938436 122.558493,98.421473 122.119172,97.8924536 C121.679342,97.3634342 121.751713,96.5750017 122.280732,96.1356812 C123.92742,94.7616578 124.937042,93.1684839 125.404903,91.3108003 C125.89213,89.3776881 125.81874,87.1250237 125.293798,84.510506 C125.15976,83.835726 125.597042,83.1777645 126.272841,83.0437259 C126.948131,82.9091776 127.606092,83.3469692 127.740131,84.0217492 C128.339482,87.004236 128.411853,89.6146765 127.831868,91.9172868 C127.232517,94.2927775 125.955837,96.3191561 123.875945,98.0540134" id="Fill-27" fill="#000000"></path>
                <path d="M112.563951,83.8654388 C113.228029,84.0478944 113.617913,84.736435 113.434947,85.401022 C113.251473,86.0650993 112.562932,86.4560028 111.898345,86.2720182 C110.009573,85.7480954 107.538777,84.4846666 105.414545,82.8986278 C103.542081,81.5006508 101.894375,79.8213456 101.06517,78.1201253 C100.762946,77.4988588 101.02134,76.7486503 101.642606,76.4464263 C102.263873,76.1436926 103.013062,76.4020865 103.316305,77.023353 C103.957958,78.3392759 105.326375,79.709222 106.911904,80.893145 C108.806792,82.3069212 110.958036,83.4205121 112.563951,83.8654388" id="Fill-29" fill="#000000"></path>
                <path d="M93.7605744,112.832664 C93.7259181,113.520695 93.1382886,114.051243 92.449748,114.017606 C91.7612074,113.98295 91.2311687,113.394811 91.2648058,112.70678 C91.8376553,101.578516 90.1394929,95.1329397 85.9914306,91.9990861 C81.8178857,88.8443367 74.9620393,88.8489235 65.3000459,90.6663446 C64.6216983,90.7922288 63.9683237,90.3452635 63.8424395,89.6674256 C63.7160457,88.9880587 64.1625013,88.3351937 64.8413586,88.2093096 C75.1939313,86.2614174 82.6603414,86.3465294 87.4989829,90.0032866 C92.3641264,93.6804299 94.3798023,100.788045 93.7605744,112.832664" id="Fill-31" fill="#000000"></path>
                <path d="M75.90138,87.0925588 C76.395743,87.5726516 76.4064457,88.365671 75.926353,88.8590147 C75.4472795,89.3533776 74.6537505,89.36459 74.1604068,88.8839876 C73.7939666,88.5282501 73.3123449,87.7382886 72.9112484,86.6970684 C72.3266769,85.1732073 71.8185532,82.9592765 71.9806228,80.5980561 C72.1462598,78.1756775 73.0014569,75.5876617 75.1491328,73.3793371 C76.4365152,72.057808 78.1881911,70.8815298 80.5341219,69.9784255 C81.1762841,69.7332826 81.8984618,70.055383 82.1441143,70.6975453 C82.3897669,71.3402172 82.0666471,72.0618852 81.4239753,72.3080474 C79.4521295,73.0664104 77.9950328,74.0398468 76.9400519,75.1213296 C75.2714494,76.8378395 74.6063528,78.8631988 74.4753721,80.7636932 C74.3408238,82.722288 74.7582293,84.5483732 75.238322,85.7975317 C75.5089475,86.495246 75.7566387,86.9513851 75.90138,87.0925588" id="Fill-33" fill="#000000"></path>
                <path d="M89.5370836,93.5768685 C88.9030758,93.8434168 88.170705,93.54527 87.9036471,92.9117719 C87.6370988,92.2767448 87.9342262,91.5438644 88.5692533,91.2773161 C89.7124041,90.7956944 91.2163888,90.0113391 92.3437403,88.823339 C93.3859798,87.724528 94.1107057,86.2332846 93.8747366,84.2410527 C93.7937018,83.55557 94.2850069,82.9322649 94.9704896,82.8512301 C95.6559723,82.7717243 96.2792774,83.2630294 96.3603122,83.9485121 C96.7002505,86.8158175 95.6534241,88.9619645 94.1530069,90.5444357 C92.7351535,92.040266 90.9131455,92.9963742 89.5370836,93.5768685" id="Fill-35" fill="#000000"></path>
                <path d="M129.792196,120.178541 C130.385941,119.8279 131.153478,120.024116 131.505138,120.617862 C131.855779,121.212117 131.659563,121.980673 131.065308,122.330804 C125.338852,125.72509 119.907484,127.754017 114.686094,127.567484 C109.383668,127.375345 104.385505,124.923407 99.6452269,119.345259 C99.1992809,118.818279 99.2660454,118.028827 99.7920068,117.582881 C100.317968,117.136935 101.10691,117.20268 101.553366,117.729151 C105.790108,122.716101 110.178217,124.905569 114.774263,125.071206 C119.453384,125.240411 124.451037,123.345013 129.792196,120.178541" id="Fill-37" fill="#000000"></path>
                <path d="M112.280686,125.119572 C112.855574,124.739881 113.632285,124.896854 114.012486,125.472252 C114.391158,126.04714 114.233675,126.82436 113.658787,127.204051 C111.255265,128.795186 108.488362,130.079001 105.537473,130.566739 C103.010106,130.985673 100.356855,130.820546 97.6939201,129.778306 C97.0517578,129.527557 96.7347539,128.801302 96.9849934,128.15914 C97.2352328,127.516468 97.9619973,127.198954 98.6036499,127.449703 C100.815542,128.315603 103.025905,128.450661 105.136377,128.102059 C107.696361,127.679557 110.136578,126.538954 112.280686,125.119572" id="Fill-39" fill="#000000"></path>
                <path d="M125.049267,123.033156 C125.702132,123.256894 126.051754,123.970407 125.828016,124.624292 C125.604788,125.276647 124.890765,125.625249 124.236881,125.402021 C122.30173,124.737434 120.45322,124.0545 118.849853,122.981681 C117.164942,121.853311 115.822007,120.340152 115.058548,118.071688 C114.840416,117.417804 115.193096,116.708368 115.84698,116.490237 C116.499845,116.272105 117.209282,116.624275 117.427413,117.278159 C117.98905,118.948291 118.98695,120.070546 120.239166,120.906886 C121.573436,121.798778 123.263954,122.421064 125.049267,123.033156" id="Fill-41" fill="#000000"></path>
                <path d="M132.395144,20.407221 C133.074002,20.2833755 133.725847,20.7323794 133.849693,21.4102173 C133.973538,22.0885649 133.525554,22.7404105 132.846697,22.8637464 C131.377878,23.1379395 130.238295,23.5798083 129.099731,24.0196385 C126.976009,24.8391598 124.84668,25.6627583 120.73888,25.6627583 C119.725181,25.6627583 118.408749,25.3192525 116.920563,24.928349 C115.166849,24.470681 113.139961,23.939623 111.337829,23.939623 C110.646231,23.939623 110.085613,23.3779859 110.085613,22.6863873 C110.085613,21.9958081 110.646231,21.4346806 111.337829,21.4346806 C113.430972,21.4346806 115.638277,22.0131363 117.548455,22.5115765 C118.857243,22.8545727 120.015683,23.157816 120.73888,23.157816 C124.402773,23.157816 126.304286,22.4218776 128.200194,21.6905262 C129.447824,21.2078852 130.70004,20.7242249 132.395144,20.407221" id="Fill-43" fill="#000000"></path>
                <path d="M135.436343,36.2877913 C136.124884,36.3443627 136.637085,36.94983 136.581533,37.6383706 C136.524961,38.3269112 135.918984,38.8391121 135.230953,38.7835599 C133.88649,38.6724557 132.224003,38.3503553 130.413717,37.9992046 C126.700388,37.2816138 122.310241,36.4335519 119.249778,37.1628648 C118.578055,37.3213667 117.901746,36.9044709 117.742225,36.2332585 C117.582704,35.5600074 118.000619,34.8847178 118.672341,34.7262158 C122.248064,33.8735671 126.926674,34.7771811 130.882597,35.5426792 C132.616436,35.8785403 134.20859,36.1858608 135.436343,36.2877913" id="Fill-45" fill="#000000"></path>
                <path d="M130.607538,35.5454314 C131.293021,35.475609 131.907662,35.9750685 131.976974,36.6600415 C132.047306,37.3455242 131.547847,37.9606749 130.862874,38.0299876 C129.933777,38.126312 128.851785,38.6532927 127.837067,39.3112542 C126.150626,40.40293 124.734811,41.7912236 124.339831,42.3227913 C123.929051,42.8757643 123.146734,42.9919651 122.593251,42.5816948 C122.039259,42.1719341 121.923568,41.3885981 122.333328,40.8351154 C122.827182,40.1700188 124.528912,38.4769529 126.475275,37.2165821 C127.780495,36.3715782 129.234024,35.6881341 130.607538,35.5454314" id="Fill-47" fill="#000000"></path>
                <path d="M111.538683,6.55415063 C112.094714,6.14897683 112.875502,6.27282241 113.280676,6.82936301 C113.68483,7.38437466 113.562004,8.1651624 113.005463,8.5703362 C110.040814,10.7322824 107.651053,11.6206068 105.167516,11.7500586 C102.731887,11.8774717 100.343145,11.2699659 97.2531216,10.4290391 C96.235855,10.1543364 95.3765808,9.99991166 94.5356541,9.9178576 C93.6962563,9.8383518 92.788565,9.82255257 91.717785,9.82255257 C91.0261865,9.82255257 90.465059,9.26091543 90.465059,8.56931689 C90.465059,7.87771835 91.0261865,7.31710052 91.717785,7.31710052 C92.803345,7.31710052 93.7548663,7.33595767 94.7700942,7.43279166 C95.7827739,7.5311546 96.780164,7.70647509 97.9090444,8.01175698 C100.786033,8.79509298 102.998435,9.36080734 105.041632,9.2547996 C107.036922,9.15083048 109.011316,8.39603502 111.538683,6.55415063" id="Fill-49" fill="#000000"></path>
                <path d="M105.093311,9.80981125 C105.411334,9.19975712 106.16613,8.96174937 106.776693,9.28079188 C107.386748,9.59983439 107.624755,10.3546299 107.305713,10.9641743 C106.308832,12.8661977 104.921048,14.1495029 103.373234,15.1045918 C101.888106,16.0209471 100.300029,16.6111248 98.7720901,17.1671558 C98.1233024,17.4021056 97.4052019,17.0672639 97.1712714,16.4189858 C96.9373408,15.7701981 97.2711633,15.0531169 97.9194413,14.8181671 C99.3327079,14.3039276 100.797449,13.760638 102.062407,12.9808696 C103.265187,12.2393251 104.336477,11.252128 105.093311,9.80981125" id="Fill-51" fill="#000000"></path>
                <path d="M89.2482635,0.136197724 C89.8832906,-0.130350571 90.616171,0.167796183 90.8827193,0.801294329 C91.1492675,1.43632143 90.8511208,2.16920183 90.217113,2.43575013 C87.7626262,3.47289311 86.3570044,4.37650712 85.1572823,5.14557285 C83.0289731,6.5129707 81.4852355,7.50322564 76.4452812,8.21673924 C75.7608178,8.31102497 75.1298679,7.83348051 75.0355822,7.15003641 C74.9407868,6.46710197 75.4183313,5.83513278 76.1017754,5.74186636 C80.5897759,5.10683925 81.9423938,4.23788162 83.806703,3.04121738 C85.0731896,2.22832153 86.5593365,1.27272296 89.2482635,0.136197724" id="Fill-53" fill="#000000"></path>
                <path d="M49.7721042,72.5438127 C49.2191312,72.9545926 48.4357952,72.8378822 48.0255249,72.2843995 C47.6162739,71.7314265 47.7314553,70.9475808 48.284938,70.5383298 C57.627889,63.5841205 59.2460359,57.6624672 60.9075033,51.5792542 C62.4955807,45.7692148 64.1223917,39.8139245 71.7829795,32.7582943 C73.0265318,31.613105 74.1217751,30.395545 74.7404934,28.9318228 C75.3495282,27.4915447 75.5289259,25.7332433 74.9871652,23.4357295 C74.8307019,22.7629881 75.2496363,22.0892274 75.9223777,21.9332737 C76.5951191,21.7768104 77.2678605,22.1967641 77.4243238,22.8684862 C78.0991038,25.7317143 77.8452968,27.9910042 77.0400458,29.8991434 C76.2434588,31.7818 74.9392579,33.2501091 73.4760453,34.5981401 C66.3368321,41.1741873 64.8068551,46.7727207 63.315102,52.235177 C61.5384532,58.742421 59.8066537,65.0753639 49.7721042,72.5438127" id="Fill-55" fill="#000000"></path>
                <path d="M46.6497687,53.1913872 C46.3337841,53.8034799 45.580008,54.0450552 44.9674056,53.7300899 C44.3553128,53.4141053 44.1137375,52.6593099 44.4292125,52.0467075 C46.7516992,47.5429077 47.629321,43.2016871 48.4508809,39.1275245 C49.5338926,33.7624118 50.5307731,28.8284653 54.4500013,24.3236462 C54.9000245,23.8022716 55.6894764,23.7457002 56.2103413,24.1962331 C56.7312062,24.6467659 56.7882873,25.4351985 56.3372448,25.9570827 C52.8461247,29.971616 51.9124412,34.5916166 50.8982326,39.6167909 C50.0409969,43.8621968 49.1276995,48.3853634 46.6497687,53.1913872" id="Fill-57" fill="#000000"></path>
                <path d="M51.1458218,39.926252 C50.5683854,40.3018659 49.7942232,40.1372481 49.4186092,39.5603214 C49.0429953,38.9818658 49.207613,38.2071938 49.7860687,37.8315799 C51.0357368,37.0191937 52.018347,36.4356415 52.8694668,35.9310855 C54.6486639,34.8771239 55.8341158,34.1717648 57.1964171,32.7080426 C57.6658071,32.2014479 58.4578072,32.1744364 58.9628729,32.6438264 C59.467429,33.113726 59.4959695,33.9052165 59.0260698,34.4107918 C57.4191353,36.1405527 56.1083089,36.9182825 54.1410499,38.0833483 C53.2848336,38.5924912 52.2930497,39.1811399 51.1458218,39.926252" id="Fill-59" fill="#000000"></path>
                <path d="M29.6943412,72.3079455 C29.8564107,72.9771193 29.4435921,73.6534283 28.7739086,73.8149881 C28.1052445,73.9755287 27.4284259,73.5642391 27.266866,72.8945556 C24.9010587,63.1556046 28.072117,57.5973336 31.4872989,51.6150318 C34.2113919,46.8385679 37.1051992,41.7680344 37.1051992,33.8903346 C37.1051992,33.1987361 37.6653074,32.6381183 38.3574156,32.6381183 C39.0490141,32.6381183 39.6106513,33.1987361 39.6106513,33.8903346 C39.6106513,42.4193704 36.5461104,47.7875409 33.6594382,52.8473717 C30.4980633,58.3867855 27.5629741,63.5327475 29.6943412,72.3079455" id="Fill-61" fill="#000000"></path>
                <path d="M32.4757191,54.6272314 C32.361557,55.3076175 31.7137885,55.7647759 31.032383,55.6495944 C30.3525065,55.5339033 29.8958578,54.8866445 30.0115489,54.2062583 C30.8004911,49.5872771 30.9508386,46.3463964 30.394298,43.6508439 C29.8499891,41.010334 28.5942051,38.8127121 26.574452,36.2542562 C26.1478728,35.7135148 26.2401199,34.9276305 26.779842,34.5025803 C27.3200737,34.0760011 28.1054483,34.1682482 28.5315179,34.7079703 C30.793356,37.5711984 32.2056033,40.070025 32.8421593,43.1529134 C33.467503,46.1807593 33.3181748,49.6994006 32.4757191,54.6272314" id="Fill-63" fill="#000000"></path>
                <path d="M27.5816784,27.0484527 C27.1882266,27.6121285 26.4084582,27.750754 25.8437631,27.3573022 C25.2800874,26.9638504 25.1414619,26.1835723 25.5349137,25.6188773 C27.6173541,22.6445449 29.8674702,20.2104442 32.5472234,18.5051467 C35.2748839,16.76927 38.4087376,15.8014398 42.2020817,15.8014398 C42.8936802,15.8014398 43.4537884,16.3630769 43.4537884,17.0536561 C43.4537884,17.7452547 42.8936802,18.3068918 42.2020817,18.3068918 C38.9071778,18.3068918 36.2106061,19.1315097 33.8881193,20.6095021 C31.5161962,22.1201124 29.4857404,24.326908 27.5816784,27.0484527" id="Fill-65" fill="#000000"></path>
                <path d="M11.0439111,64.8562643 C10.3798338,65.0366813 9.69333181,64.6442488 9.5129148,63.9796618 C9.33198814,63.3150749 9.72340131,62.6285729 10.3879883,62.4486655 C12.8200503,61.7850979 14.9432629,59.7103022 16.3580585,57.1003714 C17.8385992,54.3722012 18.521024,51.0956448 17.9721282,48.2441387 C17.8426764,47.5647718 18.2881128,46.9098683 18.96697,46.7809262 C19.6448079,46.6519841 20.2997115,47.0969108 20.4301825,47.7747487 C21.0891633,51.2067491 20.2981825,55.0933596 18.5607769,58.2955067 C16.8452863,61.4599395 14.1798034,64.0005576 11.0439111,64.8562643" id="Fill-67" fill="#000000"></path>
                <path d="M23.4370817,103.157929 C23.9778231,103.586037 24.0680316,104.37447 23.6383945,104.914192 C23.209267,105.454424 22.4223635,105.544632 21.8816221,105.115505 C17.7916602,101.872585 15.917158,98.6597355 15.2663317,94.8760748 C14.6364011,91.2101439 15.1959997,87.1313944 15.9747488,81.9594401 C16.0766793,81.2765056 16.7147643,80.8060963 17.3976988,80.9085365 C18.0826718,81.010467 18.5515522,81.648552 18.4496217,82.3330154 C17.7045096,87.2812322 17.1673358,91.1729393 17.7320309,94.4551018 C18.2763398,97.6205539 19.8909191,100.345157 23.4370817,103.157929" id="Fill-69" fill="#000000"></path>
                <path d="M40.7608862,81.7283126 C40.6997278,81.0428299 41.2058128,80.4343048 41.8912956,80.3736561 C42.5767783,80.3124978 43.1853034,80.8185828 43.2459521,81.5040655 C43.4610255,83.8938264 44.1036974,86.2152939 45.08274,88.4078192 C47.3919758,93.5818121 51.5752041,98.0402528 56.5132278,101.086956 C61.437491,104.124485 67.0966731,105.749258 72.3761641,105.270694 C74.3480099,105.092315 76.2729677,104.615281 78.0842729,103.807481 C78.7131842,103.527682 79.4531997,103.80952 79.732999,104.439451 C80.0143272,105.067852 79.73147,105.808377 79.1025588,106.088177 C77.0369369,107.009628 74.8459405,107.552408 72.6004112,107.756269 C66.7694762,108.282741 60.5654754,106.518833 55.2034207,103.211697 C49.8571652,99.9137357 45.3181994,95.0669397 42.8020447,89.4261051 C41.7159751,86.9930237 41.0024615,84.4060272 40.7608862,81.7283126" id="Fill-71" fill="#000000"></path>
                <path d="M58.6271138,104.507846 C58.4823725,103.831537 58.9104806,103.163892 59.5862799,103.01966 C60.2610599,102.87339 60.9287048,103.302518 61.0744654,103.978827 C61.9857242,108.126379 63.7501414,111.76275 66.0338946,114.685098 C68.43181,117.751678 71.3990072,120.033392 74.5456022,121.288666 C75.1847065,121.541964 75.4986525,122.268728 75.2458648,122.908342 C74.9915482,123.547447 74.2652933,123.860883 73.626189,123.607076 C70.0713623,122.188203 66.7377248,119.636882 64.0681647,116.221701 C61.5560871,113.00987 59.6188977,109.028974 58.6271138,104.507846" id="Fill-73" fill="#000000"></path>
                <path d="M31.3820047,93.8652809 C31.2066842,93.197636 31.6057422,92.5147016 32.2733871,92.3383618 C32.939503,92.1630413 33.6239664,92.5620993 33.7987772,93.2292345 C35.1753488,98.4592892 37.8189167,100.813374 41.5108399,104.100633 L42.304369,104.814147 C42.8175891,105.272834 42.8619289,106.062796 42.4032416,106.575506 C41.9435349,107.088727 41.1545928,107.132557 40.640863,106.673869 L39.8498822,105.967491 C35.8282137,102.392788 32.951225,99.8317835 31.3820047,93.8652809" id="Fill-75" fill="#000000"></path>
                <path d="M74.1341597,60.8919317 C73.9017581,61.5407195 73.1872252,61.8775998 72.5389471,61.6467272 C71.8901594,61.4148353 71.5532791,60.6992831 71.785171,60.0504953 C73.857928,54.2633904 77.1941137,50.1117605 81.378871,47.3479146 C85.9611573,44.3221073 91.5291116,42.9776438 97.5501471,42.9776438 C98.2417456,42.9776438 98.8023635,43.5387713 98.8023635,44.2303699 C98.8023635,44.9219684 98.2417456,45.4825862 97.5501471,45.4825862 C91.9969727,45.4825862 86.8984083,46.697598 82.7579909,49.4323937 C79.0094962,51.9087955 76.0107005,55.6527033 74.1341597,60.8919317" id="Fill-77" fill="#000000"></path>
                <path d="M82.0172108,49.4665913 C81.9310796,50.1500354 81.3067552,50.6336957 80.6233111,50.5475645 C79.939867,50.4614332 79.4562067,49.8371088 79.542338,49.1536647 C79.8078669,47.0508382 80.372562,44.9011236 81.3021683,42.8135867 C82.1522688,40.9034088 83.3051029,39.0447059 84.8080683,37.3159644 C85.2580915,36.7945898 86.0475434,36.7380184 86.5678987,37.1880416 C87.0897829,37.6395938 87.1463543,38.428536 86.6948021,38.9494009 C85.3569641,40.4910999 84.3315432,42.139826 83.5828635,43.8262663 C82.7556974,45.6890465 82.2541993,47.5992243 82.0172108,49.4665913" id="Fill-79" fill="#000000"></path>
            </g>
        </g>
    </g>
</svg>