<?xml version="1.0" encoding="UTF-8"?>
<svg width="160px" height="205px" viewBox="0 0 160 205" version="1.1" xmlns="http://www.w3.org/2000/svg" xmlns:xlink="http://www.w3.org/1999/xlink">
    <title>Group 162</title>
    <defs>
        <polygon id="path-1" points="0 0 51.4504926 0 51.4504926 49.2537931 0 49.2537931"></polygon>
    </defs>
    <g id="Illustraties" stroke="none" stroke-width="1" fill="none" fill-rule="evenodd">
        <g transform="translate(-1181, -1268)" id="Group-162">
            <g transform="translate(1181, 1268)">
                <path d="M74.5459135,41.6351721 C79.6933028,38.8148934 85.0762794,37.1526715 90.5916415,40.0431611 C86.5807382,37.7236638 80.7282792,33.5499219 76.6277089,33.0402585 C72.4049041,32.5166375 68.4718249,34.0595854 64.8593473,36.0419859 C52.3410826,43.6374516 43.3291331,58.947234 42.2302903,73.5003459 L51.921086,79.0935322 C53.0152764,64.5408432 62.0272258,49.2323297 74.5459135,41.6351721" id="Fill-1" fill="#000000"></path>
                <path d="M82.6618281,40.2295584 C80.190912,40.6004919 77.7216878,41.6608456 75.2905297,42.9931609 C69.3281018,46.6225567 64.1760599,52.0952002 60.3652154,58.4069907 C56.4811993,64.8350945 53.9967486,72.1251851 53.4655143,79.2109874 C53.4443665,79.4355777 53.3788081,79.659745 53.2582653,79.8686859 C52.8293867,80.6075921 51.8815395,80.8639042 51.1430562,80.4350256 L41.5300846,74.884558 C40.9941978,74.6083669 40.6431433,74.0284926 40.6905145,73.3872895 C41.2568542,65.8133946 43.8969532,58.048323 48.0233238,51.2175639 C52.0634111,44.523843 57.5572024,38.6971844 63.9425875,34.7920204 L64.116423,34.6837434 C65.9981596,33.648767 67.9881733,32.7241826 70.0864641,32.1185078 C72.2443918,31.4908393 74.4894487,31.2133794 76.8119068,31.4984526 C80.3465603,31.9412888 84.7816897,34.6744383 88.545163,36.9973193 C89.5492634,37.6199124 90.5136059,38.2133213 91.3180705,38.6806891 C92.0624752,39.0786918 92.351355,40.0036992 91.9588507,40.757409 C91.5650775,41.5098499 90.6294961,41.8046511 89.8728257,41.4108779 C87.4458972,40.1381996 85.0363099,39.8691988 82.6618281,40.2295584 L82.6618281,40.2295584 Z M73.8008744,40.2811592 C76.5145679,38.7889661 79.3179283,37.6029941 82.1995358,37.1665022 L82.6876285,37.0962913 C80.4243844,35.834187 78.1962458,34.7949811 76.4413963,34.5801188 C74.5503546,34.341571 72.7113366,34.5708138 70.947182,35.0851298 C69.1204298,35.6129804 67.3304749,36.4521275 65.6043865,37.3999746 L65.5599759,37.4215454 C59.617427,41.0551709 54.4818805,46.5142797 50.6744196,52.818457 C46.9676226,58.9564122 44.5364645,65.8730315 43.8618477,72.6564194 L50.6270484,76.5632752 C51.5228718,69.7676216 54.022549,62.9152917 57.7128507,56.8060977 C61.7800073,50.0743106 67.309327,44.2218516 73.7463129,40.3149958 L73.8008744,40.2811592 Z" id="Fill-3" fill="#000000"></path>
                <path d="M74.5459135,41.6351721 C79.6933028,38.8148934 85.0762794,37.1526715 90.5916415,40.0431611 C86.5807382,37.7236638 80.7282792,33.5499219 76.6277089,33.0402585 C72.4049041,32.5166375 68.4718249,34.0595854 64.8593473,36.0419859 C52.3410826,43.6374516 43.3291331,58.947234 42.2302903,73.5003459 L51.921086,79.0935322 C53.0152764,64.5408432 62.0272258,49.2323297 74.5459135,41.6351721" id="Fill-5" fill="#000000"></path>
                <path d="M82.6618281,40.2295584 C80.190912,40.6004919 77.7216878,41.6608456 75.2905297,42.9931609 C69.3281018,46.6225567 64.1760599,52.0952002 60.3652154,58.4069907 C56.4811993,64.8350945 53.9967486,72.1251851 53.4655143,79.2109874 C53.4443665,79.4355777 53.3788081,79.659745 53.2582653,79.8686859 C52.8293867,80.6075921 51.8815395,80.8639042 51.1430562,80.4350256 L41.5300846,74.884558 C40.9941978,74.6083669 40.6431433,74.0284926 40.6905145,73.3872895 C41.2568542,65.8133946 43.8969532,58.048323 48.0233238,51.2175639 C52.0634111,44.523843 57.5572024,38.6971844 63.9425875,34.7920204 L64.116423,34.6837434 C65.9981596,33.648767 67.9881733,32.7241826 70.0864641,32.1185078 C72.2443918,31.4908393 74.4894487,31.2133794 76.8119068,31.4984526 C80.3465603,31.9412888 84.7816897,34.6744383 88.545163,36.9973193 C89.5492634,37.6199124 90.5136059,38.2133213 91.3180705,38.6806891 C92.0624752,39.0786918 92.351355,40.0036992 91.9588507,40.757409 C91.5650775,41.5098499 90.6294961,41.8046511 89.8728257,41.4108779 C87.4458972,40.1381996 85.0363099,39.8691988 82.6618281,40.2295584 L82.6618281,40.2295584 Z M73.8008744,40.2811592 C76.5145679,38.7889661 79.3179283,37.6029941 82.1995358,37.1665022 L82.6876285,37.0962913 C80.4243844,35.834187 78.1962458,34.7949811 76.4413963,34.5801188 C74.5503546,34.341571 72.7113366,34.5708138 70.947182,35.0851298 C69.1204298,35.6129804 67.3304749,36.4521275 65.6043865,37.3999746 L65.5599759,37.4215454 C59.617427,41.0551709 54.4818805,46.5142797 50.6744196,52.818457 C46.9676226,58.9564122 44.5364645,65.8730315 43.8618477,72.6564194 L50.6270484,76.5632752 C51.5228718,69.7676216 54.022549,62.9152917 57.7128507,56.8060977 C61.7800073,50.0743106 67.309327,44.2218516 73.7463129,40.3149958 L73.8008744,40.2811592 Z" id="Fill-7" fill="#000000"></path>
                <path d="M74.5503969,41.6305619 L74.5410918,41.6398669 L64.8549486,36.0466807 L64.8642536,36.0373756 L74.5503969,41.6305619 Z M83.9772673,8.03929967 C81.0305244,6.33901165 74.4590381,1.95294531 71.7728368,1.61880911 C58.622251,-0.0154975821 44.3076869,28.3974994 55.4204649,35.1292865 L65.1070311,40.7224727 C52.9237484,32.9958903 71.2234154,1.35615267 83.9772673,8.03929967 L83.9772673,8.03929967 Z" id="Fill-9" fill="#7BCCEC"></path>
                <path d="M77.4882577,5.9331842 C75.1256187,4.54884523 72.7815898,3.30239031 71.5820831,3.15562416 C67.9484577,2.70559768 64.1025077,5.01621296 60.8584258,8.56736175 C58.3887786,11.2713272 56.2904879,14.674864 54.8803485,18.1574937 C53.4871274,21.5974048 52.7681002,25.0796115 53.036678,28.0039377 C53.2659208,30.521802 54.2531029,32.6065582 56.2037816,33.7971827 L59.9884028,35.9855634 C59.2710674,33.1864325 59.4694343,29.9068222 60.3529919,26.5510797 C61.0914752,23.7472963 62.3125527,20.8707643 63.8571925,18.1972517 C65.4014093,15.5233162 67.2831459,13.0312522 69.3463313,10.9938673 C71.859966,8.50603296 74.6540214,6.67632003 77.4882577,5.9331842 M82.4144404,5.29663359 L84.7039078,6.67632003 C85.4516962,7.07474573 85.7367693,8.00398274 85.3476487,8.75346293 C84.949646,9.51055635 84.0153335,9.80493457 83.2628926,9.4111614 C79.620385,7.49897182 75.2647716,9.48898553 71.513564,13.2004351 C69.6529752,15.0394531 67.9438051,17.3056579 66.5290132,19.746121 C65.1235264,22.1848923 64.0124178,24.7991909 63.3458372,27.3369342 C62.4851193,30.6165445 62.3645765,33.7620773 63.3107318,36.1716646 C63.2633606,35.5871377 63.5530862,34.9996501 64.1025077,34.6959668 L64.1164653,34.6883536 C64.574105,34.4362711 65.1497497,34.4240053 65.6348817,34.7006194 L75.2677323,40.259969 C75.5240444,40.3974301 75.7486347,40.6051021 75.9042829,40.882562 C76.3145514,41.6256979 76.0476654,42.5688925 75.3028377,42.9812758 L75.290572,42.988889 C74.8312405,43.2405485 74.2560186,43.2574668 73.7721556,42.9766232 L64.1376131,37.4168506 C64.0124178,37.3525611 63.8952586,37.2658549 63.7912112,37.1664599 C64.3101797,38.065667 65.0199019,38.82699 65.9372961,39.4115168 C66.6301,39.8573137 66.8589199,40.7696325 66.4482284,41.4886597 C66.0240023,42.227143 65.0765781,42.4834551 64.336403,42.059229 C61.1130461,40.2083682 57.8042517,38.3600452 54.6206528,36.4478556 C51.7259336,34.6959668 50.2823806,31.7627585 49.961779,28.2801288 C49.64583,24.8461391 50.4456421,20.8568067 52.008469,16.9943614 C53.5526858,13.182248 55.8569567,9.45388008 58.5706502,6.48556633 C62.4500138,2.23400038 67.2175876,-0.508454219 71.9593609,0.079033356 C74.3858665,0.378064109 79.0328974,3.22414323 82.4144404,5.29663359" id="Fill-11" fill="#000000"></path>
                <path d="M74.5503969,41.6305619 L74.5410918,41.6398669 L64.8549486,36.0466807 L64.8642536,36.0373756 L74.5503969,41.6305619 Z M83.9772673,8.03929967 C81.0305244,6.33901165 74.4590381,1.95294531 71.7728368,1.61880911 C58.622251,-0.0154975821 44.3076869,28.3974994 55.4204649,35.1292865 L65.1070311,40.7224727 C52.9237484,32.9958903 71.2234154,1.35615267 83.9772673,8.03929967 L83.9772673,8.03929967 Z" id="Fill-13" fill="#DD784B"></path>
                <path d="M77.4882577,5.9331842 C75.1256187,4.54884523 72.7815898,3.30239031 71.5820831,3.15562416 C67.9484577,2.70559768 64.1025077,5.01621296 60.8584258,8.56736175 C58.3887786,11.2713272 56.2904879,14.674864 54.8803485,18.1574937 C53.4871274,21.5974048 52.7681002,25.0796115 53.036678,28.0039377 C53.2659208,30.521802 54.2531029,32.6065582 56.2037816,33.7971827 L59.9884028,35.9855634 C59.2710674,33.1864325 59.4694343,29.9068222 60.3529919,26.5510797 C61.0914752,23.7472963 62.3125527,20.8707643 63.8571925,18.1972517 C65.4014093,15.5233162 67.2831459,13.0312522 69.3463313,10.9938673 C71.859966,8.50603296 74.6540214,6.67632003 77.4882577,5.9331842 M82.4144404,5.29663359 L84.7039078,6.67632003 C85.4516962,7.07474573 85.7367693,8.00398274 85.3476487,8.75346293 C84.949646,9.51055635 84.0153335,9.80493457 83.2628926,9.4111614 C79.620385,7.49897182 75.2647716,9.48898553 71.513564,13.2004351 C69.6529752,15.0394531 67.9438051,17.3056579 66.5290132,19.746121 C65.1235264,22.1848923 64.0124178,24.7991909 63.3458372,27.3369342 C62.4851193,30.6165445 62.3645765,33.7620773 63.3107318,36.1716646 C63.2633606,35.5871377 63.5530862,34.9996501 64.1025077,34.6959668 L64.1164653,34.6883536 C64.574105,34.4362711 65.1497497,34.4240053 65.6348817,34.7006194 L75.2677323,40.259969 C75.5240444,40.3974301 75.7486347,40.6051021 75.9042829,40.882562 C76.3145514,41.6256979 76.0476654,42.5688925 75.3028377,42.9812758 L75.290572,42.988889 C74.8312405,43.2405485 74.2560186,43.2574668 73.7721556,42.9766232 L64.1376131,37.4168506 C64.0124178,37.3525611 63.8952586,37.2658549 63.7912112,37.1664599 C64.3101797,38.065667 65.0199019,38.82699 65.9372961,39.4115168 C66.6301,39.8573137 66.8589199,40.7696325 66.4482284,41.4886597 C66.0240023,42.227143 65.0765781,42.4834551 64.336403,42.059229 C61.1130461,40.2083682 57.8042517,38.3600452 54.6206528,36.4478556 C51.7259336,34.6959668 50.2823806,31.7627585 49.961779,28.2801288 C49.64583,24.8461391 50.4456421,20.8568067 52.008469,16.9943614 C53.5526858,13.182248 55.8569567,9.45388008 58.5706502,6.48556633 C62.4500138,2.23400038 67.2175876,-0.508454219 71.9593609,0.079033356 C74.3858665,0.378064109 79.0328974,3.22414323 82.4144404,5.29663359" id="Fill-15" fill="#000000"></path>
                <path d="M90.5914723,40.0433303 C86.3212962,37.5770668 80.5847275,38.148059 74.5410918,41.6395709 C68.281325,45.256701 62.6145442,51.4585227 58.5093214,58.5629351 C54.7458481,65.0823976 52.3011554,72.3589536 51.9213398,79.0937013 L97.1798769,52.9650963 C96.802599,46.6668404 94.3549456,42.2147927 90.5914723,40.0433303" id="Fill-17" fill="#000000"></path>
                <path d="M83.0814016,37.0674456 C86.1258477,36.7637624 88.9431657,37.3038787 91.3650187,38.7021753 C93.5369041,39.9566664 95.3192458,41.8642034 96.5906552,44.3562674 C97.7808568,46.692683 98.5239926,49.5510279 98.7240514,52.8733569 C98.7549272,53.4413884 98.4723918,54.0026526 97.9487708,54.3021063 L52.7680579,80.3875698 C52.5011719,80.5601363 52.1759178,80.6595313 51.8341683,80.6379604 C50.9827554,80.5952418 50.3297095,79.8643717 50.3770807,79.011267 C50.5707951,75.5637427 51.2847469,71.981718 52.4186952,68.4381825 C53.5860571,64.7999045 55.208521,61.1925024 57.1727343,57.7889656 C59.3183963,54.0728635 61.8929369,50.5813517 64.7512817,47.5610142 C67.5212286,44.637111 70.5656746,42.1446241 73.7674608,40.2984158 C76.9861652,38.4424796 80.1435408,37.360555 83.0814016,37.0674456 M89.8161494,41.3803404 C87.9695182,40.3119505 85.7811376,39.9092952 83.383816,40.1423446 C80.8794864,40.3931582 78.1412613,41.3405824 75.316753,42.9719284 C72.3742397,44.676446 69.5628431,46.9824087 66.992955,49.6944104 C64.3059078,52.5316074 61.8789793,55.8205228 59.8508994,59.3365661 C57.9907336,62.550618 56.4630121,65.9596532 55.3641693,69.3860296 C54.6286467,71.6826873 54.0838778,73.98865 53.7603155,76.2518941 L95.5620232,52.1166864 C95.3192458,49.6428096 94.7224531,47.513643 93.8266297,45.7617542 C92.8318344,43.8114985 91.4644137,42.3311482 89.8161494,41.3803404" id="Fill-19" fill="#000000"></path>
                <path d="M90.5914723,40.0433303 C86.3212962,37.5770668 80.5847275,38.148059 74.5410918,41.6395709 C68.281325,45.256701 62.6145442,51.4585227 58.5093214,58.5629351 C54.7458481,65.0823976 52.3011554,72.3589536 51.9213398,79.0937013 L97.1798769,52.9650963 C96.802599,46.6668404 94.3549456,42.2147927 90.5914723,40.0433303" id="Fill-21" fill="#DD784B"></path>
                <path d="M83.0814016,37.0674456 C86.1258477,36.7637624 88.9431657,37.3038787 91.3650187,38.7021753 C93.5369041,39.9566664 95.3192458,41.8642034 96.5906552,44.3562674 C97.7808568,46.692683 98.5239926,49.5510279 98.7240514,52.8733569 C98.7549272,53.4413884 98.4723918,54.0026526 97.9487708,54.3021063 L52.7680579,80.3875698 C52.5011719,80.5601363 52.1759178,80.6595313 51.8341683,80.6379604 C50.9827554,80.5952418 50.3297095,79.8643717 50.3770807,79.011267 C50.5707951,75.5637427 51.2847469,71.981718 52.4186952,68.4381825 C53.5860571,64.7999045 55.208521,61.1925024 57.1727343,57.7889656 C59.3183963,54.0728635 61.8929369,50.5813517 64.7512817,47.5610142 C67.5212286,44.637111 70.5656746,42.1446241 73.7674608,40.2984158 C76.9861652,38.4424796 80.1435408,37.360555 83.0814016,37.0674456 M89.8161494,41.3803404 C87.9695182,40.3119505 85.7811376,39.9092952 83.383816,40.1423446 C80.8794864,40.3931582 78.1412613,41.3405824 75.316753,42.9719284 C72.3742397,44.676446 69.5628431,46.9824087 66.992955,49.6944104 C64.3059078,52.5316074 61.8789793,55.8205228 59.8508994,59.3365661 C57.9907336,62.550618 56.4630121,65.9596532 55.3641693,69.3860296 C54.6286467,71.6826873 54.0838778,73.98865 53.7603155,76.2518941 L95.5620232,52.1166864 C95.3192458,49.6428096 94.7224531,47.513643 93.8266297,45.7617542 C92.8318344,43.8114985 91.4644137,42.3311482 89.8161494,41.3803404" id="Fill-23" fill="#000000"></path>
                <path d="M74.5413033,39.788414 L74.5548379,39.779109 C78.231605,37.6503653 81.562816,34.0044741 83.9770558,29.8290404 L83.9804395,29.8290404 C86.3900268,25.6459935 87.8826428,20.935096 87.8826428,16.6784546 C87.8826428,12.4222361 86.3900268,9.43235156 83.9770558,8.03913048 C81.562816,6.64590941 78.2239918,6.85019775 74.5413033,8.97302002 C70.8556541,11.1021867 67.5210594,14.7523074 65.1068196,18.9328166 C62.6925798,23.1158635 61.1953112,27.8314135 61.1953112,32.0834024 C61.1953112,36.3366602 62.6925798,39.3248529 65.1068196,40.7223036 C67.5210594,42.1159476 70.8556541,41.9112363 74.5413033,39.788414" id="Fill-25" fill="#FFFFFF"></path>
                <path d="M73.7752432,38.442395 C75.4493078,37.4734 77.0548534,36.158003 78.5258986,34.60575 L78.5990702,34.5313096 C80.1086045,32.9270329 81.4802548,31.0575619 82.6357739,29.05063 L82.704293,28.9423529 C83.8428938,26.9569917 84.760288,24.8417827 85.3917631,22.7172686 C85.996169,20.6752311 86.3307282,18.6243116 86.3307282,16.6787084 C86.3307282,14.8134671 86.0223924,13.2476794 85.4607052,12.0054541 C84.9201658,10.8122918 84.1453082,9.92112092 83.2063432,9.3805816 C82.2542665,8.83116017 81.0957867,8.60530102 79.797308,8.73218818 C78.4391924,8.86626562 76.920353,9.38523413 75.3118467,10.3148941 C73.6424346,11.274584 72.036889,12.5946335 70.5582306,14.151539 C69.0093612,15.7917671 67.6110647,17.6828088 66.4483553,19.7015836 C65.2793015,21.7271257 64.3361069,23.8850535 63.6919431,26.0489026 C63.0862684,28.0955926 62.7491715,30.1405907 62.7491715,32.0874628 C62.7491715,33.9480516 63.060468,35.5138392 63.6187715,36.7543727 C64.1588879,37.9449973 64.9328996,38.8361681 65.8807467,39.380937 L65.9509576,39.4236557 C66.8848471,39.9396635 68.0187954,40.1515651 69.2897819,40.0251009 C70.6483205,39.8922923 72.1620843,39.3762845 73.7752432,38.442395 L73.7752432,38.442395 Z M75.3029646,41.1285963 L75.2936596,41.1374784 C73.2960326,42.2836924 71.3669248,42.9291251 69.5921963,43.1016917 C67.6723935,43.2924454 65.9200817,42.9460434 64.4325412,42.1111259 L64.3314544,42.0595251 C62.8223431,41.1895021 61.6105706,39.8220814 60.7984928,38.0274739 C60.0583176,36.3914754 59.6480491,34.3938485 59.6480491,32.0874628 C59.6480491,29.8597471 60.0325173,27.5110657 60.7236293,25.17465 C61.4337745,22.7904402 62.4759411,20.4036926 63.7697672,18.1620193 C65.0593638,15.9262675 66.6040035,13.8322063 68.3161344,12.0240642 C69.9825858,10.2628704 71.829217,8.75798857 73.7722825,7.63630603 C75.7745619,6.48247874 77.7125519,5.8323935 79.4948936,5.65559738 C81.4544544,5.46442072 83.2414487,5.8294328 84.750983,6.70241649 C86.2647468,7.57666906 87.4765193,8.93943722 88.2852135,10.7344676 C89.0258116,12.3704662 89.4318505,14.3680931 89.4318505,16.6787084 C89.4318505,18.9110766 89.0516119,21.259758 88.3541555,23.5919441 C87.6537383,25.9664259 86.6158013,28.3409077 85.3355098,30.5690464 L85.3126701,30.6041518 C84.0552183,32.7836504 82.5368019,34.843875 80.8487797,36.643135 L80.766303,36.7378774 C79.0968909,38.4990712 77.2578729,40.0035301 75.328765,41.1163305 L75.3029646,41.1285963 Z" id="Fill-27" fill="#000000"></path>
                <path d="M74.5413033,39.788414 L74.5548379,39.779109 C78.231605,37.6503653 81.562816,34.0044741 83.9770558,29.8290404 L83.9804395,29.8290404 C86.3900268,25.6459935 87.8826428,20.935096 87.8826428,16.6784546 C87.8826428,12.4222361 86.3900268,9.43235156 83.9770558,8.03913048 C81.562816,6.64590941 78.2239918,6.85019775 74.5413033,8.97302002 C70.8556541,11.1021867 67.5210594,14.7523074 65.1068196,18.9328166 C62.6925798,23.1158635 61.1953112,27.8314135 61.1953112,32.0834024 C61.1953112,36.3366602 62.6925798,39.3248529 65.1068196,40.7223036 C67.5210594,42.1159476 70.8556541,41.9112363 74.5413033,39.788414" id="Fill-29" fill="#DD784B"></path>
                <path d="M73.7752432,38.442395 C75.4493078,37.4734 77.0548534,36.158003 78.5258986,34.60575 L78.5990702,34.5313096 C80.1086045,32.9270329 81.4802548,31.0575619 82.6357739,29.05063 L82.704293,28.9423529 C83.8428938,26.9569917 84.760288,24.8417827 85.3917631,22.7172686 C85.996169,20.6752311 86.3307282,18.6243116 86.3307282,16.6787084 C86.3307282,14.8134671 86.0223924,13.2476794 85.4607052,12.0054541 C84.9201658,10.8122918 84.1453082,9.92112092 83.2063432,9.3805816 C82.2542665,8.83116017 81.0957867,8.60530102 79.797308,8.73218818 C78.4391924,8.86626562 76.920353,9.38523413 75.3118467,10.3148941 C73.6424346,11.274584 72.036889,12.5946335 70.5582306,14.151539 C69.0093612,15.7917671 67.6110647,17.6828088 66.4483553,19.7015836 C65.2793015,21.7271257 64.3361069,23.8850535 63.6919431,26.0489026 C63.0862684,28.0955926 62.7491715,30.1405907 62.7491715,32.0874628 C62.7491715,33.9480516 63.060468,35.5138392 63.6187715,36.7543727 C64.1588879,37.9449973 64.9328996,38.8361681 65.8807467,39.380937 L65.9509576,39.4236557 C66.8848471,39.9396635 68.0187954,40.1515651 69.2897819,40.0251009 C70.6483205,39.8922923 72.1620843,39.3762845 73.7752432,38.442395 L73.7752432,38.442395 Z M75.3029646,41.1285963 L75.2936596,41.1374784 C73.2960326,42.2836924 71.3669248,42.9291251 69.5921963,43.1016917 C67.6723935,43.2924454 65.9200817,42.9460434 64.4325412,42.1111259 L64.3314544,42.0595251 C62.8223431,41.1895021 61.6105706,39.8220814 60.7984928,38.0274739 C60.0583176,36.3914754 59.6480491,34.3938485 59.6480491,32.0874628 C59.6480491,29.8597471 60.0325173,27.5110657 60.7236293,25.17465 C61.4337745,22.7904402 62.4759411,20.4036926 63.7697672,18.1620193 C65.0593638,15.9262675 66.6040035,13.8322063 68.3161344,12.0240642 C69.9825858,10.2628704 71.829217,8.75798857 73.7722825,7.63630603 C75.7745619,6.48247874 77.7125519,5.8323935 79.4948936,5.65559738 C81.4544544,5.46442072 83.2414487,5.8294328 84.750983,6.70241649 C86.2647468,7.57666906 87.4765193,8.93943722 88.2852135,10.7344676 C89.0258116,12.3704662 89.4318505,14.3680931 89.4318505,16.6787084 C89.4318505,18.9110766 89.0516119,21.259758 88.3541555,23.5919441 C87.6537383,25.9664259 86.6158013,28.3409077 85.3355098,30.5690464 L85.3126701,30.6041518 C84.0552183,32.7836504 82.5368019,34.843875 80.8487797,36.643135 L80.766303,36.7378774 C79.0968909,38.4990712 77.2578729,40.0035301 75.328765,41.1163305 L75.3029646,41.1285963 Z" id="Fill-31" fill="#000000"></path>
                <path d="M33.8597555,165.28092 C39.0071448,162.460641 44.3901213,160.798842 49.9054834,163.689332 C45.8945801,161.369412 40.0421211,157.19567 35.9415509,156.684315 C31.7233985,156.160694 27.7856669,157.705333 24.1731893,159.687734 C11.6549245,167.2832 2.64297506,182.593405 1.54878474,197.146094 L11.234928,202.73928 C12.3291183,188.186591 21.3410677,172.876386 33.8597555,165.28092" id="Fill-33" fill="#000000"></path>
                <g id="Group-37" transform="translate(0, 155.0345)">
                    <mask id="mask-2" fill="white">
                        <use xlink:href="#path-1"></use>
                    </mask>
                    <g id="Clip-36"></g>
                    <path d="M41.9756277,8.84082308 C39.5047117,9.21640909 37.0354874,10.2725333 34.6089819,11.6048485 C28.6435933,15.2338214 23.4911285,20.7064649 19.679015,27.0229079 C15.7949989,33.4510117 13.3118171,40.7351809 12.779314,47.822675 C12.7623957,48.0468424 12.6926077,48.2710097 12.5720649,48.4833342 C12.1431863,49.2188568 11.197031,49.4739 10.4615084,49.0462903 L0.843461283,43.4911702 C0.303344916,43.2179398 -0.0430570447,42.6397573 0.00431416362,41.9985541 C0.571922749,34.4246593 3.21075283,26.6583188 7.33712344,19.8288286 C11.3784797,13.132147 16.8726939,7.30887204 23.2563872,3.40159326 L23.4302226,3.29500804 C25.3119593,2.26468426 27.301973,1.33375543 29.4002637,0.729772521 C31.5535389,0.105487668 33.8032484,-0.175355925 36.1273983,0.114369769 C39.6603599,0.550861618 44.0954893,3.28612594 47.8589626,5.60858402 C48.8672926,6.23117705 49.822753,6.82035645 50.6314472,7.29195375 C51.3809274,7.69037945 51.6664235,8.61496393 51.275611,9.36740482 C50.8788772,10.1211146 49.9432958,10.4142239 49.1912779,10.0204508 C46.7596968,8.74946432 44.3501095,8.48046353 41.9756277,8.84082308 L41.9756277,8.84082308 Z M33.1163658,8.89284682 C35.8330201,7.4002308 38.631728,6.21468172 41.5133355,5.77818987 L42.0014281,5.70797897 C39.738184,4.44587463 37.5117373,3.40624579 35.7551959,3.1896917 C33.8599246,2.95325861 32.0251362,3.186731 30.2609817,3.69639444 C28.4359213,4.22424505 26.6442745,5.06381513 24.9181861,6.01166225 L24.8754674,6.03281011 C18.9312267,9.66643557 13.7956802,15.1255444 9.99287181,21.4254921 C6.28142223,27.5676768 3.84984118,34.4842962 3.17564738,41.2676841 L9.94084807,45.1745399 C10.8366715,38.3771944 13.3380404,31.5248646 17.0279192,25.4220149 C21.0938069,18.6859982 26.6227037,12.8331163 33.0601125,8.92626044 L33.1163658,8.89284682 Z" id="Fill-35" fill="#000000" mask="url(#mask-2)"></path>
                </g>
                <path d="M33.8641965,165.276268 L33.8548914,165.285573 L24.17044,159.690695 L24.1780533,159.683081 L33.8641965,165.276268 Z M43.291067,131.685005 C40.3439011,129.98514 33.7741066,125.599074 31.0866365,125.260285 C17.9360507,123.630208 3.62106363,152.043628 14.7342645,158.773723 L24.4208307,164.368178 C12.2422006,156.641596 30.537215,125.00059 43.291067,131.685005 L43.291067,131.685005 Z" id="Fill-38" fill="#3D68EC"></path>
                <path d="M36.8020573,129.577452 C34.4394183,128.193536 32.0953894,126.947927 30.9005353,126.801584 C27.2669098,126.351134 23.4163073,128.661749 20.1718025,132.212898 C17.7025783,134.916018 15.6042875,138.316171 14.1941481,141.803453 C12.8009271,145.238712 12.0835916,148.725571 12.3504776,151.649474 C12.5809893,154.163109 13.5622501,156.247865 15.5095451,157.438067 L19.3034713,159.62687 C18.584867,156.827739 18.783234,153.552782 19.6667916,150.195347 C20.4052749,147.393256 21.6216998,144.515032 23.1709921,141.842788 C24.7152089,139.173505 26.5922931,136.681441 28.6512488,134.644056 C31.1737656,132.151992 33.967821,130.32228 36.8020573,129.577452 M41.72824,128.937941 C42.6164502,129.482709 43.4162623,129.971225 44.0646557,130.34808 C44.7743779,130.758771 45.0429558,131.6639 44.6567958,132.399422 C44.2647145,133.156093 43.3291331,133.449202 42.5766922,133.057121 C38.9337617,131.144931 34.5785712,133.134945 30.8273637,136.846395 C28.9625453,138.688373 27.2546441,140.95627 25.8445047,143.390389 C24.4343653,145.830429 23.3262174,148.443459 22.6596369,150.982894 C21.7989189,154.262504 21.6783761,157.407614 22.6291839,159.817201 C22.5860423,159.280045 22.8288197,158.735277 23.2957645,158.414675 C23.7720143,158.082231 24.4208307,158.034859 24.9575634,158.346156 L34.6424378,163.939342 C34.8729495,164.073843 35.0759689,164.272209 35.2176596,164.528522 C35.6067802,165.228939 35.391918,166.106575 34.7418327,166.551949 C34.2626222,166.884816 33.6138058,166.933456 33.0813027,166.62216 L23.3905069,161.027705 C23.291112,160.968068 23.19214,160.893204 23.1050108,160.812419 C23.6239793,161.711204 24.3337015,162.472949 25.2510957,163.057476 C25.9481292,163.50285 26.1820246,164.420244 25.762028,165.142232 C25.3331494,165.882408 24.3857253,166.132375 23.646819,165.705189 C20.9898018,164.160972 16.1795093,161.777185 13.9344524,160.093815 C11.0397332,158.341926 9.59618024,155.408718 9.27557867,151.926088 C8.95962963,148.492099 9.75901877,144.502766 11.3222686,140.640321 C12.8664854,136.827784 15.1724482,133.09984 17.8844499,130.131526 C21.7650823,125.879537 26.5360398,123.137505 31.2731606,123.72457 C33.6992432,124.024024 38.3509267,126.870103 41.72824,128.937941" id="Fill-40" fill="#000000"></path>
                <path d="M49.9053142,163.68929 C45.6351382,161.223026 39.8985694,161.793596 33.8549337,165.28553 C27.5964358,168.900969 21.9283861,175.104482 17.8231634,182.208472 C14.05969,188.728357 11.6149973,196.003221 11.2351818,202.739661 L56.4932959,176.610633 C56.116441,170.311108 53.6687876,165.860752 49.9053142,163.68929" id="Fill-42" fill="#3D68EC"></path>
                <path d="M42.3952013,160.711671 C45.4413392,160.413909 48.2569654,160.949796 50.6788184,162.34767 C52.8507037,163.602161 54.6330454,165.509698 55.9061466,168.006414 C57.0946564,170.336908 57.8394841,173.196945 58.0425035,176.519274 C58.0683039,177.08223 57.7874603,177.643917 57.2638393,177.947601 L12.0835493,204.033487 C11.8149715,204.210706 11.4897174,204.305448 11.147968,204.283878 C10.2965551,204.241159 9.64350915,203.510289 9.6904574,202.657184 C9.88586364,199.20966 10.5985465,195.627635 11.7371474,192.0841 C12.887591,188.48558 14.4931366,184.908208 16.4391628,181.524973 L16.486534,181.433191 C18.6321959,177.714128 21.2067365,174.231498 24.0667732,171.211584 C26.8350282,168.283028 29.8794743,165.795194 33.0812604,163.94391 C36.2999648,162.088397 39.4573405,161.006472 42.3952013,160.711671 M49.1316409,165.025835 C47.2833178,163.956176 45.0949372,163.554789 42.6976157,163.788262 C40.1886335,164.038652 37.455061,164.9865 34.6305527,166.617846 C31.6880393,168.322363 28.8766427,170.627057 26.3067546,173.340328 C23.6163238,176.177525 21.1927789,179.466017 19.1646991,182.982483 L19.1126753,183.060307 C17.2829624,186.248136 15.7734281,189.627141 14.6826214,193.031524 C13.9437152,195.328604 13.3976774,197.634567 13.0741151,199.897811 L54.8758229,175.757528 C54.6330454,173.292956 54.0362528,171.15956 53.1404294,169.407671 C52.145634,167.457416 50.7799052,165.976642 49.1316409,165.025835" id="Fill-44" fill="#000000"></path>
                <path d="M33.8551029,163.432893 L33.8686376,163.42528 C37.5454046,161.296113 40.8766157,157.648953 43.2908555,153.474788 L43.295508,153.474788 C45.7038264,149.291742 47.1964424,144.580844 47.1964424,140.324203 C47.1964424,136.066715 45.7038264,133.078523 43.2908555,131.684879 C40.8766157,130.291657 37.5377914,130.494677 33.8551029,132.619191 C30.1694537,134.747935 26.834859,138.398478 24.4206192,142.578565 C22.0063794,146.761611 20.5137634,151.475893 20.5137634,155.72915 C20.5137634,159.980716 22.0063794,162.970601 24.4206192,164.368052 C26.834859,165.760004 30.1694537,165.556984 33.8551029,163.432893" id="Fill-46" fill="#3D68EC"></path>
                <path d="M40.0800604,160.378973 C38.4148778,162.144819 36.5762828,163.645049 34.6425224,164.765039 L34.6302566,164.769692 C32.6309379,165.924788 30.6929479,166.570644 28.9076455,166.74744 C26.9861508,166.936925 25.2384916,166.591791 23.7462985,165.760258 L23.6469036,165.705273 C22.1361004,164.83525 20.9260198,163.467829 20.1122501,161.673222 C19.372075,160.037223 18.9618065,158.039596 18.9618065,155.728981 C18.9618065,153.500843 19.3462746,151.152161 20.0390785,148.820398 C20.7517614,146.424345 21.794351,144.040559 23.0839475,141.803115 C24.3777737,139.567363 25.9224134,137.473302 27.6303147,135.669812 C29.2705428,133.934419 31.086721,132.451108 32.9989106,131.334078 L33.0813873,131.282054 C35.0836668,130.126958 37.018696,129.478142 38.808651,129.301345 C40.7686347,129.105939 42.555629,129.473489 44.0647403,130.348165 C45.5785042,131.222417 46.7906996,132.585608 47.5993938,134.380216 C48.3395689,136.014522 48.7498374,138.013841 48.7498374,140.324456 C48.7498374,142.555556 48.3653693,144.901276 47.6725654,147.236 C46.9674957,149.612174 45.9299816,151.987079 44.6492672,154.215217 L44.6281193,154.248631 C43.3431753,156.472117 41.7985355,158.566178 40.0800604,160.378973 L40.0800604,160.378973 Z M33.0983056,162.08349 C34.7677177,161.119148 36.3732633,159.799099 37.839656,158.250229 C39.3842957,156.620152 40.7821693,154.724881 41.9495313,152.696378 L42.0184733,152.588101 C43.1566512,150.60274 44.0740454,148.482878 44.7059435,146.363017 C45.3116182,144.321402 45.6487151,142.265407 45.6487151,140.324456 C45.6487151,138.459638 45.3374186,136.89385 44.7744625,135.651625 C44.2343462,134.45804 43.4590656,133.566869 42.5205235,133.0221 C41.5697157,132.476908 40.409967,132.251472 39.1110654,132.380897 C37.7529498,132.510745 36.2387629,133.030982 34.6349091,133.960642 L34.54778,134.003361 C32.9041682,134.964743 31.324846,136.266182 29.8719879,137.797287 C28.3226956,139.437938 26.924822,141.331518 25.7621126,143.347755 C24.5900982,145.380487 23.6469036,147.539684 23.0061234,149.694651 C22.4000257,151.736688 22.0629288,153.786339 22.0629288,155.728981 C22.0629288,157.5938 22.3742253,159.159587 22.9371814,160.400121 C23.4730682,161.590745 24.2513095,162.481916 25.1991566,163.026685 L25.264715,163.069404 C26.1986045,163.585412 27.3325528,163.797313 28.6039622,163.670849 C29.9574253,163.536771 31.4711892,163.022033 33.0813873,162.092796 L33.0983056,162.08349 Z" id="Fill-48" fill="#000000"></path>
                <path d="M135.81943,106.417076 C140.962166,103.596797 146.345143,101.934998 151.860505,104.820835 C147.849602,102.505991 141.997143,98.3318258 137.899533,97.8204705 C133.67842,97.2972724 129.745341,98.8414892 126.128634,100.82389 C113.609946,108.419355 104.597997,123.729561 103.503806,138.28225 L113.190372,143.875436 C114.28414,129.322747 123.300742,114.012542 135.81943,106.417076" id="Fill-50" fill="#000000"></path>
                <path d="M143.930692,105.011631 C141.464428,105.382565 138.995204,106.442919 136.564046,107.775234 C130.598657,111.40463 125.444923,116.877273 121.634079,123.189064 C117.750063,129.617168 115.270265,136.902606 114.734378,143.99306 C114.717882,144.217651 114.652324,144.441818 114.531781,144.64949 C114.102903,145.389665 113.155056,145.641325 112.416572,145.212446 L102.803178,139.661979 C102.263061,139.388748 101.91243,138.810566 101.959378,138.16471 C102.526987,130.595468 105.170469,122.829127 109.29684,115.994984 C113.336927,109.301264 118.830718,103.479257 125.216104,99.5724016 L125.385286,99.4641246 C127.271676,98.4308401 129.257037,97.5045638 131.355328,96.9001579 C133.513255,96.2729124 135.758312,95.9954524 138.085423,96.2805256 C141.615424,96.72167 146.045901,99.4565113 149.814026,101.77474 C150.791904,102.380415 151.726216,102.955636 152.638535,103.48391 C153.348257,103.894601 153.616835,104.802691 153.231098,105.538213 C152.836902,106.291923 151.903012,106.585032 151.146342,106.191259 L151.085013,106.162498 C148.672465,104.91562 146.284026,104.651272 143.930692,105.011631 L143.930692,105.011631 Z M135.07143,105.063232 C137.788084,103.571039 140.586792,102.385067 143.47136,101.944346 L143.956492,101.878364 C141.693671,100.61626 139.469762,99.5770541 137.71026,99.3575393 C135.819641,99.123644 133.984853,99.3528868 132.216046,99.8625503 C130.393946,100.395053 128.603991,101.234201 126.877902,102.182048 L126.833492,102.203618 C120.890943,105.832591 115.751167,111.296353 111.947936,117.594609 C108.241139,123.733833 105.809981,130.654682 105.130711,137.43384 L111.895912,141.340696 C112.791735,134.548003 115.296065,127.692712 118.983406,121.588171 C123.048871,114.856384 128.582843,109.003925 135.019829,105.097069 L135.07143,105.063232 Z" id="Fill-52" fill="#000000"></path>
                <path d="M135.823913,106.412635 L135.810378,106.417287 L126.125504,100.827062 L126.13777,100.819449 L135.823913,106.412635 Z M145.246131,72.8213727 C142.30404,71.1210847 135.727902,66.7303658 133.0417,66.3962296 C119.891537,64.7665755 105.57655,93.1795725 116.694404,99.9096677 L126.380547,105.499893 C114.197264,97.7733108 132.492279,66.1339961 145.246131,72.8213727 L145.246131,72.8213727 Z" id="Fill-54" fill="#05B173"></path>
                <path d="M138.757121,70.7136077 C136.394905,69.3296917 134.050876,68.0840827 132.855599,67.9377395 C129.221974,67.48729 125.376024,69.7966365 122.127289,73.3490541 C119.662295,76.0521737 117.564004,79.4569793 116.149212,82.939609 C114.755991,86.3790971 114.041616,89.8617269 114.310194,92.7856301 C114.539437,95.2992648 115.521966,97.3793684 117.467993,98.5746455 L121.258958,100.758374 C120.544583,97.9638953 120.74295,94.6889376 121.626508,91.3315032 C122.360762,88.5247591 123.581416,85.6511878 125.126056,82.9789441 C126.670273,80.3054315 128.552009,77.8133676 130.619847,75.7713301 C133.133482,73.2881483 135.923308,71.4584354 138.757121,70.7136077 M143.687956,70.0740964 C144.574898,70.6192882 145.375979,71.1073809 146.024372,71.4800062 C146.734094,71.8949272 147.002672,72.8000557 146.616512,73.5355783 C146.223162,74.2922487 145.288849,74.5853581 144.532179,74.1886242 C140.893478,72.2810872 136.538288,74.2711009 132.78708,77.9778979 C130.926491,79.8198766 129.212669,82.0877732 127.802529,84.5265445 C126.392813,86.9712372 125.281704,89.5796144 124.614701,92.1190495 C123.753983,95.3986598 123.638092,98.5437697 124.584248,100.95378 C124.541529,100.411972 124.783884,99.8718553 125.250828,99.5512537 C125.727078,99.2183864 126.375895,99.1710152 126.911358,99.4827347 L136.597925,105.075498 C136.831397,105.209998 137.035685,105.408365 137.173146,105.664677 C137.56692,106.365095 137.346982,107.242731 136.696897,107.688528 C136.222339,108.018011 135.572253,108.070035 135.036367,107.758739 L125.350223,102.16386 C125.246599,102.104224 125.151856,102.029783 125.060498,101.948575 C125.579466,102.847782 126.288765,103.609105 127.210812,104.193632 C127.906577,104.639006 128.137088,105.5564 127.717092,106.278388 C127.288636,107.013911 126.340789,107.268531 125.605267,106.841344 C122.945289,105.297128 118.139226,102.913341 115.894169,101.229971 C112.994797,99.4734296 111.551244,96.5448738 111.230643,93.0622441 C110.919346,89.6282545 111.714506,85.638922 113.280293,81.7764767 C114.82451,77.9643633 117.12582,74.2359954 119.839514,71.2676817 C123.718877,67.0156928 128.491104,64.2736611 133.232877,64.8611487 C135.659383,65.1601794 140.306413,68.0062586 143.687956,70.0740964" id="Fill-56" fill="#000000"></path>
                <path d="M151.860378,104.820793 C147.590202,102.35453 141.853633,102.930174 135.809998,106.417034 C129.5515,110.037124 123.88345,116.241061 119.78288,123.34505 C116.019406,129.864513 113.574714,137.139377 113.190246,143.875817 L158.453435,117.742559 C158.071928,111.447264 155.623851,106.996908 151.860378,104.820793" id="Fill-58" fill="#05B173"></path>
                <path d="M144.350434,101.848038 C147.39488,101.545624 150.216851,102.086163 152.638704,103.484037 C154.810166,104.738528 156.588278,106.646065 157.859688,109.138129 C159.049889,111.473276 159.797678,114.333312 159.997737,117.650989 C160.02819,118.218597 159.750307,118.780285 159.227109,119.083968 L113.963919,145.212573 C113.713528,145.358916 113.41915,145.43674 113.107854,145.420245 C112.256018,145.372874 111.602972,144.646233 111.64569,143.793129 C111.844057,140.341375 112.55378,136.764003 113.69238,133.220467 C114.859742,129.582189 116.477131,125.969711 118.441767,122.569558 C120.592081,118.850496 123.166199,115.363213 126.024967,112.343299 C128.794491,109.418973 131.83936,106.926909 135.036493,105.080277 C138.250545,103.224341 141.407921,102.138187 144.350434,101.848038 M151.085182,106.162202 C149.238551,105.092543 147.05017,104.686504 144.652426,104.924629 C142.152749,105.17502 139.414947,106.122444 136.590015,107.758865 C133.647925,109.454078 130.834836,111.760041 128.261988,114.476695 C125.576209,117.313469 123.152664,120.602384 121.119932,124.118428 C119.263996,127.33248 117.736274,130.741938 116.637854,134.163239 C115.902332,136.460319 115.35714,138.766282 115.033578,141.029526 L156.835285,116.893895 C156.588278,114.424671 155.991486,112.295928 155.100315,110.543616 C154.10552,108.59336 152.738099,107.11301 151.085182,106.162202" id="Fill-60" fill="#000000"></path>
                <path d="M135.814777,104.566088 L135.824082,104.561436 C139.505079,102.432692 142.83629,98.7821483 145.25053,94.6067147 L145.25053,94.6109443 C147.663501,90.4278974 149.156117,85.7169999 149.156117,81.4607814 C149.156117,77.2028711 147.659271,74.2146784 145.25053,72.8210343 C142.83206,71.4278133 139.495774,71.6308327 135.814777,73.7553468 C132.129128,75.8840905 128.789881,79.5346342 126.380293,83.7147204 C123.966054,87.8977673 122.468785,92.6120485 122.468785,96.8653062 C122.468785,101.116872 123.966054,104.106757 126.380293,105.499978 C128.789881,106.893199 132.129128,106.693563 135.814777,104.566088" id="Fill-62" fill="#00A872"></path>
                <path d="M142.039734,101.51534 C140.361017,103.280764 138.523691,104.785645 136.597544,105.898446 L136.589931,105.906059 C134.586382,107.061155 132.648392,107.705319 130.860975,107.883807 C128.945825,108.072869 127.193513,107.728159 125.705973,106.893241 L125.604886,106.84164 C124.091122,105.966965 122.881041,104.604197 122.067695,102.809589 C121.32752,101.173168 120.916828,99.1713113 120.916828,96.8653485 C120.916828,94.6372099 121.301296,92.2885285 121.997484,89.9563424 C122.707206,87.5602897 123.749373,85.1722733 125.038969,82.9394821 C126.306995,80.746449 127.825411,78.6874932 129.507512,76.8962694 L129.589989,76.8061795 C131.228948,75.0707861 133.041743,73.5874751 134.953932,72.4704451 L135.036409,72.4184214 C137.038688,71.2633252 138.977101,70.6145088 140.764095,70.4377127 C142.723656,70.2423065 144.510651,70.6098563 146.015532,71.4798793 C147.533949,72.3541319 148.745721,73.7215525 149.554415,75.5119304 C150.299243,77.1508897 150.705282,79.1502084 150.705282,81.4561712 C150.705282,83.6889623 150.325043,86.0376438 149.627587,88.3723676 C148.936475,90.7087833 147.918417,93.0451989 146.663926,95.2475372 L146.508277,95.5190757 C145.236868,97.690961 143.723104,99.737228 142.039734,101.51534 L142.039734,101.51534 Z M135.053327,103.219858 C136.736697,102.24621 138.341819,100.930813 139.799753,99.3908261 C141.34397,97.7565194 142.737191,95.8565956 143.909205,93.8327453 L143.9828,93.7198157 C145.116325,91.7344545 146.033719,89.6192455 146.660965,87.4993839 C147.2696,85.4526939 147.60416,83.4017744 147.60416,81.4561712 C147.60416,79.5955824 147.291171,78.0255652 146.734137,76.7875694 C146.192328,75.5897546 145.41874,74.6985837 144.480198,74.1580444 C143.53235,73.6132755 142.372602,73.3874163 141.066087,73.5126117 C139.712624,73.6466891 138.198437,74.1656576 136.589931,75.0923569 L136.503224,75.1393051 C134.863842,76.0960344 133.28452,77.3978967 131.82997,78.9332314 L131.752146,79.0068259 C130.238382,80.6212536 128.868001,82.486072 127.717134,84.4841219 C126.54808,86.5168543 125.604886,88.6713984 124.965797,90.8263654 C124.355047,92.8713635 124.01795,94.9222831 124.01795,96.8653485 C124.01795,98.7255144 124.329247,100.295955 124.892626,101.536488 C125.432742,102.727113 126.206331,103.618283 127.154178,104.163052 L127.224389,104.205771 C128.153626,104.721779 129.290535,104.931989 130.563213,104.807216 C131.912447,104.672716 133.426634,104.1584 135.036409,103.229163 L135.053327,103.219858 Z" id="Fill-64" fill="#000000"></path>
                <path d="M143.013551,60.8946982 C143.065152,61.7461111 142.412106,62.4820566 141.560693,62.5294278 C140.707588,62.5810286 139.976718,61.9279827 139.924695,61.0761468 C139.759741,58.3201576 139.448445,55.6648322 139.011953,53.1330103 C137.099763,42.1496573 132.683244,33.5099102 126.324082,27.7915286 C120.016521,22.1251708 111.744747,19.3006625 102.063256,19.8834975 C100.419645,19.9841613 98.715127,20.1871808 96.9721203,20.4891723 C96.1329732,20.6325547 95.3285085,20.0649462 95.185126,19.2228383 C95.0434354,18.3832683 95.6093521,17.5775348 96.4531518,17.4354211 C98.2951305,17.1198951 100.108348,16.902918 101.881385,16.794641 C112.424016,16.1597822 121.469379,19.2609045 128.396573,25.4902184 C135.274703,31.672584 140.028742,40.916314 142.061474,52.6140418 C142.520806,55.2406061 142.840985,58.0088611 143.013551,60.8946982 M47.1887869,193.027379 C46.3356822,193.07475 45.6001596,192.425934 45.5527884,191.574098 C45.5007647,190.721416 46.1542336,189.985471 47.0073383,189.938522 C56.6659893,189.36753 67.1794368,185.422608 77.587568,178.712392 C88.0642183,171.956073 98.4127126,162.411621 107.656443,150.70205 C108.184716,150.036315 109.157941,149.919156 109.828328,150.447007 C110.494908,150.97528 110.607838,151.947236 110.08464,152.61424 C100.615051,164.606346 90.0068608,174.387231 79.2569802,181.317385 C68.4153178,188.308445 57.3892461,192.425934 47.1887869,193.027379 M36.965488,59.8005079 C37.4810729,59.117009 38.4500678,58.9825086 39.1339897,59.4968246 C39.8174885,60.0128324 39.9502971,60.9847881 39.4359811,61.6640574 C37.4413149,64.307117 35.5168595,67.0237712 33.6824941,69.7932951 C31.8438991,72.5666256 30.0839741,75.4127047 28.4175226,78.2985418 C23.4469294,86.9027605 19.25923,95.9692714 16.0591357,105.132217 C12.9440558,114.043079 10.7586359,123.059258 9.70420351,131.826738 C9.60353969,132.675613 8.83460347,133.285941 7.98615129,133.186546 C7.13431546,133.085882 6.52864072,132.312293 6.62761271,131.463841 C7.70953727,122.484036 9.94528912,113.24792 13.1381932,104.11585 C16.4038458,94.7621515 20.6740219,85.5184215 25.7406264,76.7450199 C27.4409144,73.8025066 29.2308694,70.9090562 31.1049928,68.084125 C32.9867295,65.2426984 34.9462903,62.4727516 36.965488,59.8005079" id="Fill-66" fill="#000000"></path>
                <path d="M78.1408807,136.371202 L77.6100694,137.403218 C77.1549674,138.219525 76.1817428,138.568888 75.310451,138.733841 C74.4683432,138.863266 73.7239385,138.83958 72.898326,138.631486 C72.1750691,138.42762 71.4433531,138.086294 71.0622687,137.403218 L70.5327262,136.371202 C72.9139754,137.077541 75.7592086,137.077541 78.1408807,136.371202" id="Fill-68" fill="#000000"></path>
                <path d="M72.6436211,137.651451 C72.7882725,137.711934 72.9498422,137.766919 73.1283301,137.817674 C73.8054846,137.988125 74.4272317,138.01308 75.1817874,137.898035 C75.5108481,137.835438 75.798882,137.752538 76.0420824,137.650183 C74.9203998,137.776224 73.7653037,137.776647 72.6436211,137.651451 M74.3109185,139.659229 C73.7640348,139.659229 73.2408367,139.590287 72.6914153,139.45198 C71.5223615,139.122497 70.7551172,138.589148 70.3237008,137.815559 L68.8776101,134.997818 L70.7728814,135.560351 C73.0044036,136.221856 75.6690341,136.221856 77.9005564,135.560351 L79.7983654,134.997395 L78.3624257,137.790181 C77.8506474,138.708844 76.8812295,139.298024 75.4677065,139.56491 C75.0612446,139.62793 74.6805831,139.659229 74.3109185,139.659229" id="Fill-70" fill="#262424"></path>
                <path d="M74.3182356,139.275607 C73.8034967,139.275607 73.3082138,139.209203 72.7867076,139.079355 C71.7271997,138.776941 71.0339728,138.306189 70.6588098,137.62692 L70.1208082,136.586445 C70.0374856,136.421915 70.0594794,136.221856 70.1774845,136.076782 C70.2950666,135.935091 70.4853973,135.880107 70.6630394,135.931707 C72.9613889,136.61436 75.7101878,136.61436 78.0106522,135.931707 C78.189986,135.880107 78.378202,135.935091 78.496207,136.076782 C78.6142121,136.221856 78.6357829,136.421915 78.5516144,136.586445 L78.0229179,137.615077 C77.5720455,138.423771 76.6901797,138.9457 75.3929699,139.189324 C75.0178069,139.244308 74.6633687,139.275607 74.3182356,139.275607 M71.40829,137.069462 L71.4725795,137.191274 C71.7208554,137.63834 72.2161383,137.956826 73.0256784,138.188184 C73.760778,138.372593 74.4485065,138.400086 75.2381676,138.278697 C76.2397303,138.090058 76.905042,137.721239 77.2083023,137.179431 L77.2654015,137.069462 C75.3747828,137.46239 73.2989087,137.46239 71.40829,137.069462" id="Fill-72" fill="#000000"></path>
                <path d="M74.3181088,140.121437 C73.7488083,140.121437 73.1811998,140.049111 72.5822923,139.90023 C71.2677413,139.52549 70.4057545,138.918124 69.9185078,138.035412 L69.3695093,136.975481 C69.1318074,136.506422 69.1927132,135.946849 69.520928,135.543348 C69.8588708,135.137309 70.3968724,134.975316 70.8972308,135.118699 C73.0521978,135.759479 75.6187022,135.759056 77.7694396,135.120814 C78.2795261,134.975739 78.8149899,135.139424 79.1448965,135.53362 C79.4815705,135.948118 79.5416304,136.508959 79.3047743,136.971675 L78.774809,138.001998 C78.1873214,139.056854 77.1070886,139.727664 75.5493372,140.020773 C75.0777399,140.090561 74.6860815,140.121437 74.3181088,140.121437" id="Fill-74" fill="#262424"></path>
                <path d="M80.2289782,135.491705 C82.4655759,134.204646 83.166416,132.359707 82.326423,130.719056 L80.7284906,127.61032 L67.9429169,127.61032 L66.3458305,130.719056 C65.5071063,132.359707 66.2049857,134.204646 68.4432753,135.491705 C71.698354,137.37175 76.9755912,137.37175 80.2289782,135.491705" id="Fill-76" fill="#000000"></path>
                <path d="M68.4594746,128.456277 L67.0983982,131.105681 C66.4461982,132.380897 67.1064344,133.747049 68.8650905,134.758339 C71.8828903,136.501346 76.7900399,136.501769 79.8053019,134.759185 L79.8069937,134.758339 C81.5656499,133.746203 82.226309,132.380051 81.573686,131.104412 L80.2121868,128.456277 L68.4594746,128.456277 Z M74.3368881,137.758798 C72.063916,137.758798 69.7913668,137.24702 68.020445,136.223886 C65.4674752,134.756648 64.5141296,132.443918 65.5926705,130.333784 L67.427036,126.764448 L81.2450483,126.764448 L83.0785678,130.332515 C84.1588006,132.442649 83.205032,134.754956 80.6503704,136.224732 C78.8807174,137.247443 76.6090142,137.758798 74.3368881,137.758798 L74.3368881,137.758798 Z" id="Fill-78" fill="#262424"></path>
                <path d="M74.3368458,137.356143 C72.1180122,137.356143 69.9012934,136.865089 68.2132712,135.891865 C65.8163726,134.510486 64.9442348,132.449839 65.9348006,130.511003 L67.5335789,127.398461 C67.6135178,127.24535 67.7717038,127.147224 67.9430015,127.147224 L80.7285752,127.147224 C80.9019877,127.147224 81.0614426,127.24535 81.1396896,127.398461 L82.7388909,130.511003 C83.7290337,132.446032 82.8581648,134.50668 80.4608433,135.891865 C78.7723981,136.865089 76.5556793,137.356143 74.3368458,137.356143 L74.3368458,137.356143 Z M68.2272288,128.069694 L66.7566065,130.931 C65.9990901,132.410504 66.7164256,133.964872 68.6747175,135.095436 C71.7978336,136.896811 76.8771268,136.896811 79.998974,135.095436 C81.9551512,133.964872 82.6733325,132.406697 81.917085,130.931 L80.4464628,128.069694 L68.2272288,128.069694 Z" id="Fill-80" fill="#000000"></path>
                <path d="M68.7432366,128.915566 L67.5094704,131.31754 C66.7498392,132.800005 68.3668046,133.940721 69.0976747,134.362409 C71.9386783,136.002214 76.7375509,136.001368 79.5760168,134.362409 C80.3064639,133.940721 81.9234294,132.798736 81.1642212,131.316694 L79.930032,128.915566 L68.7432366,128.915566 Z M74.3368458,138.202015 C71.8798873,138.202015 69.5553144,137.642019 67.7907369,136.624807 C65.0085243,135.021377 63.9841219,132.470099 65.1810909,130.12607 L66.7807151,127.011836 C67.0112268,126.571114 67.4557548,126.300845 67.9430015,126.300845 L80.7285752,126.300845 C81.2230122,126.300845 81.6692321,126.574498 81.8933994,127.014373 L83.4913318,130.123955 C84.6899925,132.466292 83.6660131,135.017147 80.8838005,136.624384 C79.1183771,137.642019 76.7933813,138.202015 74.3368458,138.202015 L74.3368458,138.202015 Z" id="Fill-82" fill="#262424"></path>
                <path d="M91.320143,97.0381266 C93.6705162,104.464409 91.1073955,109.53186 88.4499553,114.080765 C86.7754677,116.950106 85.5844202,117.357837 84.6644882,120.620106 C84.1095683,122.582205 84.3041287,124.09766 82.758643,125.702783 C78.5286479,130.086735 69.6939175,130.212776 65.9131029,125.702783 C64.4860453,123.995305 64.5642924,122.582205 64.0093725,120.620106 C63.0877487,117.357837 61.8962782,116.950106 60.2234824,114.080765 C57.5668882,109.53186 55.0012297,104.464409 57.3545636,97.0381266 C59.773033,89.4079784 67.0555104,85.5929042 74.3367189,85.5929042 C81.6179274,85.5929042 88.9008277,89.4079784 91.320143,97.0381266" id="Fill-84" fill="#F8D754"></path>
                <path d="M74.1111981,129.502081 C73.9411693,129.502081 73.7707175,129.494045 73.5994199,129.490661 C70.2521364,129.372656 67.32062,128.100824 65.5590031,125.997034 C64.4339369,124.650762 64.1746642,123.445756 63.9031256,122.162081 C63.8079603,121.718822 63.7068735,121.251454 63.5643369,120.741791 C63.0005349,118.747548 62.3360691,117.872026 61.4948072,116.761341 C61.002485,116.113793 60.4441815,115.375733 59.8249721,114.316225 C56.9442105,109.386236 54.55704,104.342894 56.9146035,96.9009615 C59.1808083,89.7491779 66.0191806,85.1296392 74.3366343,85.1296392 C82.6545109,85.1296392 89.4924603,89.7491779 91.758665,96.9009615 C94.1166515,104.342894 91.7282121,109.386236 88.8487194,114.316225 C88.229087,115.375733 87.6712065,116.113793 87.1788843,116.761341 C86.3355076,117.872026 85.6718877,118.747548 85.1080857,120.741791 C84.9587818,121.275563 84.8665772,121.773807 84.7747955,122.252594 C84.5328639,123.543883 84.3027752,124.764537 83.0910028,126.020297 C80.972833,128.218406 77.6454286,129.502081 74.1111981,129.502081 M74.3366343,86.0521089 C66.430295,86.0521089 59.935364,90.420834 57.7930857,97.1792674 C55.5501436,104.259994 57.8514538,109.104123 60.6205547,113.84928 C61.2122718,114.865646 61.75408,115.576215 62.2307528,116.203883 C63.0952774,117.346713 63.8422198,118.331358 64.4525471,120.494361 C64.601005,121.020097 64.7046296,121.506498 64.8048704,121.970059 C65.0747171,123.237662 65.2878876,124.234995 66.2657647,125.404471 C67.8615822,127.307779 70.5448228,128.458222 73.6328335,128.568191 C77.107427,128.68958 80.3836536,127.496418 82.4278059,125.380786 C83.4471327,124.324662 83.6311191,123.331981 83.8683981,122.080028 C83.9622946,121.581361 84.0616896,121.055202 84.2202985,120.494361 C84.8314717,118.331358 85.5784142,117.346713 86.4429387,116.203883 C86.9200345,115.576215 87.4597279,114.865646 88.0531368,113.84928 C90.8218148,109.104123 93.123125,104.259994 90.8801829,97.1792674 C88.7370587,90.420834 82.2433965,86.0521089 74.3366343,86.0521089" id="Fill-86" fill="#000000"></path>
                <path d="M74.3367189,86.8978119 C66.8055427,86.8978119 60.6286755,91.0339105 58.5997497,97.434945 C56.4621239,104.181959 58.6813804,108.8476 61.3515093,113.423151 C61.908967,114.381572 62.4275125,115.064648 62.8851522,115.666939 C63.7856281,116.856717 64.6137784,117.951331 65.2668243,120.264907 C65.4186659,120.803754 65.5235593,121.289732 65.6246461,121.759215 C65.8957617,123.033585 66.0700201,123.851584 66.9146656,124.861606 C68.3535661,126.577543 70.8134853,127.620979 73.662948,127.722488 C76.8918034,127.839225 79.9383643,126.739959 81.819255,124.793087 C82.6588251,123.923487 82.807706,123.134249 83.0339881,121.939394 C83.1299994,121.429308 83.2353158,120.86889 83.4057675,120.264907 C84.0605053,117.949216 84.8895014,116.854603 85.7671377,115.6957 C86.2306988,115.085373 86.7534739,114.397221 87.3223514,113.422728 C89.9920573,108.8476 92.2113138,104.182382 90.074111,97.4345221 C88.0439164,91.0339105 81.8670492,86.8978119 74.3367189,86.8978119 M74.1112827,130.347784 C73.9920087,130.347784 73.8718889,130.344823 73.752192,130.341017 L73.5813173,130.336364 C69.9811054,130.209477 66.8249987,128.826407 64.9106943,126.540323 C63.6452063,125.025713 63.3554806,123.659138 63.075483,122.337397 C62.9824324,121.905981 62.8859981,121.456377 62.7498059,120.969553 C62.2304144,119.133073 61.6395432,118.353563 60.8228128,117.275022 C60.3440252,116.645662 59.7506163,115.864037 59.0946096,114.7432 C56.114876,109.643605 53.6443829,104.423044 56.1085317,96.6452839 C58.487666,89.1361015 65.6428333,84.2839363 74.3367189,84.2839363 C83.0306045,84.2839363 90.1857717,89.1361015 92.565329,96.6452839 C95.0286319,104.420929 92.5581388,109.642336 89.5788281,114.742777 C88.9219756,115.866998 88.3285666,116.646931 87.8518938,117.27333 C87.0343175,118.350602 86.4430233,119.12969 85.922363,120.972091 C85.793361,121.433115 85.7075007,121.881026 85.6241781,122.314557 L85.605568,122.412683 C85.3517937,123.764878 85.0891373,125.167404 83.7001458,126.607996 C81.443246,128.94991 77.8582607,130.347784 74.1112827,130.347784" id="Fill-88" fill="#262424"></path>
                <path d="M79.1238333,132.45796 C81.7685847,130.931084 81.7685847,128.458053 79.1238333,126.927371 C76.4803506,125.404302 72.1915645,125.404302 69.5485048,126.927371 C66.9054452,128.458053 66.9054452,130.931084 69.5485048,132.45796 C72.1915645,133.984412 76.4803506,133.984412 79.1238333,132.45796" id="Fill-90" fill="#F4D9DC"></path>
                <path d="M74.3362959,126.637645 C72.7447079,126.637645 71.1539658,126.978549 69.9709545,127.660356 C68.9660081,128.242345 68.4119342,128.965179 68.4123569,129.69478 C68.4123569,130.423113 68.9664311,131.144678 69.9718004,131.725398 C72.3365542,133.091127 76.3343458,133.092396 78.7007914,131.724975 C79.7070067,131.144255 80.2610806,130.423113 80.2615038,129.69478 C80.2619265,128.965179 79.7074296,128.242768 78.6999455,127.659933 C77.5177801,126.978549 75.927038,126.637645 74.3362959,126.637645 M74.335873,134.45601 C72.4604807,134.45601 70.5863572,134.033898 69.125463,133.190099 C67.5753248,132.294698 66.7209512,131.053319 66.7205276,129.695203 C66.7196823,128.336665 67.573633,127.093593 69.1246171,126.195655 C72.0468285,124.510594 76.6244945,124.511862 79.54586,126.194386 C81.0993818,127.093593 81.9541784,128.336665 81.9533331,129.695203 C81.9529095,131.053319 81.09769,132.294698 79.5467059,133.190522 C78.0858116,134.033898 76.2108423,134.45601 74.335873,134.45601" id="Fill-92" fill="#262424"></path>
                <path d="M74.3368458,134.055258 C72.5198216,134.055258 70.7032203,133.658947 69.3184584,132.857866 C67.8901319,132.033522 67.1047003,130.911417 67.1047003,129.694992 C67.1047003,128.477721 67.8901319,127.355192 69.3184584,126.530849 C72.0858674,124.933762 76.5878241,124.933762 79.3548102,126.530849 C80.7822908,127.355192 81.5672994,128.477721 81.5672994,129.694992 C81.5672994,130.911417 80.7822908,132.033522 79.3548102,132.857866 C77.972163,133.658947 76.153447,134.055258 74.3368458,134.055258 M74.3368458,126.2407 C72.6851978,126.2407 71.0339728,126.601906 69.7803277,127.3277 C68.650186,127.982861 68.0275929,128.819047 68.0275929,129.694992 C68.0275929,130.565861 68.650186,131.405854 69.7803277,132.057208 C72.2914247,133.510066 76.3818439,133.510066 78.8950557,132.057208 C80.0235055,131.405854 80.6444067,130.565861 80.6444067,129.694992 C80.6444067,128.819047 80.0235055,127.982861 78.8950557,127.3277 C77.6376039,126.601906 75.9863789,126.2407 74.3368458,126.2407" id="Fill-94" fill="#000000"></path>
                <path d="M74.3367189,127.086615 C72.7781215,127.086615 71.2723938,127.441476 70.2040039,128.059416 C69.3585124,128.549624 68.8733805,129.145993 68.8733805,129.694992 C68.8733805,130.243567 69.3580895,130.837399 70.202735,131.324223 C72.4435624,132.620587 76.2302983,132.621433 78.4719716,131.325069 C79.3153483,130.837822 79.7987884,130.24399 79.7987884,129.694992 C79.7987884,129.14557 79.3149253,128.549201 78.4702798,128.058993 C77.3845486,127.432171 75.9156182,127.086615 74.3367189,127.086615 M74.3367189,134.901172 C72.28876,134.901172 70.3562685,134.435496 68.8953743,133.590428 C67.1950863,132.60959 66.258659,131.226097 66.258659,129.694992 C66.258659,128.163464 67.1950863,126.779548 68.8957972,125.798287 C71.9474336,124.03667 76.727696,124.037516 79.7776405,125.798287 C81.4770826,126.779971 82.4130869,128.163887 82.4130869,129.694992 C82.4130869,131.225674 81.4770826,132.609167 79.7776405,133.590428 C78.319707,134.435496 76.3867925,134.901172 74.3367189,134.901172" id="Fill-96" fill="#262424"></path>
                <path d="M80.2289782,132.940638 C82.4655759,131.64935 83.166416,129.804411 82.326423,128.171796 L80.7284906,125.058831 L67.9429169,125.058831 L66.3458305,128.171796 C65.5071063,129.804411 66.2049857,131.64935 68.4432753,132.940638 C71.698354,134.820683 76.9755912,134.820683 80.2289782,132.940638" id="Fill-98" fill="#000000"></path>
                <path d="M68.4598975,125.904872 L67.0983982,128.55766 C66.4457752,129.828223 67.1068574,131.192683 68.8663594,132.207781 C71.8833132,133.950364 76.7908858,133.950787 79.8053019,132.208203 L79.8057249,132.207781 C81.5656499,131.191837 82.2271549,129.827377 81.574532,128.558506 L80.2117638,125.904872 L68.4598975,125.904872 Z M74.3368881,135.207393 C72.063916,135.207393 69.7913668,134.696038 68.020445,133.673327 C65.4657834,132.199321 64.5132837,129.88786 65.5935165,127.784917 L67.426613,124.213043 L81.2454712,124.213043 L83.0789908,127.78534 C84.1596465,129.886168 83.2067239,132.19763 80.6520623,133.672904 C78.8819863,134.696038 76.6094372,135.207393 74.3368881,135.207393 L74.3368881,135.207393 Z" id="Fill-100" fill="#262424"></path>
                <path d="M74.3368458,134.805034 C72.1180122,134.805034 69.9012934,134.314404 68.2132712,133.340756 C65.8163726,131.958955 64.9442348,129.894924 65.9348006,127.959471 L67.5335789,124.846929 C67.6135178,124.694242 67.7717038,124.595693 67.9430015,124.595693 L80.7285752,124.595693 C80.9019877,124.595693 81.0614426,124.694242 81.1396896,124.846929 L82.7388909,127.959471 C83.7290337,129.894924 82.8581648,131.955148 80.4608433,133.340756 C78.7723981,134.314404 76.5556793,134.805034 74.3368458,134.805034 L74.3368458,134.805034 Z M68.2272288,125.518162 L66.7566065,128.379468 C65.9990901,129.859395 66.7164256,131.413763 68.6747175,132.544328 C71.7978336,134.346125 76.8771268,134.346125 79.998974,132.544328 C81.9551512,131.413763 82.6733325,129.859395 81.917085,128.379468 L80.4464628,125.518162 L68.2272288,125.518162 Z" id="Fill-102" fill="#000000"></path>
                <path d="M68.7432366,126.364204 L67.5094704,128.766178 C66.7498392,130.249066 68.3668046,131.389781 69.0976747,131.81147 C71.9386783,133.450852 76.7375509,133.450429 79.5760168,131.81147 C80.306041,131.389781 81.9217375,130.248643 81.1637982,128.764486 L79.930032,126.364204 L68.7432366,126.364204 Z M74.3368458,135.651075 C71.8790414,135.651075 69.5544685,135.09108 67.7907369,134.073868 C65.0068325,132.468745 63.9828531,129.917044 65.1815138,127.573861 L66.7807151,124.460473 C67.0120727,124.019752 67.4561777,123.749905 67.9430015,123.749905 L80.7285752,123.749905 C81.2221663,123.749905 81.6688091,124.023135 81.8929764,124.462165 L83.4913318,127.572592 C84.6895696,129.914506 83.6655901,132.465361 80.8842235,134.073445 C79.119223,135.09108 76.7942272,135.651075 74.3368458,135.651075 L74.3368458,135.651075 Z" id="Fill-104" fill="#262424"></path>
                <path d="M80.2995274,120.556832 C83.5926723,122.456756 83.5926723,125.541806 80.2995274,127.441729 C77.0063825,129.345037 71.6678165,129.345037 68.3742487,127.441729 C65.078989,125.541806 65.078989,122.456756 68.3742487,120.556832 C71.6678165,118.657331 77.0063825,118.657331 80.2995274,120.556832" id="Fill-106" fill="#F8D754"></path>
                <path d="M74.3370995,119.968202 C72.3305905,119.968202 70.3249274,120.408501 68.7967829,121.289521 C67.4758876,122.051267 66.7488241,123.013494 66.7488241,123.998985 C66.7488241,124.984898 67.4758876,125.947548 68.7967829,126.709294 C71.8518029,128.474718 76.8219732,128.475141 79.8761473,126.709294 C81.1966197,125.947548 81.9236831,124.985321 81.9236831,123.998985 C81.9236831,123.013071 81.1966197,122.051267 79.8769932,121.289521 C78.3496947,120.408501 76.3431856,119.968202 74.3370995,119.968202 M74.3370995,129.726248 C72.039173,129.726248 69.7420923,129.209395 67.9508685,128.173995 C66.0852042,127.097992 65.0569952,125.615527 65.0569952,123.998985 C65.0569952,122.383288 66.0852042,120.9004 67.9517144,119.823974 C71.5324702,117.758251 77.1421518,117.759097 80.7220617,119.823974 C82.587726,120.9004 83.615512,122.383288 83.615512,123.998985 C83.615512,125.615527 82.587726,127.097992 80.7220617,128.174418 C78.9321067,129.208972 76.6346031,129.726248 74.3370995,129.726248" id="Fill-108" fill="#262424"></path>
                <path d="M74.3368458,129.321605 C72.0930577,129.321605 69.8505386,128.826745 68.1443291,127.841678 C66.4021684,126.837154 65.4424784,125.471425 65.4424784,123.999534 C65.4424784,122.52722 66.4008995,121.161491 68.1443291,120.156545 C71.5584398,118.18641 77.1165206,118.18641 80.5297853,120.156545 C82.2711002,121.161491 83.2307901,122.52722 83.2307901,123.999534 C83.2307901,125.471425 82.2711002,126.837154 80.5297853,127.841678 C78.82273,128.826745 76.5797879,129.321605 74.3368458,129.321605 M74.3368458,119.587668 C72.2605488,119.587668 70.1863666,120.04277 68.6040836,120.957626 C67.1596847,121.78916 66.3636793,122.86897 66.3636793,123.999534 C66.3636793,125.129676 67.1596847,126.209063 68.6040836,127.04102 C71.7669577,128.87031 76.9092716,128.866503 80.0691849,127.04102 C81.512315,126.209063 82.3095893,125.129676 82.3095893,123.999534 C82.3095893,122.86897 81.512315,121.78916 80.0691849,120.957626 C78.4885938,120.04277 76.4127198,119.587668 74.3368458,119.587668" id="Fill-110" fill="#000000"></path>
                <path d="M74.3367189,120.433286 C72.3141375,120.433286 70.4290171,120.879929 69.0273369,121.690315 C67.8548995,122.364932 67.2094668,123.185046 67.2094668,123.999661 C67.2094668,124.813431 67.8548995,125.633545 69.026068,126.308162 C71.9047149,127.972921 76.767031,127.971652 79.6465238,126.309008 C80.8185382,125.632699 81.4639709,124.812585 81.4639709,123.999661 C81.4639709,123.185892 80.8185382,122.365778 79.6469467,121.690738 C78.2461124,120.879506 76.3605692,120.433286 74.3367189,120.433286 M74.3367189,130.167646 C71.8501534,130.167646 69.500626,129.60173 67.721245,128.574367 C65.7062768,127.412503 64.5964371,125.787501 64.5964371,123.999661 C64.5964371,122.210552 65.7062768,120.585551 67.721668,119.423687 C71.3709429,117.319052 77.3063015,117.319052 80.9530386,119.423687 C82.9671609,120.586397 84.0765777,122.211398 84.0765777,123.999661 C84.0765777,125.787501 82.9671609,127.41208 80.9526157,128.574367 C79.1723887,129.60173 76.8228614,130.167646 74.3367189,130.167646" id="Fill-112" fill="#262424"></path>
                <path d="M82.7588545,124.23491 L82.7588545,127.166427 C82.7262868,127.716271 82.4674369,128.31687 82.1531797,128.764359 C81.0018902,130.404587 78.6358675,131.276302 76.7363666,131.602402 C73.9638821,132.073153 70.4808294,131.731404 68.0733569,130.193108 C67.0802534,129.556981 66.1434031,128.607442 65.9424985,127.398207 L65.9128914,127.166427 L65.9128914,124.23491 C65.956456,124.580466 66.0055191,124.827473 66.144672,125.15738 C66.8852701,126.911383 69.0563095,127.955665 70.7845127,128.418803 C73.8310735,129.23511 77.9045745,128.984297 80.598389,127.261169 C81.5919155,126.625041 82.5317264,125.675079 82.7326311,124.466268 L82.7588545,124.23491 Z" id="Fill-114" fill="#000000"></path>
                <path d="M66.7969989,127.37283 C67.0059398,128.369317 67.9664756,129.120066 68.5298546,129.480425 C70.5245209,130.755641 73.6924704,131.260652 76.5948029,130.76833 C77.4254908,130.625371 80.2356186,130.023926 81.4609257,128.278381 C81.6584467,127.997115 81.8094424,127.660441 81.8771156,127.364371 C81.6271478,127.579233 81.3522256,127.783098 81.0544638,127.973852 C77.9546103,129.956252 73.5528946,130.036191 70.5655477,129.235956 C69.7276695,129.011789 68.0794052,128.46279 66.7969989,127.37283 M74.3340965,132.643723 C72.1161089,132.643723 69.6210843,132.186083 67.6175359,130.906214 C66.2099343,130.004047 65.3191864,128.807924 65.1081308,127.536937 L65.0671039,127.16685 L65.0671039,124.23491 L66.7525884,124.129594 C66.7885398,124.417628 66.8219534,124.58681 66.9238861,124.827473 C67.666176,126.586975 70.2339493,127.396092 71.0033084,127.602072 C74.112044,128.433183 77.8700189,128.001767 80.142991,126.548909 C80.7182128,126.180513 81.7083556,125.406079 81.8944568,124.34784 L81.9181424,124.140168 L83.6044728,124.23491 L83.602781,127.216336 C83.5642919,127.878264 83.2881008,128.619708 82.8452646,129.250337 C81.289205,131.468324 78.155092,132.216959 76.879876,132.436051 C76.1143235,132.565898 75.2476841,132.643723 74.3340965,132.643723" id="Fill-116" fill="#262424"></path>
                <path d="M74.3198852,132.261496 C72.1704166,132.261496 69.7582916,131.817814 67.8249541,130.58151 C66.5099802,129.741517 65.6788692,128.638445 65.4885385,127.473197 L65.4547019,127.221538 L65.4521642,124.235037 C65.4521642,123.991414 65.6420719,123.787548 65.8856953,123.775282 C66.1170529,123.75202 66.3407973,123.936852 66.3699813,124.175823 C66.4118541,124.497693 66.4511891,124.698175 66.5691942,124.976481 C67.3791572,126.892054 70.0928507,127.75531 70.9057745,127.971441 C74.1100984,128.83089 77.9936916,128.379595 80.3516781,126.872175 C80.9831532,126.468251 82.0748058,125.608802 82.2757104,124.391531 L82.3019338,124.180053 C82.3311178,123.936852 82.5091828,123.75202 82.7879116,123.775282 C83.0302661,123.787548 83.2214428,123.991414 83.2214428,124.235037 L83.2214428,127.166553 C83.1846455,127.775189 82.9274875,128.461648 82.5303307,129.030949 C81.0559018,131.130931 78.0410628,131.845729 76.8144868,132.057208 C76.0650067,132.182826 75.2157086,132.261496 74.3198852,132.261496 M66.3750568,126.40523 L66.4012801,127.34335 C66.5983782,128.540318 67.6900308,129.400191 68.3219289,129.804115 C70.3944192,131.130931 73.6697999,131.660897 76.6596845,131.147004 C77.5288616,130.9977 80.4633388,130.365379 81.7728143,128.501406 C82.0735369,128.073797 82.2740186,127.551022 82.300242,127.139484 L82.300242,126.389581 C81.9200034,126.852719 81.4310649,127.276522 80.8494987,127.649148 C77.8435418,129.56895 73.5687132,129.639584 70.6651119,128.862612 C69.7003464,128.602916 67.6109378,127.896578 66.3750568,126.40523" id="Fill-118" fill="#000000"></path>
                <path d="M68.822964,129.120447 C70.7338847,130.320799 73.7449171,130.787744 76.5161328,130.313186 C77.582408,130.130468 78.8339384,129.743886 79.8194287,129.13948 C76.7880943,130.424001 73.0817202,130.385512 70.4466968,129.679596 C70.0110508,129.562437 69.4392127,129.38268 68.822964,129.120447 M74.319716,133.107664 C72.4430548,133.107664 69.7137119,132.792984 67.36926,131.29487 C65.8478829,130.322491 64.8831175,129.013438 64.6538747,127.609643 L64.6086183,127.222638 L64.6060805,124.235714 C64.6060805,123.543756 65.1390066,122.976147 65.8229284,122.931737 C66.5199619,122.878444 67.1247908,123.383032 67.2098052,124.072875 C67.2440647,124.337646 67.2690192,124.459458 67.3485351,124.646828 C68.0299192,126.259141 70.612073,127.017926 71.1225824,127.154118 C74.1175424,127.957314 77.7245216,127.548315 79.8959839,126.159323 C80.3092131,125.894975 81.2883591,125.180177 81.4410467,124.253478 L81.4621945,124.076682 C81.5476319,123.366114 82.1473852,122.873791 82.8592222,122.932583 C83.523265,122.963881 84.067611,123.536988 84.067611,124.234868 L84.0659192,127.217562 C84.0202398,127.975501 83.7135958,128.812534 83.2242343,129.515066 C81.5692027,131.872206 78.2908613,132.661021 76.9581231,132.890687 C76.0982511,133.034916 75.2117328,133.107664 74.319716,133.107664" id="Fill-120" fill="#262424"></path>
                <polygon id="Fill-122" fill="#000000" points="77.3159026 120.647429 77.3159026 123.194478 77.3137878 123.214357 77.3099812 123.230006 77.3002532 123.249462 77.2901022 123.269341 77.2761446 123.28499 77.2596493 123.304869 77.2376555 123.320096 77.2165077 123.331939 72.9213771 125.812583 72.8951538 125.828232 72.8676616 125.840075 72.8389005 125.847688 72.8084476 125.855724 72.7763028 125.863761 72.7437351 125.867567 72.7103215 125.871374 72.6764849 125.871374 72.6443402 125.871374 72.6105036 125.867567 72.5796277 125.863761 72.547483 125.855724 72.51703 125.847688 72.487423 125.840075 72.4599308 125.828232 72.4337075 125.812583 72.4062152 125.796933 72.0953417 125.616331 71.2993362 125.157422 71.2760736 125.14135 71.2536568 125.1257 71.2384304 125.110051 71.2244728 125.090595 71.212207 125.074945 71.2045938 125.055066 71.1982494 125.03561 71.1982494 122.47249 71.1982494 122.488139 71.2045938 122.508018 71.212207 122.527474 71.2244728 122.543123 71.2384304 122.56258 71.2536568 122.578229 71.2760736 122.594301 71.2993362 122.609528 72.0953417 123.069282 72.4062152 123.249462 72.4337075 123.265111 72.4599308 123.276954 72.487423 123.293027 72.51703 123.30064 72.547483 123.308253 72.5796277 123.316289 72.6105036 123.320096 72.6443402 123.324325 72.6764849 123.324325 72.7103215 123.324325 72.7437351 123.320096 72.7763028 123.316289 72.8084476 123.308253 72.8389005 123.30064 72.8676616 123.293027 72.8951538 123.281184 72.9213771 123.265111 77.2165077 120.78489 77.2376555 120.773048 77.2596493 120.753169 77.2761446 120.741749 77.2901022 120.722293 77.3002532 120.701991 77.3099812 120.682535 77.3137878 120.663079"></polygon>
                <path d="M72.5424498,123.188302 L72.5170723,123.300809 L72.5610599,123.15362 L72.5424498,123.188302 Z M72.0437832,124.609016 L72.678219,124.976989 L76.4700305,122.786493 L76.4700305,122.192661 L72.9573708,124.142917 L72.8732023,124.156452 L72.7442004,123.320265 L72.8127194,124.164065 L72.5919358,124.169986 L72.540335,124.164065 L72.6105459,123.320265 L72.4781603,124.156029 L72.2256548,124.098929 L72.1110334,124.046906 L72.1110334,124.047329 L72.0437832,124.015184 L72.0437832,124.609016 Z M72.5517548,125.694324 L72.5170723,125.847857 L72.5855914,125.618192 L72.5517548,125.694324 Z M72.7564661,125.594506 L72.8389428,125.847857 L72.7564661,125.594506 Z M72.7099408,126.717457 L72.2759867,126.659089 L72.0281338,126.555888 L72.4337498,125.812752 L71.97611,126.525012 L70.7524948,125.807676 L70.5482065,125.599159 L70.4593855,125.490036 L70.3659119,125.225264 L70.3519543,125.035357 L70.3519543,122.472659 L71.3082606,122.451511 L71.3801633,122.394835 L71.7341785,121.882211 L72.6777961,122.429094 L76.7745597,120.060111 L76.7758286,120.062226 L76.7935928,120.052498 L76.9221718,120.261861 L77.1653722,120.591345 L78.1618594,120.647175 L78.1322524,123.429388 L78.0501987,123.640021 L78.0015586,123.73434 L77.8552154,123.906484 L77.6555796,124.055365 L72.9628692,126.688696 L72.7099408,126.717457 Z" id="Fill-124" fill="#262424"></path>
                <path d="M72.6644729,126.334597 C72.6348659,126.334597 72.5320873,126.322754 72.515592,126.318524 C72.49529,126.315141 72.4157741,126.299068 72.3958951,126.291455 C72.3789768,126.291455 72.3024215,126.260156 72.2850803,126.255927 C72.2639324,126.244507 72.1903379,126.205172 72.1704589,126.193329 L71.0695013,125.557201 C71.0496223,125.541552 70.9379616,125.462882 70.9223121,125.447655 C70.8994725,125.42397 70.8487176,125.364756 70.8322223,125.337686 C70.8178417,125.314001 70.785697,125.251403 70.775123,125.223911 C70.7675098,125.196419 70.7412865,125.098293 70.7400176,125.066571 L70.736211,122.472574 C70.736211,122.221338 70.9328861,122.017472 71.1828538,122.009013 C71.3774141,121.989134 71.5537873,122.118982 71.626113,122.295778 L72.6361348,122.849429 L76.8986976,120.435189 C76.9553739,120.235131 77.151626,120.125162 77.3601439,120.145041 C77.6029214,120.156461 77.7771798,120.40389 77.7771798,120.647514 L77.7771798,123.194562 C77.7754879,123.206405 77.7636451,123.312567 77.7606844,123.32441 C77.7556089,123.359938 77.7344611,123.410693 77.7192346,123.445799 C77.7035852,123.477098 77.6744012,123.524469 77.6532533,123.551961 C77.6422564,123.563381 77.5551272,123.653894 77.5411696,123.665737 C77.5259432,123.681386 77.4646144,123.724528 77.4443124,123.732564 L73.1512967,126.212785 C73.1348013,126.221244 73.0624757,126.255927 73.0413278,126.264386 C73.0332916,126.267769 72.9097881,126.307104 72.8983683,126.307104 C72.8797581,126.310911 72.7972815,126.326983 72.7790943,126.326983 C72.762176,126.33079 72.6902733,126.334597 72.6644729,126.334597 L72.6644729,126.334597 Z M71.6595266,124.831407 L72.6361348,125.396477 L76.855556,123.006346 L76.8542871,121.526419 L73.1512967,123.665737 C73.1348013,123.677579 73.0624757,123.708878 73.0413278,123.716491 C73.0383671,123.716491 72.911057,123.760056 72.9080963,123.760056 C72.8848336,123.763863 72.8006651,123.779512 72.7790943,123.783319 L72.6593974,123.783319 C72.644171,123.783319 72.5308184,123.775282 72.515592,123.775282 C72.5016344,123.767669 72.3789768,123.740177 72.3650192,123.735947 C72.3464091,123.732564 72.2715457,123.701265 72.2529355,123.688999 L71.6595266,123.351479 L71.6595266,124.831407 Z" id="Fill-126" fill="#000000"></path>
                <path d="M72.6643037,127.180384 C72.6059356,127.180384 72.4693205,127.170656 72.3627352,127.150777 C72.3585057,127.149931 72.3530072,127.149085 72.3466629,127.147393 C72.335243,127.145279 72.3242461,127.142741 72.3136722,127.140203 C72.2946391,127.135974 72.2717994,127.130475 72.2493827,127.124977 C72.1664831,127.110596 72.098387,127.087334 72.0459403,127.0683 L71.9761523,127.051382 L71.8780263,126.997244 C71.8124679,126.962138 71.7583294,126.932531 71.7392963,126.921111 L70.5533243,126.227039 C70.4526604,126.154713 70.3524196,126.073928 70.3316947,126.053626 C70.2877071,126.007947 70.1819678,125.894594 70.1134488,125.784202 C70.0783433,125.72668 70.0060176,125.582875 69.982332,125.519431 L69.9590694,125.44626 C69.9087375,125.262273 69.8985865,125.176836 69.8952028,125.111277 L69.893934,125.068136 L69.8901273,122.473716 C69.8901273,121.771184 70.4319355,121.201884 71.1277002,121.164664 C71.554041,121.130827 71.9638866,121.325387 72.2256971,121.659947 L72.6291983,121.881153 L76.2738206,119.816699 C76.5322475,119.463953 76.9687393,119.255435 77.4403366,119.302806 C78.0747725,119.33199 78.623348,119.936396 78.623348,120.647387 L78.6153118,123.310326 C78.6106593,123.351775 78.603469,123.400415 78.5971246,123.441019 L78.5983935,123.441019 C78.5797834,123.57552 78.5357958,123.689295 78.494769,123.783192 C78.4364009,123.902889 78.3767639,123.9989 78.3213565,124.07038 L78.2731394,124.127479 C78.2608736,124.140591 78.1893939,124.212916 78.138216,124.263248 L78.139062,124.263671 C78.1280651,124.275091 78.1141075,124.288203 78.0967662,124.303429 C78.0938055,124.305967 78.0916908,124.308082 78.0899989,124.309351 C78.0324767,124.358414 77.9470394,124.422703 77.851874,124.474304 L73.5745077,126.944797 C73.5330579,126.967214 73.4573485,127.003588 73.40321,127.028542 L73.403633,127.028965 C73.40321,127.028965 73.3955968,127.032349 73.3816392,127.038271 C73.3685275,127.044192 73.3579536,127.048844 73.3503403,127.051805 L73.3499174,127.051382 C73.2890115,127.075914 73.1811575,127.114403 73.0639983,127.136397 L73.0644213,127.136397 C72.9756003,127.154161 72.9155403,127.163889 72.8677462,127.168541 C72.7789251,127.179115 72.6943337,127.180384 72.6643037,127.180384" id="Fill-128" fill="#262424"></path>
                <path d="M76.0801485,119.85062 L77.2145198,120.506204 C77.3494431,120.580644 77.3494431,120.710069 77.2162116,120.788316 L72.921504,123.265154 C72.7886955,123.343824 72.5674888,123.343824 72.4338344,123.265154 L72.4050733,123.249504 L72.0950456,123.069325 L71.2994631,122.60957 C71.1641168,122.53513 71.1641168,122.406128 71.2994631,122.327458 L75.59121,119.85062 C75.7257104,119.77195 75.946917,119.77195 76.0801485,119.85062" id="Fill-130" fill="#F8D754"></path>
                <path d="M72.6807991,124.169902 C72.4426742,124.169902 72.2037033,124.111533 72.0040675,123.993951 L70.8760406,123.341751 C70.5571309,123.165378 70.3562262,122.840547 70.3523649,122.479765 C70.348613,122.118559 70.5435962,121.788229 70.8743488,121.596207 L75.1682105,119.117678 C75.5611377,118.889704 76.1114051,118.889704 76.5060241,119.119369 L77.6378577,119.773684 C77.9559215,119.949634 78.1568262,120.274043 78.1619017,120.633133 C78.1669771,120.993493 77.9741086,121.323822 77.6463168,121.517114 L73.343996,123.997758 C73.1511275,124.112379 72.9168092,124.169902 72.6807991,124.169902 L72.6807991,124.169902 Z" id="Fill-132" fill="#262424"></path>
                <path d="M72.6764003,123.783403 C72.5076404,123.783403 72.3384575,123.744491 72.2009964,123.665821 L71.0695858,123.010237 C70.860645,122.888426 70.7362956,122.688367 70.7362956,122.472236 C70.7362956,122.252721 70.860645,122.048433 71.068317,121.930851 L75.3626016,119.450207 C75.6387927,119.28906 76.0367954,119.293289 76.3100258,119.450207 L77.444397,120.10579 C77.6516461,120.223372 77.7755896,120.427661 77.7755896,120.647598 C77.7772644,120.863307 77.6533379,121.067172 77.4460889,121.184754 L73.1513813,123.665821 C73.0134972,123.744491 72.8451602,123.783403 72.6764003,123.783403 L72.6764003,123.783403 Z M71.9802127,122.472236 L72.6362194,122.849091 L76.5320783,120.643369 L75.8608452,120.254671 L71.9802127,122.472236 Z" id="Fill-134" fill="#000000"></path>
                <path d="M72.6762734,124.629402 C72.35398,124.629402 72.0452213,124.550309 71.7825648,124.401005 L70.6452329,123.742038 C70.1715208,123.465424 69.8902542,122.991289 69.8902542,122.47232 C69.8902542,121.949968 70.1820947,121.460607 70.6520002,121.194567 L74.9399405,118.717729 C75.4694829,118.407279 76.1910479,118.40601 76.7315872,118.716883 L77.8676503,119.373313 C78.3307885,119.636815 78.62182,120.126177 78.62182,120.64726 C78.6255896,121.161999 78.335441,121.651783 77.8646896,121.919938 L73.5742116,124.398045 C73.3069026,124.550309 72.9981439,124.629402 72.6762734,124.629402" id="Fill-136" fill="#262424"></path>
                <path d="M72.8588641,122.656857 C72.6042438,122.656857 72.3969948,122.452568 72.3969948,122.197948 C72.3969948,117.683726 71.3535593,112.349812 69.6697666,108.279272 C69.5716406,108.043685 69.6833013,107.773415 69.9193114,107.675289 C70.1620888,107.584776 70.4268601,107.690939 70.5224484,107.926103 C72.2485368,112.102805 73.3198874,117.56995 73.3198874,122.197948 C73.3198874,122.452568 73.1134843,122.656857 72.8588641,122.656857 M75.7611965,120.984907 L75.7590817,120.984907 C75.5048844,120.980677 75.2997502,120.773005 75.2997502,120.521769 C75.3120159,114.390581 77.554958,105.818507 78.2431094,103.33744 C78.3107826,103.090433 78.5620192,102.945359 78.810718,103.012186 C79.057725,103.08282 79.2002616,103.33744 79.1325885,103.581486 C77.7313312,108.636671 76.2319479,115.741083 76.2226428,120.521769 C76.220951,120.776389 76.0158167,120.984907 75.7611965,120.984907" id="Fill-138" fill="#000000"></path>
                <path d="M75.7612388,121.830441 L75.759124,121.830441 C75.0337524,121.82029 74.4534551,121.232802 74.4534551,120.521811 C74.4665667,114.276002 76.7331945,105.616799 77.4276902,103.112046 C77.618021,102.420934 78.3374712,102.010665 79.0306981,102.195498 C79.733653,102.396402 80.1392689,103.117967 79.9476693,103.807811 C78.5616385,108.808434 77.0774816,115.82614 77.0685995,120.523503 C77.063947,121.245914 76.4773053,121.830441 75.7612388,121.830441 L75.7612388,121.830441 Z M72.8589064,123.502813 C72.1377643,123.502813 71.5511226,122.917441 71.5511226,122.19799 C71.5511226,117.783586 70.5305269,112.574445 68.887761,108.602877 C68.6124159,107.938411 68.9287879,107.171589 69.5936766,106.894552 C70.2979004,106.631473 71.0384985,106.948691 71.3062304,107.607658 C73.0691161,111.873605 74.1658442,117.466368 74.1658442,122.19799 C74.1658442,122.917441 73.5796255,123.502813 72.8589064,123.502813 L72.8589064,123.502813 Z" id="Fill-140" fill="#262424"></path>
                <path d="M70.4636573,109.484489 C70.2923597,109.484489 70.1295211,109.433311 69.9933289,109.335185 C69.8059589,109.201953 69.5115806,108.864433 69.6342382,108.110724 L69.8905503,106.560585 C70.022513,105.744278 70.5803935,104.883983 71.1907208,104.562535 C71.5434671,104.381933 71.8987512,104.385739 72.167329,104.578185 C72.3530072,104.711839 72.6478084,105.049359 72.523036,105.798839 L72.2701076,107.35363 C72.1364531,108.173321 71.5781496,109.028964 70.9699371,109.350834 C70.7982165,109.441347 70.6260729,109.484489 70.4636573,109.484489 M71.604373,105.304402 C71.307457,105.543796 70.89169,106.148202 70.8016002,106.709466 L70.5448651,108.259604 C70.5042612,108.514648 70.5545931,108.60939 70.5545931,108.60939 C70.8519321,108.369996 71.267276,107.765168 71.3577889,107.203903 L71.613678,105.649958 C71.6551278,105.398299 71.604373,105.304402 71.604373,105.304402" id="Fill-142" fill="#000000"></path>
                <path d="M70.4635727,110.330234 C70.1133642,110.330234 69.7796509,110.223649 69.4992303,110.021898 C69.2226163,109.825223 68.5953707,109.226738 68.7992361,107.975208 L69.0555482,106.422532 C69.2319213,105.335109 69.9475649,104.261221 70.7964401,103.814155 C71.4410269,103.483825 72.1338308,103.513855 72.6595666,103.889864 C72.9395643,104.091615 73.5646951,104.692214 73.357446,105.9374 L73.1049406,107.48923 C72.9281445,108.577499 72.2129238,109.650965 71.3653175,110.098453 C71.0730541,110.25241 70.7702167,110.330234 70.4635727,110.330234" id="Fill-144" fill="#262424"></path>
                <path d="M72.1337039,108.895732 C71.9619833,108.895732 71.8021055,108.844977 71.6659132,108.746851 C71.4776973,108.613197 71.1845879,108.275677 71.3055537,107.521967 L71.717091,105.01806 C71.8494767,104.197523 72.409472,103.337651 73.0164156,103.02001 C73.3662012,102.839408 73.7219083,102.843637 73.991755,103.03566 C74.1787021,103.168891 74.4735032,103.506834 74.3504227,104.260121 L73.9414231,106.760644 C73.8064997,107.581181 73.2481962,108.440207 72.6412526,108.758271 C72.4695319,108.848784 72.2961195,108.895732 72.1337039,108.895732 L72.1337039,108.895732 Z M73.4292219,103.766107 C73.1348436,104.001271 72.7186537,104.605677 72.6256032,105.170748 L72.2182954,107.667041 C72.1751537,107.925891 72.2254856,108.016404 72.2254856,108.016404 C72.5215557,107.77701 72.9352078,107.19206 73.0303732,106.61134 L73.4854752,106.685781 L73.0303732,106.61134 L73.4397958,104.110817 C73.4816686,103.855774 73.4309137,103.766107 73.4309137,103.766107 L73.4292219,103.766107 Z" id="Fill-146" fill="#000000"></path>
                <path d="M72.1335347,109.741647 C71.7841721,109.741647 71.4513047,109.634638 71.1713071,109.432888 C70.8972308,109.239173 70.2691393,108.642804 70.4704669,107.38789 L70.8820043,104.881022 C71.0588004,103.78937 71.77529,102.715058 72.6241651,102.27053 C73.2615616,101.942315 73.9547885,101.971077 74.4822162,102.346663 C74.7622138,102.546298 75.3894594,103.14436 75.1851711,104.396313 L74.7761714,106.897259 C74.5959916,107.99145 73.8795021,109.064069 73.0335877,109.507328 C72.7392095,109.662554 72.4359491,109.741647 72.1335347,109.741647" id="Fill-148" fill="#262424"></path>
                <path d="M73.801678,108.334426 C73.6316492,108.334426 73.4705025,108.283248 73.3330414,108.181315 C73.1452484,108.048084 72.8512931,107.710141 72.9739507,106.960661 L73.5381756,103.510599 C73.6714072,102.690485 74.2314025,101.834842 74.8383461,101.512972 C75.1910925,101.328139 75.5463765,101.332369 75.8166462,101.528198 C76.0019014,101.661853 76.2962797,101.999372 76.1731991,102.749276 L75.6081283,106.198915 C75.4744738,107.019875 74.9144784,107.879324 74.3092267,108.196965 C74.1362372,108.287477 73.9636706,108.334426 73.801678,108.334426 L73.801678,108.334426 Z M75.2536901,102.251032 C74.9576201,102.494232 74.5422761,103.098215 74.4488025,103.659902 L73.8845776,107.105735 C73.8431278,107.361201 73.8934597,107.455098 73.8934597,107.455098 C74.1882609,107.216127 74.6052967,106.611298 74.6983473,106.050034 L75.2629952,102.599972 C75.304022,102.344506 75.254959,102.254416 75.2536901,102.251032 L75.2536901,102.251032 Z" id="Fill-150" fill="#000000"></path>
                <path d="M73.8018049,109.180298 C73.4482126,109.180298 73.1123846,109.069906 72.8302722,108.861811 C72.5633861,108.672749 71.9344488,108.075534 72.1391601,106.824003 L72.702962,103.373941 C72.8797581,102.287364 73.5954018,101.214322 74.4425851,100.765141 C75.085903,100.429313 75.7833594,100.45892 76.3137478,100.843811 C76.5890929,101.042601 77.2121089,101.642777 77.0082435,102.886271 L76.4427497,106.335488 C76.2646848,107.427986 75.5490411,108.501874 74.7018578,108.945979 C74.4062107,109.101205 74.1029504,109.180298 73.8018049,109.180298" id="Fill-152" fill="#262424"></path>
                <path d="M75.6402307,106.729092 C75.4668183,106.729092 75.3056716,106.678337 75.1682105,106.580211 C74.9825322,106.446556 74.6877311,106.109036 74.8103887,105.355326 L75.2198112,102.859033 C75.3534657,102.038919 75.9130381,101.17947 76.5199817,100.857176 C76.8727281,100.672767 77.2271662,100.680803 77.4965899,100.872826 C77.683537,101.00648 77.9766464,101.344 77.8539888,102.09771 L77.4441433,104.59781 C77.3126036,105.417924 76.7543,106.27399 76.1477794,106.59163 C75.9756358,106.68595 75.8026463,106.729092 75.6402307,106.729092 M76.9353257,101.599466 C76.6379868,101.838437 76.2226428,102.442843 76.1304381,103.00453 L75.7210155,105.504207 C75.6799887,105.759251 75.7286288,105.853993 75.7286288,105.853993 C76.0280825,105.614176 76.4438494,105.010193 76.5335164,104.448506 L76.9450537,101.944177 C76.9856576,101.693363 76.9353257,101.599466 76.9353257,101.599466" id="Fill-154" fill="#000000"></path>
                <path d="M75.640273,107.574794 C75.2900644,107.574794 74.9567742,107.468632 74.6763535,107.26815 C74.3963558,107.066823 73.7724939,106.46707 73.9755134,105.219769 L74.384936,102.722206 C74.5621551,101.633514 75.2773757,100.55878 76.1237131,100.110023 C76.7602637,99.7771552 77.4547595,99.8054933 77.9872626,100.183194 C78.2681062,100.384522 78.892814,100.983429 78.6885257,102.233691 L78.2791031,104.734637 C78.1039988,105.823752 77.3892011,106.896794 76.540326,107.340899 C76.2658267,107.491472 75.9494547,107.574794 75.640273,107.574794" id="Fill-156" fill="#262424"></path>
                <path d="M77.4388986,105.351604 C77.2697157,105.351604 77.108992,105.304233 76.9706849,105.201878 C76.7841608,105.069069 76.4910515,104.735356 76.6120172,103.981646 L76.8649456,102.431508 C76.9981772,101.610971 77.5581725,100.751099 78.1651161,100.429651 C78.5165936,100.245242 78.8718776,100.249049 79.1421473,100.445301 C79.3286714,100.578532 79.6217808,100.915629 79.4991232,101.669762 L79.24408,103.2199 C79.1125403,104.03663 78.5546597,104.89608 77.9460243,105.21795 C77.7743037,105.308463 77.6008912,105.351604 77.4388986,105.351604 L77.4388986,105.351604 Z M78.5796142,101.171518 C78.2831212,101.410489 77.8677772,102.015318 77.7743037,102.580389 L77.5226441,104.12672 C77.4811943,104.385993 77.5323721,104.476083 77.5323721,104.476083 C77.8263274,104.237112 78.2404025,103.651739 78.3355679,103.071019 L78.5880733,101.520458 C78.6299461,101.261608 78.5808831,101.171518 78.5808831,101.171518 L78.5796142,101.171518 Z" id="Fill-158" fill="#000000"></path>
                <path d="M77.4390678,106.19773 C77.0820919,106.19773 76.7458409,106.088184 76.4666891,105.880935 C76.2023409,105.693565 75.5763642,105.097619 75.7768459,103.846934 L76.0301973,102.294681 C76.2074163,101.205143 76.922214,100.130832 77.7689744,99.6820744 C78.4101775,99.3462464 79.1080569,99.3750075 79.6392912,99.7607445 C79.9116757,99.9548818 80.5376523,100.551674 80.333787,101.80532 L80.0787438,103.356727 C79.9040624,104.443727 79.1896877,105.517615 78.3416585,105.965527 C78.0527787,106.117791 77.7414822,106.19773 77.4390678,106.19773" id="Fill-160" fill="#262424"></path>
            </g>
        </g>
    </g>
</svg>