<?xml version="1.0" encoding="UTF-8"?>
<svg width="220px" height="180px" viewBox="0 0 220 180" version="1.1" xmlns="http://www.w3.org/2000/svg" xmlns:xlink="http://www.w3.org/1999/xlink">
    <title>Group 231</title>
    <g id="Illustraties" stroke="none" stroke-width="1" fill="none" fill-rule="evenodd">
        <g transform="translate(-707, -289)" id="Group-231">
            <g transform="translate(707, 289)">
                <path d="M36.8457815,9.02105144 C26.2273921,13.4193609 25.6048924,16.9350583 17.5841854,24.9567487 C9.56249502,32.9784391 9.76802809,40.768536 5.36775179,51.385942 C1.48425841,60.7539233 1.31806181,61.0936921 1.48032476,71.79813 C1.66520619,84.0873361 -3.20907462,85.9863044 21.8610436,100.469994 C35.3795145,108.278284 52.8970297,136.95654 82.595084,128.431835 C91.0573429,131.703646 103.331798,135.30785 112.006474,133.273663 C124.458926,130.351455 138.391414,122.989634 138.556135,116.246379 C163.525945,107.653326 156.974456,94.6870407 160.151859,83.4525438 C163.092261,73.0618142 153.029499,58.8318448 149.147972,49.4623885 C144.748188,38.8435074 137.268357,30.1634227 129.24765,22.142224 C121.226943,14.121517 112.29068,8.68767483 101.670324,4.28739853 C91.4398901,0.0493851779 90.3173255,1.41632764 78.5326097,1.41632764 C66.7513358,1.41632764 47.0767067,4.78254639 36.8457815,9.02105144" id="Fill-1" fill="#D5DFFE"></path>
                <path d="M21.9048054,18.5391013 C25.8812312,14.0463843 28.3805724,11.224484 36.3880033,7.90694416 C41.4540495,5.80785158 48.779976,3.92166766 56.3296287,2.54538278 C64.2554365,1.10025908 72.4418484,0.20732112 78.5326097,0.20732112 C81.2969804,0.20732112 83.3311678,0.139465703 85.0604975,0.0839029336 C91.4310394,-0.124580378 93.9652918,-0.207678679 102.12761,3.17329125 C107.499497,5.39875225 112.452943,7.89071787 117.080387,10.8424285 C121.73045,13.8064318 126.041728,17.2247714 130.10371,21.2872457 C134.136682,25.3266099 138.045253,29.5400379 141.514238,34.1015938 C144.998466,38.6838013 148.022949,43.5974186 150.262178,48.9988081 C151.221988,51.3191684 152.569754,53.9458614 154.000126,56.7367842 C158.42548,65.3667149 163.643463,75.5425689 161.313269,83.7791349 C160.596361,86.3143706 160.39132,89.0094108 160.188245,91.7182187 C159.493465,100.937705 158.781475,110.330763 139.678208,117.132039 C139.136348,120.44417 135.987463,123.734175 131.525724,126.595903 C126.24431,129.983757 119.041802,132.863679 112.279862,134.44943 C108.384568,135.361545 103.826946,135.19289 99.2098271,134.433204 C93.3418087,133.467002 87.3562725,131.54394 82.5350959,129.699551 C60.2086968,135.895537 44.7622469,121.807179 32.6815241,110.786083 C28.4789136,106.95176 24.692778,103.497034 21.256737,101.513492 C-0.553862638,88.9135281 -0.358655386,85.4435594 0.127641771,76.7983859 C0.210248366,75.3124506 0.304655903,73.6603187 0.27613696,71.8119961 C0.113382299,60.9133343 0.279087195,60.5106272 4.19208293,51.072332 L4.25354617,50.9238368 C5.62688081,47.6092472 6.54440406,44.5886977 7.40341431,41.7525379 C9.35204488,35.3298752 11.0287621,29.8021172 16.7296005,24.1022621 C18.9216255,21.9092537 20.5108191,20.1145271 21.9048054,18.5391013 M37.3045432,10.1348637 C29.8143869,13.2375281 27.4586238,15.8976571 23.7093661,20.1341953 C22.2440825,21.7887858 20.576216,23.6739863 18.4387703,25.8114319 C13.1499814,31.1002208 11.5573459,36.3496733 9.70607315,42.4502686 C8.8224776,45.3705101 7.87791052,48.479075 6.4814657,51.8502108 L6.41951076,51.998706 C2.68647939,61.0038082 2.52716667,61.388814 2.68402086,71.7829855 C2.7120481,73.7571847 2.61960739,75.4280015 2.53454226,76.9296714 C2.10675811,84.5206274 1.93564445,87.5667456 22.4658418,99.4262007 C26.1324929,101.54447 30.0056605,105.07836 34.3061205,109.002174 C46.0205224,119.687927 61.0165696,133.369644 82.2641659,127.271015 C82.5527973,127.188409 82.8478209,127.219878 83.1015411,127.336904 C87.8494535,129.168017 93.7966366,131.100913 99.596308,132.054331 C103.924795,132.767796 108.167726,132.933501 111.732102,132.098092 C118.248189,130.570362 125.166983,127.807958 130.222703,124.565649 C134.429247,121.868151 137.28655,118.912015 137.352439,116.217958 C137.363748,115.699208 137.703025,115.266015 138.165721,115.107194 C156.478324,108.801066 157.136227,100.088529 157.780362,91.5392377 C157.992778,88.7143872 158.206671,85.9013376 158.989958,83.1266411 C161.065941,75.7884219 156.082993,66.0728046 151.857764,57.8303382 C150.396414,54.9828692 149.020129,52.3006134 148.036225,49.9241987 C145.874194,44.7111325 142.957395,39.9715791 139.59806,35.5555682 C136.225449,31.1203808 132.3808,26.9792335 128.396016,22.9944487 C124.437783,19.0401497 120.26615,15.7270352 115.787201,12.873174 C111.2876,10.0030865 106.459539,7.57504267 101.211562,5.40121078 C93.5237398,2.21643152 91.1360159,2.29559617 85.1367119,2.49080343 C83.2726548,2.55128325 81.0762044,2.62454744 78.5326097,2.62454744 C72.5529739,2.62454744 64.5234162,3.49929227 56.7549544,4.91688045 C49.3641226,6.26464638 42.2142268,8.1006763 37.3045432,10.1348637" id="Fill-3" fill="#000000"></path>
                <path d="M37.7891685,125.180282 C39.1511939,124.723487 40.6228698,123.856609 40.9931243,122.358382 L45.7646386,100.010347 C45.0059364,102.713747 41.297982,103.369191 38.9112414,103.308219 C35.6841755,103.225612 31.4402617,101.848344 29.5216251,99.1356025 C28.9374785,98.3095366 28.6144277,97.3969304 28.7673483,96.3815577 L23.995834,118.7291 C23.6324633,120.724934 25.4325987,122.535396 26.9657378,123.526675 C29.9538347,125.458587 34.3654202,126.246792 37.7891685,125.180282" id="Fill-5" fill="#000000"></path>
                <path d="M40.7440261,124.910975 C40.0015502,125.561501 39.085502,126.012396 38.2166577,126.308894 L38.1478188,126.332496 C36.2876953,126.910742 34.1782769,126.998758 32.1411393,126.688983 C30.0622066,126.371833 28.0240856,125.631815 26.3665449,124.572681 L26.3144241,124.541212 C25.3270786,123.904452 24.2325412,122.953493 23.5269432,121.813719 C22.9368961,120.856367 22.60942,119.769697 22.7947931,118.605338 L27.5786,96.1717467 C27.6912007,95.5290871 28.2969824,95.0909771 28.9475093,95.1878432 C29.606887,95.2866761 30.0602398,95.9022919 29.9623903,96.5616695 C29.912728,96.8896374 29.9397719,97.1994121 30.024837,97.490502 C30.1177694,97.8101109 30.2878997,98.129228 30.5086756,98.4409696 C31.2482013,99.4878115 32.4268204,100.314369 33.7593435,100.914742 L33.8208067,100.938836 C35.4803142,101.676395 37.3478133,102.063859 38.938482,102.10467 C40.1628297,102.13614 41.7633325,101.963551 43.0009563,101.367112 C43.7606419,101.001774 44.3713407,100.468273 44.5950669,99.7144879 C44.7514294,99.089038 45.3783544,98.6941981 46.0146219,98.829909 C46.6666239,98.96857 47.0826072,99.6092628 46.9449295,100.260773 L42.1635811,122.646669 C41.932971,123.578943 41.411271,124.326336 40.7440261,124.910975 L40.7440261,124.910975 Z M37.4441877,124.02492 C38.0558698,123.815945 38.68427,123.51453 39.1504072,123.103464 C39.4641156,122.823191 39.7089851,122.490798 39.8122434,122.106284 L43.7483493,103.671737 C42.1778406,104.347341 40.3108332,104.548941 38.8829192,104.511571 C36.9987021,104.464859 34.7919259,104.008064 32.83887,103.140203 L32.7759316,103.108734 C31.3706361,102.476892 30.0838417,101.624274 29.1117391,100.548913 L25.1716995,119.000669 C25.0964685,119.522861 25.2724992,120.05587 25.5768652,120.54856 C26.0666043,121.339223 26.876444,122.032036 27.6179365,122.510958 L27.6661237,122.544394 C29.0325744,123.417664 30.7407608,124.031804 32.5005763,124.300276 C34.2004037,124.559405 35.9341588,124.494991 37.4299282,124.028854 L37.4441877,124.02492 Z" id="Fill-7" fill="#000000"></path>
                <path d="M36.8457815,9.02105144 C26.2273921,13.4193609 25.6048924,16.9350583 17.5841854,24.9567487 C9.56249502,32.9784391 9.76802809,40.768536 5.36775179,51.385942 C1.48425841,60.7539233 1.31806181,61.0936921 1.48032476,71.79813 C1.66520619,84.0873361 -3.20907462,85.9863044 21.8610436,100.469994 C35.3795145,108.278284 52.8970297,136.95654 82.595084,128.431835 C91.0573429,131.703646 103.331798,135.30785 112.006474,133.273663 C124.458926,130.351455 138.391414,122.989634 138.556135,116.246379 C138.840833,98.3163221 134.620521,95.5204822 135.467238,83.5803873 C135.860603,78.0191933 135.115669,68.8016741 127.588143,62.6661676 C120.708685,57.0617035 109.670379,52.1003907 109.114751,47.1587462 C108.153466,38.6158475 105.928989,38.6025715 97.9122152,30.5828479 C89.8949501,22.5631243 89.5128946,27.7353789 82.3551315,18.7406024 C73.7915812,7.98060171 66.653978,11.7760797 54.8707373,11.7760797 C43.0879882,11.7760797 47.0767067,4.78254639 36.8457815,9.02105144" id="Fill-9" fill="#D5DFFE"></path>
                <path d="M21.9048054,18.5391013 C25.8812312,14.0463843 28.3805724,11.224484 36.3880033,7.90694416 C42.5220347,5.36629966 44.1289297,6.50853252 46.3971691,8.12476989 C47.9199823,9.20947315 49.8268179,10.5680566 54.8692621,10.5680566 C57.4448178,10.5680566 59.7897633,10.3836669 61.973921,10.2150118 C70.1495154,9.57776089 76.2289674,9.1052315 83.3001903,17.9903575 C86.9073449,22.5238861 88.66126,23.2496441 90.6423431,24.0678427 C92.6249014,24.8870248 94.8100425,25.791272 98.6969779,29.6644395 L98.7658167,29.7283613 C100.502522,31.4645749 101.905851,32.7730044 103.093812,33.878851 C107.879094,38.3351818 109.506149,39.8486526 110.31353,47.026084 C110.620355,49.7693113 115.472509,52.9403228 120.609361,56.2962157 C123.271456,58.0378381 126.011734,59.8281394 128.347337,61.7320247 C131.684053,64.4506667 133.762986,67.7387042 135.017328,71.0709953 C136.74174,75.6507443 136.90892,80.3057242 136.670935,83.6655508 C136.278062,89.1992092 137.011195,92.7385085 137.853487,96.8137672 C138.811822,101.438261 139.907835,106.738851 139.759339,116.242052 L139.759339,116.274504 C139.671324,119.872316 136.372469,123.487338 131.525724,126.595903 C126.24431,129.983757 119.041802,132.863679 112.279862,134.44943 C108.384568,135.361545 103.826946,135.19289 99.2098271,134.433204 C93.3418087,133.467002 87.3562725,131.54394 82.5350959,129.699551 C60.2086968,135.895537 44.7622469,121.807179 32.6815241,110.786083 C28.4789136,106.95176 24.692778,103.497034 21.256737,101.513492 C-0.553862638,88.9135281 -0.358655386,85.4435594 0.127641771,76.7983859 C0.210248366,75.3124506 0.304655903,73.6603187 0.27613696,71.8119961 C0.113382299,60.9133343 0.279087195,60.5106272 4.19208293,51.072332 L4.25354617,50.9238368 C5.62688081,47.6092472 6.54440406,44.5886977 7.40341431,41.7525379 C9.35204488,35.3298752 11.0287621,29.8021172 16.7296005,24.1022621 C18.9216255,21.9092537 20.5108191,20.1145271 21.9048054,18.5391013 M37.3045432,10.1348637 C29.8143869,13.2375281 27.4586238,15.8976571 23.7093661,20.1341953 C22.2440825,21.7887858 20.576216,23.6739863 18.4387703,25.8114319 C13.1499814,31.1002208 11.5573459,36.3496733 9.70607315,42.4502686 C8.8224776,45.3705101 7.87791052,48.479075 6.4814657,51.8502108 L6.41951076,51.998706 C2.68647939,61.0038082 2.52716667,61.388814 2.68402086,71.7829855 C2.7120481,73.7571847 2.61960739,75.4280015 2.53454226,76.9296714 C2.10675811,84.5206274 1.93564445,87.5667456 22.4658418,99.4262007 C26.1324929,101.54447 30.0056605,105.07836 34.3061205,109.002174 C46.0205224,119.687927 61.0165696,133.369644 82.2641659,127.271015 C82.5527973,127.188409 82.8478209,127.219878 83.1015411,127.336904 C87.8494535,129.168017 93.7966366,131.100913 99.596308,132.054331 C103.924795,132.767796 108.167726,132.933501 111.732102,132.098092 C118.248189,130.570362 125.166983,127.807958 130.222703,124.565649 C134.429247,121.868151 137.28655,118.912015 137.352439,116.217958 C137.497001,106.978804 136.427048,101.807041 135.493299,97.295639 C134.613145,93.0409076 133.849034,89.346721 134.263051,83.4954205 C134.482843,80.3898059 134.33484,76.0996718 132.761381,71.9201714 C131.641275,68.9478091 129.790494,66.0172418 126.827474,63.6019823 C124.627581,61.8077474 121.917298,60.0376061 119.285688,58.3171271 C113.662048,54.642117 108.351132,51.1706732 107.91548,47.2916052 C107.208899,41.0051449 105.747549,39.6445946 101.450531,35.6435836 C100.196681,34.4762737 98.7186129,33.098022 97.0566469,31.4375311 L96.9971505,31.3726259 C93.4460503,27.8333267 91.4939778,27.0264373 89.7258033,26.2957623 C87.4319952,25.3487367 85.4037082,24.5084112 81.4115479,19.4900606 C75.1403305,11.6114566 69.6027384,12.042191 62.1543771,12.622404 C59.9102313,12.7954844 57.5003805,12.9847912 54.8692621,12.9847912 C49.064182,12.9847912 46.8043016,11.374946 44.9997409,10.089135 C43.3658021,8.92575884 42.2083263,8.10362653 37.3045432,10.1348637" id="Fill-11" fill="#000000"></path>
                <path d="M148.035094,44.4164531 C148.532209,44.8599719 148.576954,45.6235912 148.134419,46.1216893 C147.691884,46.6192957 146.927281,46.6635492 146.430166,46.2210139 C146.238893,46.0513753 146.040243,45.8900958 145.841103,45.7401255 C143.514842,43.9876856 140.818818,43.7157722 138.490591,44.118971 C136.164822,44.5231533 134.254052,45.5611445 133.44618,46.4678502 L133.333579,46.6089698 C132.932839,47.1405039 132.17512,47.245729 131.643586,46.8449887 C131.112052,46.4437566 131.006335,45.6865295 131.407567,45.1549954 L131.631293,44.8835737 C132.738123,43.6380826 135.199603,42.2416378 138.084442,41.7400978 C140.970264,41.2400329 144.335499,41.5935694 147.283768,43.8082129 C147.536996,43.9926026 147.78875,44.1991191 148.035094,44.4164531" id="Fill-13" fill="#000000"></path>
                <path d="M150.781321,89.5747251 C150.592014,90.2129593 149.919852,90.57633 149.280635,90.3865315 C148.642892,90.1972248 148.27903,89.5240793 148.468828,88.8863368 C150.613158,81.7157893 151.523797,76.5774624 150.421884,71.7139991 C149.318004,66.8372598 146.160761,62.0780382 140.173258,55.6465247 C139.719905,55.157769 139.74744,54.3946414 140.234229,53.9407968 C140.72151,53.487444 141.485621,53.5149795 141.939465,54.0017684 C148.228876,60.7587912 151.561658,65.8410636 152.773222,71.1863987 C153.987244,76.5459932 153.041202,82.0186801 150.781321,89.5747251" id="Fill-15" fill="#000000"></path>
                <path d="M151.969086,71.8932751 C152.632889,71.9316282 153.140821,72.5039739 153.101976,73.1677769 C153.063623,73.8310881 152.491769,74.3395121 151.827475,74.301159 C149.297648,74.1511887 146.019936,73.4455907 143.313587,71.8150939 C141.199251,70.5410838 139.420259,68.7045622 138.565674,66.1334319 C138.358174,65.5035566 138.700402,64.8210688 139.329785,64.6125855 C139.960644,64.4050856 140.643132,64.7473129 140.851123,65.3781716 C141.498208,67.3233603 142.891211,68.7429153 144.561044,69.7474705 C146.891731,71.1522743 149.751492,71.7614979 151.969086,71.8932751" id="Fill-17" fill="#000000"></path>
                <path d="M146.441525,105.43588 C146.022099,105.952663 145.262906,106.030352 144.746123,105.610927 C144.229831,105.191994 144.15165,104.432308 144.571075,103.916017 C145.056389,103.318594 145.522035,102.531865 146.002923,101.719566 C147.574415,99.0638626 149.298828,96.1514885 153.431124,95.8274543 C154.095419,95.7758251 154.678091,96.2729398 154.730211,96.9372345 C154.782332,97.6005458 154.284726,98.1827256 153.620431,98.2353382 C150.735592,98.4610312 149.34554,100.808435 148.079889,102.947848 C147.558189,103.828493 147.052223,104.681603 146.441525,105.43588" id="Fill-19" fill="#000000"></path>
                <path d="M95.3545577,56.0096495 C94.8058139,55.6349696 94.6632192,54.8836429 95.0388825,54.3348991 C95.4130707,53.7851719 96.164889,53.6435606 96.7136328,54.0187322 C100.987541,56.9443825 102.056018,61.6347653 103.259714,66.925521 C104.579944,72.7232255 106.081614,79.3111015 112.497885,84.6008738 C115.132445,86.7732306 117.625394,89.7175656 119.692034,92.9215214 C121.80932,96.2031667 123.495379,99.7798356 124.438963,103.096884 C124.620402,103.737577 124.248673,104.405805 123.607488,104.588228 C122.966795,104.769667 122.298567,104.398921 122.116144,103.758228 C121.236482,100.663431 119.653681,97.3119636 117.66178,94.2245421 C115.719542,91.213335 113.397707,88.4646989 110.967204,86.461489 C103.913683,80.6455914 102.315147,73.6284561 100.908376,67.4536132 C99.8158055,62.6540716 98.8471448,58.4013071 95.3545577,56.0096495" id="Fill-21" fill="#000000"></path>
                <path d="M104.126739,70.7315707 C104.111496,71.3958654 103.558327,71.9234658 102.894524,71.9072395 C102.231213,71.8919967 101.703612,71.3403026 101.718855,70.6760079 C101.761142,69.0455111 103.151686,66.5953405 105.068356,64.5306673 C106.760316,62.70693 108.910054,61.106919 110.942275,60.5640756 C111.585918,60.392962 112.248246,60.7750175 112.419359,61.4191522 C112.590473,62.0627953 112.208909,62.7251231 111.565266,62.8962368 C109.999674,63.3141868 108.25461,64.6427762 106.83358,66.1739485 C105.276839,67.8496823 104.154766,69.6783366 104.126739,70.7315707" id="Fill-23" fill="#000000"></path>
                <path d="M119.51384,94.6011889 C119.003449,95.0255311 118.24278,94.9557088 117.818929,94.4453181 C117.394587,93.9349273 117.46441,93.1742583 117.9748,92.7504078 C119.563502,91.4247686 120.537572,89.8876959 120.988958,88.0954278 C121.459028,86.2303872 121.388223,84.057047 120.881766,81.5345957 C120.752447,80.883577 121.174331,80.2487847 121.826333,80.119466 C122.477843,79.9896557 123.112635,80.412031 123.241954,81.0630497 C123.8202,83.9405127 123.890023,86.4590305 123.330461,88.6805578 C122.752215,90.9723991 121.520492,92.9274219 119.51384,94.6011889" id="Fill-25" fill="#000000"></path>
                <path d="M108.600181,80.9122435 C109.240874,81.0882742 109.617029,81.7525689 109.440506,82.3937534 C109.263492,83.0344462 108.599198,83.4115847 107.958013,83.2340788 C106.135751,82.7286052 103.751961,81.5096662 101.70253,79.9794773 C99.8960027,78.630728 98.3063175,77.010557 97.506312,75.3692426 C97.2147304,74.7698531 97.4640253,74.046062 98.0634148,73.7544804 C98.6628043,73.462407 99.385612,73.7117019 99.678177,74.3110915 C100.297235,75.5806762 101.617465,76.9023817 103.147162,78.0446145 C104.975325,79.4086068 107.050816,80.4829842 108.600181,80.9122435" id="Fill-27" fill="#000000"></path>
                <path d="M90.4589368,108.859431 C90.4255008,109.523234 89.8585639,110.0351 89.1942692,110.002648 C88.5299745,109.969212 88.0186003,109.401783 88.0510529,108.73798 C88.6037304,98.0015812 86.9653662,91.7829764 82.9633717,88.7594766 C78.9367919,85.715817 72.3223639,85.7202423 63.000603,87.4736656 C62.3461424,87.595117 61.7157754,87.1638909 61.594324,86.509922 C61.472381,85.854478 61.9031154,85.2246028 62.5580677,85.1031514 C72.5460901,83.2238514 79.7495818,83.3059662 84.4178379,86.8339562 C89.1116626,90.3816145 91.0563595,97.2389453 90.4589368,108.859431" id="Fill-29" fill="#000000"></path>
                <path d="M73.2286271,84.0257254 C73.7055818,84.4889124 73.7159076,85.2540068 73.2527206,85.7299781 C72.7905171,86.2069329 72.024931,86.2177504 71.5489596,85.7540717 C71.1954231,85.410861 70.730761,84.6487168 70.3437884,83.6441616 C69.7798017,82.1739609 69.2895709,80.0379903 69.4459334,77.7599168 C69.6057378,75.4228386 70.4308204,72.9259559 72.5028691,70.7953941 C73.7449183,69.5204007 75.4349115,68.3855434 77.6982339,67.5142405 C78.3177834,67.2777299 79.0145306,67.5884881 79.2515329,68.2080376 C79.4885352,68.8280787 79.1767936,69.5243343 78.5567524,69.7618283 C76.6543422,70.4934867 75.248555,71.432645 74.2307237,72.476045 C72.6208785,74.1321105 71.9792023,76.0861498 71.8528339,77.9197212 C71.7230235,79.8093471 72.1257307,81.5711294 72.5889177,82.7763006 C72.8500135,83.449446 73.0889826,83.8895228 73.2286271,84.0257254" id="Fill-31" fill="#000000"></path>
                <path d="M86.3841698,90.2816998 C85.7724877,90.538862 85.0659063,90.2512141 84.8082524,89.6400236 C84.5510902,89.027358 84.8377547,88.3202849 85.4504203,88.0631227 C86.5533167,87.5984606 88.0043409,86.8417252 89.0919944,85.6955587 C90.097533,84.6354407 90.7967388,83.1967092 90.569079,81.2746307 C90.4908977,80.6132863 90.9649022,80.0119299 91.6262467,79.9337487 C92.2875912,79.8570426 92.8889475,80.3310471 92.9671287,80.9923915 C93.2950966,83.7587291 92.2851326,85.8293027 90.8375504,87.3560496 C89.4696245,88.7992065 87.7117758,89.7216468 86.3841698,90.2816998" id="Fill-33" fill="#000000"></path>
                <path d="M125.221759,115.946635 C125.794596,115.608341 126.535105,115.797648 126.874382,116.370485 C127.212676,116.943814 127.023369,117.685307 126.45004,118.023109 C120.925232,121.29787 115.685122,123.255351 110.647595,123.075387 C105.531887,122.890014 100.709727,120.524417 96.1363701,115.142695 C95.7061274,114.634272 95.7705409,113.872619 96.2779814,113.442376 C96.7854219,113.012134 97.5465827,113.075564 97.9773171,113.583496 C102.064868,118.394838 106.298456,120.507207 110.73266,120.667012 C115.247012,120.830258 120.068681,119.001604 125.221759,115.946635" id="Fill-35" fill="#000000"></path>
                <path d="M108.326891,120.713674 C108.881535,120.347353 109.630895,120.498799 109.997708,121.053935 C110.363045,121.608579 110.211108,122.358431 109.656464,122.724752 C107.337579,124.259858 104.668107,125.498465 101.82113,125.969027 C99.3827601,126.37321 96.8229391,126.213897 94.2537756,125.208358 C93.6342262,124.966439 93.3283851,124.265758 93.5698127,123.646209 C93.8112403,123.026167 94.5124129,122.719835 95.1314707,122.961754 C97.2654744,123.797162 99.398003,123.927464 101.434157,123.591137 C103.903996,123.183513 106.258284,122.083075 108.326891,120.713674" id="Fill-37" fill="#000000"></path>
                <path d="M120.645845,118.700729 C121.27572,118.916588 121.613031,119.604976 121.397172,120.235835 C121.181805,120.865218 120.492925,121.201545 119.862066,120.986178 C117.995059,120.344993 116.211641,119.686107 114.664734,118.651066 C113.039155,117.562429 111.743509,116.102555 111.006934,113.913972 C110.796484,113.283113 111.136744,112.598658 111.767603,112.388208 C112.397478,112.177758 113.081933,112.517527 113.292383,113.148385 C113.834243,114.759706 114.797003,115.842442 116.005125,116.649332 C117.292411,117.509817 118.923399,118.11019 120.645845,118.700729" id="Fill-39" fill="#000000"></path>
                <path d="M127.733048,19.6886114 C128.388001,19.5691269 129.016893,20.0023198 129.136377,20.6562887 C129.255862,21.3107493 128.823652,21.9396412 128.1687,22.058634 C126.751603,22.3231718 125.652149,22.7494808 124.553678,23.173823 C122.504739,23.9644861 120.450392,24.7590829 116.487242,24.7590829 C115.509239,24.7590829 114.239163,24.4276731 112.803382,24.0505347 C111.111421,23.6089828 109.155907,23.0966252 107.417235,23.0966252 C106.74999,23.0966252 106.209113,22.5547653 106.209113,21.8875203 C106.209113,21.2212588 106.74999,20.6798906 107.417235,20.6798906 C109.436671,20.6798906 111.566249,21.2379768 113.409163,21.7188652 C114.671864,22.0497833 115.789512,22.3423483 116.487242,22.3423483 C120.022116,22.3423483 121.856671,21.6323249 123.685817,20.9267269 C124.889513,20.4610814 126.097635,19.9944525 127.733048,19.6886114" id="Fill-41" fill="#000000"></path>
                <path d="M130.667156,35.0099221 C131.331451,35.0645015 131.825615,35.6486481 131.772019,36.3129428 C131.71744,36.9772375 131.132802,37.471402 130.468999,37.417806 C129.171878,37.3106141 127.567934,36.999856 125.821394,36.6610706 C122.238825,35.9687487 118.00327,35.15055 115.050576,35.8541812 C114.402508,36.0071017 113.750014,35.6048863 113.59611,34.9573096 C113.442206,34.3082578 113.845405,33.6562557 114.493473,33.5033352 C117.943282,32.6807112 122.457142,33.5525058 126.273764,34.2910481 C127.946547,34.6150823 129.482637,34.9115809 130.667156,35.0099221" id="Fill-43" fill="#000000"></path>
                <path d="M126.00839,34.2937525 C126.669734,34.2263887 127.262732,34.7082606 127.329604,35.3691133 C127.397459,36.0304578 126.915587,36.6239468 126.254735,36.6908188 C125.358355,36.7837513 124.314463,37.2921752 123.335477,37.9269675 C121.708422,38.9802016 120.342463,40.3196085 119.961391,40.8324578 C119.565076,41.3659587 118.810307,41.4780677 118.276314,41.0822444 C117.74183,40.6869129 117.630213,39.9311609 118.025544,39.3971682 C118.502007,38.755492 120.143813,37.1220449 122.021638,35.9060562 C123.280897,35.0908078 124.683243,34.4314301 126.00839,34.2937525" id="Fill-45" fill="#000000"></path>
                <path d="M107.611016,6.3233069 C108.147467,5.93240069 108.900761,6.05188523 109.291667,6.5888281 C109.68159,7.12429585 109.563089,7.87758932 109.026146,8.26849553 C106.165892,10.3543121 103.860283,11.2113555 101.4642,11.3362488 C99.1143378,11.4591753 96.8097122,10.8730618 93.8284992,10.061747 C92.8470542,9.79671754 92.018038,9.64773064 91.2067232,9.56856599 C90.3968835,9.49185986 89.5211553,9.47661698 88.4880811,9.47661698 C87.8208362,9.47661698 87.279468,8.93475705 87.279468,8.26751212 C87.279468,7.60026718 87.8208362,7.05939066 88.4880811,7.05939066 C89.5354148,7.05939066 90.4534297,7.07758378 91.4329079,7.17100791 C92.4099276,7.26590715 93.3721961,7.43505399 94.4613247,7.72958584 C97.2370046,8.48533784 99.3715,9.03113141 101.342749,8.92885658 C103.267778,8.82854857 105.172647,8.1003321 107.611016,6.3233069" id="Fill-47" fill="#000000"></path>
                <path d="M101.392608,9.4643735 C101.699433,8.87580151 102.427649,8.64617485 103.016713,8.95398276 C103.605285,9.26179066 103.834911,9.99000713 103.527103,10.5780874 C102.565327,12.4131339 101.226411,13.6512494 99.7331006,14.5727063 C98.3002695,15.4567936 96.7681139,16.026189 95.2939795,16.5626402 C94.6680379,16.7893166 93.9752242,16.4662658 93.7495312,15.8408159 C93.5238382,15.2148743 93.8459056,14.523044 94.4713555,14.2963676 C95.834856,13.8002363 97.2480188,13.2760778 98.4684329,12.5237678 C99.6288589,11.8083356 100.662425,10.8559013 101.392608,9.4643735" id="Fill-49" fill="#000000"></path>
                <path d="M86.1055201,0.131401726 C86.7181857,-0.125760472 87.4252588,0.161887493 87.682421,0.773077955 C87.9395832,1.38574353 87.6519352,2.09281665 87.0402531,2.34997885 C84.6721973,3.3506004 83.3160724,4.222395 82.1585967,4.96437924 C80.1052327,6.28362623 78.6158555,7.23901084 73.7533756,7.92739913 C73.0930146,8.01836473 72.4842826,7.55763628 72.393317,6.89875034 C72.3018597,6.2393727 72.7625882,5.62965735 73.4219658,5.53967517 C77.7519282,4.92700959 79.0569157,4.08865099 80.855576,2.93412549 C82.0774652,2.14985454 83.5112797,1.22790593 86.1055201,0.131401726" id="Fill-51" fill="#000000"></path>
                <path d="M48.0194544,69.9892914 C47.4859535,70.3856064 46.7302015,70.2730057 46.3343783,69.7390131 C45.9395384,69.2055122 46.0506639,68.4492685 46.5846566,68.0544286 C55.5986095,61.3451013 57.1597758,55.6319702 58.7627372,49.7629683 C60.2948928,44.1575208 61.8644181,38.4119371 69.2552498,31.6047603 C70.4550123,30.4998971 71.5116883,29.3252116 72.1086193,27.9130322 C72.6962079,26.5234713 72.8692884,24.8270858 72.346605,22.6104755 C72.1956513,21.9614237 72.5998335,21.3113885 73.2488853,21.1609265 C73.8979372,21.0099728 74.546989,21.4151384 74.6979427,22.0632068 C75.3489613,24.825119 75.1040918,27.0053431 74.3271964,28.8462901 C73.5586601,30.6626517 72.3003846,32.0792565 70.8886969,33.3798187 C64.0008803,39.7243002 62.5247792,45.1256897 61.0855559,50.3957938 C59.3714691,56.673895 57.7006524,62.7838328 48.0194544,69.9892914" id="Fill-53" fill="#000000"></path>
                <path d="M45.0070673,51.3183325 C44.7022096,51.9088713 43.9749766,52.1419399 43.383946,51.8380656 C42.7934072,51.533208 42.5603386,50.8049915 42.8647046,50.213961 C45.1054085,45.8687557 45.9521261,41.6804047 46.744756,37.7497075 C47.7896311,32.5735193 48.7514079,27.8133142 52.5326264,23.4671256 C52.9668028,22.9641104 53.7284552,22.9095311 54.2309787,23.3441991 C54.7335021,23.7788672 54.7885732,24.5395362 54.3534135,25.0430431 C50.9852279,28.9162106 50.0844226,33.3735248 49.1059279,38.2217452 C48.2788785,42.3176556 47.3977415,46.6815456 45.0070673,51.3183325" id="Fill-55" fill="#000000"></path>
                <path d="M49.3447986,38.5203091 C48.7876958,38.8826963 48.0407945,38.7238753 47.6784072,38.1672642 C47.31602,37.609178 47.474841,36.861785 48.0329272,36.4993977 C49.2385901,35.7156185 50.1865991,35.1526152 51.007748,34.6658263 C52.7242934,33.6489785 53.8680014,32.9684575 55.1823313,31.5562781 C55.6351925,31.0675224 56.3993035,31.041462 56.886584,31.4943231 C57.3733729,31.947676 57.4009084,32.7112953 56.9475556,33.1990676 C55.3972068,34.8679175 54.1325392,35.6182607 52.2345543,36.7423004 C51.4084883,37.2335147 50.4516286,37.801435 49.3447986,38.5203091" id="Fill-57" fill="#000000"></path>
                <path d="M28.6486996,69.7617299 C28.8050621,70.4073398 28.4067803,71.0598336 27.7606787,71.2157043 C27.1155606,71.3705917 26.4625751,70.973785 26.3067043,70.3276834 C24.0242054,60.931675 27.0835997,55.5691302 30.3785211,49.7974861 C33.0066892,45.1892181 35.7985954,40.2972359 35.7985954,32.6969375 C35.7985954,32.0296925 36.3389803,31.488816 37.0067169,31.488816 C37.6739618,31.488816 38.2158218,32.0296925 38.2158218,32.6969375 C38.2158218,40.9256361 35.259194,46.1047746 32.4741717,50.986431 C29.4241199,56.3307826 26.5923855,61.2955373 28.6486996,69.7617299" id="Fill-59" fill="#000000"></path>
                <path d="M31.3321355,52.7036156 C31.2219934,53.360043 30.5970352,53.8011032 29.9396244,53.6899776 C29.2836887,53.5783604 28.8431201,52.9538939 28.9547374,52.2974665 C29.7158982,47.8411357 29.8609514,44.7143777 29.3240085,42.1137451 C28.7988666,39.5662167 27.5873032,37.4459808 25.6386726,34.9776171 C25.2271148,34.4559171 25.3161136,33.6977065 25.8368301,33.2876238 C26.3580384,32.8760659 27.1157572,32.9650647 27.5268234,33.4857813 C29.7090143,36.2481852 31.0715314,38.659511 31.6856721,41.6333484 C32.2889953,44.5545733 32.1449254,47.949311 31.3321355,52.7036156" id="Fill-61" fill="#000000"></path>
                <path d="M26.6104311,26.0959821 C26.2308341,26.6398089 25.478524,26.7735529 24.9337139,26.3939559 C24.3898871,26.014359 24.2561431,25.2615572 24.6357401,24.716747 C26.6448505,21.8471513 28.8157321,19.4987638 31.4011219,17.8535158 C34.032732,16.1787654 37.0562317,15.2450158 40.7159989,15.2450158 C41.3832438,15.2450158 41.9236286,15.7868758 41.9236286,16.4531373 C41.9236286,17.1203822 41.3832438,17.6622422 40.7159989,17.6622422 C37.5371201,17.6622422 34.935504,18.4578223 32.6948001,19.8837695 C30.4064008,21.3411859 28.4474444,23.4702725 26.6104311,26.0959821" id="Fill-63" fill="#000000"></path>
                <path d="M10.6550164,62.5724485 C10.0143236,62.7465124 9.35199571,62.3678988 9.17793181,61.7267143 C9.00337621,61.0855297 9.38100636,60.4232019 10.0221909,60.2496297 C12.3686115,59.6094286 14.4170584,57.6076938 15.7820341,55.0896677 C17.2104398,52.4575659 17.868834,49.2963885 17.3392667,46.5452939 C17.2143734,45.8898499 17.6441244,45.2580078 18.2990767,45.1336062 C18.9530456,45.0092046 19.5848877,45.4384639 19.7107644,46.0924328 C20.3465401,49.4035804 19.5834125,53.1533298 17.9071871,56.2427181 C16.2521049,59.2957202 13.6804829,61.7468742 10.6550164,62.5724485" id="Fill-65" fill="#000000"></path>
                <path d="M22.6117802,99.5253778 C23.1334801,99.9384108 23.2205121,100.69908 22.806004,101.219796 C22.3919876,101.741005 21.6327937,101.828037 21.1110937,101.41402 C17.1651537,98.2852955 15.3566593,95.1855813 14.7287508,91.5351566 C14.1210023,87.9983159 14.6608954,84.0631934 15.412222,79.0733617 C15.5105632,78.4144757 16.126179,77.9606312 16.785065,78.0594641 C17.4459177,78.1578052 17.8982872,78.7734211 17.799946,79.4337821 C17.0810719,84.2077549 16.5628139,87.9624213 17.1076241,91.1290075 C17.632766,94.182993 19.1904903,96.8116528 22.6117802,99.5253778" id="Fill-67" fill="#000000"></path>
                <path d="M39.3255529,78.850373 C39.2665481,78.1890286 39.7548121,77.6019317 40.4161566,77.5434187 C41.0775011,77.484414 41.6645979,77.972678 41.7231109,78.6340224 C41.9306108,80.9396315 42.550652,83.179352 43.4952191,85.2946709 C45.7231386,90.2864694 49.7590608,94.5879128 54.5231995,97.5273308 C59.2740621,100.457898 64.7339647,102.025457 69.8275464,101.563745 C71.7299566,101.391648 73.5871298,100.931411 75.3346527,100.152057 C75.9414178,99.8821105 76.6553748,100.154024 76.9253214,100.761772 C77.196743,101.368046 76.9238462,102.082494 76.3170811,102.352441 C74.324197,103.241445 72.2103533,103.765112 70.043897,103.961795 C64.4182895,104.469727 58.4327533,102.767933 53.2595153,99.5772528 C48.1015202,96.3954238 43.7223872,91.7193004 41.2948351,86.2770993 C40.2470098,83.9296952 39.5586215,81.4337959 39.3255529,78.850373" id="Fill-69" fill="#000000"></path>
                <path d="M56.5626482,100.827759 C56.4230037,100.175266 56.8360367,99.5311308 57.4880387,99.391978 C58.1390574,99.2508584 58.7831921,99.6648748 58.92382,100.317369 C59.8029902,104.318871 61.5052761,107.827193 63.7086103,110.646635 C66.0220867,113.605229 68.8847986,115.806597 71.920591,117.017669 C72.5371902,117.262046 72.840081,117.963219 72.5961949,118.58031 C72.3508336,119.196909 71.6501527,119.499308 71.0335535,119.254439 C67.6039047,117.885529 64.3876562,115.42405 61.8121006,112.129128 C59.3884821,109.030397 57.5195079,105.189683 56.5626482,100.827759" id="Fill-71" fill="#000000"></path>
                <path d="M30.2769346,90.5599562 C30.1077878,89.9158215 30.4927935,89.2569355 31.1369283,89.0868053 C31.7795879,88.9176584 32.439949,89.3026642 32.6086041,89.9463072 C33.9367018,94.9921934 36.4871804,97.2633831 40.0490981,100.434886 L40.8146842,101.123275 C41.3098321,101.56581 41.3526105,102.327954 40.9100752,102.82261 C40.4665565,103.317758 39.7053957,103.360045 39.2097561,102.917509 L38.4466285,102.236005 C34.5665771,98.7871797 31.7908972,96.3163575 30.2769346,90.5599562" id="Fill-73" fill="#000000"></path>
                <path d="M71.5236368,58.7477139 C71.2994189,59.3736556 70.6100472,59.6986732 69.9845972,59.4759304 C69.3586556,59.2522042 69.033638,58.5618491 69.2573642,57.9359075 C71.2571322,52.3525867 74.4758391,48.3471503 78.5132365,45.680629 C82.9341644,42.761371 88.3060516,41.4642508 94.1150654,41.4642508 C94.7823103,41.4642508 95.3231868,42.005619 95.3231868,42.6728639 C95.3231868,43.3401089 94.7823103,43.8809854 94.1150654,43.8809854 C88.7574377,43.8809854 83.8384116,45.0532123 79.8437927,47.6917063 C76.2272956,50.0809053 73.334098,53.6929771 71.5236368,58.7477139" id="Fill-75" fill="#000000"></path>
                <path d="M79.1290981,47.7246997 C79.0459998,48.3840774 78.4436601,48.8507063 77.7842824,48.767608 C77.1249048,48.6845097 76.6582759,48.0821699 76.7413742,47.4227923 C76.997553,45.3940137 77.5423631,43.3199981 78.4392347,41.3059706 C79.2594002,39.4630568 80.371639,37.6698053 81.8216798,36.0019388 C82.2558561,35.4989237 83.0175086,35.4443443 83.5195403,35.8785206 C84.0230472,36.3141721 84.0776265,37.0753329 83.6419751,37.5778563 C82.351247,39.0652667 81.3619347,40.6559354 80.6396187,42.2829903 C79.84158,44.0801754 79.3577414,45.9230892 79.1290981,47.7246997" id="Fill-77" fill="#000000"></path>
                <polygon id="Fill-79" fill="#000000" points="189.064807 149.525527 185.404548 147.418076 184.656663 146.660848 184.361148 145.174913 184.371474 137.445296 188.033699 139.567007 188.033699 147.285807 188.31643 148.778626"></polygon>
                <path d="M189.064807,150.643175 C188.875992,150.643175 188.676851,150.596463 188.50672,150.493204 L184.84302,148.382311 C184.759921,148.325765 184.683707,148.26971 184.616343,148.202838 L183.869442,147.445119 C183.710129,147.295149 183.606871,147.095516 183.556225,146.876216 L183.273986,145.383396 L183.264644,137.445296 C183.264644,137.046523 183.473127,136.687577 183.82273,136.481552 C184.154631,136.292737 184.580449,136.292737 184.92956,136.481552 L188.589819,138.59933 C188.94188,138.798471 189.151347,139.168234 189.151347,139.567007 L189.141021,147.285807 L189.340162,148.219065 L189.849569,148.740764 C190.238509,149.141013 190.285712,149.765971 189.945452,150.208015 C189.726151,150.493204 189.39425,150.643175 189.064807,150.643175 L189.064807,150.643175 Z M186.086052,146.528088 L186.937687,147.019302 L186.927853,140.197866 L185.478795,139.376717 L185.478795,145.174913 L185.677936,146.111613 L186.086052,146.528088 Z" id="Fill-81" fill="#000000"></path>
                <polygon id="Fill-83" fill="#7BCCEC" points="188.033896 139.566761 184.37167 137.445542 190.976264 133.632854 194.636523 135.750632"></polygon>
                <path d="M188.033896,140.673837 C187.845081,140.673837 187.655282,140.623191 187.486136,140.520425 L183.822435,138.40904 C183.473324,138.213341 183.264349,137.841611 183.264349,137.445296 C183.264349,137.046523 183.473324,136.687577 183.822435,136.481061 L190.42752,132.668865 C190.767781,132.478575 191.192123,132.478575 191.53435,132.668865 L195.194609,134.786642 C195.544212,134.986275 195.754171,135.354562 195.754171,135.750877 C195.754171,136.149651 195.544212,136.517447 195.194609,136.718063 L188.590015,140.520425 C188.419885,140.623191 188.23107,140.673837 188.033896,140.673837 L188.033896,140.673837 Z M186.595164,137.445296 L188.033896,138.276771 L192.416471,135.750877 L190.976264,134.919403 L186.595164,137.445296 Z" id="Fill-85" fill="#000000"></path>
                <polygon id="Fill-87" fill="#000000" points="164.126712 163.917219 160.463011 161.799441 159.718568 161.051065 159.432395 159.555787 159.442721 151.826662 163.096096 153.944439 163.096096 161.676023 163.378335 163.158516"></polygon>
                <path d="M164.126712,165.024295 C163.936913,165.024295 163.748098,164.977582 163.577968,164.874324 L159.914267,162.754088 C159.821826,162.712785 159.745612,162.65083 159.67874,162.583958 L158.930363,161.826239 C158.771051,161.676269 158.667792,161.467294 158.627964,161.24701 L158.345233,159.764516 L158.325073,151.826416 C158.325073,151.427642 158.535032,151.068697 158.883651,150.85923 C159.225879,150.672382 159.651696,150.672382 159.990481,150.869556 L163.654182,152.98045 C164.003785,153.179591 164.20981,153.547878 164.20981,153.944193 L164.20981,161.676269 L164.398625,162.611002 L164.920817,163.132702 C165.309756,163.528033 165.35696,164.152992 165.014732,164.588151 C164.788056,164.874324 164.458613,165.024295 164.126712,165.024295 L164.126712,165.024295 Z M161.144515,160.908224 L161.999592,161.400422 L161.988774,154.589311 L160.550043,153.754395 L160.550043,159.556033 L160.738858,160.502075 L161.144515,160.908224 Z" id="Fill-89" fill="#000000"></path>
                <polygon id="Fill-91" fill="#7BCCEC" points="163.095948 153.944292 159.443065 151.826514 166.047659 148.023169 169.707918 150.134062"></polygon>
                <path d="M163.095948,155.051417 C162.90615,155.051417 162.717335,155.004705 162.547205,154.901446 L158.883504,152.790553 C158.535376,152.59092 158.325418,152.231975 158.325418,151.826317 C158.325418,151.436886 158.535376,151.06909 158.883504,150.859132 L165.489573,147.059229 C165.828358,146.860088 166.254176,146.860088 166.603778,147.059229 L170.266004,149.16668 C170.60479,149.365821 170.814748,149.735584 170.814748,150.134357 C170.814748,150.530672 170.60479,150.89896 170.266004,151.098101 L163.654035,154.911772 C163.481938,155.004705 163.291647,155.051417 163.095948,155.051417 L163.095948,155.051417 Z M161.666559,151.826317 L163.095948,152.657792 L167.484424,150.134357 L166.047659,149.309767 L161.666559,151.826317 Z" id="Fill-93" fill="#000000"></path>
                <polygon id="Fill-95" fill="#000000" points="139.198205 178.297208 135.534504 176.176972 134.776785 175.432037 134.503888 173.935776 134.503888 166.216976 138.163655 168.324428 138.163655 176.053553 138.449828 177.539489"></polygon>
                <path d="M139.198205,179.414855 C139.008406,179.414855 138.808774,179.358309 138.638643,179.261443 L134.976418,177.144649 C134.893319,177.097445 134.806287,177.030573 134.739415,176.965176 L133.992514,176.2168 C133.842544,176.053553 133.729943,175.857854 133.689623,175.638554 L133.407384,174.145734 L133.387224,166.216976 C133.387224,165.818203 133.606525,165.448932 133.94531,165.249299 C134.294913,165.0536 134.713847,165.0536 135.061974,165.249299 L138.721742,167.37101 C139.064461,167.570151 139.281303,167.929096 139.281303,168.324428 L139.281303,176.053553 L139.470118,177.001562 L139.982967,177.512445 C140.370923,177.90876 140.417635,178.53421 140.075408,178.96937 C139.859549,179.251609 139.526664,179.414855 139.198205,179.414855 L139.198205,179.414855 Z M136.216008,175.289442 L137.067151,175.780657 L137.056825,168.969546 L135.621536,168.135613 L135.621536,173.935776 L135.810351,174.883293 L136.216008,175.289442 Z" id="Fill-97" fill="#000000"></path>
                <polygon id="Fill-99" fill="#7BCCEC" points="138.163852 168.32433 134.503593 166.216878 141.10622 162.40419 144.779264 164.511642"></polygon>
                <path d="M138.163852,169.441977 C137.968153,169.441977 137.78868,169.395265 137.615108,169.291515 L133.945507,167.171771 C133.606722,166.981481 133.387421,166.602867 133.387421,166.216878 C133.387421,165.818105 133.606722,165.448833 133.945507,165.249201 L140.560918,161.437005 C140.899704,161.240814 141.325521,161.240814 141.664307,161.437005 L145.328007,163.547898 C145.676135,163.757857 145.886094,164.116802 145.886094,164.511642 C145.886094,164.921233 145.676135,165.280178 145.328007,165.479319 L138.721938,169.291515 C138.553283,169.395265 138.362993,169.441977 138.163852,169.441977 L138.163852,169.441977 Z M136.728562,166.216878 L138.163852,167.048353 L142.544952,164.511642 L141.10622,163.680167 L136.728562,166.216878 Z" id="Fill-101" fill="#000000"></path>
                <path d="M144.779214,164.511839 L144.769872,172.243423 C144.769872,177.287342 138.156919,181.096588 138.163798,176.053652 L138.163798,168.324526 L144.779214,164.511839 Z" id="Fill-103" fill="#3D68EC"></path>
                <path d="M139.859598,179.537978 C139.366909,179.537978 138.901263,179.423902 138.497081,179.188375 C137.834262,178.809762 137.056875,177.948785 137.056875,176.05375 L137.056875,168.324133 C137.056875,167.929293 137.266833,167.570348 137.614961,167.360389 L144.22103,163.547702 C144.559815,163.357903 144.985633,163.357903 145.337202,163.547702 C145.676479,163.75766 145.885946,164.116605 145.885946,164.511937 L145.885946,172.243521 C145.885946,175.278822 143.878311,177.825858 142.026546,178.89286 C141.278662,179.318677 140.541103,179.537978 139.859598,179.537978 L139.859598,179.537978 Z M139.281352,168.969251 L139.281352,176.05375 C139.281352,176.802126 139.450499,177.161072 139.613254,177.267772 C139.803052,177.369555 140.285416,177.323826 140.910374,176.964881 C142.278791,176.176677 143.652126,174.305244 143.652126,172.243521 L143.662452,166.443358 L139.281352,168.969251 Z" id="Fill-105" fill="#000000"></path>
                <path d="M169.707721,150.134259 L169.707721,157.863876 C169.707721,162.90632 163.095752,166.719008 163.095752,161.676072 L163.095752,153.944488 L169.707721,150.134259 Z" id="Fill-107" fill="#3D68EC"></path>
                <path d="M164.797546,165.156809 C163.956729,165.156809 163.208352,164.807206 162.706812,164.172906 C162.235266,163.567616 161.979579,162.723357 161.979579,161.676023 L161.988922,153.944439 C161.988922,153.548124 162.195438,153.179836 162.547008,152.980204 L169.149635,149.166533 C169.491862,148.970834 169.91768,148.970834 170.265807,149.166533 C170.605085,149.366165 170.815043,149.735436 170.815043,150.13421 L170.815043,157.863827 C170.815043,161.723227 167.447841,165.156809 164.797546,165.156809 L164.797546,165.156809 Z M164.209957,154.589066 L164.209957,161.676023 C164.209957,162.933315 164.645117,162.933315 164.797546,162.933315 C166.08434,162.933315 168.591549,160.632623 168.591549,157.863827 L168.591549,152.062189 L164.209957,154.589066 Z" id="Fill-109" fill="#000000"></path>
                <path d="M194.636376,135.750681 L194.636376,143.472922 C194.636376,148.515858 188.033749,152.338872 188.033749,147.28561 L188.033749,139.56681 L194.636376,135.750681 Z" id="Fill-111" fill="#3D68EC"></path>
                <path d="M189.736772,150.775689 L189.736772,150.775689 C188.373763,150.775689 186.91733,149.858658 186.91733,147.285561 L186.928148,139.556435 C186.928148,139.167988 187.133189,138.798717 187.486234,138.599576 L194.087386,134.786888 C194.430105,134.587255 194.855431,134.587255 195.194708,134.786888 C195.543819,134.986029 195.754269,135.354317 195.754269,135.750632 L195.754269,143.473365 C195.743452,147.342107 192.386083,150.775689 189.736772,150.775689 L189.736772,150.775689 Z M189.151642,140.19762 L189.140824,147.285561 C189.140824,148.552195 189.58336,148.552195 189.736772,148.552195 C191.012749,148.552195 193.5293,146.254945 193.5293,143.473365 L193.5293,137.682052 L189.151642,140.19762 Z" id="Fill-113" fill="#000000"></path>
                <polygon id="Fill-115" fill="#7BCCEC" points="208.923678 45.8262723 205.270795 43.7188208 211.958487 39.8584376 213.388368 39.3564058 214.418983 39.6293026 218.082684 41.7500302 217.048135 41.4741832 215.622188 41.976215"></polygon>
                <path d="M208.923678,46.9426415 C208.734863,46.9426415 208.545064,46.8959294 208.375918,46.7902126 L204.712217,44.682761 C204.363106,44.482145 204.154131,44.1138573 204.154131,43.7190174 C204.154131,43.3187688 204.363106,42.9504811 204.712217,42.7513402 L211.400401,38.8919404 L213.029422,38.3127108 C213.228563,38.2399383 213.465566,38.2305959 213.671099,38.2866504 L214.705156,38.5624974 C214.788254,38.5787237 214.884629,38.6185519 214.967727,38.6750981 L218.631428,40.7835331 C219.1133,41.0682308 219.318833,41.6538526 219.102974,42.1755525 C218.893016,42.6844682 218.318703,42.970641 217.787169,42.8167371 L217.098781,42.6377561 L215.981133,43.0271872 L209.483239,46.7902126 C209.309667,46.8959294 209.120852,46.9426415 208.923678,46.9426415 L208.923678,46.9426415 Z M207.484946,43.7190174 L208.923678,44.549017 L214.817757,41.1518208 L213.983824,40.6694573 L213.43508,40.5303045 L212.318907,40.9162937 L207.484946,43.7190174 Z" id="Fill-117" fill="#000000"></path>
                <polygon id="Fill-119" fill="#7BCCEC" points="208.923678 53.4618261 205.261452 51.3509326 205.270795 43.7186732 208.923678 45.8261248"></polygon>
                <path d="M208.923678,54.5783427 C208.734863,54.5783427 208.545064,54.5326141 208.375918,54.4259139 L204.712217,52.3150204 C204.363106,52.1188297 204.143805,51.7495586 204.143805,51.3507851 L204.154131,43.7190174 C204.154131,43.3187688 204.363106,42.9504811 204.712217,42.7513402 C205.054936,42.5517076 205.480753,42.5517076 205.819538,42.7513402 L209.483239,44.8715761 C209.831367,45.0712087 210.037884,45.4296623 210.037884,45.826469 L210.037884,53.4616786 C210.037884,53.8604521 209.831367,54.2297232 209.483239,54.4259139 C209.309667,54.5326141 209.120852,54.5783427 208.923678,54.5783427 L208.923678,54.5783427 Z M206.377625,50.7096005 L207.816356,51.5396001 L207.816356,46.4710955 L206.377625,45.6469964 L206.377625,50.7096005 Z" id="Fill-121" fill="#000000"></path>
                <polygon id="Fill-123" fill="#7BCCEC" points="208.914237 74.6341914 205.25447 72.516414 211.949538 68.6570142 213.378927 68.1549825 214.402659 68.4372217 218.062918 70.5486069 217.039186 70.2727599 215.602421 70.7747916"></polygon>
                <path d="M208.914237,75.7412673 C208.724439,75.7412673 208.535624,75.6945552 208.365493,75.591297 L204.701793,73.4799118 C204.353665,73.2807709 204.143706,72.9114997 204.143706,72.5161682 C204.143706,72.1173947 204.353665,71.7481235 204.701793,71.5524246 L211.39096,67.6890911 L213.009656,67.1147786 C213.228957,67.0277467 213.455141,67.0277467 213.661658,67.0842928 L214.68539,67.3611233 C214.788648,67.3807915 214.874205,67.4171777 214.957303,67.4737239 L218.621004,69.5846175 C219.102876,69.8673484 219.309392,70.4618208 219.093533,70.9741784 C218.876691,71.4855526 218.309262,71.7677917 217.780187,71.6247053 L217.088356,71.436382 L215.971692,71.8243379 L209.472323,75.6016228 C209.303668,75.6945552 209.11387,75.7412673 208.914237,75.7412673 L208.914237,75.7412673 Z M207.474031,72.5161682 L208.914237,73.3476429 L214.808316,69.9538886 L213.973399,69.4720168 L213.418755,69.3181128 L212.307991,69.704102 L207.474031,72.5161682 Z" id="Fill-125" fill="#000000"></path>
                <polygon id="Fill-127" fill="#7BCCEC" points="208.914237 82.2591735 205.25447 80.1423795 205.25447 72.5165124 208.914237 74.6342898"></polygon>
                <path d="M208.914237,83.3768211 C208.724439,83.3768211 208.535624,83.3202749 208.356151,83.2234088 L204.69245,81.1066148 C204.353665,80.9163246 204.143706,80.5480369 204.143706,80.1423795 L204.143706,72.5165124 C204.143706,72.1177389 204.353665,71.747976 204.701793,71.552277 C205.04402,71.3526444 205.460495,71.3526444 205.809114,71.552277 L209.472323,73.6700545 C209.821926,73.8696871 210.030901,74.2286324 210.030901,74.6342898 L210.021559,82.2591735 C210.021559,82.6589304 209.811601,83.0272182 209.472323,83.2234088 C209.303668,83.3202749 209.11387,83.3768211 208.914237,83.3768211 L208.914237,83.3768211 Z M206.368184,79.5070955 L207.807407,80.3311946 L207.807407,75.2794079 L206.368184,74.4439996 L206.368184,79.5070955 Z" id="Fill-129" fill="#000000"></path>
                <polygon id="Fill-131" fill="#7BCCEC" points="208.903715 103.425737 205.243948 101.314843 211.933115 97.4554434 213.368404 96.9534116 214.392136 97.2292587 218.052395 99.3460527 217.032105 99.0736476 215.602224 99.5722374"></polygon>
                <path d="M208.903715,104.542253 C208.7149,104.542253 208.515759,104.493083 208.355954,104.389825 L204.68537,102.278931 C204.343142,102.081757 204.127283,101.713469 204.127283,101.314696 C204.127283,100.914939 204.343142,100.550093 204.68537,100.350952 L211.374537,96.4915523 L213.000117,95.9029803 C213.219418,95.8356166 213.444619,95.8267659 213.654577,95.8828203 L214.685193,96.1581757 C214.768783,96.1783356 214.864666,96.2250477 214.947764,96.2614339 L218.611465,98.3816698 C219.093337,98.6550583 219.302312,99.2529727 219.083011,99.7717225 C218.876494,100.28408 218.29874,100.566811 217.769664,100.416841 L217.078817,100.237368 L215.96117,100.61254 L209.463276,104.389825 C209.293146,104.493083 209.103347,104.542253 208.903715,104.542253 L208.903715,104.542253 Z M207.454166,101.314696 L208.903715,102.148629 L214.797794,98.7415986 L213.956976,98.2690692 L213.418558,98.1166403 L212.301403,98.505088 L207.454166,101.314696 Z" id="Fill-133" fill="#000000"></path>
                <polygon id="Fill-135" fill="#7BCCEC" points="208.903715 111.057849 205.243948 108.950397 205.243948 101.314696 208.903715 103.425589"></polygon>
                <path d="M208.903715,112.174218 C208.704574,112.174218 208.515759,112.118163 208.345628,112.025231 L204.68537,109.904011 C204.3338,109.704379 204.127283,109.336091 204.127283,108.950594 L204.127283,101.314892 C204.127283,100.915135 204.343142,100.55029 204.68537,100.350657 C205.034972,100.160859 205.449972,100.150533 205.799575,100.350657 L209.463276,102.467451 C209.802061,102.657741 210.021362,103.036355 210.021362,103.425786 L210.021362,111.058045 C210.021362,111.456819 209.802061,111.82609 209.463276,112.025231 C209.283803,112.118163 209.093513,112.174218 208.903715,112.174218 L208.903715,112.174218 Z M206.357661,108.305475 L207.796885,109.130066 L207.796885,104.076805 L206.357661,103.235987 L206.357661,108.305475 Z" id="Fill-137" fill="#000000"></path>
                <path d="M208.903715,103.425737 L215.602224,99.5722374 C219.963656,97.0458524 219.954314,104.681554 215.592882,107.198596 L208.903715,111.057996 L208.903715,103.425737 Z" id="Fill-139" fill="#3D68EC"></path>
                <path d="M208.903715,112.174218 C208.704574,112.174218 208.515759,112.118163 208.345628,112.025231 C207.997009,111.82609 207.796885,111.456819 207.796885,111.058045 L207.796885,103.425786 C207.796885,103.036355 208.006843,102.657741 208.355954,102.467451 L215.044138,98.6080512 C217.267632,97.3217486 218.790937,98.1261794 219.461624,99.2998815 C220.784805,101.597623 219.498011,106.23441 216.150968,108.165831 L209.463276,112.025231 C209.283803,112.118163 209.093513,112.174218 208.903715,112.174218 L208.903715,112.174218 Z M210.021362,104.076805 L210.021362,109.130066 L215.044138,106.243753 C217.447105,104.844849 218.186139,101.523376 217.541021,100.416546 C217.477591,100.293619 217.25829,99.8948456 216.150968,100.53013 L210.021362,104.076805 Z" id="Fill-141" fill="#000000"></path>
                <path d="M208.914237,74.6341914 L215.602421,70.7747916 C219.974179,68.2474232 219.974179,75.8841079 215.602421,78.3996754 L208.914237,82.2590752 L208.914237,74.6341914 Z" id="Fill-143" fill="#3D68EC"></path>
                <path d="M208.914237,83.3768211 C208.724439,83.3768211 208.535624,83.3202749 208.356151,83.2234088 C208.017366,83.0272182 207.807407,82.6589304 207.807407,82.2591735 L207.807407,74.6342898 C207.807407,74.2286324 208.017366,73.8696871 208.365493,73.6700545 L215.053677,69.8106547 C217.267337,68.524352 218.791134,69.3287829 219.472147,70.5015015 C220.80467,72.7987516 219.508533,77.4360301 216.160507,79.3635173 L209.472323,83.2234088 C209.303668,83.3202749 209.11387,83.3768211 208.914237,83.3768211 L208.914237,83.3768211 Z M210.030901,75.2794079 L210.021559,80.3311946 L215.053677,77.4360301 C217.457628,76.0533531 218.185844,72.7259791 217.550068,71.6157071 C217.477788,71.4922889 217.247669,71.1067915 216.160507,71.7317497 L210.030901,75.2794079 Z" id="Fill-145" fill="#000000"></path>
                <path d="M208.923678,45.8262723 L215.622188,41.976215 C219.983619,39.4596641 219.983619,47.0855312 215.612845,49.6025738 L208.923678,53.4619736 L208.923678,45.8262723 Z" id="Fill-147" fill="#3D68EC"></path>
                <path d="M208.923678,54.5783427 C208.734863,54.5783427 208.545064,54.5326141 208.375918,54.4259139 C208.022873,54.2297232 207.816356,53.8604521 207.816356,53.4616786 L207.816356,45.826469 C207.816356,45.4296623 208.022873,45.0712087 208.375918,44.8622337 L215.064102,41.0121763 C216.700007,40.064659 217.83634,40.3213295 218.508502,40.7097772 C219.452577,41.2477035 220.010663,42.4218972 219.999846,43.9078325 C219.999846,46.0457699 218.810901,49.053535 216.170932,50.5665141 L209.483239,54.4259139 C209.309667,54.5326141 209.120852,54.5783427 208.923678,54.5783427 L208.923678,54.5783427 Z M210.037884,46.4710955 L210.037884,51.5396001 L215.064102,48.6385352 C216.843094,47.6148035 217.780285,45.4768661 217.780285,43.9078325 C217.780285,43.1756824 217.580652,42.7336388 217.390854,42.6284137 C217.218265,42.5344979 216.82195,42.5615417 216.170932,42.9401553 L210.037884,46.4710955 Z" id="Fill-149" fill="#000000"></path>
                <path d="M212.36793,32.2588767 L204.871874,27.9353065 C204.466216,27.7848445 204.317229,27.8521812 203.927798,28.0311891 L121.629503,75.5044126 C121.276458,75.7414148 121.144189,75.8736837 120.870801,76.2065686 C120.492187,76.7907153 120.3432,77.1334343 120.283212,77.8321484 L120.245842,172.875461 C120.283212,173.290953 120.303372,173.470425 120.635273,173.756598 L128.138214,178.081152 C127.795987,177.805797 127.775827,177.626324 127.739441,177.209849 L127.768943,82.1571937 C127.824997,81.5882899 127.908588,81.3419453 128.163783,80.8330297 C128.477,80.3580417 128.64713,80.1520169 129.122118,79.8294579 L211.420413,32.3562344 C211.799027,32.1733198 211.958831,32.1098898 212.36793,32.2588767" id="Fill-151" fill="#DD784B"></path>
                <path d="M128.127642,179.188424 C127.938827,179.188424 127.749029,179.13827 127.579882,179.045338 L120.076941,174.71095 C119.236124,174.038788 119.176136,173.453658 119.138767,172.97867 L119.169252,77.8320992 C119.252351,76.810826 119.498695,76.292568 119.943197,75.5909036 C120.332629,75.1159157 120.538653,74.8990734 120.993973,74.5873319 L203.369466,27.0673964 C204.004259,26.770406 204.476788,26.6017509 205.261059,26.8938242 L212.91692,31.3054097 C213.424361,31.5881406 213.624977,32.2130988 213.368306,32.7313569 C213.123437,33.2638744 212.527489,33.5092357 211.978745,33.3096031 L212.368176,32.2588275 L211.912857,33.2899348 L129.68045,80.7931523 C129.424763,80.972625 129.348548,81.0596569 129.102204,81.4451544 C128.948791,81.7406696 128.912405,81.8439279 128.882903,82.250077 L128.846517,177.210292 C129.291019,177.579563 129.374117,178.231565 129.045657,178.703111 C128.826357,179.016327 128.486588,179.188424 128.127642,179.188424 L128.127642,179.188424 Z M204.316984,28.9024429 L122.187835,76.4626982 C122.008362,76.5949671 121.948374,76.6510216 121.731532,76.9140843 C121.496005,77.2926978 121.430116,77.4628281 121.389305,77.9284736 L121.363244,172.875904 L126.632365,175.923497 L126.661867,82.1571445 C126.728739,81.315344 126.868384,80.9470563 127.170783,80.3314404 C127.616268,79.649936 127.871955,79.3377028 128.486588,78.9123771 L209.745909,32.0336262 L204.316984,28.9024429 Z" id="Fill-153" fill="#000000"></path>
                <path d="M212.726876,128.18431 L212.763262,33.1409971 C212.763262,32.28002 212.14863,31.9304171 211.420413,32.3562344 L129.122118,79.8294579 C128.384559,80.2547835 127.768943,81.3060507 127.768943,82.1571937 L127.739441,177.209849 C127.739441,178.061484 128.333913,178.420429 129.08229,177.985269 L211.374684,130.521388 C212.121586,130.085245 212.726876,129.044795 212.726876,128.18431" id="Fill-155" fill="#DD784B"></path>
                <path d="M128.477196,179.281013 C128.154637,179.281013 127.852238,179.204798 127.579833,179.045486 C126.971101,178.695883 126.62199,178.021754 126.62199,177.209947 L126.661818,82.157292 C126.661818,80.9068839 127.473133,79.4868372 128.563736,78.8653209 L210.862032,31.3886555 C211.563205,30.9829981 212.318957,30.9466119 212.926213,31.3055572 C213.531503,31.6551601 213.880615,32.325847 213.880615,33.1406037 L213.833902,128.184408 C213.833902,129.4417 213.020129,130.849946 211.932967,131.474904 L129.640572,178.949111 C129.251141,179.168412 128.866627,179.281013 128.477196,179.281013 L128.477196,179.281013 Z M211.646795,33.519709 L129.680401,80.7932998 C129.281627,81.0194845 128.882854,81.7118065 128.882854,82.157292 L128.846467,176.831334 L210.825646,129.554301 C211.220977,129.318282 211.610408,128.64612 211.610408,128.184408 L211.646795,33.519709 Z" id="Fill-157" fill="#000000"></path>
                <path d="M138.20368,70.1695508 L134.539979,68.0517734 L134.539979,60.3290402 C134.539979,57.3679871 136.605144,53.9437471 140.115433,54.2756486 L143.784542,56.3840836 C140.285563,56.063983 138.20368,59.4483949 138.20368,62.4399337 L138.20368,70.1695508 Z" id="Fill-159" fill="#000000"></path>
                <path d="M138.20368,71.2766759 C138.014865,71.2766759 137.825067,71.2299638 137.645594,71.1267056 L133.981893,69.015812 C133.643108,68.8161794 133.427249,68.4469083 133.427249,68.0515767 L133.427249,60.3293352 C133.427249,58.1618955 134.354606,55.9880636 135.8371,54.6343972 C137.057022,53.5182248 138.582294,53.016193 140.218199,53.1592794 C140.387346,53.1794394 140.540759,53.2261515 140.673519,53.3082663 L144.344104,55.4294857 C144.789589,55.6851728 145.005448,56.2235908 144.846136,56.7256225 C144.682889,57.2183118 144.237404,57.5477548 143.682759,57.4902252 C142.659028,57.3879504 141.760681,57.7001836 140.992636,58.3920139 C139.972346,59.3252717 139.321328,60.9075814 139.321328,62.4402287 L139.321328,70.1693541 C139.321328,70.5681276 139.101044,70.9378905 138.761766,71.1335895 C138.593111,71.2299638 138.393479,71.2766759 138.20368,71.2766759 L138.20368,71.2766759 Z M135.657627,67.4064586 L137.087508,68.2379333 L137.09685,62.4402287 C137.09685,60.2836066 138.014865,58.0989571 139.5008,56.7526663 C139.879414,56.4040468 140.274746,56.1213159 140.709905,55.8916893 L139.792874,55.3626137 C138.799628,55.316885 138.031583,55.6394441 137.332377,56.2811203 C136.312088,57.2084777 135.657627,58.7966879 135.657627,60.3293352 L135.657627,67.4064586 Z" id="Fill-161" fill="#000000"></path>
                <path d="M138.20368,70.1695508 L138.20368,62.4399337 C138.214006,57.3974895 144.81565,53.5848018 144.81565,58.6370801 L144.81565,66.3558797 L138.20368,70.1695508 Z" id="Fill-163" fill="#3D68EC"></path>
                <path d="M138.20368,71.2766759 C138.014865,71.2766759 137.825067,71.2299638 137.645594,71.1267056 C137.306809,70.9378905 137.087508,70.5681276 137.087508,70.1693541 L137.09685,62.4402287 C137.09685,58.580829 140.454218,55.1374124 143.113856,55.1374124 C144.476373,55.1374124 145.92248,56.0544439 145.92248,58.6368834 L145.92248,66.3561747 C145.92248,66.7559316 145.716455,67.1242194 145.364394,67.3209017 L138.761766,71.1335895 C138.593111,71.2299638 138.393479,71.2766759 138.20368,71.2766759 M143.113856,57.3682821 C141.827553,57.3682821 139.321328,59.6679907 139.321328,62.4402287 L139.321328,68.2379333 L143.698986,65.7144985 L143.698986,58.6368834 C143.698986,57.3682821 143.2535,57.3682821 143.113856,57.3682821" id="Fill-165" fill="#000000"></path>
                <path d="M207.504713,47.63457 L204.060313,45.646603 C203.708743,45.512859 203.569099,45.5728792 203.216054,45.7321598 L136.538272,84.1909386 C135.810056,84.6998542 135.4221,85.3646406 135.34441,86.2521698 L135.318842,163.265118 C135.355228,163.644223 135.36457,163.794194 135.666969,164.040538 L139.111369,166.028014 C138.80897,165.781669 138.78881,165.628257 138.761766,165.249643 L138.78881,88.2494793 C138.865025,87.348674 139.243638,86.6873295 139.982672,86.1759554 L206.660454,47.7176683 C207.002681,47.5583556 207.145768,47.500826 207.504713,47.63457" id="Fill-167" fill="#DD784B"></path>
                <path d="M139.158278,167.151611 C138.951762,167.151611 138.741803,167.095065 138.552988,166.981481 L135.119406,165.004331 C134.304649,164.361672 134.248103,163.813911 134.211717,163.368426 L134.237777,86.252219 C134.344477,84.9388724 134.909447,83.9716869 135.904168,83.2734645 L202.670949,44.7684654 C203.246736,44.4931101 203.718282,44.3229798 204.456825,44.605219 L208.062996,46.6703839 C208.561094,46.9624572 208.751384,47.5874154 208.508481,48.1061652 C208.258695,48.638191 207.644062,48.8810937 207.106136,48.6745772 L207.50491,47.6346192 L207.079092,48.654909 L140.540955,87.1422067 C140.151524,87.4155952 139.943041,87.7745405 139.895837,88.3326267 L139.868793,165.249201 C140.321654,165.618964 140.377709,166.227696 140.048266,166.69875 C139.849125,167.001641 139.506898,167.151611 139.158278,167.151611 L139.158278,167.151611 Z M136.435211,163.198295 L137.654641,163.89701 L137.681685,88.2495284 C137.788385,86.9337234 138.34303,85.9591622 139.347093,85.2579896 L204.920995,47.4349866 L203.728608,46.7431564 L137.096555,85.1547313 C136.708599,85.4315618 136.502083,85.7905071 136.451929,86.3589192 L136.435211,163.198295 Z" id="Fill-169" fill="#000000"></path>
                <path d="M206.660405,47.7177175 L139.982623,86.1760045 C139.321279,86.5551098 138.788761,87.4824672 138.788761,88.2495284 L138.761717,165.249201 C138.761717,166.017737 139.290793,166.320136 139.942795,165.941523 L206.624019,127.482744 C207.285363,127.10413 207.816405,126.176773 207.816405,125.421513 L207.854267,48.4085643 C207.854267,47.6439616 207.314865,47.3317284 206.660405,47.7177175" id="Fill-171" fill="#FFFFFF"></path>
                <path d="M139.413916,167.217254 C139.111517,167.217254 138.819444,167.144481 138.553431,166.992052 C137.977643,166.659168 137.645742,166.028309 137.645742,165.249447 L137.681636,88.2492826 C137.681636,87.0932819 138.430012,85.7902613 139.423258,85.2120151 L206.105465,46.7537281 C206.767302,46.3677389 207.474375,46.3377448 208.062947,46.6706297 C208.628409,46.9990893 208.961293,47.6343734 208.961293,48.4083185 L208.930808,125.421267 C208.930808,126.565958 208.185873,127.872421 207.182301,128.43985 L140.501078,166.905512 C140.151475,167.115471 139.772861,167.217254 139.413916,167.217254 L139.413916,167.217254 Z M206.736816,48.957554 L140.540906,87.1424525 C140.218347,87.3229086 139.90513,87.8814865 139.90513,88.2492826 L139.869236,164.701686 L206.07498,126.518755 C206.388196,126.328956 206.710755,125.781196 206.710755,125.421267 L206.736816,48.957554 Z" id="Fill-173" fill="#000000"></path>
                <path d="M195.497107,67.4934413 L151.128515,93.0832927 C150.689913,93.3389797 150.330968,93.9545956 150.330968,94.4659697 L150.323592,145.706152 C150.323592,146.205725 150.673195,146.414209 151.108355,146.168356 L195.480881,120.56867 C195.913582,120.312983 196.275969,119.707693 196.275969,119.195336 L196.292195,67.9556449 C196.292195,67.4432873 195.93325,67.2470967 195.497107,67.4934413" id="Fill-175" fill="#3D68EC"></path>
                <path d="M150.756539,147.388917 C150.493968,147.388917 150.227464,147.312703 149.991936,147.182401 C149.489905,146.886886 149.207174,146.348468 149.207174,145.705808 L149.223892,94.4661172 C149.223892,93.5559696 149.792304,92.5710826 150.577066,92.1196966 L194.949592,66.5259116 C195.507679,66.2067944 196.122311,66.1871262 196.615,66.4791995 C197.11654,66.7614387 197.399271,67.3032987 197.399271,67.9553007 L197.379111,119.195483 C197.379111,120.09383 196.823484,121.087076 196.035279,121.532561 L151.666687,147.122904 C151.361829,147.295002 151.052054,147.388917 150.756539,147.388917 L150.756539,147.388917 Z M195.178236,68.9593642 L151.684388,94.0476755 C151.590472,94.10373 151.447386,94.3535166 151.447386,94.4661172 L151.43116,144.692894 L194.919107,119.601141 C195.014989,119.545086 195.158076,119.309067 195.158076,119.195483 L195.178236,68.9593642 Z" id="Fill-177" fill="#000000"></path>
                <path d="M120.870899,76.2068145 C120.492285,76.7909611 120.343299,77.1331884 120.28331,77.8323943 L120.245941,172.875707 C120.28331,173.290707 120.302979,173.47018 120.63488,173.756352 L128.138313,178.081398 C127.795593,177.806042 127.775925,177.62657 127.739539,177.210095 L127.769041,82.1569478 C127.825096,81.5885358 127.908194,81.3421911 128.163881,80.8332755 L120.870899,76.2068145 Z" id="Fill-179" fill="#DD784B"></path>
                <path d="M128.127642,179.188424 C127.938827,179.188424 127.749029,179.13827 127.579882,179.045338 L120.076941,174.71095 C119.236124,174.038788 119.176136,173.453658 119.138767,172.97867 L119.169252,77.8320992 C119.252351,76.810826 119.498695,76.292568 119.943197,75.5909036 C120.283458,75.0897843 120.954145,74.9369348 121.475845,75.2590021 L128.759976,79.8962807 C129.24529,80.1986798 129.424763,80.8236381 129.158258,81.3330454 C128.948791,81.7406696 128.912405,81.8439279 128.882903,82.250077 L128.846517,177.210292 C129.291019,177.579563 129.374117,178.231565 129.045657,178.703111 C128.826357,179.016327 128.486588,179.188424 128.127642,179.188424 L128.127642,179.188424 Z M121.39963,77.8522592 C121.389305,77.8812698 121.389305,77.8979878 121.389305,77.9284736 L121.363244,172.875904 L126.632365,175.923497 L126.661867,82.1571445 C126.688911,81.7972158 126.728739,81.5213688 126.791678,81.2755158 L121.39963,77.8522592 Z" id="Fill-181" fill="#000000"></path>
                <path d="M114.767993,164.172857 L111.107734,162.051637 C109.073055,159.186467 110.975465,155.696338 113.56823,154.200077 L120.256414,150.340677 L123.916181,152.451571 L117.228489,156.310971 C114.634249,157.807232 112.733313,161.29736 114.767993,164.172857" id="Fill-183" fill="#000000"></path>
                <path d="M114.767993,165.279982 C114.578194,165.279982 114.389379,165.23327 114.219249,165.126569 L110.549647,163.019118 C110.406561,162.933561 110.292977,162.819485 110.200045,162.696559 C109.243185,161.344367 108.920626,159.771892 109.283013,158.155654 C109.70883,156.198173 111.14412,154.312481 113.008669,153.236137 L119.698328,149.376737 C120.046456,149.177104 120.462931,149.177104 120.805158,149.376737 L124.474759,151.494514 C124.816987,151.694147 125.023503,152.061943 125.023503,152.451374 C125.023503,152.857031 124.816987,153.215977 124.474759,153.415609 L117.786575,157.275009 C116.463886,158.043054 115.413111,159.405571 115.11022,160.74842 C114.890919,161.749041 115.079734,162.687216 115.679124,163.528033 C115.981523,163.957293 115.941695,164.531605 115.592092,164.921036 C115.373283,165.157055 115.079734,165.279982 114.767993,165.279982 M111.881679,161.220949 L112.809528,161.749041 C112.78986,161.257335 112.829196,160.765138 112.943272,160.263106 C113.367614,158.314967 114.807821,156.423375 116.668928,155.34703 L121.695146,152.451374 L120.256414,151.627275 L114.126316,155.157232 C112.78986,155.93216 111.74941,157.285335 111.447011,158.628184 C111.25082,159.565375 111.390465,160.425861 111.881679,161.220949" id="Fill-185" fill="#000000"></path>
                <path d="M114.777433,135.374329 L111.117174,133.254093 C109.08397,130.387939 110.984906,126.897811 113.577671,125.40155 L120.265855,121.54215 L123.925622,123.650585 L117.23793,127.512443 C114.644673,129.005262 112.75308,132.496374 114.777433,135.374329" id="Fill-187" fill="#000000"></path>
                <path d="M114.777433,136.481307 C114.588618,136.481307 114.398328,136.432136 114.229673,136.328878 L110.569414,134.217984 C110.416002,134.134886 110.303401,134.031628 110.207027,133.898867 C109.252626,132.545692 108.940884,130.973217 109.289012,129.358455 C109.725155,127.396056 111.155036,125.515281 113.019585,124.437462 L119.707277,120.575603 C120.05688,120.378429 120.472371,120.378429 120.824924,120.575603 L124.485183,122.695839 C124.827411,122.895472 125.04327,123.254417 125.04327,123.650732 C125.04327,124.049506 124.827411,124.417302 124.485183,124.627752 L117.796016,128.476334 C116.473327,129.240937 115.422552,130.604929 115.127036,131.947778 C114.911177,132.95135 115.09065,133.888541 115.685122,134.729358 C115.987522,135.145833 115.961953,135.734405 115.601532,136.122361 C115.382723,136.35838 115.079832,136.481307 114.777433,136.481307 M111.901937,132.422766 L112.809626,132.95135 C112.800284,132.469478 112.846012,131.976789 112.952713,131.474757 C113.387872,129.517767 114.814803,127.635517 116.688694,126.545897 L121.702128,123.650732 L120.265855,122.8286 L114.132315,126.365441 C112.809626,127.124143 111.759834,128.496002 111.466777,129.840326 C111.256819,130.767684 111.410723,131.634561 111.901937,132.422766" id="Fill-189" fill="#000000"></path>
                <path d="M114.787808,106.573392 L111.128041,104.455123 C109.100246,101.587002 110.995281,98.0993323 113.588046,96.6040546 L120.27623,92.7446548 L123.936489,94.8521064 L117.248305,98.7115062 C114.654064,100.207767 112.763947,103.697896 114.787808,106.573392" id="Fill-191" fill="#000000"></path>
                <path d="M114.787808,107.68391 C114.608336,107.68391 114.409195,107.633756 114.239065,107.530498 L110.575364,105.419113 C110.435719,105.34339 110.312793,105.230789 110.227236,105.100487 C109.263001,103.748296 108.940933,102.17582 109.299387,100.556141 C109.734547,98.5986597 111.154593,96.7164094 113.03586,95.6400651 L119.727486,91.7772234 C120.056929,91.5810327 120.482746,91.5810327 120.834316,91.7772234 L124.494575,93.8974593 C124.844178,94.0946334 125.052661,94.4658714 125.052661,94.8518605 C125.052661,95.2614516 124.844178,95.6199052 124.494575,95.8195378 L117.806391,99.6789376 C116.48026,100.44354 115.429485,101.806057 115.137411,103.148906 C114.920569,104.15297 115.110367,105.091145 115.70484,105.931962 C115.998388,106.357779 115.970853,106.932092 115.608957,107.321523 C115.393098,107.55705 115.090207,107.68391 114.787808,107.68391 M111.912312,103.625369 L112.829344,104.15297 C112.809675,103.670606 112.856387,103.169066 112.963088,102.67736 C113.398247,100.718896 114.824195,98.823861 116.699561,97.7475167 L121.711519,94.8518605 L120.27623,94.0312033 L114.14269,97.568044 C112.820001,98.3326468 111.769226,99.6986058 111.477152,101.032112 C111.276536,101.969304 111.419623,102.837165 111.912312,103.625369" id="Fill-193" fill="#000000"></path>
                <path d="M123.93639,102.487562 L117.248206,106.346962 C112.876449,108.863513 112.885791,101.237645 117.248206,98.7112603 L123.93639,94.8518605 L123.93639,102.487562 Z" id="Fill-195" fill="#3D68EC"></path>
                <path d="M115.685073,107.966543 C115.126987,107.966543 114.695269,107.803296 114.362384,107.613498 C113.408967,107.065737 112.856289,105.901378 112.856289,104.418884 C112.856289,102.271605 114.070311,99.2697399 116.699463,97.7474184 L123.387647,93.897361 C123.726432,93.6977284 124.144874,93.6977284 124.494477,93.897361 C124.84408,94.0945351 125.052563,94.4662647 125.052563,94.8517622 L125.04322,102.487463 C125.04322,102.883778 124.833262,103.255508 124.494477,103.451699 L117.806293,107.311099 C116.965476,107.796412 116.263319,107.966543 115.685073,107.966543 L115.685073,107.966543 Z M122.829069,96.7836748 L117.806293,99.6788392 C116.017958,100.709947 115.079783,102.846409 115.079783,104.418884 C115.079783,105.136775 115.289742,105.582261 115.478557,105.696336 C115.648687,105.788777 116.044019,105.761733 116.688645,105.38312 L122.818743,101.846279 L122.829069,96.7836748 Z" id="Fill-197" fill="#000000"></path>
                <path d="M123.925819,131.286237 L117.237635,135.145637 C112.865877,137.662188 112.876203,130.028945 117.237635,127.512394 L123.925819,123.650536 L123.925819,131.286237 Z" id="Fill-199" fill="#3D68EC"></path>
                <path d="M115.66865,136.763939 C114.578047,136.763939 113.804101,136.158649 113.367467,135.411748 C112.044778,133.111056 113.338456,128.476236 116.68894,126.545798 L123.367782,122.686399 C123.716893,122.4966 124.135826,122.4966 124.485429,122.695741 C124.827657,122.895374 125.043515,123.254319 125.043515,123.650634 L125.032698,131.286335 C125.032698,131.685109 124.827657,132.05438 124.485429,132.253521 L117.79577,136.11292 C116.991339,136.575124 116.27394,136.763939 115.66865,136.763939 L115.66865,136.763939 Z M122.818546,125.582055 L117.79577,128.476236 C115.392803,129.856946 114.654261,133.18727 115.299379,134.304918 C115.366251,134.426861 115.592436,134.816292 116.679598,134.1815 L122.809204,130.644659 L122.818546,125.582055 Z" id="Fill-201" fill="#000000"></path>
                <path d="M123.916378,160.083584 L117.228194,163.946426 C112.856437,166.463469 112.856437,158.83711 117.228194,156.310725 L123.916378,152.451325 L123.916378,160.083584 Z" id="Fill-203" fill="#3D68EC"></path>
                <path d="M115.659259,165.562565 C115.110515,165.562565 114.664538,165.403252 114.34247,165.212962 C113.387577,164.664218 112.839817,163.500842 112.839817,162.014907 C112.839817,159.867627 114.039579,156.869204 116.668731,155.346883 L123.35839,151.484041 C123.70996,151.293751 124.12496,151.293751 124.474563,151.494367 C124.817282,151.693999 125.023306,152.062287 125.023306,152.451227 L125.023306,160.083486 C125.023306,160.482259 124.817282,160.842188 124.474563,161.051163 L117.776053,164.901221 C116.945561,165.392435 116.243405,165.562565 115.659259,165.562565 L115.659259,165.562565 Z M122.802271,154.379205 L117.786379,157.274862 C115.998044,158.305969 115.059869,160.442431 115.059869,162.014907 C115.059869,162.733781 115.259502,163.178283 115.458643,163.284983 C115.619431,163.388241 116.027546,163.348413 116.668731,162.979142 L122.802271,159.442301 L122.802271,154.379205 Z" id="Fill-205" fill="#000000"></path>
                <path d="M188.071413,41.398018 L184.411646,39.2905664 L184.411646,31.561441 C184.411646,28.6092386 186.471894,25.1722142 189.992508,25.5041157 L193.652275,27.6253351 C190.151821,27.2934336 188.071413,30.680304 188.071413,33.6792184 L188.071413,41.398018 Z" id="Fill-207" fill="#000000"></path>
                <path d="M188.071413,42.5143871 C187.872272,42.5143871 187.681982,42.4686584 187.511852,42.3654002 L183.852085,40.2441809 C183.510841,40.0553658 183.293998,39.6860946 183.293998,39.2907631 L183.304324,31.561146 C183.304324,29.4045238 184.221356,27.2159407 185.707291,25.8642411 C186.928197,24.7500355 188.450027,24.2548877 190.095766,24.3979741 C190.255079,24.418134 190.407508,24.4638627 190.541252,24.5400771 L194.201019,26.6578545 C194.656339,26.9243591 194.872198,27.4627771 194.712393,27.9549747 C194.553081,28.4570065 194.087435,28.7795656 193.549509,28.7289198 C192.525285,28.6364791 191.617596,28.9388783 190.863811,29.6297251 C189.840079,30.5570825 189.188077,32.146276 189.188077,33.6789234 L189.178735,41.3982147 C189.178735,41.7969882 188.968776,42.1662593 188.619174,42.3654002 C188.450027,42.4686584 188.260228,42.5143871 188.071413,42.5143871 L188.071413,42.5143871 Z M185.524377,38.6456449 L186.964583,39.4771196 L186.964583,33.6789234 C186.964583,31.5119754 187.881615,29.3376518 189.358208,27.9844771 C189.736821,27.6417581 190.142479,27.3590271 190.566821,27.1235 L189.649789,26.6018 C188.686046,26.5452538 187.9121,26.8771553 187.20011,27.5129311 C186.189163,28.4368465 185.524377,30.0260401 185.524377,31.561146 L185.524377,38.6456449 Z" id="Fill-209" fill="#000000"></path>
                <path d="M188.071413,41.398018 L188.071413,33.6792184 C188.071413,28.6259566 194.686825,24.8132689 194.686825,29.8665307 L194.686825,37.5877888 L188.071413,41.398018 Z" id="Fill-211" fill="#3D68EC"></path>
                <path d="M188.071413,42.5143871 C187.872272,42.5143871 187.681982,42.4686584 187.511852,42.3654002 C187.163724,42.1662593 186.953766,41.7969882 186.953766,41.3982147 L186.964583,33.6789234 C186.964583,30.6406725 188.968776,28.0980611 190.823983,27.0276174 C192.103402,26.2792409 193.389704,26.1759827 194.344597,26.7340689 C195.005942,27.1131742 195.790213,27.9643171 195.790213,29.8667274 L195.790213,37.5879855 C195.790213,37.9843004 195.584188,38.3525882 195.241469,38.5517291 L188.619174,42.3654002 C188.450027,42.4686584 188.260228,42.5143871 188.071413,42.5143871 M192.980605,28.6000929 C192.735244,28.6000929 192.365973,28.701876 191.930813,28.9482207 C190.566821,29.7329833 189.188077,31.6176921 189.188077,33.6789234 L189.178735,39.4771196 L193.569177,36.9438507 L193.569177,29.8667274 C193.569177,29.1183509 193.396588,28.7490798 193.226458,28.6566391 C193.170404,28.6256616 193.087305,28.6000929 192.980605,28.6000929" id="Fill-213" fill="#000000"></path>
                <path d="M163.132335,55.7791378 L159.47896,53.6707028 L159.47896,45.9494447 C159.47896,42.9903584 161.533799,39.5626764 165.054413,39.8955614 L168.714672,42.0064549 C165.213726,41.67357 163.14266,45.0614238 163.14266,48.0603382 L163.132335,55.7791378 Z" id="Fill-215" fill="#000000"></path>
                <path d="M163.132335,56.8955069 C162.94352,56.8955069 162.753721,56.8487948 162.574248,56.7455366 L158.923332,54.6346431 C158.571762,54.4350105 158.365246,54.0672144 158.365246,53.6704078 L158.365246,45.9491496 C158.365246,43.7846602 159.292603,41.5970605 160.775096,40.2438858 C161.999444,39.1370558 163.521766,38.6458416 165.156196,38.7884363 C165.316001,38.7982704 165.469413,38.8449825 165.612499,38.9315227 L169.272758,41.0389743 C169.727586,41.3054789 169.934103,41.8438969 169.77479,42.3454369 C169.614986,42.8371429 169.189168,43.1498678 168.611414,43.1134816 C167.597024,43.0166155 166.689335,43.3190147 165.924733,44.0108449 C164.911327,44.9382023 164.249982,46.5273958 164.249982,48.0600432 L164.249982,55.7793345 C164.249982,56.1869587 164.040024,56.5567215 163.690421,56.7455366 C163.521766,56.8487948 163.331476,56.8955069 163.132335,56.8955069 L163.132335,56.8955069 Z M160.586281,53.0267647 L162.025013,53.8606979 L162.025013,48.0600432 C162.025013,45.8921118 162.94352,43.7187716 164.429455,42.3655969 C164.808068,42.0228779 165.2034,41.7406387 165.63856,41.5139622 L164.721528,40.9829198 C163.74795,40.9455502 162.973022,41.2582751 162.271358,41.8891338 C161.251068,42.8169829 160.586281,44.4061765 160.586281,45.9491496 L160.586281,53.0267647 Z" id="Fill-217" fill="#000000"></path>
                <path d="M163.132335,55.7791378 L163.14266,48.0603382 C163.14266,43.0164188 169.744304,39.2037311 169.744304,44.2466671 L169.744304,51.9757925 L163.132335,55.7791378 Z" id="Fill-219" fill="#3D68EC"></path>
                <path d="M163.132335,56.8955069 C162.94352,56.8955069 162.753721,56.8487948 162.574248,56.7455366 C162.234971,56.5567215 162.025013,56.178108 162.025013,55.7793345 L162.025013,48.0600432 C162.025013,44.2006434 165.393198,40.7660775 168.04251,40.7660775 C169.405027,40.7660775 170.861952,41.6737667 170.861952,44.246372 L170.851134,51.9759891 C170.851134,52.3639451 170.644618,52.7440338 170.29649,52.9397328 L163.690421,56.7455366 C163.521766,56.8487948 163.331476,56.8955069 163.132335,56.8955069 M168.04251,42.9905551 C166.756207,42.9905551 164.249982,45.2868218 164.249982,48.0600432 L164.249982,53.8606979 L168.62764,51.3343129 L168.62764,44.246372 C168.62764,42.9905551 168.185596,42.9905551 168.04251,42.9905551" id="Fill-221" fill="#000000"></path>
                <path d="M164.533303,113.312517 L169.012252,111.279313 L169.012252,103.613618 C169.012252,103.288108 168.95669,103.005377 168.846548,102.765425 C168.736405,102.525964 168.580043,102.342066 168.378443,102.213731 C168.176844,102.085887 167.93935,102.019015 167.665962,102.013115 C167.392081,102.007706 167.091649,102.08097 166.765648,102.232416 C166.439155,102.384844 166.139215,102.590869 165.865335,102.85049 C165.591946,103.110602 165.356419,103.397267 165.159737,103.7095 C164.963054,104.021733 164.80915,104.348718 164.699008,104.68947 C164.588374,105.030222 164.533303,105.362616 164.533303,105.686158 L164.533303,113.312517 Z M169.430202,119.233148 C169.286133,119.29707 169.179924,119.287236 169.113052,119.203646 C169.045688,119.120547 169.012252,119.004505 169.012252,118.856501 L169.012252,113.735876 L164.533303,115.756295 L164.533303,120.879871 C164.533303,121.026891 164.506751,121.164077 164.454139,121.290445 C164.401526,121.416814 164.297776,121.514663 164.144364,121.582519 L162.185899,122.45333 C162.079691,122.500534 161.993642,122.490208 161.92677,122.421861 C161.859406,122.354005 161.82597,122.241896 161.82597,122.085042 L161.82597,106.807248 C161.82597,106.141969 161.957748,105.457023 162.221794,104.751425 C162.48584,104.046319 162.84331,103.370223 163.294696,102.72363 C163.746082,102.077037 164.269257,101.488956 164.864713,100.959881 C165.459677,100.430805 166.093486,100.008921 166.765648,99.6937379 C167.437318,99.3790461 168.073586,99.2069491 168.673959,99.176955 C169.27384,99.1479443 169.799474,99.2482524 170.25086,99.4764039 C170.702246,99.7055389 171.059716,100.053667 171.323762,100.51882 C171.587808,100.984958 171.720077,101.554353 171.720077,102.227499 L171.720077,117.650838 C171.720077,117.789499 171.693033,117.930127 171.640421,118.07223 C171.587808,118.214333 171.479633,118.321525 171.316386,118.394298 L169.430202,119.233148 Z" id="Fill-223" fill="#FFFFFF"></path>
                <path d="M174.125011,114.883222 C174.125011,114.704733 174.168281,114.553779 174.254821,114.430853 C174.340869,114.307926 174.441669,114.220403 174.55722,114.168774 L176.472415,113.311238 C176.635661,113.237974 176.748262,113.2424 176.8112,113.324023 C176.873155,113.405646 176.904624,113.515788 176.904624,113.655433 L176.904624,115.402464 C176.904624,115.581445 176.858896,115.731415 176.76793,115.851391 C176.676473,115.971859 176.587966,116.051024 176.501425,116.089377 L174.542469,116.960188 C174.465763,116.994607 174.377256,116.999033 174.276456,116.974448 C174.175656,116.949862 174.125011,116.843162 174.125011,116.654839 L174.125011,114.883222 Z" id="Fill-225" fill="#FFFFFF"></path>
                <path d="M179.468133,94.597206 C179.468133,94.4378933 179.504028,94.2908732 179.576308,94.1571292 C179.648097,94.0238769 179.756273,93.9230772 179.900343,93.8557135 L181.758007,92.9863774 C181.902077,92.9190137 182.010253,92.918522 182.082042,92.9849023 C182.154322,93.0512826 182.190217,93.1648667 182.190217,93.3246711 L182.190217,113.01946 C182.190217,113.190082 182.156289,113.337594 182.089417,113.462487 C182.022054,113.587872 181.91142,113.684247 181.758007,113.752594 L179.900343,114.57866 C179.746439,114.647007 179.635805,114.648974 179.568933,114.583577 C179.501569,114.518671 179.468133,114.401154 179.468133,114.231515 L179.468133,94.597206 Z" id="Fill-227" fill="#FFFFFF"></path>
                <path d="M184.768034,110.124296 C184.768034,109.943348 184.811305,109.790919 184.897845,109.667009 C184.983893,109.543099 185.084693,109.455084 185.200244,109.403455 L187.115439,108.54592 C187.278685,108.472655 187.391286,108.478064 187.454224,108.560671 C187.516179,108.643769 187.547648,108.755386 187.547648,108.896506 L187.547648,110.66468 C187.547648,110.84612 187.501919,110.997565 187.410954,111.118525 C187.319496,111.239976 187.230989,111.319633 187.144449,111.357986 L185.185493,112.228797 C185.108787,112.263216 185.02028,112.26715 184.91948,112.241581 C184.81868,112.216504 184.768034,112.107837 184.768034,111.917055 L184.768034,110.124296 Z" id="Fill-229" fill="#FFFFFF"></path>
            </g>
        </g>
    </g>
</svg>