<?xml version="1.0" encoding="UTF-8"?><svg id="Layer_1" xmlns="http://www.w3.org/2000/svg" viewBox="0 0 720 720"><defs><style>.cls-1{fill:#f4d74b;}.cls-1,.cls-2,.cls-3{fill-rule:evenodd;}.cls-2{fill:#f4d9dc;}</style></defs><g id="Layer_1-2"><path class="cls-3" d="M389.81,615.97l-4.34,8.35c-3.69,6.61-11.6,9.43-18.65,10.84-6.83,1.08-12.9.87-19.51-.87-5.85-1.63-11.82-4.45-14.85-9.97l-4.34-8.35c19.3,5.75,42.39,5.75,61.69,0h0Z"/><path class="cls-3" d="M335.17,621.61l.54.98c2.06,3.58,6.07,6.18,12.58,8.13,5.96,1.52,11.49,1.73,17.89.76,8.13-1.52,13.55-4.55,15.94-8.89l.43-.87c-15.29,3.14-32.2,3.14-47.49,0h0l.11-.11ZM358.81,639.5c-4.23,0-8.24-.54-12.47-1.63-8.56-2.49-14.2-6.29-17.24-11.82l-4.34-8.46c-.65-1.3-.54-2.93.43-4.12.98-1.19,2.49-1.63,3.9-1.19,18.65,5.53,40.98,5.53,59.63,0,1.41-.43,3.04,0,3.9,1.19.98,1.19,1.08,2.82.43,4.12l-4.34,8.35c-3.69,6.5-10.84,10.73-21.36,12.79-3.04.43-5.96.76-8.67.76h.11Z"/><path class="cls-3" d="M406.73,608.82c18.11-10.41,23.85-25.37,17.02-38.7l-13.01-25.15h-103.65l-12.9,25.15c-6.83,13.34-1.19,28.3,17.02,38.7,26.35,15.29,69.17,15.29,95.52,0Z"/><path class="cls-3" d="M406.73,608.82h0ZM309.37,548.64l-11.93,23.2c-6.18,12.03-.33,24.61,15.5,33.72,25.37,14.64,66.57,14.64,91.83,0,15.83-9.22,21.68-21.79,15.61-33.72l-11.93-23.2h-99.09ZM358.92,623.89c-18,0-35.99-4.01-49.65-11.93-19.41-11.17-26.45-27.86-18.43-43.58l13.01-25.26c.65-1.19,1.95-2.06,3.36-2.06h103.65c1.41,0,2.71.76,3.36,2.06l13.01,25.26c8.02,15.72.98,32.42-18.43,43.58h0c-13.66,7.91-31.66,11.93-49.65,11.93h-.22Z"/><path class="cls-1" d="M496.71,297.01c19.08,60.17-1.73,101.26-23.31,138.23-13.55,23.31-23.2,26.56-30.68,53.02-4.45,15.94-2.93,28.19-15.4,41.2-34.26,35.56-105.92,36.54-136.6,0-11.6-13.88-10.95-25.26-15.4-41.2-7.48-26.45-17.13-29.81-30.68-53.02-21.57-36.86-42.39-77.95-23.31-138.23,19.62-61.91,78.71-92.8,137.69-92.8s118.07,30.9,137.69,92.8h0Z"/><path class="cls-3" d="M358.92,207.89c-64.07,0-116.76,35.45-134.11,90.2-18.21,57.35.43,96.71,22.88,135.2,4.77,8.24,9.22,13.99,13.01,19.08,7.05,9.22,13.12,17.24,18,34.8,1.19,4.23,2.06,8.24,2.82,11.93,2.17,10.3,3.9,18.32,11.82,27.86,12.9,15.4,34.69,24.72,59.74,25.69,28.19.98,54.75-8.67,71.34-25.8,8.24-8.56,9.76-16.59,11.71-26.78.76-4.01,1.63-8.35,2.82-12.9,4.99-17.56,11.06-25.48,18-34.8,3.9-5.1,8.24-10.84,13.01-19.08,22.44-38.49,41.09-77.73,22.88-135.2-17.35-54.86-70.04-90.2-134.11-90.2h.22ZM357.07,560.25h-4.12c-27.1-.98-50.96-11.28-65.16-28.3-9.11-10.95-11.28-20.71-13.44-31.12-.76-3.58-1.63-7.37-2.71-11.49-4.55-16.15-9.97-23.31-16.8-32.31-4.01-5.2-8.56-11.28-13.55-19.84-23.42-40.01-42.72-80.88-23.63-141.16,18.43-58,73.83-95.41,141.27-95.41s122.84,37.51,141.27,95.41h0c19.08,60.39-.22,101.26-23.63,141.16-4.99,8.56-9.54,14.53-13.55,19.84-6.83,9-12.25,16.15-16.8,32.31-1.19,4.34-1.95,8.35-2.71,12.25-1.95,10.52-3.79,20.38-13.66,30.57-17.13,17.78-44.13,28.19-72.86,28.19h0l.11-.11Z"/><path class="cls-2" d="M397.73,584.21c21.47-12.36,21.47-32.42,0-44.88-21.47-12.36-56.27-12.36-77.63,0-21.47,12.47-21.47,32.42,0,44.88,21.47,12.36,56.16,12.36,77.63,0h0Z"/><path class="cls-3" d="M358.92,533.79c-13.44,0-26.78,2.93-36.97,8.78-9.11,5.31-14.2,12.03-14.2,19.19s4.99,13.88,14.2,19.19c20.38,11.82,53.56,11.82,73.94,0,9.11-5.31,14.2-12.03,14.2-19.19s-4.99-13.88-14.2-19.19c-10.19-5.85-23.63-8.78-36.97-8.78h0ZM358.92,597.11c-14.74,0-29.49-3.25-40.66-9.76-11.6-6.72-18-15.83-18-25.69s6.4-18.97,18-25.69c22.44-13.01,58.98-13.01,81.42,0,11.6,6.72,17.89,15.83,17.89,25.69s-6.4,18.97-17.89,25.69c-11.17,6.5-25.91,9.76-40.66,9.76h-.11Z"/><path class="cls-3" d="M406.73,588.11c18.11-10.52,23.85-25.48,17.02-38.7l-13.01-25.26h-103.65l-12.9,25.26c-6.83,13.23-1.19,28.19,17.02,38.7,26.35,15.29,69.17,15.29,95.52,0Z"/><path class="cls-3" d="M309.37,527.94l-11.93,23.2c-6.18,12.03-.33,24.61,15.5,33.72,25.37,14.64,66.57,14.64,91.83,0h0c15.83-9.22,21.68-21.79,15.61-33.72l-11.93-23.2h-99.09ZM358.92,603.18c-18,0-35.99-4.01-49.65-11.93-19.41-11.17-26.45-27.97-18.43-43.58l13.01-25.26c.65-1.19,1.95-2.06,3.36-2.06h103.65c1.41,0,2.71.76,3.36,2.06l13.01,25.26c8.02,15.72.98,32.42-18.43,43.58h0c-13.66,7.91-31.66,11.93-49.65,11.93h-.22Z"/><path class="cls-1" d="M407.27,487.71c26.67,15.4,26.67,40.44,0,55.83-26.67,15.4-70.04,15.4-96.71,0-26.67-15.4-26.67-40.44,0-55.83,26.67-15.4,70.04-15.4,96.71,0Z"/><path class="cls-3" d="M358.92,479.8c-16.8,0-33.61,3.69-46.51,11.06-11.71,6.72-18.21,15.5-18.21,24.72s6.4,17.89,18.21,24.72c25.59,14.85,67.33,14.74,92.91,0,11.71-6.72,18.21-15.5,18.21-24.72s-6.5-17.89-18.21-24.72h0c-12.79-7.37-29.71-11.06-46.51-11.06h.11ZM358.92,558.73c-18.21,0-36.43-4.01-50.2-12.03-14.09-8.13-21.9-19.19-21.9-31.12s7.81-22.98,21.9-31.12c27.65-15.94,72.75-15.94,100.39,0,14.09,8.13,21.9,19.19,21.9,31.12s-7.81,22.98-21.9,31.12c-13.88,8.02-31.98,12.03-50.2,12.03h0Z"/><path class="cls-3" d="M427.22,517.53v23.74c-.22,4.45-2.39,9.32-4.88,13.01-9.32,13.34-28.51,20.38-43.91,22.98-22.44,3.79-50.74,1.08-70.25-11.38-8.02-5.2-15.61-12.9-17.24-22.66l-.22-1.84v-23.74c.33,2.82.76,4.77,1.84,7.48,5.96,14.2,23.63,22.66,37.62,26.45,24.72,6.61,57.68,4.55,79.58-9.43,8.02-5.2,15.72-12.9,17.35-22.66l.22-1.84h0l-.11-.11Z"/><path class="cls-3" d="M294.41,535.09l.22,7.59c1.63,9.76,10.41,16.7,15.61,19.95,16.8,10.73,43.37,15.07,67.65,10.84,7.05-1.19,30.9-6.29,41.42-21.47,2.39-3.47,4.12-7.7,4.23-11.06v-6.07c-3.04,3.79-7.05,7.16-11.82,10.19-24.39,15.61-58.98,16.15-82.61,9.87-7.81-2.06-24.72-7.81-34.8-19.95h0l.11.11ZM358.81,582.58c-17.46,0-36.97-3.58-52.69-13.66-10.62-6.83-17.46-15.72-18.97-25.15l-.22-2.06v-24.18c0-1.95,1.52-3.69,3.47-3.69,1.84-.22,3.69,1.3,3.9,3.25.33,2.6.65,4.23,1.63,6.5,6.61,15.5,28.62,22.55,35.13,24.29,26.02,6.94,57.46,3.25,76.54-8.89,5.1-3.25,13.99-10.3,15.61-20.06l.22-1.73c.22-1.95,1.63-3.47,3.9-3.25,1.95,0,3.47,1.73,3.47,3.69v23.74c-.33,4.88-2.39,10.52-5.64,15.07-11.93,17.02-36.43,22.77-46.4,24.5-6.07.98-13.01,1.63-20.27,1.63h.33Z"/><polygon class="cls-3" points="383.09 488.47 383.09 509.07 383.09 509.29 383.09 509.4 382.98 509.51 382.88 509.72 382.77 509.83 382.66 509.94 382.44 510.05 382.33 510.16 347.53 530.32 347.32 530.43 347.1 530.54 346.77 530.54 346.56 530.65 346.34 530.76 346.01 530.76 345.8 530.76 345.47 530.76 345.26 530.76 344.93 530.76 344.71 530.76 344.5 530.65 344.17 530.54 343.95 530.54 343.74 530.43 343.52 530.32 343.3 530.21 340.81 528.7 334.31 525.01 334.2 524.9 333.98 524.79 333.87 524.58 333.76 524.47 333.65 524.36 333.55 524.14 333.55 524.03 333.55 503.22 333.55 503.33 333.55 503.54 333.65 503.65 333.76 503.76 333.87 503.98 333.98 504.09 334.2 504.19 334.31 504.3 340.81 508.1 343.3 509.51 343.52 509.61 343.74 509.72 343.95 509.83 344.17 509.94 344.5 510.05 344.71 510.05 344.93 510.05 345.26 510.16 345.47 510.16 345.8 510.16 346.01 510.05 346.34 510.05 346.56 510.05 346.77 509.94 347.1 509.83 347.32 509.83 347.53 509.61 382.33 489.56 382.44 489.45 382.66 489.23 382.77 489.23 382.88 489.02 382.98 488.91 383.09 488.69 383.09 488.58 383.09 488.47"/><path class="cls-3" d="M337.23,522.3l7.91,4.55,34.26-19.41v-12.03l-30.03,17.35c-.11,0-.76.33-.87.43l-1.08.33c-.22,0-.87.11-1.08.22h-2.17c-.11,0-1.08-.33-1.19-.33s-.76-.33-.87-.43l-4.77-2.71v12.03h-.11ZM345.36,534.55c-.22,0-1.08,0-1.19-.11-.11,0-.87-.11-.98-.22-.11,0-.76-.22-.87-.33-.22,0-.76-.43-.98-.54l-8.89-5.2c-.11-.11-1.08-.76-1.19-.87-.22-.22-.65-.65-.76-.87s-.43-.65-.43-.98c0-.22-.22-.98-.33-1.3v-21.03c0-2.06,1.52-3.69,3.58-3.79,1.63-.11,3.04.87,3.58,2.28l8.24,4.45,34.58-19.51c.43-1.63,2.06-2.49,3.79-2.39,1.95,0,3.36,2.06,3.36,4.12v20.6s-.11.98-.11,1.08c0,.33-.22.65-.33.98-.11.22-.33.65-.54.87,0,0-.76.87-.87.98-.11.11-.65.43-.76.54l-34.8,20.06c-.11,0-.76.33-.87.43,0,0-1.08.33-1.19.33s-.87.11-.98.11h-.98l-.11.33Z"/><path class="cls-1" d="M373.12,481.97l9.22,5.31c1.08.65,1.08,1.63,0,2.28l-34.8,20.06c-1.08.65-2.82.65-3.9,0h-.22c0-.11-2.49-1.63-2.49-1.63l-6.4-3.69c-1.08-.65-1.08-1.63,0-2.28l34.8-20.06c1.08-.65,2.93-.65,4.01,0h-.22Z"/><path class="cls-3" d="M380.38,490.53h0ZM339.83,503.22l5.31,3.04,31.55-17.89-5.42-3.14-31.44,18h0ZM345.47,513.84c-1.41,0-2.71-.33-3.9-.98l-9.22-5.31c-1.73-.98-2.71-2.6-2.71-4.34s.98-3.47,2.71-4.34l34.8-20.06c2.28-1.3,5.42-1.3,7.7,0l9.22,5.31c1.63.98,2.71,2.6,2.71,4.34s-.98,3.36-2.71,4.34l-34.8,20.06c-1.08.65-2.49.98-3.9.98h.11Z"/><path class="cls-3" d="M370.52,491.18h0c-2.06,0-3.69-1.73-3.69-3.79,0-49.76,18.32-119.26,23.85-139.32.54-2.06,2.6-3.14,4.55-2.6,2.06.54,3.14,2.6,2.6,4.66-11.38,40.98-23.53,98.55-23.63,137.36,0,2.06-1.63,3.79-3.79,3.79h0l.11-.11ZM346.99,504.74c-2.06,0-3.69-1.63-3.69-3.69,0-36.64-8.46-79.79-22.12-112.86-.76-1.95.11-4.12,2.06-4.88,1.95-.76,4.12.11,4.88,2.06,13.99,33.83,22.66,78.17,22.66,115.68s-1.73,3.69-3.69,3.69h-.11Z"/><path class="cls-3" d="M336.8,364.01c-2.39,1.95-5.75,6.83-6.5,11.38l-2.06,12.58c-.33,2.06,0,2.82,0,2.82,2.39-1.95,5.75-6.83,6.5-11.38h0l2.06-12.58c.33-2.06,0-2.82,0-2.82h0ZM327.58,397.95c-1.41,0-2.71-.43-3.79-1.19-1.52-1.08-3.9-3.79-2.93-9.97l2.06-12.58c1.08-6.61,5.64-13.55,10.52-16.15,2.82-1.52,5.75-1.41,7.91.11,1.52,1.08,3.9,3.79,2.93,9.87l-2.06,12.58c-1.08,6.61-5.64,13.55-10.52,16.15-1.41.76-2.82,1.08-4.12,1.08h0v.11Z"/><path class="cls-3" d="M351.54,351.54c-2.39,1.95-5.75,6.83-6.5,11.38l-3.36,20.27c-.33,2.06,0,2.82,0,2.82,2.39-1.95,5.75-6.72,6.5-11.38l3.69.65-3.69-.65,3.36-20.27c.33-2.06,0-2.82,0-2.82h0ZM341.14,393.18c-1.41,0-2.71-.43-3.79-1.19-1.52-1.08-3.9-3.79-2.93-9.97l3.36-20.27c1.08-6.61,5.64-13.66,10.52-16.15,2.82-1.52,5.75-1.41,7.91.11,1.52,1.08,3.9,3.79,2.93,9.97l-3.36,20.27c-1.08,6.61-5.64,13.66-10.52,16.15-1.41.76-2.82,1.08-4.12,1.08h0Z"/><path class="cls-3" d="M365.53,370.62h0ZM366.4,339.29c-2.39,1.95-5.75,6.83-6.5,11.38l-4.55,27.97c-.33,2.06,0,2.82,0,2.82,2.39-1.95,5.75-6.83,6.5-11.38l4.55-27.97c.33-2.06,0-2.82,0-2.82h0ZM354.58,388.62c-1.41,0-2.71-.43-3.79-1.19-1.52-1.08-3.9-3.79-2.93-9.87l4.55-27.97c1.08-6.61,5.64-13.55,10.52-16.15,2.82-1.52,5.75-1.52,7.91.11,1.52,1.08,3.9,3.79,2.93,9.87l-4.55,27.97h0c-1.08,6.61-5.64,13.66-10.52,16.15-1.41.76-2.82,1.08-4.12,1.08h0Z"/><path class="cls-3" d="M380.06,333.98c-2.39,1.95-5.75,6.83-6.5,11.38l-3.36,20.27c-.33,2.06,0,2.82,0,2.82,2.39-1.95,5.85-6.83,6.5-11.38h0l3.36-20.27c.33-2.06,0-2.82,0-2.82h0ZM369.54,375.61c-1.41,0-2.71-.43-3.79-1.19-1.52-1.08-3.9-3.79-2.93-9.97l3.36-20.27c1.08-6.61,5.64-13.66,10.52-16.26,2.82-1.52,5.75-1.41,7.91.11,1.52,1.08,3.9,3.79,2.93,9.97l-3.36,20.27c-1.08,6.61-5.64,13.55-10.52,16.15-1.41.76-2.82,1.08-4.12,1.08h0v.11Z"/><path class="cls-3" d="M393.39,330.51c-2.39,1.95-5.75,6.83-6.5,11.38l-2.06,12.58c-.33,2.06,0,2.82,0,2.82,2.39-1.95,5.75-6.72,6.5-11.38h0l2.06-12.58c.33-2.06,0-2.82,0-2.82h0ZM384.07,364.45c-1.41,0-2.71-.43-3.79-1.19-1.52-1.08-3.9-3.79-2.93-9.87l2.06-12.58c1.08-6.61,5.64-13.66,10.52-16.26,2.82-1.52,5.75-1.52,7.91.11,1.52,1.08,3.9,3.79,2.93,9.97l-2.06,12.58c-1.08,6.61-5.64,13.55-10.52,16.15-1.41.76-2.82,1.08-4.12,1.08h0Z"/><path class="cls-3" d="M360,181.22c-2.93,0-5.2-2.39-5.2-5.2v-90.31c0-2.82,2.39-5.2,5.2-5.2s5.2,2.39,5.2,5.2v90.31c0,2.93-2.39,5.2-5.2,5.2h0Z"/><path class="cls-3" d="M225.13,226.11c-1.3,0-2.71-.54-3.69-1.52l-63.32-63.32c-2.06-2.06-2.06-5.31,0-7.37s5.42-2.06,7.37,0l63.32,63.21c2.06,2.06,2.06,5.31,0,7.37-.98.98-2.39,1.52-3.69,1.52h0v.11Z"/><path class="cls-3" d="M176.45,360.33h-88.68c-2.93,0-5.2-2.28-5.2-5.2s2.39-5.2,5.2-5.2h88.68c2.93,0,5.2,2.39,5.2,5.2s-2.39,5.2-5.2,5.2Z"/><path class="cls-3" d="M494.98,226.11c-1.3,0-2.71-.54-3.69-1.52-2.06-2.06-2.06-5.31,0-7.37l63.32-63.21c2.06-2.06,5.42-2.06,7.37,0,2.06,2.06,2.06,5.31,0,7.37l-63.42,63.32c-.98.98-2.39,1.52-3.69,1.52h0l.11-.11Z"/><path class="cls-3" d="M632.23,360.33h-88.68c-2.93,0-5.2-2.28-5.2-5.2s2.39-5.2,5.2-5.2h88.68c2.93,0,5.2,2.39,5.2,5.2s-2.39,5.2-5.2,5.2Z"/></g></svg>