<?xml version="1.0" encoding="UTF-8"?><svg id="Layer_1" xmlns="http://www.w3.org/2000/svg" viewBox="0 0 720 720"><defs><style>.cls-1{fill:#fff;}.cls-1,.cls-2,.cls-3,.cls-4,.cls-5,.cls-6{fill-rule:evenodd;}.cls-2{fill:#00af81;}.cls-3{fill:#f4d9dc;}.cls-4{fill:#3d68ec;}.cls-5{fill:#14100d;}.cls-6{fill:#dd784b;}</style></defs><path id="Fill-1" class="cls-5" d="M93.19,513.48l-14.07-9.13c-2.3-3.49-2.87-6.72-2.87-10.74v-214.09c.57-14.77,10.34-31.16,24.13-38.68L422.63,67.3c5.46-2.69,11.2-4.3,16.95-1.61l14.07,9.13c-5.74-2.95-11.49-1.34-16.95,1.61L114.44,250.23c-13.5,7.79-23.55,23.91-23.84,38.68v214.09c0,4.03.57,7.25,2.87,10.74"/><path id="Fill-3" class="cls-5" d="M93.19,517.78c-.86,0-1.72,0-2.58-.81l-14.07-9.13c-.57-.27-1.15-.81-1.44-1.34-2.87-4.3-3.45-8.33-3.45-12.89v-214.09c.57-16.39,11.2-33.85,26.14-42.44L420.33,63.54c5.17-2.69,12.92-5.64,21.25-1.61l14.65,9.4c2.01,1.34,2.58,3.76,1.44,5.91-1.15,1.88-4.02,2.69-6.03,1.61-3.45-1.61-7.18-1.34-12.64,1.61L116.74,253.73c-12.06,6.98-21.25,21.76-21.54,35.19v213.82c0,3.49.29,5.64,2.01,8.6,1.15,1.61.86,4.03-.86,5.37-.86.81-2.01,1.34-3.16,1.34M82.56,501.66l3.16,2.15v-214.63c.57-16.12,11.49-34.11,26.14-42.44L434.4,72.41c1.44-.81,2.87-1.34,4.6-1.88l-2.01-1.34c-3.16-1.34-6.61-1.07-12.06,1.61L102.67,244.86c-12.06,6.98-21.25,21.76-21.54,35.19v213.82c0,2.95,0,5.37,1.72,7.79"/><path id="Fill-5" class="cls-4" d="M114.44,250.23L436.7,76.17c13.21-6.98,23.84-1.34,23.84,12.89v214.09c0,14.24-10.91,31.7-24.13,38.68l-321.97,173.8c-13.21,6.98-23.84,1.34-23.84-12.89v-214.09c0-14.24,10.91-31.7,24.13-38.68"/><path id="Fill-7" class="cls-5" d="M103.82,523.15c-3.16,0-6.03-.81-8.62-2.15-6.03-3.22-9.19-9.67-9.19-18.27v-214.09c0-15.58,11.78-34.65,26.42-42.44L434.4,72.41c7.75-4.3,15.51-4.84,21.54-1.61,6.03,3.22,9.19,9.67,9.19,18.27v214.09c0,15.85-11.49,34.65-26.42,42.44l-321.97,173.8c-4.6,2.42-8.9,3.49-12.92,3.49h0v.27ZM447.33,77.51c-2.58,0-5.46.81-8.33,2.42L116.74,253.73c-11.78,6.18-21.54,22.3-21.54,34.92v214.09c0,5.1,1.72,9.13,4.6,10.74,2.87,1.61,7.47,1.07,12.35-1.61l322.26-174.07c11.78-6.18,21.54-22.3,21.54-34.92V89.06c0-5.1-1.72-9.13-4.6-10.74-1.15-.54-2.58-.81-4.02-.81h0Z"/><path id="Fill-9" class="cls-3" d="M115.88,266.08l85.02-45.93,234.37-126.25c6.03-3.22,10.91-.54,10.91,5.91v208.45c0,6.45-4.88,14.51-10.91,17.73l-264.81,142.91-54.86,29.55c-6.03,3.22-10.91.54-10.91-5.91v-208.45c0-6.45,4.88-14.51,10.91-17.73"/><path id="Fill-11" class="cls-5" d="M111,503.81c-2.01,0-3.73-.54-5.17-1.34-3.45-1.88-5.46-5.64-5.46-10.48v-208.45c0-8.06,6.03-17.46,13.5-21.49L432.97,90.14c4.31-2.42,8.9-2.69,12.35-.81,3.45,1.88,5.46,5.64,5.46,10.48v208.45c0,8.06-6.03,17.46-13.21,21.49L118.18,501.93c-2.3,1.34-4.88,1.88-7.18,1.88h0ZM440.15,96.85c-.57,0-1.44,0-2.58.81L118.18,269.84c-4.6,2.42-8.62,9.13-8.62,13.97v208.45c0,1.61.29,2.69.86,2.95.57,0,1.72,0,3.16-.81l319.38-172.45c4.6-2.42,8.62-9.13,8.62-13.97V99.81c0-1.61-.29-2.69-.86-2.95h-.57,0Z"/><path id="Fill-13" class="cls-4" d="M681.98,470.23v16.39c-1.44,4.84-4.88,7.79-9.48,10.21l-323.69,174.87c-7.18,3.76-14.36,5.1-22.4,5.37-9.19,0-17.52-1.07-25.56-5.37l-198.75-107.45c-4.6-2.69-8.04-5.37-9.48-10.48v-16.39c1.44,4.84,4.88,7.79,9.48,10.21l198.75,107.45c8.04,4.3,16.37,5.37,25.56,5.37,8.04-.27,15.22-1.61,22.4-5.37l323.69-174.87c4.6-2.69,8.04-5.37,9.48-10.48"/><path id="Fill-15" class="cls-5" d="M325.55,681.37c-10.63,0-19.24-1.88-27-5.91l-198.75-107.45c-4.6-2.69-9.48-6.18-11.78-12.89v-17.73c0-2.15,1.72-4.03,4.02-4.3,2.3,0,4.31,1.07,5.17,2.95.86,3.22,3.16,5.37,7.47,7.79l198.75,107.45c6.61,3.49,13.79,5.1,23.26,4.84,8.33-.27,14.36-1.61,20.11-4.84l323.69-174.87c4.31-2.42,6.32-4.57,7.47-7.79.57-2.15,2.87-3.22,5.17-2.95,2.3.27,4.02,2.15,4.02,4.3v17.46c-2.01,6.72-6.89,10.21-11.49,12.89l-323.69,174.87c-7.18,3.76-14.65,5.64-24.41,5.91h-1.15l-.86.27ZM97.21,553.24c1.15,2.95,3.16,4.84,7.18,7.25l198.75,107.45c6.61,3.49,13.79,4.84,23.26,4.84,8.33-.27,14.36-1.88,20.11-4.84l323.69-174.6c4.02-2.42,6.32-4.3,7.18-7.25v-3.22c-.86.54-1.72,1.07-2.58,1.61l-323.69,174.87c-7.18,3.76-14.65,5.37-24.41,5.91-11.49,0-20.11-1.88-28.15-5.91l-198.75-107.72c-.86-.54-1.72-1.07-2.58-1.61v3.22h0Z"/><path id="Fill-17" class="cls-4" d="M102.09,521.81l323.69-174.87c13.21-7.25,34.75-7.25,47.96,0l198.75,107.45c13.21,7.25,13.21,18.8,0,26.06l-323.69,174.87c-13.21,6.98-34.75,6.98-47.96,0l-198.75-107.45c-13.21-7.25-13.21-18.8,0-26.06"/><path id="Fill-19" class="cls-5" d="M324.69,664.98c-9.48,0-18.96-1.88-26.42-5.91l-198.47-107.45c-7.75-4.3-12.06-10.21-12.06-16.65s4.31-12.36,12.06-16.65l323.69-174.87c14.65-7.79,38.2-7.79,52.56,0l198.75,107.45c7.75,4.3,12.35,10.21,12.35,16.65s-4.31,12.36-12.35,16.65l-323.69,174.87c-7.18,3.76-16.66,5.91-26.42,5.91h0ZM104.39,525.57c-4.88,2.69-7.47,5.91-7.47,9.13s2.87,6.72,7.47,9.13l198.75,107.45c11.78,6.45,31.59,6.45,43.37,0l323.69-174.87c4.88-2.69,7.47-5.91,7.47-9.13s-2.87-6.72-7.75-9.13l-198.75-107.45c-11.78-6.45-31.59-6.45-43.37,0l-323.4,174.87Z"/><polygon id="Fill-21" class="cls-4" points="449.91 583.05 538.37 535.24 470.59 498.44 382.13 546.25 449.91 583.05"/><path id="Fill-23" class="cls-5" d="M449.91,587.35c-.86,0-1.72,0-2.3-.54l-67.78-36.53c-1.44-.81-2.3-2.15-2.3-3.76s.86-2.95,2.3-3.76l88.46-47.81c1.44-.81,3.16-.81,4.6,0l67.78,36.53c1.44.81,2.3,2.15,2.3,3.76s-.86,2.95-2.3,3.76l-88.46,47.81c-.57.54-1.44.54-2.3.54h0ZM391.32,546.25l58.59,31.7,79.27-42.98-58.59-31.7-79.27,42.71v.27Z"/><path id="Fill-25" class="cls-4" d="M142.59,527.99c98.23-52.92,196.17-105.84,294.11-159.02,7.18-3.76,18.67-3.76,25.56,0l100.24,54.26c6.89,3.76,6.89,9.94,0,13.97-97.94,52.92-196.17,105.84-294.11,159.02-7.18,3.76-18.67,3.76-25.56,0l-100.24-54.26c-7.18-3.76-6.89-9.94,0-13.97"/><path id="Fill-27" class="cls-5" d="M255.75,603.2c-5.46,0-10.91-1.07-15.22-3.49l-100.24-54.26c-4.88-2.69-7.47-6.45-7.47-10.74s2.87-8.06,7.47-10.74l294.11-159.02c8.33-4.57,21.83-4.57,30.16,0l100.24,54.26c4.88,2.69,7.47,6.45,7.47,10.74s-2.87,8.06-7.47,10.74l-294.11,159.02c-4.31,2.42-9.77,3.49-15.22,3.49h.29ZM142.59,527.99l2.3,3.76c-1.72,1.07-2.87,2.15-2.87,3.22s1.15,2.15,2.87,3.22l100.24,54.26c5.46,2.95,15.51,2.95,20.97,0l294.11-159.02c1.72-1.07,2.87-2.15,2.87-3.22s-1.15-2.15-2.87-3.22l-100.24-54.26c-5.46-2.95-15.51-2.95-20.97,0l-294.11,159.02s-2.3-3.76-2.3-3.76Z"/><path id="Fill-29" class="cls-1" d="M271.84,512.67l14.36-7.79c2.87-1.61,7.75-1.61,10.63,0l14.36,7.79c2.87,1.61,2.87,4.03,0,5.64l-14.36,7.79c-2.87,1.61-7.75,1.61-10.63,0l-14.36-7.79c-2.87-1.61-2.87-4.03,0-5.64"/><path id="Fill-31" class="cls-5" d="M291.37,531.75c-2.87,0-5.46-.54-7.47-1.88l-14.36-7.79c-2.87-1.61-4.6-4.03-4.6-6.45s1.72-5.1,4.6-6.72l14.36-7.79c4.31-2.42,10.91-2.42,15.22,0l14.36,7.79c2.87,1.61,4.6,4.03,4.6,6.72s-1.72,5.1-4.6,6.72l-14.36,7.79c-2.3,1.07-4.88,1.88-7.47,1.88h0l-.29-.27ZM275.57,515.63l12.92,6.98c1.44.81,4.6.81,6.03,0l12.92-6.98-12.92-6.98c-1.44-.81-4.6-.81-6.03,0l-12.92,6.98Z"/><path id="Fill-33" class="cls-1" d="M214.97,543.3l-14.36,7.79c-2.87,1.61-2.87,4.03,0,5.64l14.36,7.79c2.87,1.61,7.75,1.61,10.63,0l14.36-7.79c2.87-1.61,2.87-4.03,0-5.64l-14.36-7.79c-2.87-1.61-7.75-1.61-10.63,0"/><path id="Fill-35" class="cls-5" d="M220.14,570.16c-2.58,0-5.46-.54-7.47-1.88l-14.36-7.79c-2.87-1.61-4.6-4.03-4.6-6.72s1.72-5.1,4.6-6.72l14.36-7.79c4.31-2.42,10.91-2.42,15.22,0l14.36,7.79c2.87,1.61,4.6,4.03,4.6,6.72s-1.72,5.1-4.6,6.72l-14.36,7.79c-2.3,1.07-4.88,1.88-7.75,1.88h0ZM204.34,554.04l12.92,6.98c1.44.81,4.6.81,6.03,0l12.92-6.98-12.92-6.98c-1.44-.81-4.6-.81-6.03,0l-12.92,6.98Z"/><path id="Fill-37" class="cls-1" d="M250.58,562.64l-14.36,7.79c-2.87,1.61-2.87,4.03,0,5.64l14.36,7.79c2.87,1.61,7.75,1.61,10.63,0l14.36-7.79c2.87-1.61,2.87-4.03,0-5.64l-14.36-7.79c-2.87-1.61-7.75-1.61-10.63,0"/><path id="Fill-39" class="cls-5" d="M255.75,589.5c-2.58,0-5.46-.54-7.47-1.61l-14.36-7.79c-2.87-1.61-4.6-4.03-4.6-6.72s1.72-5.1,4.6-6.45l14.36-7.79c4.31-2.42,10.91-2.42,15.22,0l14.36,7.79c2.87,1.61,4.6,4.03,4.6,6.45s-1.72,5.1-4.6,6.72l-14.36,7.79c-2.3,1.07-4.88,1.61-7.75,1.61h0ZM239.96,573.38l12.92,6.98c1.44.81,4.6.81,6.03,0l12.92-6.98-12.92-6.98c-1.44-.81-4.6-.81-6.03,0l-12.92,6.98Z"/><path id="Fill-41" class="cls-1" d="M225.6,526.37l14.36-7.79c2.87-1.61,2.87-4.03,0-5.64l-14.36-7.79c-2.87-1.61-7.75-1.61-10.63,0l-14.36,7.79c-2.87,1.61-2.87,4.03,0,5.64l14.36,7.79c2.87,1.61,7.75,1.61,10.63,0"/><path id="Fill-43" class="cls-5" d="M220.14,531.75c-2.58,0-5.46-.54-7.47-1.61l-14.65-7.79c-2.87-1.61-4.6-4.03-4.6-6.45s1.72-5.1,4.6-6.72l14.65-7.79c4.31-2.42,10.91-2.42,15.22,0l14.36,7.79c2.87,1.61,4.6,4.03,4.6,6.72s-1.72,5.1-4.6,6.45l-14.36,7.79c-2.3,1.07-4.88,1.61-7.47,1.61h-.29ZM204.34,515.63l12.92,6.98c1.44.81,4.6.81,6.03,0l12.92-6.98-12.92-6.98c-1.44-.81-4.6-.81-6.03,0l-12.92,6.98Z"/><path id="Fill-45" class="cls-1" d="M261.21,507.03l14.36-7.79c2.87-1.61,2.87-4.03,0-5.64l-14.36-7.79c-2.87-1.61-7.75-1.61-10.63,0l-14.36,7.79c-2.87,1.61-2.87,4.03,0,5.64l14.36,7.79c2.87,1.61,7.75,1.61,10.63,0"/><path id="Fill-47" class="cls-5" d="M255.75,512.41c-2.58,0-5.46-.54-7.47-1.88l-14.36-7.79c-2.87-1.61-4.6-4.03-4.6-6.72s1.72-5.1,4.6-6.45l14.36-7.79c4.31-2.42,10.91-2.42,15.22,0l14.36,7.79c2.87,1.61,4.6,4.03,4.6,6.72s-1.72,5.1-4.6,6.45l-14.36,7.79c-2.3,1.07-4.88,1.88-7.75,1.88h0ZM239.96,496.29l12.92,6.98c1.44.81,4.6.81,6.03,0l12.92-6.98-12.92-6.98c-1.44-.81-4.6-.81-6.03,0l-12.92,6.98Z"/><path id="Fill-49" class="cls-1" d="M204.34,537.66l-14.36,7.79c-2.87,1.61-7.75,1.61-10.63,0l-14.36-7.79c-2.87-1.61-2.87-4.03,0-5.64l14.36-7.79c2.87-1.61,7.75-1.61,10.63,0l14.36,7.79c2.87,1.61,2.87,4.03,0,5.64"/><path id="Fill-51" class="cls-5" d="M184.52,551.09c-2.58,0-5.46-.54-7.47-1.88l-14.36-7.79c-2.87-1.61-4.6-4.03-4.6-6.72s1.72-5.1,4.6-6.45l14.36-7.79c4.31-2.42,10.91-2.42,15.22,0l14.36,7.79c2.87,1.61,4.6,4.03,4.6,6.72s-1.72,5.1-4.6,6.45l-14.36,7.79c-2.3,1.07-4.88,1.88-7.47,1.88h-.29ZM168.73,534.7l12.92,6.98c1.44.81,4.6.81,6.03,0l12.92-6.98-12.92-6.98c-1.44-.81-4.6-.81-6.03,0l-12.92,6.98Z"/><path id="Fill-53" class="cls-1" d="M236.22,532.02l14.36-7.79c2.87-1.61,7.75-1.61,10.63,0l14.36,7.79c2.87,1.61,2.87,4.03,0,5.64l-14.36,7.79c-2.87,1.61-7.75,1.61-10.63,0l-14.36-7.79c-2.87-1.61-2.87-4.03,0-5.64"/><path id="Fill-55" class="cls-5" d="M255.75,551.09c-2.87,0-5.46-.54-7.47-1.88l-14.36-7.79c-2.87-1.61-4.6-4.03-4.6-6.45s1.72-5.1,4.6-6.72l14.36-7.79c4.31-2.42,10.91-2.42,15.22,0l14.36,7.79c2.87,1.61,4.6,4.03,4.6,6.45s-1.72,5.1-4.6,6.72l-14.36,7.79c-2.3,1.07-4.88,1.88-7.47,1.88h-.29ZM239.96,534.97l12.92,6.98c1.44.81,4.6.81,6.03,0l12.92-6.98-12.92-6.98c-1.44-.81-4.31-.81-6.03,0l-12.92,6.98Z"/><path id="Fill-57" class="cls-1" d="M343.07,474.26l14.36-7.79c2.87-1.61,7.75-1.61,10.63,0l14.36,7.79c2.87,1.61,2.87,4.03,0,5.64l-14.36,7.79c-2.87,1.61-7.75,1.61-10.63,0l-14.36-7.79c-2.87-1.61-2.87-4.03,0-5.64"/><path id="Fill-59" class="cls-5" d="M362.6,493.33c-2.87,0-5.46-.54-7.47-1.88l-14.36-7.79c-2.87-1.61-4.6-4.03-4.6-6.45s1.72-5.1,4.6-6.72l14.36-7.79c4.31-2.42,10.91-2.42,15.22,0l14.36,7.79c2.87,1.61,4.6,4.03,4.6,6.45,0,2.69-1.72,5.1-4.6,6.72l-14.36,7.79c-2.01,1.07-4.88,1.88-7.47,1.88h-.29ZM346.8,477.22l12.92,6.98c1.44.81,4.6.81,6.03,0l12.92-6.98-12.92-6.98c-1.44-.81-4.6-.81-6.03,0l-12.92,6.98Z"/><path id="Fill-61" class="cls-1" d="M378.68,493.6l14.36-7.79c2.87-1.61,7.75-1.61,10.63,0l14.36,7.79c2.87,1.61,2.87,4.03,0,5.64l-14.36,7.79c-2.87,1.61-7.75,1.61-10.63,0l-14.36-7.79c-2.87-1.61-2.87-4.03,0-5.64"/><path id="Fill-63" class="cls-5" d="M398.21,512.41c-2.87,0-5.46-.54-7.75-1.88l-14.36-7.79c-2.87-1.61-4.6-4.03-4.6-6.72s1.72-5.1,4.6-6.45l14.36-7.79c4.31-2.42,10.91-2.42,15.22,0l14.36,7.79c2.87,1.61,4.6,4.03,4.6,6.72s-1.72,5.1-4.6,6.45l-14.36,7.79c-2.3,1.07-4.88,1.88-7.47,1.88h0ZM382.42,496.29l12.92,6.98c1.44.81,4.6.81,6.03,0l12.92-6.98-12.92-6.98c-1.44-.81-4.6-.81-6.03,0l-12.92,6.98Z"/><path id="Fill-65" class="cls-1" d="M296.83,487.69l14.36-7.79c2.87-1.61,2.87-4.03,0-5.64l-14.36-7.79c-2.87-1.61-7.75-1.61-10.63,0l-14.36,7.79c-2.87,1.61-2.87,4.03,0,5.64l14.36,7.79c2.87,1.61,7.75,1.61,10.63,0"/><path id="Fill-67" class="cls-5" d="M291.37,493.33c-2.58,0-5.46-.54-7.47-1.88l-14.36-7.79c-2.87-1.61-4.6-4.03-4.6-6.72s1.72-5.1,4.6-6.45l14.36-7.79c4.31-2.42,10.91-2.42,15.22,0l14.36,7.79c2.87,1.61,4.6,4.03,4.6,6.72s-1.72,5.1-4.6,6.45l-14.36,7.79c-2.3,1.07-4.88,1.88-7.75,1.88h0ZM275.57,477.22l12.92,6.98c1.44.81,4.31.81,6.03,0h0l12.92-6.98-12.92-6.98c-1.44-.81-4.6-.81-6.03,0l-12.92,6.98Z"/><path id="Fill-69" class="cls-1" d="M332.44,468.62l14.36-7.79c2.87-1.61,2.87-4.03,0-5.64l-14.36-7.79c-2.87-1.61-7.75-1.61-10.63,0l-14.36,7.79c-2.87,1.61-2.87,4.03,0,5.64l14.36,7.79c2.87,1.61,7.75,1.61,10.63,0"/><path id="Fill-71" class="cls-5" d="M327.27,473.99c-2.87,0-5.46-.54-7.47-1.88l-14.36-7.79c-2.87-1.61-4.6-4.03-4.6-6.72s1.72-5.1,4.6-6.45l14.36-7.79c4.31-2.42,10.91-2.42,15.22,0l14.36,7.79c2.87,1.61,4.6,4.03,4.6,6.72s-1.72,5.1-4.6,6.45l-14.65,7.79c-2.01,1.07-4.88,1.88-7.47,1.88h0ZM311.47,457.88l12.92,6.98c1.44.81,4.6.81,6.03,0l12.92-6.98-12.92-6.98c-1.44-.81-4.6-.81-6.03,0l-12.92,6.98Z"/><path id="Fill-73" class="cls-1" d="M307.45,493.6l14.36-7.79c2.87-1.61,7.75-1.61,10.63,0l14.36,7.79c2.87,1.61,2.87,4.03,0,5.64l-14.36,7.79c-2.87,1.61-7.75,1.61-10.63,0l-14.36-7.79c-2.87-1.61-2.87-4.03,0-5.64"/><path id="Fill-75" class="cls-5" d="M326.98,512.41c-2.87,0-5.46-.54-7.47-1.88l-14.36-7.79c-2.87-1.61-4.6-4.03-4.6-6.45s1.72-5.1,4.6-6.72l14.36-7.79c4.31-2.42,10.91-2.42,15.22,0l14.36,7.79c2.87,1.61,4.6,4.03,4.6,6.45s-1.72,5.1-4.6,6.72l-14.36,7.79c-2.3,1.07-4.88,1.88-7.47,1.88h-.29ZM311.19,496.29l12.92,6.98c1.44.81,4.6.81,6.03,0l12.92-6.98-12.92-6.98c-1.44-.81-4.6-.81-6.03,0l-12.92,6.98Z"/><path id="Fill-77" class="cls-1" d="M271.55,551.36l85.59-46.2c2.87-1.61,7.75-1.61,10.63,0l14.36,7.79c2.87,1.61,2.87,4.03,0,5.64l-85.59,46.2c-2.87,1.61-7.75,1.61-10.63,0l-14.36-7.79c-2.87-1.61-2.87-4.03,0-5.64"/><path id="Fill-79" class="cls-5" d="M291.37,570.16c-2.58,0-5.46-.54-7.47-1.61l-14.36-7.79c-2.87-1.61-4.6-4.03-4.6-6.72s1.72-5.1,4.6-6.45h0l85.59-46.2c4.31-2.42,10.91-2.42,15.22,0l14.36,7.79c2.87,1.61,4.6,4.03,4.6,6.45s-1.72,5.1-4.6,6.72l-85.88,46.2c-2.01,1.07-4.88,1.61-7.47,1.61h0ZM275.57,554.04l12.92,6.98c1.44.81,4.6.81,6.03,0l84.15-45.4-12.92-6.98c-1.44-.81-4.6-.81-6.03,0l-84.15,45.4Z"/><path id="Fill-81" class="cls-1" d="M461.4,410.33l14.36-7.79c2.87-1.61,7.75-1.61,10.63,0l14.36,7.79c2.87,1.61,2.87,4.03,0,5.64l-14.36,7.79c-2.87,1.61-7.75,1.61-10.63,0l-14.36-7.79c-2.87-1.61-2.87-4.03,0-5.64"/><path id="Fill-83" class="cls-5" d="M481.22,429.4c-2.58,0-5.46-.54-7.47-1.88l-14.36-7.79c-2.87-1.61-4.6-4.03-4.6-6.45s1.72-5.1,4.6-6.72l14.65-7.79c4.31-2.42,10.91-2.42,15.22,0l14.36,7.79c2.87,1.61,4.6,4.03,4.6,6.72s-1.72,5.1-4.6,6.72l-14.36,7.79c-2.3,1.34-4.88,1.88-7.75,1.88h0l-.29-.27ZM465.42,413.02l12.92,6.98c1.44.81,4.6.81,6.03,0l12.92-6.98-12.92-6.98c-1.44-.81-4.6-.81-6.03,0l-12.92,6.98Z"/><path id="Fill-85" class="cls-1" d="M497.01,429.4l14.36-7.79c2.87-1.61,7.75-1.61,10.63,0l14.36,7.79c2.87,1.61,2.87,4.03,0,5.64l-14.36,7.79c-2.87,1.61-7.47,1.61-10.63,0l-14.36-7.79c-2.87-1.61-2.87-4.03,0-5.64"/><path id="Fill-87" class="cls-5" d="M516.83,448.47c-2.58,0-5.46-.54-7.75-1.88l-14.36-7.79c-2.87-1.61-4.6-4.03-4.6-6.72s1.72-5.1,4.6-6.72l14.36-7.79c4.31-2.42,10.91-2.42,15.22,0l14.36,7.79c2.87,1.61,4.6,4.03,4.6,6.45s-1.72,5.1-4.6,6.72l-14.36,7.79c-2.3,1.07-4.88,1.88-7.47,1.88h0v.27ZM501.04,432.36l12.92,6.98c1.44.81,4.6.81,6.03,0l12.92-6.98-12.92-6.98c-1.44-.81-4.6-.81-6.03,0l-12.92,6.98Z"/><path id="Fill-89" class="cls-1" d="M450.77,404.69l14.36-7.79c2.87-1.61,2.87-4.03,0-5.64l-14.36-7.79c-2.87-1.61-7.75-1.61-10.63,0l-14.36,7.79c-2.87,1.61-2.87,4.03,0,5.64l14.36,7.79c2.87,1.61,7.75,1.61,10.63,0"/><path id="Fill-91" class="cls-5" d="M445.6,410.06c-2.58,0-5.46-.54-7.47-1.88l-14.65-7.79c-2.87-1.61-4.6-4.03-4.6-6.45s1.72-5.1,4.6-6.72l14.65-7.79c4.31-2.42,10.91-2.42,15.22,0l14.36,7.79c2.87,1.61,4.6,4.03,4.6,6.72s-1.72,5.1-4.6,6.45l-14.36,7.79c-2.3,1.07-4.88,1.88-7.47,1.88h-.29ZM429.81,393.94l12.92,6.98c1.44.81,4.6.81,6.03,0l12.92-6.98-12.92-6.98c-1.44-.81-4.6-.81-6.03,0l-12.92,6.98Z"/><path id="Fill-93" class="cls-1" d="M425.78,429.4l14.36-7.79c2.87-1.61,7.75-1.61,10.63,0l14.36,7.79c2.87,1.61,2.87,4.03,0,5.64l-14.36,7.79c-2.87,1.61-7.75,1.61-10.63,0l-14.36-7.79c-2.87-1.61-2.87-4.3,0-5.64"/><path id="Fill-95" class="cls-5" d="M445.6,448.47c-2.58,0-5.46-.54-7.47-1.88l-14.36-7.79c-2.87-1.61-4.6-4.03-4.6-6.72s1.72-5.1,4.6-6.72l14.65-7.79c4.31-2.42,10.91-2.42,15.22,0l14.36,7.79c2.87,1.61,4.6,4.03,4.6,6.45,0,2.69-1.72,5.1-4.6,6.72l-14.36,7.79c-2.3,1.07-4.88,1.88-7.47,1.88h0l-.57.27ZM429.81,432.36l12.92,6.98c1.44.81,4.6.81,6.03,0l12.92-6.98-12.92-6.98c-1.44-.81-4.6-.81-6.03,0l-12.92,6.98Z"/><path id="Fill-97" class="cls-1" d="M461.4,448.74l14.36-7.79c2.87-1.61,7.75-1.61,10.63,0l14.36,7.79c2.87,1.61,2.87,4.03,0,5.64l-14.36,7.79c-2.87,1.61-7.75,1.61-10.63,0l-14.36-7.79c-2.87-1.61-2.87-4.03,0-5.64"/><path id="Fill-99" class="cls-5" d="M481.22,467.82c-2.58,0-5.46-.54-7.47-1.61l-14.36-7.79c-2.87-1.61-4.6-4.03-4.6-6.72s1.72-5.1,4.6-6.72l14.36-7.79c4.31-2.42,10.91-2.42,15.22,0l14.36,7.79c2.87,1.61,4.6,4.03,4.6,6.72s-1.72,5.1-4.6,6.45l-14.36,7.79c-2.3,1.07-4.88,1.88-7.47,1.88h-.29ZM465.42,451.7l12.92,6.98c1.44.81,4.6.81,6.03,0l12.92-6.98-12.92-6.98c-1.44-.81-4.6-.81-6.03,0l-12.92,6.98Z"/><path id="Fill-101" class="cls-1" d="M379.54,443.1l14.65-7.79c2.87-1.61,2.87-4.3,0-5.64l-14.65-7.79c-2.87-1.61-7.47-1.61-10.63,0l-14.36,7.79c-2.87,1.61-2.87,4.03,0,5.64l14.36,7.79c2.87,1.61,7.75,1.61,10.63,0"/><path id="Fill-103" class="cls-5" d="M374.37,448.47c-2.58,0-5.46-.54-7.47-1.88l-14.36-7.79c-2.87-1.61-4.6-4.03-4.6-6.45s1.72-5.1,4.6-6.72l14.36-7.79c4.31-2.42,10.91-2.42,15.22,0l14.36,7.79c2.87,1.61,4.6,4.03,4.6,6.72s-1.72,5.1-4.6,6.45l-14.36,7.79c-2.01,1.07-4.88,1.88-7.47,1.88h-.29ZM358.58,432.36l12.92,6.98c1.44.81,4.31.81,6.03,0l12.92-6.98-12.92-6.98c-1.44-.81-4.6-.81-6.03,0l-12.92,6.98Z"/><path id="Fill-105" class="cls-1" d="M415.16,423.76l14.36-7.79c2.87-1.61,2.87-4.03,0-5.64l-14.36-7.79c-2.87-1.61-7.75-1.61-10.63,0l-14.36,7.79c-2.87,1.61-2.87,4.03,0,5.64l14.36,7.79c2.87,1.61,7.75,1.61,10.63,0"/><path id="Fill-107" class="cls-5" d="M409.99,429.4c-2.87,0-5.46-.54-7.47-1.88l-14.36-7.79c-2.87-1.61-4.6-4.03-4.6-6.72s1.72-5.1,4.6-6.45l14.36-7.79c4.31-2.42,10.91-2.42,15.22,0l14.36,7.79c2.87,1.61,4.6,4.03,4.6,6.72s-1.72,5.1-4.6,6.45l-14.36,7.79c-2.3,1.34-4.88,1.88-7.47,1.88h-.29ZM394.19,413.02l12.92,6.98c1.44.81,4.6.81,6.03,0h0l12.92-6.98-12.92-6.98c-1.44-.81-4.6-.81-6.03,0l-12.92,6.98Z"/><path id="Fill-109" class="cls-1" d="M390.17,448.74l14.36-7.79c2.87-1.61,7.75-1.61,10.63,0l14.36,7.79c2.87,1.61,2.87,4.03,0,5.64l-14.36,7.79c-2.87,1.61-7.75,1.61-10.63,0l-14.36-7.79c-2.87-1.61-2.87-4.03,0-5.64"/><path id="Fill-111" class="cls-5" d="M409.99,467.82c-2.87,0-5.46-.54-7.47-1.88l-14.36-7.79c-2.87-1.61-4.6-4.03-4.6-6.72s1.72-5.1,4.6-6.72h0l14.36-7.79c4.31-2.42,10.91-2.42,15.22,0l14.36,7.79c2.87,1.61,4.6,4.03,4.31,6.45,0,2.69-1.72,5.1-4.6,6.72l-14.36,7.79c-2.3,1.07-4.88,1.88-7.47,1.88h0v.27ZM394.19,451.7l12.92,6.98c1.44.81,4.6.81,6.03,0l12.92-6.98-12.92-6.98c-1.44-.81-4.6-.81-6.03,0l-12.92,6.98Z"/><path id="Fill-113" class="cls-1" d="M425.78,468.08l14.36-7.79c2.87-1.61,7.75-1.61,10.63,0l14.36,7.79c2.87,1.61,2.87,4.03,0,5.64l-14.36,7.79c-2.87,1.61-7.75,1.61-10.63,0l-14.36-7.79c-2.87-1.61-2.87-4.03,0-5.64"/><path id="Fill-115" class="cls-5" d="M445.6,487.16c-2.58,0-5.46-.54-7.47-1.88l-14.36-7.79c-2.87-1.61-4.6-4.03-4.6-6.45s1.72-5.1,4.6-6.72l14.65-7.79c4.31-2.42,10.91-2.42,15.22,0l14.36,7.79c2.87,1.61,4.6,4.03,4.6,6.72s-1.72,5.1-4.6,6.45l-14.36,7.79c-2.3,1.34-4.88,1.88-7.75,1.88h-.29ZM429.81,470.77l12.92,6.98c1.44.81,4.6.81,6.03,0l12.92-6.98-12.92-6.98c-1.44-.81-4.6-.81-6.03,0l-12.92,6.98Z"/><path id="Fill-117" class="cls-5" d="M326.7,677.07v-16.39h0c-9.19,0-17.52-1.07-25.56-5.37l-199.04-107.45c-4.6-2.69-8.04-5.37-9.48-10.21v16.39c1.44,4.84,4.88,7.79,9.48,10.48l198.75,107.45c8.04,4.03,16.66,5.37,25.56,5.37h0l.29-.27Z"/><path id="Fill-119" class="cls-5" d="M325.55,681.37c-10.63,0-19.24-1.88-27-5.91l-198.75-107.45c-4.6-2.69-9.48-6.18-11.78-12.89v-17.73c0-2.15,1.72-4.03,4.02-4.3,2.3-.27,4.31,1.07,5.17,2.95.86,3.22,3.16,5.37,7.47,7.79l198.75,107.45c6.61,3.49,13.79,4.84,23.26,4.84,1.15,0,2.58.54,3.45,1.34.86.81,1.44,1.88,1.44,2.95v16.39c0,2.42-2.01,4.3-4.31,4.3h-1.44l-.29.27ZM97.21,553.24c1.15,2.95,3.16,4.84,7.18,7.25l198.75,107.45c5.46,2.95,11.49,4.3,18.96,4.57v-7.79c-9.19-.27-16.66-2.15-23.55-5.91l-198.75-107.18c-.86-.54-1.72-1.07-2.58-1.61v3.22h0Z"/><polygon id="Fill-121" class="cls-1" points="182.8 278.44 333.3 197.32 333.3 167.77 182.8 249.16 182.8 278.44"/><path id="Fill-123" class="cls-5" d="M334.45,199.46l-150.21,81.12c-.57.27-.86.54-1.44.54-1.44,0-2.58-1.07-2.58-2.42v-29.28c0-.81.57-1.61,1.44-2.15l150.21-81.12c.29-.27.86-.54,1.44-.54,1.44,0,2.58,1.07,2.58,2.42v29.28c0,.81-.57,1.61-1.44,2.15h0ZM185.39,274.14l145.04-78.44v-23.64l-145.04,78.44v23.64Z"/><polygon id="Fill-125" class="cls-5" points="333.3 197.32 379.83 172.06 379.83 142.79 333.3 167.77 333.3 197.32"/><path id="Fill-127" class="cls-5" d="M380.98,174.21l-46.53,24.98c-.57,0-.86.54-1.44.54-1.44,0-2.58-1.07-2.58-2.42v-29.28h0c0-.81.57-1.61,1.44-2.15l46.24-24.98c.57-.27.86-.54,1.44-.54,1.44,0,2.58,1.07,2.58,2.42v29.28h0c0,.81-.57,1.61-1.44,2.15h.29ZM335.89,193.02l41.36-22.3v-23.64l-41.36,22.3v23.64Z"/><path id="Fill-129" class="cls-5" d="M198.31,257.22c-1.15.81-2.87.27-3.73-.81s-.29-2.69.86-3.49l44.52-23.91c1.15-.81,2.87-.27,3.73.81s.29,2.69-.86,3.49l-44.52,23.91Z"/><path id="Fill-131" class="cls-5" d="M317.5,333.24c-1.15.81-2.87.27-3.73-.81-.86-1.07-.29-2.69.86-3.49l63.47-34.38c1.15-.81,2.87-.27,3.73.81s.29,2.69-.86,3.49l-63.47,34.38Z"/><path id="Fill-133" class="cls-5" d="M317.5,315.51c-1.15.81-2.87.27-3.73-.81-.86-1.07-.29-2.69.86-3.49l62.9-34.11c1.15-.81,2.87-.27,3.73.81s.29,2.69-.86,3.49l-62.9,34.11Z"/><path id="Fill-135" class="cls-5" d="M183.95,444.71c-1.15.81-2.87.27-3.73-.81-.86-1.07-.29-2.69.86-3.49l197.03-106.37c1.15-.81,2.87-.27,3.73.81s.29,2.69-.86,3.49l-197.03,106.37Z"/><path id="Fill-137" class="cls-5" d="M255.18,276.02c-6.32,0-13.5,1.88-20.97,5.91-13.5,7.25-25.56,19.61-34.47,34.11-8.9,14.24-14.36,30.35-14.36,44.86h0c0,8.33,1.72,15.04,4.88,20.15,2.3,3.49,5.17,6.18,8.33,8.06,3.45,1.88,7.18,2.69,11.78,2.69,6.32,0,13.5-1.88,20.97-6.18,13.5-7.25,25.56-19.61,34.47-34.11,8.9-14.24,14.36-30.35,14.36-44.86,0-8.33-1.72-15.04-4.88-20.15-2.3-3.49-5.17-6.18-8.33-8.06-3.45-1.88-7.47-2.69-11.78-2.69M231.34,277.9c8.33-4.57,16.37-6.72,23.55-6.72,5.46,0,10.34,1.07,14.36,3.49,4.31,2.15,7.75,5.64,10.34,9.94,3.73,5.91,5.74,13.43,5.74,22.56h0c0,15.31-5.74,32.5-14.94,47.55-9.19,15.04-22.12,28.21-36.48,36-8.62,4.57-16.66,6.72-23.84,6.72s-10.05-1.07-14.36-3.49c-4.31-2.15-7.75-5.64-10.34-9.94-3.73-5.91-5.74-13.43-5.74-22.56h0c0-15.31,5.74-32.5,14.94-47.55,9.19-15.04,22.12-28.21,36.48-36"/><path id="Fill-139" class="cls-5" d="M232.78,280.05c27.57-14.77,49.98-2.69,49.98,27.13,0,3.49-.29,7.25-.86,11.01l-.57,3.22-48.54,12.89-13.5-44.32h0c4.31-3.76,8.9-6.98,13.79-9.67"/><path id="Fill-141" class="cls-5" d="M255.18,276.02c-6.32,0-13.5,1.88-20.97,5.91-2.3,1.07-4.6,2.69-6.61,4.03-1.72,1.34-3.73,2.69-5.46,4.03l12.35,40.56,44.52-11.82v-1.61c.57-1.88.86-3.49,1.15-5.37v-5.1c0-8.33-1.72-15.04-4.88-20.15-2.3-3.49-5.17-6.18-8.33-8.06-3.45-1.88-7.47-2.69-11.78-2.69M231.34,277.9c8.33-4.57,16.37-6.72,23.55-6.72,5.46,0,10.34,1.07,14.36,3.49,4.31,2.15,7.75,5.64,10.34,9.94,3.73,5.91,5.74,13.43,5.74,22.56h0v5.64c0,1.88-.29,3.76-.86,5.64-.29,1.61-.57,3.22-1.15,4.84l-52.85,13.97c-4.88-15.85-9.77-31.7-14.65-47.28l.57-1.61.57-.54c2.3-1.88,4.6-3.76,6.89-5.37,2.3-1.61,4.6-2.95,7.18-4.3"/><path id="Fill-143" class="cls-6" d="M218.99,289.45c-19.82,16.92-34.47,43.52-36.19,66.89-2.3,30.62,17.52,45.93,44.81,34.38,1.44-18.53,3.73-38.14,5.17-56.95-4.31-15.04-9.19-29.28-13.5-44.32"/><path id="Fill-145" class="cls-5" d="M191.7,319.54c6.32-11.82,15.22-23.1,25.56-31.7l3.16-2.69,1.15,4.03c2.01,7.25,4.31,14.24,6.61,20.95,2.58,7.79,4.88,15.58,7.18,23.37h0v.81c-.86,10.48-1.72,20.95-2.58,31.16-.86,8.6-1.72,17.46-2.3,25.52v1.34l-1.44.54c-7.47,3.22-14.36,4.57-20.68,4.03-5.46-.27-10.34-1.88-14.36-4.84-4.02-2.69-7.47-6.72-9.77-11.55-3.16-6.45-4.6-14.77-3.73-24.71.86-12.09,5.17-24.98,11.49-36.8M217.55,294.29c-8.33,7.79-15.51,17.19-21.25,27.4-6.03,11.28-10.05,23.64-10.91,34.92-.57,8.86.57,16.39,3.45,22.3,2.01,4.03,4.6,7.25,8.04,9.4,3.16,2.15,7.18,3.49,11.49,3.76,4.88.27,10.63-.54,16.66-2.95.57-8.06,1.44-16.12,2.3-24.18.86-10.48,2.01-20.68,2.58-30.62-2.3-7.79-4.6-15.31-6.89-22.83-1.72-5.64-3.73-11.55-5.46-17.19"/><path id="Fill-147" class="cls-5" d="M281.89,357.95c-1.15.81-2.87.27-3.73-.81-.86-1.07-.29-2.69.86-3.49l9.19-5.1c1.15-.81,2.87-.27,3.73.81.86,1.07.29,2.69-.86,3.49l-9.19,5.1Z"/><path id="Fill-149" class="cls-5" d="M283.9,271.45c-1.15.81-2.87.27-3.73-.81-.86-1.07-.29-2.69.86-3.49l10.91-5.91c1.15-.81,2.87-.27,3.73.81s.29,2.69-.86,3.49l-10.91,5.91Z"/><path id="Fill-151" class="cls-5" d="M162.12,381.05c-1.15.81-2.87.27-3.73-.81-.86-1.07-.29-2.69.86-3.49l10.34-5.64c1.15-.81,2.87-.27,3.73.81s.29,2.69-.86,3.49c0,0-10.34,5.64-10.34,5.64Z"/><path id="Fill-153" class="cls-5" d="M238.52,311.75c2.58,0,4.88,0,6.89,1.34h0c2.01,1.07,3.45,2.69,4.6,4.84.86,1.88,1.44,4.3,1.44,7.25s-.57,5.37-1.44,8.06c-.86,2.69-2.3,5.64-3.73,8.06h0c-1.72,2.69-3.45,5.1-5.74,7.25-2.01,2.15-4.31,3.76-6.89,5.1h0c-2.58,1.34-5.17,2.15-7.47,2.42-2.58,0-4.88,0-6.89-1.34-2.01-1.07-3.45-2.69-4.6-4.84-.86-1.88-1.44-4.3-1.44-7.25s.57-5.37,1.44-8.06c.86-2.69,2.3-5.64,3.73-8.06,1.44-2.69,3.45-5.1,5.74-7.25,2.01-2.15,4.31-3.76,6.89-5.1h0c2.58-1.34,4.88-2.15,7.18-2.42h.29ZM242.83,317.39c-1.15-.54-2.3-.81-3.73-.81s-3.16.81-5.17,1.61h0c-2.01,1.07-4.02,2.42-5.74,4.3-1.72,1.88-3.45,4.03-4.88,6.18h0c-1.44,2.15-2.58,4.57-3.16,6.98-.86,2.42-1.15,4.57-1.15,6.72s.29,3.76.86,5.1c.57,1.07,1.44,2.15,2.3,2.69h0c.86.54,2.3.81,3.45.81,1.44,0,3.45-.81,5.17-1.61,2.01-1.07,3.73-2.42,5.74-4.3,1.72-1.88,3.45-4.03,4.88-6.18h0c1.44-2.15,2.58-4.57,3.16-6.98.86-2.42,1.15-4.57,1.15-6.72s-.29-3.76-1.15-5.1c-.57-1.07-1.44-2.15-2.3-2.69h.57Z"/><path id="Fill-155" class="cls-5" d="M238.52,311.75c2.58,0,4.88,0,6.89,1.34h0c2.01,1.07,3.45,2.69,4.6,4.84.86,1.88,1.44,4.3,1.44,7.25s-.57,5.37-1.44,8.06c-.86,2.69-2.3,5.64-3.73,8.06h0c-1.72,2.69-3.45,5.1-5.74,7.25-2.01,2.15-4.31,3.76-6.89,5.1h0c-2.58,1.34-5.17,2.15-7.47,2.42-2.58,0-4.88,0-6.89-1.34-2.01-1.07-3.45-2.69-4.6-4.84-.86-1.88-1.44-4.3-1.44-7.25s.57-5.37,1.44-8.06c.86-2.69,2.3-5.64,3.73-8.06,1.44-2.69,3.45-5.1,5.74-7.25,2.01-2.15,4.31-3.76,6.89-5.1h0c2.58-1.34,4.88-2.15,7.18-2.42h.29ZM242.83,317.39c-1.15-.54-2.3-.81-3.73-.81s-3.16.81-5.17,1.61h0c-2.01,1.07-4.02,2.42-5.74,4.3-1.72,1.88-3.45,4.03-4.88,6.18h0c-1.44,2.15-2.58,4.57-3.16,6.98-.86,2.42-1.15,4.57-1.15,6.72s.29,3.76.86,5.1c.57,1.07,1.44,2.15,2.3,2.69h0c.86.54,2.3.81,3.45.81,1.44,0,3.45-.81,5.17-1.61,2.01-1.07,3.73-2.42,5.74-4.3,1.72-1.88,3.45-4.03,4.88-6.18h0c1.44-2.15,2.58-4.57,3.16-6.98.86-2.42,1.15-4.57,1.15-6.72s-.29-3.76-1.15-5.1c-.57-1.07-1.44-2.15-2.3-2.69h.57Z"/><polygon id="Fill-157" class="cls-2" points="313.2 243.25 379.83 207.52 379.83 231.7 313.2 267.69 313.2 243.25"/><path id="Fill-159" class="cls-5" d="M377.25,211.82l-61.18,33.04v18.53l61.18-33.04s0-18.53,0-18.53ZM312.05,241.1l66.35-35.73c1.15-.81,2.87-.27,3.73.81,0,.27.29.81.29,1.34h0v24.18c0,1.07-.57,1.88-1.44,2.15l-66.35,35.73c-1.15.81-2.87.27-3.73-.81,0-.27-.29-.81-.29-1.34v-24.18c0-1.07.57-1.88,1.44-2.15h0Z"/></svg>