<?xml version="1.0" encoding="UTF-8"?>
<svg width="160px" height="172.811167px" viewBox="0 0 160 172.811167" version="1.1" xmlns="http://www.w3.org/2000/svg" xmlns:xlink="http://www.w3.org/1999/xlink">
    <title>Group 154</title>
    <defs>
        <polygon id="path-1" points="0 0 100.540147 0 100.540147 127.354596 0 127.354596"></polygon>
    </defs>
    <g id="website" stroke="none" stroke-width="1" fill="none" fill-rule="evenodd">
        <g id="Hubs" transform="translate(-560.000000, -253.000000)">
            <g id="Group-154" transform="translate(560.000000, 253.000000)">
                <path d="M5.63466489,126.152427 L1.94654789,123.645462 C1.36586564,122.666968 1.22257155,121.790145 1.20210096,120.660169 L1.22257155,61.1617322 C1.31400683,57.03418 3.91240637,52.5306513 7.44835869,50.3914753 L91.2699439,2.04131908 C92.6865083,1.26548392 94.1535669,0.818542826 95.6615666,1.61280151 L99.3401307,4.11908342 C97.832131,3.33437768 96.3548371,3.77244819 94.9491903,4.54828334 L11.1276051,52.8977572 C7.59165278,55.0376156 4.99257088,59.5827677 4.90045325,63.6680141 L4.88066502,123.167133 C4.90045325,124.297109 5.04374735,125.163697 5.63466489,126.152427" id="Fill-1" fill="#3D68EC"></path>
                <g id="Group-5">
                    <mask id="mask-2" fill="white">
                        <use xlink:href="#path-1"></use>
                    </mask>
                    <g id="Clip-4"></g>
                    <path d="M5.63466489,127.354596 C5.40130022,127.354596 5.15565321,127.282949 4.95231207,127.141019 L1.28330095,124.634055 C1.13113627,124.541937 1.00831276,124.409561 0.917559838,124.257396 C0.193583495,123.03462 0.0305011711,121.94422 -0.000204705846,120.690738 L0.0209482316,61.1615957 C0.121936449,56.5761848 2.92504184,51.7362562 6.81786468,49.3719037 L90.6681087,1.00127691 C92.0341791,0.257512336 94.0614493,-0.577687516 96.2224607,0.552971108 L100.012931,3.13090006 C100.542436,3.48845294 100.695283,4.190594 100.369801,4.74193507 C100.042954,5.2809938 99.3496836,5.47409965 98.779919,5.17932323 C97.8826251,4.7112292 96.9150488,4.82313506 95.5182726,5.59692316 L11.7280756,53.9375264 C8.55922908,55.8535731 6.17508832,59.95929 6.10344128,63.6992658 L6.0727354,123.166997 C6.10344128,124.103867 6.19487655,124.756196 6.66365294,125.541584 C6.94955877,126.019914 6.85744114,126.641537 6.45007651,127.018196 C6.21534714,127.242008 5.91988837,127.354596 5.63466489,127.354596 M2.86363008,122.820361 L3.68859464,123.380573 C3.68859464,123.319161 3.68859464,123.259114 3.677677,123.197702 L3.70906523,63.66856 C3.80050051,59.1541137 6.66365294,54.2015969 10.5052993,51.8686326 L94.3473551,3.50824117 C94.6939903,3.31445297 95.0808844,3.12066477 95.5080373,2.9582648 L94.9887668,2.61094722 C94.204061,2.20426493 93.2569553,2.3161708 91.8513085,3.0899589 L8.04064093,51.4305621 C4.87111208,53.3459265 2.50675956,57.4625611 2.42487722,61.1923016 L2.3948537,120.660032 C2.41464193,121.495232 2.49584191,122.127091 2.86363008,122.820361" id="Fill-3" fill="#000000" mask="url(#mask-2)"></path>
                </g>
                <path d="M11.1275369,52.8974842 L94.9491221,4.5480104 C98.3711215,2.57055193 101.163992,4.19045752 101.163992,8.13445683 L101.144203,67.6424463 C101.144203,71.5857633 98.3417803,76.4359271 94.9184162,78.4133856 L11.096831,126.764224 C7.67278453,128.741 4.87104385,127.11973 4.88125118,123.16686 L4.90106737,63.6684235 C4.90106737,59.7251065 7.70349041,54.8640251 11.1275369,52.8974842" id="Fill-6" fill="#3D68EC"></path>
                <path d="M8.33528088,128.811556 C7.53010455,128.811556 6.77610469,128.617767 6.10398716,128.231556 C4.54412861,127.323344 3.67822288,125.519886 3.67822288,123.167133 L3.70892876,63.6680141 C3.70892876,59.3275678 6.76518704,54.0284158 10.5256334,51.8585338 L94.3472186,3.50837765 C96.3956418,2.3360955 98.3710532,2.18393082 99.9411471,3.07917772 C101.499641,3.98670697 102.366911,5.79084783 102.366911,8.13472977 L102.345758,67.6420369 C102.336205,72.055495 99.3406766,77.2413764 95.5181361,79.4521995 L11.6979156,127.802356 C10.5365511,128.475156 9.39497481,128.811556 8.33528088,128.811556 L8.33528088,128.811556 Z M97.7098533,4.90378916 C97.067077,4.90378916 96.3239948,5.13851853 95.5495243,5.58614198 L11.7286215,53.9369805 C8.67099847,55.6906273 6.10398716,60.1525324 6.10398716,63.6680141 L6.07259893,123.167133 C6.07259893,124.613721 6.52090473,125.704803 7.30561048,126.152427 C8.08008093,126.60005 9.24144543,126.447885 10.4949276,125.734144 L94.3165128,77.3737528 C97.3639005,75.6207884 99.9411471,71.158201 99.9411471,67.6420369 L99.9609353,8.13472977 C99.9609353,6.69701238 99.5126295,5.60797727 98.738159,5.15898912 C98.4433826,4.9856715 98.0967474,4.90378916 97.7098533,4.90378916 L97.7098533,4.90378916 Z" id="Fill-8" fill="#000000"></path>
                <path d="M11.4940968,57.3608905 L33.5750341,44.6234104 L94.5705527,9.43856954 C96.1406466,8.53104029 97.4145993,9.26525192 97.4145993,11.0884987 L97.394811,69.0182061 C97.394811,70.8325822 96.1194936,73.042723 94.5507645,73.9502523 L25.7184237,113.649539 L11.4729439,121.871891 C9.90489708,122.768502 8.63026201,122.045208 8.63026201,120.221962 L8.65141494,62.2922543 C8.65141494,60.4792429 9.92468531,58.2677374 11.4940968,57.3608905" id="Fill-10" fill="#F4D9DC"></path>
                <path d="M158.705099,114.118248 L158.705099,118.6634 C158.308652,120.028105 157.401123,120.823046 156.21997,121.536105 L72.0619849,170.141461 C70.1971147,171.160896 68.352715,171.52732 66.2435624,171.60852 C63.860104,171.650143 61.6786221,171.282355 59.5797048,170.131226 L7.90649037,140.244172 C6.72533764,139.520878 5.81849074,138.72662 5.4213614,137.361232 L5.4213614,132.816762 C5.81849074,134.18215 6.72533764,134.966856 7.90649037,135.69015 L59.5797048,165.576521 C61.6786221,166.738568 63.860104,167.094073 66.2435624,167.063368 C68.352715,166.98285 70.1971147,166.605509 72.0619849,165.586074 L156.21997,116.991635 C157.401123,116.268341 158.308652,115.483636 158.705099,114.118248" id="Fill-12" fill="#3D68EC"></path>
                <path d="M65.9992801,172.811167 C63.2371159,172.811167 61.0269751,172.290531 58.9983402,171.171473 L7.30533753,141.274184 C6.09347892,140.53929 4.80929092,139.551925 4.26886748,137.69729 C4.23816161,137.585385 4.22929102,137.472796 4.22929102,137.361573 L4.22929102,132.816421 C4.22929102,132.215268 4.66736153,131.706233 5.25827907,131.62435 C5.83827897,131.562939 6.40872593,131.909574 6.57180825,132.480021 C6.82700821,133.365715 7.356514,133.947079 8.52811379,134.670373 L60.1808576,164.537639 C61.8921985,165.484744 63.7475158,165.922133 66.2326448,165.862085 C68.3636326,165.780203 69.9528324,165.383756 71.4813027,164.537639 L155.629053,115.952071 C156.769946,115.259483 157.299452,114.65833 157.554652,113.781506 C157.717735,113.211059 158.308652,112.854189 158.879099,112.925836 C159.470017,113.017954 159.908087,113.517436 159.908087,114.118589 L159.908087,118.663059 C159.908087,118.775647 159.888299,118.897106 159.856911,118.999458 C159.316487,120.853411 158.032982,121.840776 156.840911,122.564752 L72.6624554,171.171473 C70.7777969,172.209331 68.8214914,172.708814 66.2947389,172.811167 L65.9992801,172.811167 Z M6.62366707,137.187573 C6.88841996,137.982514 7.41792575,138.542726 8.52811379,139.215525 L60.1808576,169.091661 C61.8921985,170.029896 63.7475158,170.436579 66.2326448,170.416791 C68.3636326,170.324673 69.9528324,169.926861 71.4813027,169.081426 L155.629053,120.506776 C156.697617,119.844894 157.23804,119.284 157.513029,118.478823 L157.513029,117.582894 C157.288535,117.735741 157.065405,117.87767 156.840911,118.010729 L72.6624554,166.626321 C70.7777969,167.655309 68.8214914,168.154109 66.2947389,168.266014 C63.3299159,168.327426 61.0979398,167.77745 58.9983402,166.626321 L7.30533753,136.729032 C7.08220816,136.58642 6.84747879,136.443808 6.62366707,136.280726 L6.62366707,137.187573 Z" id="Fill-14" fill="#000000"></path>
                <path d="M7.90662684,128.465057 L92.064612,79.8801712 C95.5084467,77.8938422 101.123528,77.8938422 104.546892,79.8801712 L156.219424,109.766542 C159.653706,111.764471 159.653706,115.004283 156.219424,116.991294 L72.0621214,165.586415 C68.6278397,167.563191 63.0134406,167.563191 59.5798413,165.57618 L7.90662684,135.689808 C4.4737098,133.702797 4.4737098,130.452068 7.90662684,128.465057" id="Fill-16" fill="#3D68EC"></path>
                <path d="M65.8257578,168.256393 C63.3494994,168.256393 60.8636881,167.705735 58.9783472,166.615335 L7.30581518,136.728964 C5.25807437,135.536893 4.13696868,133.895835 4.13696868,132.082823 C4.13696868,130.269812 5.26762731,128.617836 7.30581518,127.436 L91.4638003,78.841562 C95.244035,76.66008 101.377704,76.66008 105.147704,78.841562 L156.820918,108.737486 C158.867977,109.920004 160,111.571297 160,113.384309 C160,115.198003 158.867977,116.838379 156.820918,118.020896 L72.6622507,166.626252 C70.7782746,167.705735 68.3020162,168.256393 65.8257578,168.256393 L65.8257578,168.256393 Z M8.50812085,129.504894 C7.25463872,130.239106 6.53134473,131.175976 6.53134473,132.082823 C6.53134473,132.988988 7.24508578,133.927223 8.50812085,134.649835 L60.1806529,164.53757 C63.2375935,166.309641 68.4030044,166.309641 71.4701803,164.547806 L155.628848,115.952003 C156.88233,115.228709 157.605624,114.291156 157.605624,113.384309 C157.605624,112.477462 156.88233,111.540592 155.61793,110.80638 L103.945398,80.9193263 C100.899375,79.1472561 95.7230466,79.1472561 92.6667884,80.9193263 L8.50812085,129.504894 Z" id="Fill-18" fill="#000000"></path>
                <polygon id="Fill-20" fill="#F4D9DC" points="98.3819709 145.462602 121.400461 132.164228 103.772558 121.974653 80.7540681 135.271663"></polygon>
                <path d="M98.3819709,146.663679 C98.1683944,146.663679 97.9636886,146.613185 97.780818,146.500597 L80.1522329,136.311022 C79.7851271,136.097446 79.5517624,135.70987 79.5517624,135.271799 C79.5517624,134.854882 79.7851271,134.456387 80.1522329,134.242811 L103.171405,120.934884 C103.548064,120.721308 103.995688,120.721308 104.374393,120.934884 L122.001614,131.125141 C122.36872,131.338717 122.593214,131.736529 122.593214,132.163682 C122.593214,132.5922 122.36872,132.979776 122.001614,133.202905 L98.9838061,146.500597 C98.8002532,146.613185 98.5866767,146.663679 98.3819709,146.663679 L98.3819709,146.663679 Z M83.1491265,135.271799 L98.3819709,144.086433 L119.006085,132.163682 L103.772558,123.360648 L83.1491265,135.271799 Z" id="Fill-22" fill="#000000"></path>
                <path d="M18.4436556,130.157428 C43.9588746,115.432254 69.4433877,100.69821 94.9490538,85.9641654 C96.7825359,84.9133421 99.7787471,84.9133421 101.612229,85.973036 L127.688342,101.054398 C129.511589,102.114092 129.511589,103.847268 127.677425,104.906962 C102.183358,119.630771 76.6879276,134.364816 51.1829439,149.100225 C49.3487795,150.159919 46.3532506,150.159919 44.5190863,149.089307 L18.4436556,134.008628 C16.6094912,132.948251 16.6190441,131.217122 18.4436556,130.157428" id="Fill-24" fill="#F4D9DC"></path>
                <path d="M47.8514245,151.085872 C46.43486,151.085872 45.0189779,150.770625 43.9176605,150.129213 L17.8422298,135.047851 C16.5887477,134.324557 15.875689,133.244392 15.875689,132.082346 C15.875689,130.931216 16.5983006,129.851734 17.8524651,129.12844 L94.3469457,84.9351774 C96.5482159,83.661907 100.012521,83.661907 102.204238,84.9351774 L128.289222,100.015857 C129.532469,100.739151 130.255763,101.818633 130.255763,102.98068 C130.255763,104.142727 129.532469,105.211974 128.278987,105.946868 L51.7742709,150.129213 C50.6831887,150.770625 49.2673066,151.085872 47.8514245,151.085872 L47.8514245,151.085872 Z M18.4433826,130.157428 L19.0438531,131.195287 C18.5648414,131.470957 18.270065,131.818275 18.270065,132.082346 C18.270065,132.358016 18.5648414,132.693734 19.0438531,132.97964 L45.1199662,148.060319 C46.5672365,148.895519 49.1246949,148.895519 50.5822005,148.060319 L127.086916,103.867056 C127.565246,103.592068 127.860704,103.246115 127.860704,102.98068 C127.860704,102.705692 127.565246,102.369292 127.086916,102.093621 L101.010803,87.0020241 C99.5648977,86.1668242 97.0074394,86.1668242 95.5492514,87.0020241 L19.0438531,131.195287 L18.4433826,130.157428 Z" id="Fill-26" fill="#000000"></path>
                <path d="M52.0290614,125.928205 L55.7888254,123.757641 C56.5435077,123.318888 57.7860722,123.318888 58.540072,123.757641 L62.3005184,125.928205 C63.0545183,126.366276 63.0545183,127.079335 62.3005184,127.517405 L58.5291544,129.687969 C57.7751545,130.126722 56.5435077,130.126722 55.7888254,129.687969 L52.0290614,127.517405 C51.2750615,127.079335 51.2750615,126.366276 52.0290614,125.928205" id="Fill-28" fill="#FFFFFF"></path>
                <path d="M57.1643123,131.21719 C56.4512536,131.21719 55.7477478,131.053426 55.1868538,130.727261 L51.4277721,128.546461 C50.6833252,128.119309 50.2664076,127.456744 50.2664076,126.722532 C50.2664076,125.989003 50.6833252,125.316886 51.4277721,124.888368 L55.1977714,122.717804 C56.3188771,122.065474 58.0206651,122.065474 59.1410884,122.717804 L62.9015348,124.888368 C63.6350641,125.316886 64.0628993,125.989003 64.0628993,126.722532 C64.0628993,127.456744 63.6350641,128.128862 62.9015348,128.556697 L59.1315354,130.727261 C58.5706414,131.053426 57.867818,131.21719 57.1643123,131.21719 L57.1643123,131.21719 Z M53.0476777,126.722532 L56.3898418,128.648814 C56.7774182,128.873308 57.5512063,128.873308 57.9394651,128.648814 L61.2713939,126.722532 L57.9394651,124.796933 C57.5512063,124.572439 56.7774182,124.572439 56.3898418,124.796933 L53.0476777,126.722532 Z" id="Fill-30" fill="#000000"></path>
                <path d="M37.2533934,134.456524 L33.504547,136.627771 C32.7498648,137.065159 32.7498648,137.7789 33.4936294,138.21697 L37.2533934,140.387535 C38.0176286,140.825605 39.2513225,140.825605 40.00464,140.387535 L43.7650864,138.21697 C44.5293216,137.7789 44.5293216,137.065159 43.776004,136.627771 L40.0155576,134.456524 C39.2513225,134.019136 38.0176286,134.019136 37.2533934,134.456524" id="Fill-32" fill="#FFFFFF"></path>
                <path d="M38.6290167,141.9158 C37.9268757,141.9158 37.2233699,141.752718 36.6624759,141.427236 L32.8931589,139.256671 C32.1589473,138.817918 31.731112,138.155354 31.731112,137.422507 C31.731112,136.67806 32.1589473,136.015495 32.9027118,135.58766 L36.6624759,133.417096 C37.7835816,132.765449 39.4853695,132.765449 40.6167105,133.417096 L44.3764745,135.58766 C45.1100038,136.015495 45.5385214,136.688295 45.5385214,137.422507 C45.5385214,138.166272 45.1100038,138.828836 44.3662392,139.256671 L40.6057928,141.427236 C40.0462635,141.752718 39.3434401,141.9158 38.6290167,141.9158 L38.6290167,141.9158 Z M34.5226174,137.422507 L37.8545463,139.347424 C38.2421227,139.571918 39.0268284,139.571918 39.4041695,139.347424 L42.7456513,137.422507 L39.4041695,135.496225 C39.0268284,135.271731 38.2421227,135.271731 37.8545463,135.496225 L34.5226174,137.422507 Z" id="Fill-34" fill="#000000"></path>
                <path d="M46.5164012,139.807057 L42.7559548,141.977621 C42.0019549,142.425245 42.0019549,143.128068 42.7559548,143.566821 L46.5164012,145.736703 C47.2704011,146.174774 48.504095,146.174774 49.2574125,145.736703 L53.0164942,143.576374 C53.7814117,143.138304 53.7814117,142.425245 53.0274118,141.986492 L49.2669654,139.807057 C48.5129656,139.368987 47.2813187,139.368987 46.5164012,139.807057" id="Fill-36" fill="#FFFFFF"></path>
                <path d="M47.881448,147.265515 C47.1779423,147.265515 46.4751189,147.102432 45.9155895,146.786503 L42.1551431,144.605703 C41.4106962,144.17855 40.9930963,143.515986 40.9930963,142.770857 C40.9930963,142.047563 41.4209315,141.36521 42.1551431,140.948292 L45.9155895,138.76681 C47.0455658,138.124716 48.7378008,138.124716 49.8684594,138.76681 L53.6282235,140.948292 C54.3624351,141.36521 54.7902703,142.038692 54.7902703,142.770857 C54.7902703,143.515986 54.3624351,144.17855 53.6282235,144.605703 L49.8589065,146.786503 C49.2980125,147.102432 48.5945067,147.265515 47.881448,147.265515 L47.881448,147.265515 Z M43.785284,142.770857 L47.1165305,144.708056 C47.5041069,144.93255 48.2792597,144.93255 48.6668361,144.708056 L51.9980826,142.781774 L48.6668361,140.845939 C48.2888127,140.622128 47.5041069,140.622128 47.1165305,140.845939 L43.785284,142.770857 Z" id="Fill-38" fill="#000000"></path>
                <path d="M40.0155576,129.687765 L43.776004,127.507648 C44.5388745,127.07913 44.5388745,126.366071 43.776004,125.928001 L40.0155576,123.758119 C39.2615578,123.309813 38.0285462,123.309813 37.2745464,123.747201 L33.5141,125.918448 C32.7498648,126.355154 32.7498648,127.069577 33.5141,127.507648 L37.2636287,129.687765 C38.0176286,130.126518 39.2615578,130.126518 40.0155576,129.687765" id="Fill-40" fill="#FFFFFF"></path>
                <path d="M38.6390473,131.206341 C37.9362239,131.206341 37.2334005,131.053494 36.6731888,130.727329 L32.9025071,128.54653 C32.1696602,128.119377 31.7404603,127.456812 31.7404603,126.722601 C31.7404603,125.978836 32.1696602,125.316954 32.9025071,124.888436 L36.6731888,122.708319 C37.7929298,122.065543 39.4954001,122.065543 40.6165058,122.717872 L44.3762698,124.888436 C45.1200344,125.316954 45.548552,125.978836 45.548552,126.722601 C45.548552,127.456812 45.1200344,128.119377 44.3762698,128.54653 L40.6165058,130.727329 C40.0556118,131.053494 39.352106,131.206341 38.6390473,131.206341 L38.6390473,131.206341 Z M34.5340127,126.711683 L37.8652592,128.648883 C38.2521532,128.873377 39.0266237,128.873377 39.4142001,128.648883 L42.7454466,126.722601 L39.4142001,124.786766 C39.0375413,124.572507 38.2521532,124.572507 37.8652592,124.786766 L34.5340127,126.711683 Z" id="Fill-42" fill="#000000"></path>
                <path d="M49.2777466,124.338937 L53.038193,122.168373 C53.8010634,121.72962 53.8010634,121.016562 53.0470636,120.578491 L49.2879819,118.397691 C48.5237467,117.969856 47.2907352,117.958939 46.5367353,118.397691 L42.7762889,120.578491 C42.0120538,121.005644 42.0120538,121.719385 42.7762889,122.157456 L46.5367353,124.338937 C47.2811822,124.777008 48.5237467,124.777008 49.2777466,124.338937" id="Fill-44" fill="#FFFFFF"></path>
                <path d="M47.9020551,125.867476 C47.1985493,125.867476 46.4957259,125.704394 45.9355142,125.376864 L42.1750679,123.197429 C41.4319856,122.768912 41.0034681,122.096112 41.0034681,121.363265 C41.0034681,120.629053 41.4319856,119.967171 42.1750679,119.538654 L45.9355142,117.368089 C47.0661729,116.716442 48.7577255,116.716442 49.8897488,117.368089 L53.6495129,119.538654 C54.3823598,119.967171 54.810195,120.639971 54.810195,121.372818 C54.810195,122.10703 54.3823598,122.768912 53.6392776,123.197429 L49.8788312,125.376864 C49.3179372,125.704394 48.6055608,125.867476 47.9020551,125.867476 L47.9020551,125.867476 Z M43.7956558,121.363265 L47.1275846,123.2991 C47.515161,123.523594 48.2889491,123.523594 48.6758432,123.2991 L52.0186896,121.372818 L48.6867608,119.436983 C48.2998668,119.223407 47.5253963,119.213171 47.1275846,119.436983 L43.7956558,121.363265 Z" id="Fill-46" fill="#000000"></path>
                <path d="M34.512041,132.867256 L30.7522769,135.03782 C29.9989594,135.475891 28.7659479,135.475891 28.0010304,135.03782 L24.240584,132.857021 C23.4872664,132.418268 23.4872664,131.705891 24.240584,131.277374 L28.011948,129.097257 C28.7659479,128.658504 29.9989594,128.658504 30.7522769,129.097257 L34.512041,131.277374 C35.2769585,131.716127 35.2769585,132.429185 34.512041,132.867256" id="Fill-48" fill="#FFFFFF"></path>
                <path d="M29.3768583,136.566086 C28.6733526,136.566086 27.9705292,136.393451 27.4000822,136.077521 L23.6396358,133.896039 C22.9061065,133.468886 22.4782713,132.796769 22.4782713,132.061875 C22.4782713,131.32971 22.9061065,130.665781 23.6505535,130.238628 L27.4109999,128.068746 C28.5307408,127.415052 30.2332111,127.415052 31.3543168,128.068746 L35.1140809,130.238628 C35.8578454,130.665781 36.2754454,131.338581 36.2754454,132.072793 C36.2754454,132.80564 35.8469278,133.468886 35.1140809,133.896039 L31.3543168,136.077521 C30.7825052,136.393451 30.0810465,136.566086 29.3768583,136.566086 L29.3768583,136.566086 Z M25.2697767,132.061875 L28.6030702,133.998392 C28.9899643,134.222886 29.7644347,134.222886 30.1513288,133.998392 L33.4832576,132.072793 L30.1513288,130.135593 C29.77467,129.912464 28.9899643,129.912464 28.6126232,130.135593 L25.2697767,132.061875 Z" id="Fill-50" fill="#000000"></path>
                <path d="M42.7668042,131.277101 L46.5265683,129.106537 C47.2812505,128.668466 48.5128973,128.668466 49.2778148,129.106537 L53.0382612,131.277101 C53.7922611,131.715854 53.7922611,132.428913 53.0382612,132.866983 L49.2668972,135.037547 C48.5128973,135.475618 47.2812505,135.475618 46.5265683,135.037547 L42.7668042,132.866983 C42.012122,132.428913 42.012122,131.715854 42.7668042,131.277101" id="Fill-52" fill="#FFFFFF"></path>
                <path d="M47.9020551,136.566086 C47.1889964,136.566086 46.4854906,136.403004 45.9245966,136.077521 L42.1655149,133.896039 C41.421068,133.468886 41.0034681,132.80564 41.0034681,132.072793 C41.0034681,131.338581 41.421068,130.665781 42.1655149,130.238628 L45.9355142,128.068746 C47.0566199,127.42597 48.7481726,127.415052 49.8685959,128.068746 L53.6392776,130.248181 C54.3728069,130.665781 54.8006421,131.338581 54.8006421,132.072793 C54.8006421,132.80564 54.3728069,133.477757 53.6392776,133.906957 L49.8685959,136.077521 C49.3083842,136.403004 48.6055608,136.566086 47.9020551,136.566086 L47.9020551,136.566086 Z M43.7854205,132.072793 L47.116667,133.998392 C47.5042434,134.222886 48.2889491,134.222886 48.6669726,133.998392 L52.0091367,132.072793 L48.6669726,130.146511 C48.2889491,129.922017 47.515161,129.922017 47.1275846,130.146511 L43.7854205,132.072793 Z" id="Fill-54" fill="#000000"></path>
                <path d="M70.5537805,115.228777 L74.3142269,113.058212 C75.078462,112.620142 76.3107912,112.620142 77.0647911,113.058212 L80.8252375,115.239012 C81.578555,115.666847 81.578555,116.380588 80.8252375,116.817976 L77.0647911,118.989223 C76.3012383,119.426611 75.0682268,119.426611 74.3142269,118.989223 L70.5537805,116.817976 C69.7997806,116.380588 69.7997806,115.666847 70.5537805,115.228777" id="Fill-56" fill="#FFFFFF"></path>
                <path d="M75.6898502,120.516943 C74.9754268,120.516943 74.2732857,120.353861 73.7130741,120.028378 L69.9526277,117.847579 C69.2190984,117.419061 68.7912632,116.757179 68.7912632,116.024332 C68.7912632,115.29012 69.2190984,114.616638 69.9526277,114.188803 L73.722627,112.018238 C74.8437327,111.366592 76.5455206,111.366592 77.6761792,112.018238 L81.425708,114.19972 C82.1708373,114.627556 82.5979901,115.29012 82.5877548,116.024332 C82.5877548,116.767414 82.1708373,117.429979 81.416155,117.857814 L77.656391,120.028378 C77.095497,120.353861 76.3919912,120.516943 75.6898502,120.516943 L75.6898502,120.516943 Z M71.5827685,116.024332 L74.9146974,117.949249 C75.2920385,118.173061 76.0767442,118.173061 76.4643206,117.949249 L79.7962494,116.024332 L76.4643206,114.09805 C76.0862972,113.873556 75.2920385,113.873556 74.9146974,114.09805 L71.5827685,116.024332 Z" id="Fill-58" fill="#000000"></path>
                <path d="M79.8160377,120.588522 L83.5764841,118.408404 C84.3304839,117.970334 85.5634955,117.970334 86.3277306,118.408404 L90.0779418,120.588522 C90.8421769,121.027275 90.8421769,121.739651 90.0779418,122.177721 L86.3174954,124.348286 C85.5634955,124.787039 84.3304839,124.787039 83.5662488,124.348286 L79.8071671,122.168851 C79.0518025,121.739651 79.0518025,121.016357 79.8160377,120.588522" id="Fill-60" fill="#FFFFFF"></path>
                <path d="M84.9521074,125.867476 C84.237684,125.867476 83.5362253,125.713947 82.9644136,125.376864 L79.2148848,123.206982 C78.4718026,122.779147 78.0439674,122.10703 78.0535203,121.372818 C78.0535203,120.639971 78.4718026,119.967171 79.2148848,119.549571 L82.9753312,117.368089 C84.1059899,116.726678 85.8077778,116.726678 86.9295658,117.368089 L90.6790946,119.549571 C91.4330945,119.976724 91.8506944,120.649524 91.8506944,121.383053 C91.8506944,122.117947 91.4221768,122.789382 90.6790946,123.206982 L86.9186482,125.376864 C86.3482012,125.713947 85.6542484,125.867476 84.9521074,125.867476 L84.9521074,125.867476 Z M80.8354728,121.372818 L84.1674016,123.310018 C84.5542957,123.533147 85.3287661,123.533147 85.7156602,123.310018 L89.0585066,121.383053 L85.7265778,119.447218 C85.3390014,119.223407 84.5652133,119.233642 84.1674016,119.447218 L80.8354728,121.372818 Z" id="Fill-62" fill="#000000"></path>
                <path d="M58.5399356,118.989223 L62.3099349,116.807741 C63.0646171,116.380588 63.0646171,115.666847 62.3099349,115.228777 L58.5508532,113.058212 C57.7968533,112.620142 56.5529241,112.620142 55.7989243,113.058212 L52.0289249,115.217859 C51.2756074,115.656612 51.2756074,116.369671 52.0289249,116.807741 L55.7989243,118.989223 C56.5433712,119.426611 57.7859357,119.426611 58.5399356,118.989223" id="Fill-64" fill="#FFFFFF"></path>
                <path d="M57.1643123,120.516943 C56.4621712,120.516943 55.7586655,120.353861 55.1977714,120.028378 L51.437325,117.847579 C50.6942428,117.419061 50.2664076,116.746944 50.2664076,116.013414 C50.2664076,115.279203 50.6942428,114.607085 51.437325,114.188803 L55.1977714,112.008686 C56.3284301,111.366592 58.0206651,111.366592 59.152006,112.018238 L62.9117701,114.188803 C63.644617,114.616638 64.0738169,115.29012 64.0738169,116.024332 C64.0738169,116.757179 63.644617,117.419061 62.9015348,117.847579 L59.1410884,120.028378 C58.5808767,120.353861 57.8787357,120.516943 57.1643123,120.516943 L57.1643123,120.516943 Z M53.057913,116.013414 L56.4007595,117.949249 C56.7774182,118.173061 57.5512063,118.173061 57.9394651,117.949249 L57.949018,117.949249 L61.2809468,116.024332 L57.949018,114.087132 C57.5614416,113.873556 56.7876535,113.873556 56.4007595,114.087132 L53.057913,116.013414 Z" id="Fill-66" fill="#000000"></path>
                <path d="M67.8130422,113.63869 L71.5734885,111.468126 C72.3268061,111.030055 72.3268061,110.317679 71.5734885,109.878926 L67.8130422,107.709044 C67.0590423,107.270973 65.8260307,107.270973 65.0617956,107.709044 L61.3020315,109.878926 C60.5473493,110.307444 60.5473493,111.020502 61.3020315,111.459255 L65.0617956,113.63869 C65.8151131,114.07676 67.048807,114.07676 67.8130422,113.63869" id="Fill-68" fill="#FFFFFF"></path>
                <path d="M66.4374189,115.167229 C65.7243602,115.167229 65.0208544,115.004146 64.4599604,114.678664 L60.7008787,112.497182 C59.9564318,112.070029 59.5285966,111.397229 59.5285966,110.6637 C59.5285966,109.930853 59.9564318,109.266924 60.7008787,108.839771 L64.4599604,106.669206 C65.5919837,106.016877 67.2835364,106.016877 68.414195,106.669206 L72.1746414,108.839771 C72.9081707,109.266924 73.3360059,109.939724 73.3360059,110.674618 C73.3360059,111.406782 72.9081707,112.070029 72.1746414,112.497182 L68.4032773,114.678664 C67.843748,115.004146 67.1409246,115.167229 66.4374189,115.167229 L66.4374189,115.167229 Z M62.3310196,110.6637 L65.6629484,112.600217 C66.0396072,112.824711 66.8243129,112.824711 67.211207,112.600217 L70.5445005,110.674618 L67.211207,108.737418 C66.8243129,108.513606 66.0505248,108.513606 65.6629484,108.737418 L62.3310196,110.6637 Z" id="Fill-70" fill="#000000"></path>
                <path d="M61.2913186,120.578491 L65.051765,118.407927 C65.8146354,117.969856 67.0483293,117.969856 67.8023292,118.407927 L71.5627756,120.578491 C72.3167755,121.016562 72.3167755,121.72962 71.5627756,122.168373 L67.8023292,124.338937 C67.0394588,124.777008 65.8057649,124.777008 65.051765,124.338937 L61.2913186,122.168373 C60.5373187,121.72962 60.5373187,121.016562 61.2913186,120.578491" id="Fill-72" fill="#FFFFFF"></path>
                <path d="M66.4268424,125.867476 C65.7137837,125.867476 65.0102779,125.704394 64.4507486,125.376864 L60.6903022,123.197429 C59.9458553,122.768912 59.5282554,122.10703 59.5282554,121.372818 C59.5282554,120.639971 59.9458553,119.967171 60.6903022,119.538654 L64.4507486,117.368089 C65.5814073,116.716442 67.2729599,116.716442 68.4036185,117.368089 L72.1633826,119.549571 C72.8975942,119.967171 73.3254294,120.639971 73.3254294,121.372818 C73.3254294,122.10703 72.8975942,122.768912 72.1538296,123.206982 L68.3940656,125.376864 C67.8331716,125.704394 67.1296658,125.867476 66.4268424,125.867476 L66.4268424,125.867476 Z M62.3095255,121.372818 L65.6516896,123.310018 C66.0303954,123.523594 66.8151012,123.523594 67.2019952,123.2991 L70.5448417,121.372818 L67.2019952,119.447218 C66.8239717,119.223407 66.039266,119.223407 65.6516896,119.447218 L62.3095255,121.372818 Z" id="Fill-74" fill="#000000"></path>
                <path d="M52.0184849,136.637665 L74.3034457,123.757573 C75.0676809,123.31882 76.3013748,123.31882 77.0553746,123.757573 L80.8144563,125.938373 C81.5691385,126.375761 81.5691385,127.090184 80.8144563,127.527572 L58.5294956,140.398111 C57.7659427,140.825264 56.5329312,140.825264 55.7789313,140.398111 L52.0184849,138.216629 C51.2644851,137.778559 51.2644851,137.064818 52.0184849,136.637665" id="Fill-76" fill="#FFFFFF"></path>
                <path d="M57.144524,141.9158 C56.4403359,141.9158 55.7381949,141.752718 55.1779832,141.436106 L51.4175368,139.256671 C50.6744546,138.828836 50.2561723,138.166272 50.2561723,137.422507 C50.2561723,136.688295 50.6833252,136.026413 51.4175368,135.597896 L51.4277721,135.597896 L73.7134152,122.717804 C74.8433915,122.065474 76.5458618,122.076392 77.6560498,122.728721 L81.4158139,124.899286 C82.1595784,125.326439 82.588096,125.999238 82.588096,126.722532 C82.588096,127.466979 82.1595784,128.139097 81.4158139,128.556697 L59.1213002,141.436106 C58.5597238,141.752718 57.8569004,141.9158 57.144524,141.9158 L57.144524,141.9158 Z M53.0476777,137.422507 L56.3802889,139.358342 C56.7678653,139.582836 57.5416534,139.582836 57.9292298,139.358342 L79.7849906,126.73345 L76.4537442,124.796933 C76.0770854,124.572439 75.2923797,124.572439 74.9150385,124.796933 L53.0476777,137.422507 Z" id="Fill-78" fill="#000000"></path>
                <path d="M101.347749,97.4273517 L105.107513,95.2567873 C105.861513,94.8289521 107.10476,94.8289521 107.859442,95.2567873 L111.618524,97.4369046 C112.372524,97.8763398 112.372524,98.5887162 111.608289,99.0267867 L107.859442,101.196669 C107.094525,101.635422 105.861513,101.635422 105.107513,101.196669 L101.347749,99.0267867 C100.593749,98.5887162 100.593749,97.8763398 101.347749,97.4273517" id="Fill-80" fill="#FFFFFF"></path>
                <path d="M106.472151,102.725617 C105.77001,102.725617 105.066504,102.562534 104.506292,102.226134 L100.745846,100.05557 C100.002764,99.6284172 99.5844812,98.9658526 99.5844812,98.2323233 C99.5844812,97.4981116 100.012999,96.8253118 100.745846,96.3981589 L104.516527,94.2275946 C105.636951,93.5657123 107.329186,93.5752653 108.459844,94.2275946 L112.220291,96.3981589 C112.953138,96.8253118 113.381655,97.4981116 113.381655,98.2323233 C113.381655,98.9658526 112.953138,99.6284172 112.209373,100.066488 L108.459844,102.226134 C107.888715,102.562534 107.186574,102.725617 106.472151,102.725617 L106.472151,102.725617 Z M102.367116,98.2323233 L105.70928,100.158605 C106.095492,100.382417 106.870645,100.382417 107.257539,100.158605 L110.589468,98.2323233 L107.257539,96.2951236 C106.870645,96.0815472 106.095492,96.0815472 105.70928,96.2951236 L102.367116,98.2323233 Z" id="Fill-82" fill="#000000"></path>
                <path d="M110.609938,102.787165 L114.370385,100.616601 C115.123702,100.17853 116.357396,100.17853 117.110713,100.616601 L120.87116,102.7974 C121.634713,103.234788 121.634713,103.938294 120.87116,104.376365 L117.100478,106.557164 C116.357396,106.984999 115.123702,106.984999 114.359467,106.546929 L110.599703,104.376365 C109.845703,103.938294 109.845703,103.224553 110.609938,102.787165" id="Fill-84" fill="#FFFFFF"></path>
                <path d="M115.735977,108.075331 C115.033154,108.075331 114.31873,107.912249 113.758519,107.586766 L109.999437,105.416202 C109.265225,104.988367 108.836025,104.314885 108.836025,103.58272 C108.836025,102.847826 109.265225,102.175026 110.008308,101.747873 L113.758519,99.5773089 C114.900095,98.9249796 116.591648,98.9358973 117.712071,99.5868619 L121.471835,101.758109 C122.216282,102.185944 122.634564,102.847826 122.634564,103.58272 C122.634564,104.325802 122.216282,104.988367 121.471835,105.416202 L117.701836,107.586766 C117.141624,107.912249 116.438801,108.075331 115.735977,108.075331 L115.735977,108.075331 Z M111.628896,103.58272 L114.960824,105.517873 C115.338166,105.731449 116.122871,105.742367 116.509765,105.517873 L119.842376,103.591591 L116.509765,101.64552 C116.122871,101.431944 115.347718,101.431944 114.960824,101.64552 L111.628896,103.58272 Z" id="Fill-86" fill="#000000"></path>
                <path d="M98.5955473,95.8481143 L102.366911,93.6666323 C103.120911,93.2387971 103.120911,92.5155031 102.366911,92.0774326 L98.5955473,89.9075506 C97.8422298,89.4694801 96.6092182,89.4694801 95.8552184,89.9075506 L92.094772,92.0774326 C91.3312192,92.5155031 91.3312192,93.2285618 92.0845367,93.6666323 L95.8443007,95.8481143 C96.598983,96.2752672 97.8422298,96.2752672 98.5955473,95.8481143" id="Fill-88" fill="#FFFFFF"></path>
                <path d="M97.2207428,97.3658034 C96.5172371,97.3658034 95.8144137,97.2027211 95.254202,96.8772388 L91.4835203,94.7066745 C90.749991,94.2788393 90.3221558,93.6060394 90.3221558,92.882063 C90.3221558,92.1389808 90.749991,91.4764162 91.4835203,91.0376634 L95.254202,88.8677814 C96.385543,88.2161345 98.0866486,88.2161345 99.197519,88.8780167 L102.966836,91.048581 C103.701048,91.4764162 104.129565,92.1389808 104.129565,92.882063 C104.129565,93.6162747 103.701048,94.2788393 102.966836,94.7066745 L99.197519,96.8772388 C98.6373073,97.2027211 97.9242486,97.3658034 97.2207428,97.3658034 L97.2207428,97.3658034 Z M93.1136612,92.8731925 L96.4462724,94.8083451 C96.8331664,95.0328391 97.6178722,95.0219215 97.9945309,94.8083451 L101.327142,92.882063 L97.9945309,90.9462281 C97.6178722,90.7224164 96.8331664,90.7224164 96.4558253,90.9462281 L93.1136612,92.8731925 Z" id="Fill-90" fill="#000000"></path>
                <path d="M92.0846732,102.787165 L95.8444372,100.616601 C96.6093547,100.17853 97.8423663,100.17853 98.5956838,100.616601 L102.35613,102.787165 C103.11013,103.224553 103.11013,103.938294 102.35613,104.376365 L98.5956838,106.546929 C97.832131,106.984999 96.5991194,106.984999 95.8444372,106.546929 L92.0846732,104.376365 C91.3313556,103.938294 91.3313556,103.215 92.0846732,102.787165" id="Fill-92" fill="#FFFFFF"></path>
                <path d="M97.2207428,108.075331 C96.5172371,108.075331 95.8144137,107.912249 95.2439667,107.586766 L91.4835203,105.416202 C90.749991,104.977449 90.3221558,104.314885 90.3221558,103.58272 C90.3221558,102.837591 90.749991,102.175026 91.4835203,101.747873 L95.254202,99.5773089 C96.3746253,98.9358973 98.0764133,98.9249796 99.197519,99.5773089 L102.957965,101.758109 C103.701048,102.185944 104.129565,102.847826 104.11933,103.58272 C104.11933,104.325802 103.690812,104.988367 102.947048,105.416202 L99.197519,107.586766 C98.6373073,107.912249 97.9242486,108.075331 97.2207428,108.075331 L97.2207428,108.075331 Z M93.1136612,103.58272 L96.4462724,105.507637 C96.8331664,105.731449 97.6083192,105.742367 97.9945309,105.507637 L101.327142,103.58272 L97.9945309,101.64552 C97.6178722,101.431944 96.8331664,101.431944 96.4462724,101.64552 L93.1136612,103.58272 Z" id="Fill-94" fill="#000000"></path>
                <path d="M101.347749,108.136879 L105.107513,105.966315 C105.861513,105.528244 107.094525,105.528244 107.859442,105.966315 L111.608289,108.147114 C112.372524,108.584503 112.372524,109.298244 111.608289,109.726079 L107.848524,111.906196 C107.094525,112.344949 105.861513,112.344949 105.097278,111.906196 L101.336832,109.726079 C100.583514,109.288691 100.593749,108.57495 101.347749,108.136879" id="Fill-96" fill="#FFFFFF"></path>
                <path d="M106.472151,113.425045 C105.77001,113.425045 105.066504,113.261963 104.506292,112.946034 L100.745846,110.765234 C100.002764,110.338081 99.5844812,109.675517 99.5844812,108.931752 C99.5844812,108.198223 100.002764,107.52474 100.745846,107.096905 L104.506292,104.926341 C105.636951,104.275376 107.329186,104.284929 108.459844,104.926341 L112.209373,107.107823 C112.953138,107.535658 113.381655,108.198223 113.370738,108.941305 C113.370738,109.675517 112.953138,110.346952 112.209373,110.765234 L108.449609,112.935116 C107.888715,113.261963 107.186574,113.425045 106.472151,113.425045 L106.472151,113.425045 Z M102.367116,108.931752 L105.698363,110.867587 C106.075704,111.081163 106.870645,111.092081 107.257539,110.867587 L110.589468,108.941305 L107.257539,107.006152 C106.870645,106.781658 106.085939,106.781658 105.70928,107.006152 L102.367116,108.931752 Z" id="Fill-98" fill="#000000"></path>
                <path d="M80.0711694,106.546724 L83.8418511,104.37616 C84.595851,103.938089 84.595851,103.215478 83.8418511,102.78696 L80.0711694,100.606843 C79.3274048,100.16809 78.0943933,100.16809 77.3301581,100.606843 L73.5703941,102.777407 C72.8163942,103.215478 72.8054766,103.928536 73.5703941,104.365242 L77.3301581,106.546724 C78.084158,106.984795 79.3171695,106.984795 80.0711694,106.546724" id="Fill-100" fill="#FFFFFF"></path>
                <path d="M78.6962967,108.066051 C77.9921086,108.066051 77.2886028,107.901604 76.7290735,107.575439 L72.9590742,105.405557 C72.2255449,104.97704 71.796345,104.315158 71.796345,103.582311 C71.796345,102.837864 72.2255449,102.175299 72.9686271,101.737229 L76.7290735,99.5673466 C77.8501792,98.9252526 79.5519671,98.9143349 80.6730728,99.5775819 L84.4423898,101.748146 C85.1766014,102.175299 85.6037543,102.848099 85.6037543,103.582311 C85.6037543,104.315158 85.1766014,104.97704 84.4423898,105.405557 L80.6730728,107.575439 C80.1114965,107.901604 79.3984378,108.066051 78.6962967,108.066051 L78.6962967,108.066051 Z M74.5892151,103.571393 L77.9313792,105.507228 C78.3182732,105.73104 79.0825084,105.73104 79.4803201,105.507228 L82.8122489,103.582311 L79.4803201,101.645793 C79.0927437,101.421299 78.3182732,101.421299 77.9313792,101.645793 L74.5892151,103.571393 Z" id="Fill-102" fill="#000000"></path>
                <path d="M89.3333584,101.19701 L93.10404,99.0264455 C93.8580399,98.588375 93.8580399,97.8759986 93.10404,97.4276928 L89.344276,95.2571285 C88.5895938,94.8292933 87.3565822,94.819058 86.5930294,95.2571285 L82.832583,97.4276928 C82.0785832,97.8657633 82.0785832,98.5774573 82.832583,99.0175749 L86.5930294,101.19701 C87.3463469,101.624845 88.5793585,101.624845 89.3333584,101.19701" id="Fill-104" fill="#FFFFFF"></path>
                <path d="M87.9676974,102.725617 C87.2553211,102.725617 86.551133,102.562534 85.9909213,102.226134 L82.2318396,100.05557 C81.4873927,99.6284172 81.0602398,98.9556173 81.0602398,98.222088 C81.0602398,97.4892411 81.4873927,96.8253118 82.2318396,96.3981589 L85.9909213,94.2275946 C87.112027,93.5752653 88.8138149,93.5752653 89.9349206,94.2275946 L93.7042376,96.3981589 C94.4384492,96.8253118 94.8662844,97.4981116 94.8662844,98.2323233 C94.8662844,98.9658526 94.4384492,99.6284172 93.7042376,100.05557 L89.9349206,102.226134 C89.3747089,102.562534 88.6712032,102.725617 87.9676974,102.725617 L87.9676974,102.725617 Z M83.8612981,98.222088 L87.1939093,100.158605 C87.5712504,100.382417 88.3545915,100.382417 88.7319326,100.158605 L88.7428502,100.158605 L92.074779,98.2323233 L88.7428502,96.2951236 C88.3545915,96.0726766 87.5808034,96.0726766 87.1939093,96.2951236 L83.8612981,98.222088 Z" id="Fill-106" fill="#000000"></path>
                <path d="M82.8325148,108.136879 L86.5929612,105.966315 C87.3469611,105.528244 88.5792903,105.528244 89.3332901,105.966315 L93.1039718,108.136879 C93.858654,108.57495 93.858654,109.288691 93.0937365,109.726079 L89.3332901,111.897326 C88.569055,112.334714 87.3367258,112.334714 86.5820435,111.897326 L82.8222795,109.726079 C82.0675973,109.288691 82.0675973,108.57495 82.8325148,108.136879" id="Fill-108" fill="#FFFFFF"></path>
                <path d="M87.9585539,113.425045 C87.2441305,113.425045 86.5419894,113.261963 85.9817778,112.935116 L82.2213314,110.765234 C81.4878021,110.327164 81.0599669,109.665281 81.0599669,108.931752 C81.0599669,108.198223 81.4878021,107.52474 82.2213314,107.096905 L82.232249,107.096905 L85.9913307,104.926341 C87.1124364,104.275376 88.803989,104.275376 89.93533,104.926341 L93.704647,107.107823 C94.4388586,107.535658 94.8660115,108.198223 94.8572764,108.931752 C94.8572764,109.675517 94.4286233,110.338081 93.6950941,110.765234 L89.93533,112.935116 C89.3751183,113.261963 88.6613773,113.425045 87.9585539,113.425045 L87.9585539,113.425045 Z M83.8514723,108.931752 L87.1834011,110.867587 C87.5709775,111.092081 88.3550009,111.092081 88.732342,110.867587 L92.0649532,108.931752 L88.732342,107.006152 C88.3550009,106.781658 87.5709775,106.781658 87.1936364,106.995235 L83.8514723,108.931752 Z" id="Fill-110" fill="#000000"></path>
                <path d="M92.0846732,113.486525 L95.8444372,111.315961 C96.5991194,110.877208 97.832131,110.877208 98.5956838,111.315961 L102.35613,113.496761 C103.11013,113.935513 103.11013,114.64789 102.345895,115.076407 L98.5956838,117.256525 C97.832131,117.693913 96.5991194,117.693913 95.8348843,117.256525 L92.0846732,115.076407 C91.3313556,114.637655 91.3313556,113.935513 92.0846732,113.486525" id="Fill-112" fill="#FFFFFF"></path>
                <path d="M97.2098934,118.784722 C96.50707,118.784722 95.8042466,118.62164 95.244035,118.28524 L91.4835886,116.114675 C90.739824,115.687523 90.3222241,115.024276 90.3222241,114.291429 C90.3222241,113.547664 90.7493769,112.884417 91.4835886,112.457264 L95.2542702,110.287382 C96.3746936,109.634371 98.0662462,109.634371 99.1975872,110.287382 L102.958034,112.457264 C103.690881,112.884417 104.119398,113.557217 104.119398,114.291429 C104.119398,115.024276 103.690881,115.697758 102.947116,116.114675 L99.1975872,118.28524 C98.6264579,118.62164 97.9243168,118.784722 97.2098934,118.784722 L97.2098934,118.784722 Z M93.1034942,114.281193 L96.4463406,116.217711 C96.8229994,116.441522 97.6083875,116.441522 97.9945992,116.217711 L101.326528,114.291429 L97.9945992,112.354911 C97.6083875,112.130417 96.8332347,112.130417 96.4463406,112.354911 L93.1034942,114.281193 Z" id="Fill-114" fill="#000000"></path>
                <path d="M66.3154142,171.608452 L66.3154142,167.063299 L66.2437671,167.063299 C63.880097,167.094005 61.6679091,166.738499 59.5799095,165.576453 L7.90669508,135.690081 C6.7146247,134.966787 5.82824838,134.182082 5.42088375,132.816694 L5.42088375,137.361846 C5.82824838,138.736104 6.7146247,139.509892 7.90669508,140.244104 L59.5799095,170.131158 C61.6679091,171.282287 63.880097,171.650075 66.2437671,171.608452 L66.3154142,171.608452 Z" id="Fill-116" fill="#000000"></path>
                <path d="M65.9992801,172.811167 C63.227563,172.811167 61.0058222,172.290531 58.9983402,171.171473 L7.30533753,141.274184 C6.10371422,140.53929 4.81952621,139.551925 4.27978513,137.69729 C4.23816161,137.585385 4.22929102,137.472796 4.22929102,137.361573 L4.22929102,132.816421 C4.22929102,132.215268 4.66736153,131.715786 5.25827907,131.634586 C5.84851426,131.54315 6.40872593,131.909574 6.57180825,132.480021 C6.82700821,133.365715 7.36743164,133.957997 8.52811379,134.66082 L60.1808576,164.537639 C61.8628573,165.473827 63.7570687,165.913262 66.2326448,165.862085 C66.519233,165.881874 66.8856564,165.983544 67.1203858,166.208038 C67.3544328,166.432532 67.5072799,166.738226 67.5072799,167.063709 L67.5072799,171.608179 C67.5072799,172.250955 67.0084799,172.780461 66.3759389,172.811167 L66.3056565,172.811167 L65.9992801,172.811167 Z M6.62366707,137.176655 C6.89865525,137.982514 7.42816104,138.553643 8.52811379,139.215525 L60.1808576,169.091661 C61.5974221,169.876367 63.1866218,170.304202 65.1122215,170.39632 L65.1122215,168.235309 C62.7273983,168.13432 60.7820105,167.604815 58.9983402,166.626321 L7.30533753,136.729032 C7.08220816,136.58642 6.84747879,136.443808 6.62366707,136.280726 L6.62366707,137.176655 Z" id="Fill-118" fill="#000000"></path>
                <path d="M43.7352676,85.0925962 C43.084303,85.4699373 42.2504678,85.2474903 41.8738091,84.5965257 C41.4971503,83.9462435 41.718915,83.1130907 42.3698796,82.7357495 L81.9272373,59.7036124 C81.9313314,53.8162723 81.9729549,47.9534969 82.0152608,42.0470508 C82.0548373,36.5534283 82.0944137,31.0188646 82.104649,25.4003714 C71.5145333,31.4439704 60.7272175,37.7120634 49.7399724,44.0947917 L42.1542561,48.5000615 L42.1508443,60.1526006 C42.1508443,60.9031887 41.5421856,61.5118474 40.7902328,61.5118474 C40.0396447,61.5118474 39.430986,60.9031887 39.430986,60.1526006 L39.4343977,47.7897322 C39.407786,47.294344 39.6527506,46.8016853 40.1112917,46.5362501 L48.3739021,41.737945 C59.9991471,34.9840168 71.4005803,28.3597356 82.7958724,21.8726073 C82.9937548,21.7607015 83.2230253,21.6965603 83.4673076,21.6965603 C84.2178957,21.6965603 84.8272368,22.305219 84.8272368,23.0564895 C84.8258721,29.4944884 84.7801545,35.8014755 84.7358015,42.0572861 C84.6921309,48.2011909 84.647778,54.2986957 84.6470957,60.412577 C84.6737074,60.9079652 84.4280604,61.4013063 83.9688369,61.6660591 L43.7352676,85.0925962 Z" id="Fill-120" fill="#000000"></path>
                <path d="M84.5207239,20.8653863 C85.1751003,20.4941864 86.0055236,20.7241393 86.3767236,21.3778333 C86.7479235,22.0315273 86.518653,22.8626331 85.864959,23.233833 C74.2103728,29.8799495 62.1183984,36.903407 49.9349888,43.9800882 L39.7447318,49.8967695 C39.0937672,50.2727459 38.2599321,50.0516635 37.8839557,49.400699 C37.5066146,48.7497344 37.7283792,47.9158992 38.3793438,47.5392405 L48.5696008,41.6232415 C60.678634,34.5895486 72.6996436,27.6077146 84.5207239,20.8653863" id="Fill-122" fill="#000000"></path>
                <path d="M44.295411,80.5713946 C42.6864231,83.8207588 40.5411058,86.733723 38.2429415,88.064311 C36.9812711,88.7957932 35.7011772,89.058499 34.4592951,88.9356755 C33.1491777,88.8073932 31.9161661,88.2499109 30.8189428,87.3669464 L30.780731,87.3355581 C29.9004959,86.5767818 29.1458137,85.4044997 28.6326844,84.0138646 C28.1632256,82.7371825 27.8827786,81.2544298 27.8827786,79.7259595 L27.8882374,78.928289 C27.8841433,78.928289 27.8745904,77.3111129 27.8711786,77.0961717 C27.7797433,70.7789493 27.709461,65.8694208 36.8830123,60.5538923 C42.3438819,57.3864105 44.9866344,57.7971869 46.3472459,60.1431159 C47.3359752,61.8476332 47.2970811,64.4958445 47.2547752,67.4449734 C47.2493164,67.8700792 47.2424928,68.2924556 47.2424928,69.2921025 L47.237034,70.0890906 C47.2363517,72.9024313 46.070893,76.9863129 44.295411,80.5713946 M36.8775535,85.7074643 C38.6782826,84.6641469 40.456494,82.1858414 41.8532703,79.3663596 C43.4602112,76.1190425 44.5171757,72.5025725 44.5171757,70.0890906 L44.5117169,69.2921025 L44.5342345,67.4135852 C44.5724463,64.8602209 44.6045168,62.5688802 43.9903993,61.5085039 C43.4731759,60.6180334 41.9385644,60.7708805 38.2484003,62.9107389 C30.4532017,67.4279146 30.5139311,71.6421256 30.5917193,77.0647835 L30.614237,78.928289 L30.614237,79.7259595 C30.614237,80.9330416 30.8305428,82.0896297 31.1928721,83.0742648 C31.5422368,84.0240999 32.0137426,84.7910645 32.5357425,85.2530173 C33.2269659,85.8064055 33.9700481,86.1530407 34.7254127,86.2267348 C35.4091302,86.2936054 36.135836,86.1366642 36.8775535,85.7074643" id="Fill-124" fill="#000000"></path>
                <path d="M63.590097,75.9724049 C63.590097,76.7236753 62.9807559,77.332334 62.2301678,77.332334 C61.4788974,77.332334 60.8695563,76.7236753 60.8695563,75.9724049 L60.870921,72.7783113 C60.870921,72.0277232 61.4795797,71.4183821 62.2301678,71.4183821 C62.9814383,71.4183821 63.5907794,72.0277232 63.5907794,72.7783113 L63.590097,75.9724049 Z" id="Fill-126" fill="#000000"></path>
                <polygon id="Fill-128" fill="#000000" points="22.204102 115.204894 52.7564495 97.3060976 52.7564495 85.6938173 49.212309 84.9657468 44.008004 86.5344759 41.0902633 90.0444988 37.5597698 93.1116748 34.473488 93.8165452 31.5461944 92.8980983 27.8219127 96.3835565 23.5885958 101.022873 22.204102 105.705178"></polygon>
                <path d="M41.045501,81.281451 C41.045501,80.5274511 41.6568891,79.916063 42.410889,79.916063 C43.1648889,79.916063 43.7769593,80.5274511 43.7769593,81.281451 L43.7769593,81.2944157 C43.7769593,82.0907214 43.7769593,83.6423917 43.8376887,84.5355916 C44.0662769,84.551968 44.2887239,84.5813092 44.499571,84.6297563 C46.4435942,84.014274 48.2409115,83.6840153 49.7263936,83.7502035 C50.7246758,83.7938741 51.6083227,84.0156387 52.3350284,84.443474 C53.148393,84.9224856 53.7406752,85.6266737 54.0620634,86.5840147 C54.2551692,87.1626499 54.3418281,87.8252145 54.3097575,88.576485 L54.3063457,96.9018718 C54.3063457,97.6524599 53.697687,98.2618009 52.9470989,98.2618009 C52.1958284,98.2618009 51.5864874,97.6524599 51.5864874,96.9018718 L51.5885344,88.4584379 C51.606958,88.0476615 51.5680638,87.7126263 51.4800403,87.4478734 C51.3797345,87.1496852 51.200958,86.9340617 50.9594051,86.7907677 C50.6311934,86.5983442 50.1706053,86.4953089 49.6090289,86.4700618 C48.3773821,86.4147912 46.7813588,86.7389088 45.0031474,87.3284617 C44.6285357,87.4806264 44.1891004,87.4656146 43.8103946,87.2493087 C43.7776417,87.2308852 43.3150065,87.2308852 42.8339477,87.2315676 L42.7568419,87.2370264 C42.2867008,87.2329323 41.8302067,86.9900147 41.5777362,86.5539912 C41.0461833,85.6355443 41.045501,82.6079449 41.045501,81.2944157 L41.045501,81.281451 Z" id="Fill-130" fill="#000000"></path>
                <path d="M31.3502909,87.4288358 C31.3502909,86.6782477 31.959632,86.0689066 32.7109025,86.0689066 C33.4614906,86.0689066 34.0708316,86.6782477 34.0708316,87.4288358 C34.0708316,88.1671415 33.9623375,89.2418472 33.8654434,90.2066941 C33.7944787,90.9156587 33.7289729,91.5597998 33.7289729,91.8941526 C33.7289729,92.1957526 33.6307141,92.4748349 33.4649023,92.7006937 C33.2547377,93.0439171 32.9858906,93.4041994 32.6883848,93.7733523 C32.3785966,94.1561522 32.0189967,94.5717051 31.6600791,94.9858933 C31.6102674,95.0445756 31.5556791,95.0971168 31.4983615,95.1441991 C28.994809,97.2158223 26.790127,99.4293748 25.2998685,101.598574 C24.0736805,103.382927 23.33401,105.124974 23.33401,106.700526 L23.3285512,106.700526 L23.3265041,115.085278 C23.3265041,115.835866 22.7178454,116.445207 21.9665749,116.445207 C21.2159868,116.445207 20.6066458,115.835866 20.6066458,115.085278 L20.6086928,106.700526 L20.603234,106.700526 C20.603234,104.547021 21.5271397,102.291845 23.0597042,100.061916 C24.7041745,97.6695869 27.0514682,95.2922697 29.6860324,93.107376 C29.9910441,92.7545995 30.2940088,92.4018231 30.5655852,92.0661055 C30.7389028,91.8511644 30.8937969,91.651235 31.0152557,91.4792821 C31.0425498,91.0732822 31.0978204,90.5260352 31.1558204,89.9398942 C31.247938,89.0262237 31.3502909,88.0088357 31.3502909,87.4288358" id="Fill-132" fill="#000000"></path>
                <path d="M41.4925786,86.5628618 C41.7723432,85.8648149 42.5645548,85.5250032 43.2626018,85.8054502 C43.9613311,86.0852148 44.2997781,86.8781088 44.0200134,87.5754734 C43.4918723,88.8958261 42.6559901,90.11792 41.7232138,91.1598728 C40.5911905,92.4242725 39.3008613,93.4402959 38.2425321,94.0530487 L38.2370733,94.0557781 C37.0156617,94.7626957 35.6700619,95.1796132 34.5162033,95.243072 C33.057333,95.324272 31.8161332,94.8643662 31.1842745,93.7739664 C30.8076157,93.1236842 31.0293804,92.289849 31.680345,91.9125079 C32.3306272,91.5358492 33.1651447,91.7582962 33.5418035,92.4092608 C33.6025329,92.5136608 33.9205093,92.547096 34.3660857,92.5225313 C35.1146267,92.4809078 36.0207913,92.1915902 36.8764617,91.6962021 C37.7273557,91.202861 38.7720379,90.3792611 39.6966259,89.346179 C40.433567,88.5225791 41.089308,87.5713793 41.4925786,86.5628618" id="Fill-134" fill="#000000"></path>
                <path d="M38.9166967,106.050858 C38.9166967,106.802129 38.3073556,107.41147 37.5560851,107.41147 C36.805497,107.41147 36.196156,106.802129 36.196156,106.050858 L36.1988854,94.4726957 C36.1988854,93.7214253 36.8082264,93.1120842 37.5594969,93.1120842 C38.310085,93.1120842 38.9187437,93.7214253 38.9187437,94.4726957 L38.9166967,106.050858 Z" id="Fill-136" fill="#000000"></path>
                <path d="M30.7017828,81.4037286 C30.5230064,82.1345285 29.7840183,82.5807872 29.0539008,82.4013284 C28.3237832,82.2218696 27.8775245,81.4835639 28.0563009,80.7534464 C28.2630538,79.9168818 28.3749597,78.6913761 28.4861832,77.4576822 C28.6635949,75.4966002 28.8444184,73.5102712 29.4667242,72.3646008 C29.8754536,71.4099892 30.5298299,70.7433305 31.3261356,70.2438482 L31.4107474,70.1947188 C32.1265355,69.7607424 32.9091942,69.4768837 33.7123235,69.2257778 L33.7750999,69.2080366 C36.5720641,68.3366721 36.9453111,68.0262016 38.3939462,66.8170724 C38.8504402,66.4363195 39.3949578,65.9832372 39.9278753,65.5601785 L40.0056635,65.5028608 C40.768534,64.903755 41.5443691,64.352414 42.2390043,64.0085081 C43.3519218,63.4585318 44.3802275,63.3630024 45.1949567,64.0630964 C45.3955685,64.2350493 45.5334037,64.4520375 45.6070978,64.6867668 C45.8984625,65.4073314 46.0881566,66.6185077 46.2887683,67.9067898 C46.4934741,69.2155425 46.7131918,70.6177776 46.9254035,71.2250716 C47.1730976,71.9347185 46.7978035,72.7119184 46.0881566,72.9582477 C45.3785096,73.2059418 44.6019921,72.8306478 44.3549804,72.1203185 C44.0656628,71.2953539 43.8247923,69.7566483 43.6009805,68.3223427 C43.4849806,67.5799428 43.4160629,66.9180606 43.3662512,66.4909077 C42.8715454,66.7495194 42.2833572,67.1712135 41.6903926,67.6379428 L41.6242044,67.6938957 C40.9145575,68.2561545 40.4908164,68.6109779 40.1332635,68.9084838 C38.3495932,70.3953305 37.8903698,70.7774481 34.5864174,71.8071185 L34.5229586,71.8289538 C33.8876881,72.0268361 33.2892647,72.2383655 32.833453,72.5099419 L32.7768177,72.5481537 C32.4219943,72.7706007 32.1367708,73.0490007 31.9716414,73.4236124 C31.943665,73.50413 31.9075003,73.5839653 31.8631473,73.6603888 C31.5062768,74.2786005 31.350018,76.0022237 31.1958063,77.7033293 C31.0736651,79.0523408 30.9515239,80.3938464 30.7017828,81.4037286" id="Fill-138" fill="#000000"></path>
                <polygon id="Fill-140" fill="#000000" points="73.4547353 49.4730284 63.7264311 53.5023218 69.4240772 59.3671443 71.3974415 57.4490505 73.759747 50.3894282"></polygon>
                <polygon id="Fill-142" fill="#DD784B" points="73.4547353 49.4730284 63.7264311 53.5023218 59.6971377 43.1353354 65.1716544 39.4943007 70.8693004 39.2718537 73.7467823 44.0756175"></polygon>
                <path d="M64.1258122,52.9934913 C64.423318,53.6819853 64.1046593,54.4823851 63.4161653,54.7805733 C62.7269889,55.0780791 61.9272714,54.7594204 61.6297656,54.0709264 C60.5721187,51.6342444 59.6898365,49.2562449 58.8136955,46.8939394 C58.4329426,45.8690455 58.0542368,44.8482456 57.7314839,44.0000811 C57.4640016,43.2965753 57.816778,42.5077755 58.5209661,42.2402932 C59.2244719,41.9721285 60.0132718,42.3255873 60.2807541,43.0297754 C60.6894834,44.1017517 61.0313422,45.022928 61.3732009,45.9447866 C62.274589,48.3732803 63.1807536,50.8167858 64.1258122,52.9934913" id="Fill-144" fill="#000000"></path>
                <path d="M56.0570583,66.3637171 C56.4405406,66.5124701 56.87247,66.6086818 57.3473875,66.6455289 C59.6878577,66.8318112 62.4049866,65.5626349 64.913998,63.3395294 C67.5226328,61.0263534 69.8603736,57.7094363 71.3274321,53.9012252 C72.0868908,51.934002 72.5338319,50.040473 72.6900907,48.3120733 C72.874326,46.2766148 72.6546084,44.4888504 72.0671026,43.1043565 C71.5369144,41.8556509 70.6996675,40.9494863 69.5922089,40.5223335 C69.2291972,40.3824511 68.8286561,40.2889688 68.3919503,40.2500747 C66.0883272,40.0405924 63.3773394,41.3206863 60.854681,43.5663094 C58.2180697,45.9136031 55.8441643,49.2810143 54.3552704,53.1212959 C53.5644235,55.1615309 53.1127059,57.115107 52.9721412,58.8858126 C52.8172471,60.8503063 53.0492471,62.5623296 53.6319764,63.8833646 C54.1587528,65.0788468 54.9796232,65.9461172 56.0570583,66.3637171 M57.1338111,69.3660696 C56.4050583,69.3087519 55.7165643,69.1511284 55.075835,68.9020696 C53.2867059,68.2094815 51.9554355,66.8393171 51.1359298,64.9819527 C50.372377,63.2494589 50.0612241,61.0877651 50.2516005,58.6722361 C50.4112711,56.6599777 50.9230357,54.4464251 51.8169179,52.1393902 C53.466847,47.882191 56.1061877,44.1422152 59.0416696,41.5288039 C62.1061161,38.8014397 65.546539,37.2593223 68.6369149,37.5397693 C69.3240442,37.6025457 69.9688677,37.7533457 70.5679734,37.9846633 L70.5727499,37.9867104 C72.4041849,38.6895338 73.7566082,40.1108747 74.5740668,42.0378391 C75.3348902,43.8290152 75.6248902,46.0678148 75.3997138,48.5577203 C75.2216197,50.5249435 74.7173609,52.6654843 73.8671493,54.8769898 L73.8644199,54.8817662 C72.2417849,59.1000714 69.6345148,62.7895531 66.7160918,65.3763526 C63.6659746,68.0798345 60.23374,69.6117166 57.1338111,69.3660696" id="Fill-146" fill="#000000"></path>
                <path d="M73.4073118,47.9910263 C74.1142293,47.7385557 74.8927938,48.1056615 75.1459467,48.8125791 C75.3990996,49.5188142 75.0319938,50.2980612 74.3250763,50.551214 C72.5837119,51.1748845 70.7488652,51.8736138 68.8676184,52.6098725 C66.9433835,53.36319 65.1617603,54.0803428 63.3842312,54.7954486 C62.6861842,55.0752133 61.8932903,54.7367663 61.6135256,54.0387193 C61.3337609,53.3406724 61.6722079,52.5477784 62.3702549,52.2680137 C64.2555957,51.5092374 66.1388895,50.7511434 67.8761598,50.07152 C69.6571006,49.3748378 71.4864886,48.6795203 73.4073118,47.9910263" id="Fill-148" fill="#000000"></path>
                <path d="M61.9284314,54.5081781 C61.390055,53.9841311 61.3777727,53.1216371 61.9018197,52.5832607 C62.4251843,52.044202 63.2883606,52.0319197 63.826737,52.5559666 L70.5458652,59.0806243 C71.0849239,59.6046713 71.0965239,60.4664829 70.572477,61.0055416 C70.04843,61.543918 69.185936,61.5562003 68.6475597,61.0321534 L61.9284314,54.5081781 Z" id="Fill-150" fill="#000000"></path>
                <path d="M10.19981,123.452084 C9.71124535,123.452084 9.26293954,123.340178 8.8542102,123.105448 C7.94804566,122.575943 7.42877516,121.536037 7.42877516,120.221825 L7.44856339,62.2928002 C7.44856339,60.0615065 8.96679842,57.4426364 10.9033157,56.3215307 L93.9797717,8.39920972 C95.1008773,7.75643337 96.2731595,7.68546867 97.179324,8.20542152 C98.0970886,8.73492731 98.6170414,9.77483301 98.6170414,11.0890445 L98.5958885,69.0180696 C98.5958885,71.2500457 97.0776535,73.8682335 95.1418185,74.9893391 L12.0639979,122.91166 C11.4423745,123.268531 10.8009628,123.452084 10.19981,123.452084 L10.19981,123.452084 Z M95.835089,10.254527 C95.6924772,10.254527 95.4577479,10.3145741 95.171842,10.4769741 L12.0947037,58.3999774 C10.9033157,59.0925655 9.84362179,60.9069416 9.84362179,62.2928002 L9.82315121,120.221825 C9.82315121,120.690602 9.94461001,120.96559 10.0571982,121.027002 C10.1691041,121.087731 10.4747982,121.06726 10.8726098,120.833896 L93.9599834,72.9108925 C95.1418185,72.2183043 96.1912771,70.4039282 96.1912771,69.0180696 L96.2226654,11.0890445 C96.2226654,10.6311858 96.0991595,10.3445976 95.9872536,10.2838682 C95.9565478,10.2633976 95.9060537,10.254527 95.835089,10.254527 L95.835089,10.254527 Z" id="Fill-152" fill="#000000"></path>
            </g>
        </g>
    </g>
</svg>