<?xml version="1.0" encoding="UTF-8"?><svg id="Layer_1" xmlns="http://www.w3.org/2000/svg" viewBox="0 0 720 720"><defs><style>.cls-1{fill:#dd784b;}.cls-2{fill:#f4d9dc;}.cls-3{fill:#f8d754;}.cls-4{fill:#3d68ec;}</style></defs><path class="cls-2" d="M222.96,523.8s1.36,12.34-2.86,21.62c-4.23,9.29,1.06,18.4,16.57,14.19l16.76-9.47s-4.89-12.32-5.08-26.83c-.21-14.52-11.32-11.88-11.32-11.88l-14.06,12.36Z"/><path d="M229.44,562.58c-5.78,0-8.77-2.29-10.23-3.99-2.99-3.5-3.34-8.71-.94-13.99,3.96-8.66,2.72-20.48,2.71-20.58-.07-.64.17-1.27.65-1.7l14.05-12.37c.25-.22.55-.36.86-.44.2-.04,5.11-1.17,9.09,1.92,3.03,2.34,4.6,6.34,4.68,11.87.2,13.96,4.9,26.03,4.95,26.14.37.92,0,1.96-.87,2.44l-16.76,9.47c-3.21.88-5.93,1.25-8.21,1.25h.02ZM225.03,524.62c.23,3.26.6,13.44-3.12,21.62-1.75,3.84-1.62,7.49.34,9.79,2.41,2.81,7.48,3.43,13.89,1.68l14.84-8.44c-1.33-3.86-4.47-14.12-4.63-25.92-.07-4.25-1.11-7.21-3.12-8.78-1.91-1.49-4.34-1.39-5.31-1.28l-12.87,11.34h-.01Z"/><path class="cls-2" d="M328.49,593.01s1.25,11.39-2.65,19.97c-3.91,8.57,1.58,19.36,15.92,15.48l14.86-11.12s-4.51-11.38-4.69-24.79c-.18-13.4-10.44-10.97-10.44-10.97l-12.99,11.43Z"/><path d="M336.05,631.27c-5.66,0-8.87-2.57-10.46-4.4-3.29-3.83-3.91-9.6-1.58-14.7,3.63-7.99,2.49-18.82,2.48-18.93-.07-.64.17-1.27.65-1.7l12.98-11.43c.25-.22.55-.37.86-.44.2-.05,4.78-1.09,8.52,1.79,2.84,2.19,4.31,5.92,4.38,11.08.18,12.9,4.51,23.97,4.56,24.09.33.83.05,1.77-.65,2.31l-14.86,11.12c-.2.15-.43.26-.68.32-2.35.63-4.4.89-6.22.89h.01ZM330.56,593.83c.22,3.1.52,12.44-2.9,19.96-1.7,3.71-1.31,7.83.97,10.5,2.5,2.9,6.82,3.73,12.23,2.35l13.37-10c-1.23-3.52-4.16-13.07-4.31-24.05-.05-3.88-1.01-6.57-2.81-7.99-1.7-1.34-3.84-1.27-4.76-1.16l-11.8,10.39h.01Z"/><path class="cls-3" d="M225.23,540.2c-2.94-.86-6.09.6-7.5,3.31-3.24,6.22-12.29,21.63-25.5,28.58-16.77,8.8-7.12,18.79.94,20.56,4.94,1.08,14.17-2.38,21.36-5.64,4.98-2.26,9.48-5.36,13.71-8.8,2.42-1.96,6.08-4.1,11.04-4.78,7.64-1.05,16.27-5.79,19.85-7.92,1.06-.63,1.65-1.78,1.55-3-.4-5.77-1.82-22.39-4.64-24.53-3.42-2.58-7.33-2.56-7.96,4.43-.62,6.99-11.86,10.05-13.27,5.43-.89-2.93-5.41-6.4-9.61-7.62h.01Z"/><path d="M195.23,594.82c-.92,0-1.74-.08-2.48-.25-5.1-1.1-10.91-5.22-11.66-10.67-.48-3.49.9-8.67,10.21-13.57,12.7-6.67,21.49-21.62,24.66-27.74,1.88-3.61,6.06-5.4,9.83-4.3,4.35,1.27,9.78,5.05,10.97,8.96.22.73,1.56.86,2.54.75,3.07-.32,6.56-2.62,6.85-5.79.34-3.89,1.67-6.38,3.95-7.38,2.09-.92,4.64-.38,7.2,1.55.94.71,3.8,2.88,5.41,25.97.14,1.96-.82,3.82-2.52,4.83-3.5,2.09-12.55,7.09-20.6,8.19-3.75.52-7.14,1.97-10.06,4.35-5.06,4.1-9.56,6.99-14.16,9.08-8.81,3.99-15.55,6-20.13,6h0ZM223.51,541.94c-1.62,0-3.19.93-4,2.49-3.36,6.45-12.65,22.23-26.34,29.43-5.67,2.97-8.56,6.36-8.13,9.53.48,3.53,4.74,6.51,8.57,7.34,3.45.75,10.61-1.19,20.1-5.49,4.28-1.94,8.5-4.65,13.28-8.53,3.45-2.8,7.62-4.61,12.04-5.21,7.33-1,15.79-5.69,19.1-7.66.4-.25.63-.68.6-1.16-.95-13.66-2.67-21.96-3.88-23.12-1.25-.95-2.47-1.36-3.15-1.06-.8.35-1.4,1.88-1.59,4.1-.46,5.25-5.65,8.89-10.39,9.38-3.45.36-5.99-1.01-6.76-3.55-.6-1.97-4.34-5.15-8.26-6.3-.39-.12-.78-.17-1.18-.17v-.03Z"/><path d="M248.09,542.39c-.12,1.32-.63,2.51-1.37,3.53,1.87,8.92-.29,17.01-3.46,17.71-3.18.7-13.4,2.8-19.04,6.66-5.65,3.86-21.87,14.71-29.98,15.41-8.03.69-8.9-2.9-10.06-4.87-2.65,6.15,3.27,10.56,8.98,11.81,4.94,1.08,14.17-2.38,21.36-5.64,4.98-2.26,9.48-5.36,13.71-8.8,2.42-1.96,6.08-4.1,11.04-4.78,7.64-1.05,16.27-5.79,19.85-7.92,1.06-.63,1.65-1.78,1.56-3-.4-5.77-1.82-22.39-4.64-24.53-3.42-2.58-7.33-2.56-7.96,4.43h.03Z"/><path d="M195.2,594.82c-.92,0-1.74-.08-2.49-.25-3.63-.79-8.23-3.01-10.23-6.86-1.23-2.38-1.28-5.03-.14-7.66.29-.69.95-1.14,1.7-1.19.81-.07,1.46.32,1.84.97l.43.78c.94,1.78,1.92,3.62,7.74,3.11,2.97-.26,10.69-2.56,29.03-15.08,5.7-3.9,15.54-6.04,19.25-6.84l.48-.1c1.42-.31,3.75-6.78,1.95-15.37-.1-.55,0-1.12.34-1.57.58-.79.92-1.65.99-2.53.35-3.89,1.69-6.39,3.96-7.38,2.09-.92,4.65-.36,7.19,1.56.93.7,3.78,2.86,5.41,25.96.13,1.97-.82,3.83-2.52,4.84-3.5,2.09-12.55,7.09-20.6,8.19-3.75.52-7.14,1.97-10.06,4.35-5.05,4.1-9.54,6.99-14.14,9.08-8.81,3.99-15.56,6-20.14,6h.01ZM186.39,586.49c1.31,1.92,4.05,3.53,7.19,4.22,3.45.75,10.61-1.19,20.11-5.49,4.27-1.94,8.49-4.65,13.27-8.53,3.45-2.8,7.62-4.61,12.04-5.21,7.33-1,15.8-5.69,19.1-7.66.4-.25.63-.67.6-1.17-1.02-14.3-2.72-22-3.88-23.1-1.25-.95-2.49-1.36-3.15-1.07-.8.35-1.4,1.88-1.59,4.1-.12,1.32-.54,2.6-1.23,3.77,1.72,9.35-.6,18.23-5.15,19.23l-.5.1c-3.5.77-12.8,2.79-17.85,6.25-14.56,9.95-24.97,15.25-30.94,15.77-3.79.34-6.3-.21-8.03-1.19h.01Z"/><path d="M226,560.54c-.54,0-1.06-.21-1.45-.62-5.1-5.39-11.79-6.32-11.85-6.34-1.09-.14-1.86-1.14-1.7-2.23.15-1.08,1.1-1.87,2.24-1.7.33.04,8.17,1.16,14.22,7.54.76.79.72,2.05-.08,2.79-.39.36-.87.53-1.37.53v.03Z"/><path d="M220.77,566.11c-.54,0-1.06-.21-1.45-.62-5.06-5.34-11.79-6.32-11.85-6.34-1.09-.16-1.84-1.16-1.7-2.23.14-1.08,1.12-1.82,2.24-1.69.33.04,8.17,1.16,14.22,7.54.76.79.72,2.05-.09,2.79-.39.36-.88.53-1.37.53h.01Z"/><path class="cls-1" d="M253.41,567.51c-.22,0-.45-.04-.67-.12-1.03-.36-1.58-1.49-1.2-2.53,3.07-8.57-.54-18.95-.57-19.05-.37-1.02.18-2.17,1.22-2.53,1.04-.34,2.17.18,2.55,1.21.17.48,4.1,11.82.56,21.69-.29.82-1.06,1.31-1.87,1.31v.03Z"/><path class="cls-3" d="M335.52,610.7c4.69,1.74,6.52,6.53,7.22,10.61.43,2.52,3.58,3.44,5.32,1.57,3.48-3.73,7.41-8.6,6.81-10.99-1.06-4.19-1.91-8.55-1.91-8.55,0,0,4.39-4.93,8.47,3.48,4.08,8.42,1.79,18.13,1.79,22.17s-8.79,9.72-15.63,14.88c-6.84,5.18-12.69,15.6-21.28,23.48-8.4,7.71-32.29,5.15-23.34-12.96,8.95-18.13,11.72-20.54,13.03-26.37,1.31-5.83,5.48-22.7,12.1-22.75,0,0,.05,3.67-2.52,8.44,0,0,2.97-5.59,9.96-3h-.01Z"/><path d="M314.1,673.44c-4.03,0-7.96-1-10.76-3.08-2.86-2.13-6.97-7.14-2.18-16.83,3.84-7.78,6.53-12.64,8.49-16.19,2.54-4.58,3.69-6.67,4.38-9.74,3.59-16.08,8.31-24.26,14.02-24.31h.01c1.09,0,1.97.87,1.99,1.95,0,.09.01,1.26-.38,3.09,1.82-.44,4-.4,6.53.53,4.5,1.66,7.42,5.86,8.48,12.14.1.6.57.79.77.85.21.07.72.16,1.14-.31,6.62-7.1,6.32-9.14,6.32-9.17-1.07-4.25-1.93-8.65-1.93-8.65-.12-.61.05-1.23.46-1.69.22-.26,2.31-2.47,5.33-2.05,2.51.35,4.66,2.36,6.42,5.98,3.41,7.07,2.69,14.74,2.21,19.82-.12,1.29-.22,2.38-.22,3.21,0,4.38-6.01,8.8-12.98,13.91-1.17.86-2.33,1.71-3.44,2.55-3.36,2.55-6.62,6.61-10.06,10.92-3.37,4.21-6.85,8.56-11.08,12.44-3.31,3.04-8.5,4.62-13.54,4.62h.01ZM325.4,608.92c-2.3,2.65-5.06,8.65-7.49,19.52-.81,3.61-2.13,6.01-4.77,10.79-1.95,3.52-4.61,8.34-8.42,16.02-1.84,3.74-3.18,8.83.98,11.91,4.8,3.56,14.68,2.91,19.21-1.26,4-3.67,7.38-7.91,10.65-12,3.61-4.51,7.01-8.77,10.77-11.61,1.12-.84,2.3-1.71,3.49-2.58,4.52-3.32,11.36-8.35,11.36-10.73,0-.93.1-2.16.25-3.58.43-4.64,1.1-11.65-1.84-17.73-1.09-2.25-2.31-3.62-3.36-3.78-.4-.07-.81.06-1.12.23.33,1.56.94,4.45,1.66,7.27.46,1.84.07,4.96-7.28,12.82-1.33,1.43-3.32,1.96-5.2,1.4-1.87-.56-3.23-2.09-3.56-3.99-.56-3.35-2.05-7.65-5.95-9.09-5.14-1.91-7.29,1.68-7.53,2.09-.51.96-1.73,1.31-2.68.8-.91-.48-1.29-1.57-.9-2.49,0,0,.04-.09.07-.14,0,0,.03-.05.04-.08.76-1.39,1.25-2.67,1.58-3.78l.04-.02Z"/><path d="M352.94,603.35s.85,4.35,1.91,8.55c.03.12,0,.27,0,.4.27.74.56,1.48.75,2.25.34,1.36.5,2.78.51,4.17.1,7.09-3.53,13.71-9.11,18.13-6.22,4.92-15.97,13.45-22.4,23.17-9.74,14.7-21.37,7.08-21.37,7.08,0,3.82,17.13,5.7,23.04.27,8.59-7.88,14.44-18.3,21.28-23.48,6.84-5.18,15.63-10.84,15.63-14.88s2.27-13.75-1.79-22.17c-4.08-8.41-8.47-3.48-8.47-3.48h.03Z"/><path d="M314.26,672.75c-3.68,0-7.23-.61-9.59-1.65-2.82-1.23-3.41-2.86-3.41-4.01,0-.73.41-1.4,1.05-1.74.65-.34,1.44-.3,2.04.09.39.26,10.16,6.27,18.61-6.52,6.43-9.7,15.96-18.19,22.82-23.62,5.32-4.2,8.44-10.39,8.36-16.56-.02-1.33-.17-2.57-.46-3.72-.17-.69-.43-1.36-.68-2.02-.07-.19-.1-.39-.12-.6-1.02-4.27-1.88-8.66-1.88-8.66-.12-.61.05-1.23.46-1.69.22-.25,2.24-2.47,5.33-2.05,2.51.35,4.67,2.36,6.42,5.99,3.41,7.06,2.69,14.74,2.21,19.82-.12,1.29-.22,2.38-.22,3.21,0,4.37-6,8.79-12.94,13.89-1.17.86-2.35,1.73-3.48,2.57-3.36,2.55-6.61,6.61-10.06,10.92-3.37,4.21-6.85,8.56-11.08,12.44-3.03,2.79-8.34,3.92-13.37,3.92h0ZM356.85,611.93c.26.7.52,1.42.69,2.14.37,1.43.56,2.99.58,4.61.1,7.38-3.58,14.75-9.87,19.71-6.64,5.25-15.83,13.44-21.97,22.7-2.25,3.39-4.61,5.68-6.93,7.19,2.27-.44,4.29-1.21,5.57-2.39,4-3.67,7.39-7.91,10.66-12,3.59-4.51,7-8.75,10.77-11.61,1.14-.86,2.33-1.73,3.52-2.61,4.51-3.31,11.33-8.32,11.33-10.7,0-.93.1-2.16.25-3.58.43-4.64,1.1-11.65-1.84-17.73-1.09-2.25-2.31-3.62-3.36-3.78-.4-.07-.8.06-1.12.23.33,1.56.94,4.45,1.66,7.27.03.12.05.32.07.51v.02Z"/><path d="M337.05,634.45c-.43,0-.85-.13-1.22-.4-6.89-5.29-19.36-6.34-19.49-6.35-1.1-.09-1.91-1.04-1.82-2.13.09-1.09,1.07-1.92,2.14-1.82.56.04,13.76,1.16,21.6,7.15.86.66,1.03,1.91.35,2.78-.39.51-.98.77-1.58.77Z"/><path d="M332.93,641.7c-.43,0-.85-.13-1.22-.42-6.87-5.26-17.67-5.98-17.78-5.98-1.1-.07-1.93-1-1.87-2.09.07-1.09,1.01-1.93,2.1-1.86.5.02,12.12.79,19.97,6.8.86.66,1.03,1.91.35,2.78-.39.51-.98.77-1.58.77h.01Z"/><path d="M322.81,621.78c-.27,0-.55-.05-.81-.17-1.01-.44-1.47-1.61-1.02-2.61l3.03-6.82c.44-1,1.63-1.45,2.63-1.01,1.01.44,1.47,1.61,1.02,2.61l-3.03,6.82c-.33.74-1.06,1.18-1.82,1.18Z"/><path class="cls-1" d="M358.52,633.21c-.2,0-.4-.02-.6-.09-1.05-.32-1.63-1.44-1.31-2.48,2.21-6.95.68-16.6.67-16.7-.17-1.08.56-2.09,1.65-2.27,1.14-.17,2.12.56,2.29,1.64.07.43,1.7,10.67-.8,18.52-.26.84-1.04,1.39-1.89,1.39Z"/><path d="M322.76,592.35s3.48-46.58-.4-88.98c-1.74-19-2.63-32.71-3.07-42.08-.5-10.36,2.47-20.57,8.48-29.06l28.16-39.79c.38-.53-.18-1.21-.78-.95-8.38,3.65-40.29,16.47-72.99,15.87l-27.47,3.04c-.51.05-.8.58-.56,1.04,1.8,3.31,7.46,15.57,5.37,35.7-2.47,23.83-7.93,42.57-8.73,74.46,0,0-15.87,13.66-32.09-1.05,0,0,1.06-75.68,0-105.82-1.06-30.13-.7-37.14,22.93-51.5,23.63-14.36,77.58-19.97,102.62-20.32,25.04-.35,69.83,15.77,69.83,15.77l17.63,11.91s15.87,35.74-32.09,64.83c0,0-27.94,21.32-38.61,29.38-.31.23-.39.62-.18.96,1.56,2.54,7.71,14.17,7.4,38.35-.35,27.69-8.47,49.06-10.94,77.79l-.71,9.82s-13.36,10.84-33.81.69v-.03Z"/><path d="M340.01,598.71c-5.15,0-11.27-1.17-18.14-4.59-.73-.37-1.16-1.12-1.1-1.91.03-.47,3.41-46.92-.4-88.66-1.48-16.17-2.52-30.35-3.08-42.15-.52-10.74,2.61-21.51,8.83-30.3l25.46-35.99c-12.57,5.04-40.57,14.84-69.48,14.22l-25.39,2.82c2.34,4.99,6.64,17.01,4.77,35.18-.9,8.62-2.16,16.43-3.49,24.69-2.33,14.41-4.73,29.32-5.23,49.61-.01.56-.26,1.08-.69,1.44-.16.16-17.41,14.64-34.74-1.08-.42-.39-.65-.92-.65-1.49,0-.75,1.05-75.98,0-105.72-1.07-30.7-.4-38.5,23.88-53.27,23.5-14.3,76.04-20.23,103.63-20.61h.85c25.24,0,67.87,15.23,69.69,15.88l18.08,12.14c.3.21.55.49.7.83.17.38,16.01,37.67-32.87,67.31,0,0-26.35,20.13-37.56,28.59,2.31,4.21,7.41,16.09,7.12,38.41-.2,15.66-2.81,29.08-5.57,43.28-2.1,10.86-4.29,22.09-5.37,34.65l-.7,9.79c-.04.54-.3,1.05-.73,1.39-.39.33-6.97,5.51-17.81,5.51v.02ZM324.84,591.16c15.95,7.38,27.05,1.27,29.8-.55l.64-8.88c1.1-12.79,3.29-24.11,5.42-35.09,2.72-14.02,5.29-27.27,5.5-42.58.3-23.95-5.88-35.27-7.11-37.3-.74-1.21-.44-2.7.68-3.56,10.66-8.05,38.59-29.37,38.59-29.37,43.09-26.14,33.28-57.65,31.68-61.96l-17.12-11.57c-.17,0-44.32-15.69-68.68-15.43-22.93.32-77.94,5.64-101.62,20.04-22.51,13.69-23.02,19.76-21.97,49.75.98,28.06.13,96.33,0,105.01,12.83,11.01,25.13,3.18,28.13.96.56-20.07,2.94-34.89,5.25-49.22,1.33-8.21,2.57-15.96,3.46-24.47,2.02-19.57-3.42-31.4-5.15-34.56-.43-.78-.45-1.73-.03-2.51.42-.8,1.22-1.34,2.12-1.43l27.47-3.04c32.35.6,63.6-11.88,72.42-15.71,1.09-.47,2.33-.18,3.09.74.76.92.81,2.18.13,3.16l-28.18,39.8c-5.71,8.08-8.6,17.96-8.12,27.83.56,11.75,1.59,25.88,3.07,41.99,3.49,38.07,1.02,79.98.5,87.97v-.03Z"/><path class="cls-2" d="M354.13,225.51s-.48,1.36-1.25,3.71c-5.89,17.89-9.33,36.49-10.4,55.3l-.29,5.09c-.03.53-.38.97-.9,1.1-3.32.79-12.01,4.19-22.15,11.1-9.27,6.31-33.59,28.39-33.59,28.39l30.15,12.7,65.86-33.99,11.9-44.15-16.98-26.28-15.55-15.51-6.77,2.55h-.03Z"/><path d="M315.66,344.86c-.26,0-.52-.05-.78-.16l-30.15-12.7c-.63-.26-1.07-.83-1.19-1.49-.1-.66.12-1.34.63-1.79.99-.91,24.53-22.24,33.8-28.55,10.05-6.84,18.59-10.25,22.23-11.25l.26-4.53c1.1-19.19,4.63-37.97,10.5-55.8.78-2.38,1.27-3.75,1.27-3.75.2-.56.63-.99,1.18-1.19l6.78-2.53c.73-.26,1.57-.09,2.12.46l15.55,15.51,17.25,26.61c.3.47.39,1.04.25,1.58l-11.91,44.15c-.14.53-.51.99-1.01,1.25l-65.86,33.98c-.29.14-.6.22-.93.22h.01ZM289.16,329.56l26.43,11.12,64.25-33.14,11.45-42.47-16.51-25.54-14.38-14.27-4.7,1.75c-.21.62-.54,1.58-.94,2.8-5.76,17.49-9.24,35.93-10.31,54.79l-.29,5.09c-.07,1.42-1.05,2.6-2.44,2.91-3.48.83-12.06,4.4-21.49,10.82-7.39,5.03-24.79,20.51-31.08,26.13h.01Z"/><path class="cls-4" d="M371.12,237.41c-1.06.87-11.71-6.13-19.6-14.54,0,0,14.78-45.74,37.12-47.22,22.34-1.49,8.54,22.13,8.54,22.13l-26.05,39.63Z"/><path d="M371.07,239.36c-5.05,0-17.65-11.56-21-15.13-.5-.52-.67-1.27-.43-1.96.62-1.92,15.46-47.04,38.87-48.6,6.61-.47,11.1,1.16,13.34,4.77,4.48,7.17-2.18,19.01-2.95,20.34l-26.1,39.71c-.1.17-.23.31-.39.44-.35.29-.81.41-1.35.41h.01ZM353.79,222.38c6.34,6.52,13.69,11.58,16.39,12.84l25.32-38.52c1.71-2.95,5.71-11.79,2.97-16.18-1.41-2.26-4.71-3.21-9.69-2.9-18.9,1.26-32.58,37.88-34.99,44.75Z"/><path class="cls-4" d="M391.05,177.24s-17.63,5.74-21.33,36.75c-3.7,31.01-18.34,97.02-33.42,119.08,0,0-7.93,12.61,14.02,19.97,21.96,7.36,37,9.22,58.1,26.45,20.9,17.08,32.45,23.74,36.41,2.46,3.97-21.29,18.95-71.75,27.94-90.93,8.99-19.18,13.49-85.97,13.49-85.97,0,0-11.46-17.23-42.32-29.4-20.57-8.11-52.89,1.58-52.89,1.58Z"/><path d="M434.96,397.3c-6.55,0-15.2-5.95-27.83-16.27-16.55-13.53-29.07-17.34-44.91-22.15-3.97-1.21-8.12-2.47-12.55-3.96-8.76-2.93-14.16-7.09-16.05-12.36-2.02-5.66.85-10.35.97-10.54,15.13-22.16,29.6-88.76,33.13-118.27,3.81-31.89,21.93-38.15,22.69-38.4h.04c1.35-.4,33.24-9.79,54.21-1.52,31.08,12.27,42.77,29.43,43.25,30.16.24.36.35.79.33,1.22-.18,2.74-4.63,67.37-13.68,86.67-8.76,18.71-23.81,69.1-27.79,90.46-1.54,8.29-4.26,12.88-8.56,14.43-1.03.38-2.12.56-3.27.56h.01ZM391.66,179.12c-.95.32-16.51,6.17-19.97,35.1-3.55,29.84-18.3,97.36-33.75,119.97-.03.06-1.95,3.27-.54,7.1,1.46,3.99,6.14,7.4,13.55,9.88,4.39,1.47,8.51,2.73,12.44,3.92,15.62,4.75,29.12,8.86,46.28,22.88,10.68,8.73,21.59,17.12,27.19,15.05,2.8-1.01,4.76-4.75,6-11.43,4.03-21.57,19.22-72.48,28.1-91.41,8.25-17.6,12.74-77.36,13.27-84.55-2.2-2.92-14.17-17.54-41.01-28.14-19.41-7.65-50.38,1.29-51.56,1.62Z"/><path class="cls-2" d="M422.34,174.35c-8.63,6.43-21.83,6.99-28.83,6.77-2.89-.09-5.57-1.7-6.9-4.26-17.93-34.41-6.76-64.89-6.76-64.89l46.29-4.67,10.39,15c2.89,4.17,3.96,9.33,2.81,14.26-1.11,4.82-1.01,12.47,4.71,23.02,16.01,29.56,8.39,36-13.34,53.04-15.44,12.1-41.2,2.78-24.42-32.23l16.04-6.04h.01Z"/><path d="M416.76,219.62c-4.2,0-8.18-1.23-11.33-3.73-3.8-3.01-11.32-12.13-2.39-33.11-3.66.36-7.03.38-9.58.3-3.66-.12-6.95-2.16-8.6-5.32-18.13-34.78-7.33-65.2-6.86-66.48.26-.71.92-1.22,1.67-1.29l46.31-4.67c.69-.09,1.42.25,1.84.84l10.39,15c3.23,4.66,4.36,10.43,3.11,15.82-.98,4.25-.99,11.45,4.52,21.63,16.99,31.34,7.32,38.92-13.87,55.53-4.6,3.61-10.06,5.45-15.2,5.45v.03ZM407.66,182.17c-6.56,14.17-6.5,25.3.25,30.63,5.58,4.42,14.67,3.68,21.58-1.75,21.11-16.56,28.22-22.14,12.83-50.55-6.1-11.27-6.04-19.49-4.9-24.4,1-4.31.08-8.94-2.52-12.69l-9.72-14.04-43.82,4.43c-1.74,5.82-8.34,32.66,7.02,62.14.98,1.9,2.98,3.12,5.2,3.19,3.16.1,7.59.04,12.23-.66.12-.03.25-.05.38-.05,5.24-.83,10.72-2.48,14.95-5.65.86-.65,2.12-.48,2.78.4.67.87.48,2.12-.4,2.78-4.59,3.43-10.35,5.27-15.87,6.23h.01Z"/><path d="M443.12,90.14h0c-9.72-8.2-37.85-5.86-47.7-.54-14.73-2.1-22.6-2.74-24.63,11.55-3.15,22.17,5.62,23.25,5.62,23.25,7.22,3.6,14.94,3.74,23.13,3.42,3.26-.13,6.56.48,9.36,2.13,2.56,1.52,5.19,4.03,6.45,8.14.67,2.19,2.63,3.75,4.93,3.58l7.49-.52,7.54-2.25c1.28,1.83,2.09,3.64,2.09,5.29v7.91s18.58-9.38,17.73-32.26c.86-11.08-1.32-20.65-12.01-29.7Z"/><path d="M426.53,160.04c-.95,0-1.79-.68-1.96-1.62-.19-1.08.52-2.1,1.61-2.3,3.74-.69,7.03-2.91,9.02-6.12,2.05-3.33,2.93-6.26,2.54-8.49-.33-1.83-1.09-2.88-2.25-3.13-1.75-.35-4.1.91-5.45,2.9l-2.55,3.93c-.59.92-1.83,1.2-2.74.6-.93-.6-1.19-1.82-.6-2.74l2.57-3.97c2.29-3.36,6.29-5.29,9.59-4.59,1.63.34,4.5,1.63,5.33,6.3.59,3.25-.43,7.05-3.06,11.27-2.59,4.16-6.85,7.04-11.7,7.92-.12.03-.24.04-.35.04Z"/><path d="M389.39,163.11c-.54,0-1.25-.21-1.64-.49-.52-.4-.86-.99-.94-1.65-.47-3.88.12-12.66.13-13.03.08-1.09,1.1-1.86,2.13-1.84,1.1.08,1.92,1.01,1.86,2.1,0,.08-.44,6.68-.27,10.7,1.4-.29,3.33-.8,4.82-1.67.94-.56,2.17-.25,2.73.7.56.93.23,2.16-.7,2.72-2.82,1.66-6.48,2.27-7.92,2.47-.07,0-.13.01-.2.01h0Z"/><path d="M402.55,144.5c.25,3.14-1.2,5.81-3.24,5.96-2.04.16-3.88-2.26-4.13-5.4-.25-3.14,1.22-5.81,3.24-5.96,2.04-.16,3.88,2.26,4.13,5.4Z"/><path d="M383.47,145.21c.25,3.14-1.2,5.81-3.24,5.96-2.04.16-3.88-2.26-4.13-5.4-.25-3.14,1.21-5.81,3.24-5.96,2.04-.16,3.88,2.26,4.13,5.4Z"/><path d="M394.21,171.66c-1.07,0-1.79-.14-1.87-.16-1.07-.22-1.76-1.27-1.54-2.35.22-1.07,1.29-1.75,2.35-1.53.13.03,3.23.6,5.84-1.57.84-.7,2.09-.58,2.8.26.7.84.59,2.09-.26,2.79-2.59,2.14-5.49,2.57-7.32,2.57h0Z"/><path class="cls-4" d="M420.21,217.6l6.72,11.09c.47.78,1.47,1.07,2.26.62,4.31-2.38,17.4-10.21,25.38-21.49,9.66-13.66,13.55-31.19-5.14-41.53,0,0,1.36,14.55-5.16,25.75-6.52,11.2-24.06,25.56-24.06,25.56Z"/><path d="M428.38,231.49c-1.25,0-2.47-.63-3.16-1.79l-6.72-11.08c-.51-.84-.33-1.92.44-2.55.17-.14,17.35-14.24,23.59-25.01,6.12-10.52,4.91-24.45,4.9-24.58-.07-.73.27-1.44.9-1.84.63-.4,1.41-.43,2.05-.07,7.5,4.14,12.09,9.67,13.66,16.45,1.88,8.19-.89,18.12-7.84,27.93-8.05,11.39-20.88,19.25-26.03,22.09-.56.31-1.18.46-1.78.46h-.01ZM422.78,218.03l5.84,9.64c3.42-2.21,16.52-9.96,24.31-20.99,6.29-8.9,8.85-17.7,7.22-24.78-1.07-4.67-3.97-8.69-8.61-11.95-.03,5.25-.8,14.93-5.55,23.1-5.65,9.7-18.94,21.38-23.2,24.98h0Z"/><path class="cls-4" d="M392.71,212.95c2.02-1.09,6.39-3.26,9.89-3.75,0,0-3.75-17.87,5.23-29.08,0,0-7.32,2.02-13.54,1.4,0,0-8.31,13.84-3.15,30.78.2.64.95.96,1.56.65h.01Z"/><path d="M392.21,215.06c-.39,0-.8-.08-1.17-.23-.86-.35-1.52-1.07-1.78-1.95-5.36-17.57,2.98-31.78,3.34-32.37.4-.66,1.16-1.01,1.91-.95,5.76.58,12.73-1.31,12.81-1.34.84-.23,1.72.1,2.19.82.48.71.43,1.65-.1,2.32-8.3,10.36-4.87,27.27-4.83,27.44.1.53,0,1.09-.33,1.55-.31.46-.8.74-1.36.82-3.27.46-7.54,2.62-9.21,3.53-.46.25-.94.36-1.45.36h-.01ZM395.47,183.6c-1.65,3.35-6.18,14.26-2.69,27.09,1.97-1.01,4.82-2.32,7.57-3.04-.63-4.43-1.51-15.45,3.27-24.61-2.35.38-5.25.7-8.13.56h-.01Z"/><path d="M396.5,250.09h-.24c-1.1-.13-1.87-1.12-1.75-2.19,2.16-18.09,8.6-34.8,8.87-35.5.41-1.03,1.54-1.53,2.59-1.13,1.02.39,1.54,1.55,1.14,2.56-.07.17-6.55,16.97-8.64,34.54-.12,1.01-.98,1.74-1.97,1.74h0Z"/><path d="M413.92,231.91c0,1.83-1.49,3.31-3.33,3.31s-3.33-1.48-3.33-3.31,1.49-3.31,3.33-3.31,3.33,1.48,3.33,3.31Z"/><path d="M408.6,246.08c1.84,0,3.33-1.48,3.33-3.31s-1.49-3.31-3.33-3.31-3.33,1.48-3.33,3.31,1.49,3.31,3.33,3.31Z"/><path class="cls-2" d="M267.45,347.87l99.3,56.97c.21.12.46.12.65,0l68.2-40.36c.42-.25.42-.86,0-1.1l-98.55-57.71c-.21-.12-.46-.12-.67,0l-68.94,41.1c-.42.25-.42.87,0,1.12h0Z"/><path d="M367.07,406.91c-.46,0-.92-.12-1.32-.35l-99.3-56.96c-.81-.47-1.31-1.32-1.32-2.26,0-.92.5-1.81,1.29-2.27l68.93-41.09c.81-.49,1.86-.51,2.71,0l98.55,57.71c.8.47,1.31,1.32,1.31,2.26s-.51,1.79-1.31,2.26l-68.17,40.35c-.42.25-.88.36-1.35.36h-.01ZM270.42,347.3l96.64,55.44,65.56-38.8-95.9-56.15-66.29,39.53h0Z"/><path d="M372.78,387.02c-.68,0-1.33-.34-1.71-.96-.56-.93-.25-2.16.69-2.72l33.93-20.17-21.59-12.58c-.94-.56-1.27-1.77-.71-2.72.55-.95,1.78-1.24,2.73-.7l23.08,13.47c.9.53,1.45,1.48,1.45,2.53s-.54,1.99-1.44,2.53l-35.42,21.04c-.33.2-.68.29-1.02.29h0Z"/><path class="cls-2" d="M459.38,271.23s-4.33,12.64-6.76,33.12c-1.99,16.72-1.8,31.28-1.8,31.56-.3-.05-21.72-3.97-40.24,1.74-18.65,5.75-43.85,2.95-43.85,2.95,0,0-12.9-9.48-18.53-8.95-5.65.53-2.82,5.99-2.82,5.99,0,0-26.81,9.1-16.92,17.6,9.88,8.49,38.28,2.94,38.28,2.94,0,0,66.6,7.16,101.87,2.14,1.52-.22,2.81-1.13,3.53-2.48,3.89-7.26,18.28-34.24,22.45-83.05,4.98-58.39-35.3-9.87-35.3-9.87l.09,6.31h.01Z"/><path d="M436.68,364.07c-31.64,0-66.28-3.5-69.85-3.88-3.28.61-29.63,5.18-39.68-3.44-2.86-2.47-3.09-4.97-2.76-6.65,1.27-6.51,13.54-11.76,18.48-13.65-.26-1.19-.34-2.72.42-4.1.59-1.06,1.88-2.39,4.72-2.66,5.87-.43,16.83,7.1,19.47,9,3.66.35,25.92,2.19,42.52-2.94,15.41-4.75,32.65-3.03,38.83-2.17.03-4.88.27-16.58,1.82-29.48,2.25-18.88,6.03-31.02,6.73-33.19l-.08-5.97c0-.47.15-.92.46-1.29,2.01-2.43,20.05-23.58,31.37-18.96,6.53,2.64,8.96,12.54,7.46,30.27-1.92,22.55-7.42,55.39-22.68,83.81-1.03,1.92-2.85,3.19-5.01,3.5-9.18,1.31-20.48,1.78-32.2,1.78h-.03ZM366.74,356.21h.21c.67.08,66.77,7.07,101.35,2.14.89-.13,1.64-.65,2.07-1.45,14.94-27.83,20.34-60.11,22.23-82.28,1.74-20.39-2.38-25.21-4.99-26.26-6.4-2.6-19.32,8.99-26.32,17.26l.08,5.57c0,.22-.04.46-.1.66-.04.13-4.29,12.71-6.67,32.71-2,16.77-1.79,31.13-1.79,31.26.01.6-.23,1.18-.7,1.57-.46.39-1.05.56-1.66.45-.2-.04-21.21-3.88-39.28,1.69-18.85,5.82-43.6,3.14-44.66,3.03-.35-.04-.68-.17-.97-.38-4.61-3.39-13.08-8.58-16.83-8.58-.1,0-.22,0-.33.01-.85.08-1.42.31-1.61.62-.3.54.01,1.8.37,2.51.26.51.28,1.12.07,1.63-.22.53-.65.95-1.2,1.13-6.9,2.35-16.95,7.41-17.72,11.32-.12.61-.09,1.56,1.45,2.89,7.49,6.44,28.96,3.99,36.61,2.49.12-.03.25-.04.38-.04l.03.02Z"/><path class="cls-4" d="M455.82,271.23c-2.24-2.77-3.23-6.31-3.11-9.84.47-13.5,3.31-55.07,20.68-62.68,20.81-9.1,27.86,52.93,26.81,68.52-1.06,15.58-36.23,8.36-40.78,6.82-1.37-.47-2.59-1.56-3.59-2.8Z"/><path d="M481.44,279.02c-10.23,0-20.79-2.47-22.68-3.1-1.57-.53-3.09-1.69-4.5-3.43-2.43-3.01-3.68-6.97-3.54-11.15.58-16.74,3.84-56.54,21.87-64.42,3.92-1.73,7.81-1.36,11.27,1.04,15.17,10.57,19.08,58.32,18.34,69.41-.23,3.47-1.87,6.23-4.87,8.21-3.94,2.6-9.84,3.45-15.88,3.45ZM457.38,270c.91,1.13,1.84,1.88,2.68,2.17,3.93,1.34,26.44,5.78,35.05.09,1.93-1.29,2.94-2.97,3.1-5.18.85-12.51-3.86-57-16.64-65.92-2.34-1.63-4.68-1.83-7.37-.66-13.03,5.71-18.61,35.22-19.49,60.94-.1,3.23.84,6.27,2.67,8.53v.03Z"/><path d="M460.14,353.36c-1.41,0-2.46-.25-2.68-.31-1.06-.27-1.7-1.35-1.42-2.41.27-1.05,1.36-1.71,2.42-1.41.1.02,2.64.6,4.46-.49.92-.56,1.52-1.47,1.83-2.78.26-1.05,1.32-1.71,2.41-1.47,1.07.26,1.74,1.32,1.48,2.39-.57,2.38-1.8,4.16-3.67,5.26-1.63.97-3.4,1.23-4.82,1.23h.01Z"/><path class="cls-1" d="M366.71,404.21l-33.76-76.67s-.07-.1-.12-.13l-102.02-60.14c-.25-.14-.54.12-.42.38l36.06,79.6s.07.1.12.13l99.72,57.2c.25.14.54-.12.42-.38Z"/><path d="M366.37,406.55c-.39,0-.78-.08-1.09-.25l-99.72-57.2c-.35-.21-.76-.63-.93-1l-36.07-79.65c-.35-.78-.09-2.04.54-2.61.75-.67,1.82-.78,2.69-.29l102.04,60.15c.4.24.84.77.98,1.21l33.69,76.5h.01c.33.82.04,2.05-.6,2.62-.38.34-.99.52-1.58.52h.04ZM268.05,345.94l94.77,54.36-31.49-71.49-96.94-57.14,33.64,74.27h.01Z"/><path class="cls-2" d="M292.97,341.15c4.26,5.38,9.71,8.18,12.18,6.26,2.46-1.92.99-7.84-3.27-13.22-4.26-5.38-9.71-8.18-12.17-6.26-2.46,1.92-.99,7.85,3.27,13.22h-.01Z"/><path d="M303.21,349.99c-1.32,0-2.81-.4-4.38-1.22-2.55-1.31-5.18-3.58-7.41-6.4-2.23-2.82-3.84-5.9-4.53-8.66-.82-3.3-.25-5.91,1.59-7.34,1.84-1.44,4.54-1.38,7.55.18,2.55,1.31,5.19,3.58,7.41,6.4,5.11,6.44,6.38,13.31,2.94,16-.89.69-1.96,1.04-3.18,1.04ZM291.65,329.29c-.33,0-.58.07-.72.18-.42.32-.64,1.47-.18,3.29.55,2.19,1.92,4.8,3.79,7.16,1.86,2.35,4.09,4.3,6.12,5.32,1.69.87,2.85.92,3.27.6,1.02-.79.42-5.37-3.61-10.44-1.86-2.35-4.09-4.28-6.12-5.32-1.07-.56-1.95-.78-2.55-.78Z"/><path d="M384.16,164.79l-2.24,1.5,8.25,14.89,18.43-.8,16.04-6.04,16.26-22.26,2.73-15.1-21.04,4.69s-4.36,4.43-8.65,17.41c-.75,2.28-8.01,4.04-8.01,4.04l-2.88-.94c-6.36-2.07-13.31-1.11-18.87,2.61Z"/><path class="cls-2" d="M426.53,158.06c4.3-.79,8.06-3.33,10.35-7.01,1.84-2.96,3.4-6.6,2.8-9.88-1.28-7.1-8.3-5.4-11.29-1l-2.57,3.97s-2.03,2.99-3.03,5.61c-1.05,2.75,0,9.85,0,9.85l3.75-1.54Z"/><path class="cls-2" d="M394.21,171.66c-1.07,0-1.79-.14-1.87-.16-1.07-.22-1.76-1.27-1.54-2.35.22-1.07,1.29-1.75,2.35-1.53.13.03,3.23.6,5.84-1.57.84-.7,2.09-.58,2.8.26.7.84.59,2.09-.26,2.79-2.59,2.14-5.49,2.57-7.32,2.57h0Z"/></svg>