<?xml version="1.0" encoding="UTF-8"?><svg id="Layer_1" xmlns="http://www.w3.org/2000/svg" viewBox="0 0 720 720"><defs><style>.cls-1{fill:#fff;}.cls-1,.cls-2,.cls-3,.cls-4{fill-rule:evenodd;}.cls-2{fill:#f4d9dc;}.cls-4{fill:#3d68ec;}</style></defs><g id="website"><g id="Hubs"><g id="Group-154"><path id="Fill-1" class="cls-4" d="M125.26,488.39l-12-8.11c-1.95-3.24-2.27-6.16-2.27-9.73v-193.05c.32-13.3,8.76-27.9,20.12-35.04L403.32,85.41c4.54-2.6,9.41-3.89,14.28-1.3l12,8.11c-4.87-2.6-9.73-.97-14.28,1.3L143.1,250.56c-11.36,6.81-19.79,21.74-20.12,35.04v193.05c0,3.57.32,6.49,2.27,9.73"/><g id="Group-5"><path id="Fill-3" class="cls-3" d="M125.26,492.28c-.65,0-1.62,0-2.27-.65l-12-8.11c-.65,0-.97-.65-1.3-1.3-1.95-4.22-2.6-7.79-2.6-11.68v-193.05c.32-14.92,9.41-30.5,22.06-38.29L401.37,82.17c4.54-2.27,11.03-5.19,18.17-1.3l12.33,8.44c1.62,1.3,2.27,3.57,1.3,5.19-.97,1.62-3.24,2.27-5.19,1.3-2.92-1.62-6.16-1.3-10.71,1.3L145.05,253.81c-10.38,6.16-18.17,19.47-18.17,31.8v193.05c0,2.92,0,5.19,1.95,7.79.97,1.62.65,3.57-.65,4.87-.65.65-1.62.97-2.6.97M116.5,477.36l2.6,1.95v-193.7c.32-14.6,9.73-30.82,22.06-38.29L413.05,90.28c.97-.65,2.27-1.3,3.89-1.62l-1.62-.97c-2.6-1.3-5.52-.97-10.06,1.62L133.05,245.7c-10.38,6.16-17.85,19.47-18.17,31.8v193.05c0,2.6,0,4.87,1.3,7.14"/></g><path id="Fill-6" class="cls-4" d="M143.1,250.56L415,93.53c11.03-6.49,20.12-1.3,20.12,11.68v193.05c0,12.65-9.08,28.55-20.12,35.04l-271.89,157.04c-11.03,6.49-20.12,1.3-20.12-11.68v-193.05c0-12.65,9.08-28.55,20.12-35.04"/><path id="Fill-8" class="cls-3" d="M134.02,496.82c-2.6,0-5.19-.65-7.14-1.95-5.19-2.92-7.79-8.76-7.79-16.55v-193.05c0-13.95,10.06-31.15,22.06-38.29L413.05,90.28c6.49-3.89,12.98-4.22,18.17-1.3,5.19,2.92,7.79,8.76,7.79,16.55v193.05c0,14.28-9.73,31.15-22.06,38.29l-271.89,156.71c-3.89,2.27-7.46,3.24-11.03,3.24h0ZM424.08,94.82c-1.95,0-4.54.65-7.14,2.27L145.05,253.81c-10.06,5.84-18.17,20.12-18.17,31.47v193.05c0,4.54,1.3,8.11,3.89,9.73,2.6,1.3,6.16.97,10.38-1.3l271.89-157.04c9.73-5.84,18.17-20.12,18.17-31.47V105.21c0-4.54-1.3-8.11-3.89-9.73-.97-.65-1.95-.97-3.24-.97h0v.32Z"/><path id="Fill-10" class="cls-2" d="M144.4,265.16l71.7-41.21,197.92-114.53c5.19-2.92,9.08-.65,9.08,5.19v187.86c0,5.84-4.22,12.98-9.41,15.9l-223.23,129.13-46.07,26.61c-5.19,2.92-9.08.65-9.08-5.19v-187.86c0-5.84,4.22-12.98,9.41-15.9"/><path id="Fill-12" class="cls-4" d="M622,449.13v14.6c-1.3,4.54-4.22,7.14-8.11,9.41l-273.19,157.69c-6.16,3.24-12,4.54-18.82,4.87-7.79,0-14.92-.97-21.74-4.87l-167.74-97.01c-3.89-2.27-6.81-4.87-8.11-9.41v-14.6c1.3,4.54,4.22,7.14,8.11,9.41l167.74,97.01c6.81,3.89,13.95,4.87,21.74,4.87,6.81,0,12.98-1.62,18.82-4.87l273.19-157.69c3.89-2.27,6.81-4.87,8.11-9.41"/><path id="Fill-14" class="cls-3" d="M321.23,639.58c-9.08,0-16.22-1.62-22.71-5.19l-167.74-97.01c-3.89-2.27-8.11-5.52-9.73-11.68v-15.57c0-1.95,1.3-3.57,3.24-3.89,1.95,0,3.89.97,4.22,2.92.97,2.92,2.6,4.87,6.49,7.14l167.74,97.01c5.52,2.92,11.68,4.54,19.79,4.22,6.81,0,12-1.62,16.87-4.22l272.87-157.69c3.57-2.27,5.52-4.22,6.16-7.14.65-1.95,2.6-2.92,4.22-2.92,1.95,0,3.24,1.95,3.24,3.89v15.57c-1.62,6.16-5.84,9.08-9.73,11.68l-273.19,157.69c-6.16,3.24-12.33,4.87-20.77,5.19h-.97,0ZM128.5,524.08c.97,2.6,2.6,4.54,6.16,6.49l167.74,97.01c5.52,2.92,11.68,4.22,19.79,4.22,6.81,0,12-1.62,16.87-4.22l272.87-157.69c3.57-2.27,5.19-3.89,6.16-6.49v-2.92c-.65.65-1.3.97-2.27,1.3l-273.19,157.69c-6.16,3.24-12.33,4.87-20.77,5.19-9.73,0-16.87-1.62-23.69-5.19l-167.74-97.01c-.65-.32-1.62-.97-2.27-1.3v2.92h.32Z"/><path id="Fill-16" class="cls-4" d="M132.72,495.85l273.19-157.69c11.03-6.49,29.53-6.49,40.56,0l167.74,97.01c11.03,6.49,11.03,16.87,0,23.36l-273.19,157.69c-11.03,6.49-29.2,6.49-40.56,0l-167.74-97.01c-11.03-6.49-11.03-16.87,0-23.36"/><path id="Fill-18" class="cls-3" d="M320.58,624.98c-8.11,0-16.22-1.95-22.06-5.19l-167.74-97.01c-6.49-3.89-10.38-9.08-10.38-14.92s3.57-11.36,10.38-14.92l273.19-157.69c12.33-7.14,32.12-7.14,44.45,0l167.74,97.01c6.49,3.89,10.38,9.08,10.38,14.92s-3.57,11.36-10.38,14.92l-273.19,157.69c-6.16,3.57-14.28,5.19-22.06,5.19h-.32ZM134.67,499.1c-4.22,2.27-6.49,5.52-6.49,8.44s2.27,5.84,6.49,8.44l167.74,97.01c10.06,5.84,26.61,5.84,36.66,0l273.19-157.69c4.22-2.27,6.49-5.52,6.49-8.44s-2.27-5.84-6.49-8.44l-167.74-97.01c-9.73-5.84-26.61-5.84-36.66,0l-273.19,157.69Z"/><polygon id="Fill-20" class="cls-2" points="426.35 551.01 500.98 507.86 443.87 474.76 369.25 517.91 426.35 551.01"/><path id="Fill-22" class="cls-3" d="M426.35,554.9c-.65,0-1.3,0-1.95-.65l-57.1-33.09c-1.3-.65-1.95-1.95-1.95-3.24s.65-2.6,1.95-3.24l74.62-43.15c1.3-.65,2.6-.65,3.89,0l57.1,33.09c1.3.65,1.95,1.95,1.95,3.24s-.65,2.6-1.95,3.24l-74.62,43.15c-.65.32-1.3.65-1.95.65h0ZM376.71,517.91l49.32,28.55,66.84-38.61-49.32-28.55-66.84,38.61Z"/><path id="Fill-24" class="cls-2" d="M166.79,501.37c82.74-47.69,165.47-95.71,248.21-143.41,5.84-3.57,15.57-3.57,21.74,0l84.68,48.99c5.84,3.57,5.84,9.08,0,12.65-82.74,47.69-165.47,95.71-248.21,143.41-5.84,3.57-15.57,3.57-21.74,0l-84.68-48.99c-5.84-3.57-5.84-9.08,0-12.65"/><path id="Fill-26" class="cls-3" d="M262.5,569.18c-4.54,0-9.08-.97-12.65-3.24l-84.68-48.99c-4.22-2.27-6.49-5.84-6.49-9.73s2.27-7.14,6.49-9.73l248.21-143.41c7.14-4.22,18.49-4.22,25.63,0l84.68,48.99c3.89,2.27,6.49,5.84,6.49,9.73s-2.27,7.14-6.49,9.73l-248.21,143.41c-3.57,1.95-8.11,3.24-12.65,3.24h-.32ZM166.79,501.37l1.95,3.24c-1.62.97-2.6,1.95-2.6,2.92s.97,1.95,2.6,2.92l84.68,48.99c4.54,2.6,12.98,2.6,17.85,0l248.21-143.41c1.62-.97,2.6-1.95,2.6-2.92s-.97-1.95-2.6-2.92l-84.68-48.99c-4.54-2.6-12.98-2.6-17.85,0l-248.21,143.41-1.95-3.24Z"/><path id="Fill-28" class="cls-1" d="M275.81,487.42l12.33-7.14c2.6-1.3,6.49-1.3,9.08,0l12.33,7.14c2.6,1.3,2.6,3.89,0,5.19l-12.33,7.14c-2.6,1.3-6.49,1.3-8.76,0l-12.33-7.14c-2.6-1.3-2.6-3.89,0-5.19"/><path id="Fill-30" class="cls-3" d="M292.68,504.61c-2.27,0-4.54-.65-6.49-1.62l-12.33-7.14c-2.27-1.3-3.89-3.57-3.89-5.84s1.3-4.54,3.89-5.84l12.33-7.14c3.57-2.27,9.08-2.27,12.65,0l12.33,7.14c2.27,1.3,3.89,3.57,3.89,5.84s-1.3,4.54-3.89,5.84l-12.33,7.14c-1.95.97-4.22,1.62-6.49,1.62h.32ZM279.05,490.01l10.71,6.16c1.3.65,3.89.65,4.87,0l10.71-6.16-10.71-6.16c-1.3-.65-3.89-.65-4.87,0l-10.71,6.16Z"/><path id="Fill-32" class="cls-1" d="M228.11,515.32l-12,7.14c-2.6,1.3-2.6,3.89,0,5.19l12.33,7.14c2.6,1.3,6.49,1.3,9.08,0l12.33-7.14c2.6-1.3,2.6-3.89,0-5.19l-12.33-7.14c-2.6-1.3-6.49-1.3-9.08,0"/><path id="Fill-34" class="cls-3" d="M232.33,539.33c-2.27,0-4.54-.65-6.49-1.62l-12.33-7.14c-2.27-1.3-3.89-3.57-3.89-5.84s1.3-4.54,3.89-5.84l12.33-7.14c3.57-2.27,9.08-2.27,12.98,0l12.33,7.14c2.27,1.3,3.89,3.57,3.89,5.84s-1.3,4.54-3.89,5.84l-12.33,7.14c-1.95.97-4.22,1.62-6.49,1.62h0ZM219.03,524.73l10.71,6.16c1.3.65,3.89.65,4.87,0l10.71-6.16-10.71-6.16c-1.3-.65-3.89-.65-4.87,0l-10.71,6.16Z"/><path id="Fill-36" class="cls-1" d="M257.96,532.51l-12.33,7.14c-2.6,1.3-2.6,3.89,0,5.19l12.33,7.14c2.6,1.3,6.49,1.3,8.76,0l12.33-7.14c2.6-1.3,2.6-3.89,0-5.19l-12.33-7.14c-2.6-1.3-6.49-1.3-9.08,0"/><path id="Fill-38" class="cls-3" d="M262.5,556.85c-2.27,0-4.54-.65-6.49-1.62l-12.33-7.14c-2.27-1.3-3.89-3.57-3.89-5.84s1.3-4.54,3.89-5.84l12.33-7.14c3.57-1.95,9.08-1.95,12.98,0l12.33,7.14c2.27,1.3,3.89,3.57,3.89,5.84s-1.3,4.54-3.89,5.84l-12.33,7.14c-1.95.97-4.22,1.62-6.49,1.62h0ZM249.2,542.25l10.71,6.16c1.3.65,3.89.65,5.19,0l10.71-6.16-10.71-6.16c-1.3-.65-3.89-.65-5.19,0l-10.71,6.16Z"/><path id="Fill-40" class="cls-1" d="M236.87,499.74l12.33-7.14c2.6-1.3,2.6-3.57,0-5.19l-12.33-7.14c-2.6-1.3-6.49-1.3-8.76,0l-12.33,7.14c-2.6,1.3-2.6,3.89,0,5.19l12,7.14c2.6,1.3,6.49,1.3,9.08,0"/><path id="Fill-42" class="cls-3" d="M232.33,504.61c-2.27,0-4.54-.65-6.49-1.62l-12.33-7.14c-2.27-1.3-3.89-3.57-3.89-5.84s1.3-4.54,3.89-5.84l12.33-7.14c3.57-1.95,9.08-1.95,12.65,0l12.33,7.14c2.27,1.3,3.89,3.57,3.89,5.84s-1.3,4.54-3.89,5.84l-12.33,7.14c-1.95.97-4.22,1.62-6.49,1.62h.32ZM219.03,490.01l10.71,6.16c1.3.65,3.89.65,4.87,0l10.71-6.16-10.71-6.16c-1.3-.65-3.89-.65-4.87,0l-10.71,6.16Z"/><path id="Fill-44" class="cls-1" d="M267.05,482.22l12.33-7.14c2.6-1.3,2.6-3.89,0-5.19l-12.33-7.14c-2.6-1.3-6.49-1.3-9.08,0l-12.33,7.14c-2.6,1.3-2.6,3.57,0,5.19l12.33,7.14c2.27,1.3,6.49,1.3,8.76,0"/><path id="Fill-46" class="cls-3" d="M262.5,487.42c-2.27,0-4.54-.65-6.49-1.62l-12.33-7.14c-2.27-1.3-3.89-3.57-3.89-5.84s1.3-4.54,3.89-5.84l12.33-7.14c3.57-2.27,9.08-2.27,12.98,0l12.33,7.14c2.27,1.3,3.89,3.57,3.89,5.84s-1.3,4.54-3.89,5.84l-12.33,7.14c-1.95.97-4.22,1.62-6.49,1.62h0ZM249.2,472.81l10.71,6.16c1.3.65,3.89.65,4.87,0l10.71-6.16-10.71-6.16c-1.3-.65-3.89-.65-5.19,0l-10.71,6.16h.32Z"/><path id="Fill-48" class="cls-1" d="M219.03,510.13l-12.33,7.14c-2.6,1.3-6.49,1.3-9.08,0l-12.33-7.14c-2.6-1.3-2.6-3.89,0-5.19l12.33-7.14c2.6-1.3,6.49-1.3,8.76,0l12.33,7.14c2.6,1.3,2.6,3.89,0,5.19"/><path id="Fill-50" class="cls-3" d="M202.48,522.13c-2.27,0-4.54-.65-6.49-1.62l-12.33-7.14c-2.27-1.3-3.89-3.57-3.89-5.84s1.3-4.54,3.89-5.84l12.33-7.14c3.57-2.27,9.08-2.27,12.65,0l12.33,7.14c2.27,1.3,3.89,3.57,3.89,5.84s-1.3,4.54-3.89,5.84l-12.33,7.14c-1.95.97-4.22,1.62-6.49,1.62h.32ZM189.18,507.53l10.71,6.16c1.3.65,3.89.65,4.87,0l10.71-6.16-10.71-6.16c-1.3-.65-3.89-.65-4.87,0l-10.71,6.16Z"/><path id="Fill-52" class="cls-1" d="M245.96,504.94l12.33-7.14c2.6-1.3,6.49-1.3,9.08,0l12.33,7.14c2.6,1.3,2.6,3.89,0,5.19l-12.33,7.14c-2.6,1.3-6.49,1.3-8.76,0l-12.33-7.14c-2.6-1.3-2.6-3.89,0-5.19"/><path id="Fill-54" class="cls-3" d="M262.5,522.13c-2.27,0-4.54-.65-6.49-1.62l-12.33-7.14c-2.27-1.3-3.89-3.57-3.89-5.84s1.3-4.54,3.89-5.84l12.33-7.14c3.57-1.95,9.08-2.27,12.65,0l12.33,7.14c2.27,1.3,3.89,3.57,3.89,5.84s-1.3,4.54-3.89,5.84l-12.33,7.14c-1.95.97-4.22,1.62-6.49,1.62h.32ZM249.2,507.53l10.71,6.16c1.3.65,3.89.65,5.19,0l10.71-6.16-10.71-6.16c-1.3-.65-3.89-.65-4.87,0l-10.71,6.16h-.32Z"/><path id="Fill-56" class="cls-1" d="M336.15,452.7l12.33-7.14c2.6-1.3,6.49-1.3,9.08,0l12.33,7.14c2.6,1.3,2.6,3.57,0,5.19l-12.33,7.14c-2.6,1.3-6.49,1.3-9.08,0l-12.33-7.14c-2.6-1.3-2.6-3.89,0-5.19"/><path id="Fill-58" class="cls-3" d="M352.7,469.89c-2.27,0-4.54-.65-6.49-1.62l-12.33-7.14c-2.27-1.3-3.89-3.57-3.89-5.84s1.3-4.54,3.89-5.84l12.33-7.14c3.57-2.27,9.08-2.27,12.98,0l12,7.14c2.27,1.3,3.89,3.57,3.89,5.84s-1.3,4.54-3.89,5.84l-12.33,7.14c-1.95.97-4.22,1.62-6.49,1.62h.32ZM339.4,455.29l10.71,6.16c1.3.65,3.89.65,4.87,0l10.71-6.16-10.71-6.16c-1.3-.65-3.89-.65-4.87,0l-10.71,6.16Z"/><path id="Fill-60" class="cls-1" d="M366,470.22l12.33-7.14c2.6-1.3,6.49-1.3,9.08,0l12.33,7.14c2.6,1.3,2.6,3.89,0,5.19l-12.33,7.14c-2.6,1.3-6.49,1.3-9.08,0l-12.33-7.14c-2.6-1.3-2.6-3.89,0-5.19"/><path id="Fill-62" class="cls-3" d="M382.88,487.42c-2.27,0-4.54-.65-6.49-1.62l-12-7.14c-2.27-1.3-3.89-3.57-3.89-5.84s1.3-4.54,3.89-5.84l12.33-7.14c3.57-1.95,9.08-1.95,12.98,0l12,7.14c2.6,1.3,3.89,3.57,3.89,5.84s-1.3,4.54-3.89,5.84l-12.33,7.14c-1.95.97-4.22,1.62-6.49,1.62h0ZM369.25,472.81l10.71,6.16c1.3.65,3.89.65,4.87,0l10.71-6.16-10.71-6.16c-1.3-.65-3.89-.65-5.19,0l-10.71,6.16h.32Z"/><path id="Fill-64" class="cls-1" d="M296.9,465.03l12.33-7.14c2.6-1.3,2.6-3.57,0-5.19l-12.33-7.14c-2.6-1.3-6.49-1.3-9.08,0l-12.33,7.14c-2.6,1.3-2.6,3.89,0,5.19l12.33,7.14c2.27,1.3,6.49,1.3,8.76,0"/><path id="Fill-66" class="cls-3" d="M292.68,469.89c-2.27,0-4.54-.65-6.49-1.62l-12.33-7.14c-2.27-1.3-3.89-3.57-3.89-5.84s1.3-4.54,3.89-5.84l12.33-7.14c3.57-1.95,9.08-1.95,12.98,0l12.33,7.14c2.27,1.3,3.89,3.57,3.89,5.84s-1.3,4.54-3.89,5.84l-12.33,7.14c-1.95.97-4.22,1.62-6.49,1.62h0ZM279.38,455.29l10.71,6.16c1.3.65,3.89.65,4.87,0h0l10.71-6.16-10.71-6.16c-1.3-.65-3.89-.65-4.87,0l-10.71,6.16Z"/><path id="Fill-68" class="cls-1" d="M327.07,447.51l12.33-7.14c2.6-1.3,2.6-3.89,0-5.19l-12.33-7.14c-2.6-1.3-6.49-1.3-9.08,0l-12.33,7.14c-2.6,1.3-2.6,3.57,0,5.19l12.33,7.14c2.6,1.3,6.49,1.3,9.08,0"/><path id="Fill-70" class="cls-3" d="M322.53,452.7c-2.27,0-4.54-.65-6.49-1.62l-12.33-7.14c-2.27-1.3-3.89-3.57-3.89-5.84s1.3-4.54,3.89-5.84l12.33-7.14c3.57-2.27,9.08-2.27,12.98,0l12.33,7.14c2.27,1.3,3.89,3.57,3.89,5.84s-1.3,4.54-3.89,5.84l-12.33,7.14c-1.95.97-4.22,1.62-6.49,1.62h0ZM309.22,438.1l10.71,6.16c1.3.65,3.89.65,4.87,0l10.71-6.16-10.71-6.16c-1.3-.65-3.89-.65-4.87,0l-10.71,6.16Z"/><path id="Fill-72" class="cls-1" d="M305.98,470.22l12.33-7.14c2.6-1.3,6.49-1.3,9.08,0l12.33,7.14c2.6,1.3,2.6,3.89,0,5.19l-12.33,7.14c-2.6,1.3-6.49,1.3-9.08,0l-12.33-7.14c-2.6-1.3-2.6-3.89,0-5.19"/><path id="Fill-74" class="cls-3" d="M322.53,487.42c-2.27,0-4.54-.65-6.49-1.62l-12.33-7.14c-2.27-1.3-3.89-3.57-3.89-5.84s1.3-4.54,3.89-5.84l12.33-7.14c3.57-2.27,9.08-2.27,12.98,0l12.33,7.14c2.27,1.3,3.89,3.57,3.89,5.84s-1.3,4.54-3.89,5.84l-12.33,7.14c-1.95.97-4.22,1.62-6.49,1.62h0ZM309.22,472.81l10.71,6.16c1.3.65,3.89.65,5.19,0l10.71-6.16-10.71-6.16c-1.3-.65-3.89-.65-5.19,0l-10.71,6.16Z"/><path id="Fill-76" class="cls-1" d="M275.81,522.13l72.35-41.85c2.6-1.3,6.49-1.3,9.08,0l12.33,7.14c2.6,1.3,2.6,3.89,0,5.19l-72.35,41.85c-2.6,1.3-6.49,1.3-9.08,0l-12.33-7.14c-2.6-1.3-2.6-3.89,0-5.19"/><path id="Fill-78" class="cls-3" d="M292.35,539.33c-2.27,0-4.54-.65-6.49-1.62l-12.33-7.14c-2.27-1.3-3.89-3.57-3.89-5.84s1.3-4.54,3.89-5.84h0l72.35-41.85c3.57-2.27,9.08-1.95,12.65,0l12.33,7.14c2.27,1.3,3.89,3.57,3.89,5.84s-1.3,4.54-3.89,5.84l-72.35,41.85c-1.95.97-4.22,1.62-6.49,1.62h.32ZM279.05,524.73l10.71,6.16c1.3.65,3.89.65,4.87,0l71.06-40.88-10.71-6.16c-1.3-.65-3.89-.65-4.87,0,0,0-71.06,40.88-71.06,40.88Z"/><path id="Fill-80" class="cls-1" d="M435.76,394.95l12.33-7.14c2.6-1.3,6.49-1.3,9.08,0l12.33,7.14c2.6,1.3,2.6,3.89,0,5.19l-12,7.14c-2.6,1.3-6.49,1.3-9.08,0l-12.33-7.14c-2.6-1.3-2.6-3.89,0-5.19"/><path id="Fill-82" class="cls-3" d="M452.63,412.14c-2.27,0-4.54-.65-6.49-1.62l-12.33-7.14c-2.27-1.3-3.89-3.57-3.89-5.84s1.3-4.54,3.89-5.84l12.33-7.14c3.57-2.27,9.08-2.27,12.65,0l12.33,7.14c2.27,1.3,3.89,3.57,3.89,5.84s-1.3,4.54-3.89,5.84l-12,7.14c-1.95.97-4.22,1.62-6.49,1.62h0ZM439.33,397.54l10.71,6.16c1.3.65,3.89.65,4.87,0l10.71-6.16-10.71-6.16c-1.3-.65-3.89-.65-4.87,0l-10.71,6.16Z"/><path id="Fill-84" class="cls-1" d="M465.94,412.47l12.33-7.14c2.6-1.3,6.49-1.3,8.76,0l12.33,7.14c2.6,1.3,2.6,3.57,0,5.19l-12.33,7.14c-2.27,1.3-6.49,1.3-8.76,0l-12.33-7.14c-2.6-1.3-2.6-3.89,0-5.19"/><path id="Fill-86" class="cls-3" d="M482.48,429.66c-2.27,0-4.54-.65-6.49-1.62l-12.33-7.14c-2.27-1.3-3.89-3.57-3.89-5.84s1.3-4.54,3.89-5.84l12.33-7.14c3.57-2.27,9.08-1.95,12.98,0l12.33,7.14c2.27,1.3,3.89,3.57,3.89,5.84s-1.3,4.54-3.89,5.84l-12.33,7.14c-1.95.97-4.22,1.62-6.49,1.62h0ZM469.18,415.06l10.71,6.16c1.3.65,3.89.65,4.87,0l10.71-6.16-10.71-6.16c-1.3-.65-3.89-.65-4.87,0l-10.71,6.16Z"/><path id="Fill-88" class="cls-1" d="M427,389.75l12.33-7.14c2.6-1.3,2.6-3.89,0-5.19l-12.33-7.14c-2.6-1.3-6.49-1.3-8.76,0l-12.33,7.14c-2.6,1.3-2.6,3.89,0,5.19l12.33,7.14c2.6,1.3,6.49,1.3,9.08,0"/><path id="Fill-90" class="cls-3" d="M422.46,394.95c-2.27,0-4.54-.65-6.49-1.62l-12.33-7.14c-2.27-1.3-3.89-3.57-3.89-5.84s1.3-4.54,3.89-5.84l12.33-7.14c3.57-2.27,9.08-2.27,12.65,0l12.33,7.14c2.27,1.3,3.89,3.57,3.89,5.84s-1.3,4.54-3.89,5.84l-12.33,7.14c-1.95.97-4.22,1.62-6.49,1.62h.32ZM409.16,380.34l10.71,6.16c1.3.65,3.89.65,4.87,0l10.71-6.16-10.71-6.16c-1.3-.65-3.89-.65-4.87,0l-10.71,6.16Z"/><path id="Fill-92" class="cls-1" d="M405.91,412.47l12.33-7.14c2.6-1.3,6.49-1.3,9.08,0l12.33,7.14c2.6,1.3,2.6,3.89,0,5.19l-12.33,7.14c-2.6,1.3-6.49,1.3-9.08,0l-12.33-7.14c-2.6-1.3-2.6-3.89,0-5.19"/><path id="Fill-94" class="cls-3" d="M422.46,429.66c-2.27,0-4.54-.65-6.49-1.62l-12.33-7.14c-2.27-1.3-3.89-3.57-3.89-5.84s1.3-4.54,3.89-5.84l12.33-7.14c3.57-1.95,9.08-2.27,12.65,0l12.33,7.14c2.27,1.3,3.89,3.57,3.89,5.84s-1.3,4.54-3.89,5.84l-12,7.14c-1.95.97-4.22,1.62-6.49,1.62h0ZM409.16,415.06l10.71,6.16c1.3.65,3.89.65,4.87,0l10.71-6.16-10.71-6.16c-1.3-.65-3.89-.65-4.87,0l-10.71,6.16Z"/><path id="Fill-96" class="cls-1" d="M435.76,429.66l12.33-7.14c2.6-1.3,6.49-1.3,9.08,0l12,7.14c2.6,1.3,2.6,3.89,0,5.19l-12.33,7.14c-2.6,1.3-6.49,1.3-9.08,0l-12.33-7.14c-2.6-1.3-2.27-3.89,0-5.19"/><path id="Fill-98" class="cls-3" d="M452.63,446.86c-2.27,0-4.54-.65-6.49-1.62l-12.33-7.14c-2.27-1.3-3.89-3.57-3.89-5.84s1.3-4.54,3.89-5.84l12.33-7.14c3.57-2.27,9.08-1.95,12.98,0l12,7.14c2.27,1.3,3.89,3.57,3.89,5.84s-1.3,4.54-3.89,5.84l-12.33,7.14c-1.95.97-4.22,1.62-6.49,1.62h.32ZM439.33,432.26l10.71,6.16c1.3.65,3.89.65,5.19,0l10.71-6.16-10.71-6.16c-1.3-.65-3.89-.65-4.87,0l-10.71,6.16h-.32Z"/><path id="Fill-100" class="cls-1" d="M366.98,424.47l12.33-7.14c2.6-1.3,2.6-3.89,0-5.19l-12.33-7.14c-2.27-1.3-6.49-1.3-8.76,0l-12.33,7.14c-2.6,1.3-2.6,3.89,0,5.19l12.33,7.14c2.6,1.3,6.49,1.3,8.76,0"/><path id="Fill-102" class="cls-3" d="M362.44,429.66c-2.27,0-4.54-.65-6.49-1.62l-12.33-7.14c-2.27-1.3-3.89-3.57-3.89-5.84s1.3-4.54,3.89-5.84l12.33-7.14c3.57-1.95,9.08-2.27,12.65,0l12.33,7.14c2.27,1.3,3.89,3.57,3.89,5.84s-1.3,4.54-3.89,5.84l-12.33,7.14c-1.95.97-4.22,1.62-6.49,1.62h.32ZM349.13,415.06l10.71,6.16c1.3.65,3.89.65,4.87,0l10.71-6.16-10.71-6.16c-1.3-.65-3.89-.65-4.87,0l-10.71,6.16Z"/><path id="Fill-104" class="cls-1" d="M396.83,407.27l12.33-7.14c2.6-1.3,2.6-3.89,0-5.19l-12.33-7.14c-2.6-1.3-6.49-1.3-9.08,0l-12.33,7.14c-2.6,1.3-2.6,3.57,0,5.19l12.33,7.14c2.6,1.3,6.49,1.3,8.76,0"/><path id="Fill-106" class="cls-3" d="M392.61,412.14c-2.27,0-4.54-.65-6.49-1.62l-12.33-7.14c-2.27-1.3-3.89-3.57-3.89-5.84s1.3-4.54,3.89-5.84l12.33-7.14c3.57-2.27,9.08-2.27,12.65,0l12.33,7.14c2.27,1.3,3.89,3.57,3.89,5.84s-1.3,4.54-3.89,5.84l-12.33,7.14c-1.95.97-4.22,1.62-6.49,1.62h.32ZM379.31,397.54l10.71,6.16c1.3.65,3.89.65,4.87,0h0l10.71-6.16-10.71-6.16c-1.3-.65-3.89-.65-4.87,0l-10.71,6.16Z"/><path id="Fill-108" class="cls-1" d="M375.74,429.66l12.33-7.14c2.6-1.3,6.49-1.3,8.76,0l12.33,7.14c2.6,1.3,2.6,3.89,0,5.19l-12.33,7.14c-2.6,1.3-6.49,1.3-9.08,0l-12.33-7.14c-2.6-1.3-2.6-3.89,0-5.19"/><path id="Fill-110" class="cls-3" d="M392.61,446.86c-2.27,0-4.54-.65-6.49-1.62l-12.33-7.14c-2.27-1.3-3.89-3.57-3.89-5.84s1.3-4.54,3.89-5.84h0l12.33-7.14c3.57-2.27,9.08-2.27,12.65,0l12.33,7.14c2.27,1.3,3.89,3.57,3.89,5.84s-1.3,4.54-3.89,5.84l-12.33,7.14c-1.95.97-4.22,1.62-6.49,1.62h.32ZM379.31,432.26l10.71,6.16c1.3.65,3.89.65,4.87,0l10.71-6.16-10.71-6.16c-1.3-.65-3.89-.65-4.87,0l-10.71,6.16Z"/><path id="Fill-112" class="cls-1" d="M405.91,447.18l12.33-7.14c2.6-1.3,6.49-1.3,9.08,0l12.33,7.14c2.6,1.3,2.6,3.89,0,5.19l-12.33,7.14c-2.6,1.3-6.49,1.3-9.08,0l-12.33-7.14c-2.6-1.3-2.6-3.57,0-5.19"/><path id="Fill-114" class="cls-3" d="M422.46,464.38c-2.27,0-4.54-.65-6.49-1.62l-12.33-7.14c-2.27-1.3-3.89-3.57-3.89-5.84s1.3-4.54,3.89-5.84l12.33-7.14c3.57-2.27,9.08-2.27,12.65,0l12.33,7.14c2.27,1.3,3.89,3.57,3.89,5.84s-1.3,4.54-3.89,5.84l-12,7.14c-1.95.97-4.22,1.62-6.49,1.62h0ZM409.16,449.78l10.71,6.16c1.3.65,3.89.65,4.87,0l10.71-6.16-10.71-6.16c-1.3-.65-3.89-.65-4.87,0l-10.71,6.16Z"/><path id="Fill-116" class="cls-3" d="M322.2,635.69v-14.6h0c-7.79,0-14.92-.97-21.74-4.87l-167.74-97.01c-3.89-2.27-6.81-4.87-8.11-9.41v14.6c1.3,4.54,4.22,6.81,8.11,9.41l167.74,97.01c6.81,3.89,13.95,4.87,21.74,4.87h0Z"/><path id="Fill-118" class="cls-3" d="M321.23,639.58c-9.08,0-16.22-1.62-22.71-5.19l-167.74-97.01c-3.89-2.27-8.11-5.52-9.73-11.68v-15.57c0-1.95,1.3-3.57,3.24-3.89,1.95,0,3.89.97,4.22,2.6.97,2.92,2.6,4.87,6.49,7.14l167.74,97.01c5.52,2.92,11.68,4.54,19.79,4.22.97,0,2.27.32,2.92.97.65.65,1.3,1.62,1.3,2.92v14.6c0,1.95-1.62,3.89-3.57,3.89h-1.95ZM128.5,524.08c.97,2.6,2.6,4.54,6.16,6.49l167.74,97.01c4.54,2.6,9.73,3.89,15.9,4.22v-7.14c-7.79-.32-13.95-1.95-19.79-5.19l-167.74-97.01c-.65-.32-1.62-.97-2.27-1.3v2.92Z"/><path id="Fill-152" class="cls-3" d="M140.18,479.63c-1.62,0-2.92-.32-4.22-.97-2.92-1.62-4.54-5.19-4.54-9.41v-187.86c0-7.14,4.87-15.9,11.36-19.47L412.08,106.18c3.57-1.95,7.46-2.27,10.38-.65,2.92,1.62,4.54,5.19,4.54,9.41v187.86c0,7.14-4.87,15.9-11.36,19.47l-269.3,155.41c-1.95,1.3-4.22,1.62-6.16,1.62h0v.32ZM417.92,112.34c-.32,0-1.3,0-2.27.65l-269.3,155.41c-3.89,2.27-7.46,8.11-7.46,12.65v187.86c0,1.62.32,2.27.65,2.6.32,0,1.3,0,2.6-.65l269.62-155.41c3.89-2.27,7.14-8.11,7.14-12.65V114.94c0-1.62,0-2.27-.65-2.6h-.65.32Z"/></g></g></g></svg>