<?xml version="1.0" encoding="UTF-8"?>
<svg width="220px" height="240px" viewBox="0 0 220 240" version="1.1" xmlns="http://www.w3.org/2000/svg" xmlns:xlink="http://www.w3.org/1999/xlink">
    <title>Group 227</title>
    <g id="Illustraties" stroke="none" stroke-width="1" fill="none" fill-rule="evenodd">
        <g transform="translate(-193, -2847)" id="Group-227">
            <g transform="translate(193, 2847)">
                <path d="M7.54611488,177.527828 L2.60532379,174.174109 C1.8307814,172.863801 1.63887249,171.688173 1.60729879,170.173129 L1.63887249,90.5151446 C1.75974057,84.9867866 5.23926124,78.9552228 9.97432993,76.0918827 L122.200095,11.3569126 C124.098464,10.3179404 126.06294,9.72100014 128.080697,10.7861193 L133.007181,14.1398385 C130.984984,13.0885328 129.006201,13.6760997 127.127073,14.7150718 L14.9008142,79.4500419 C10.1657455,82.3148621 6.68671816,88.3997065 6.56091669,93.8703438 L6.53427638,173.533262 C6.56091669,175.046333 6.75233227,176.204693 7.54611488,177.527828" id="Fill-1" fill="#14100D"></path>
                <path d="M7.54611488,179.137002 C7.23037785,179.137002 6.90526739,179.042774 6.63343754,178.850865 L1.71928676,175.497639 C1.51455104,175.371838 1.34977578,175.194236 1.2289077,174.989993 C0.25752301,173.354081 0.0409471453,171.893797 0,170.213978 L0.0266403114,90.5150459 C0.164775259,84.3719874 3.91612578,77.8959251 9.12726669,74.7277014 L121.393979,9.966091 C123.22476,8.968066 125.937139,7.85065294 128.833533,9.3642173 L133.906539,12.8166043 C134.614974,13.2946499 134.820696,14.2339676 134.384091,14.9729895 C133.946992,15.6957313 133.020008,15.9532543 132.254839,15.557103 C131.055532,14.9335224 129.759037,15.0795508 127.889282,16.1185229 L15.7024902,80.8391861 C11.4622407,83.4055361 8.26737664,88.9028137 8.17462889,93.9097123 L8.12924169,173.533163 C8.17462889,174.783778 8.29401695,175.657481 8.92302431,176.70928 C9.30634879,177.350128 9.18054732,178.183377 8.63688763,178.68609 C8.3211506,178.989493 7.92943936,179.137002 7.54611488,179.137002 M3.8357115,173.064491 L4.94079109,173.81782 C4.94079109,173.732472 4.94079109,173.652551 4.92648426,173.572137 L4.9674314,93.8702451 C5.08681946,87.8248678 8.92302431,81.1958703 14.0680578,78.0690871 L126.320463,13.3212902 C126.784202,13.0617939 127.306155,12.8042708 127.874975,12.5857216 L127.180353,12.1219829 C126.129048,11.5738831 124.859193,11.7263249 122.979571,12.7633237 L10.7661392,77.4859603 C6.52144957,80.0518169 3.35815926,85.5619214 3.24814464,90.5559931 L3.20719749,170.173524 C3.2338378,171.291923 3.34089239,172.137507 3.8357115,173.064491" id="Fill-3" fill="#14100D"></path>
                <path d="M14.9008142,79.4501899 L127.126579,14.7152199 C131.71118,12.0689489 135.44773,14.2342142 135.44773,19.517876 L135.42109,99.188194 C135.42109,104.466922 131.671713,110.961732 127.087606,113.613429 L14.856907,178.348399 C10.2728001,180.99467 6.52144957,178.824472 6.53424359,173.532916 L6.56091669,93.8704918 C6.56091669,88.5917634 10.3167073,82.082154 14.9008142,79.4501899" id="Fill-5" fill="#3D68EC"></path>
                <path d="M11.1590344,181.087221 C10.0810885,181.087221 9.07369007,180.829698 8.17482623,180.312678 C6.08454846,179.096104 4.92668159,176.682196 4.92668159,173.533212 L4.9671354,93.8702945 C4.9671354,88.0557998 9.06135659,80.965037 14.0948954,78.0563096 L126.320661,13.3213396 C129.064613,11.7530146 131.710884,11.5467988 133.808561,12.7461062 C135.898839,13.962187 137.057199,16.3760953 137.057199,19.5176787 L137.030559,99.1879966 C137.016252,105.100172 133.007379,112.039974 127.888986,115.002475 L15.6632204,179.737445 C14.1072289,180.637789 12.5798511,181.087221 11.1590344,181.087221 L11.1590344,181.087221 Z M130.824847,15.1910947 C129.964957,15.1910947 128.966932,15.5038717 127.928453,16.1042654 L15.7021942,80.8392355 C11.6084664,83.1870363 8.17482623,89.1603861 8.17482623,93.8702945 L8.12943903,173.533212 C8.12943903,175.470555 8.73081939,176.927385 9.78261835,177.527779 C10.8196171,178.129653 12.3756087,177.92541 14.0504949,176.971293 L126.281687,112.219056 C130.361108,109.871255 133.808561,103.896425 133.808561,99.1879966 L133.835695,19.5176787 C133.835695,17.5926695 133.238755,16.1309057 132.201263,15.5310054 C131.805111,15.2981493 131.341373,15.1910947 130.824847,15.1910947 L130.824847,15.1910947 Z" id="Fill-7" fill="#14100D"></path>
                <path d="M15.3911932,85.4234411 L44.9510855,68.3711751 L126.619427,21.2637044 C128.722038,20.0471302 130.428498,21.0308483 130.428498,23.4733702 L130.401858,101.033184 C130.401858,103.461399 128.694904,106.423407 126.592293,107.635047 L34.4345759,160.788389 L15.3645529,171.799717 C13.2619417,172.999025 11.5549884,172.0306 11.5549884,169.590052 L11.5816287,92.0253049 C11.5816287,89.5970899 13.288582,86.6395219 15.3911932,85.4234411" id="Fill-9" fill="#F4D9DC"></path>
                <path d="M13.6577477,173.914909 C13.0025933,173.914909 12.4021996,173.763947 11.8536066,173.44821 C10.6419657,172.739775 9.94734428,171.350039 9.94734428,169.590298 L9.97398459,92.0250582 C9.97398459,89.0413434 12.0045683,85.5351824 14.5975586,84.0344448 L125.830232,19.8697748 C127.332943,19.0084047 128.899295,18.915657 130.110936,19.6102784 C131.341817,20.3192067 132.035945,21.7128897 132.035945,23.4731236 L132.009304,101.032937 C132.009304,104.022078 129.977734,107.528239 127.386224,109.024537 L16.1515768,173.189207 C15.3188204,173.666759 14.4594237,173.914909 13.6577477,173.914909 L13.6577477,173.914909 Z M128.311728,22.3542305 C128.119819,22.3542305 127.808522,22.4341514 127.425198,22.6527006 L16.192524,86.8144107 C14.5975586,87.7443549 13.1816754,90.1725699 13.1816754,92.0250582 L13.1550351,169.590298 C13.1550351,170.213879 13.3153703,170.58339 13.4658387,170.668244 C13.6187739,170.748165 14.0238053,170.721525 14.5580915,170.405788 L125.803592,106.244571 C127.386224,105.318574 128.7878,102.885919 128.7878,101.032937 L128.833681,23.4731236 C128.833681,22.8589164 128.668412,22.4750986 128.51745,22.3951776 C128.476503,22.3685373 128.410889,22.3542305 128.311728,22.3542305 L128.311728,22.3542305 Z" id="Fill-11" fill="#14100D"></path>
                <path d="M212.487909,161.415127 L212.487909,167.501945 C211.956583,169.327793 210.740502,170.391432 209.15935,171.34999 L96.4841532,236.42339 C93.9883507,237.790433 91.5167218,238.280812 88.6923554,238.387373 C85.5024248,238.445587 82.5808707,237.950768 79.7693311,236.410563 L10.5883891,196.398296 C9.00279724,195.427404 7.79115641,194.361792 7.25687016,192.535944 L7.25687016,186.450606 C7.79115641,188.276947 9.00279724,189.328253 10.5883891,190.299638 L79.7693311,230.311905 C82.5808707,231.865924 85.5024248,232.348409 88.6923554,232.302529 C91.5167218,232.195967 93.9883507,231.692762 96.4841532,230.325719 L209.15935,165.265145 C210.740502,164.294254 211.956583,163.242948 212.487909,161.415127" id="Fill-13" fill="#3D68EC"></path>
                <path d="M88.3671956,240 C84.6696191,240 81.7071178,239.300445 78.9947394,237.804641 L9.78271702,197.775106 C8.16061806,196.789908 6.4413313,195.466773 5.71513614,192.986757 C5.674189,192.834315 5.66185552,192.688287 5.66185552,192.535845 L5.66185552,186.451001 C5.66185552,185.644391 6.24991573,184.962597 7.043205,184.856035 C7.81824073,184.770688 8.5799563,185.234426 8.7970255,186.001569 C9.14137619,187.186076 9.84833112,187.965552 11.4166561,188.932496 L80.5753979,228.922564 C82.865478,230.192419 85.3514137,230.775052 88.6784926,230.695131 C91.530486,230.583637 93.6587508,230.05379 95.7046281,228.922564 L208.370452,163.869883 C209.899803,162.944379 210.606758,162.138263 210.951109,160.966089 C211.169164,160.203387 211.957027,159.722875 212.723676,159.821543 C213.512525,159.940931 214.100585,160.608912 214.100585,161.415028 L214.100585,167.501846 C214.100585,167.652808 214.073452,167.812649 214.032505,167.950784 C213.306803,170.432773 211.587516,171.755909 209.992551,172.7268 L97.2902199,237.804641 C94.7633371,239.193884 92.1451865,239.863345 88.7633469,240 L88.3671956,240 Z M8.86954635,192.304962 C9.22129713,193.368602 9.93318545,194.118477 11.4166561,195.017341 L80.5753979,235.019742 C82.865478,236.277263 85.3514137,236.819443 88.6784926,236.792803 C91.530486,236.668481 93.6587508,236.138635 95.7046281,235.007408 L208.370452,169.969035 C209.800642,169.082504 210.526344,168.334602 210.892895,167.256656 L210.892895,166.052909 C210.594424,166.258631 210.291021,166.450047 209.992551,166.627649 L97.2902199,231.719797 C94.7633371,233.096213 92.1451865,233.764194 88.7633469,233.915156 C84.7904872,233.995076 81.8043056,233.261481 78.9947394,231.719797 L9.78271702,191.690262 C9.48375353,191.498353 9.1680165,191.306937 8.86954635,191.088388 L8.86954635,192.304962 Z" id="Fill-15" fill="#14100D"></path>
                <path d="M10.5885371,180.623827 L123.265708,115.572627 C127.874975,112.914022 135.394449,112.914022 139.978556,115.572627 L209.159498,155.589828 C213.757912,158.266193 213.757912,162.600177 209.159498,165.265194 L96.4838079,230.325768 C91.8858874,232.970559 84.3664129,232.970559 79.7694791,230.311955 L10.5885371,190.299687 C5.99209671,187.635656 5.99209671,183.284405 10.5885371,180.623827" id="Fill-17" fill="#3D68EC"></path>
                <path d="M88.1362636,233.902477 C84.8170781,233.902477 81.4885192,233.162468 78.9680498,231.705638 L9.78266769,191.69041 C7.04315566,190.094951 5.5409381,187.898112 5.5409381,185.467431 C5.5409381,183.039215 7.05104909,180.82955 9.78266769,179.248891 L122.457865,114.183384 C127.522977,111.265283 135.734113,111.265283 140.779986,114.183384 L209.965861,154.212919 C212.70636,155.79407 214.224364,158.003243 214.224364,160.431458 C214.224364,162.864113 212.70636,165.059472 209.965861,166.640624 L97.2901706,231.719945 C94.7632877,233.162468 91.4490357,233.902477 88.1362636,233.902477 L88.1362636,233.902477 Z M11.3899665,182.019484 C9.71508023,182.998268 8.74369554,184.255296 8.74369554,185.467431 C8.74369554,186.683511 9.70225342,187.939059 11.3899665,188.905511 L80.5758419,228.922219 C84.6695698,231.29666 91.5842106,231.29666 95.6902719,228.935045 L208.370402,163.870031 C210.045782,162.90358 211.017167,161.648032 211.017167,160.431458 C211.017167,159.219817 210.045782,157.964269 208.358069,156.983511 L139.172194,116.966803 C135.092773,114.592362 128.165305,114.592362 124.071577,116.966803 L11.3899665,182.019484 Z" id="Fill-19" fill="#14100D"></path>
                <polygon id="Fill-21" fill="#3D68EC" points="131.725092 203.383928 162.542505 185.578827 138.941656 171.93356 108.124243 189.738662"></polygon>
                <path d="M131.725092,204.991523 C131.438955,204.991523 131.162192,204.923935 130.917496,204.772974 L107.316646,191.129187 C106.822814,190.843051 106.510037,190.326031 106.510037,189.738464 C106.510037,189.181978 106.822814,188.647692 107.316646,188.362048 L138.135047,170.54412 C138.637759,170.257983 139.240126,170.257983 139.747772,170.54412 L163.348621,184.187906 C163.837027,184.474043 164.140431,185.003396 164.140431,185.578629 C164.140431,186.152383 163.837027,186.669402 163.348621,186.967872 L132.531208,204.772974 C132.281578,204.923935 131.995442,204.991523 131.725092,204.991523 L131.725092,204.991523 Z M111.327,189.738464 L131.725092,201.539136 L159.337775,185.578629 L138.941656,173.790785 L111.327,189.738464 Z" id="Fill-23" fill="#14100D"></path>
                <path d="M24.6959634,182.891411 C58.8542693,163.175114 92.9780415,143.445003 127.126974,123.721306 C129.581336,122.312823 133.59021,122.312823 136.049998,123.73364 L170.960646,143.927489 C173.401195,145.343372 173.401195,147.664533 170.948313,149.080416 C136.812207,168.796713 102.680542,188.52189 68.5301291,208.252494 C66.0723137,209.672817 62.0614668,209.672817 59.6071048,208.238187 L24.6959634,188.045818 C22.238148,186.629935 22.2509748,184.308774 24.6959634,182.891411" id="Fill-25" fill="#3D68EC"></path>
                <path d="M64.0669889,210.911444 C62.1735534,210.911444 60.2766646,210.488652 58.8010874,209.628762 L23.8899459,189.439846 C22.2116063,188.468955 21.2574885,187.025938 21.2574885,185.466987 C21.2574885,183.925302 22.2239398,182.481298 23.9037594,181.511887 L126.320463,122.344249 C129.270138,120.637789 133.906539,120.637789 136.838946,122.344249 L171.766861,142.532178 C173.427934,143.503069 174.399319,144.947566 174.399319,146.506024 C174.399319,148.060536 173.427934,149.490726 171.754528,150.475924 L69.319077,209.628762 C67.8622466,210.488652 65.9638778,210.911444 64.0669889,210.911444 L64.0669889,210.911444 Z M24.696062,182.891263 L25.4992181,184.282479 C24.8563972,184.651497 24.4602459,185.115236 24.4602459,185.466987 C24.4602459,185.836498 24.8563972,186.285929 25.4992181,186.669254 L60.4103595,206.861623 C62.3477022,207.980516 65.7734489,207.980516 67.7241117,206.861623 L170.154629,147.691025 C170.79597,147.322007 171.192121,146.858269 171.192121,146.506024 C171.192121,146.137007 170.79597,145.686095 170.154629,145.316584 L135.243488,125.110401 C133.306145,123.992988 129.879905,123.992988 127.928255,125.110401 L25.4992181,184.282479 L24.696062,182.891263 Z" id="Fill-27" fill="#14100D"></path>
                <path d="M69.6615036,177.22921 L74.6950425,174.320483 C75.7073743,173.732916 77.3679537,173.732916 78.3802856,174.320483 L83.4138244,177.22921 C84.4241829,177.813817 84.4241829,178.770895 83.4138244,179.355502 L78.3659787,182.264229 C77.3556203,182.847356 75.7073743,182.847356 74.6950425,182.264229 L69.6615036,179.355502 C68.6511452,178.770895 68.6511452,177.813817 69.6615036,177.22921" id="Fill-29" fill="#FFFFFF"></path>
                <path d="M76.5351973,184.308824 C75.5815728,184.308824 74.6417619,184.090274 73.8889264,183.653669 L68.8553876,180.735075 C67.8622959,180.161815 67.3013694,179.275285 67.3013694,178.290087 C67.3013694,177.309329 67.8622959,176.410465 68.8553876,175.835231 L73.9032332,172.931437 C75.4039708,172.05724 77.6841841,172.05724 79.1864017,172.931437 L84.2199405,175.835231 C85.1987253,176.410465 85.7739587,177.309329 85.7739587,178.290087 C85.7739587,179.275285 85.1987253,180.174149 84.2199405,180.749382 L79.1725882,183.653669 C78.4192594,184.090274 77.4799417,184.308824 76.5351973,184.308824 L76.5351973,184.308824 Z M71.0255863,178.290087 L75.5011586,180.86877 C76.018178,181.172174 77.0571501,181.172174 77.5741695,180.86877 L82.0374083,178.290087 L77.5741695,175.715843 C77.0571501,175.41244 76.018178,175.41244 75.5011586,175.715843 L71.0255863,178.290087 Z" id="Fill-31" fill="#14100D"></path>
                <path d="M49.8794444,188.64784 L44.858239,191.551634 C43.8464005,192.139694 43.8464005,193.096772 44.8444255,193.681379 L49.8794444,196.585666 C50.9041097,197.173233 52.5508756,197.173233 53.5632075,196.585666 L58.5967463,193.681379 C59.6214116,193.096772 59.6214116,192.139694 58.6090798,191.551634 L53.5755409,188.64784 C52.5508756,188.058299 50.9041097,188.058299 49.8794444,188.64784" id="Fill-33" fill="#FFFFFF"></path>
                <path d="M51.7180206,198.634799 C50.7782096,198.634799 49.8383986,198.41625 49.0860565,197.979645 L44.0382108,195.075358 C43.0589327,194.487297 42.4841926,193.60126 42.4841926,192.616062 C42.4841926,191.622477 43.0589327,190.73644 44.0520243,190.161207 L49.0860565,187.256919 C50.586794,186.384696 52.8684873,186.384696 54.3815584,187.256919 L59.4170706,190.161207 C60.3958553,190.73644 60.9710887,191.636784 60.9710887,192.616062 C60.9710887,193.613594 60.3958553,194.500124 59.4027637,195.075358 L54.3692249,197.979645 C53.6163894,198.41625 52.6765784,198.634799 51.7180206,198.634799 L51.7180206,198.634799 Z M46.2212363,192.616062 L50.6854618,195.196226 C51.2010012,195.493216 52.2523068,195.493216 52.7569927,195.196226 L57.234045,192.616062 L52.7569927,190.036885 C52.2523068,189.738415 51.2010012,189.738415 50.6854618,190.036885 L46.2212363,192.616062 Z" id="Fill-35" fill="#14100D"></path>
                <path d="M62.2802134,195.810827 L57.2466745,198.714621 C56.236316,199.316495 56.236316,200.256306 57.2466745,200.844366 L62.2802134,203.748654 C63.2925452,204.33622 64.9407911,204.33622 65.9511496,203.748654 L70.9846884,200.8567 C72.0093538,200.269133 72.0093538,199.316495 70.9989953,198.727448 L65.9639764,195.810827 C64.9531246,195.222767 63.3048787,195.222767 62.2802134,195.810827" id="Fill-37" fill="#FFFFFF"></path>
                <path d="M64.10616,205.797738 C63.1663491,205.797738 62.2265381,205.579188 61.4741959,205.156397 L56.4401638,202.233363 C55.4426321,201.663063 54.8861456,200.776532 54.8861456,199.779001 C54.8861456,198.812549 55.459899,197.899379 56.4401638,197.337959 L61.4741959,194.415418 C62.988747,193.560461 65.2566268,193.560461 66.7716712,194.415418 L71.80521,197.337959 C72.7839948,197.899379 73.3592282,198.799722 73.3592282,199.779001 C73.3592282,200.776532 72.7839948,201.663063 71.80521,202.233363 L66.7573644,205.156397 C66.0045289,205.579188 65.0647179,205.797738 64.10616,205.797738 L64.10616,205.797738 Z M58.6231893,199.779001 L63.0864281,202.371991 C63.6034475,202.675394 64.6424196,202.675394 65.1574657,202.371991 L69.6221845,199.792814 L65.1574657,197.199824 C64.6547531,196.901354 63.6034475,196.901354 63.0864281,197.199824 L58.6231893,199.779001 Z" id="Fill-39" fill="#14100D"></path>
                <path d="M53.5755409,182.264328 L58.6090798,179.341294 C59.6337451,178.770994 59.6337451,177.813916 58.6090798,177.229309 L53.5755409,174.320582 C52.5651825,173.725121 50.9164432,173.725121 49.9060847,174.307755 L44.8710659,177.216975 C43.8464005,177.799609 43.8464005,178.758167 44.8710659,179.341294 L49.8922712,182.264328 C50.9041097,182.847455 52.5651825,182.847455 53.5755409,182.264328" id="Fill-41" fill="#FFFFFF"></path>
                <path d="M51.7369648,184.294665 C50.7927137,184.294665 49.8529028,184.090422 49.1030273,183.653817 L44.0522216,180.735223 C43.0714635,180.161963 42.4982035,179.275433 42.4982035,178.290235 C42.4982035,177.297143 43.0714635,176.410613 44.0522216,175.835379 L49.1030273,172.917278 C50.6008048,172.057388 52.8810182,172.057388 54.3817557,172.931092 L59.4167746,175.835379 C60.4098662,176.410613 60.9836195,177.297143 60.9836195,178.290235 C60.9836195,179.275433 60.4098662,180.161963 59.4167746,180.735223 L54.3817557,183.653817 C53.6289202,184.090422 52.6891092,184.294665 51.7369648,184.294665 L51.7369648,184.294665 Z M46.2352471,178.277408 L50.6979926,180.868918 C51.215012,181.172322 52.2525041,181.172322 52.7695235,180.868918 L57.233749,178.290235 L52.7695235,175.701684 C52.2663176,175.412588 51.215012,175.412588 50.6979926,175.701684 L46.2352471,178.277408 Z" id="Fill-43" fill="#14100D"></path>
                <path d="M65.9780366,175.09986 L71.0115754,172.196066 C72.0362407,171.608006 72.0362407,170.650928 71.0253889,170.066321 L65.9903701,167.14526 C64.9676781,166.574467 63.3189388,166.56016 62.3071003,167.14526 L57.2735615,170.066321 C56.2488962,170.636621 56.2488962,171.595672 57.2735615,172.178306 L62.3071003,175.09986 C63.304632,175.6894 64.9676781,175.6894 65.9780366,175.09986" id="Fill-45" fill="#FFFFFF"></path>
                <path d="M64.1329484,177.146033 C63.1931374,177.146033 62.2533264,176.927484 61.5009843,176.490879 L56.4669521,173.572285 C55.4738605,172.998531 54.8991204,172.098188 54.8991204,171.117923 C54.8991204,170.133711 55.4738605,169.247674 56.4669521,168.672441 L61.5009843,165.768154 C63.0155353,164.89445 65.2834151,164.89445 66.7979662,165.768154 L71.8319984,168.672441 C72.8107831,169.247674 73.3860165,170.146538 73.3860165,171.131736 C73.3860165,172.111014 72.8107831,172.998531 71.8176915,173.572285 L66.7841527,176.490879 C66.0313172,176.927484 65.0771994,177.146033 64.1329484,177.146033 L64.1329484,177.146033 Z M58.6361641,171.117923 L63.1003896,173.70598 C63.617409,174.009383 64.6549011,174.009383 65.1719205,173.70598 L69.6489728,171.131736 L65.184254,168.538746 C64.6687146,168.254583 63.6302358,168.235342 63.1003896,168.538746 L58.6361641,171.117923 Z" id="Fill-47" fill="#14100D"></path>
                <path d="M46.2084095,186.518489 L41.1748706,189.427217 C40.1674722,190.010344 38.5142929,190.010344 37.4896276,189.427217 L32.4560887,186.504183 C31.4501703,185.916616 31.4501703,184.962498 32.4560887,184.389238 L37.5039344,181.470644 C38.5142929,180.883077 40.1674722,180.883077 41.1748706,181.470644 L46.2084095,184.389238 C47.2330748,184.976805 47.2330748,185.933883 46.2084095,186.518489" id="Fill-49" fill="#FFFFFF"></path>
                <path d="M39.3346665,191.471811 C38.3899221,191.471811 37.4506044,191.239449 36.6879022,190.816657 L31.6499233,187.898063 C30.6711385,187.324803 30.0959051,186.424459 30.0959051,185.440248 C30.0959051,184.459983 30.6711385,183.573452 31.6686702,182.998219 L36.702209,180.093932 C38.1985065,179.221708 40.4787198,179.221708 41.9809374,180.093932 L47.0144762,182.998219 C48.0075679,183.573452 48.5684944,184.473796 48.5684944,185.453074 C48.5684944,186.438273 47.9952344,187.324803 47.0144762,187.898063 L41.9809374,190.816657 C41.2142884,191.239449 40.2744775,191.471811 39.3346665,191.471811 L39.3346665,191.471811 Z M33.8324555,185.440248 L38.2956943,188.031758 C38.8127137,188.335161 39.8516858,188.335161 40.3687052,188.031758 L44.8314507,185.453074 L40.3687052,182.860084 C39.8640193,182.563094 38.8127137,182.563094 38.3100012,182.860084 L33.8324555,185.440248 Z" id="Fill-51" fill="#14100D"></path>
                <path d="M57.2607347,184.389139 L62.2942735,181.484852 C63.304632,180.895805 64.9533713,180.895805 65.9780366,181.484852 L71.0115754,184.389139 C72.0234139,184.976706 72.0234139,185.933784 71.0115754,186.518391 L65.9637298,189.427118 C64.9533713,190.010245 63.304632,190.010245 62.2942735,189.427118 L57.2607347,186.518391 C56.2484029,185.933784 56.2484029,184.976706 57.2607347,184.389139" id="Fill-53" fill="#FFFFFF"></path>
                <path d="M64.1329484,191.471811 C63.1808039,191.471811 62.2409929,191.253262 61.4881574,190.816657 L56.4546186,187.898063 C55.460047,187.324803 54.8991204,186.438273 54.8991204,185.453074 C54.8991204,184.473796 55.460047,183.573452 56.4546186,182.998219 L61.5009843,180.093932 C63.0017218,179.234535 65.2691083,179.221708 66.7718192,180.093932 L71.8176915,183.012526 C72.7984496,183.573452 73.3717097,184.473796 73.3717097,185.453074 C73.3717097,186.438273 72.7984496,187.337136 71.8176915,187.91237 L66.7718192,190.816657 C66.0170104,191.253262 65.0771994,191.471811 64.1329484,191.471811 L64.1329484,191.471811 Z M58.6233373,185.453074 L63.0865761,188.031758 C63.6035955,188.335161 64.6549011,188.335161 65.1576137,188.031758 L69.634666,185.453074 L65.1576137,182.878831 C64.6549011,182.575427 63.617409,182.575427 63.1003896,182.878831 L58.6233373,185.453074 Z" id="Fill-55" fill="#14100D"></path>
                <path d="M94.4662483,162.903432 L99.4997871,159.994705 C100.524452,159.411578 102.171218,159.411578 103.18355,159.994705 L108.217089,162.917739 C109.228928,163.488039 109.228928,164.445117 108.217089,165.032684 L103.18355,167.936971 C102.158885,168.526511 100.510146,168.526511 99.4997871,167.936971 L94.4662483,165.032684 C93.4539164,164.445117 93.4539164,163.488039 94.4662483,162.903432" id="Fill-57" fill="#FFFFFF"></path>
                <path d="M101.338462,169.981566 C100.385824,169.981566 99.4465065,169.764496 98.693671,169.327891 L93.6586522,166.409297 C92.679374,165.834064 92.1041407,164.948027 92.1041407,163.968749 C92.1041407,162.98355 92.679374,162.084687 93.6586522,161.509453 L98.7060045,158.605166 C100.206742,157.731462 102.488929,157.731462 103.99904,158.605166 L109.018272,161.52672 C110.016297,162.09702 110.59153,162.98355 110.577223,163.968749 C110.577223,164.962334 110.016297,165.848371 109.010378,166.423604 L103.972399,169.327891 C103.222524,169.764496 102.282713,169.981566 101.338462,169.981566 L101.338462,169.981566 Z M95.8411843,163.968749 L100.301463,166.542992 C100.809109,166.846396 101.860415,166.846396 102.376941,166.542992 L106.84018,163.968749 L102.376941,161.388585 C101.874228,161.091595 100.809109,161.091595 100.301463,161.388585 L95.8411843,163.968749 Z" id="Fill-59" fill="#14100D"></path>
                <path d="M106.867067,170.080579 L111.900605,167.157545 C112.908004,166.574418 114.561183,166.574418 115.585848,167.157545 L120.60508,170.080579 C121.624812,170.668146 121.624812,171.622263 120.60508,172.20539 L115.571542,175.114118 C114.561183,175.701684 112.908004,175.701684 111.887779,175.114118 L106.85424,172.196017 C105.842401,171.622263 105.842401,170.650879 106.867067,170.080579" id="Fill-61" fill="#FFFFFF"></path>
                <path d="M113.740711,177.146033 C112.786593,177.146033 111.847275,176.940311 111.081613,176.490879 L106.060901,173.586592 C105.06781,173.011358 104.492576,172.111014 104.50639,171.131736 C104.50639,170.146538 105.06781,169.247674 106.060901,168.686254 L111.09444,165.768154 C112.609484,164.908757 114.889698,164.908757 116.386982,165.768154 L121.406707,168.686254 C122.418546,169.260008 122.979472,170.160845 122.979472,171.144563 C122.979472,172.124828 122.404239,173.025665 121.406707,173.586592 L116.372675,176.490879 C115.612439,176.940311 114.680522,177.146033 113.740711,177.146033 L113.740711,177.146033 Z M108.2311,171.131736 L112.689405,173.724727 C113.211358,174.021717 114.248357,174.021717 114.765376,173.724727 L119.237989,171.144563 L114.77919,168.553053 C114.262664,168.254583 113.223692,168.261983 112.689405,168.553053 L108.2311,171.131736 Z" id="Fill-63" fill="#14100D"></path>
                <path d="M78.3802856,167.936872 L83.4261579,165.015811 C84.4384897,164.445018 84.4384897,163.48794 83.4261579,162.903333 L78.3931124,159.994606 C77.3822606,159.411479 75.7197078,159.411479 74.7093493,159.994606 L69.6615036,162.891 C68.6511452,163.478567 68.6511452,164.431205 69.6615036,165.015811 L74.7093493,167.936872 C75.7073743,168.526413 77.3679537,168.526413 78.3802856,167.936872" id="Fill-65" fill="#FFFFFF"></path>
                <path d="M76.5351973,169.981566 C75.5953863,169.981566 74.6555754,169.764496 73.9032332,169.327891 L68.8692011,166.409297 C67.8761094,165.834064 67.3013694,164.9352 67.3013694,163.954935 C67.3013694,162.970724 67.8761094,162.07038 68.8692011,161.509453 L73.9032332,158.591352 C75.4177843,157.731462 77.6841841,157.731462 79.1987351,158.605166 L84.232274,161.509453 C85.2130321,162.084687 85.7882655,162.98355 85.7882655,163.968749 C85.7882655,164.948027 85.2130321,165.834064 84.2199405,166.409297 L79.1864017,169.327891 C78.4335662,169.764496 77.4937552,169.981566 76.5351973,169.981566 L76.5351973,169.981566 Z M71.0384131,163.954935 L75.5154654,166.542992 C76.018178,166.846396 77.0571501,166.846396 77.5741695,166.542992 L77.586503,166.542992 L82.0497418,163.968749 L77.586503,161.375758 C77.0694836,161.091595 76.0324848,161.091595 75.5154654,161.375758 L71.0384131,163.954935 Z" id="Fill-67" fill="#14100D"></path>
                <path d="M90.7952134,160.774082 L95.8287522,157.869795 C96.8391107,157.282228 96.8391107,156.32811 95.8287522,155.740543 L90.7952134,152.836256 C89.7833749,152.248689 88.1361156,152.248689 87.1114503,152.836256 L82.0764314,155.740543 C81.066073,156.315776 81.066073,157.267921 82.0764314,157.857461 L87.1114503,160.774082 C88.1173687,161.361649 89.770548,161.361649 90.7952134,160.774082" id="Fill-69" fill="#FFFFFF"></path>
                <path d="M88.9501251,162.818578 C87.9979807,162.818578 87.0581697,162.600029 86.3038542,162.167864 L81.2703153,159.246803 C80.2772237,158.676009 79.7034704,157.772705 79.7034704,156.791947 C79.7034704,155.808229 80.2772237,154.921699 81.2703153,154.351399 L86.3038542,151.442178 C87.8188986,150.568475 90.0862851,150.568475 91.6013294,151.442178 L96.6348683,154.351399 C97.6156264,154.921699 98.1888865,155.820563 98.1888865,156.805761 C98.1888865,157.785039 97.6156264,158.676009 96.6348683,159.246803 L91.5840626,162.167864 C90.8341871,162.600029 89.8948695,162.818578 88.9501251,162.818578 L88.9501251,162.818578 Z M83.4533409,156.791947 L87.9175664,159.384938 C88.4207723,159.683408 89.4720779,159.683408 89.9890973,159.384938 L94.4523361,156.805761 L89.9890973,154.212771 C89.4720779,153.90986 88.4331057,153.90986 87.9175664,154.212771 L83.4533409,156.791947 Z" id="Fill-71" fill="#14100D"></path>
                <path d="M82.063802,170.06642 L87.0973408,167.157199 C88.1175661,166.574566 89.770252,166.574566 90.7811039,167.157199 L95.8146427,170.06642 C96.8264812,170.651027 96.8264812,171.608105 95.8146427,172.195671 L90.7811039,175.099959 C89.7564385,175.689006 88.1096726,175.689006 87.0973408,175.099959 L82.063802,172.195671 C81.0519635,171.608105 81.0519635,170.651027 82.063802,170.06642" id="Fill-73" fill="#FFFFFF"></path>
                <path d="M88.937693,177.146033 C87.9835752,177.146033 87.0442575,176.927484 86.291422,176.490879 L81.2578832,173.572285 C80.2598582,172.998531 79.7033717,172.111014 79.7033717,171.131736 C79.7033717,170.146538 80.2598582,169.247674 81.2578832,168.672441 L86.291422,165.768154 C87.8059731,164.89445 90.0738529,164.89445 91.5839639,165.768154 L96.6224361,168.686254 C97.6012209,169.247674 98.1764543,170.146538 98.1764543,171.131736 C98.1764543,172.111014 97.6012209,172.998531 96.6081293,173.586592 L91.5745905,176.490879 C90.821755,176.927484 89.881944,177.146033 88.937693,177.146033 L88.937693,177.146033 Z M83.4266019,171.131736 L87.9036542,173.724727 C88.4063668,174.009383 89.4576724,174.009383 89.9746918,173.70598 L94.4522374,171.131736 L89.9746918,168.553053 C89.4719792,168.254583 88.4206736,168.254583 87.9036542,168.553053 L83.4266019,171.131736 Z" id="Fill-75" fill="#14100D"></path>
                <path d="M69.6488742,191.569295 L99.4855296,174.320187 C100.510195,173.73262 102.158934,173.73262 103.169293,174.320187 L108.204312,177.243221 C109.21023,177.826348 109.21023,178.784906 108.204312,179.368033 L78.3661761,196.602834 C77.3415108,197.173134 75.6932648,197.173134 74.682413,196.602834 L69.6488742,193.68128 C68.6370357,193.096673 68.6370357,192.139595 69.6488742,191.569295" id="Fill-77" fill="#FFFFFF"></path>
                <path d="M76.5086557,198.634799 C75.5688447,198.634799 74.6290337,198.41625 73.8761982,197.993458 L68.8426594,195.075358 C67.8495678,194.500124 67.2871612,193.613594 67.2871612,192.616062 C67.2871612,191.636784 67.8619013,190.750747 68.8426594,190.175514 L68.8554862,190.175514 L98.6936217,172.931339 C100.206693,172.057635 102.488879,172.071449 103.97235,172.945645 L109.010329,175.849439 C110.003914,176.423193 110.577174,177.323537 110.577174,178.289988 C110.577174,179.288013 110.003914,180.188357 109.010329,180.749283 L79.1549266,197.993458 C78.4070245,198.41625 77.4672136,198.634799 76.5086557,198.634799 L76.5086557,198.634799 Z M71.0256849,192.616062 L75.4889238,195.209052 C76.0054498,195.512456 77.0429419,195.512456 77.5599613,195.209052 L106.822863,178.307255 L102.363078,175.715745 C101.860365,175.412834 100.80906,175.412834 100.301414,175.715745 L71.0256849,192.616062 Z" id="Fill-79" fill="#14100D"></path>
                <path d="M135.693068,139.066865 L140.726606,136.162578 C141.738445,135.587345 143.400011,135.587345 144.411849,136.162578 L149.445388,139.081172 C150.455747,139.668739 150.455747,140.625817 149.431081,141.208944 L144.411849,144.119151 C143.387184,144.702278 141.738445,144.702278 140.726606,144.119151 L135.693068,141.208944 C134.682709,140.625817 134.682709,139.668739 135.693068,139.066865" id="Fill-81" fill="#FFFFFF"></path>
                <path d="M142.554378,146.163647 C141.613087,146.163647 140.673276,145.945098 139.920441,145.494186 L134.886902,142.585459 C133.89381,142.016639 133.332884,141.128628 133.332884,140.14491 C133.332884,139.164152 133.906144,138.265288 134.886902,137.690055 L139.939188,134.786261 C141.435485,133.89973 143.702872,133.912064 145.217916,134.786261 L150.251455,137.690055 C151.230733,138.265288 151.805967,139.164152 151.805967,140.14491 C151.805967,141.128628 151.230733,142.016639 150.237148,142.604205 L145.217916,145.494186 C144.451267,145.945098 143.511456,146.163647 142.554378,146.163647 L142.554378,146.163647 Z M137.057101,140.14491 L141.532673,142.723594 C142.049692,143.026997 143.088665,143.026997 143.605684,142.723594 L148.068923,140.14491 L143.605684,137.55192 C143.088665,137.267263 142.049692,137.267263 141.532673,137.55192 L137.057101,140.14491 Z" id="Fill-83" fill="#14100D"></path>
                <path d="M148.095366,146.243963 L153.128905,143.338195 C154.139756,142.750629 155.788002,142.750629 156.799841,143.338195 L161.83338,146.256296 C162.858045,146.844356 162.858045,147.788607 161.83338,148.373214 L156.786027,151.294768 C155.788002,151.865068 154.139756,151.865068 153.114598,151.277502 L148.081059,148.373214 C147.070701,147.788607 147.070701,146.83153 148.095366,146.243963" id="Fill-85" fill="#FFFFFF"></path>
                <path d="M154.959686,153.326635 C154.015435,153.326635 153.061317,153.108086 152.308482,152.671481 L147.274943,149.767193 C146.296158,149.19196 145.720925,148.293096 145.720925,147.307898 C145.720925,146.32714 146.296158,145.428276 147.28925,144.853042 L152.308482,141.948755 C153.837833,141.075052 156.105219,141.089358 157.601517,141.963062 L162.639496,144.867349 C163.633081,145.440609 164.194007,146.32714 164.194007,147.307898 C164.194007,148.305429 163.633081,149.19196 162.639496,149.767193 L157.592144,152.671481 C156.839308,153.108086 155.899497,153.326635 154.959686,153.326635 L154.959686,153.326635 Z M149.457968,147.307898 L153.922687,149.900888 C154.4254,150.185051 155.476705,150.204292 155.993725,149.900888 L160.456964,147.322205 L155.993725,144.714907 C155.476705,144.430251 154.437733,144.430251 153.922687,144.714907 L149.457968,147.307898 Z" id="Fill-87" fill="#14100D"></path>
                <path d="M132.009403,136.954683 L137.057249,134.033129 C138.067607,133.462829 138.067607,132.491445 137.057249,131.908811 L132.009403,129.000084 C131.002005,128.414984 129.350305,128.414984 128.338467,129.000084 L123.304928,131.908811 C122.285196,132.491445 122.285196,133.450496 123.292101,134.033129 L128.326133,136.954683 C129.336492,137.524983 131.002005,137.524983 132.009403,136.954683" id="Fill-89" fill="#FFFFFF"></path>
                <path d="M130.169248,138.986747 C129.224997,138.986747 128.285186,138.768198 127.536791,138.331593 L122.484505,135.427306 C121.50572,134.852072 120.930487,133.953208 120.930487,132.981824 C120.930487,131.988732 121.50572,131.102695 122.484505,130.514635 L127.536791,127.608868 C129.051835,126.736644 131.327608,126.736644 132.815519,127.623174 L137.863365,130.526968 C138.84215,131.102695 139.417383,131.988732 139.417383,132.981824 C139.417383,133.965542 138.84215,134.852072 137.863365,135.427306 L132.815519,138.331593 C132.062684,138.768198 131.109059,138.986747 130.169248,138.986747 L130.169248,138.986747 Z M124.667531,132.97245 L129.13225,135.561 C129.649269,135.864404 130.700574,135.850097 131.203287,135.561 L135.666033,132.981824 L131.203287,130.393767 C130.700574,130.090363 129.649269,130.090363 129.144583,130.393767 L124.667531,132.97245 Z" id="Fill-91" fill="#14100D"></path>
                <path d="M123.292299,146.243963 L128.325837,143.338195 C129.350503,142.750629 131.002202,142.750629 132.0096,143.338195 L137.043139,146.243963 C138.054978,146.83153 138.054978,147.788607 137.043139,148.373214 L132.0096,151.277502 C130.984935,151.865068 129.336196,151.865068 128.325837,151.277502 L123.292299,148.373214 C122.2849,147.788607 122.2849,146.817716 123.292299,146.243963" id="Fill-93" fill="#FFFFFF"></path>
                <path d="M130.169248,153.326635 C129.224997,153.326635 128.285186,153.108086 127.522484,152.671481 L122.484505,149.767193 C121.50572,149.179626 120.930487,148.293096 120.930487,147.307898 C120.930487,146.314806 121.50572,145.428276 122.484505,144.853042 L127.536791,141.948755 C129.033088,141.089358 131.314782,141.075052 132.815519,141.948755 L137.849058,144.867349 C138.84215,145.440609 139.417383,146.32714 139.40357,147.307898 C139.40357,148.305429 138.829816,149.19196 137.836725,149.767193 L132.815519,152.671481 C132.062684,153.108086 131.109059,153.326635 130.169248,153.326635 L130.169248,153.326635 Z M124.667531,147.307898 L129.13225,149.886581 C129.649269,150.185051 130.686268,150.204292 131.203287,149.886581 L135.666033,147.307898 L131.203287,144.714907 C130.700574,144.430251 129.649269,144.430251 129.13225,144.714907 L124.667531,147.307898 Z" id="Fill-95" fill="#14100D"></path>
                <path d="M135.693068,153.406753 L140.726606,150.502959 C141.738445,149.913419 143.387184,149.913419 144.411849,150.502959 L149.431081,153.41958 C150.455747,154.007147 150.455747,154.961265 149.431081,155.536005 L144.397543,158.453119 C143.387184,159.042166 141.738445,159.042166 140.714273,158.453119 L135.680241,155.536005 C134.668402,154.948438 134.682709,153.994813 135.693068,153.406753" id="Fill-97" fill="#FFFFFF"></path>
                <path d="M142.554378,160.489623 C141.613087,160.489623 140.673276,160.271073 139.920441,159.848282 L134.886902,156.925248 C133.89381,156.354948 133.332884,155.468417 133.332884,154.470886 C133.332884,153.491607 133.89381,152.591264 134.886902,152.01603 L139.920441,149.107303 C141.435485,148.239519 143.702872,148.247413 145.217916,149.107303 L150.237148,152.030337 C151.230733,152.605077 151.805967,153.491607 151.79314,154.484699 C151.79314,155.468417 151.230733,156.369254 150.237148,156.925248 L145.204103,159.834468 C144.451267,160.271073 143.511456,160.489623 142.554378,160.489623 L142.554378,160.489623 Z M137.057101,154.470886 L141.52034,157.063876 C142.023052,157.348039 143.088665,157.362346 143.605684,157.063876 L148.068923,154.484699 L143.605684,151.891709 C143.088665,151.593239 142.037359,151.593239 141.532673,151.891709 L137.057101,154.470886 Z" id="Fill-99" fill="#14100D"></path>
                <path d="M107.206336,151.277403 L112.257142,148.373609 C113.26454,147.788509 113.26454,146.817617 112.257142,146.243864 L107.206336,143.325763 C106.213244,142.737703 104.560065,142.737703 103.5354,143.325763 L98.5018608,146.230051 C97.4944623,146.817617 97.4821289,147.771242 98.5018608,148.359302 L103.5354,151.277403 C104.545758,151.865463 106.198937,151.865463 107.206336,151.277403" id="Fill-101" fill="#FFFFFF"></path>
                <path d="M105.36628,153.312476 C104.426469,153.312476 103.481724,153.093927 102.733822,152.658802 L97.6859766,149.749581 C96.7027517,149.179774 96.127025,148.293244 96.127025,147.308046 C96.127025,146.314461 96.7027517,145.428424 97.6958434,144.840364 L102.733822,141.93657 C104.23456,141.0752 106.510333,141.057933 108.012551,141.948903 L113.058423,144.85319 C114.044114,145.428424 114.614414,146.327288 114.614414,147.308046 C114.614414,148.293244 114.044114,149.179774 113.058423,149.749581 L108.012551,152.658802 C107.263169,153.093927 106.306091,153.312476 105.36628,153.312476 L105.36628,153.312476 Z M99.8690021,147.295219 L104.341614,149.886729 C104.858634,150.185199 105.883299,150.185199 106.412652,149.886729 L110.875891,147.308046 L106.412652,144.715055 C105.895633,144.416092 104.858634,144.416092 104.341614,144.715055 L99.8690021,147.295219 Z" id="Fill-103" fill="#14100D"></path>
                <path d="M119.607105,144.119201 L124.65495,141.208993 C125.665309,140.625866 125.665309,139.668789 124.65495,139.066915 L119.621412,136.162628 C118.614013,135.587394 116.962314,135.578021 115.937649,136.162628 L110.90263,139.066915 C109.896711,139.654482 109.896711,140.608599 110.90263,141.196166 L115.937649,144.119201 C116.948007,144.688021 118.596746,144.688021 119.607105,144.119201" id="Fill-105" fill="#FFFFFF"></path>
                <path d="M117.781158,146.163647 C116.82408,146.163647 115.884269,145.945098 115.134394,145.494186 L110.100855,142.585459 C109.103323,142.016639 108.52957,141.116295 108.52957,140.132083 C108.52957,139.151818 109.103323,138.265288 110.100855,137.690055 L115.134394,134.786261 C116.632171,133.912064 118.912385,133.912064 120.413122,134.786261 L125.460968,137.690055 C126.444686,138.265288 127.014986,139.164152 127.014986,140.14491 C127.014986,141.128628 126.444686,142.016639 125.460968,142.585459 L120.413122,145.494186 C119.66078,145.945098 118.720969,146.163647 117.781158,146.163647 L117.781158,146.163647 Z M112.283881,140.132083 L116.743666,142.723594 C117.246872,143.026997 118.298178,143.026997 118.805823,142.723594 L118.819637,142.723594 L123.277942,140.14491 L118.819637,137.55192 C118.298178,137.25345 117.259205,137.25345 116.743666,137.55192 L112.283881,140.132083 Z" id="Fill-107" fill="#14100D"></path>
                <path d="M110.90263,153.406753 L115.937649,150.502959 C116.948007,149.913419 118.596746,149.913419 119.607105,150.502959 L124.65495,153.406753 C125.665309,153.994813 125.665309,154.948438 124.640644,155.536005 L119.607105,158.440292 C118.587373,159.027859 116.934194,159.027859 115.923835,158.440292 L110.889803,155.536005 C109.877964,154.948438 109.877964,153.994813 110.90263,153.406753" id="Fill-109" fill="#FFFFFF"></path>
                <path d="M117.768529,160.489623 C116.809971,160.489623 115.87016,160.271073 115.121764,159.834468 L110.083785,156.925248 C109.103027,156.342121 108.529767,155.456084 108.529767,154.470886 C108.529767,153.491607 109.103027,152.591264 110.083785,152.01603 L110.101052,152.01603 L115.134591,149.107303 C116.632369,148.239519 118.899755,148.239519 120.41332,149.107303 L125.461165,152.030337 C126.444883,152.605077 127.015183,153.491607 127.00285,154.470886 C127.00285,155.468417 126.427617,156.354948 125.448338,156.925248 L120.41332,159.834468 C119.660484,160.271073 118.70834,160.489623 117.768529,160.489623 L117.768529,160.489623 Z M112.266811,154.470886 L116.729557,157.063876 C117.246576,157.362346 118.297882,157.362346 118.805527,157.063876 L123.265313,154.470886 L118.805527,151.891709 C118.297882,151.593239 117.246576,151.593239 116.743863,151.877895 L112.266811,154.470886 Z" id="Fill-111" fill="#14100D"></path>
                <path d="M123.292299,160.569741 L128.325837,157.665947 C129.336196,157.076407 130.984935,157.076407 132.0096,157.665947 L137.043139,160.582568 C138.054978,161.171615 138.054978,162.124252 137.030312,162.698992 L132.0096,165.617587 C130.984935,166.205153 129.336196,166.205153 128.312024,165.617587 L123.292299,162.698992 C122.2849,162.111426 122.2849,161.171615 123.292299,160.569741" id="Fill-113" fill="#FFFFFF"></path>
                <path d="M130.156668,167.665042 C129.212417,167.665042 128.272606,167.448467 127.522731,166.997061 L122.484752,164.088334 C121.491167,163.518034 120.93024,162.627064 120.93024,161.647785 C120.93024,160.654694 121.505474,159.763723 122.484752,159.19293 L127.537038,156.289136 C129.032842,155.410499 131.300722,155.410499 132.815766,156.289136 L137.849305,159.19293 C138.82957,159.763723 139.403323,160.667027 139.403323,161.647785 C139.403323,162.627064 138.82957,163.531847 137.836478,164.088334 L132.815766,166.997061 C132.048624,167.448467 131.108813,167.665042 130.156668,167.665042 L130.156668,167.665042 Z M124.65495,161.633479 L129.132003,164.226469 C129.634715,164.525432 130.686021,164.525432 131.203534,164.226469 L135.666279,161.647785 L131.203534,159.054795 C130.686021,158.756325 129.649022,158.756325 129.132003,159.054795 L124.65495,161.633479 Z" id="Fill-115" fill="#14100D"></path>
                <path d="M88.7898886,238.38757 L88.7898886,232.302726 L88.6922074,232.302726 C85.5289171,232.348113 82.5669092,231.865628 79.7691831,230.311609 L10.5887344,190.299342 C8.98883574,189.32845 7.80383522,188.277145 7.2572155,186.450803 L7.2572155,192.535648 C7.80383522,194.375803 8.98883574,195.413295 10.5887344,196.398493 L79.7691831,236.410761 C82.5669092,237.950965 85.5289171,238.445784 88.6922074,238.38757 L88.7898886,238.38757 Z" id="Fill-117" fill="#14100D"></path>
                <path d="M88.3671956,240 C84.6567923,240 81.6804775,239.300445 78.9947394,237.804641 L9.78271702,197.775106 C8.17492489,196.789908 6.45415811,195.466773 5.72796296,192.986757 C5.674189,192.834315 5.66185552,192.688287 5.66185552,192.535845 L5.66185552,186.451001 C5.66185552,185.644391 6.24991573,184.976903 7.043205,184.869849 C7.8305742,184.744047 8.5799563,185.234426 8.7970255,186.001569 C9.14137619,187.186076 9.86263796,187.978379 11.4166561,188.91967 L80.5753979,228.922564 C82.8260109,230.178112 85.3637472,230.761239 88.6784926,230.695131 C89.0618171,230.721772 89.5521962,230.859906 89.8679332,231.15887 C90.1807102,231.4603 90.3849526,231.865825 90.3849526,232.302923 L90.3849526,238.387768 C90.3849526,239.247165 89.7169714,239.960533 88.8699082,240 L88.7771604,240 L88.3671956,240 Z M8.86954635,192.290656 C9.23856399,193.368602 9.94749228,194.13081 11.4166561,195.017341 L80.5753979,235.019742 C82.4742601,236.071047 84.5985783,236.641841 87.1772617,236.765669 L87.1772617,233.875688 C83.9873311,233.737553 81.3820073,233.028625 78.9947394,231.719797 L9.78271702,191.690262 C9.48375353,191.498353 9.1680165,191.306937 8.86954635,191.088388 L8.86954635,192.290656 Z" id="Fill-119" fill="#14100D"></path>
                <polygon id="Fill-121" fill="#FFFFFF" points="38.6666853 90.0217068 91.0671912 59.7652198 91.0671912 48.832332 38.6666853 79.0853656"></polygon>
                <path d="M91.5258979,60.5668958 L39.2058063,90.7745423 C39.0533645,90.8845569 38.866389,90.947211 38.6665867,90.947211 C38.1545007,90.947211 37.7396025,90.5342861 37.7396025,90.0217068 L37.7396025,79.085859 C37.7396025,78.7637086 37.9043778,78.4568516 38.2028479,78.2827029 L90.5500732,48.062723 C90.6961015,47.9606018 90.8751836,47.9018945 91.0670925,47.9018945 C91.5796719,47.9018945 91.9925967,48.320246 91.9925967,48.8328253 L91.9925967,59.7652198 C91.9925967,60.0858902 91.8243681,60.3971872 91.5258979,60.5668958 L91.5258979,60.5668958 Z M39.5925842,88.4173681 L90.139615,59.2343869 L90.139615,50.4371641 L39.5925842,79.6201452 L39.5925842,88.4173681 Z" id="Fill-123" fill="#14100D"></path>
                <polygon id="Fill-125" fill="#14100D" points="91.0670432 59.7654171 107.282113 50.4057877 107.282113 39.4694466 91.0670432 48.8325293"></polygon>
                <path d="M107.745506,51.2022344 L91.5871706,60.5357168 C91.4362088,60.6329046 91.2586068,60.6955587 91.0671912,60.6955587 C90.5546119,60.6955587 90.1397137,60.2777005 90.1397137,59.7656145 L90.1397137,48.8327267 L90.1446471,48.8327267 C90.1446471,48.5120563 90.3094223,48.2007593 90.6083858,48.0310506 L106.747481,38.7168084 C106.898443,38.6053138 107.080978,38.5421664 107.281767,38.5421664 C107.793853,38.5421664 108.212205,38.9570646 108.212205,39.4696439 L108.212205,50.4054917 L108.207272,50.4054917 C108.207272,50.7212287 108.043976,51.0340057 107.745506,51.2022344 L107.745506,51.2022344 Z M91.9926954,58.1612757 L106.354783,49.8712055 L106.354783,41.0725026 L91.9926954,49.3635595 L91.9926954,58.1612757 Z" id="Fill-127" fill="#14100D"></path>
                <path d="M44.083598,82.1452521 C43.6376194,82.4027751 43.0717595,82.2523067 42.8186765,81.8058348 C42.5591802,81.3657763 42.7116219,80.7999164 43.1516804,80.5409133 L58.6139145,71.619369 C59.055453,71.3598727 59.6213129,71.5123145 59.878836,71.9523729 C60.1333989,72.3988448 59.9824372,72.9647048 59.5408987,73.2172944 L44.083598,82.1452521 Z" id="Fill-129" fill="#14100D"></path>
                <path d="M85.6358237,110.444959 C85.1913252,110.703962 84.6254652,110.552013 84.3709023,110.107022 C84.1128859,109.665483 84.2638477,109.099623 84.7053862,108.8421 L106.849405,96.0577107 C107.289957,95.8031477 107.855323,95.9541095 108.11482,96.395648 C108.367903,96.8371865 108.221381,97.4030464 107.775403,97.6605694 L85.6358237,110.444959 Z" id="Fill-131" fill="#14100D"></path>
                <path d="M85.6358237,103.767614 C85.1957652,104.022177 84.6254652,103.869735 84.3709023,103.429677 C84.1128859,102.988138 84.2638477,102.417838 84.7103196,102.164755 L106.643683,89.495314 C107.085221,89.242231 107.656014,89.3931928 107.910577,89.8347313 C108.1681,90.2747898 108.017139,90.8450898 107.57116,91.0996528 L85.6358237,103.767614 Z" id="Fill-133" fill="#14100D"></path>
                <path d="M39.1303254,151.865266 C38.6887869,152.122789 38.122927,151.97232 37.865404,151.527328 C37.610841,151.08579 37.7613094,150.51993 38.2028479,150.260434 L106.818423,110.646291 C107.262922,110.391728 107.828782,110.544169 108.083345,110.983735 C108.340868,111.425766 108.190399,111.991133 107.748368,112.249149 L39.1303254,151.865266 Z" id="Fill-135" fill="#14100D"></path>
                <path d="M63.870492,89.1164789 C61.6879598,89.1164789 59.2015307,89.8377407 56.5616732,91.3621585 C51.8828452,94.0622034 47.6430889,98.7119244 44.5597196,104.044427 C41.4763502,109.385809 39.5656478,115.390239 39.5656478,120.785396 L39.5705812,120.785396 C39.5705812,123.859392 40.1847884,126.384795 41.2770412,128.27379 C42.0343167,129.591992 43.0279016,130.602844 44.2129022,131.289572 C45.3880359,131.966926 46.7600119,132.318677 48.2844298,132.318677 C50.4797888,132.318677 52.9706579,131.591002 55.6297556,130.059184 C60.2937835,127.368513 64.5434065,122.713858 67.6312159,117.372476 C70.7052118,112.039974 72.6159248,106.049357 72.6159248,100.644827 C72.6188742,97.5900713 72.004667,95.0725619 70.9094542,93.1835664 C70.1472453,91.860431 69.1492203,90.8451391 67.9597798,90.1584111 C66.7747792,89.4731631 65.3949098,89.1164789 63.870492,89.1164789 M55.6391291,89.7622598 C58.5744967,88.0651733 61.3717294,87.2639906 63.870492,87.2684123 C65.728407,87.2684123 67.4254935,87.7084891 68.891204,88.5555523 C70.3529677,89.4026156 71.5818754,90.6487901 72.512313,92.2610223 C73.7649009,94.426781 74.4688958,97.250654 74.4639625,100.644827 L74.4688958,100.644827 C74.4688958,106.374961 72.4634724,112.700061 69.2296346,118.29946 C65.9953035,123.903299 61.5103577,128.803143 56.5522997,131.663523 C53.5947318,133.369983 50.7876324,134.176099 48.2844298,134.176099 C46.4349015,134.176099 44.7466951,133.73456 43.2804913,132.887497 C41.8256343,132.046847 40.5996866,130.803633 39.6727024,129.194854 C38.4215945,127.021202 37.7131595,124.187956 37.7131595,120.785396 L37.7175996,120.785396 C37.7175996,115.055755 39.723023,108.721281 42.9598208,103.116949 C46.1897119,97.5224838 50.6716977,92.6270799 55.6391291,89.7622598" id="Fill-137" fill="#14100D"></path>
                <path d="M56.0977864,90.5606305 C65.7154322,85.0135256 73.5462037,89.5359651 73.5412727,100.644975 C73.5412727,101.96811 73.430269,103.330713 73.2161599,104.704169 L72.9852772,105.892623 L56.0568393,110.655319 L51.3079571,94.1422723 L51.326704,94.0791249 C52.8417484,92.7076422 54.4446071,91.5177083 56.0977864,90.5606305" id="Fill-139" fill="#14100D"></path>
                <path d="M63.870492,89.1164587 C61.6879598,89.1120389 59.2015307,89.8377407 56.5616732,91.3621585 C55.780224,91.8115904 55.0012416,92.3236764 54.2311393,92.8944697 C53.5853584,93.370542 52.956351,93.8747345 52.3515173,94.4045807 L56.6948747,109.510131 L72.1837491,105.158386 L72.3031372,104.556513 C72.4052584,103.884092 72.4822193,103.21611 72.5359932,102.560463 C72.5892739,101.924055 72.6159248,101.283208 72.6159248,100.644827 C72.6188742,97.5900713 72.004667,95.0725619 70.9094542,93.1791264 C70.1472453,91.860431 69.1492203,90.8451391 67.9597798,90.1584111 C66.7747792,89.4731631 65.3949098,89.1164587 63.870492,89.1164587 M55.6391291,89.7622598 C58.5744967,88.0651733 61.3717294,87.2639906 63.870492,87.2684123 C65.7328471,87.2684123 67.4254935,87.7084891 68.891204,88.5555523 C70.3529677,89.4026156 71.5818754,90.6487901 72.512313,92.2610223 C73.7649009,94.426781 74.4688958,97.250654 74.4639625,100.644827 L74.4688958,100.644827 C74.4688958,101.317742 74.4417622,102.00891 74.3840415,102.708464 C74.3307609,103.415419 74.2454132,104.129281 74.1339186,104.840676 C74.0273573,105.43811 73.9030359,106.035543 73.7821678,106.632484 L55.4205798,111.794784 C53.7279334,105.911222 52.0387403,100.03062 50.3460939,94.1500177 L50.501989,93.5797177 L50.7077114,93.3927422 C51.5044541,92.6714805 52.3155035,92.0034993 53.1359265,91.4016256 C53.9420426,90.804192 54.779239,90.2575722 55.6391291,89.7622598" id="Fill-141" fill="#14100D"></path>
                <path d="M51.3080064,94.142223 C44.3637653,100.418483 39.3519333,110.299079 38.7155259,119.025261 C37.9000364,130.469248 44.8413175,136.1091 54.3065215,131.806197 C54.8329143,124.857515 55.5714429,117.617271 56.0568886,110.655269 C54.5734179,105.078564 52.8324243,99.7366884 51.3080064,94.142223" id="Fill-143" fill="#DD784B"></path>
                <path d="M41.8160141,105.260508 C44.0646538,100.815029 47.1258229,96.6769006 50.6887179,93.4553963 L51.8076109,92.4450378 L52.2037622,93.8969348 C52.9487043,96.62362 53.7059798,99.1756632 54.4617753,101.723266 C55.3137719,104.60042 56.1687286,107.474614 56.9526444,110.418368 L56.9886582,110.565876 L56.9792847,110.713878 C56.7074549,114.610764 56.3695176,118.472129 56.0301003,122.3256 C55.750377,125.569305 55.4647337,128.803143 55.2333577,131.872699 L55.1929038,132.420798 L54.689698,132.647241 C52.101641,133.824348 49.6689859,134.30042 47.5047073,134.145019 C45.6206453,134.011324 43.9358923,133.404517 42.515569,132.375411 C41.0977124,131.350746 39.949219,129.917596 39.1332361,128.121348 C38.0330899,125.698067 37.5303774,122.602364 37.7928338,118.962508 C38.1184376,114.477562 39.5624411,109.71092 41.8160141,105.260508 M50.8268528,95.8693045 C47.905792,98.7656984 45.3833492,102.307873 43.4691935,106.093264 C41.321195,110.33006 39.949219,114.856446 39.6428554,119.091269 C39.4055593,122.415388 39.8421644,125.207687 40.8229225,127.364073 C41.5032372,128.861357 42.4445282,130.046357 43.5935149,130.874674 C44.7346083,131.699537 46.0967175,132.183502 47.6334688,132.294997 C49.3670624,132.420798 51.3172319,132.064114 53.4247765,131.177584 C53.6556592,128.147988 53.9195956,125.158847 54.182052,122.165265 C54.5249227,118.29946 54.86434,114.423788 55.121863,110.740518 C54.3552141,107.875698 53.5219643,105.064159 52.6847679,102.244726 C52.0528005,100.110541 51.416393,97.9768491 50.8268528,95.8693045" id="Fill-145" fill="#14100D"></path>
                <path d="M73.1769394,119.617859 C72.7354009,119.872422 72.169541,119.719981 71.916458,119.275482 C71.661895,118.83345 71.8128568,118.268084 72.2543953,118.013521 L75.4714596,116.160539 C75.911518,115.907456 76.4768846,116.058418 76.731941,116.499956 C76.9845306,116.944948 76.8340622,117.505875 76.3920303,117.760438 L73.1769394,119.617859 Z" id="Fill-147" fill="#14100D"></path>
                <path d="M73.8888771,87.3564423 C73.4443785,87.6110053 72.8829586,87.4600435 72.6283957,87.014065 C72.3753127,86.5740065 72.5262745,86.0081466 72.967813,85.7535836 L76.7443238,83.5754915 C77.1858623,83.3209285 77.7517222,83.4733703 78.0062852,83.9178688 C78.2593682,84.3594073 78.1084064,84.9252672 77.6619345,85.1783502 L73.8888771,87.3564423 Z" id="Fill-149" fill="#14100D"></path>
                <path d="M31.4582117,128.21084 C31.0137132,128.465403 30.4522933,128.312961 30.1977303,127.872903 C29.9402073,127.426431 30.0956091,126.861064 30.5371476,126.607981 L34.1676301,124.513263 C34.6076885,124.26018 35.1730552,124.411142 35.4281115,124.852681 C35.6821811,125.297179 35.5297393,125.863039 35.0896808,126.117602 L31.4582117,128.21084 Z" id="Fill-151" fill="#14100D"></path>
                <path d="M58.1329089,102.417641 C59.0238793,102.334267 59.8349288,102.502495 60.5295502,102.903087 L60.5295502,102.90802 C61.2241717,103.286905 61.7727648,103.901112 62.1417824,104.707228 C62.4767597,105.44773 62.6588018,106.348074 62.6588018,107.372739 C62.6588018,108.356457 62.4940265,109.393456 62.1876629,110.418121 C61.879326,111.45216 61.425454,112.481759 60.8645275,113.433903 L60.8595941,113.433903 C60.2937341,114.409728 59.6306864,115.315005 58.8951178,116.094481 C58.1689226,116.864583 57.3677399,117.519738 56.5206767,118.010117 L56.5157433,118.010117 C55.6297063,118.522696 54.7574828,118.811793 53.9498867,118.887274 C53.0677963,118.972128 52.2572402,118.802419 51.584819,118.391961 C50.8897042,118.010117 50.3381511,117.394429 49.9720935,116.58782 C49.6341562,115.849291 49.4471807,114.948948 49.4471807,113.929216 C49.4471807,112.948457 49.6154093,111.910965 49.9232529,110.88186 C50.2315899,109.852261 50.6810218,108.828089 51.2370149,107.880385 C51.781168,106.916894 52.4491491,106.008656 53.1935978,105.224247 C53.9276864,104.444771 54.7431759,103.781724 55.5936925,103.291345 L55.5936925,103.286905 C56.4767695,102.779259 57.3361662,102.494602 58.1329089,102.417641 L58.1329089,102.417641 Z M59.6040461,104.507919 C59.2424285,104.298743 58.80089,104.213889 58.3075509,104.257796 C57.7732647,104.311077 57.171391,104.517292 56.5206767,104.891243 L56.5157433,104.891243 C55.8304953,105.287395 55.1580741,105.838948 54.5423869,106.494102 C53.9010461,107.167017 53.3272927,107.950932 52.8541805,108.788622 L52.8448071,108.805889 C52.3593614,109.630752 51.9681435,110.517282 51.7007537,111.413186 C51.4432307,112.26765 51.3046024,113.12754 51.3046024,113.929216 C51.3046024,114.686491 51.4289238,115.327832 51.6519131,115.822651 C51.8566488,116.26715 52.1378521,116.592753 52.4802295,116.774796 L52.5335101,116.806369 C52.863554,117.012092 53.291279,117.092506 53.7767246,117.046625 C54.3253177,116.993345 54.9395249,116.784169 55.5936925,116.405778 C56.2804206,116.009627 56.9385349,115.465967 57.545342,114.824626 C58.1911229,114.142831 58.7742497,113.350529 59.2646288,112.503466 L59.2690688,112.494092 C59.7545145,111.670709 60.1462258,110.779739 60.4101622,109.888768 C60.6676852,109.024438 60.8107535,108.164548 60.8107535,107.372739 C60.8107535,106.618423 60.684952,105.977083 60.4590027,105.47881 C60.2577204,105.032832 59.9730637,104.704268 59.6306864,104.520252 L59.6040461,104.507919 Z" id="Fill-153" fill="#14100D"></path>
                <path d="M58.1329089,102.417641 C59.0238793,102.334267 59.8349288,102.502495 60.5295502,102.903087 L60.5295502,102.90802 C61.2241717,103.286905 61.7727648,103.901112 62.1417824,104.707228 C62.4767597,105.44773 62.6588018,106.348074 62.6588018,107.372739 C62.6588018,108.356457 62.4940265,109.393456 62.1876629,110.418121 C61.879326,111.45216 61.425454,112.481759 60.8645275,113.433903 L60.8595941,113.433903 C60.2937341,114.409728 59.6306864,115.315005 58.8951178,116.094481 C58.1689226,116.864583 57.3677399,117.519738 56.5206767,118.010117 L56.5157433,118.010117 C55.6297063,118.522696 54.7574828,118.811793 53.9498867,118.887274 C53.0677963,118.972128 52.2572402,118.802419 51.584819,118.391961 C50.8897042,118.010117 50.3381511,117.394429 49.9720935,116.58782 C49.6341562,115.849291 49.4471807,114.948948 49.4471807,113.929216 C49.4471807,112.948457 49.6154093,111.910965 49.9232529,110.88186 C50.2315899,109.852261 50.6810218,108.828089 51.2370149,107.880385 C51.781168,106.916894 52.4491491,106.008656 53.1935978,105.224247 C53.9276864,104.444771 54.7431759,103.781724 55.5936925,103.291345 L55.5936925,103.286905 C56.4767695,102.779259 57.3361662,102.494602 58.1329089,102.417641 L58.1329089,102.417641 Z M59.6040461,104.507919 C59.2424285,104.298743 58.80089,104.213889 58.3075509,104.257796 C57.7732647,104.311077 57.171391,104.517292 56.5206767,104.891243 L56.5157433,104.891243 C55.8304953,105.287395 55.1580741,105.838948 54.5423869,106.494102 C53.9010461,107.167017 53.3272927,107.950932 52.8541805,108.788622 L52.8448071,108.805889 C52.3593614,109.630752 51.9681435,110.517282 51.7007537,111.413186 C51.4432307,112.26765 51.3046024,113.12754 51.3046024,113.929216 C51.3046024,114.686491 51.4289238,115.327832 51.6519131,115.822651 C51.8566488,116.26715 52.1378521,116.592753 52.4802295,116.774796 L52.5335101,116.806369 C52.863554,117.012092 53.291279,117.092506 53.7767246,117.046625 C54.3253177,116.993345 54.9395249,116.784169 55.5936925,116.405778 C56.2804206,116.009627 56.9385349,115.465967 57.545342,114.824626 C58.1911229,114.142831 58.7742497,113.350529 59.2646288,112.503466 L59.2690688,112.494092 C59.7545145,111.670709 60.1462258,110.779739 60.4101622,109.888768 C60.6676852,109.024438 60.8107535,108.164548 60.8107535,107.372739 C60.8107535,106.618423 60.684952,105.977083 60.4590027,105.47881 C60.2577204,105.032832 59.9730637,104.704268 59.6306864,104.520252 L59.6040461,104.507919 Z" id="Fill-155" fill="#14100D"></path>
                <polygon id="Fill-157" fill="#05B173" points="84.1350368 76.946642 107.282014 63.5825791 107.282014 72.6027912 84.1350368 85.9673474"></polygon>
                <path d="M106.354685,65.1855858 L85.062169,77.4810762 L85.062169,84.3641434 L106.354685,72.0735863 L106.354685,65.1855858 Z M83.7296601,76.1140336 L106.818423,62.7810511 C107.262922,62.5264881 107.828782,62.6739965 108.083345,63.1189883 C108.168199,63.2664967 108.207173,63.4223919 108.207173,63.5827271 L108.212106,63.5827271 L108.212106,72.6029392 C108.212106,72.9773836 107.990597,73.2975607 107.668447,73.4455624 L84.5939902,86.7686781 C84.1524517,87.0232411 83.5865918,86.8707993 83.3335088,86.4263008 C83.2486545,86.2827391 83.2082007,86.1228972 83.2082007,85.9670021 L83.2082007,76.94679 C83.2082007,76.5807324 83.4183631,76.264502 83.7296601,76.1140336 L83.7296601,76.1140336 Z" id="Fill-159" fill="#14100D"></path>
                <path d="M205.045741,108.652461 C205.454719,108.120148 205.658961,107.564648 205.659457,106.996321 C205.662415,104.89371 202.815355,103.016061 198.39849,102.212905 C196.977673,101.951929 195.475456,101.820701 193.929331,101.818693 C192.388633,101.816261 190.883455,101.946502 189.455732,102.200079 C186.599299,102.709698 184.283072,103.71463 183.099058,104.964257 C182.491264,105.600172 182.182434,106.271606 182.184398,106.966721 C182.18342,107.660849 182.487811,108.334257 183.093631,108.972144 C184.280111,110.221772 186.590418,111.236571 189.442412,111.752604 C190.864708,112.008647 192.371366,112.142835 193.915024,112.144843 C195.458189,112.147275 196.966326,112.019993 198.38813,111.76247 C201.238643,111.256798 203.55783,110.248906 204.747764,109.002238 C204.854819,108.886303 204.95694,108.767902 205.045741,108.652461" id="Fill-161" fill="#0083C3"></path>
                <path d="M165.337863,5.01720915 L172.16469,1.0862832 L172.396066,1.02510915 L172.627935,0.970348513 L172.829218,0.940254828 L173.093647,0.923974638 L173.32009,0.923974638 L173.57564,0.941241506 L173.837109,0.980708634 L174.093646,1.040896 L174.350182,1.11933692 L174.628425,1.21307135 L174.892362,1.33196607 L175.173565,1.46171426 L175.460195,1.61958277 L212.793138,23.2648358 C214.748241,24.4631565 216.033389,26.2179636 217.030921,28.2426273 C217.827664,29.9357671 218.261309,31.4878119 218.288936,33.3565804 L218.138961,119.383079 C218.111334,120.83251 217.852824,122.199552 216.697424,123.189684 L209.864677,127.121597 C211.021064,126.128505 211.287467,124.763929 211.311641,123.314499 L211.456189,37.2884931 C211.434482,35.4113378 210.973704,33.8587996 210.207055,32.1735533 C209.200643,30.1414895 207.916481,28.3871757 205.968778,27.1967484 L168.635835,5.54853536 L168.346739,5.39362689 L168.061095,5.2525319 L167.804066,5.14498398 L167.526316,5.05026287 L167.269779,4.97330197 L167.00831,4.91262126 L166.751773,4.87315414 L166.496224,4.8475005 L166.261888,4.8475005 L166.007818,4.86378069 L165.773482,4.89436772 L165.572199,4.94863502 L165.337863,5.01720915 Z" id="Fill-163" fill="#3D68EC"></path>
                <path d="M209.120278,127.655291 C208.864235,127.266046 208.920476,126.740147 209.276666,126.428356 C210.054169,125.771229 210.364972,124.861511 210.41332,123.31292 L210.557868,37.3036879 C210.535668,35.6963891 210.181944,34.2765592 209.384708,32.5700992 C208.331922,30.4102607 207.099068,28.9425768 205.505089,27.9785922 L168.191386,6.3471527 L167.960503,6.21395114 L166.315217,5.76254587 L165.617636,5.88588064 C165.160804,6.02598894 164.695092,5.80793306 164.51601,5.37971472 C164.331994,4.95248306 164.486903,4.45667727 164.898841,4.22628791 L171.90919,0.217414379 C172.957042,-0.142723165 173.547075,-0.0504687529 174.441992,0.457177181 L213.285047,22.4827947 C215.182429,23.6480616 216.623966,25.3486015 217.851887,27.8666043 C218.772951,29.8296005 219.159729,31.4724197 219.211529,33.3579618 L219.03738,119.406661 C219.012713,120.811691 218.801564,122.586725 217.153318,123.981394 L210.329452,127.912814 C210.17553,127.990268 210.018155,128.036642 209.86374,128.036642 C209.585497,128.036642 209.295907,127.90344 209.120278,127.655291 L209.120278,127.655291 Z M175.015746,2.41524007 C174.092708,1.89279396 173.313233,1.7216053 172.904748,1.95446135 L168.296467,4.37083626 L206.4523,26.4147073 C208.358562,27.5799742 209.799606,29.2795274 211.029007,31.7871701 C211.957964,33.7590465 212.335862,35.4048257 212.387663,37.2898744 L212.213021,123.330187 C212.212527,123.795899 212.18934,124.291705 212.086726,124.803791 L216.100533,122.505324 C216.878035,121.839316 217.179959,120.933545 217.237679,119.381994 L217.387655,33.3717753 C217.359534,31.7733566 217.00581,30.3535267 216.231268,28.6470667 C215.155788,26.4813081 213.923427,25.019051 212.328955,24.0555597 L175.015746,2.41524007 Z" id="Fill-165" fill="#14100D"></path>
                <path d="M205.79981,127.030378 L168.463907,105.382658 C165.434805,103.625385 162.965642,99.0911048 162.97106,95.2815403 L163.122031,9.26392146 C163.127458,5.45534361 165.596126,3.79131082 168.636082,5.5485847 L205.969025,27.1967978 C209.001087,28.9535783 211.461369,33.487858 211.455951,37.2885424 L211.311887,123.314055 C211.306461,127.114739 208.837792,128.787652 205.79981,127.030378" id="Fill-167" fill="#3D68EC"></path>
                <path d="M205.341794,127.812419 L205.341794,127.812419 L167.99701,106.1721 C164.711865,104.265837 162.042901,99.3842469 162.072743,95.2806523 L162.223463,9.26254011 C162.226916,7.00600707 163.019712,5.24527982 164.462729,4.42584357 C165.775505,3.67596814 167.420297,3.78548942 169.095183,4.75786079 L206.428126,26.4055805 C209.724125,28.3123361 212.393089,33.1939265 212.387671,37.2896277 L212.213021,123.315633 C212.210061,125.573153 211.408385,127.332894 209.971288,128.15233 C209.397041,128.47744 208.76014,128.63778 208.085252,128.63778 C207.216976,128.63778 206.286045,128.364959 205.341794,127.812419 L205.341794,127.812419 Z M166.337418,5.76229706 C165.981227,5.76229706 165.64773,5.84666018 165.361593,6.00995542 C164.514036,6.49885447 164.046844,7.67546823 164.044871,9.26500681 L163.872196,95.283119 C163.867762,98.7503062 166.179549,103.002889 168.930901,104.591441 L206.266805,126.237681 C207.344257,126.867182 208.352149,126.987063 209.066504,126.569205 C209.921461,126.079319 210.411346,124.894812 210.41332,123.313167 L210.557874,37.287161 C210.562308,33.8278673 208.256441,29.5673908 205.505089,27.9788389 L168.191386,6.3325992 C167.525378,5.96012818 166.905251,5.76229706 166.337418,5.76229706 L166.337418,5.76229706 Z" id="Fill-169" fill="#14100D"></path>
                <path d="M162.972549,94.2511029 L163.122031,9.26357612 C163.127458,5.45549161 165.596126,3.79145882 168.636082,5.5487327 L205.969025,27.1964524 C209.001087,28.9537263 211.461369,33.488006 211.455951,37.2886904 L211.313367,122.267337 L162.972549,94.2511029 Z" id="Fill-171" fill="#F4D9DC"></path>
                <path d="M210.84953,123.057864 L162.514632,95.0421228 C162.228002,94.8783343 162.074079,94.575424 162.074079,94.2498202 L162.223562,9.26229344 C162.227015,7.0057604 163.019811,5.24552649 164.462828,4.43447701 C165.775603,3.66733471 167.420396,3.78524275 169.094789,4.75810746 L206.428225,26.4058272 C209.724224,28.3120895 212.393188,33.1936799 212.387278,37.2898744 L212.214599,122.268521 C212.214106,122.602018 212.059198,122.897035 211.777994,123.059344 C211.623086,123.135811 211.468671,123.182185 211.312282,123.182185 C211.157374,123.182185 211.002959,123.134825 210.84953,123.057864 M166.337516,5.76254373 C165.981326,5.76254373 165.647828,5.84690685 165.361692,6.00970875 C164.514135,6.4986078 164.046943,7.6757149 164.044476,9.26525348 L163.874768,93.7313208 L210.417365,120.683916 L210.557481,37.2874077 C210.562407,33.8281139 208.25654,29.5671441 205.505188,27.9785922 L168.191485,6.33284587 C167.524984,5.96037484 166.904856,5.76254373 166.337516,5.76254373" id="Fill-173" fill="#14100D"></path>
                <path d="M217.008671,28.1599437 L217.030872,28.2428247 C217.827614,29.9354711 218.261259,31.4880093 218.288886,33.3562844 L218.138911,119.383277 C218.111284,120.832707 217.852775,122.205176 216.697374,123.189388 L209.864628,127.121794 C211.021508,126.128702 211.287418,124.763633 211.312085,123.314203 L211.45614,37.2886904 C211.434433,35.4199219 211.003748,33.8585036 210.207005,32.1737506 L210.184805,32.0888963 L217.008671,28.1599437 Z" id="Fill-175" fill="#14100D"></path>
                <path d="M209.120278,127.655291 C208.864235,127.266046 208.920476,126.740147 209.276666,126.428356 C210.054169,125.771229 210.364972,124.861511 210.41332,123.31292 L210.557868,37.3086213 C210.513467,35.688989 210.181944,34.2686658 209.352147,32.492645 C209.129158,32.0654133 209.30676,31.5365538 209.720178,31.296791 L216.544045,27.3658651 C216.775421,27.2331568 217.056624,27.2499304 217.288,27.3283713 C217.544536,27.4053322 217.753219,27.6233881 217.851887,27.8577241 C218.772951,29.8212138 219.159729,31.4590996 219.211529,33.3579618 L219.03738,119.406661 C219.012713,120.811691 218.801564,122.586725 217.153318,123.981394 L210.329452,127.912814 C210.17553,127.990268 210.018155,128.036642 209.86374,128.036642 C209.585497,128.036642 209.295907,127.90344 209.120278,127.655291 M216.563778,29.4541695 L211.339317,32.462058 C212.028019,34.1394109 212.335369,35.6056147 212.387663,37.2898744 L212.213021,123.330187 C212.212527,123.795899 212.18934,124.291705 212.086726,124.803791 L216.100533,122.505324 C216.878035,121.839316 217.179959,120.933545 217.237679,119.381994 L217.387655,33.3806554 C217.359041,32.0298929 217.103985,30.8113453 216.563778,29.4541695" id="Fill-177" fill="#14100D"></path>
                <path d="M214.69052,66.0963889 C215.2031,66.0968818 215.614544,65.6834636 215.615531,65.1876579 L215.627373,56.5394234 C215.628358,56.0347375 215.217406,55.6237861 214.70532,55.6232909 C214.213955,55.622306 213.803003,56.0322708 213.80251,56.5369567 L213.790668,65.1851912 C213.789683,65.680997 214.199648,66.0958951 214.69052,66.0963889" id="Fill-179" fill="#14100D"></path>
                <path d="M214.710501,51.7672561 C215.22308,51.767749 215.634525,51.3582775 215.635511,50.8535916 L215.647353,42.2053572 C215.648338,41.7065914 215.237387,41.2956399 214.725301,41.2951448 C214.233935,41.2941599 213.822983,41.7041247 213.82249,42.2028905 L213.810648,50.8511249 C213.809663,51.3558108 214.219628,51.7667623 214.710501,51.7672561" id="Fill-181" fill="#14100D"></path>
                <path d="M189.683359,114.671791 C189.992682,114.672283 190.303979,114.501588 190.458888,114.215944 C190.715424,113.774899 190.562489,113.215453 190.127364,112.966316 L182.63897,108.634799 C182.229005,108.386649 181.664132,108.525771 181.406609,108.969776 C181.150072,109.401941 181.303007,109.961388 181.738626,110.218418 L189.226527,114.547468 C189.349861,114.624922 189.52697,114.671791 189.683359,114.671791" id="Fill-183" fill="#14100D"></path>
                <path d="M170.27234,10.5008213 L170.27234,10.5008213 C170.808599,10.8126116 171.248658,11.6261277 171.247673,12.3020023 C171.247178,12.985277 170.805146,13.2793071 170.268886,12.9675168 C169.72572,12.6576998 169.269875,11.8496104 169.27086,11.1663357 C169.271848,10.4904611 169.729173,10.1880443 170.27234,10.5008213" id="Fill-185" fill="#7BCCEC"></path>
                <path d="M169.80204,13.7572047 C168.981123,13.2766924 168.362476,12.164706 168.363953,11.165201 C168.364943,10.4893265 168.652559,9.93826668 169.140965,9.65213 C169.607171,9.38375353 170.196218,9.40595379 170.70781,9.70985067 C171.528726,10.190363 172.150827,11.3028426 172.14935,12.302841 C172.14836,12.9777289 171.866664,13.5287886 171.369378,13.8149253 C171.169082,13.9466469 170.912053,13.9989408 170.680677,13.9984509 C170.368393,13.9979541 170.08275,13.9200066 169.80204,13.7572047 L169.80204,13.7572047 Z" id="Fill-187" fill="#14100D"></path>
                <path d="M179.550272,70.8007726 C179.861569,70.8012648 180.173853,70.6394496 180.349975,70.3528196 C180.615391,69.9176945 180.46147,69.3523279 180.018451,69.103685 L172.663258,64.8723155 C172.252307,64.6226859 171.687434,64.7716743 171.430897,65.2117328 C171.173868,65.6468579 171.327296,66.2043311 171.761434,66.4524806 L179.08752,70.6843434 C179.240949,70.7701844 179.395857,70.8007726 179.550272,70.8007726" id="Fill-189" fill="#14100D"></path>
                <path d="M179.530045,85.3312371 C179.841342,85.3317293 180.153626,85.161034 180.329748,84.8714439 C180.595164,84.4313855 180.441243,83.8798324 179.998224,83.6228027 L172.643031,79.3929132 C172.23208,79.1442703 171.667207,79.2922721 171.41067,79.7244371 C171.153641,80.1684423 171.307069,80.7249288 171.741208,80.9735717 L179.067293,85.2034612 C179.220722,85.2888088 179.37563,85.3312371 179.530045,85.3312371" id="Fill-191" fill="#14100D"></path>
                <path d="M205.20652,35.0611174 C205.540017,35.0616097 205.851314,34.8909144 206.006223,34.5963909 C206.262759,34.1642259 206.108837,33.6037927 205.674699,33.3556431 L203.5119,32.1099619 C203.101936,31.8553989 202.534102,32.0093207 202.279539,32.4444458 C202.023496,32.8771042 202.176431,33.4449375 202.608596,33.6935804 L204.773862,34.9363016 C204.906077,35.0142491 205.059505,35.0611174 205.20652,35.0611174" id="Fill-193" fill="#14100D"></path>
                <path d="M200.912595,32.571975 C201.224386,32.5724673 201.533216,32.410652 201.691084,32.1151419 C201.947127,31.6829769 201.791726,31.1235303 201.3566,30.8665007 L199.194789,29.6237795 C198.783837,29.3751366 198.218964,29.5201782 197.962427,29.9631968 C197.704904,30.3953618 197.858826,30.955795 198.294445,31.2044379 L200.455763,32.4466658 C200.610178,32.5330001 200.766567,32.571975 200.912595,32.571975" id="Fill-195" fill="#14100D"></path>
                <path d="M196.595286,30.0857433 C196.906583,30.0862355 197.209987,29.9234336 197.394989,29.6289102 C197.630312,29.1937851 197.49859,28.6343386 197.057545,28.3773089 L194.900666,27.1345877 C194.466528,26.8938382 193.901655,27.0309865 193.635252,27.474005 C193.403382,27.9091301 193.535104,28.4666033 193.967269,28.7152462 L196.129574,29.9604341 C196.285962,30.0462751 196.440871,30.0857433 196.595286,30.0857433" id="Fill-197" fill="#14100D"></path>
                <path d="M203.165132,81.5996695 C203.474456,81.6001617 203.785753,81.4324264 203.964835,81.1428364 C204.189304,80.7017912 204.035382,80.1423447 203.600257,79.8937018 L199.926854,77.7886238 C199.485809,77.5399809 198.95103,77.6939027 198.694493,78.1260678 C198.42957,78.5606995 198.582505,79.1206394 199.026511,79.3692823 L202.69942,81.4743602 C202.853835,81.5513211 203.008744,81.5996695 203.165132,81.5996695" id="Fill-199" fill="#14100D"></path>
                <path d="M203.144905,96.1203166 C203.454229,96.1208088 203.765526,95.9589936 203.944608,95.65855 C204.169077,95.223425 204.015156,94.6718718 203.58003,94.4153355 L199.906627,92.3072975 C199.465582,92.0586546 198.930803,92.2071497 198.674266,92.6472082 C198.409343,93.0823333 198.562278,93.6393131 199.006284,93.890916 L202.679193,96.0038874 C202.833608,96.081835 202.988517,96.1203166 203.144905,96.1203166" id="Fill-201" fill="#14100D"></path>
                <path d="M203.205537,52.559066 C203.51486,52.5595582 203.826157,52.397743 204.005239,52.1022329 C204.229709,51.6592144 204.075787,51.1017412 203.673716,50.8535916 L199.991432,48.7450603 C199.556307,48.4969107 198.991434,48.6429391 198.734898,49.0770775 C198.469975,49.5181227 198.62291,50.0696758 199.066915,50.3257188 L202.739825,52.4337568 C202.89424,52.5195978 203.049148,52.559066 203.205537,52.559066" id="Fill-203" fill="#14100D"></path>
                <path d="M203.185359,67.0807984 C203.494683,67.0812907 203.80598,66.9165154 203.985062,66.6210053 C204.209531,66.1809468 204.055609,65.6293937 203.620484,65.372364 L199.947081,63.2667927 C199.506036,63.0186432 198.971257,63.1636849 198.71472,63.60473 C198.449797,64.0398551 198.602732,64.5988083 199.046737,64.8474512 L202.719647,66.9525291 C202.874062,67.0383702 203.028971,67.0807984 203.185359,67.0807984" id="Fill-205" fill="#14100D"></path>
                <path d="M179.590677,41.7662372 C179.901974,41.7667294 180.214257,41.6049142 180.390379,41.3103907 C180.655796,40.8663855 180.501874,40.3158191 180.058855,40.0617495 L172.703663,35.83186 C172.292711,35.5802571 171.727838,35.7203654 171.471302,36.1633839 C171.214272,36.6034424 171.367701,37.1638756 171.801839,37.4120252 L179.127925,41.6419146 C179.281353,41.7277556 179.436262,41.7662372 179.590677,41.7662372" id="Fill-207" fill="#14100D"></path>
                <path d="M179.57045,56.2879696 C179.881747,56.2884618 180.19403,56.1177665 180.370152,55.8321232 C180.635569,55.388118 180.481647,54.8316315 180.038629,54.5834819 L172.683436,50.3506324 C172.272484,50.0931094 171.707611,50.2499912 171.451075,50.6851163 C171.194045,51.1251748 171.347474,51.6767279 171.781612,51.9337576 L179.107698,56.163647 C179.261126,56.2485014 179.416035,56.2879696 179.57045,56.2879696" id="Fill-209" fill="#14100D"></path>
                <polygon id="Fill-211" fill="#05B173" points="170.420292 32.6695564 194.975259 46.9009094 194.961446 56.788905 170.406479 42.5614987"></polygon>
                <path d="M194.494796,57.5736102 L169.939829,43.3432438 C169.661093,43.1804419 169.482504,42.8770384 169.482996,42.5598213 L169.496811,32.6683724 C169.497304,32.3437553 169.676386,32.0492318 169.955616,31.8785365 C170.242739,31.7241213 170.576237,31.7246147 170.86484,31.8795232 L195.442007,46.1187696 C195.721237,46.2815715 195.905253,46.582015 195.90476,46.9021921 L195.890946,56.7896944 C195.890453,57.1098714 195.70545,57.4187017 195.42622,57.5750902 C195.269832,57.6604379 195.114923,57.6989183 194.960508,57.6989183 C194.803627,57.698425 194.649211,57.6594512 194.494796,57.5736102 L194.494796,57.5736102 Z M194.073485,47.4256249 L171.316245,34.2534709 L171.305392,42.0339219 L194.062631,55.2055825 L194.073485,47.4256249 Z" id="Fill-213" fill="#14100D"></path>
                <polygon id="Fill-215" fill="#05B173" points="170.40046 46.9119109 194.955427 61.1481973 194.941613 71.0307662 170.386646 56.7949731"></polygon>
                <path d="M194.474569,72.1011147 L169.919602,57.8648283 C169.640866,57.7025197 169.462277,57.4065162 169.462769,57.073019 L169.476584,47.1899568 C169.477077,46.8653397 169.656159,46.5619361 169.935389,46.4080143 C170.222512,46.2457058 170.55601,46.2461991 170.844613,46.409001 L195.42178,60.637394 C195.70101,60.8001959 195.885026,61.1035994 195.884533,61.4287099 L195.870719,71.3117721 C195.870226,71.6373759 195.685223,71.931406 195.405994,72.1025947 C195.249605,72.1790622 195.094697,72.2254361 194.940281,72.2254361 C194.7834,72.2249428 194.628984,72.1780756 194.474569,72.1011147 L194.474569,72.1011147 Z M194.053258,61.9472093 L171.296018,48.774562 L171.285165,56.5545196 L194.042404,69.7271669 L194.053258,61.9472093 Z" id="Fill-217" fill="#14100D"></path>
                <polygon id="Fill-219" fill="#05B173" points="170.380233 61.4394154 194.9352 75.6697817 194.921387 85.5528439 170.36642 71.3224776"></polygon>
                <path d="M194.454392,86.6140657 L169.899425,72.3866593 C169.620688,72.2228708 169.442099,71.9283473 169.442592,71.6007702 L169.456406,61.7172146 C169.4569,61.3916108 169.635982,61.0916606 169.915212,60.9298454 C170.202335,60.7645768 170.535832,60.7650702 170.824436,60.9308321 L195.401603,75.1582384 C195.680833,75.322027 195.864848,75.6244439 195.864356,75.950541 L195.850541,85.8331099 C195.850048,86.1582203 195.665046,86.4611305 195.385816,86.6155457 C195.229427,86.7008933 195.074519,86.7383871 194.920104,86.7383871 C194.763222,86.7378938 194.608807,86.6999067 194.454392,86.6140657 L194.454392,86.6140657 Z M194.03308,76.4764405 L171.275841,63.2958997 L171.264987,71.0758573 L194.022227,84.248998 L194.03308,76.4764405 Z" id="Fill-221" fill="#14100D"></path>
                <polygon id="Fill-223" fill="#05B173" points="170.360055 75.9553264 194.915022 90.1911195 194.901209 100.074675 170.346242 85.843322"></polygon>
                <path d="M194.434116,101.143593 L169.879148,86.9132265 C169.600412,86.7504246 169.421823,86.441101 169.422315,86.1214172 L169.43613,76.2334216 C169.436623,75.9137379 169.615705,75.6132944 169.894935,75.4485191 C170.182059,75.2862106 170.515556,75.2867039 170.804159,75.4495058 L195.381327,89.6798722 C195.660557,89.8426741 195.844572,90.1460776 195.84408,90.4721748 L195.830265,100.355237 C195.829772,100.679854 195.64477,100.982764 195.36554,101.145073 C195.209151,101.222527 195.054243,101.268901 194.899828,101.268901 C194.742946,101.268408 194.588531,101.22154 194.434116,101.143593 L194.434116,101.143593 Z M194.012804,90.9896875 L171.255565,77.8180268 L171.244711,85.5979844 L194.00195,98.7785252 L194.012804,90.9896875 Z" id="Fill-225" fill="#14100D"></path>
            </g>
        </g>
    </g>
</svg>