<?xml version="1.0" encoding="UTF-8"?><svg id="Layer_2" xmlns="http://www.w3.org/2000/svg" viewBox="0 0 511.86 515.57"><defs><style>.cls-1{opacity:.2;}.cls-1,.cls-2,.cls-3,.cls-4{fill-rule:evenodd;stroke-width:0px;}.cls-1,.cls-3{fill:#f8d754;}.cls-2{fill:#f4d9dc;}</style></defs><g id="Layer_1-2"><path class="cls-4" d="M283.39,493.85l-3.97,7.72c-3.4,6.11-10.68,8.72-17.2,9.95-6.3.97-11.87.79-18.04-.76-5.41-1.53-10.88-4.08-13.73-9.19l-3.96-7.72c17.81,5.28,39.09,5.28,56.9,0Z"/><path class="cls-4" d="M233.04,499.08l.48.91c1.86,3.34,5.56,5.72,11.62,7.46,5.5,1.38,10.64,1.59,16.55.68,7.49-1.41,12.47-4.17,14.73-8.22l.43-.82c-14.14,2.94-29.67,2.94-43.81,0h0ZM254.8,515.57c-3.85,0-7.56-.5-11.46-1.47-7.92-2.26-13.11-5.78-15.91-10.86l-4.02-7.78c-.62-1.23-.46-2.73.42-3.81.88-1.06,2.3-1.47,3.63-1.08,17.19,5.11,37.75,5.11,54.95,0,1.34-.38,2.75.03,3.63,1.08.88,1.09,1.05,2.58.41,3.81l-3.96,7.69c-3.37,6.05-9.97,9.95-19.67,11.77-2.81.41-5.46.65-8.04.65Z"/><path class="cls-4" d="M299.01,487.28c16.73-9.63,21.97-23.42,15.69-35.69l-11.95-23.25h-95.62l-11.95,23.25c-6.27,12.27-1.05,26.07,15.69,35.69,24.34,14.06,63.81,14.06,88.14,0Z"/><path class="cls-4" d="M299.01,487.28h.09-.09ZM209.25,431.77l-11,21.4c-5.67,11.06-.3,22.69,14.34,31.14,23.36,13.47,61.35,13.47,84.69,0,14.63-8.45,20-20.11,14.35-31.14l-11-21.4h-91.39ZM254.94,501.22c-16.59,0-33.17-3.67-45.79-10.95-17.93-10.33-24.45-25.74-17.04-40.24l11.96-23.28c.6-1.15,1.78-1.88,3.06-1.88h95.62c1.3,0,2.49.73,3.07,1.88l11.96,23.28c7.41,14.47.89,29.88-17.04,40.24h0c-12.63,7.28-29.21,10.95-45.8,10.95Z"/><path class="cls-1" d="M381.95,199.69c17.58,55.54-1.59,93.44-21.47,127.46-12.52,21.46-21.43,24.51-28.31,48.91-4.15,14.68-2.69,26.01-14.25,38.01-31.64,32.79-97.71,33.73-125.98,0-10.67-12.77-10.09-23.34-14.24-38.01-6.89-24.4-15.8-27.45-28.31-48.91-19.87-34.02-39.06-71.92-21.46-127.46,18.08-57.06,72.55-85.59,127-85.59s108.92,28.53,127.01,85.59Z"/><path class="cls-4" d="M254.94,117.53c-59.13,0-107.7,32.67-123.72,83.22-16.77,52.95.44,89.18,21.15,124.67,4.42,7.6,8.47,12.92,12.04,17.61,6.47,8.54,12.05,15.91,16.61,32.08,1.11,3.93,1.89,7.57,2.64,11.04,2.02,9.48,3.61,16.94,10.93,25.68,11.94,14.24,32,22.84,55.1,23.66,25.98.91,50.49-8.01,65.77-23.84,7.62-7.9,9-15.32,10.78-24.69.7-3.73,1.45-7.66,2.63-11.86,4.57-16.17,10.16-23.54,16.63-32.08,3.57-4.69,7.6-10.01,12.04-17.61,20.71-35.49,37.92-71.71,21.14-124.67-16.03-50.55-64.59-83.22-123.72-83.22h0ZM253.25,442.48c-1.27,0-2.55-.06-3.83-.09-25.03-.88-46.96-10.39-60.13-26.13-8.42-10.07-10.35-19.08-12.39-28.68-.71-3.31-1.47-6.81-2.53-10.62-4.22-14.91-9.18-21.46-15.48-29.77-3.68-4.84-7.86-10.36-12.49-18.29-21.55-36.87-39.4-74.59-21.76-130.24,16.95-53.48,68.09-88.03,130.29-88.03s113.34,34.55,130.29,88.03h0c17.63,55.66-.23,93.37-21.76,130.24-4.63,7.92-8.8,13.44-12.49,18.29-6.3,8.31-11.27,14.85-15.49,29.77-1.11,3.99-1.8,7.72-2.49,11.3-1.81,9.66-3.53,18.78-12.59,28.18-15.84,16.44-40.73,26.04-67.16,26.04Z"/><path class="cls-2" d="M290.74,464.59c19.78-11.42,19.78-29.91,0-41.36-19.77-11.39-51.85-11.39-71.61,0-19.76,11.45-19.76,29.94,0,41.36,19.77,11.42,51.84,11.42,71.61,0Z"/><path class="cls-4" d="M254.94,418.09c-12.35,0-24.7,2.7-34.08,8.13-8.45,4.9-13.11,11.15-13.11,17.7s4.65,12.8,13.11,17.67c18.78,10.86,49.37,10.86,68.17,0,8.44-4.87,13.08-11.15,13.08-17.67s-4.64-12.8-13.08-17.7c-9.41-5.43-21.76-8.13-34.09-8.13h0ZM254.94,476.53c-13.59,0-27.17-2.96-37.53-8.95-10.68-6.17-16.56-14.56-16.56-23.66s5.87-17.5,16.56-23.66c20.7-11.95,54.36-11.95,75.06,0,10.68,6.17,16.55,14.56,16.55,23.66s-5.87,17.49-16.55,23.66c-10.34,5.99-23.94,8.95-37.53,8.95Z"/><path class="cls-4" d="M299.01,468.2c16.73-9.66,21.97-23.46,15.69-35.66l-11.95-23.28h-95.62l-11.95,23.28c-6.27,12.21-1.05,26.01,15.69,35.66,24.34,14.06,63.81,14.06,88.14,0Z"/><path class="cls-4" d="M209.25,412.69l-11,21.4c-5.67,11.07-.3,22.69,14.34,31.15,23.36,13.47,61.35,13.47,84.69,0h0c14.63-8.46,20-20.08,14.35-31.15l-11-21.4h-91.39ZM254.94,482.14c-16.59,0-33.17-3.67-45.79-10.95-17.93-10.33-24.45-25.77-17.04-40.24l11.96-23.28c.6-1.14,1.78-1.88,3.06-1.88h95.62c1.3,0,2.49.73,3.07,1.88l11.96,23.28c7.41,14.47.89,29.88-17.04,40.24h0c-12.63,7.28-29.21,10.95-45.8,10.95Z"/><path class="cls-3" d="M299.53,375.58c24.63,14.21,24.63,37.28,0,51.49-24.63,14.24-64.55,14.24-89.18,0-24.64-14.21-24.64-37.28,0-51.49,24.63-14.21,64.56-14.21,89.18,0Z"/><path class="cls-4" d="M254.94,368.33c-15.53,0-31.04,3.4-42.87,10.25-10.8,6.22-16.75,14.29-16.75,22.75s5.95,16.53,16.75,22.75c23.65,13.68,62.11,13.65,85.74,0,10.79-6.22,16.75-14.3,16.75-22.75s-5.96-16.53-16.75-22.75h0c-11.82-6.84-27.35-10.25-42.87-10.25h0ZM254.94,441.13c-16.78,0-33.55-3.7-46.31-11.07-13.03-7.51-20.21-17.73-20.21-28.73s7.17-21.22,20.21-28.74c25.53-14.73,67.1-14.73,92.63,0,13.02,7.52,20.2,17.73,20.2,28.74s-7.18,21.22-20.2,28.73c-12.77,7.37-29.54,11.07-46.32,11.07Z"/><path class="cls-4" d="M317.93,403.09v21.92c-.24,4.11-2.18,8.6-4.53,11.95-8.61,12.27-26.3,18.79-40.51,21.22-20.73,3.52-46.78.97-64.79-10.54-7.43-4.76-14.43-11.86-15.94-20.9l-.22-1.73v-21.92c.32,2.58.69,4.43,1.73,6.9,5.54,13.12,21.78,20.93,34.7,24.39,22.78,6.1,53.25,4.23,73.4-8.66,7.43-4.76,14.46-11.86,15.96-20.9l.2-1.73Z"/><path class="cls-4" d="M195.4,419.32l.2,7.02c1.48,8.95,9.64,15.38,14.37,18.4,15.5,9.92,40,13.88,62.36,10.04,6.5-1.12,28.45-5.84,38.24-19.79,2.25-3.2,3.75-7.11,3.94-10.18v-5.61c-2.84,3.46-6.5,6.63-10.85,9.42-22.48,14.36-54.45,14.89-76.17,9.07-7.21-1.94-22.84-7.22-32.08-18.38h0ZM254.81,463.12c-16.07,0-34.11-3.32-48.57-12.56-9.83-6.28-16.05-14.53-17.47-23.25l-.25-1.88-.02-22.34c0-1.82,1.42-3.35,3.24-3.44,1.73-.18,3.4,1.21,3.62,3,.31,2.41.61,3.9,1.49,5.99,6.06,14.32,26.35,20.78,32.43,22.4,23.96,6.43,53.01,3.05,70.64-8.22,4.72-3.02,12.89-9.45,14.39-18.55l.19-1.58c.22-1.82,1.55-3.2,3.64-3.02,1.81.09,3.24,1.62,3.24,3.44v21.92c-.28,4.55-2.2,9.69-5.17,13.94-11.03,15.7-33.57,21.05-42.75,22.63-5.61.94-11.96,1.53-18.66,1.53Z"/><polygon class="cls-4" points="277.22 376.26 277.22 395.31 277.21 395.46 277.18 395.58 277.1 395.72 277.03 395.87 276.92 395.98 276.8 396.13 276.64 396.25 276.48 396.34 244.36 414.89 244.16 415.01 243.96 415.09 243.74 415.15 243.51 415.21 243.27 415.27 243.03 415.3 242.78 415.33 242.52 415.33 242.28 415.33 242.03 415.3 241.8 415.27 241.56 415.21 241.33 415.15 241.11 415.09 240.91 415.01 240.71 414.89 240.5 414.77 238.18 413.42 232.23 409.99 232.05 409.87 231.88 409.75 231.77 409.63 231.66 409.49 231.57 409.37 231.52 409.22 231.47 409.08 231.47 389.91 231.47 390.03 231.52 390.17 231.57 390.32 231.66 390.44 231.77 390.58 231.88 390.7 232.05 390.82 232.23 390.94 238.18 394.37 240.5 395.72 240.71 395.84 240.91 395.93 241.11 396.04 241.33 396.1 241.56 396.16 241.8 396.22 242.03 396.25 242.28 396.28 242.52 396.28 242.78 396.28 243.03 396.25 243.27 396.22 243.51 396.16 243.74 396.1 243.96 396.04 244.16 395.96 244.36 395.84 276.48 377.29 276.64 377.2 276.8 377.05 276.92 376.96 277.03 376.82 277.1 376.67 277.18 376.52 277.21 376.38 277.22 376.26"/><path class="cls-4" d="M234.92,407.55l7.3,4.22,31.56-17.88v-11.07s-27.7,16-27.7,16c-.12.09-.66.32-.82.38-.02,0-.97.32-1,.32-.17.03-.8.15-.96.18h-.9c-.11,0-.96-.06-1.08-.06-.1-.06-1.02-.26-1.13-.3-.14-.03-.7-.26-.84-.35l-4.44-2.53v11.07h0ZM242.43,418.79c-.22,0-.99-.09-1.11-.12-.15-.03-.75-.15-.9-.2-.13,0-.7-.23-.83-.27-.16-.09-.71-.38-.86-.47l-8.23-4.76c-.15-.12-.98-.7-1.1-.82-.17-.18-.55-.62-.67-.82-.11-.18-.35-.65-.43-.85-.06-.21-.25-.94-.26-1.18l-.03-19.4c0-1.88,1.47-3.4,3.34-3.47,1.46-.15,2.77.82,3.31,2.15l7.55,4.14,31.88-18.05c.42-1.5,1.89-2.32,3.45-2.17,1.81.09,3.12,1.94,3.12,3.76v19.05c-.01.09-.1.88-.12.97-.04.27-.2.65-.31.91-.12.24-.34.59-.49.79-.08.09-.73.76-.84.85-.11.12-.57.44-.72.5l-32.1,18.55c-.12.06-.66.32-.82.39-.06.03-.98.32-1.07.32-.14.03-.76.15-.89.15-.13.03-.67.06-.86.06Z"/><path class="cls-3" d="M267.98,370.3l8.48,4.9c1.01.56,1.01,1.53.01,2.11l-32.12,18.52c-1,.59-2.65.59-3.65,0l-.22-.12-2.32-1.35-5.95-3.44c-1.01-.56-1.01-1.52,0-2.11l32.1-18.52c1.01-.59,2.66-.59,3.66,0Z"/><path class="cls-4" d="M274.74,378.2h.08-.08ZM237.32,389.91l4.91,2.82,29.14-16.5-5.02-2.91-29.02,16.59h0ZM242.52,399.71c-1.26,0-2.53-.29-3.56-.88l-8.46-4.9c-1.56-.91-2.49-2.41-2.49-4.02s.93-3.17,2.48-4.05l32.12-18.55c2.06-1.2,5.04-1.17,7.09,0l8.48,4.9c1.55.88,2.48,2.41,2.48,4.05.01,1.61-.92,3.14-2.46,4.02l-32.12,18.55c-1.03.59-2.29.88-3.55.88Z"/><path class="cls-4" d="M265.59,378.78h-.01c-1.9-.03-3.44-1.59-3.44-3.46.09-45.85,16.87-109.96,22.01-128.51.51-1.85,2.39-2.93,4.25-2.43,1.85.53,2.91,2.43,2.41,4.26-10.48,37.81-21.69,90.94-21.76,126.69-.01,1.91-1.55,3.46-3.45,3.46h0ZM243.89,391.29c-1.91,0-3.45-1.53-3.45-3.43,0-33.76-7.8-73.65-20.4-104.09-.73-1.76.1-3.78,1.87-4.52,1.82-.68,3.8.12,4.51,1.88,12.91,31.24,20.92,72.13,20.92,106.73,0,1.91-1.55,3.43-3.45,3.43Z"/><path class="cls-4" d="M234.51,261.51c-2.22,1.79-5.33,6.31-6,10.51l-1.92,11.59c-.31,1.91.07,2.62.07,2.62,2.22-1.79,5.33-6.31,6.01-10.51h0l1.92-11.62c.31-1.88-.07-2.59-.07-2.59h0ZM225.98,292.78c-1.28,0-2.5-.38-3.52-1.12-1.4-1-3.6-3.52-2.69-9.16l1.92-11.59c.99-6.11,5.16-12.54,9.73-14.94,2.64-1.35,5.29-1.32,7.3.12,1.39,1,3.59,3.52,2.66,9.13l-1.89,11.63c-1,6.13-5.17,12.53-9.72,14.94-1.29.68-2.57,1-3.79,1Z"/><path class="cls-4" d="M248.15,250.01c-2.2,1.76-5.31,6.28-6.01,10.51l-3.05,18.67c-.32,1.94.06,2.61.06,2.61,2.21-1.79,5.31-6.17,6.02-10.51l3.4.56-3.4-.56,3.06-18.7c.31-1.91-.07-2.58-.07-2.58h-.01ZM238.47,288.37c-1.29,0-2.48-.38-3.5-1.11-1.41-1-3.6-3.52-2.69-9.16l3.08-18.73c.99-6.14,5.18-12.57,9.72-14.94,2.62-1.35,5.27-1.32,7.29.12,1.4,1,3.6,3.52,2.68,9.16l-3.06,18.7c-1.01,6.14-5.18,12.56-9.72,14.94-1.29.68-2.58,1.03-3.8,1.03Z"/><path class="cls-4" d="M261.05,267.65h.08-.08ZM261.8,238.68c-2.22,1.82-5.32,6.34-6.02,10.54l-4.22,25.77c-.31,1.91.07,2.61.07,2.61,2.2-1.79,5.32-6.31,6.02-10.51l4.22-25.8c.31-1.91-.06-2.58-.07-2.61h0ZM250.94,284.18c-1.27,0-2.48-.38-3.51-1.14-1.4-1-3.6-3.53-2.68-9.13l4.22-25.8c1-6.13,5.18-12.53,9.73-14.94,2.64-1.38,5.29-1.35,7.32.11,1.39,1,3.59,3.52,2.67,9.13l-4.23,25.8h0c-1,6.14-5.19,12.57-9.71,14.94-1.29.68-2.58,1.03-3.8,1.03Z"/><path class="cls-4" d="M274.37,233.81c-2.22,1.79-5.33,6.31-6.02,10.51l-3.06,18.69c-.31,1.91.06,2.62.06,2.62,2.24-1.79,5.35-6.31,6.02-10.51h0l3.08-18.73c.3-1.88-.07-2.58-.07-2.58h0ZM264.69,272.17c-1.3,0-2.5-.38-3.53-1.11-1.39-1-3.59-3.52-2.67-9.16l3.06-18.67c1-6.13,5.18-12.56,9.72-14.97,2.64-1.38,5.29-1.32,7.3.12,1.4,1,3.59,3.52,2.67,9.16l-3.06,18.7c-.99,6.13-5.16,12.53-9.7,14.91-1.29.7-2.58,1.03-3.8,1.03Z"/><path class="cls-4" d="M286.67,230.61c-2.22,1.79-5.32,6.31-6.02,10.54l-1.88,11.57c-.31,1.94.07,2.61.07,2.61,2.2-1.79,5.3-6.17,6.01-10.51h0l1.89-11.59c.31-1.94-.06-2.61-.06-2.61h0ZM278.14,261.87c-1.26,0-2.47-.35-3.5-1.12-1.4-1-3.59-3.49-2.68-9.13l1.89-11.59c1-6.14,5.18-12.56,9.72-14.97,2.63-1.38,5.29-1.35,7.31.12,1.4,1,3.59,3.52,2.67,9.16l-1.91,11.59c-.98,6.11-5.16,12.54-9.71,14.94-1.28.68-2.58,1-3.79,1Z"/><path class="cls-4" d="M255.89,92.93c-2.66,0-4.84-2.17-4.84-4.84V4.81c0-2.64,2.18-4.81,4.84-4.81s4.83,2.17,4.83,4.81v83.28c0,2.67-2.17,4.84-4.83,4.84Z"/><path class="cls-4" d="M131.49,134.27c-1.24,0-2.48-.47-3.42-1.41l-58.45-58.36c-1.88-1.88-1.88-4.93,0-6.81,1.9-1.88,4.96-1.88,6.84,0l58.43,58.33c1.89,1.88,1.9,4.93,0,6.84-.93.94-2.17,1.41-3.41,1.41Z"/><path class="cls-4" d="M86.58,258.14H4.82c-2.66,0-4.82-2.14-4.82-4.82s2.17-4.84,4.82-4.84h81.76c2.66,0,4.83,2.17,4.83,4.84s-2.17,4.82-4.83,4.82Z"/><path class="cls-4" d="M380.35,134.27c-1.23,0-2.47-.47-3.4-1.44-1.89-1.88-1.88-4.93,0-6.81l58.44-58.33c1.88-1.88,4.95-1.88,6.83,0,1.89,1.88,1.88,4.93,0,6.81l-58.46,58.36c-.94.94-2.18,1.41-3.42,1.41Z"/><path class="cls-4" d="M507.03,258.14h-81.75c-2.67,0-4.83-2.14-4.83-4.82s2.16-4.84,4.83-4.84h81.75c2.66,0,4.83,2.17,4.83,4.84s-2.17,4.82-4.83,4.82Z"/></g></svg>