<?xml version="1.0" encoding="UTF-8"?>
<svg width="130px" height="187px" viewBox="0 0 130 187" version="1.1" xmlns="http://www.w3.org/2000/svg" xmlns:xlink="http://www.w3.org/1999/xlink">
    <title>Group 22</title>
    <g id="Illustraties" stroke="none" stroke-width="1" fill="none" fill-rule="evenodd">
        <g transform="translate(-240, -748)" id="Group-22">
            <g transform="translate(240, 748)">
                <path d="M71.0179309,186 C56.5734196,174.844557 35.8802493,162.399049 23.5903478,149.293191 C16.6569242,141.772591 13,130.802416 13,116.751256 C13,79.6267439 38.9638709,34.5041184 71.0179309,15.9472114 C103.037583,-2.60483299 129,12.4280998 129,49.5496942 C129,63.442818 125.344045,78.9766054 118.446968,94.3440896 C106.119751,121.721387 85.4260958,158.116985 71.0179309,186 M71.0179309,33.6215445 C47.4039705,47.3041149 28.2625457,80.5618346 28.2625457,107.902662 C28.2625457,135.242031 47.4039705,146.323075 71.0179309,132.653633 C94.583914,118.983706 113.738423,85.7259862 113.738423,58.3866176 C113.738423,31.0428726 94.583914,19.9472407 71.0179309,33.6215445" id="Fill-1" fill="#F4D74B"></path>
                <g id="Group-5" transform="translate(11, 6)" fill="#000000">
                    <path d="M59.4993208,181 C59.1815681,181 58.8507172,180.900752 58.6076727,180.704688 C53.9772149,177.118125 48.7374481,173.434259 43.1682856,169.530491 C31.4769255,161.314771 19.4178454,152.80909 10.9690184,143.83052 C3.69757457,135.925681 0,124.630344 0,110.278254 C0,72.7404852 26.3584383,26.9325073 58.7648512,8.17262337 C74.7281664,-1.08277164 89.8362174,-2.52089967 101.259792,4.08252108 C112.708108,10.7127 119.000097,24.5383841 119.000097,43.0428495 C119.000097,57.1871987 115.266139,72.8898443 108.274608,88.4475094 C99.9131026,107.035168 87.8908915,129.440483 76.2368855,151.101922 C70.6749998,161.451967 65.4240753,171.212848 60.7601443,180.225474 C60.5529986,180.605439 60.235731,180.87594 59.7806897,180.975188 C59.6948237,181 59.5871273,181 59.4993208,181 L59.4993208,181 Z M85.4041732,2.89445997 C77.6898159,2.89445997 69.1216498,5.50799981 60.1857638,10.6674544 C28.585133,28.971477 2.87578353,73.6643706 2.87578353,110.278254 C2.87578353,123.880629 6.29198926,134.512365 13.076374,141.854311 C21.276335,150.609572 33.2621622,159.031573 44.8332129,167.174316 C49.8784472,170.707362 54.6622025,174.07159 59.0083807,177.373543 C63.4782642,168.769101 68.4366623,159.512246 73.7123279,149.73823 C85.3328607,128.114739 97.319173,105.759049 105.64381,87.2545832 C112.497081,72.0783431 116.124799,56.7809616 116.124799,43.0428495 C116.124799,25.6198992 110.307741,12.6684763 99.8257812,6.58951491 C95.5669244,4.12095549 90.6963328,2.89445997 85.4041732,2.89445997 L85.4041732,2.89445997 Z M40.3759425,133.518422 C36.0661482,133.518422 32.0508209,132.498208 28.5152759,130.447562 C19.9791277,125.501686 15.2652295,115.188128 15.2652295,101.425204 C15.2652295,73.6526943 34.7694259,39.7525721 58.7648512,25.8685066 C70.6749998,18.9780441 81.916655,17.9101513 90.4484372,22.8560273 C98.9831301,27.808228 103.6849,38.120326 103.6849,51.8842232 C103.6849,79.6688957 84.1933169,113.555396 60.1857638,127.439461 C53.2451708,131.467776 46.4986254,133.518422 40.3759425,133.518422 L40.3759425,133.518422 Z M60.1857638,28.358959 C36.9961207,41.7900824 18.1570219,74.5600383 18.1570219,101.425204 C18.1570219,114.119749 22.343111,123.537152 29.9682064,127.945433 C37.5748673,132.36685 47.8079607,131.285335 58.7648512,124.937332 C81.9661371,111.517885 100.805236,78.7493889 100.805236,51.8842232 C100.805236,39.1882188 96.6327301,29.771302 89.0318906,25.3625346 C81.3873905,20.9547403 71.1547822,22.0114433 60.1857638,28.358959 L60.1857638,28.358959 Z M59.4993208,27.1066784 L59.5488029,27.1066784 L59.4993208,27.1066784 Z" id="Fill-3"></path>
                </g>
                <path d="M70.4990284,53.4970541 C56.3876326,61.639825 45,81.4638815 45,97.7538051 C45,114.056874 56.3876326,120.656778 70.4990284,112.509626 C84.5739908,104.362473 96,84.5442589 96,68.2407032 C96,51.9463979 84.5739908,45.3367561 70.4990284,53.4970541" id="Fill-6" fill="#00A872"></path>
                <path d="M59.6131324,118 C56.9221866,118 54.438611,117.359914 52.2422385,116.081204 C46.9484549,113.030436 44,106.708062 44,98.267506 C44,81.5107055 55.8283814,61.0767006 70.287834,52.6990316 C77.583763,48.4880159 84.5146035,47.8498798 89.8083871,50.9001605 C95.1158007,53.9640913 98,60.3001148 98,68.7158087 C98,85.4843092 86.2358742,105.918314 71.7136264,114.295983 C67.4722713,116.75834 63.3599142,118 59.6131324,118 L59.6131324,118 Z M82.4014712,51.8975833 C79.1838243,51.8975833 75.5436484,53.0066434 71.7136264,55.2062385 C58.029135,63.1154211 46.8983161,82.433541 46.8983161,98.267506 C46.8983161,105.623865 49.3069268,111.061915 53.6680309,113.582772 C58.029135,116.106554 63.9362673,115.467931 70.287834,111.788776 C83.9849818,103.875206 95.1158007,84.5629363 95.1158007,68.7158087 C95.1158007,61.3711499 92.70719,55.9326119 88.3460859,53.4093175 C86.5883063,52.3914198 84.6022248,51.8975833 82.4014712,51.8975833 L82.4014712,51.8975833 Z M71.024826,53.9528788 L71.0744781,53.9528788 L71.024826,53.9528788 Z" id="Fill-8" fill="#000000"></path>
                <path d="M89,51.9641963 C77.0262102,45.1362971 68.806587,37.6339541 52.1276402,53.0496745 C37.1309897,66.8916927 25.8474979,97.7665527 41.6291549,107.644404 L52.7422691,114 C29.8135381,98.292889 63.7802022,40.193753 89,51.9641963" id="Fill-10" fill="#000000"></path>
                <path d="M53.2385563,116 C52.9935343,116 52.7436216,115.93765 52.5479953,115.8057 L41.3650146,109.437768 C36.5751033,106.449794 33.7512368,101.473382 33.1340357,95.0189329 C31.7397088,80.356981 41.4520683,61.8675032 51.6471359,52.4618139 C67.5662306,37.7263951 76.5802041,43.0817414 87.0212718,49.2805063 C88.0791213,49.9020744 89.1413724,50.5482926 90.2901882,51.1814608 C90.957274,51.5734451 91.1910475,52.4129971 90.8325622,53.0949821 C90.4990193,53.7793837 89.6363071,54.0461844 88.9462351,53.7296003 C76.7376833,48.0373699 62.5806929,60.1845325 54.5962032,73.8817487 C46.5623178,87.5939484 43.0063197,105.791975 54.1012685,113.389027 C54.720915,113.830795 54.8798614,114.694514 54.4714914,115.340732 C54.2259803,115.768966 53.7310456,116 53.2385563,116 M70.5192105,45.8884648 C65.7674463,45.8884648 60.4826003,48.1930036 53.6102464,54.5619023 C42.7593415,64.5756264 34.895651,82.6131864 36.045934,94.7516489 C36.5751033,100.362196 38.8746911,104.486489 42.8845423,106.985328 L46.6078009,109.121667 C41.5268954,99.1441928 45.2173866,84.2019069 52.0897405,72.4414119 C58.9660069,60.662067 70.2692978,50.0209747 81.6156265,49.44919 C77.8498191,47.3868017 74.3671809,45.8884648 70.5192105,45.8884648" id="Fill-12" fill="#000000"></path>
                <path d="M12.727872,142.99604 C-11.8863431,114.621313 10.6268413,60.4566272 32.4852972,34.0574604 C47.2278112,16.2575334 76.734599,-7.46422328 100.992437,5.92767773 L112,12.3039881 C81.0667357,-3.91616983 44.9222383,34.1273059 30.1797243,59.6999678 C15.8525809,84.5950316 2.21014628,128.356621 26.1773697,151.822278 C37.9503947,163.376855 57.3055052,175.521238 71.1079953,186 C56.9757231,177.822258 57.148351,177.221781 45.2026981,168.825287 C33.4122652,160.537927 22.8577895,153.31765 12.727872,142.99604" id="Fill-14" fill="#000000"></path>
                <path d="M70.6363987,187 C70.394031,187 70.1468255,186.943224 69.903974,186.806381 C59.3447714,180.681418 56.7450026,178.809767 51.0795964,174.705916 C49.1725832,173.321952 46.940478,171.693902 43.8617789,169.553416 L41.8343075,168.105883 C31.0327371,160.528049 20.8605489,153.360746 11.2156677,143.537611 C11.1793851,143.525964 11.1793851,143.505583 11.1460051,143.480835 C-13.968807,114.502512 8.06924106,60.2047325 30.9093763,32.6229901 C48.5257855,11.316156 77.5213839,-8.93814725 101.218756,4.13041313 L112.280593,10.5431355 C112.965125,10.9357115 113.207976,11.7912264 112.80403,12.4807821 C112.437818,13.1630589 111.584451,13.4241292 110.89992,13.068433 C81.2463969,-2.4870893 46.0943679,33.5576026 30.9093763,59.9232812 C17.9811622,82.3835804 2.56057564,126.70197 26.6855985,150.348732 C34.5473111,158.076997 45.8515164,166.048862 56.7450026,173.739276 C62.0059788,177.475785 66.9984639,181.00072 71.4897653,184.418412 C72.1002804,184.873102 72.2599239,185.727161 71.8066333,186.351206 C71.5274992,186.781147 71.0780788,187 70.6363987,187 M13.280873,141.554835 C16.2836205,144.604699 19.2747576,147.36001 22.3645834,149.956641 C0.290252749,124.618745 15.513462,80.9258568 28.4324845,58.4888501 C42.1279546,34.706215 71.736487,3.45541527 99.8758161,6.67560638 L99.8017996,6.63775603 C76.1421615,-6.40460027 46.7455195,17.9773319 33.0964911,34.4630994 C10.0459168,62.324352 -9.67101269,115.031446 13.280873,141.554835" id="Fill-16" fill="#000000"></path>
                <path d="M36,130.788549 C53.556801,150.192334 83.5915094,126.356635 96.7598364,107.345495 L101.378289,100.02175 C112.206161,80.6968813 123.314849,44.1861208 101.378289,30.3079456 C99.5597642,29.231679 97.5306275,28.4609113 95.3417163,28 C109.736434,41.9517661 100.903807,74.257195 91.7748708,91.1158009 C81.8054237,109.505775 58.4923818,135.394757 36.2808159,130.875696 L36,130.788549 Z" id="Fill-18" fill="#000000"></path>
                <path d="M51.3026034,140 C44.7000908,140 38.9783654,137.421158 34.3568973,132.307578 C33.9523553,131.833102 33.8651487,131.1226 34.2333546,130.586573 C34.5506899,130.033099 35.1984415,129.76557 35.809857,129.963309 L36.1388199,130.044731 C57.511717,134.41146 80.5473543,108.372961 89.9995865,90.942395 C99.5714856,73.1943808 107.118252,42.3868912 93.8158465,29.4689346 C93.3749685,29.0191761 93.2499723,28.3217596 93.568761,27.7595614 C93.8526671,27.1944553 94.5004188,26.8886389 95.1113498,27.0374276 C97.4707743,27.5366208 99.6092752,28.3711942 101.601947,29.5052836 C125.334269,44.5494155 112.349683,83.005708 102.130032,101.252915 L97.4707743,108.652606 C87.4948177,123.011923 69.3616477,138.890628 53.0142762,139.943296 C52.4406502,139.979645 51.8757449,140 51.3026034,140 M39.7864804,133.360246 C43.5126269,136.149912 47.938849,137.396441 52.8408318,137.078993 C67.5244942,136.125679 85.2167861,121.253115 95.0735603,107.063912 L99.6950284,99.7747219 C110.930152,79.6039245 120.382869,44.8227601 100.09957,31.9658699 C99.782235,31.7841248 99.4518187,31.5975331 99.1344834,31.4288737 C109.515466,47.5009558 101.077738,76.4880866 92.5208278,92.3125107 C82.9445683,110.022722 61.4883404,134.325676 39.7864804,133.360246" id="Fill-20" fill="#000000"></path>
            </g>
        </g>
    </g>
</svg>