<?xml version="1.0" encoding="UTF-8"?><svg id="Layer_1" xmlns="http://www.w3.org/2000/svg" viewBox="0 0 720 720"><defs><style>.cls-1,.cls-2,.cls-3,.cls-4,.cls-5,.cls-6,.cls-7,.cls-8,.cls-9,.cls-10{fill-rule:evenodd;}.cls-1,.cls-3,.cls-5,.cls-11,.cls-6,.cls-12,.cls-13,.cls-8,.cls-9,.cls-10{stroke:#14100d;}.cls-1,.cls-3,.cls-5,.cls-11,.cls-13,.cls-8,.cls-9,.cls-10{stroke-linecap:round;}.cls-1,.cls-3,.cls-5,.cls-11,.cls-8,.cls-9,.cls-10{stroke-linejoin:round;}.cls-1,.cls-4,.cls-11,.cls-6{fill:#00af81;}.cls-1,.cls-5,.cls-11,.cls-9{stroke-width:13.26px;}.cls-2,.cls-12,.cls-13{fill:#f4d74b;}.cls-3,.cls-5,.cls-7{fill:#14100d;}.cls-3,.cls-10{stroke-width:13.28px;}.cls-6,.cls-12,.cls-13{stroke-miterlimit:10;}.cls-6,.cls-12,.cls-13,.cls-8{stroke-width:15.6px;}.cls-8,.cls-9,.cls-10{fill:none;}</style></defs><path class="cls-9" d="M396.99,446.42c.93,59.14-39.97,120.17-91.36,136.32-51.39,16.15-93.8-18.7-94.73-77.84-.93-59.14,39.97-120.17,91.36-136.32,51.39-16.15,93.8,18.7,94.73,77.84Z"/><path class="cls-5" d="M371.71,453.32c.65,41.48-28.04,84.29-64.08,95.62-36.04,11.33-65.79-13.12-66.45-54.6s28.04-84.29,64.08-95.62c36.04-11.33,65.79,13.12,66.45,54.6Z"/><polygon class="cls-1" points="307.52 361.25 490.57 426.14 368.8 514.89 180.62 438.07 307.52 361.25"/><polygon class="cls-1" points="313.34 357.5 492.51 422.06 495.56 286.45 316.38 221.89 313.34 357.5"/><line class="cls-11" x1="495.56" y1="286.45" x2="538.76" y2="243.25"/><path class="cls-1" d="M549.81,252.07l-19.99,18.65c-5.34,4.98-10.14,1.93-10.73-6.82h0c-.58-8.75,3.27-19.88,8.61-24.87l19.99-18.65c5.34-4.98,10.14-1.93,10.73,6.82h0c.58,8.75-3.27,19.88-8.61,24.87Z"/><line class="cls-11" x1="318.37" y1="220.36" x2="361.57" y2="177.16"/><path class="cls-1" d="M372.62,185.97l-19.99,18.65c-5.34,4.98-10.14,1.93-10.73-6.82h0c-.58-8.75,3.27-19.88,8.61-24.87l19.99-18.65c5.34-4.98,10.14-1.93,10.73,6.82h0c.58,8.75-3.27,19.88-8.61,24.87Z"/><path class="cls-9" d="M592.5,508.28c.93,59.14-39.97,120.17-91.36,136.32-51.39,16.15-93.8-18.7-94.73-77.84-.93-59.14,39.97-120.17,91.36-136.32,51.39-16.15,93.8,18.7,94.73,77.84Z"/><path class="cls-1" d="M567.22,515.19c.65,41.48-28.04,84.29-64.08,95.62-36.04,11.33-65.79-13.12-66.45-54.6-.65-41.48,28.04-84.29,64.08-95.62,36.04-11.33,65.79,13.12,66.45,54.6Z"/><path class="cls-5" d="M196.98,607.47c.2,12.53-8.47,25.46-19.36,28.89-10.89,3.42-19.88-3.96-20.07-16.49-.2-12.53,8.47-25.46,19.36-28.89,10.89-3.42,19.88,3.96,20.07,16.49Z"/><path class="cls-9" d="M177.27,590.97v-193.33c0-11.86,5.78-22.97,15.5-29.78l113.68-79.64"/><path class="cls-7" d="M330.37,361.07l-114.84,66.73c-2.83,1.64-4.66,4.58-4.89,7.84l-10.96,153.29-43.16,20.31c-4.96,1.89-8.03,6.82-7.61,12.1.39,4.96,1.92,7.16,6.34,12.26,8.13,9.39,39.06-1.44,46.16-4.09.98-.36,1.88-.78,2.79-1.29,6.81-3.78,37.43-21.28,36.69-30.1-.83-9.92,18.37-118.49,18.37-118.49l118.93-84.54-47.82-34.03Z"/><path class="cls-7" d="M371.89,390.52l-115.99,74.85-3.93,158.86-42.17,22.31c-4.86,2.11-7.7,7.18-7.04,12.45.62,4.94,2.25,7.06,6.91,11.95,8.56,9,38.95-3.26,45.92-6.24.96-.41,1.84-.87,2.73-1.42,6.63-4.09,36.4-23,35.25-31.78-1.29-9.87,12.82-119.22,12.82-119.22l84.52-66.22c14.84-11.63,13.79-34.43-2.07-44.63l-16.94-10.9Z"/><path class="cls-2" d="M287.71,350.78l-17.52-14.24-21.8,26.9,2.93,7.86-15.9,25.99,14.16,5.43c27.96-28.51,23.5-23.08,38.47-51.81h0l-.35-.13Z"/><path class="cls-7" d="M291.95,344.88l-17.17-14.11c-3.06-2.36-7.17-1.96-9.53,1.1l-22.14,26.77c-1.62,2.15-1.85,4.84-.87,6.4h0l1.65,4.99-14.02,23.15c-2.01,3.19-.79,7.22,2.4,9.24l1.38.53,14.16,5.43c2.42.93,5.63-.22,7.46-1.9l3.32-3.48c11.64-11.78,16.79-16.94,20.9-22.49,3.5-5,5.91-9.22,10.39-17.81.66-1.73,1.93-4.01,5.01-9.97,1.19-3.11.66-6.88-2.19-8.76h0l-.74.9ZM271.29,346.07l8.14,6.68-1.99,5.18c-4.43,7.42-6.36,11.43-9.46,15.39-3.5,5-8.51,9.81-19.76,20.55h0c-.13.35-2.34-.1-2.34-.1l11.13-18.71c.66-1.73,1.46-3.8.74-6.06l-1.57-4.17,15.46-18.64h0l-.35-.13Z"/><path class="cls-4" d="M310.43,194.29l43.35-13.89c-8.7,29.94-16.36,60.28-22.91,91.84-.45,2.2-.76,4.06-2.12,5.53l-37.6,64.03c-.53,1.38-1.88,2.84-2.97,3.62-4.88,4.47-12.8,3.42-17-2.16-3.35-3.66-3.36-8.81-1.29-13.17l31.55-64.76,8.57-71.98h0l.43.96Z"/><path class="cls-7" d="M360.26,182.09c1.32-3.45-1.07-7.54-4.66-8.52-3.59-.98-7.54,1.07-8.52,4.66-4.52,14.9-8.49,30.42-12.32,45.59-3.62,15.65-7.58,31.16-10.51,47.07h0l-.79,2.07c.69.26.29,1.3-.53,1.38h0l-37.74,64.37h0c-.13.35-.26.69-.4,1.04l-.26.69c-1.91.85-2.73.93-4.25.75-1.51-.18-2.42-.93-3.67-1.8-1.25-.87-.85-1.91-1.28-2.87l.37-3.03h0l32.08-66.14,8.96-73.02c.63-3.72-2.03-7.12-5.88-7.4s-7.11,2.03-7.4,5.88l-8.51,70.81-31.02,63.38h0c-2.01,3.19-2.78,7.25-2.11,10.68.19,3.64,1.55,7.33,4,10.25,3.22,4.01,7.79,6.55,12.46,6.76,4.89.68,9.75-.62,13.75-3.84,4.01-3.22,2.18-1.54,2.57-2.58.74-.9,1.62-2.15,2.36-3.06h0l37.13-63.81h0c.53-1.38,1.06-2.76,1.72-4.49h0c.53-1.38.93-2.42,1.46-3.8h0c3.41-16.13,6.76-31.08,10.59-46.25,3.83-15.17,7.66-30.34,12.19-45.24h0l-.13.35.35.13Z"/><path class="cls-6" d="M330.82,178.41l-6.31,2.79c-10.96,4.85-18.03,15.7-18.03,27.69v150.01c0,10.45,5.39,20.16,14.26,25.69l62.17,38.76c9.01,5.62,20.3,6.11,29.76,1.28l5.95-3.03c9.81-5,16.13-14.93,16.51-25.94l5.5-160.58c.43-12.6-7-24.16-18.64-28.99l-67.3-27.96c-7.66-3.18-16.28-3.08-23.86.27Z"/><polygon class="cls-8" points="397.52 229.43 369.66 251.39 361.04 223.88 345.45 240.06 332.7 201.32 365.89 182.99 421.98 206.1 397.52 229.43"/><path class="cls-12" d="M358.38,167.86h36.13v30.61c0,8.63-7,15.63-15.63,15.63h-4.86c-8.63,0-15.63-7-15.63-15.63v-30.61h0Z"/><rect class="cls-12" x="340.92" y="88.66" width="65.28" height="94.33" rx="28.87" ry="28.87"/><line class="cls-13" x1="391.32" y1="122.64" x2="411.51" y2="116.26"/><path class="cls-3" d="M382.01,657.34c.2,12.53-8.47,25.46-19.36,28.89-10.89,3.42-19.88-3.96-20.07-16.49s8.47-25.46,19.36-28.89c10.89-3.42,19.88,3.96,20.07,16.49Z"/><path class="cls-10" d="M362.29,640.85v-193.33c0-11.86,5.78-22.97,15.5-29.78l113.68-79.64"/><path class="cls-2" d="M438.17,418l-21.45-7.03-10.73,32.92,5.55,6.29-5.55,29.96h15.17c15.91-36.62,13.69-29.96,17.39-62.15h-.37Z"/><path class="cls-7" d="M440.02,410.97l-21.08-7.03c-3.7-1.11-7.4.74-8.51,4.44l-11.1,32.92c-.74,2.59,0,5.18,1.48,6.29h0l3.33,4.07-4.81,26.63c-.74,3.7,1.85,7.03,5.55,7.77h16.65c2.59,0,5.18-2.22,6.29-4.44l1.85-4.44c6.66-15.17,9.62-21.82,11.47-28.48,1.48-5.92,2.22-10.73,3.33-20.35,0-1.85.37-4.44,1.11-11.1,0-3.33-1.85-6.66-5.18-7.4h0l-.37,1.11ZM421.16,419.48l9.99,3.33v5.55c-1.48,8.51-1.85,12.95-3.33,17.76-1.48,5.92-4.44,12.21-11.1,26.26h0c0,.37-2.22.74-2.22.74l3.7-21.45c0-1.85,0-4.07-1.48-5.92l-2.96-3.33,7.77-22.93h-.37Z"/><path class="cls-4" d="M403.4,263.74l35.51-28.48c2.59,31.07,6.29,62.15,11.47,93.96.37,2.22.74,4.07,0,5.92l-12.21,73.24c0,1.48-.74,3.33-1.48,4.44-2.96,5.92-10.73,7.77-16.65,4.07-4.44-2.22-6.29-7.03-5.92-11.84l6.29-71.76-17.76-70.28h0l.74.74Z"/><path class="cls-7" d="M445.57,234.52c0-3.7-3.7-6.66-7.4-6.29s-6.66,3.7-6.29,7.4c1.11,15.54,2.96,31.44,4.81,46.98,2.22,15.91,4.07,31.81,7.03,47.72h0v2.22c.74,0,.74,1.11,0,1.48h0l-12.21,73.61h0v1.85c-1.48,1.48-2.22,1.85-3.7,2.22-1.48.37-2.59,0-4.07-.37-1.48-.37-1.48-1.48-2.22-2.22l-.74-2.96h0l6.29-73.24-17.76-71.39c-.74-3.7-4.44-5.92-8.14-4.81-3.7,1.11-5.92,4.44-4.81,8.14l17.39,69.17-6.29,70.28h0c-.74,3.7,0,7.77,1.85,10.73,1.48,3.33,4.07,6.29,7.4,8.14,4.44,2.59,9.62,3.33,14.06,1.85,4.81-1.11,8.88-4.07,11.47-8.51,2.59-4.44,1.48-2.22,1.48-3.33.37-1.11.74-2.59,1.11-3.7h0l11.84-72.87h0v-4.81h0v-4.07h0c-2.59-16.28-4.81-31.44-6.66-46.98-1.85-15.54-3.7-31.07-4.81-46.61h0v.37h.37Z"/></svg>