<?xml version="1.0" encoding="UTF-8"?><svg id="Layer_1" xmlns="http://www.w3.org/2000/svg" viewBox="0 0 720 720"><defs><style>.cls-1{fill:#fff;}.cls-1,.cls-2,.cls-3,.cls-4,.cls-5,.cls-6{fill-rule:evenodd;}.cls-2{fill:#f4d74b;}.cls-4{fill:#3d68ec;}.cls-5{fill:#14100d;}.cls-7{opacity:.2;}.cls-6{fill:#ecf0fd;}</style></defs><path class="cls-2" d="M298.84,310.59l-18.78-3.25-13.36,27.81,4.33,6.5-8.31,26c6.86,1.44,12.64,1.81,22.75-14.45,8.67-13.72,7.95-20.59,13.36-42.62h0Z"/><path class="cls-5" d="M300.29,304.09l-18.78-3.25c-2.89-.72-6.14,1.08-7.22,3.97l-13.72,27.45c-1.08,2.17-.72,4.69.36,6.5h0l2.53,3.61-7.22,22.75c-1.08,3.61.72,7.22,4.33,8.31h.72c4.69,1.08,9.03,1.44,14.45-1.08,4.69-2.17,9.75-6.86,15.53-16.25,6.86-10.83,8.31-17.34,10.47-28.89.72-4.33,1.81-9.03,3.61-15.17.72-3.61-1.08-7.22-4.69-8.31h0l-.36.36ZM284.04,314.92l6.86,1.44c-.72,3.61-1.81,6.14-2.17,8.67-2.17,10.11-3.61,16.25-9.03,24.92-3.25,5.06-5.78,7.95-7.95,9.75l5.06-15.53c.72-1.81.72-4.33-.72-6.14l-2.17-2.89,9.75-19.86h0l.36-.36Z"/><path class="cls-4" d="M348.68,136.51l-37.92-2.53-10.83,97.15-20.59,67.18c-.72,1.44-.72,2.89,0,4.69.72,6.5,6.86,10.83,13.36,10.11,5.06-.72,8.31-3.97,9.75-8.67l23.11-66.45,23.11-101.85h0v.36Z"/><path class="cls-5" d="M349.41,129.65l-44.06-2.89-11.56,102.93-20.22,66.81h0c0,1.44-.36,2.53,0,3.61.36,1.08,0,2.53,0,3.97.72,5.06,3.61,9.03,7.22,12.28,3.61,2.89,8.67,4.33,13.72,3.61,3.61-.36,6.86-2.17,9.75-4.33,2.53-2.17,4.69-5.42,5.42-9.03l23.11-66.45c8.31-36.84,16.61-73.31,25.28-109.79l-7.58-.72h-1.08ZM316.9,141.2l23.84,1.44-21.31,93.9-23.11,66.45h0c0,1.44-.72,1.81-1.44,2.53-.72,0-1.44,1.08-2.53,1.08-1.44,0-2.89,0-3.97-.72-1.08-.72-1.81-2.17-1.81-3.61v-1.81l20.59-67.9,10.11-91.73h0l-.36.36Z"/><path class="cls-5" d="M425.97,502.36l7.95-136.52v-2.53c0-18.42-10.11-24.2-22.39-31.06h-.72c-20.22-11.92-40.45-23.84-60.67-34.67-4.69-2.53-9.39-3.97-14.09-4.69-4.7-.72-9.75,0-14.45,1.81l1.81-1.08h0c-6.14,2.17-11.2,6.5-14.81,11.56-3.61,5.06-5.42,11.2-5.42,17.7,1.81,45.51,0,93.9,0,139.77,0,28.53,1.81,59.23,3.25,89.21.72,14.81,1.44,29.25,2.17,43.34v1.44l-24.2,14.45c-2.53,1.44-4.69,3.25-5.78,5.06v.72c-1.44,2.17-2.17,4.69-2.17,7.22s.72,5.42,2.53,7.95c1.44,1.81,3.25,3.61,5.78,5.06h0c2.17,1.44,4.69,2.17,7.22,2.89,2.89.72,5.42,1.08,8.31,1.08s5.42,0,8.31-1.08c2.89-.72,5.42-1.81,7.58-2.89l32.87-19.14c2.53-1.44,4.69-3.25,5.78-5.06v-.72c1.44-2.17,2.17-4.69,2.17-7.22s0-3.61-1.08-5.06c.36-1.44.72-2.89.72-4.33v-132.54l9.39-84.51,1.81,1.08,3.61,123.15c1.08,29.61,2.17,59.23,3.61,88.48.72,14.81,1.44,29.61,1.81,43.7v2.17l-22.75,13.36c-2.53,1.44-4.69,3.25-5.78,5.06l-.36.72c-1.44,2.17-2.17,4.69-2.17,7.22s.72,5.42,2.53,7.95c1.44,1.81,3.25,3.61,5.78,5.42h.36c2.17,1.44,4.69,2.17,7.22,2.89,2.89.72,5.42,1.08,8.31,1.08s5.42,0,8.31-1.08c2.89-.72,5.42-1.81,7.58-2.89l32.87-19.14h-.36c2.53-1.81,4.69-3.61,5.78-5.42v-.72c1.44-2.17,2.17-4.69,2.17-7.22s-.36-4.33-1.81-6.5v-135.43h1.45Z"/><path class="cls-4" d="M312.93,321.42h0c-4.69-2.89-6.86-6.5-6.14-10.11v-176.61c1.81-16.25,25.64-29.61,35.75-23.84l50.56,29.25,18.78,10.83c7.95,4.33,18.06,13.72,18.06,24.92v186h0c-.72,2.17,2.17,4.33-3.61,7.58-5.78,3.25-21.67,4.69-29.98,0l-83.79-48.4h.36v.36Z"/><path class="cls-5" d="M308.96,326.84c.36,0,.72.36,1.08.72l83.43,48.03c5.06,2.89,11.56,3.97,17.7,3.97s14.81-1.81,18.78-3.97c7.58-4.33,7.22-7.95,6.86-11.56v-1.81h0v-186.36c0-6.5-2.53-12.28-6.14-17.34-4.33-5.78-10.11-10.47-15.17-13.36l-69.34-40.09c-2.17-1.08-4.33-1.81-6.86-2.17-6.14-.72-13,1.44-19.5,5.06-6.14,3.61-11.92,9.03-15.53,15.17-1.81,3.25-3.25,6.86-3.61,10.47v176.97c-.36,3.25,0,6.5,1.81,9.39,1.44,2.53,3.61,4.69,6.86,6.5h0l-.36.36ZM315.82,315.28c-1.08-.72-1.81-1.44-2.17-2.17v-2.17h0v-176.24c0-1.81,1.08-3.61,1.81-5.42,2.53-3.97,6.5-7.58,10.83-10.11,3.97-2.53,8.31-3.61,11.56-3.25.72,0,1.44,0,1.81.36,23.11,13.36,46.23,27.09,69.34,40.09,3.61,2.17,7.95,5.42,11.2,9.75,2.17,2.89,3.61,6.14,3.61,9.75v183.47h0v1.08c-.36,1.44-.36,2.53,0,3.25h0v1.08-1.08h0c-2.17,1.08-6.86,2.17-12.28,2.17s-8.31-.72-10.83-2.17l-83.43-48.03s-.72-.36-1.08-.72h-.36v.36Z"/><path class="cls-5" d="M350.85,346.34c0,3.61,2.89,6.86,6.86,6.86s6.86-2.89,6.86-6.86v-191.05c0-3.61-2.89-6.86-6.86-6.86s-6.86,2.89-6.86,6.86v191.05Z"/><path class="cls-5" d="M328.46,166.12c-3.25-1.81-7.22-.36-9.03,2.89-1.81,3.25-.36,7.22,2.89,9.03l13,6.86c3.25,1.81,7.22.36,9.03-2.89,1.81-3.25.36-7.22-2.89-9.03l-13-6.86h0Z"/><g class="cls-7"><path class="cls-3" d="M350.85,610.35c64.65,0,117.38,18.78,117.38,41.89s-52.37,41.89-117.38,41.89-117.38-18.78-117.38-41.89,52.37-41.89,117.38-41.89Z"/></g><path class="cls-1" d="M380.47,116.65c-6.86,3.97-17.7,3.97-24.56,0-6.86-3.97-6.86-10.11,0-14.09,6.86-3.97,17.7-3.97,24.56,0,6.86,3.97,6.86,10.11,0,14.09Z"/><path class="cls-5" d="M377.22,110.87c-2.17,1.44-5.42,1.81-9.03,1.81s-6.5-.72-9.03-1.81c-.72-.36-1.44-.72-1.81-1.44,0-.36.72-.72,1.81-1.44h0c2.17-1.44,5.42-2.17,8.67-2.17s6.5.72,9.03,1.81h0c.72.36,1.44.72,1.81,1.44,0,.36-.72.72-1.44,1.44h0v.36ZM368.19,126.04c5.42,0,11.2-1.44,15.53-3.97h0c2.89-1.81,5.42-3.97,6.5-6.5h0c1.08-2.17,1.81-4.33,1.81-6.5h0c0-2.17-.36-3.97-1.44-6.14h0c-1.44-2.89-3.61-5.06-6.5-6.86h0c-4.33-2.53-10.11-3.97-15.53-3.97s-10.83,1.08-15.17,3.61h-.36c-2.89,1.81-5.06,3.97-6.5,6.5h0c-1.08,2.17-1.81,4.33-1.81,6.5s.72,4.33,1.81,6.5h0c1.44,2.53,3.61,4.7,6.5,6.5,4.33,2.53,10.11,3.97,15.53,3.97h0l-.36.36Z"/><path class="cls-2" d="M385.52,109.42h-34.31l-2.53,32.87v1.08c0,2.89,1.81,5.78,5.78,7.95,7.58,4.33,20.22,4.33,28.17,0,3.97-2.17,5.78-5.06,5.78-7.95s0-.72,0-1.08l-2.53-32.87h-.36Z"/><path class="cls-5" d="M385.52,102.56h-40.81l-2.89,38.64v1.81h0c0,2.89.72,5.78,2.89,8.31h0c1.44,2.17,3.61,3.97,6.5,5.42,5.06,2.89,11.2,4.33,17.34,4.33s12.28-1.44,17.34-4.33h0c2.89-1.44,5.06-3.61,6.5-5.42h0c1.81-2.53,2.89-5.42,2.89-8.31h0v-1.81l-2.89-38.64h-6.86,0ZM357.35,116.28h22.03l2.17,26.73h0v.72h0c-.36.72-1.08,1.08-2.17,1.81h0c-2.89,1.81-6.86,2.53-10.83,2.53s-7.95-.72-10.83-2.53c-1.08-.72-1.81-1.08-2.17-1.81h0c0-.72,2.17-27.45,2.17-27.45h-.36Z"/><path class="cls-2" d="M364.94,33.22h6.5c16.25,0,30.34,13.36,29.61,29.61l-1.44,36.48c-.72,16.25-13.36,29.61-29.61,29.61h-3.25c-16.25,0-28.89-13.36-29.61-29.61l-1.81-36.48c-.72-16.25,13.36-29.61,29.61-29.61h0Z"/><path class="cls-5" d="M364.94,39.72h7.58c6.14,0,11.56,2.89,15.53,6.86,3.97,3.97,6.5,9.39,6.5,15.17v.72l-1.44,36.48c0,6.5-2.89,12.64-7.22,16.61-3.97,3.97-9.75,6.5-15.89,6.5h-3.25c-6.14,0-11.56-2.53-15.89-6.5-4.33-4.33-6.86-10.11-7.22-16.61l-1.81-36.48v-1.08c0-5.78,2.53-11.2,6.5-14.81,3.97-3.97,9.75-6.5,15.53-6.86h1.08ZM371.44,26.36h-8.31c-9.39.36-18.06,4.33-24.2,10.83-6.5,6.5-10.47,14.81-10.47,24.56s0,.72,0,1.44l1.81,36.48c.36,10.11,4.69,19.14,11.2,25.64,6.5,6.5,15.17,10.47,25.28,10.47h3.25c10.11,0,18.78-3.97,25.28-10.47,6.5-6.5,10.83-15.53,11.2-25.64l1.44-36.48v-1.44c0-9.39-3.97-18.06-10.47-24.56-6.5-6.14-15.17-10.47-24.56-10.83h-1.44,0Z"/><path class="cls-6" d="M364.94,33.22h6.5c16.25,0,30.34,13.36,29.61,29.61l-1.44,36.48c-9.75-6.86-15.89-15.17-16.25-28.53-24.92,2.89-33.23,1.44-47.31-15.89,3.25-12.28,15.53-21.31,28.89-21.31h0v-.36Z"/><path class="cls-5" d="M364.94,39.72h7.58c6.14,0,11.56,2.89,15.53,6.86,3.97,3.97,6.5,9.39,6.5,15.17v.72l-.72,21.31c-2.17-3.61-3.61-7.95-3.61-13.36s-3.25-6.5-6.86-6.5h-.72c-11.56,1.44-19.14,1.81-24.92,0-4.69-1.44-9.03-4.7-14.09-10.83,1.44-3.61,3.97-6.5,7.22-8.67,3.97-2.89,9.03-4.7,14.09-4.7h0ZM371.44,26.36h-6.5c-8.31,0-15.89,2.89-22.03,7.22-6.14,4.7-10.83,11.2-13,18.78-.72,2.17,0,4.33,1.08,6.14,7.95,9.75,14.45,15.17,22.75,18.06,6.5,2.17,14.09,2.17,23.84,1.44.72,5.06,2.53,9.03,5.06,13,3.25,5.42,7.95,9.75,13.36,13.72,1.08.72,2.17,1.08,3.61,1.08,3.61,0,6.86-2.89,6.86-6.5l1.44-36.48v-1.44c0-9.39-3.97-18.06-10.47-24.56-6.5-6.14-15.17-10.47-24.56-10.83h-1.44v.36Z"/><path class="cls-2" d="M428.5,355.01l-20.95-6.86-10.47,32.14,5.42,6.14-5.42,29.25h14.81c15.53-35.75,13.36-29.25,16.97-60.67h-.36Z"/><path class="cls-5" d="M430.31,348.15l-20.59-6.86c-3.61-1.08-7.22.72-8.31,4.33l-10.83,32.14c-.72,2.53,0,5.06,1.44,6.14h0l3.25,3.97-4.69,26c-.72,3.61,1.81,6.86,5.42,7.58h16.25c2.53,0,5.06-2.17,6.14-4.33l1.81-4.33c6.5-14.81,9.39-21.31,11.2-27.81,1.44-5.78,2.17-10.47,3.25-19.86,0-1.81.36-4.33,1.08-10.83,0-3.25-1.81-6.5-5.06-7.22h0l-.36,1.08ZM411.89,356.45l9.75,3.25v5.42c-1.44,8.31-1.81,12.64-3.25,17.34-1.44,5.78-4.33,11.92-10.83,25.64h0c0,.36-2.17.72-2.17.72l3.61-20.95c0-1.81,0-3.97-1.44-5.78l-2.89-3.25,7.58-22.39h-.36Z"/><path class="cls-4" d="M394.55,204.41l34.67-27.81c2.53,30.34,6.14,60.67,11.2,91.73.36,2.17.72,3.97,0,5.78l-11.92,71.51c0,1.44-.72,3.25-1.44,4.33-2.89,5.78-10.47,7.58-16.25,3.97-4.33-2.17-6.14-6.86-5.78-11.56l6.14-70.06-17.34-68.62h0l.72.72Z"/><path class="cls-5" d="M435.72,175.88c0-3.61-3.61-6.5-7.22-6.14-3.61.36-6.5,3.61-6.14,7.22,1.08,15.17,2.89,30.7,4.69,45.87,2.17,15.53,3.97,31.06,6.86,46.59h0v2.17c.72,0,.72,1.08,0,1.44h0l-11.92,71.87h0v1.81c-1.44,1.44-2.17,1.81-3.61,2.17-1.44.36-2.53,0-3.97-.36-1.44-.36-1.44-1.44-2.17-2.17l-.72-2.89h0l6.14-71.51-17.34-69.7c-.72-3.61-4.33-5.78-7.95-4.69-3.61,1.08-5.78,4.33-4.69,7.95l16.97,67.54-6.14,68.62h0c-.72,3.61,0,7.58,1.81,10.47,1.44,3.25,3.97,6.14,7.22,7.95,4.33,2.53,9.39,3.25,13.72,1.81,4.69-1.08,8.67-3.97,11.2-8.31,2.53-4.33,1.44-2.17,1.44-3.25.36-1.08.72-2.53,1.08-3.61h0l11.56-71.15h0v-4.69h0v-3.97h0c-2.53-15.89-4.69-30.7-6.5-45.87-1.81-15.17-3.61-30.34-4.69-45.51h0v.36h.36Z"/></svg>