<?xml version="1.0" encoding="UTF-8"?><svg id="Layer_1" xmlns="http://www.w3.org/2000/svg" viewBox="0 0 720 720"><defs><style>.cls-1{fill:#fdfdfd;stroke-linecap:round;stroke-linejoin:round;stroke-width:42.79px;}.cls-1,.cls-2,.cls-3{stroke:#322883;}.cls-2{fill:#fefefe;stroke-width:37.74px;}.cls-2,.cls-3{stroke-miterlimit:10;}.cls-3{fill:#322883;stroke-width:1.22px;}</style></defs><polyline class="cls-1" points="246.53 403.73 246.53 623.56 347.86 543.62 447.72 623.56 447.72 403.73"/><circle class="cls-2" cx="347.86" cy="263.84" r="177.66"/><polygon class="cls-3" points="260.29 208.09 287.98 280.75 315.19 208.09 349.68 208.09 349.68 317.08 323.36 317.08 323.36 256.23 300.12 317.13 276.29 316.95 253.48 257.14 253.48 317.08 227.16 317.08 227.16 208.09 260.29 208.09"/><path class="cls-3" d="M475.82,254.41h-30.85c-2.77-25.15-37.53-31.72-48.27-7.89-4.33,9.61-3.83,26.75,1.81,35.77,12.68,20.29,44.54,11.8,46.46-11.53h30.85c-2.81,24.15-21.11,43.77-45.15,47.9-42.63,7.33-76.08-31.02-64.2-72.42,16.71-58.26,101.77-51.03,109.35,8.17Z"/></svg>