<?xml version="1.0" encoding="UTF-8"?>
<svg width="183px" height="180px" viewBox="0 0 183 180" version="1.1" xmlns="http://www.w3.org/2000/svg" xmlns:xlink="http://www.w3.org/1999/xlink">
    <title>Group 99</title>
    <defs>
        <polygon id="path-1" points="0 0 59.2674781 0 59.2674781 69.7125987 0 69.7125987"></polygon>
        <polygon id="path-3" points="0 0 59.2658253 0 59.2658253 69.7150487 0 69.7150487"></polygon>
        <polygon id="path-5" points="0 0 59.2676079 0 59.2676079 69.71237 0 69.71237"></polygon>
    </defs>
    <g id="Illustraties" stroke="none" stroke-width="1" fill="none" fill-rule="evenodd">
        <g transform="translate(-215, -1868)" id="Group-99">
            <g transform="translate(215, 1868)" id="Group-98">
                <path d="M89.9834447,114.286074 C88.6192332,114.286074 87.5138698,113.181168 87.5138698,111.816957 L87.5138698,47.0578419 C87.5138698,45.6936304 88.6192332,44.586895 89.9834447,44.586895 C91.3476562,44.586895 92.4525623,45.6936304 92.4525623,47.0578419 L92.4525623,111.816957 C92.4525623,113.181168 91.3476562,114.286074 89.9834447,114.286074" id="Fill-1" fill="#0A0A0A"></path>
                <path d="M89.9836276,45.2731624 C89.0003709,45.2731624 88.2000457,46.073945 88.2000457,47.057659 L88.2000457,111.816774 C88.2000457,112.80003 89.0003709,113.599898 89.9836276,113.599898 C90.9668843,113.599898 91.7667522,112.80003 91.7667522,111.816774 L91.7667522,47.057659 C91.7667522,46.073945 90.9668843,45.2731624 89.9836276,45.2731624 M89.9836276,114.971884 C88.243492,114.971884 86.8280597,113.556909 86.8280597,111.816774 L86.8280597,47.057659 C86.8280597,45.3175233 88.243492,43.9011764 89.9836276,43.9011764 C91.7237633,43.9011764 93.1387383,45.3175233 93.1387383,47.057659 L93.1387383,111.816774 C93.1387383,113.556909 91.7237633,114.971884 89.9836276,114.971884" id="Fill-3" fill="#000000"></path>
                <path d="M89.9834447,45.3589116 C89.0472929,45.3589116 88.2858406,46.1208212 88.2858406,47.0578876 L88.2858406,111.817002 C88.2858406,112.752697 89.0472929,113.514149 89.9834447,113.514149 C90.9195965,113.514149 91.6810488,112.752697 91.6810488,111.817002 L91.6810488,47.0578876 C91.6810488,46.1208212 90.9195965,45.3589116 89.9834447,45.3589116 M89.9834447,115.058091 C88.1957468,115.058091 86.7423563,113.6047 86.7423563,111.817002 L86.7423563,47.0578876 C86.7423563,45.2701898 88.1957468,43.8154272 89.9834447,43.8154272 C91.7711426,43.8154272 93.2245331,45.2701898 93.2245331,47.0578876 L93.2245331,111.817002 C93.2245331,113.6047 91.7711426,115.058091 89.9834447,115.058091" id="Fill-5" fill="#0A0A0A"></path>
                <path d="M89.9836276,46.0449046 C89.4256866,46.0449046 88.9720166,46.499032 88.9720166,47.0578876 L88.9720166,111.816545 C88.9720166,112.374486 89.4256866,112.828156 89.9836276,112.828156 C90.5411113,112.828156 90.9947814,112.374486 90.9947814,111.816545 L90.9947814,47.0578876 C90.9947814,46.499032 90.5411113,46.0449046 89.9836276,46.0449046 M89.9836276,114.200142 C88.669265,114.200142 87.6000305,113.130908 87.6000305,111.816545 L87.6000305,47.0578876 C87.6000305,45.7430677 88.669265,44.6729185 89.9836276,44.6729185 C91.297533,44.6729185 92.3667674,45.7430677 92.3667674,47.0578876 L92.3667674,111.816545 C92.3667674,113.130908 91.297533,114.200142 89.9836276,114.200142 M89.9836276,44.5014203 C88.5745979,44.5014203 87.4280749,45.6484006 87.4280749,47.0578876 L87.4280749,111.816545 C87.4280749,113.225575 88.5745979,114.371641 89.9836276,114.371641 C91.3926573,114.371641 92.538723,113.225575 92.538723,111.816545 L92.538723,47.0578876 C92.538723,45.6484006 91.3926573,44.5014203 89.9836276,44.5014203 M89.9836276,115.743627 C87.8181763,115.743627 86.0560888,113.981996 86.0560888,111.816545 L86.0560888,47.0578876 C86.0560888,44.891979 87.8181763,43.1294342 89.9836276,43.1294342 C92.1486217,43.1294342 93.9107091,44.891979 93.9107091,47.0578876 L93.9107091,111.816545 C93.9107091,113.981996 92.1486217,115.743627 89.9836276,115.743627" id="Fill-7" fill="#000000"></path>
                <path d="M55.1684748,56.589578 L34.9723824,46.076506 C33.3625854,45.1751112 31.3832669,45.192947 29.7565487,46.1231535 L4.38715415,60.925054 C2.71516045,61.8840723 1.675195,63.6612516 1.66742041,65.5742575 L1.45793804,96.4764145 C1.4520186,98.3834752 2.47277624,100.130471 4.13059275,101.045586 L24.6207475,111.582896 C26.2323738,112.471028 28.2052898,112.443589 29.8214894,111.510638 L54.8954496,96.7174268 C56.560126,95.7574938 57.5941462,93.9844305 57.6014635,92.0773699 L57.8095926,61.1404558 C57.8173226,59.245743 56.8084555,57.5074367 55.1684748,56.589578" id="Fill-9" fill="#F8D754"></path>
                <path d="M32.4188877,46.1841155 C31.6245077,46.1841155 30.8360731,46.394944 30.1395615,46.7932773 L4.7761122,61.5915191 C3.33918545,62.4160827 2.44556518,63.9417312 2.43916258,65.5771386 L2.22968813,96.4806677 C2.22513275,98.1014406 3.09680124,99.5923321 4.50308697,100.370248 L24.9731192,110.89704 C26.3633985,111.661236 28.0802104,111.623735 29.4357326,110.842618 L54.5037476,96.052608 C55.9342717,95.2266724 56.823776,93.7042252 56.8297213,92.0743057 L57.0378364,61.1355624 C57.0437511,59.52668 56.1830585,58.0421911 54.7914073,57.2633603 L34.6168094,46.7608069 C33.9353896,46.3798521 33.1817119,46.1841155 32.4188877,46.1841155 M27.1458879,113.001209 L27.1458879,113.001209 C26.1324475,113.001209 25.129983,112.745105 24.2482533,112.258508 L3.77822099,101.731716 C1.8560685,100.671628 0.678447115,98.6607536 0.686183444,96.4733504 L0.895678244,65.5689067 C0.904824818,63.3869915 2.09570873,61.3495922 4.00276938,60.255662 L29.3675906,45.4569628 C31.2051373,44.4051068 33.5356843,44.388643 35.3494499,45.402998 L55.5245052,55.9050941 C57.4265352,56.969298 58.5904367,58.9723977 58.5813437,61.1437943 L58.3736629,92.0820803 C58.3645164,94.2571356 57.1795777,96.2908763 55.2816637,97.3852639 L30.2136487,112.175274 C29.2756676,112.718123 28.216037,113.001209 27.1458879,113.001209" id="Fill-11" fill="#0A0A0A"></path>
                <g id="Group-15" transform="translate(0, 43.975)">
                    <mask id="mask-2" fill="white">
                        <use xlink:href="#path-1"></use>
                    </mask>
                    <g id="Clip-14"></g>
                    <path d="M32.4190249,2.89504743 C31.7444651,2.89504743 31.0744785,3.07477761 30.4799512,3.4141155 L5.12198989,18.2086987 C3.89360502,18.9134422 3.13032343,20.214085 3.12529282,21.6043642 L2.91536537,52.5101799 C2.91172032,53.87805 3.64756218,55.1379906 4.83570213,55.7951719 L25.2865266,66.3119025 C26.4746665,66.9649679 27.9262278,66.9457601 29.0933306,66.2734869 L54.1544856,51.4871356 C55.3782972,50.7805628 56.1383775,49.482664 56.1438654,48.096958 L56.3515236,17.155928 C56.3569806,15.7972045 55.6307427,14.5441239 54.4567799,13.8873999 L34.3000178,3.39399303 C33.7086918,3.06425905 33.0643157,2.89504743 32.4190249,2.89504743 M27.1483117,68.1613398 C26.2812165,68.1613398 25.4164079,67.9486819 24.6426078,67.5229089 L4.18949668,57.0052636 C2.54540004,56.0960942 1.53836226,54.374709 1.54337411,52.5042347 L1.75330674,21.5979616 C1.76016667,19.721542 2.78732691,17.9667718 4.43462486,17.0214734 L29.7939582,2.22551823 C31.3772301,1.3213794 33.3666099,1.3021716 34.9512538,2.18664529 L55.108016,12.6800521 C56.7356488,13.5901362 57.730796,15.3042042 57.7235188,17.162788 L57.5158515,48.103818 C57.5085343,49.9742923 56.4859473,51.7254039 54.8464239,52.6720743 L29.7843543,67.4588829 C28.9716812,67.9267301 28.0588531,68.1613398 27.1483117,68.1613398 M32.4158236,1.36894158 C31.4750985,1.36894158 30.5320867,1.60629518 29.7084377,2.07734373 L4.34818974,16.8732989 C2.64784166,17.8483237 1.58958307,19.657516 1.58135115,21.597047 L1.37186546,52.5028627 C1.36549201,54.437363 2.4141467,56.2214023 4.10946416,57.1557248 L24.5616606,67.6733701 C26.2048426,68.5793382 28.2577911,68.5395506 29.8703321,67.6066001 L54.9328591,52.8193341 C56.6263472,51.8429374 57.6791179,50.037861 57.6873498,48.1042753 L57.895483,17.16416 C57.9036663,15.2442941 56.8664448,13.4671148 55.1894205,12.528219 L35.0326584,2.03664148 C34.2355344,1.590746 33.326365,1.36894158 32.4158236,1.36894158 M27.1460251,69.7125987 C26.0155085,69.7125987 24.8991692,69.4258536 23.9168272,68.8839191 L3.46417338,58.3667312 C1.31198455,57.1799632 -0.0083233822,54.9344793 -0.000129735554,52.4960027 L0.209365075,21.5897297 C0.219426307,19.1640583 1.54202088,16.901196 3.66128204,15.6860736 L29.0219873,0.889203786 C31.0566427,-0.275155064 33.6698188,-0.297106841 35.6843517,0.829751056 L55.8411138,11.3217859 C57.9713509,12.5135845 59.2774816,14.7517511 59.2674781,17.1714772 L59.0593359,48.1115926 C59.0492746,50.5299467 57.7330826,52.7886931 55.6238827,54.0047301 L30.5622704,68.7915387 C29.5191036,69.3947552 28.3396529,69.7125987 27.1460251,69.7125987" id="Fill-13" fill="#000000" mask="url(#mask-2)"></path>
                </g>
                <path d="M26.082873,75.7422292 C25.0200412,75.7422292 23.9544653,75.4842958 22.9776112,74.9675144 L10.5826317,69.0684316 C10.1984756,68.8859575 10.0342946,68.4249701 10.2181407,68.0403567 C10.3987855,67.6562006 10.8602302,67.4915623 11.2462156,67.6754084 L23.6695495,73.5882111 C25.2491628,74.4232933 27.0839655,74.3931096 28.6032115,73.5264717 L53.7937905,59.1947052 C54.1628547,58.9825046 54.634818,59.112386 54.8456465,59.4837369 C55.0569323,59.8541731 54.927051,60.3252217 54.5566148,60.5360502 L29.3660357,74.8678168 C28.3439061,75.4499962 27.2152189,75.7422292 26.082873,75.7422292" id="Fill-16" fill="#0A0A0A"></path>
                <path d="M10.9138291,68.2863081 C10.9042252,68.2863081 10.894164,68.2881374 10.8850174,68.291796 C10.863523,68.2991133 10.8479738,68.3132905 10.8388272,68.3329556 C10.8269367,68.357194 10.826022,68.3786885 10.8333393,68.4006403 C10.8392845,68.4157321 10.8507178,68.4367692 10.8772428,68.4491171 L23.2722224,74.3481999 C25.1010798,75.3145354 27.278879,75.2678879 29.026332,74.271826 L54.2173683,59.9400595 C54.2521253,59.9203943 54.2699611,59.8586549 54.250296,59.823898 C54.2347468,59.7969156 54.212795,59.7859397 54.1972459,59.7818237 C54.1752941,59.7763358 54.154257,59.7790626 54.1355065,59.7895983 L28.9426408,74.1227369 C27.217597,75.1069082 25.1271475,75.1348053 23.3485963,74.1945375 L10.9513301,68.2954547 C10.9389822,68.2895094 10.926177,68.2863081 10.9138291,68.2863081 M26.0829645,76.4285881 C24.8980259,76.4285881 23.7135446,76.1326965 22.6571153,75.5742981 L10.2882035,69.6880205 C9.93606037,69.5210956 9.6703524,69.2265759 9.54047105,68.8584263 C9.41013237,68.490734 9.43116949,68.0951447 9.59946645,67.7439163 C9.76273279,67.3968038 10.0563378,67.1306385 10.4231154,66.9998425 C10.7903504,66.8672172 11.1882263,66.8877969 11.5412841,67.0570086 L23.9641607,72.9684392 C25.348952,73.7006225 26.9468584,73.6809573 28.2635077,72.930481 L53.4545441,58.5982571 C53.789766,58.406179 54.1830687,58.3558729 54.5580782,58.4583145 C54.934917,58.5607561 55.2486445,58.8049696 55.4420946,59.1452222 C55.6346299,59.4827308 55.6844788,59.8755761 55.5806652,60.2515003 C55.4773089,60.6269671 55.2344673,60.93978 54.8965014,61.1323154 L29.7054651,75.4640819 C28.597815,76.0947382 27.3451917,76.4285881 26.0829645,76.4285881" id="Fill-18" fill="#000000"></path>
                <path d="M26.5758276,107.432775 C26.14914,107.432775 25.8038568,107.087492 25.8038568,106.660804 L25.8038568,75.2510125 C25.8038568,74.8243248 26.14914,74.4790416 26.5758276,74.4790416 C27.0025153,74.4790416 27.3477985,74.8243248 27.3477985,75.2510125 L27.3477985,106.660804 C27.3477985,107.087492 27.0025153,107.432775 26.5758276,107.432775" id="Fill-20" fill="#0A0A0A"></path>
                <path d="M26.5760106,75.1649889 C26.5279911,75.1649889 26.4900328,75.2024899 26.4900328,75.2505094 L26.4900328,106.660759 C26.4900328,106.757255 26.661531,106.757255 26.661531,106.660759 L26.661531,75.2505094 C26.661531,75.2034046 26.6235728,75.1649889 26.5760106,75.1649889 M26.5760106,108.118723 C25.7720267,108.118723 25.1180467,107.464742 25.1180467,106.660759 L25.1180467,75.2505094 C25.1180467,74.4469829 25.7720267,73.7930029 26.5760106,73.7930029 C27.3799944,73.7930029 28.0339744,74.4469829 28.0339744,75.2505094 L28.0339744,106.660759 C28.0339744,107.464742 27.3799944,108.118723 26.5760106,108.118723" id="Fill-22" fill="#000000"></path>
                <path d="M178.085988,50.1559694 L157.889896,39.6428974 C156.280099,38.7410453 154.30078,38.7593384 152.674062,39.689545 L127.304667,54.4914454 C125.632674,55.4504637 124.592708,57.227643 124.584934,59.1406489 L124.375451,90.042806 C124.369532,91.9498666 125.390289,93.6968622 127.048106,94.6119769 L147.538261,105.149287 C149.149887,106.03742 151.122803,106.00998 152.739003,105.077029 L177.812963,90.2838182 C179.477639,89.3238853 180.511659,87.5508219 180.518977,85.6437613 L180.727106,54.7068472 C180.734836,52.8121345 179.725969,51.0738281 178.085988,50.1559694" id="Fill-24" fill="#DD784B"></path>
                <path d="M155.336401,39.7505069 C154.542021,39.7505069 153.753586,39.9613354 153.057075,40.3596687 L127.693625,55.1579105 C126.256699,55.9824741 125.363078,57.5081227 125.356676,59.1435301 L125.147201,90.0470591 C125.142646,91.667832 126.014314,93.1587235 127.4206,93.9366397 L147.890632,104.463431 C149.280912,105.227628 150.997724,105.190127 152.353246,104.409009 L177.421261,89.6189995 C178.851785,88.7930638 179.741289,87.2706166 179.747234,85.6406972 L179.95535,54.7019538 C179.961264,53.0930715 179.100572,51.6085825 177.70892,50.8297518 L157.534323,40.3271984 C156.852903,39.9462436 156.099225,39.7505069 155.336401,39.7505069 M150.063401,106.567601 L150.063401,106.567601 C149.049961,106.567601 148.047496,106.311497 147.165766,105.824442 L126.695734,95.2981072 C124.773582,94.2380193 123.59596,92.227145 123.603697,90.0397419 L123.813191,59.1352982 C123.822338,56.953383 125.013222,54.9159836 126.920283,53.8220534 L152.285104,39.0228969 C154.12265,37.9714983 156.453197,37.9550344 158.266963,38.9693895 L178.442018,49.4714856 C180.344048,50.5356894 181.50795,52.5387891 181.498857,54.7101857 L181.291176,85.6484718 C181.28203,87.823527 180.097091,89.8572677 178.199177,90.9516553 L153.131162,105.741665 C152.193181,106.284514 151.13355,106.567601 150.063401,106.567601" id="Fill-26" fill="#0A0A0A"></path>
                <path d="M155.336492,40.4364084 C154.661932,40.4364084 153.991946,40.6161386 153.397419,40.9554765 L128.039457,55.7500597 C126.811072,56.4548032 126.047791,57.755446 126.04276,59.1457252 L125.832833,90.0515409 C125.829188,91.4194111 126.56503,92.6793516 127.75317,93.3365329 L148.203994,103.853264 C149.392134,104.506329 150.843695,104.487121 152.010798,103.814848 L177.071953,89.0284967 C178.295765,88.3219238 179.055845,87.024025 179.061333,85.6383191 L179.268991,54.6972891 C179.274448,53.3385655 178.54821,52.0854849 177.374247,51.4287609 L157.217485,40.935354 C156.626159,40.6056201 155.981783,40.4364084 155.336492,40.4364084 M150.065779,105.702701 C149.198684,105.702701 148.333875,105.490043 147.560075,105.06427 L127.106964,94.5466247 C125.462867,93.6374552 124.45583,91.91607 124.460842,90.0455957 L124.670774,59.1393226 C124.677634,57.262903 125.704794,55.5081328 127.352092,54.5628344 L152.711426,39.7668792 C154.294698,38.8627404 156.284077,38.8435326 157.868721,39.7280063 L178.025483,50.2214131 C179.653116,51.1314972 180.648263,52.8455652 180.640986,54.704149 L180.433319,85.6456363 C180.426002,87.5156533 179.403415,89.2667649 177.763891,90.2134353 L152.701822,105.000244 C151.889149,105.468091 150.976321,105.702701 150.065779,105.702701 M155.333291,38.9103026 C154.392566,38.9103026 153.449554,39.1476562 152.625905,39.6187047 L127.265657,54.4146599 C125.565309,55.3896847 124.50705,57.198877 124.498819,59.138408 L124.289333,90.0442237 C124.282959,91.9787241 125.331614,93.7627633 127.026932,94.6970858 L147.479128,105.214731 C149.12231,106.120699 151.175259,106.080912 152.787799,105.147961 L177.850326,90.3606951 C179.543815,89.3842984 180.596585,87.579222 180.604817,85.6456363 L180.81295,54.705521 C180.821134,52.7856551 179.783912,51.0084758 178.106888,50.06958 L157.950126,39.5780025 C157.153002,39.132107 156.243832,38.9103026 155.333291,38.9103026 M150.063492,107.25396 C148.932976,107.25396 147.816637,106.967215 146.834295,106.42528 L126.381641,95.9080922 C124.229452,94.7213242 122.909144,92.4758403 122.917338,90.0373638 L123.126832,59.1310907 C123.136894,56.7054193 124.459488,54.442557 126.578749,53.2274346 L151.939455,38.4305648 C153.97411,37.266206 156.587286,37.2442542 158.601819,38.3711121 L178.758581,48.8631469 C180.888818,50.0549455 182.194949,52.2931121 182.184946,54.7128382 L181.976803,85.6529536 C181.966742,88.0713077 180.65055,90.3300541 178.54135,91.5460911 L153.479738,106.3329 C152.436571,106.936116 151.25712,107.25396 150.063492,107.25396" id="Fill-28" fill="#000000"></path>
                <path d="M149.000386,69.3086206 C147.937554,69.3086206 146.871978,69.0506873 145.895124,68.5339058 L133.500145,62.634823 C133.115989,62.4523489 132.951808,61.9913616 133.135654,61.6067481 C133.316299,61.222592 133.777743,61.0579537 134.163729,61.2417998 L146.587063,67.1546025 C148.166676,67.9896847 150.001479,67.959501 151.520725,67.0928631 L176.711304,52.7610966 C177.080368,52.5488961 177.552331,52.6787774 177.76316,53.0501283 C177.974445,53.4205645 177.844564,53.8916131 177.474128,54.1024416 L152.283549,68.4342082 C151.261419,69.0163876 150.132732,69.3086206 149.000386,69.3086206" id="Fill-30" fill="#0A0A0A"></path>
                <path d="M133.831342,61.8526995 C133.821738,61.8526995 133.811677,61.8545288 133.802531,61.8581875 C133.781036,61.8655047 133.765487,61.8796819 133.75634,61.899347 C133.74445,61.9235855 133.743535,61.9450799 133.750852,61.9670317 C133.756798,61.9821235 133.768231,62.0031606 133.794756,62.0155085 L146.189736,67.9145913 C148.018593,68.8809269 150.196392,68.8342793 151.943845,67.8382174 L177.134881,53.5064509 C177.169638,53.4867857 177.187474,53.4250464 177.167809,53.3902894 C177.15226,53.363307 177.130308,53.3523311 177.114759,53.3482151 C177.092807,53.3427272 177.07177,53.345454 177.05302,53.3559897 L151.860154,67.6891283 C150.13511,68.6732996 148.044661,68.7011967 146.266109,67.7609289 L133.868843,61.8618461 C133.856495,61.8559008 133.84369,61.8526995 133.831342,61.8526995 M149.000478,69.9949795 C147.815539,69.9949795 146.631058,69.6990879 145.574628,69.1406896 L133.205717,63.254412 C132.853574,63.087487 132.587866,62.7929673 132.457984,62.4248177 C132.327646,62.0571254 132.348683,61.6615361 132.51698,61.3103077 C132.680246,60.9631952 132.973851,60.6970299 133.340629,60.5662339 C133.707864,60.4336086 134.105739,60.4541884 134.458797,60.6234 L146.881674,66.5348307 C148.266465,67.2670139 149.864372,67.2473488 151.181021,66.4968724 L176.372057,52.1646485 C176.707279,51.9725704 177.100582,51.9222643 177.475591,52.0247059 C177.85243,52.1271475 178.166158,52.3713611 178.359608,52.7116136 C178.552143,53.0491222 178.601992,53.4419675 178.498178,53.8178917 C178.394822,54.1933586 178.15198,54.5061714 177.814015,54.6987068 L152.622978,69.0304733 C151.515328,69.6611296 150.262705,69.9949795 149.000478,69.9949795" id="Fill-32" fill="#000000"></path>
                <path d="M149.493295,100.999167 C149.066607,100.999167 148.721324,100.653883 148.721324,100.227196 L148.721324,68.8174039 C148.721324,68.3907162 149.066607,68.0454331 149.493295,68.0454331 C149.919983,68.0454331 150.265266,68.3907162 150.265266,68.8174039 L150.265266,100.227196 C150.265266,100.653883 149.919983,100.999167 149.493295,100.999167" id="Fill-34" fill="#0A0A0A"></path>
                <path d="M149.493524,68.7313804 C149.445504,68.7313804 149.407546,68.7688813 149.407546,68.8169008 L149.407546,100.22715 C149.407546,100.323646 149.579044,100.323646 149.579044,100.22715 L149.579044,68.8169008 C149.579044,68.769796 149.541086,68.7313804 149.493524,68.7313804 M149.493524,101.685114 C148.68954,101.685114 148.03556,101.031134 148.03556,100.22715 L148.03556,68.8169008 C148.03556,68.0133743 148.68954,67.3593943 149.493524,67.3593943 C150.297508,67.3593943 150.951488,68.0133743 150.951488,68.8169008 L150.951488,100.22715 C150.951488,101.031134 150.297508,101.685114 149.493524,101.685114" id="Fill-36" fill="#000000"></path>
                <path d="M70.993511,125.013359 C70.1611728,125.013359 69.351701,124.594446 68.8847684,123.832994 C68.1713357,122.670464 68.5376559,121.149846 69.7015575,120.436871 L133.01277,81.1166645 C134.178043,80.4050611 135.697746,80.7681801 136.408893,81.9320816 C137.120496,83.0959831 136.755548,84.615229 135.593475,85.3282045 L72.2822633,124.65024 C71.878442,124.895826 71.4320892,125.013359 70.993511,125.013359" id="Fill-38" fill="#0A0A0A"></path>
                <path d="M134.301156,81.4396758 C133.983313,81.4396758 133.661353,81.5242816 133.370035,81.7017251 L70.0597373,121.021931 C69.6536294,121.271176 69.367799,121.663106 69.2562108,122.126838 C69.1446226,122.590112 69.2200818,123.068477 69.4688686,123.474585 C69.7972306,124.008288 70.3670622,124.327046 70.9931452,124.327046 C71.3201352,124.327046 71.6430092,124.236038 71.9260957,124.063625 L135.235479,84.7434183 C136.072847,84.2298382 136.336726,83.1285907 135.823603,82.2893925 C135.489296,81.7419701 134.902086,81.4396758 134.301156,81.4396758 M70.9931452,125.699032 C69.8864097,125.699032 68.8793719,125.13606 68.2999365,124.192134 C67.8590716,123.473213 67.7250743,122.626241 67.922183,121.805793 C68.119749,120.98626 68.6246399,120.292035 69.3435606,119.851627 L132.654315,80.531421 C134.141548,79.6245382 136.087482,80.0914708 136.994365,81.5741304 C137.901247,83.0577047 137.434315,85.0040956 135.952113,85.9128077 L72.6409004,125.235301 C72.1405828,125.539424 71.5716659,125.699032 70.9931452,125.699032" id="Fill-40" fill="#000000"></path>
                <path d="M134.303168,81.5249676 C133.99127,81.5249676 133.683488,81.6109454 133.415036,81.7751264 L70.1042811,121.095333 C69.7182957,121.332229 69.4452705,121.705867 69.3396275,122.147646 C69.2339846,122.587596 69.3048706,123.043096 69.5417668,123.429081 C70.016474,124.205625 71.0943977,124.469046 71.8814604,123.991138 L135.190843,84.6695597 C135.987053,84.1811327 136.238583,83.1333926 135.750156,82.3344394 C135.43963,81.8281765 134.89861,81.5249676 134.303168,81.5249676 M70.9933281,125.785238 C69.8568663,125.785238 68.8214741,125.20626 68.2274042,124.237181 C67.7737341,123.498595 67.6365355,122.628756 67.8382174,121.785899 C68.0417287,120.943042 68.5603394,120.231896 69.2989253,119.777769 L132.610137,80.4575624 C134.097828,79.5515943 136.164953,80.0523692 137.06772,81.5295409 C137.999299,83.0538174 137.518646,85.0528011 135.997571,85.9857517 L72.6849869,125.308702 C72.1723215,125.621057 71.5873981,125.785238 70.9933281,125.785238" id="Fill-42" fill="#0A0A0A"></path>
                <path d="M134.30294,82.2109606 C134.11635,82.2109606 133.932503,82.2626388 133.772896,82.3605071 L70.4621408,121.680713 C70.2311898,121.822028 70.0697528,122.044747 70.0070988,122.307254 C69.9435301,122.570675 69.9860616,122.841871 70.1264615,123.070535 C70.408176,123.530608 71.0612414,123.686557 71.52543,123.404843 L134.832526,84.0846363 C135.306776,83.7937752 135.455865,83.1690643 135.165004,82.6925278 C134.980243,82.3916055 134.657369,82.2109606 134.30294,82.2109606 M71.0141365,124.915399 C70.2014635,124.915399 69.3993089,124.510663 68.9566148,123.786712 C68.6250514,123.24615 68.5239818,122.606804 68.673071,121.987581 C68.8203308,121.369273 69.2012856,120.844717 69.7455067,120.510867 L133.056719,81.190203 C133.433558,80.9601667 133.863904,80.8389746 134.30294,80.8389746 C135.138479,80.8389746 135.898102,81.2642903 136.334851,81.9758937 C137.020387,83.097721 136.667786,84.5680327 135.549618,85.2540258 L72.2397774,124.576519 C71.8611093,124.806098 71.4362509,124.915399 71.0141365,124.915399 M134.261323,80.6894281 C133.811769,80.6894281 133.361757,80.8033029 132.967082,81.0434005 L69.6572423,120.363149 C69.0746056,120.720781 68.6652964,121.283752 68.5052313,121.946879 C68.3456236,122.610463 68.4549252,123.296456 68.8120989,123.87772 C69.2804035,124.642831 70.0962779,125.099245 70.9930994,125.099245 C71.4623187,125.099245 71.9242206,124.969364 72.3280419,124.722864 L135.639254,85.4008283 C136.83837,84.6649864 137.217038,83.0890317 136.482568,81.8871719 C136.014264,81.1216037 135.138022,80.6894281 134.261323,80.6894281 M70.9930994,126.471231 C69.6147107,126.471231 68.3620875,125.770147 67.6422521,124.595269 C67.0934577,123.702106 66.9260754,122.647049 67.1712035,121.625834 C67.4172464,120.606448 68.0451587,119.743012 68.9396936,119.193303 L132.252278,79.872639 C134.071989,78.7640743 136.545222,79.3595162 137.65333,81.1719099 C138.781559,83.0181458 138.199837,85.4397012 136.355888,86.5702177 L73.0433039,125.894083 C72.4222516,126.272294 71.7143068,126.471231 70.9930994,126.471231" id="Fill-44" fill="#000000"></path>
                <path d="M115.517386,12.6161894 L95.3212937,2.10357479 C93.7128687,1.20126528 91.7321782,1.21955842 90.106832,2.15113697 L64.7360654,16.9534948 C63.0626998,17.9106837 62.0241063,19.6883203 62.0163317,21.6008689 L61.8081863,52.503026 C61.7991006,54.4114586 62.8216875,56.1570822 64.4795041,57.0735689 L84.9696588,67.6095074 C86.5794558,68.4990117 88.5528291,68.4702 90.1704007,67.5372494 L115.24619,52.7458675 C116.910409,51.7854773 117.943057,50.0124139 117.950375,48.1071826 L118.158504,17.1679819 C118.166234,15.2732691 117.157367,13.5363348 115.517386,12.6161894" id="Fill-46" fill="#3D68EC"></path>
                <path d="M92.769171,2.21155009 C91.973419,2.21155009 91.1863564,2.42192129 90.4916741,2.82071191 L65.1245662,17.6194111 C63.6880968,18.4416881 62.7944765,19.9673366 62.7880739,21.604116 L62.5799436,52.5081023 C62.5726721,54.1279606 63.4438832,55.6188521 64.8533703,56.3981402 L85.3220305,66.9231027 C86.7104804,67.688671 88.4245484,67.6534566 89.7841866,66.8686806 L114.854031,52.0809573 C116.283183,51.2554791 117.172687,49.7334892 117.178633,48.104027 L117.386748,17.162997 C117.392662,15.555944 116.53197,14.0709977 115.138947,13.289423 L94.9657207,2.78824157 C94.2843009,2.40682944 93.5319952,2.21155009 92.769171,2.21155009 M87.4929698,69.028644 C86.4786148,69.028644 85.4775223,68.7716253 84.5957926,68.2850276 L64.1271323,57.7605224 C62.2017785,56.6967758 61.0259864,54.6849869 61.036435,52.4994131 L61.2445895,21.5954267 C61.2537361,19.4112249 62.44462,17.3751975 64.3530527,16.2830966 L89.7183313,1.4848548 C91.5494753,0.431169491 93.8845956,0.412876343 95.6983612,1.43043268 L115.872959,11.9316141 C117.775447,12.998562 118.939348,15.0016616 118.930255,17.1712289 L118.722117,48.1122589 C118.713428,50.2868569 117.529861,52.3192256 115.631947,53.4140705 L90.56256,68.2022511 C89.6218349,68.7446429 88.563119,69.028644 87.4929698,69.028644" id="Fill-48" fill="#0A0A0A"></path>
                <g id="Group-52" transform="translate(60.3504, 0)">
                    <mask id="mask-4" fill="white">
                        <use xlink:href="#path-3"></use>
                    </mask>
                    <g id="Clip-51"></g>
                    <path d="M32.4187387,2.8974974 C31.7423495,2.8974974 31.0732776,3.07677024 30.4828663,3.4156508 L5.12033168,18.2120633 C3.89194681,18.9145202 3.12912255,20.2142483 3.12363461,21.6063569 L2.91551428,52.5126299 C2.90960478,53.8805 3.64498932,55.1395259 4.8354159,55.7980792 L25.2853257,66.3129805 C26.4716363,66.9660459 27.9231976,66.9477527 29.0912151,66.2745649 L54.1551141,51.4900429 C55.3775537,50.7839274 56.1367193,49.4869433 56.1422072,48.1016947 L56.3503177,17.158378 C56.3553224,15.8010264 55.6281698,14.5470312 54.452835,13.8875632 L34.2983596,3.396443 C33.7084056,3.06670901 33.0649441,2.8974974 32.4187387,2.8974974 M27.1461962,68.1637897 C26.279101,68.1637897 25.4147497,67.9506746 24.6404923,67.5239869 L4.18966779,57.0081709 C2.54191251,56.0976295 1.53487473,54.375787 1.5435082,52.5053126 L1.75164853,21.5994969 C1.75896579,19.7203333 2.78658336,17.9664778 4.43388131,17.0243807 L29.7955013,2.22796819 C31.370084,1.32520135 33.3690677,1.30324957 34.950053,2.18955258 L55.1049858,12.6811301 C56.7335332,13.5939582 57.7291378,15.3084834 57.7223131,17.1652379 L57.5141933,48.1085546 C57.5068761,49.9785716 56.4847464,51.7287685 54.8465951,52.6749816 L29.7822387,67.4595035 C28.9695657,67.9282655 28.0562803,68.1637897 27.1461962,68.1637897 M32.4141654,1.36864758 C31.4734402,1.36864758 30.5318005,1.6064585 29.7095235,2.07933637 L4.34836085,16.8757489 C2.64664078,17.8489443 1.58838219,19.6576793 1.58015027,21.5985823 L1.37200634,52.5039406 C1.36291914,54.4379837 2.41111651,56.2229376 4.10872061,57.1595467 L24.5586304,67.6749054 C26.1990684,68.5804162 28.2460717,68.5438299 29.8695885,67.607678 L54.9330302,52.8236134 C56.6251463,51.8467593 57.6774597,50.041683 57.6856916,48.1094692 L57.8938303,17.1666099 C57.9024654,15.2481161 56.8652439,13.4709368 55.1873049,12.5302116 L35.0314575,2.03863411 C34.2334189,1.59182398 33.3242495,1.36864758 32.4141654,1.36864758 M27.1425375,69.7150487 C26.012021,69.7150487 24.8956817,69.4283036 23.9133396,68.8849971 L3.46342983,58.3705531 C1.30849703,57.1805839 -0.0118109049,54.9332707 1.01501652e-15,52.4957087 L0.208164196,21.591265 C0.218225427,19.163307 1.54127733,16.900902 3.66191048,15.6880663 L29.0217011,0.89211108 C31.0536125,-0.276363729 33.667246,-0.297858177 35.6836082,0.831743693 L55.8394556,11.3237786 C57.9706073,12.5174064 59.2762808,14.7555731 59.2658253,17.1743845 L59.0576776,48.1167865 C59.0480737,50.5333113 57.7323391,52.7920577 55.6245112,54.008552 L30.5606122,68.793074 C29.5128721,69.3972052 28.3325068,69.7150487 27.1425375,69.7150487" id="Fill-50" fill="#000000" mask="url(#mask-4)"></path>
                </g>
                <path d="M86.4317843,31.7696181 C85.3675805,31.7696181 84.3033766,31.5125994 83.3246932,30.9962753 L70.931543,25.0958205 C70.5473869,24.9119744 70.3832059,24.4514444 70.567052,24.0672883 C70.7476968,23.6803882 71.2118855,23.5207805 71.5951269,23.7014253 L84.0166315,29.6160573 C85.5953302,30.4488529 87.4283036,30.4214131 88.9539521,29.5543179 L114.140872,15.2225514 C114.511766,15.0108082 114.983729,15.1411469 115.193186,15.5120404 C115.404014,15.8820194 115.27459,16.3530679 114.903697,16.5643538 L89.7167763,30.8961203 C88.6946467,31.4778424 87.5641302,31.7696181 86.4317843,31.7696181" id="Fill-53" fill="#0A0A0A"></path>
                <path d="M71.2648441,24.3128738 C71.2515816,24.3128738 71.239691,24.3160751 71.2323738,24.3188191 C71.211794,24.3261363 71.1971595,24.3393989 71.1880129,24.3581493 C71.1678904,24.3997663 71.1912142,24.4596763 71.2278005,24.4770548 L83.6195787,30.3770523 C85.4493508,31.3411011 87.632638,31.2930816 89.3768897,30.2997637 L114.564267,15.9679972 C114.585762,15.9561066 114.599024,15.9382708 114.605427,15.9158617 C114.611372,15.8934526 114.608478,15.8715008 114.597195,15.8513783 C114.585305,15.8298839 114.567926,15.8166214 114.545517,15.8102188 C114.52265,15.8038162 114.501156,15.8065601 114.481491,15.8184507 L89.2931985,30.1506746 C87.5640387,31.1321019 85.4731319,31.1595417 83.6968673,30.2233898 L71.3000584,24.3211057 C71.2877106,24.3151604 71.2753627,24.3128738 71.2648441,24.3128738 M86.4316929,32.4556112 C85.2462969,32.4556112 84.0613583,32.1606342 83.0044717,31.6031505 L70.6369318,25.7155009 C70.2843314,25.5472039 70.0195381,25.2531416 69.8896567,24.886364 C69.7588607,24.5182144 69.7798979,24.1221677 69.9481948,23.770482 C70.1096319,23.4261135 70.4014076,23.1599482 70.7672705,23.0277802 C71.1354201,22.8946975 71.5346681,22.9143627 71.8877258,23.0812876 L84.3115171,28.9968343 C85.6967657,29.7267309 87.2955868,29.7070657 88.6149801,28.9579613 L113.8019,14.6261948 C114.139409,14.4327447 114.534084,14.3838106 114.909093,14.4876242 C115.285475,14.5905231 115.59783,14.8342793 115.790366,15.1740745 C115.981986,15.5111258 116.031378,15.9039711 115.928022,16.2798953 C115.825123,16.6553622 115.581366,16.9677177 115.242486,17.1607104 L90.0560228,31.4920196 C88.9492873,32.1222186 87.6962067,32.4556112 86.4316929,32.4556112" id="Fill-55" fill="#000000"></path>
                <path d="M86.9246475,63.4593867 C86.4979598,63.4593867 86.1526766,63.1141035 86.1526766,62.6874158 L86.1526766,31.2780813 C86.1526766,30.8513936 86.4979598,30.5061104 86.9246475,30.5061104 C87.3513351,30.5061104 87.6966183,30.8513936 87.6966183,31.2780813 L87.6966183,62.6874158 C87.6966183,63.1141035 87.3513351,63.4593867 86.9246475,63.4593867" id="Fill-57" fill="#0A0A0A"></path>
                <path d="M86.9247847,31.1924693 C86.8767652,31.1924693 86.8392642,31.2299703 86.8392642,31.2779898 L86.8392642,62.6873244 C86.8392642,62.7838207 87.0103051,62.7838207 87.0103051,62.6873244 L87.0103051,31.2779898 C87.0103051,31.2308849 86.9723469,31.1924693 86.9247847,31.1924693 M86.9247847,64.1457456 C86.1208008,64.1457456 85.4668208,63.4913082 85.4668208,62.6873244 L85.4668208,31.2779898 C85.4668208,30.4744633 86.1208008,29.8204832 86.9247847,29.8204832 C87.7287685,29.8204832 88.3827485,30.4744633 88.3827485,31.2779898 L88.3827485,62.6873244 C88.3827485,63.4913082 87.7287685,64.1457456 86.9247847,64.1457456" id="Fill-59" fill="#000000"></path>
                <path d="M70.6603928,122.391997 L50.4661297,111.880297 C48.8558754,110.977073 46.8765568,110.995366 45.2498387,111.926944 L19.8818161,126.728845 C18.2070784,127.687863 17.168485,129.465042 17.1611677,131.378048 L16.951228,162.278833 C16.9453086,164.188638 17.9660662,165.93289 19.62434,166.849376 L40.1154094,177.386687 C41.7256638,178.276191 43.6972078,178.247837 45.3161513,177.314429 L70.3905689,162.521675 C72.053416,161.561285 73.0874362,159.788221 73.0947534,157.88299 L73.3028827,126.944704 C73.3106126,125.049534 72.3035748,123.313057 70.6603928,122.391997" id="Fill-61" fill="#05B173"></path>
                <path d="M47.9121776,111.987174 C47.1177977,111.987174 46.329363,112.19846 45.6328514,112.596336 L20.2707742,127.395493 C18.8329327,128.218227 17.9388552,129.745248 17.9329099,131.381112 L17.7229815,162.283269 C17.7188801,163.904042 18.5900912,165.396306 19.9977489,166.174222 L40.4682385,176.701014 C41.1418837,177.071907 41.8855001,177.263071 42.6378058,177.263071 L42.6391778,177.263071 C43.4381311,177.263071 44.231139,177.049041 44.9303946,176.64522 L69.9984095,161.856582 C71.4275617,161.030646 72.317066,159.507742 72.3230113,157.879651 L72.5311264,126.939993 C72.5370411,125.331568 71.6763485,123.846622 70.2833253,123.065962 L50.1100993,112.564781 C49.4273076,112.183368 48.6750019,111.987174 47.9121776,111.987174 M42.6391778,178.807012 L42.6378058,178.807012 C41.6243655,178.807012 40.6237303,178.549079 39.7415432,178.062024 L19.271511,167.535232 C17.3493585,166.47423 16.1717371,164.462898 16.1794734,162.275952 L16.3889682,131.373338 C16.3981148,129.189136 17.5889987,127.152651 19.4988033,126.059636 L44.8608806,111.260479 C46.6988846,110.209995 49.0340049,110.191702 50.8427399,111.206514 L71.0159659,121.707696 C72.9198252,122.773272 74.0837267,124.776829 74.0750858,126.947311 L73.8669529,157.887426 C73.8578063,160.061109 72.6742397,162.093478 70.7763256,163.189238 L45.7083107,177.979247 C44.7675856,178.522097 43.707955,178.807012 42.6391778,178.807012" id="Fill-63" fill="#111111"></path>
                <path d="M47.9120404,112.67335 C47.2370233,112.67335 46.5670368,112.852623 45.9734241,113.191961 L20.6163774,127.987916 C19.3875353,128.691288 18.6237963,129.991473 18.6187657,131.383125 L18.4088383,162.287568 C18.4051932,163.65681 19.1410351,164.916751 20.3296324,165.573932 L40.7818288,176.090663 C41.9919205,176.756076 43.4338779,176.717661 44.5872609,176.051333 L69.6502452,161.265896 C70.8726848,160.558866 71.6318504,159.261424 71.636881,157.877548 L71.8449964,126.93606 C71.8504535,125.577337 71.1233009,124.323342 69.9479662,123.664331 L49.7934907,113.173211 C49.20125,112.843019 48.5568739,112.67335 47.9120404,112.67335 M42.6390406,177.949247 C41.7710308,177.949247 40.9066795,177.725156 40.1374527,177.301212 L19.6843416,166.784024 C18.0393303,165.875769 17.0318352,164.153927 17.036847,162.281623 L17.2467796,131.376265 C17.2536396,129.498016 18.2817145,127.743246 19.9299271,126.800234 L45.2874311,112.003364 C46.867959,111.099682 48.8564242,111.07956 50.4447267,111.965863 L70.5996595,122.457898 C72.2286643,123.369811 73.2242689,125.084794 73.2169917,126.94292 L73.0088671,157.88395 C73.0020072,159.752595 71.9803349,161.502792 70.3421835,162.450835 L45.2787418,177.236271 C44.4688127,177.703661 43.557814,177.949247 42.6390406,177.949247 M47.9124978,111.146787 C46.970858,111.146787 46.0273889,111.384141 45.2019106,111.856104 L19.8448639,126.652059 C18.1422292,127.626627 17.083056,129.435362 17.0748241,131.375807 L16.8653384,162.280251 C16.8589649,164.214294 17.9080769,165.999248 19.6029371,166.934485 L40.0551335,177.45213 C40.8540867,177.892995 41.7408471,178.120745 42.6376686,178.120745 L42.6390406,178.120745 C43.5879977,178.120745 44.5305521,177.86647 45.3660916,177.384903 L70.4272466,162.598552 C72.1202774,161.62124 73.1725908,159.816164 73.1808227,157.884408 L73.3889558,126.94292 C73.3971392,125.023054 72.359003,123.245418 70.6810641,122.305607 L50.5261313,111.814487 C49.7308367,111.368592 48.8225819,111.146787 47.9124978,111.146787 M42.6390406,179.492731 L42.6376686,179.492731 C41.5089814,179.492731 40.3930994,179.205529 39.4098427,178.662222 L18.9576463,168.145492 C16.8054575,166.957809 15.4851495,164.71141 15.4933432,162.273391 L15.702838,131.368947 C15.7128992,128.941447 17.0368658,126.678584 19.1584136,125.464377 L44.5154603,110.667964 C46.5533169,109.502233 49.1664931,109.479367 51.178282,110.607597 L71.3327574,121.099174 C73.4643665,122.291887 74.7704972,124.530511 74.7609459,126.950238 L74.5528088,157.891725 C74.5427475,160.30825 73.2270129,162.566539 71.1191849,163.78349 L46.0571153,178.570299 C45.0080033,179.174888 43.8280952,179.492731 42.6390406,179.492731" id="Fill-65" fill="#000000"></path>
                <path d="M41.5763459,141.546203 C40.5121421,141.546203 39.4461089,141.28827 38.4692548,140.771488 L26.0761046,134.871033 C25.6919485,134.688559 25.5277675,134.227115 25.7116136,133.842958 C25.8936304,133.458345 26.3550751,133.292792 26.7396885,133.47801 L39.1611931,139.392185 C40.7398918,140.224066 42.5756091,140.197083 44.0966844,139.331817 L69.2854341,125.000051 C69.6549557,124.791966 70.1282909,124.918646 70.3377474,125.28954 C70.5485759,125.660433 70.4191519,126.130567 70.0482583,126.341853 L44.8595086,140.673162 C43.837379,141.253513 42.7068625,141.546203 41.5763459,141.546203" id="Fill-67" fill="#0A0A0A"></path>
                <path d="M26.4068904,134.08827 C26.3977438,134.08827 26.3890546,134.089642 26.379908,134.092843 C26.3648162,134.097873 26.3437791,134.110221 26.3314312,134.136289 C26.3204553,134.159155 26.3195406,134.181107 26.3268579,134.203059 C26.3328032,134.218151 26.3442364,134.239188 26.3707615,134.251536 L38.764369,140.151991 C40.5904825,141.117869 42.7691964,141.071679 44.5203079,140.076989 L69.7090576,125.74568 C69.7506746,125.721898 69.7653091,125.67022 69.741528,125.628603 C69.7186616,125.588358 69.6633248,125.574639 69.6217079,125.597962 L44.4361595,139.9279 C42.7097436,140.909784 40.6188369,140.936309 38.8412002,139.998786 L26.4448487,134.097873 C26.4315862,134.091013 26.418781,134.08827 26.4068904,134.08827 M41.5764831,142.232379 C40.3897152,142.232379 39.2038619,141.936487 38.1483473,141.377174 L25.7812648,135.490439 C25.429579,135.323057 25.163871,135.028995 25.0339897,134.660845 C24.903651,134.29361 24.9246881,133.897563 25.0925278,133.546335 C25.2594527,133.195107 25.5553444,132.928941 25.9239513,132.79906 C26.2916436,132.668721 26.6876902,132.69113 27.038004,132.860342 L39.45585,138.77223 C40.8424706,139.502584 42.441749,139.484291 43.7570263,138.735186 L68.9462334,124.40342 C69.6514342,124.006916 70.5413959,124.254788 70.9346985,124.9513 C71.3312025,125.647811 71.0860743,126.539602 70.3881908,126.937935 L45.1989837,141.269245 C44.0899616,141.899444 42.8377957,142.232379 41.5764831,142.232379" id="Fill-69" fill="#000000"></path>
                <path d="M42.0692548,173.236703 C41.6425671,173.236703 41.297284,172.89142 41.297284,172.464732 L41.297284,141.054483 C41.297284,140.627795 41.6425671,140.28297 42.0692548,140.28297 C42.4959425,140.28297 42.8412256,140.627795 42.8412256,141.054483 L42.8412256,172.464732 C42.8412256,172.89142 42.4959425,173.236703 42.0692548,173.236703" id="Fill-71" fill="#0A0A0A"></path>
                <path d="M42.0690719,140.96878 C42.0215097,140.96878 41.9835514,141.007195 41.9835514,141.0543 L41.9835514,172.465007 C41.9835514,172.560588 42.1550497,172.560588 42.1550497,172.465007 L42.1550497,141.0543 C42.1550497,141.006281 42.1170914,140.96878 42.0690719,140.96878 M42.0690719,173.922971 C41.265088,173.922971 40.611108,173.268991 40.611108,172.465007 L40.611108,141.0543 C40.611108,140.250774 41.265088,139.596794 42.0690719,139.596794 C42.8730557,139.596794 43.5270357,140.250774 43.5270357,141.0543 L43.5270357,172.465007 C43.5270357,173.268991 42.8730557,173.922971 42.0690719,173.922971" id="Fill-73" fill="#000000"></path>
                <path d="M41.7418532,84.966366 C41.3334587,84.2410427 41.3014457,83.3305013 41.7354506,82.5493839 C42.3981199,81.3580426 43.9031886,80.9304403 45.0954445,81.5949389 L119.220194,124.79375 C120.41245,125.460078 120.841424,126.962403 120.176468,128.153286 C119.511512,129.344628 118.00873,129.77223 116.816931,129.109561 L42.6908102,85.9112071 C42.2787571,85.6797988 41.957255,85.3486928 41.7418532,84.966366" id="Fill-75" fill="#0A0A0A"></path>
                <path d="M119.571193,126.075185 C119.415244,125.798044 119.183379,125.558861 118.885658,125.392393 L44.7613659,82.1940395 C44.3451968,81.9621738 43.8631723,81.9054651 43.4044717,82.0362611 C42.945771,82.1665998 42.5661882,82.4670647 42.3343225,82.8827765 C42.0306563,83.4306563 42.0324856,84.0837216 42.3398105,84.6293148 C42.4998755,84.9142305 42.7381438,85.1511268 43.0271755,85.3130212 L117.151467,128.51046 C118.009873,128.987911 119.098316,128.677842 119.577596,127.818979 C119.890866,127.258751 119.86617,126.598826 119.571193,126.075185 M41.1443533,85.3025026 C40.6010468,84.3384537 40.5973881,83.1846134 41.1352067,82.2164486 C41.5454305,81.4792347 42.218161,80.9469041 43.0299195,80.7164105 C43.8407632,80.4859168 44.6932239,80.5851571 45.4295231,80.9958383 L119.55473,124.194649 C121.074433,125.045738 121.62277,126.970177 120.775797,128.487594 C119.92791,130.005925 118.003013,130.554262 116.483767,129.709119 L42.357189,86.5103077 C41.8468101,86.2240199 41.4278971,85.8064788 41.1443533,85.3025026" id="Fill-77" fill="#000000"></path>
                <path d="M119.497838,126.118814 C119.344633,125.846703 119.118712,125.62124 118.843858,125.468035 L44.7191087,82.268767 C44.3235194,82.0487919 43.8639041,81.9943698 43.4271552,82.1192205 C42.9917782,82.2431566 42.6300313,82.5280724 42.4100561,82.924119 C41.9664473,83.7189563 42.2655403,84.7872761 43.0681521,85.2386595 L117.193359,128.435641 C118.00969,128.889311 119.045997,128.594792 119.502868,127.777088 C119.791443,127.25802 119.790071,126.637425 119.497838,126.118814 M41.0691684,85.3452171 C40.5116847,84.3546432 40.5075688,83.1683325 41.0609365,82.1750146 C41.4816789,81.417221 42.1722452,80.8707132 43.0054981,80.6333596 C43.8396656,80.397378 44.7140781,80.4998196 45.4718717,80.920562 L119.597078,124.11983 C121.116324,124.971834 121.694845,127.017922 120.850616,128.529851 C119.979862,130.089799 118.002373,130.651399 116.442425,129.784303 L42.3144745,86.5850352 C41.7908331,86.2918875 41.3609441,85.8629132 41.0691684,85.3452171" id="Fill-79" fill="#0A0A0A"></path>
                <path d="M118.900064,126.455271 C118.808598,126.292462 118.673228,126.158007 118.509505,126.066999 L44.385213,82.8681877 C44.1483168,82.736477 43.8752915,82.704464 43.6159862,82.7790086 C43.3553088,82.8530959 43.139907,83.0232221 43.009111,83.2573744 C42.7466043,83.7288803 42.9309078,84.3741711 43.4047003,84.6407937 L117.52762,127.836403 C118.013761,128.106685 118.631154,127.930156 118.903722,127.442643 C119.07522,127.133946 119.074306,126.764425 118.900064,126.455271 M41.8374349,84.9362281 C41.4386443,84.2282832 41.3974847,83.330547 41.8109098,82.5896745 C42.1196067,82.0353922 42.6267842,81.6338576 43.2396047,81.4596153 C43.8505958,81.2849158 44.4949719,81.359003 45.0524556,81.6695292 L119.178119,124.86834 C119.56319,125.083742 119.880119,125.399299 120.095521,125.782083 C120.505745,126.51015 120.508031,127.380447 120.101923,128.110343 C119.460748,129.258238 118.006901,129.672578 116.860378,129.034605 L42.7342565,85.8376229 C42.348271,85.6203918 42.0446048,85.3039203 41.8374349,84.9362281 M120.20528,125.672324 C119.984847,125.280393 119.664717,124.944714 119.261811,124.718336 L45.1379761,81.5199827 C44.5402475,81.1879621 43.8492238,81.1074722 43.1929571,81.293605 C42.5362331,81.4801951 41.992012,81.9119134 41.660906,82.50827 C41.2241571,83.2921314 41.2264438,84.2264539 41.6668513,85.008486 C41.8968876,85.4168805 42.2366828,85.7557611 42.650108,85.9867121 L116.776686,129.185066 C118.005986,129.868772 119.565019,129.425163 120.251927,128.195406 C120.689133,127.412002 120.635626,126.436063 120.20528,125.672324 M40.4713941,85.6816738 C39.795005,84.4802713 39.7913463,83.0451739 40.4617902,81.8414848 C40.970797,80.9245408 41.8077085,80.2609568 42.8179476,79.9732971 C43.8268147,79.687924 44.8869026,79.8114027 45.8052186,80.3208669 L119.93134,123.520592 C121.789924,124.562387 122.485063,127.009553 121.449671,128.864478 C120.394614,130.753703 117.999126,131.434666 116.109444,130.383267 L41.9805788,87.1844559 C41.3462639,86.8291115 40.8253665,86.3095861 40.4713941,85.6816738" id="Fill-81" fill="#000000"></path>
                <path d="M164.927361,122.902238 L144.731269,112.389166 C143.121472,111.487772 141.142153,111.505607 139.515435,112.435814 L114.14604,127.237714 C112.474047,128.196733 111.434081,129.973912 111.426307,131.886918 L111.216824,162.789075 C111.210905,164.696136 112.231662,166.443131 113.889479,167.358246 L134.379634,177.895556 C135.99126,178.783689 137.964176,178.756249 139.580376,177.823298 L164.654336,163.030087 C166.319012,162.070154 167.353032,160.297091 167.36035,158.39003 L167.568479,127.453116 C167.576209,125.558403 166.567342,123.820097 164.927361,122.902238" id="Fill-83" fill="#F4D9DC"></path>
                <path d="M142.177774,112.496776 C141.383394,112.496776 140.594959,112.707604 139.898448,113.105938 L114.534998,127.904179 C113.098072,128.728743 112.204451,130.254392 112.198049,131.889799 L111.988574,162.793328 C111.984019,164.414101 112.855687,165.904993 114.261973,166.682909 L134.732005,177.2097 C136.122285,177.973897 137.839097,177.936396 139.194619,177.155278 L164.262634,162.365268 C165.693158,161.539333 166.582662,160.016886 166.588607,158.386966 L166.796723,127.448223 C166.802637,125.83934 165.941945,124.354851 164.550293,123.576021 L144.375696,113.073467 C143.694276,112.692513 142.940598,112.496776 142.177774,112.496776 M136.904774,179.31387 L136.904774,179.31387 C135.891334,179.31387 134.888869,179.057766 134.007139,178.571168 L113.537107,168.044376 C111.614955,166.984288 110.437333,164.973414 110.44507,162.786011 L110.654564,131.881567 C110.663711,129.699652 111.854595,127.662253 113.761656,126.568322 L139.126477,111.769623 C140.964023,110.717767 143.29457,110.701303 145.108336,111.715658 L165.283391,122.217755 C167.185421,123.281958 168.349323,125.285058 168.34023,127.456455 L168.132549,158.394741 C168.123403,160.569796 166.938464,162.603537 165.04055,163.697924 L139.972535,178.487934 C139.034554,179.030783 137.974923,179.31387 136.904774,179.31387" id="Fill-85" fill="#0A0A0A"></path>
                <g id="Group-89" transform="translate(109.7588, 110.2876)">
                    <mask id="mask-6" fill="white">
                        <use xlink:href="#path-5"></use>
                    </mask>
                    <g id="Clip-88"></g>
                    <path d="M32.4191546,2.89504743 C31.7445948,2.89504743 31.0746083,3.07477761 30.480081,3.4141155 L5.12211962,18.2086987 C3.89373476,18.9134422 3.13045317,20.214085 3.12542255,21.6043642 L2.9154951,52.5101799 C2.91185005,53.87805 3.64769192,55.1379906 4.83583186,55.7951719 L25.2866563,66.3119025 C26.4747963,66.9649679 27.9263575,66.9457601 29.0934604,66.2734869 L54.1546154,51.4871356 C55.3784269,50.7805628 56.1385072,49.482664 56.1439952,48.096958 L56.3516533,17.155928 C56.3571103,15.7972045 55.6308724,14.5441239 54.4569096,13.8873999 L34.3001475,3.39399303 C33.7088215,3.06425905 33.0644454,2.89504743 32.4191546,2.89504743 M27.1484414,68.1613398 C26.2813462,68.1613398 25.4165377,67.9486819 24.6427375,67.5229089 L4.18962642,57.0052636 C2.54552977,56.0960942 1.53849199,54.374709 1.54350385,52.5042347 L1.75343648,21.5979616 C1.76029641,19.721542 2.78745665,17.9667718 4.4347546,17.0214734 L29.7940879,2.22551823 C31.3773598,1.3213794 33.3667397,1.3021716 34.9513836,2.18664529 L55.1081457,12.6800521 C56.7357785,13.5901362 57.7309257,15.3042042 57.7236486,17.162788 L57.5159813,48.103818 C57.508664,49.9742923 56.486077,51.7254039 54.8465537,52.6720743 L29.784484,67.4588829 C28.9718109,67.9267301 28.0589829,68.1613398 27.1484414,68.1613398 M32.4159533,1.36894158 C31.4752282,1.36894158 30.5322164,1.60629518 29.7085674,2.07734373 L4.34831948,16.8732989 C2.6479714,17.8483237 1.5897128,19.657516 1.58148089,21.597047 L1.37199519,52.5028627 C1.36562175,54.437363 2.41427644,56.2214023 4.1095939,57.1557248 L24.5617903,67.6733701 C26.2049723,68.5793382 28.2579208,68.5395506 29.8704618,67.6066001 L54.9329888,52.8193341 C56.6264769,51.8429374 57.6792476,50.037861 57.6874795,48.1042753 L57.8956127,17.16416 C57.903796,15.2442941 56.8665745,13.4671148 55.1895502,12.528219 L35.0327881,2.03664148 C34.2356642,1.590746 33.3264947,1.36894158 32.4159533,1.36894158 M27.1461548,69.7125987 C26.0156383,69.7125987 24.8992989,69.4258536 23.9169569,68.8839191 L3.46430311,58.3667312 C1.31211429,57.1799632 -0.00819364665,54.9344793 -6.09039051e-15,52.4960027 L0.209494811,21.5897297 C0.219556042,19.1640583 1.54215062,16.901196 3.66141178,15.6860736 L29.0221171,0.889203786 C31.0567724,-0.275155064 33.6699486,-0.297106841 35.6844815,0.829751056 L55.8412436,11.3217859 C57.9714806,12.5135845 59.2776114,14.7517511 59.2676079,17.1714772 L59.0594656,48.1115926 C59.0494044,50.5299467 57.7332124,52.7886931 55.6240125,54.0047301 L30.5624001,68.7915387 C29.5192334,69.3947552 28.3397827,69.7125987 27.1461548,69.7125987" id="Fill-87" fill="#000000" mask="url(#mask-6)"></path>
                </g>
                <path d="M135.841759,142.05489 C134.778927,142.05489 133.713351,141.796956 132.736497,141.280175 L120.341518,135.381092 C119.957362,135.198618 119.793181,134.737631 119.977027,134.353017 C120.157672,133.968861 120.619116,133.804223 121.005102,133.988069 L133.428436,139.900871 C135.008049,140.735954 136.842852,140.70577 138.362098,139.839132 L163.552677,125.507366 C163.921741,125.295165 164.393704,125.425046 164.604533,125.796397 C164.815818,126.166834 164.685937,126.637882 164.315501,126.848711 L139.124922,141.180477 C138.102792,141.762657 136.974105,142.05489 135.841759,142.05489" id="Fill-90" fill="#0A0A0A"></path>
                <path d="M120.672715,134.598968 C120.663111,134.598968 120.65305,134.600798 120.643904,134.604456 C120.622409,134.611774 120.60686,134.625951 120.597713,134.645616 C120.585823,134.669854 120.584908,134.691349 120.592225,134.713301 C120.598171,134.728392 120.609604,134.74943 120.636129,134.761777 L133.031109,140.66086 C134.859966,141.627196 137.037765,141.580548 138.785218,140.584486 L163.976254,126.25272 C164.011011,126.233055 164.028847,126.171315 164.009182,126.136558 C163.993633,126.109576 163.971681,126.0986 163.956132,126.094484 C163.93418,126.088996 163.913143,126.091723 163.894393,126.102259 L138.701527,140.435397 C136.976483,141.419569 134.886034,141.447466 133.107482,140.507198 L120.710216,134.608115 C120.697868,134.60217 120.685063,134.598968 120.672715,134.598968 M135.841851,142.741249 C134.656912,142.741249 133.472431,142.445357 132.416001,141.886959 L120.04709,136.000681 C119.694947,135.833756 119.429239,135.539236 119.299357,135.171087 C119.169019,134.803394 119.190056,134.407805 119.358353,134.056577 C119.521619,133.709464 119.815224,133.443299 120.182002,133.312503 C120.549237,133.179878 120.947112,133.200457 121.30017,133.369669 L133.723047,139.2811 C135.107838,140.013283 136.705745,139.993618 138.022394,139.243141 L163.21343,124.910917 C163.548652,124.718839 163.941955,124.668533 164.316964,124.770975 C164.693803,124.873416 165.007531,125.11763 165.200981,125.457883 C165.393516,125.795391 165.443365,126.188236 165.339551,126.564161 C165.236195,126.939628 164.993353,127.25244 164.655388,127.444976 L139.464351,141.776742 C138.356701,142.407399 137.104078,142.741249 135.841851,142.741249" id="Fill-92" fill="#000000"></path>
                <path d="M136.334714,173.745436 C135.908026,173.745436 135.562743,173.400152 135.562743,172.973465 L135.562743,141.563673 C135.562743,141.136985 135.908026,140.791702 136.334714,140.791702 C136.761401,140.791702 137.106685,141.136985 137.106685,141.563673 L137.106685,172.973465 C137.106685,173.400152 136.761401,173.745436 136.334714,173.745436" id="Fill-94" fill="#0A0A0A"></path>
                <path d="M136.334897,141.477649 C136.286877,141.477649 136.248919,141.51515 136.248919,141.56317 L136.248919,172.973419 C136.248919,173.069915 136.420417,173.069915 136.420417,172.973419 L136.420417,141.56317 C136.420417,141.516065 136.382459,141.477649 136.334897,141.477649 M136.334897,174.431383 C135.530913,174.431383 134.876933,173.777403 134.876933,172.973419 L134.876933,141.56317 C134.876933,140.759643 135.530913,140.105663 136.334897,140.105663 C137.138881,140.105663 137.792861,140.759643 137.792861,141.56317 L137.792861,172.973419 C137.792861,173.777403 137.138881,174.431383 136.334897,174.431383" id="Fill-96" fill="#000000"></path>
            </g>
        </g>
    </g>
</svg>