<?xml version="1.0" encoding="UTF-8"?>
<svg width="200px" height="228px" viewBox="0 0 200 228" version="1.1" xmlns="http://www.w3.org/2000/svg" xmlns:xlink="http://www.w3.org/1999/xlink">
    <title>Group 141</title>
    <g id="Illustraties" stroke="none" stroke-width="1" fill="none" fill-rule="evenodd">
        <g transform="translate(-212, -2353)" id="Group-141">
            <g transform="translate(212, 2353)">
                <path d="M22.151815,197.726002 L121.845688,140.166696 C121.005457,126.301262 115.613549,116.499644 107.324532,111.706118 C97.9196763,106.274441 85.2843006,107.541493 71.9733179,115.221956 C58.1883468,123.195135 45.7046474,136.859413 36.6725087,152.506118 C28.3834913,166.865424 22.9985202,182.889008 22.151815,197.726002" id="Fill-1" fill="#3D68EC"></path>
                <path d="M94.3183353,109.987505 C87.7550983,109.987505 80.4223815,112.21502 72.7821503,116.623806 C59.6857341,124.198372 47.3592601,137.229586 38.0741734,153.315135 C30.2517457,166.86658 25.3111676,181.468199 24.003422,194.787967 L120.161572,139.27028 C119.196948,126.918372 114.371052,117.650395 106.514405,113.107043 C102.905156,111.022418 98.7895491,109.987505 94.3183353,109.987505 L94.3183353,109.987505 Z M22.1846936,199.580106 L20.5356763,197.633748 C21.369896,183.027043 26.6027283,166.713054 35.2709364,151.696638 C44.8348671,135.127389 57.5821503,121.676291 71.1631908,113.821031 C85.0545202,105.806233 98.1833064,104.557678 108.133827,110.304268 C117.171977,115.530626 122.614751,126.101725 123.460994,140.068892 L123.522035,141.068199 L122.654983,141.568546 L22.1846936,199.580106 Z" id="Fill-3" fill="#000000"></path>
                <path d="M22.1965318,199.306765 C24.6062428,167.253124 44.4203468,131.951389 71.993526,115.222141 C83.3211561,109.010349 95.1764162,105.349771 107.324393,111.70584 L81.0917919,95.7451458 C81.0917919,95.7451458 58.4365318,95.7104646 40.2418497,109.390927 C22.0476301,123.071389 13.6406936,141.316014 10.7722543,146.590927 C0.462427746,165.54954 0,186.358788 0,186.358788 L22.1965318,199.306765 Z" id="Fill-5" fill="#000000"></path>
                <path d="M67.6203006,30.0176553 C38.6561387,26.4278288 7.12642775,89.0091004 31.6138266,103.832684 L52.9483931,116.145285 C26.1146358,99.1265571 66.4101272,29.4396207 94.5012254,44.1688692 C88.020763,40.4241293 73.5366012,30.7538403 67.6203006,30.0176553" id="Fill-7" fill="#3D68EC"></path>
                <path d="M65.2016185,31.4881756 C49.9119075,31.4881756 33.9766474,50.4435513 27.505896,69.1001987 C22.0580347,84.8088692 23.9068208,97.2754588 32.4520231,102.447713 L45.0615029,109.724939 C39.4531792,98.4296785 43.7690173,81.2097941 51.732948,67.4308345 C59.7653179,53.5334935 72.6823121,41.1034357 85.3643931,40.5272507 C78.9801156,36.6567305 71.0813873,32.0796207 67.4212717,31.6241293 C66.6836994,31.5325686 65.9433526,31.4881756 65.2016185,31.4881756 L65.2016185,31.4881756 Z M52.139422,117.546904 L30.8048555,105.234303 C20.8284393,99.1954588 18.4631214,85.2971929 24.4478613,68.0393894 C28.1116763,57.4747652 34.4991908,47.1644762 41.9724855,39.751297 C50.3766474,31.4146496 59.5581503,27.3855166 67.819422,28.4116438 L67.8203468,28.4116438 C72.7960694,29.0308345 82.4178035,34.922164 90.1495954,39.655112 C92.1717919,40.8934935 93.9188439,41.9626264 95.3107514,42.7677131 L93.7495954,45.6019328 C86.2092486,41.6495629 78.4492486,44.8130311 73.2672832,48.1642449 C66.4094798,52.598927 59.7574566,60.0167305 54.5357225,69.0507189 C49.3112139,78.0902565 46.2041618,87.5635513 45.787052,95.7249386 C45.4716763,101.894187 46.6087861,110.207713 53.8152601,114.777887 L52.139422,117.546904 Z" id="Fill-9" fill="#000000"></path>
                <path d="M73.728,114.088222 L73.7478844,114.078048 C81.8556301,109.389031 89.1934335,101.3488 94.5108902,92.1520368 L94.5108902,92.1617478 C99.8255723,82.9483374 103.112509,72.5719212 103.112509,63.197586 C103.112509,53.8190889 99.8153988,47.2378172 94.5108902,44.1686842 C89.1837225,41.1000137 81.8357457,41.5471814 73.728,46.2260253 C65.6105434,50.9150426 58.2556301,58.9552738 52.9483468,68.1622103 C47.6304277,77.3756207 44.3328555,87.7585108 44.3328555,97.1263721 C44.3328555,106.491459 47.6304277,113.075967 52.9483468,116.1451 C58.2556301,119.214233 65.6105434,118.77354 73.728,114.088222" id="Fill-11" fill="#FFFFFF"></path>
                <path d="M86.8463353,43.8242218 C83.1066821,43.8242218 78.915237,45.1014473 74.5369711,47.6281525 C66.9156994,52.0300022 59.7462197,59.6101178 54.3506127,68.9705802 C48.934659,78.3546264 45.9515376,88.354164 45.9515376,97.1268808 C45.9515376,105.58191 48.7237919,111.838095 53.7573179,114.743066 C58.7829827,117.648962 65.5876069,116.918788 72.9189364,112.68665 L72.9670289,112.659829 C80.5480694,108.266303 87.7004393,100.697285 93.1099191,91.3419097 L93.4923468,90.6801756 C98.6572023,81.5019097 101.494197,71.7705802 101.494197,63.1976322 C101.494197,54.737979 98.726104,48.4776322 93.7004393,45.5694241 C91.6759306,44.4036438 89.3633295,43.8242218 86.8463353,43.8242218 M60.5989364,119.734048 C57.5214798,119.734048 54.6664509,119.008037 52.137896,117.546303 C46.0620578,114.039251 42.7145434,106.786996 42.7145434,97.1268808 C42.7145434,87.7946264 45.8511908,77.221216 51.5464509,67.3530079 C57.2218266,57.5083837 64.8121156,49.5069964 72.918474,44.824453 C81.2856416,39.9957825 89.2407861,39.2656091 95.3189364,42.7661871 C101.389225,46.2787883 104.731191,53.5338172 104.731191,63.1976322 C104.731191,72.5386727 101.599168,83.1125455 95.9131561,92.9705802 L92.892578,98.2075744 L92.892578,97.7567074 C87.657896,105.401563 81.2777803,111.592546 74.5582428,115.478788 L74.5073757,115.507459 C69.6315376,118.316245 64.8985896,119.734048 60.5989364,119.734048" id="Fill-13" fill="#000000"></path>
                <path d="M167.219561,25.0162218 C167.12985,25.0162218 167.038289,25.0388808 166.955052,25.0869733 L134.444994,43.8222334 C134.189734,43.968823 134.10141,44.2957594 134.247538,44.5505571 C134.394127,44.8058172 134.721064,44.8927536 134.976324,44.7475513 L167.485457,26.0122912 C167.740717,25.8657016 167.82904,25.5383027 167.682451,25.2830426 C167.583954,25.1119444 167.404069,25.0162218 167.219561,25.0162218 M134.713202,45.7426958 C134.207306,45.7426958 133.714821,45.4800368 133.445688,45.0111351 C133.045688,44.3142565 133.287075,43.4213085 133.983954,43.0208461 L166.493549,24.285586 C167.191815,23.8846611 168.084301,24.1260484 168.484301,24.8220022 C168.885225,25.5198056 168.643838,26.413216 167.946497,26.8141409 L135.436902,45.549401 C135.208462,45.6807305 134.959214,45.7426958 134.713202,45.7426958" id="Fill-51" fill="#000000"></path>
                <path d="M125.364624,41.0563605 C125.392832,38.5402912 127.067746,35.6380947 129.233295,34.3571698 L175.828439,7.47948193 C177.110751,6.74005997 178.472601,5.65936633 179.928786,6.27763222 C178.89896,5.68295014 172.116532,1.683875 171.630983,1.54375939 C170.305202,1.16271893 168.914682,2.22121604 167.817341,2.85427962 L122.725549,28.8649155 C120.683931,30.0422565 119.571329,30.6124299 118.360694,32.8491929 C117.766936,33.946534 117.367399,35.1756669 117.353064,36.4306958 L117.337803,75.86006 C117.347052,76.7280368 117.573179,77.7675744 118.343121,78.2780947 L121.061734,79.8475744 C120.36763,84.22769 120.443468,88.230927 120.490173,92.6272276 L128.501272,97.2528923 C128.443468,91.8489617 128.363468,88.013586 129.400694,82.6128923 L125.349364,80.2739328 L125.364624,41.0563605 Z" id="Fill-17" fill="#F4D9DC"></path>
                <path d="M120.949688,92.3586496 L128.030382,96.4469733 C127.976277,91.5100947 127.954081,87.8546033 128.88541,82.8497478 L124.886798,80.5408461 L124.902058,41.0509039 C124.932116,38.3711351 126.693503,35.322349 128.998243,33.959112 L175.597087,7.07911199 C175.777434,6.97506575 175.95963,6.86408309 176.143214,6.75217558 C176.763792,6.37437211 177.428301,5.96974783 178.133503,5.76489234 C176.063214,4.55471893 171.921711,2.13992124 171.492116,1.98454552 C170.573272,1.72049928 169.508763,2.36882297 168.570497,2.94177095 C168.391075,3.05136633 168.216277,3.15818714 168.048416,3.25483454 L122.695353,29.4157594 C120.868763,30.4663952 119.86252,31.0448923 118.767491,33.0689386 C118.147838,34.2139097 117.827838,35.3463952 117.815353,36.435875 L117.800092,75.85969 C117.806104,76.4220022 117.917549,77.4407305 118.598705,77.8929848 L121.568416,79.6062796 L121.518012,79.9202681 C120.859514,84.0793432 120.901595,87.9632738 120.946451,92.0751814 L120.949688,92.3586496 Z M128.972347,98.0589964 L120.030382,92.8959906 L120.021595,92.0848923 C119.977202,88.035875 119.936046,84.2060484 120.556162,80.089979 L118.111769,78.6786496 C117.05096,77.9757594 116.883098,76.6148345 116.875237,75.8647767 L116.890497,36.4307883 C116.904832,35.1840831 117.262289,33.9068577 117.953618,32.6291698 C119.173965,30.3743721 120.325873,29.7117131 122.234312,28.6139097 L167.586451,2.45344725 C167.747838,2.36049928 167.915699,2.25784032 168.088647,2.15240679 C169.134197,1.5142565 170.435931,0.717031067 171.758474,1.09899639 C172.092809,1.19564378 174.007723,2.2809617 179.079168,5.24651084 C179.585064,5.54200217 179.970266,5.76766691 180.159861,5.87679985 L179.747838,6.70362066 C178.717549,6.26570159 177.701595,6.88627962 176.624139,7.54200217 C176.434081,7.65807153 176.245873,7.77275361 176.059052,7.88003685 L129.464832,34.7572623 C127.453734,35.9470889 125.854197,38.7161062 125.826913,41.0592276 L125.811653,80.0072045 L129.917087,82.3766842 L129.855121,82.6999212 C128.860902,87.8749501 128.901595,91.5808461 128.957549,96.7105571 L128.972347,98.0589964 Z" id="Fill-19" fill="#000000"></path>
                <path d="M127.360416,37.7425571 C126.749087,38.8010542 126.372671,39.9834819 126.360185,41.064638 L126.344925,79.6995513 L129.829318,81.7106496 C130.230243,81.9007074 130.468855,82.3437131 130.381457,82.8001293 C129.396948,87.9330773 129.436717,91.6449848 129.492208,96.7034819 L129.496832,97.1908808 C129.508393,97.3804762 129.467237,97.5760831 129.36504,97.7527305 C129.088971,98.2290311 128.477179,98.3922681 128.001341,98.1157363 L119.990243,93.490534 C119.697064,93.3180484 119.496832,92.9998981 119.49452,92.6350426 L119.488971,92.0958519 C119.444578,88.0935397 119.403884,84.3876438 119.97637,80.3700715 L117.792786,79.1108808 C117.266543,78.7612854 116.913249,78.2701871 116.687584,77.7254473 C116.440647,77.1303027 116.347699,76.4620947 116.34215,75.8683374 L116.35741,36.4306496 C116.364347,35.7249848 116.47348,35.041979 116.656601,34.3881062 C116.85452,33.685216 117.140301,33.0063721 117.48111,32.3760831 C118.771746,29.9908808 119.932902,29.3231351 121.967584,28.1518056 C137.198566,19.3957363 152.75926,10.7108808 167.809434,1.69585188 C168.955329,0.996198697 170.29637,0.178626443 171.803884,0.560129333 L171.904694,0.583713148 C172.42215,0.730765171 176.98215,3.39804841 179.278566,4.74001373 L180.433249,5.41377095 C180.857295,5.66486922 181.042266,6.19666113 180.846659,6.66278829 C180.633942,7.17007153 180.048971,7.40729696 179.542613,7.1945802 C178.765272,6.86533165 177.809434,7.44660332 176.904,7.99735477 L176.324578,8.34278829 L129.741919,35.2163143 C128.809202,35.7675282 127.971283,36.6845224 127.360416,37.7425571 L127.360416,37.7425571 Z M124.368046,41.0521525 C124.383769,39.6153894 124.861919,38.0861409 125.634636,36.7464877 C126.408277,35.4031351 127.494058,34.2257941 128.725503,33.4979328 L175.332208,6.61608309 L175.865387,6.29515823 C176.212208,6.08382876 176.564116,5.86926228 176.926197,5.68151662 C174.616832,4.33400217 171.576832,2.56752818 171.357179,2.50510043 L171.297064,2.48614089 C170.596948,2.3312276 169.654058,2.90648771 168.848046,3.39804841 C153.810821,12.4334241 138.194173,21.1201293 122.959954,29.8785108 C121.242497,30.8671814 120.264,31.4304184 119.239723,33.3217478 C118.963191,33.8336553 118.733364,34.3756207 118.577988,34.927297 C118.438798,35.4276438 118.354173,35.9377016 118.349549,36.4389733 L118.334289,75.85169 C118.337064,76.2193201 118.390705,76.6220947 118.530821,76.9592045 C118.615908,77.1649848 118.735214,77.3416322 118.893827,77.4466033 L121.557873,78.9841756 C121.925965,79.1955051 122.108162,79.6075282 122.045272,80.0038288 C121.395561,84.1106496 121.435792,87.9182796 121.48111,92.0468345 L127.486659,95.5150426 C127.446428,91.1441756 127.478798,87.6593201 128.291283,83.1215166 L124.853133,81.1377016 C124.533595,80.9536553 124.353711,80.6188577 124.353711,80.2738866 L124.368046,41.0521525 Z" id="Fill-21" fill="#000000"></path>
                <path d="M121.940486,91.778349 L127.01748,94.7106033 C126.991121,90.7633201 127.064185,87.4962681 127.779561,83.3607767 L124.622104,81.5378866 C124.171237,81.2784646 123.891468,80.7938403 123.891468,80.2740715 L123.905341,41.0467883 C123.921988,39.5808923 124.394127,37.9716438 125.234358,36.5154588 C126.073665,35.0578866 127.229734,33.8444762 128.490312,33.0995051 L175.100717,6.21580563 L175.627422,5.89904263 C175.745341,5.8269039 175.868809,5.75152818 175.996439,5.6752276 C173.039676,3.95222182 171.428578,3.03291546 171.203376,2.94089234 L171.158058,2.92655708 C170.672509,2.82805997 169.759676,3.38389812 169.088694,3.79268425 C158.539792,10.1316438 147.552509,16.385979 136.927306,22.4340715 C132.412624,25.0042449 127.743491,27.6618172 123.189965,30.2796207 C121.471584,31.2682912 120.608694,31.765401 119.646382,33.5420484 C119.373087,34.0474819 119.163145,34.5561525 119.022566,35.0527999 C118.887075,35.5411236 118.816324,36.0095629 118.812162,36.4433201 L118.796902,75.851875 C118.799676,76.2065571 118.856555,76.5381178 118.958289,76.7813548 C119.013318,76.9154588 119.082682,77.0171929 119.149272,77.061586 L121.789272,78.5838981 C122.30904,78.8817016 122.596208,79.4814704 122.501873,80.07569 C121.871121,84.0645918 121.897017,87.8185802 121.940486,91.778349 L121.940486,91.778349 Z M127.957133,96.3203143 L121.021179,92.31569 L121.018405,92.0521062 C120.973549,87.9549964 120.931006,84.085401 121.588578,79.9314126 C121.622798,79.7136091 121.518289,79.4948808 121.328231,79.3852854 L118.662335,77.8472507 C118.412162,77.682164 118.232277,77.4477131 118.10326,77.135112 C117.916902,76.6860947 117.874821,76.191297 117.872046,75.855112 L117.887306,36.4391582 C117.891931,35.9203143 117.974705,35.3714126 118.132393,34.8035513 C118.291468,34.238927 118.527306,33.6673663 118.832971,33.1018172 C119.920601,31.0944184 120.977711,30.4858634 122.728925,29.477771 C127.284301,26.8585802 131.953896,24.2005455 136.469965,21.6303721 C147.090543,15.5845918 158.07274,9.3334935 168.610081,3.0019328 C169.501179,2.45765534 170.513896,1.83938945 171.396671,2.03453396 L171.496092,2.06412933 C171.611699,2.09649928 171.786035,2.1469039 177.159445,5.28262644 L177.885457,5.70621026 L177.139098,6.09233743 C176.786728,6.27499639 176.440832,6.48586344 176.106497,6.68979407 L175.570543,7.01210621 L128.956902,33.8985802 C127.835514,34.5612392 126.796902,35.6553432 126.035283,36.9774241 C125.273665,38.2981178 124.845457,39.7455166 124.830197,41.0555744 L124.816324,80.2740715 C124.816324,80.4641293 124.91852,80.6417016 125.084069,80.7369617 L128.803838,82.8840137 L128.746497,83.2030889 C127.942335,87.6960368 127.908578,91.138349 127.949272,95.5106033 L127.957133,96.3203143 Z M171.029965,0.927481934 C169.955283,0.927481934 168.953202,1.53927384 168.051006,2.09048771 C157.423954,8.45534321 146.387653,14.7452854 135.714358,20.8275975 C131.195052,23.4037825 126.68222,25.9748808 122.198058,28.5529155 C120.210543,29.6969617 119.115977,30.3263259 117.887769,32.5959212 C117.546035,33.2285224 117.281526,33.8736091 117.101642,34.5131467 C116.921295,35.1586958 116.826035,35.8051698 116.820023,36.4349964 L116.804763,75.86806 C116.808462,76.3008923 116.865341,76.9482912 117.11459,77.54806 C117.325919,78.0581178 117.64037,78.4548808 118.048694,78.725401 L120.478289,80.1256322 L120.434358,80.4349964 C119.866497,84.4206611 119.907653,88.1464415 119.951121,92.0909501 L119.957133,92.6301409 C119.95852,92.8192738 120.061179,92.9954588 120.224879,93.0916438 L128.23274,97.7154588 C128.357133,97.7880086 128.50141,97.8065571 128.638751,97.7695629 C128.77748,97.7325686 128.893087,97.6442449 128.964763,97.5203143 C129.017942,97.4301409 129.041988,97.3256322 129.035514,97.2197363 L129.029503,96.7078288 C128.973549,91.5929155 128.932855,87.8962681 129.927075,82.7129155 C129.973318,82.4733779 129.851237,82.232453 129.631121,82.1284068 L125.88222,79.9665571 L125.897942,41.064823 C125.910428,39.9355744 126.287769,38.6749964 126.959676,37.5110657 C127.632046,36.3485224 128.536092,35.3917594 129.506266,34.818349 L176.093087,7.94204841 L176.667422,7.6003143 C177.630659,7.01395592 178.726613,6.34713511 179.722682,6.76886922 C179.995052,6.88216402 180.306728,6.75453396 180.420486,6.48447615 C180.524069,6.23753974 180.427884,5.94805997 180.197133,5.81164378 L178.877364,5.04077673 C176.90326,3.88794436 172.281757,1.18782876 171.776324,1.02782876 L171.699098,1.0102565 C171.472971,0.953377888 171.250081,0.927481934 171.029965,0.927481934 L171.029965,0.927481934 Z M128.498173,98.7129155 C128.244763,98.7129155 127.99459,98.6467883 127.769387,98.5159212 L119.759214,93.8907189 C119.312509,93.6285224 119.035514,93.1489848 119.032277,92.6375397 L119.026266,92.1006611 C118.98326,88.2222796 118.943029,84.5519906 119.475746,80.6148808 L117.561757,79.5115282 C116.973087,79.1212392 116.543491,78.5852854 116.260486,77.9022796 C115.954358,77.1651698 115.884532,76.3919906 115.879908,75.8722218 L115.895168,36.4308345 C115.902104,35.7149964 116.008925,34.9871351 116.211006,34.2634357 C116.40985,33.557771 116.699792,32.8484068 117.074358,32.15569 C118.42696,29.6558056 119.67274,28.9390426 121.736092,27.7519906 C126.222104,25.1730311 130.736324,22.6005455 135.256555,20.0243605 C145.925225,13.9443605 156.957827,7.65719292 167.572393,1.29927384 C168.750197,0.57973627 170.220717,-0.317835985 171.917364,0.111759391 L172.00985,0.133031067 C172.500948,0.272221819 175.068347,1.74459176 179.343954,4.24216402 L180.666035,5.01441835 C181.294474,5.38621026 181.554358,6.17141257 181.273202,6.8419328 C180.962913,7.58227962 180.10696,7.931875 179.363838,7.62112355 C178.802451,7.38297326 177.921988,7.91938945 177.144185,8.39291546 L176.561064,8.7401987 L129.972855,35.6169617 C129.14141,36.10806 128.354358,36.9464415 127.761064,37.9734935 C127.166844,39.0023952 126.833434,40.1020484 126.822798,41.0703721 L126.807075,79.4329155 L130.060717,81.3099097 C130.628116,81.5771929 130.960601,82.2329155 130.835746,82.8867883 C129.858636,87.9795051 129.898867,91.6363837 129.954358,96.6985802 L129.959445,97.1864415 C129.976555,97.451875 129.90904,97.7358056 129.765225,97.9845918 C129.569618,98.3212392 129.25378,98.5626264 128.877364,98.6634357 C128.751584,98.6967305 128.624416,98.7129155 128.498173,98.7129155 L128.498173,98.7129155 Z" id="Fill-23" fill="#000000"></path>
                <path d="M129.400925,82.6129848 L129.400925,82.6129848 L126.639769,83.066164 L119.702428,79.062927 L121.061965,79.8476669 L121.043006,79.9674357 C120.406705,84.2777247 120.444162,88.2962218 120.489942,92.6273201 L128.50104,97.2529848 C128.449711,92.3470889 128.42474,87.9850079 129.304277,83.1156438 L129.400925,82.6129848 Z" id="Fill-25" fill="#FFFFFF"></path>
                <path d="M120.949688,92.3586496 L128.030844,96.4474357 C127.987376,92.0566842 127.99385,87.853216 128.823908,83.1762218 L126.551538,83.549401 L121.421827,80.589401 C120.880786,84.5940253 120.908069,88.3776091 120.949688,92.3586496 L120.949688,92.3586496 Z M128.972347,98.0589964 L120.030382,92.8959906 L120.027607,92.6324068 C119.982751,88.3970311 119.940671,84.3919444 120.557549,80.0909039 L119.471306,79.4633894 L119.933734,78.6624646 L126.727723,82.582927 L129.979052,82.0492854 L129.758936,83.2021178 C128.867838,88.1334473 128.914543,92.5607305 128.963561,97.2478981 L128.972347,98.0589964 Z" id="Fill-27" fill="#000000"></path>
                <path d="M121.579838,78.9970773 L122.045503,80.0037825 C122.106081,79.6158056 121.933133,79.2125686 121.579838,78.9970773 L121.579838,78.9970773 Z M126.827468,82.0255166 L129.182613,81.6384646 C129.31163,81.6097941 129.449896,81.6056322 129.588162,81.6319906 C130.129665,81.735112 130.484809,82.2585802 130.381688,82.8000831 L130.28504,83.3036669 C129.853595,85.6823952 129.644116,87.9441293 129.54978,90.2100253 C129.454058,92.4962681 129.472092,94.7788114 129.497064,97.1908345 C129.508624,97.3804299 129.467468,97.5760368 129.364809,97.7526842 C129.08874,98.2289848 128.476948,98.3922218 128.001572,98.11569 L119.990474,93.4904877 C119.697295,93.3180022 119.497064,92.9998519 119.494751,92.6349964 C119.471168,90.4574241 119.450358,88.3561525 119.514636,86.2622796 C119.573827,84.3089848 119.707006,82.3626264 119.977064,80.371875 L119.206197,79.9265571 L120.198566,78.1998519 L126.827468,82.0255166 Z M128.171746,83.824823 L126.79926,84.0504877 C126.546775,84.0916438 126.299838,84.0338403 126.100532,83.9052854 L121.853133,81.4544184 C121.657988,83.1038981 121.555792,84.7122218 121.506775,86.3163837 C121.448971,88.2072507 121.460994,90.0990426 121.480879,92.0467883 L127.489202,95.5159212 C127.476254,93.6768461 127.482728,91.8997363 127.556717,90.131875 C127.643653,88.0588114 127.823538,85.9862103 128.171746,83.824823 L128.171746,83.824823 Z" id="Fill-29" fill="#000000"></path>
                <path d="M121.940486,91.778349 L127.022566,94.7129155 C127.01748,93.295112 127.028116,91.7057478 127.094705,90.1122218 C127.180254,88.072453 127.351353,86.1917594 127.617249,84.3850542 L126.874127,84.5066727 C126.514821,84.5658634 126.15274,84.4891004 125.84985,84.2939559 L122.235052,82.2088692 C122.10141,83.5041293 122.014012,84.8599675 121.969156,86.3304877 C121.913202,88.1515282 121.922451,89.9489848 121.940486,91.778349 L121.940486,91.778349 Z M119.836902,79.7570773 L120.476902,80.1260947 L120.435283,80.4336091 C120.191121,82.23569 120.041295,84.1469039 119.977017,86.2768461 C119.911353,88.4063259 119.934474,90.5538403 119.957133,92.6301409 C119.95852,92.8192738 120.061179,92.9954588 120.224879,93.0916438 L128.23274,97.7154588 C128.357133,97.7875975 128.50141,97.8065571 128.638751,97.7695629 C128.77748,97.7325686 128.893087,97.6442449 128.964763,97.5203143 C129.017942,97.4301409 129.041988,97.3256322 129.035514,97.2197363 C129.007769,94.58806 128.994821,92.4164993 129.087769,90.1908345 C129.193665,87.6447074 129.42904,85.4296785 129.829965,83.2206611 L129.927075,82.7129155 C129.982566,82.4234357 129.792046,82.1413548 129.502104,82.0863259 C129.42904,82.072453 129.355514,82.0743027 129.283838,82.0900253 L126.739561,82.5085224 L122.503723,80.0641293 C122.50326,80.0678288 122.502798,80.0719906 122.502335,80.0752276 L122.32615,81.1933779 L126.331699,83.5045918 C126.461179,83.5878288 126.595283,83.615112 126.724763,83.5943027 L128.730312,83.2645918 L128.628116,83.8985802 C128.311815,85.8629733 128.112971,87.9082912 128.019098,90.1510657 C127.940023,92.034534 127.940948,93.9184646 127.951584,95.5129155 L127.957133,96.3203143 L121.021179,92.31569 L121.018405,92.0516438 C120.99852,90.1210079 120.986035,88.2282912 121.044763,86.3022796 C121.098405,84.5381178 121.212624,82.9344184 121.393896,81.4005455 L121.476671,80.7032045 L121.998751,81.0047074 L121.22141,79.3237825 L120.369156,78.8322218 L119.836902,79.7570773 Z M128.498173,98.7129155 C128.244763,98.7129155 127.99459,98.6467883 127.769387,98.5159212 L119.759214,93.8907189 C119.312509,93.6285224 119.035514,93.1489848 119.032277,92.6375397 C119.009618,90.5543027 118.986497,88.3970773 119.052162,86.248638 C119.114127,84.2070195 119.253318,82.3614704 119.478058,80.6176553 L118.575399,80.0964993 L120.028347,77.5679444 L120.547653,77.8675975 L120.521757,77.8111814 L121.811931,78.5968461 L126.915746,81.5420484 L129.107653,81.182742 C129.277364,81.1429733 129.476671,81.1401987 129.674127,81.1776553 C130.465803,81.3279444 130.986497,82.095112 130.835746,82.8863259 L130.739098,83.3903721 C130.34696,85.5517594 130.115746,87.7260947 130.011699,90.229216 C129.919676,92.4326842 129.932624,94.5922218 129.959445,97.185979 C129.976555,97.451875 129.90904,97.7358056 129.765225,97.9845918 C129.569618,98.3212392 129.25378,98.5626264 128.877364,98.6634357 C128.751584,98.6967305 128.624416,98.7129155 128.498173,98.7129155 L128.498173,98.7129155 Z" id="Fill-31" fill="#000000"></path>
                <path d="M126.652671,36.9913894 L118.64111,32.3652623 L117.353711,36.430927 L117.572439,77.2563605 C118.041803,78.4614473 119.415676,78.8984415 121.061919,79.8478056 C120.36504,84.2713894 120.444116,88.1950889 120.489896,92.6279212 L128.501919,97.2531236 C128.445503,91.8279212 128.361341,88.0383259 129.400879,82.6131236 L125.348624,80.274164 C125.350474,75.0316207 125.011514,41.5814473 125.600185,39.3867652 L126.652671,36.9913894 Z" id="Fill-33" fill="#000000"></path>
                <path d="M120.949688,92.3595282 L128.030844,96.4473894 C127.977665,91.5146727 127.952231,87.877216 128.88541,82.8497016 L124.886335,80.5407999 L124.886335,80.273979 C124.886798,79.2811467 124.874312,77.2755975 124.859052,74.6619559 C124.755468,57.233979 124.719861,40.8834588 125.153618,39.2668114 L125.177202,39.2006842 L126.062751,37.1849617 L118.908069,33.0536322 L117.81674,36.5010311 L118.034543,77.1627652 C118.355006,77.88369 119.132347,78.2924762 120.195468,78.8506264 C120.541364,79.032823 120.909919,79.2265802 121.292809,79.4471582 L121.567954,79.6062334 L121.518474,79.9197594 C120.861364,84.0931698 120.900671,87.7523605 120.945526,91.989586 L120.949688,92.3595282 Z M128.973272,98.0584877 L120.030382,92.8968692 L120.020671,91.9997594 C119.977665,88.0011467 119.937896,84.2189501 120.555699,80.0931698 C120.282405,79.9414935 120.017434,79.8023027 119.764948,79.669586 C118.585295,79.0494704 117.566566,78.5144415 117.142058,77.4235744 L117.110613,77.3440368 L116.89096,36.3599906 L118.374428,31.6769848 L127.242867,36.7983721 L126.039168,39.5368692 C125.586913,41.4846149 125.724717,64.7081987 125.783908,74.6568692 C125.798243,77.0564068 125.809341,78.9440368 125.811191,80.0066958 L129.917087,82.376638 L129.855121,82.699875 C128.863214,87.8753663 128.902983,91.5521293 128.958012,96.6406842 L128.973272,98.0584877 Z" id="Fill-35" fill="#000000"></path>
                <path d="M119.136647,31.5021409 L127.078844,36.087112 C127.56763,36.3155513 127.785896,36.8963605 127.56763,37.3934704 L126.551676,39.7051467 C126.123006,41.7587883 126.252948,63.6528923 126.317688,74.669771 L126.346358,79.7005224 L129.829364,81.7102334 C130.230289,81.9007536 130.468902,82.3437594 130.381503,82.8001756 C129.398844,87.9317363 129.437225,91.5918519 129.490867,96.6286149 L129.497341,97.2445686 C129.498728,97.4161293 129.456185,97.5895397 129.365087,97.7486149 C129.090867,98.2249155 128.481387,98.3895397 128.005549,98.1157825 L120.012486,93.5016785 C119.706358,93.3342796 119.496879,93.0091929 119.494566,92.6360137 L119.488092,92.0061871 C119.444624,88.0140484 119.40578,84.3992507 119.974566,80.3835282 L119.514451,80.1426033 C118.185434,79.4447999 117.141272,78.8958981 116.643237,77.6154357 C116.600694,77.504453 116.576647,77.3851467 116.576647,77.2598288 L116.357919,36.5139328 C116.346821,36.38769 116.360231,36.2586727 116.400462,36.1301178 L117.687861,32.064453 L117.777572,31.8693085 C118.051329,31.3934704 118.660347,31.2283837 119.136647,31.5021409 L119.136647,31.5021409 Z M125.379422,37.4050311 L119.21896,33.8484993 L118.350058,36.5930079 L118.567861,77.034164 C118.851329,77.5395975 119.560694,77.9123143 120.444393,78.3761293 L120.495723,78.4047999 C120.823584,78.5772854 121.175029,78.7636438 121.557919,78.9842218 C121.924162,79.1950889 122.106821,79.6052623 122.046243,79.9997131 C121.395607,84.1301178 121.435838,87.8545108 121.480231,91.9904646 L121.481156,92.0505802 L127.48763,95.517401 C127.446012,91.1354357 127.476532,87.6797131 128.290867,83.1215629 L124.853179,81.1377478 C124.533642,80.9532392 124.353757,80.6189039 124.353757,80.2739328 L124.325549,74.6771698 C124.25896,63.4521987 124.126705,41.0267652 124.635376,39.1289617 L124.68578,38.9842218 L125.379422,37.4050311 Z" id="Fill-37" fill="#000000"></path>
                <path d="M121.940486,91.7819559 L127.017942,94.712823 C126.991584,90.7687767 127.064185,87.5040368 127.779561,83.3606842 L124.622104,81.5382565 C124.171237,81.2783721 123.891468,80.7937478 123.891468,80.273979 L123.86326,74.6795282 C123.759214,57.1724762 123.726382,40.7340947 124.188347,39.0092392 L124.248925,38.8316669 L124.789503,37.5983721 L119.486382,34.5371004 L118.813087,36.6633432 L119.029503,76.8973316 C119.293549,77.2497016 119.930312,77.5844993 120.659098,77.9664646 L120.723376,78.002534 C121.043838,78.1703952 121.40037,78.3599906 121.789272,78.5838056 C122.306728,78.8816091 122.593896,79.4786033 122.50326,80.069586 C121.868809,84.0977941 121.896092,87.6709733 121.940486,91.7819559 L121.940486,91.7819559 Z M127.957595,96.322534 L121.020254,92.3188345 L121.017942,91.9942103 C120.974012,87.9336322 120.932393,84.0964068 121.58904,79.9276207 C121.622335,79.7125918 121.517364,79.4943259 121.327769,79.3851929 C120.949503,79.1673894 120.602682,78.9842681 120.279908,78.8140947 L120.216092,78.7784877 C119.271815,78.2832276 118.515283,77.8855397 118.164763,77.2607999 L118.106035,77.1562912 L118.105572,77.0369848 L117.887306,36.5223027 L118.951815,33.160453 L125.969618,37.2117825 L125.071584,39.2811467 C124.588347,41.0910889 124.728,64.6244993 124.788116,74.6744415 L124.816324,80.2716669 C124.816324,80.4640368 124.91852,80.6416091 125.084069,80.7368692 L128.803838,82.8834588 L128.746497,83.2029964 C127.942335,87.7042681 127.908578,91.1442681 127.949734,95.512823 L127.957595,96.322534 Z M118.120832,32.2286611 L116.841295,36.2698172 C116.820486,36.3368692 116.812624,36.4053085 116.818636,36.472823 L117.038751,77.2575629 C117.038751,77.3232276 117.051237,77.3879675 117.075283,77.4522449 C117.50904,78.5671582 118.440832,79.0559444 119.729618,79.7329386 L120.477827,80.1250773 L120.432046,80.4483143 C119.867884,84.4344415 119.907653,88.1102796 119.950659,92.0016091 L119.957133,92.6318981 C119.95852,92.8261178 120.064416,93.0032276 120.23459,93.0957131 L128.236439,97.7153663 C128.48985,97.8619559 128.816786,97.7736322 128.963838,97.5174473 C129.011931,97.4351351 129.035977,97.3435744 129.035052,97.2478519 L129.028578,96.6337478 C128.974474,91.5599906 128.93563,87.8938634 129.927075,82.7132854 C129.973318,82.4732854 129.851237,82.232823 129.631121,82.1283143 L125.885457,79.9683143 L125.854474,74.5116669 C125.78696,63.0453085 125.662104,41.7024184 126.099098,39.6108577 L126.128231,39.5188345 L127.143723,37.2071582 C127.260717,36.9421871 127.143723,36.6277363 126.882913,36.5056553 L118.906035,31.903112 C118.783029,31.8319288 118.640601,31.813401 118.50141,31.8508577 C118.364069,31.8878519 118.249387,31.976638 118.178173,32.1001062 L118.120832,32.2286611 Z M128.498636,98.7100484 C128.252162,98.7100484 128.002913,98.6480831 127.774936,98.5167536 L119.78141,93.9021871 C119.326382,93.6538634 119.035514,93.1678519 119.032277,92.639297 L119.025803,92.0108577 C118.983723,88.1884299 118.944416,84.5722449 119.471584,80.6420715 L119.300023,80.5523605 C117.94326,79.8397594 116.772855,79.2247305 116.211931,77.7833432 C116.146728,77.6103952 116.113896,77.4355975 116.113896,77.259875 L115.89563,36.5158288 C115.880832,36.3660022 115.901179,36.1768692 115.958983,35.9918981 L117.267653,31.8716669 L117.356902,31.6765224 C117.570081,31.3019559 117.884532,31.0596438 118.260486,30.9583721 C118.635977,30.856638 119.029965,30.9069123 119.367075,31.1007999 L119.368,31.1012623 L127.310197,35.6862334 C127.986728,36.0011467 128.308116,36.8589501 127.990428,37.5794126 L126.995746,39.8439212 C126.589272,42.0996438 126.717364,63.9618403 126.779329,74.5065802 L126.807538,79.432823 L130.060717,81.3098172 C130.628116,81.5775629 130.960601,82.2332854 130.835746,82.8871582 C129.86141,87.976638 129.899792,91.6039212 129.953434,96.6240368 L129.959908,97.2395282 C129.961757,97.4989501 129.894705,97.7542103 129.76615,97.9784877 C129.496092,98.4473894 129.003607,98.7100484 128.498636,98.7100484 L128.498636,98.7100484 Z" id="Fill-39" fill="#000000"></path>
                <path d="M181.182613,48.661216 C181.186312,38.9460715 181.193711,18.5641062 181.197873,8.84942413 C181.198798,6.3888461 179.460069,5.38445303 177.331514,6.61266113 C161.299607,15.8602912 145.266312,25.1088461 129.23348,34.3569386 C127.101688,35.586534 125.365272,38.5955513 125.363884,41.0565918 L125.349086,80.4845686 C125.348162,82.9428345 127.083653,83.9500022 129.214983,82.7204068 L129.400879,82.6131236 C128.334058,88.0078056 128.451977,92.4170542 128.501457,97.2531236 C130.053827,94.5960137 131.599723,91.9467652 133.129434,89.2767074 C142.881572,72.2413316 162.044116,63.6785571 177.204809,55.42006 C178.287815,54.8300022 179.233017,53.8602912 180.009896,52.5391351 C180.787699,51.2184415 181.18215,49.9134704 181.182613,48.661216" id="Fill-41" fill="#F4D9DC"></path>
                <path d="M130.051931,81.7024646 L129.854474,82.7026958 C128.921295,87.4222334 128.903723,91.4199212 128.945341,95.575297 C130.218867,93.3935629 131.473896,91.2354126 132.728462,89.046742 C141.386497,73.9225802 157.346266,65.4559906 171.428116,57.9863952 C173.358289,56.9625802 175.181642,55.9951814 176.98326,55.0139097 C177.99274,54.4645455 178.876902,53.5531004 179.611237,52.3050079 C180.346497,51.0569155 180.719214,49.8305571 180.720139,48.6606149 L180.735861,8.8492854 C180.735861,7.83101951 180.414474,7.08466113 179.83089,6.7475513 C179.248694,6.4109039 178.442682,6.50523916 177.562682,7.01298482 L129.464647,34.7572623 C127.49378,35.8939097 125.827653,38.7789964 125.826266,41.0569155 L125.811468,80.4844299 C125.811468,81.5026958 126.131931,82.2490542 126.715052,82.5857016 C127.299561,82.9232738 128.104185,82.8275513 128.98326,82.3198056 L130.051931,81.7024646 Z M128.056092,98.9315975 L128.029734,96.4233894 C127.982566,92.1866264 127.938636,88.1704415 128.77378,83.4472045 C127.841988,83.815297 126.964301,83.7977247 126.252624,83.3866264 C125.371237,82.8774935 124.886612,81.846742 124.886612,80.4844299 L124.90141,41.056453 C124.902798,38.4446611 126.742798,35.2594588 129.00222,33.9563374 L177.100254,6.21205997 C178.27852,5.53275361 179.412393,5.4374935 180.293318,5.94662644 C181.17563,6.45575939 181.660717,7.48697326 181.660717,8.8492854 L181.644994,48.6615397 C181.644069,49.9984184 181.227884,51.3824646 180.408462,52.7739097 C179.588116,54.1685918 178.584185,55.1956438 177.425803,55.8259328 C175.619561,56.809979 173.794358,57.7787652 171.86141,58.8035051 C157.890543,66.2143721 142.056092,74.6143721 133.530775,89.5063952 C131.998751,92.1801525 130.466266,94.806742 128.900486,97.4865108 L128.056092,98.9315975 Z" id="Fill-43" fill="#000000"></path>
                <path d="M182.195905,8.84947037 L182.17785,48.6617247 C182.182012,49.3840368 182.068717,50.1220715 181.844439,50.8633432 C181.628486,51.5782565 181.302012,52.3075051 180.868717,53.0427652 C180.438659,53.7752507 179.959121,54.413401 179.437503,54.9484299 C178.900162,55.5010311 178.311954,55.9523605 177.681665,56.2954819 C175.767676,57.3382565 173.951723,58.3024184 172.107561,59.2790657 C158.202821,66.6561756 142.445595,75.0150195 133.99704,89.7724762 L129.364902,97.7567536 C129.190104,98.0480831 128.873341,98.2464646 128.50941,98.2488058 C127.959584,98.2529386 127.509179,97.8103952 127.505017,97.2605686 L127.496231,96.432823 C127.451376,92.3898172 127.409295,88.586349 128.104786,84.1905108 C127.896694,84.2279675 127.692301,84.2455397 127.494382,84.2455397 C126.94363,84.2455397 126.43126,84.109586 125.982705,83.8492392 C125.538312,83.5925918 125.166058,83.2175629 124.890451,82.7394126 C124.544092,82.1340947 124.348486,81.3724762 124.348486,80.4855397 L124.367908,41.0561756 C124.36837,39.6462334 124.854382,38.0994126 125.637272,36.7444993 C126.421087,35.3918981 127.517965,34.19606 128.737387,33.4936322 L176.83496,5.74935477 C177.612763,5.30079985 178.367445,5.08854552 179.051376,5.08854552 C179.60259,5.08854552 180.113572,5.2249617 180.563514,5.4848461 C181.01022,5.74473049 181.382012,6.12022182 181.656694,6.59513511 C182.00259,7.1999906 182.198197,7.96068425 182.195905,8.84947037 M180.184324,48.6617247 L180.201896,8.84947037 C180.197734,8.31305419 180.102012,7.89178251 179.931376,7.59444147 C179.829642,7.42195592 179.705711,7.29062644 179.567445,7.21108887 C179.424555,7.1315513 179.251145,7.08947037 179.051376,7.08947037 C178.698081,7.08947037 178.281896,7.21432586 177.826867,7.47605997 L129.729295,35.2203374 C128.819699,35.7442681 127.979931,36.672823 127.363977,37.7405686 C126.745249,38.8161756 126.360046,40.0073894 126.360046,41.0561756 L126.344786,80.4855397 C126.348948,81.0205686 126.445133,81.4432276 126.615769,81.7401062 C126.716578,81.910742 126.840971,82.0406842 126.982936,82.122534 C127.121202,82.202534 127.295075,82.2450773 127.494382,82.2450773 C127.846751,82.2450773 128.261087,82.1202218 128.715653,81.8584877 L128.900162,81.7493548 C129.376462,81.4737478 129.987792,81.6369848 130.263861,82.1132854 C130.389642,82.3297016 130.423861,82.5752507 130.379468,82.8032276 C129.602127,86.7458866 129.466173,90.1618403 129.467561,93.613401 L132.262012,88.7801062 C140.995884,73.5232276 157.029642,65.0182565 171.178081,57.5125918 C173.123977,56.4809155 175.032879,55.4681987 176.727676,54.5447305 C177.179006,54.2991814 177.608601,53.9676207 178.007214,53.5579097 C178.422012,53.1315513 178.805364,52.6214935 179.150335,52.0351351 C179.493919,51.4515513 179.755653,50.8661178 179.930451,50.2862334 C180.096925,49.7340947 180.182012,49.1902796 180.184324,48.6617247" id="Fill-45" fill="#000000"></path>
                <path d="M129.398012,81.1537941 C129.902983,81.1537941 130.393618,81.4146033 130.663676,81.8807305 C130.840786,82.1859328 130.901364,82.5452392 130.833387,82.89206 C130.179977,86.2044299 129.989919,89.1561062 129.943214,91.8668577 L131.861827,88.5484762 C140.659977,73.1792276 156.755699,64.6404993 170.956393,57.1070889 C173.028532,56.0083605 174.872231,55.029401 176.506451,54.1387652 C176.917087,53.9154126 177.31015,53.6111351 177.675468,53.2356438 C178.064832,52.8361062 178.426913,52.3528692 178.752,51.8002681 C179.077549,51.2481293 179.324948,50.6936785 179.487723,50.152638 C179.640786,49.6448923 179.719399,49.1426958 179.721711,48.6599212 L179.739283,8.84951662 C179.735121,8.29645303 179.623214,7.98662644 179.530266,7.82477673 C179.472925,7.72720448 179.403561,7.64997904 179.336509,7.61205997 C179.267145,7.57321604 179.16911,7.55194436 179.051653,7.55194436 C178.77096,7.55194436 178.426913,7.6643143 178.057896,7.87703107 L129.960324,35.6208461 C129.159861,36.082349 128.359861,36.9392276 127.764717,37.9713663 C127.157087,39.0270889 126.822751,40.1230426 126.822751,41.0562218 L126.807029,80.485586 C126.811191,81.0377247 126.923098,81.3475513 127.016971,81.509401 C127.07385,81.6060484 127.142751,81.6809617 127.213503,81.7221178 C127.282867,81.7614241 127.379514,81.7822334 127.494659,81.7822334 C127.773503,81.7822334 128.116162,81.6698634 128.484717,81.4576091 L128.665526,81.3512507 C128.89674,81.2176091 129.149225,81.1537941 129.398012,81.1537941 L129.398012,81.1537941 Z M129.005873,95.3359906 L129.004948,93.6134473 C129.003561,90.3843143 129.114543,86.8282449 129.925642,82.7135629 C129.95015,82.5877825 129.928416,82.456453 129.864139,82.3454704 C129.715699,82.0892854 129.386913,82.002349 129.132116,82.149401 L128.950382,82.2566842 C128.101827,82.7454704 127.299052,82.8398056 126.750613,82.5225802 C126.539746,82.4004993 126.359861,82.216453 126.217434,81.9746033 C125.998705,81.5949501 125.886798,81.096453 125.882173,80.4892854 L125.897896,41.0562218 C125.897896,39.9635051 126.276162,38.7038519 126.962867,37.5098634 C127.64726,36.3237363 128.547145,35.3678981 129.497896,34.8199212 L177.595931,7.07564378 C178.431538,6.59518136 179.227376,6.49483454 179.791538,6.80651084 C180.006566,6.92997904 180.185526,7.11541257 180.329803,7.35957442 C180.547607,7.7392276 180.659977,8.23772471 180.664139,8.84581719 L180.646566,48.6636207 C180.644254,49.2365686 180.552231,49.8270889 180.372809,50.4199212 C180.188763,51.0312507 179.911306,51.6536785 179.548763,52.2691698 C179.186682,52.885586 178.779283,53.4280137 178.33859,53.8802681 C177.908069,54.3232738 177.441017,54.6830426 176.948994,54.9507883 C175.31015,55.8441987 173.464139,56.8245455 171.394775,57.9214241 C157.299977,65.3988808 141.330035,73.8710195 132.663676,89.009979 L129.005873,95.3359906 Z M128.663214,83.6222334 L128.56148,84.2631582 C127.872462,88.6183027 127.914543,92.4083605 127.958936,96.4213085 L127.96726,97.2550657 C127.969572,97.5496322 128.209572,97.7868577 128.502289,97.7868577 L128.505988,97.7868577 C128.695584,97.7854704 128.868532,97.6851236 128.968416,97.519112 L133.596855,89.5403837 C142.109688,74.6710195 157.929341,66.2779559 171.886798,58.872638 C173.821595,57.8478981 175.573272,56.9179559 177.460439,55.8895166 C178.048185,55.5695166 178.601711,55.1445455 179.10622,54.626164 C179.600555,54.1184184 180.059746,53.5075513 180.469919,52.8083605 C180.883329,52.1077825 181.196855,51.4085918 181.401711,50.7297478 C181.613503,50.0287074 181.719399,49.3336785 181.715699,48.6645455 L181.73375,8.84812933 C181.735584,8.06292702 181.574659,7.38269581 181.255584,6.82547037 C181.022983,6.42315823 180.711769,6.1059328 180.331191,5.88442991 C179.439168,5.3692854 178.255353,5.46315823 177.065526,6.14986344 L128.968416,33.8946033 C127.860439,34.5327536 126.819514,35.6273201 126.037087,36.9766842 C125.259746,38.3214241 124.831075,39.7706727 124.83015,41.0566842 L124.811191,80.485586 C124.811191,81.2606149 124.977202,81.9607305 125.291653,82.5096322 C125.524717,82.9133316 125.835006,83.2296322 126.214197,83.4492854 C126.73859,83.7531004 127.369341,83.85206 128.024139,83.7355282 L128.663214,83.6222334 Z M128.502289,98.7117131 C127.702751,98.7117131 127.049341,98.0643143 127.042405,97.2638519 L127.034081,96.4379559 C126.991075,92.5595744 126.950382,88.8915975 127.558936,84.7075513 C126.889803,84.7246611 126.293272,84.5641987 125.750844,84.2492854 C125.229688,83.9482449 124.805179,83.5172623 124.490266,82.9702103 C124.089341,82.2710195 123.886335,81.4349501 123.886335,80.485586 L123.905295,41.0562218 C123.90622,39.6102103 124.378821,37.9972623 125.236624,36.5133316 C126.099052,35.0252392 127.260208,33.8109039 128.506451,33.093216 L176.603561,5.34847615 C178.09674,4.48882297 179.608416,4.39818714 180.795006,5.08489234 C181.317549,5.38824494 181.742058,5.8192276 182.056971,6.36442991 C182.458821,7.06500795 182.660902,7.90153974 182.658609,8.8509039 L182.640555,48.661771 C182.644717,49.4215397 182.525873,50.2081293 182.286798,50.9974935 C182.060671,51.7466264 181.717549,52.5137941 181.267145,53.2777247 C180.819052,54.0398056 180.315006,54.7107883 179.768879,55.2712507 C179.200092,55.8557594 178.572116,56.3371467 177.902983,56.7015397 C176.011191,57.7322912 174.257202,58.6636207 172.323792,59.6878981 C158.473618,67.0363374 142.779283,75.3628114 134.398243,90.002349 L129.765179,97.9889386 C129.494659,98.4398056 129.027607,98.7075513 128.513387,98.7117131 L128.502289,98.7117131 Z" id="Fill-47" fill="#000000"></path>
                <path d="M135.206659,45.1484762 C134.730358,45.421771 134.120416,45.2571467 133.846659,44.7813085 C133.573364,44.3050079 133.738451,43.6955282 134.214289,43.421771 L166.723884,24.6860484 C167.199723,24.4122912 167.809665,24.5773779 168.083422,25.0527536 C168.357179,25.5290542 168.192555,26.1389964 167.716254,26.4127536 L135.206659,45.1484762 Z" id="Fill-49" fill="#000000"></path>
                <path d="M167.219561,25.0162218 C167.12985,25.0162218 167.038289,25.0388808 166.955052,25.0869733 L134.444994,43.8222334 C134.189734,43.968823 134.10141,44.2957594 134.247538,44.5505571 C134.394127,44.8058172 134.721064,44.8927536 134.976324,44.7475513 L167.485457,26.0122912 C167.740717,25.8657016 167.82904,25.5383027 167.682451,25.2830426 C167.583954,25.1119444 167.404069,25.0162218 167.219561,25.0162218 M134.713202,45.7426958 C134.207306,45.7426958 133.714821,45.4800368 133.445688,45.0111351 C133.045688,44.3142565 133.287075,43.4213085 133.983954,43.0208461 L166.493549,24.285586 C167.191815,23.8846611 168.084301,24.1260484 168.484301,24.8220022 C168.885225,25.5198056 168.643838,26.413216 167.946497,26.8141409 L135.436902,45.549401 C135.208462,45.6807305 134.959214,45.7426958 134.713202,45.7426958" id="Fill-51" fill="#000000"></path>
                <path d="M135.202497,55.0050773 C134.726197,55.2783721 134.116717,55.1132854 133.843422,54.6374473 C133.569665,54.1616091 133.734289,53.5516669 134.21059,53.2783721 L171.344925,31.8582565 C171.820301,31.5844993 172.430243,31.749586 172.704,32.2258866 C172.977295,32.7017247 172.813133,33.3112045 172.336832,33.5849617 L135.202497,55.0050773 Z" id="Fill-53" fill="#000000"></path>
                <path d="M171.83889,32.1883837 C171.747329,32.1883837 171.656694,32.2124299 171.575769,32.2591351 L134.441896,53.6792507 C134.317503,53.7500022 134.229179,53.8646842 134.192185,54.0020253 C134.154728,54.1402912 134.173238,54.2841062 134.243977,54.4075744 C134.390566,54.6619097 134.718428,54.7506958 134.971838,54.6041062 L172.105711,33.184453 C172.361434,33.0378634 172.449295,32.710927 172.303168,32.4561293 C172.232416,32.3326611 172.117734,32.2443374 171.979468,32.2073432 C171.932763,32.1948577 171.886058,32.1883837 171.83889,32.1883837 M134.709642,55.5992507 C134.204208,55.5992507 133.712185,55.3370542 133.44259,54.8686149 C133.247712,54.5301178 133.19704,54.1365918 133.299237,53.7597131 C133.401434,53.3842218 133.643283,53.0702334 133.980855,52.8769386 L171.113803,31.4577478 C171.451376,31.2633858 171.844439,31.2131236 172.220855,31.3143952 C172.597272,31.4161293 172.91126,31.6584415 173.105017,31.9955513 C173.50548,32.6919675 173.264092,33.5849155 172.567676,33.9858403 L135.432416,55.4059559 C135.204439,55.536823 134.955191,55.5992507 134.709642,55.5992507" id="Fill-55" fill="#000000"></path>
                <path d="M135.198335,65.4757363 C134.722035,65.7494935 134.112555,65.5844068 133.83926,65.1090311 C133.565503,64.6327305 133.730127,64.0227883 134.206428,63.7490311 L158.117179,49.9561987 C158.593017,49.6824415 159.20296,49.8475282 159.476717,50.3229039 C159.750474,50.7992045 159.585387,51.4091467 159.109087,51.6829039 L135.198335,65.4757363 Z" id="Fill-57" fill="#000000"></path>
                <path d="M158.611376,50.2862796 C158.519815,50.2862796 158.429179,50.3103259 158.348254,50.3570311 L134.437965,64.149401 C134.313572,64.2210773 134.225249,64.3357594 134.188254,64.4740253 C134.150798,64.6118288 134.169308,64.7551814 134.240046,64.8786496 C134.386636,65.1329848 134.712185,65.221771 134.967908,65.0747189 L158.877734,51.282349 C159.002127,51.2111351 159.090451,51.096453 159.127445,50.9581871 C159.164902,50.8203837 159.146392,50.6770311 159.075653,50.5535629 C159.004902,50.4305571 158.89022,50.3422334 158.752416,50.3052392 C158.705711,50.2927536 158.658543,50.2862796 158.611376,50.2862796 M134.705249,66.0703259 C134.199815,66.0703259 133.707792,65.8076669 133.437734,65.33969 C133.244439,65.0016553 133.19311,64.6090542 133.295306,64.2321756 C133.39704,63.8562218 133.63889,63.541771 133.976462,63.3480137 L157.886289,49.5556438 C158.223399,49.3613522 158.617387,49.3114819 158.993341,49.4118288 C159.369757,49.5140253 159.683283,49.755875 159.877503,50.0929848 C160.07126,50.4305571 160.12259,50.8231582 160.020393,51.2000368 C159.918659,51.5759906 159.676809,51.8904415 159.339237,52.0841987 L135.428486,65.8770311 C135.200509,66.0078981 134.95126,66.0703259 134.705249,66.0703259" id="Fill-59" fill="#000000"></path>
                <path d="M126.831676,82.0277825 C127.307514,82.3015397 127.472139,82.9114819 127.199306,83.3877825 C126.925549,83.8631582 126.315607,84.0282449 125.839306,83.7544877 L118.084855,79.2777247 C117.608555,79.0039675 117.443468,78.3949501 117.717225,77.9186496 C117.990983,77.442349 118.600925,77.2772623 119.076763,77.5510195 L126.831676,82.0277825 Z" id="Fill-61" fill="#000000"></path>
                <path d="M118.582474,77.8811004 C118.535306,77.8811004 118.488601,77.8875744 118.441896,77.90006 C118.30363,77.9370542 118.188948,78.0253779 118.118197,78.1488461 C117.972069,78.4041062 118.059931,78.7305802 118.315191,78.8767074 L126.070104,83.3539328 C126.323514,83.5005224 126.651838,83.4121987 126.79889,83.1569386 C126.944555,82.9021409 126.856231,82.574742 126.601434,82.4286149 L126.600509,82.4281525 L118.845133,77.9513894 C118.764671,77.9051467 118.674035,77.8811004 118.582474,77.8811004 M126.332763,84.3486149 C126.086289,84.3486149 125.83704,84.2866496 125.608601,84.1553201 L117.853688,79.6785571 C117.157272,79.2780947 116.915884,78.3856091 117.316347,77.6882681 C117.510104,77.3511582 117.824092,77.1088461 118.200509,77.007112 C118.576462,76.9053779 118.970451,76.9567074 119.307098,77.1500022 L127.062012,81.6267652 C127.758428,82.0272276 127.999815,82.9197131 127.60074,83.6175166 C127.33022,84.0864184 126.838197,84.3486149 126.332763,84.3486149" id="Fill-63" fill="#000000"></path>
                <path d="M190.916456,114.26954 L190.916456,114.26584 L190.916456,114.249655 L190.91274,114.249655 C190.899792,110.603875 188.480832,106.953933 183.654012,104.170118 C173.982335,98.58769 158.326382,98.5770542 148.681526,104.144684 C143.854705,106.932199 141.447306,110.592777 141.459744,114.249655 L141.459744,158.365725 L141.463491,158.365725 C141.489387,162.007806 143.902798,165.649887 148.72222,168.430002 C158.392046,174.01243 174.044763,174.023066 183.694705,168.455436 C188.517364,165.669771 190.923838,162.020291 190.916456,158.365725 L190.916456,114.26954 Z" id="Fill-65" fill="#05B173"></path>
                <path d="M142.246654,158.284846 C142.248555,158.310742 142.252254,158.336176 142.252254,158.362072 C142.275838,161.873748 144.713295,165.207852 149.114682,167.747505 C153.681156,170.38473 159.76763,171.835366 166.246705,171.837216 L166.250405,171.837216 C172.704046,171.837216 178.761387,170.392129 183.300116,167.773401 C187.710751,165.226349 190.13711,161.886696 190.127888,158.369008 L190.127888,114.330164 C190.127888,114.304268 190.124162,114.278835 190.124162,114.252939 C190.113064,110.735713 187.67422,107.39791 183.259884,104.852707 C178.691561,102.215482 172.606936,100.762996 166.126012,100.762996 C159.67052,100.762996 153.611329,102.206233 149.073988,104.826811 C144.660116,107.378025 142.233757,110.722765 142.246654,114.24554 L142.246654,158.284846 Z M166.250405,173.410858 L166.246705,173.410858 C159.494335,173.410858 153.130867,171.884846 148.32948,169.112129 C143.455029,166.299181 140.74104,162.517447 140.674913,158.455482 C140.674913,158.427736 140.671157,158.396754 140.671157,158.365771 L140.671157,114.249239 C140.656879,110.139644 143.363468,106.308892 148.287399,103.462187 C153.06104,100.706118 159.395376,99.1875051 166.126012,99.1875051 C172.880231,99.1875051 179.24185,100.715366 184.046474,103.488083 C188.932023,106.307043 191.647861,110.095713 191.699191,114.163228 C191.70104,114.190511 191.702914,114.220106 191.702914,114.249239 L191.702914,158.365771 C191.712139,162.469817 189.009249,166.295482 184.086705,169.136176 C179.311676,171.892245 172.977341,173.410858 166.250405,173.410858 L166.250405,173.410858 Z" id="Fill-67" fill="#000000"></path>
                <path d="M142.940254,158.25502 C142.944,158.295251 142.94585,158.328546 142.94585,158.36184 C142.968046,161.613632 145.281572,164.73502 149.461457,167.147043 C153.92111,169.722765 159.882728,171.141956 166.246659,171.143806 C172.583769,171.143806 178.515792,169.733401 182.953249,167.172476 C187.140994,164.754441 189.44296,161.62843 189.434198,158.371089 L189.434198,114.329933 C189.431861,114.311436 189.430474,114.282303 189.430474,114.25317 C189.420301,110.996754 187.105387,107.870742 182.913017,105.453632 C178.448277,102.875598 172.486659,101.456407 166.125965,101.456407 C159.787006,101.456407 153.85452,102.866811 149.421225,105.427736 C145.22978,107.84947 142.928277,110.980569 142.940254,114.242996 L142.940254,158.25502 Z M166.250358,172.531089 C159.642266,172.529239 153.435098,171.043459 148.767815,168.347967 C144.144462,165.680684 141.584,162.135713 141.558566,158.366465 L141.552961,158.284615 L141.552961,114.245771 C141.539145,110.466811 144.086659,106.907505 148.727584,104.226349 C153.368046,101.545193 159.547006,100.069124 166.125965,100.069124 C172.726197,100.069124 178.934289,101.554904 183.606197,104.252245 C188.244809,106.926465 190.805734,110.477447 190.817757,114.250858 C190.820069,114.272129 190.821482,114.3008 190.821482,114.329933 L190.821482,158.369239 C190.830705,162.14265 188.283191,165.696407 183.64689,168.373863 C179.000879,171.05502 172.822844,172.531089 166.250358,172.531089 L166.250358,172.531089 Z M166.125965,99.8813779 C159.51741,99.8813779 153.305156,101.366696 148.634173,104.063112 C143.932671,106.7808 141.350936,110.397447 141.365212,114.246696 L141.368509,158.455713 C141.430474,162.252707 144.026081,165.827736 148.676254,168.511667 C153.373133,171.223806 159.612671,172.716985 166.246659,172.716985 L166.250358,172.716985 C172.856139,172.716985 179.067468,171.231667 183.739838,168.535251 C188.436717,165.824499 191.018451,162.213863 191.009227,158.367389 L191.005503,114.171783 C190.95741,110.360453 188.363191,106.779413 183.700069,104.088546 C178.998104,101.375482 172.757179,99.8813779 166.125965,99.8813779 L166.125965,99.8813779 Z M166.250358,174.104268 L166.246659,174.104268 C159.372671,174.104268 152.886659,172.544499 147.982613,169.712592 C142.893133,166.776176 140.051514,162.781725 139.981225,158.466811 L139.977923,158.36554 L139.977923,114.24947 C139.962266,109.884152 142.790012,105.838835 147.940532,102.861725 C152.819145,100.045077 159.27741,98.4940947 166.125965,98.4940947 C172.996254,98.4940947 179.483653,100.054326 184.393711,102.887621 C189.497526,105.832361 192.33822,109.833748 192.392786,114.154673 C192.394173,114.160222 192.396513,114.204615 192.396513,114.24947 L192.396513,158.36554 C192.406659,162.728546 189.578451,166.767389 184.43348,169.736638 C179.55348,172.553285 173.095676,174.104268 166.250358,174.104268 L166.250358,174.104268 Z" id="Fill-69" fill="#000000"></path>
                <path d="M183.694566,124.357863 C193.33526,118.790233 193.318613,109.750696 183.654335,104.170118 C173.982197,98.58769 158.326243,98.5770542 148.68185,104.144684 C139.035607,109.714164 139.057341,118.753239 148.722081,124.331967 C158.39237,129.914395 174.044624,129.927343 183.694566,124.357863" id="Fill-71" fill="#FFFFFF"></path>
                <path d="M166.12578,100.762858 C159.670289,100.762858 153.611098,102.206095 149.07422,104.826673 C144.672832,107.368638 142.246474,110.702742 142.246474,114.216268 C142.246474,117.742742 144.68763,121.093493 149.114451,123.651644 C153.680925,126.28702 159.767399,127.739505 166.246936,127.739505 L166.250636,127.739505 C172.703815,127.739505 178.761156,126.296268 183.300347,123.67569 C187.703121,121.133725 190.12763,117.797771 190.12763,114.284245 C190.12763,110.757771 187.688786,107.408869 183.259653,104.852569 C178.691792,102.215343 172.606705,100.762858 166.12578,100.762858 M166.250636,129.314534 L166.246936,129.314534 C159.494566,129.313147 153.130636,127.787135 148.329711,125.014418 C143.390983,122.164476 140.671445,118.329563 140.671445,114.216268 C140.671445,110.117771 143.376185,106.297655 148.28763,103.462511 C153.061272,100.705979 159.395145,99.1878288 166.12578,99.1878288 C172.88,99.1878288 179.242081,100.715228 184.046705,103.487944 C188.983584,106.337887 191.701272,110.17095 191.701272,114.284245 C191.701272,118.382742 188.997919,122.204707 184.086936,125.039852 C179.311445,127.796384 172.97711,129.314534 166.250636,129.314534" id="Fill-73" fill="#000000"></path>
                <path d="M166.125827,101.456361 C159.786867,101.456361 153.854382,102.866765 149.421087,105.42769 C145.242127,107.8411 142.940162,110.962488 142.940162,114.216592 C142.940162,117.483181 145.256,120.620754 149.46178,123.050811 C153.925133,125.627459 159.886751,127.046187 166.246983,127.046187 C172.585942,127.046187 178.517965,125.635783 182.953572,123.074858 C187.132532,120.662372 189.434035,117.540522 189.434035,114.284106 C189.434035,111.016592 187.118197,107.880407 182.912879,105.453586 C178.448139,102.875551 172.48652,101.456361 166.125827,101.456361 M166.250682,128.43347 C159.646751,128.43347 153.439121,126.948615 148.767676,124.252199 C144.115191,121.563644 141.552879,117.999251 141.552879,114.216592 C141.552879,110.445493 144.100855,106.89821 148.727445,104.226303 C153.367908,101.545147 159.546867,100.069077 166.125827,100.069077 C172.726058,100.069077 178.93415,101.554858 183.60652,104.252199 C188.259006,106.937054 190.821318,110.50006 190.821318,114.284106 C190.821318,118.057054 188.273803,121.605725 183.647214,124.276245 C179.003977,126.957401 172.82548,128.43347 166.250682,128.43347 M166.125827,99.8813316 C159.517272,99.8813316 153.305017,101.36665 148.634497,104.063066 C143.946867,106.76873 141.365133,110.374742 141.365133,114.216592 C141.365133,118.071852 143.961665,121.693124 148.676578,124.414048 C153.371607,127.125262 159.611607,128.619366 166.246983,128.621216 L166.250682,129.314858 L166.250682,128.621216 C172.856462,128.621216 179.067329,127.135898 183.740162,124.439482 C188.426867,121.733817 191.007676,118.127343 191.007676,114.284106 C191.007676,110.429771 188.412069,106.808962 183.699931,104.088499 C178.997965,101.375436 172.75704,99.8813316 166.125827,99.8813316 M166.250682,130.008499 L166.246983,130.008499 C159.372069,130.00665 152.885133,128.446418 147.982936,125.614973 C142.820855,122.636476 139.97785,118.588384 139.97785,114.216592 C139.97785,109.85821 142.805595,105.825378 147.940855,102.861678 C152.819468,100.045031 159.277272,98.4940484 166.125827,98.4940484 C172.996116,98.4940484 179.483977,100.05428 184.393572,102.887574 C189.553341,105.866072 192.39496,109.913702 192.39496,114.284106 C192.39496,118.643413 189.567214,122.676707 184.433803,125.640869 C179.553341,128.457517 173.095538,130.008499 166.250682,130.008499" id="Fill-75" fill="#000000"></path>
                <path d="M148.722081,124.33206 C158.39237,129.914488 174.044624,129.927436 183.694566,124.357956 C185.715376,123.189401 187.285318,121.863621 188.45896,120.455528 C187.277919,119.035875 185.691329,117.697147 183.654335,116.516106 C173.982197,110.935528 158.326243,110.92258 148.68185,116.49206 C146.660578,117.660615 145.089249,118.984546 143.917457,120.396337 C145.098497,121.815991 146.679075,123.156569 148.722081,124.33206" id="Fill-77" fill="#000000"></path>
                <path d="M144.835607,120.396014 C145.966705,121.644106 147.388208,122.764106 149.067746,123.731043 L149.068671,123.731505 C158.530405,129.192777 173.907514,129.204337 183.347514,123.757401 C185.015029,122.793702 186.422659,121.683875 187.539884,120.454742 C186.414798,119.215436 184.993757,118.094048 183.306358,117.116014 C173.84,111.655204 158.46289,111.645031 149.028439,117.09243 C147.355838,118.059366 145.947746,119.169193 144.835607,120.396014 M166.248324,129.202488 C159.779422,129.20295 153.306358,127.779135 148.375954,124.933355 C146.356532,123.771274 144.676994,122.394164 143.383584,120.839944 L143.015029,120.396939 L143.383121,119.95347 C144.653873,118.422372 146.32,117.055898 148.334335,115.891505 C158.153064,110.222603 174.152601,110.232777 184.000925,115.915551 C186.029595,117.091505 187.708671,118.469077 188.99237,120.011274 L189.36185,120.455667 L188.991908,120.899135 C187.715145,122.432083 186.049017,123.797632 184.041618,124.958326 C179.13896,127.787921 172.695491,129.202488 166.248324,129.202488" id="Fill-79" fill="#000000"></path>
                <path d="M144.962682,120.396569 C146.073896,121.610441 147.471353,122.703621 149.114358,123.651598 C153.680832,126.286973 159.767769,127.739459 166.246844,127.739459 L166.250543,127.739459 C172.703723,127.739459 178.761064,126.296222 183.300254,123.675644 C184.934012,122.732754 186.315283,121.649285 187.413549,120.455297 C186.306035,119.248823 184.912277,118.155644 183.257711,117.198418 C178.691699,114.563043 172.606613,113.110557 166.125688,113.110557 C159.670659,113.110557 153.611006,114.553794 149.074127,117.174372 C147.44222,118.11865 146.060948,119.20073 144.962682,120.396569 M166.250543,129.31495 L166.246844,129.31495 C159.494474,129.3131 153.131006,127.787089 148.329618,125.014372 C146.297711,123.84443 144.608925,122.461309 143.311815,120.899228 C143.066266,120.609285 143.066266,120.185702 143.311815,119.89391 C144.590428,118.353563 146.264416,116.978303 148.287538,115.81206 C153.061179,113.053678 159.395514,111.535528 166.125688,111.535528 C172.879908,111.535528 179.241988,113.062927 184.046613,115.835644 C186.089618,117.018534 187.776555,118.401193 189.063954,119.950788 C189.308116,120.24258 189.308116,120.664314 189.063954,120.957493 C187.783954,122.498303 186.109503,123.869863 184.086844,125.040268 C179.311353,127.796337 172.977017,129.31495 166.250543,129.31495" id="Fill-81" fill="#000000"></path>
                <path d="M145.925318,120.397355 C146.904277,121.36984 148.091329,122.260014 149.46104,123.050765 C153.925318,125.627413 159.886474,127.046141 166.246705,127.046141 C172.585665,127.046141 178.517688,125.635736 182.953295,123.074811 C184.302659,122.296083 185.476301,121.416546 186.450636,120.454696 C185.470289,119.48406 184.28185,118.592499 182.910289,117.798511 C178.447861,115.223251 172.486705,113.80406 166.126012,113.80406 C159.787052,113.80406 153.854104,115.214465 149.421272,117.774927 C148.069595,118.557355 146.896416,119.437355 145.925318,120.397355 M166.250405,128.433424 C159.646936,128.433424 153.439306,126.948569 148.767399,124.252152 C147.057341,123.265332 145.604855,122.125447 144.451098,120.864869 L144.021503,120.395505 L144.451561,119.927066 C145.597919,118.680361 147.036069,117.552499 148.727168,116.574002 C153.368555,113.893309 159.547052,112.416777 166.126012,112.416777 C172.726243,112.416777 178.933873,113.901632 183.604393,116.597586 C185.317225,117.588569 186.770173,118.728915 187.924393,119.985794 L188.355838,120.455621 L187.923931,120.924985 C186.773873,122.175389 185.334798,123.302788 183.646474,124.276661 C179.003699,126.957355 172.825665,128.433424 166.250405,128.433424 M166.126012,112.229031 C159.515607,112.229031 153.303353,113.714811 148.63422,116.412615 C146.685549,117.536314 145.073988,118.856546 143.84578,120.336777 C143.814798,120.373309 143.814335,120.419089 143.841156,120.450534 C145.086474,121.950187 146.710983,123.281979 148.675838,124.41354 C153.371792,127.125216 159.611792,128.61932 166.246705,128.62117 L166.250405,129.314811 L166.250405,128.62117 C172.856185,128.62117 179.067514,127.135852 183.739884,124.439436 C185.693642,123.309262 187.305202,121.988569 188.530636,120.514349 C188.560694,120.47828 188.561156,120.43065 188.532023,120.395967 C187.298266,118.910187 185.67237,117.578858 183.699191,116.436199 C178.998613,113.723135 172.757225,112.229031 166.126012,112.229031 M166.250405,130.008453 L166.246705,130.008453 C159.371792,130.006603 152.885318,128.446372 147.982659,125.614927 C145.875838,124.401517 144.124162,122.963829 142.778035,121.342095 C142.316994,120.797817 142.316532,119.999204 142.781272,119.447066 C144.112139,117.843829 145.849017,116.417239 147.94104,115.210765 C152.816879,112.393193 159.275607,110.841748 166.126012,110.841748 C172.997225,110.841748 179.484624,112.401979 184.393757,115.235274 C186.509827,116.460245 188.260578,117.897933 189.597457,119.507644 C190.054798,120.053771 190.05526,120.850534 189.596994,121.401748 C188.267514,123.001748 186.530636,124.427875 184.433988,125.640823 C179.553526,128.45747 173.095723,130.008453 166.250405,130.008453" id="Fill-83" fill="#000000"></path>
                <path d="M190.258035,163.262048 C188.16185,163.262048 185.891329,162.587366 183.571329,161.252337 C182.566474,160.672453 182.221965,159.386904 182.803237,158.383898 C183.382659,157.377193 184.668208,157.034072 185.671676,157.613493 C188.363468,159.166788 190.782428,159.477077 192.482312,158.497655 C194.17341,157.520083 195.10659,155.284707 195.10659,152.203551 C195.10659,145.003551 189.825202,135.869216 183.571329,132.258118 C182.566474,131.678696 182.221965,130.393147 182.803237,129.390141 C183.382659,128.384823 184.668208,128.040314 185.671676,128.621586 C193.316994,133.037309 199.306358,143.39569 199.306358,152.203551 C199.306358,156.847251 197.628671,160.375574 194.582197,162.136037 C193.278613,162.887944 191.818728,163.262048 190.258035,163.262048" id="Fill-85" fill="#000000"></path>
                <path d="M184.623815,158.025609 C184.501272,158.025609 184.378266,158.041794 184.256647,158.074164 C183.894104,158.171274 183.591676,158.404337 183.403931,158.729424 C183.21526,159.055898 183.165318,159.433702 183.262428,159.796245 C183.359538,160.159713 183.592601,160.463066 183.918613,160.651736 C186.129017,161.923413 188.261734,162.568499 190.258035,162.568499 C191.708208,162.568499 193.046474,162.220754 194.235838,161.534973 C197.058035,159.903991 198.612717,156.590233 198.612717,152.203644 C198.612717,143.620522 192.775954,133.526187 185.324855,129.222372 C184.998844,129.033702 184.619191,128.983297 184.258497,129.080407 C183.895491,129.177517 183.592139,129.41058 183.403931,129.736129 C183.21526,130.061216 183.165318,130.439944 183.262428,130.802025 C183.359538,131.165493 183.592601,131.469309 183.918613,131.657517 C190.358844,135.376361 195.800231,144.785378 195.800231,152.203644 C195.800231,155.542372 194.745434,157.990927 192.829595,159.097979 C190.902659,160.208268 188.237225,159.894742 185.324855,158.21428 C185.107977,158.089424 184.867514,158.025609 184.623815,158.025609 M190.258035,163.955783 C188.016185,163.955783 185.650405,163.24873 183.225896,161.853124 C182.577572,161.479482 182.114682,160.876476 181.92185,160.154626 C181.72948,159.433702 181.828902,158.681332 182.203006,158.035783 C182.573873,157.391158 183.175954,156.928268 183.896879,156.734511 C184.618266,156.539829 185.371561,156.639251 186.018497,157.013355 C188.484162,158.436245 190.65711,158.750233 192.135954,157.896592 C193.604162,157.048037 194.412948,155.026303 194.412948,152.203644 C194.412948,145.219598 189.289249,136.360869 183.224971,132.858904 C182.577572,132.485725 182.114682,131.882257 181.92185,131.159944 C181.72948,130.439482 181.828902,129.687112 182.203006,129.042025 C182.57526,128.396014 183.178266,127.933586 183.900578,127.740291 C184.622428,127.547459 185.374335,127.647806 186.019422,128.021447 C193.858497,132.549077 200,143.171505 200,152.203644 C200,157.106303 198.198844,160.846881 194.92948,162.736823 C193.526474,163.546072 191.955145,163.955783 190.258035,163.955783" id="Fill-87" fill="#000000"></path>
                <path d="M156.919538,145.814418 C156.919538,144.185748 155.775491,142.20517 154.359538,141.388985 L148.217572,137.840777 C146.80763,137.026441 145.659422,137.686326 145.659422,139.314996 L145.659422,149.426904 C145.659422,151.055574 146.80763,153.036152 148.217572,153.850488 L154.359538,157.397309 C155.775491,158.215343 156.919538,157.554996 156.919538,155.926326 L156.919538,145.814418 Z" id="Fill-89" fill="#FFFFFF"></path>
                <path d="M147.075376,138.278927 C146.528786,138.278927 146.446012,138.926326 146.446012,139.314765 L146.446012,149.427135 C146.446012,150.776962 147.438382,152.489794 148.612023,153.168176 L154.755376,156.716846 C155.104046,156.918465 155.355145,156.960546 155.503584,156.960546 C155.738497,156.960546 155.848555,156.857887 155.912832,156.779274 C156.053873,156.601239 156.131098,156.298811 156.131098,155.926557 L156.131098,145.81465 C156.131098,144.461124 155.140578,142.747829 153.966936,142.069447 L147.823584,138.522626 C147.474913,138.321008 147.221965,138.278927 147.075376,138.278927 M155.503584,158.534187 L155.503584,158.534187 C155.008786,158.534187 154.491792,158.383898 153.966936,158.079621 L147.823584,154.5328 C146.16763,153.575574 144.870983,151.332337 144.870983,149.427135 L144.870983,139.314765 C144.870983,137.510372 145.978497,136.703436 147.075376,136.703436 C147.572023,136.703436 148.08763,136.857424 148.612023,137.160314 L154.755376,140.706673 C156.409942,141.662511 157.708439,143.903436 157.708439,145.81465 L157.708439,155.926557 C157.708439,156.663667 157.511908,157.298118 157.143353,157.760546 C156.743353,158.260892 156.163931,158.534187 155.503584,158.534187" id="Fill-91" fill="#000000"></path>
                <path d="M147.172578,138.989309 C147.155931,139.056823 147.140208,139.163181 147.140208,139.314858 L147.140208,149.427228 C147.140208,150.520407 148.00726,152.017285 148.959399,152.567574 L155.102289,156.116245 C155.236855,156.193933 155.337665,156.231852 155.405179,156.249887 C155.421364,156.18191 155.437549,156.074164 155.437549,155.926187 L155.437549,145.814742 C155.437549,144.718788 154.571422,143.219598 153.619746,142.670233 L147.476393,139.123413 C147.340902,139.0448 147.240092,139.007343 147.172578,138.989309 M155.504139,157.65428 C155.163329,157.65428 154.794775,157.540985 154.408185,157.317632 L148.265295,153.768962 C146.879861,152.968037 145.752925,151.020291 145.752925,149.427228 L145.752925,139.314858 C145.752925,138.039482 146.435931,137.585378 147.075468,137.585378 C147.309919,137.585378 147.690035,137.644106 148.17096,137.922488 L154.31385,141.468846 C155.698358,142.269309 156.824832,144.218904 156.824832,145.814742 L156.824832,155.926187 C156.824832,156.462603 156.697202,156.906534 156.455815,157.210349 C156.155699,157.578441 155.773272,157.65428 155.504139,157.65428 M147.075468,137.39717 C146.344832,137.39717 145.564254,137.900754 145.564254,139.314858 L145.564254,149.427228 C145.564254,151.080407 146.733734,153.101678 148.170497,153.931736 L154.31385,157.478557 C155.22252,158.006187 156.108069,157.943297 156.60148,157.327343 C156.871538,156.988846 157.014428,156.504222 157.014428,155.926187 L157.014428,145.814742 C157.014428,144.159251 155.84541,142.137517 154.408647,141.307459 L148.265295,137.7611 C147.84726,137.519251 147.446798,137.39717 147.075468,137.39717 M155.504139,159.227921 C154.880324,159.227921 154.245873,159.04295 153.618821,158.67902 L147.476393,155.133124 C145.595699,154.045956 144.176971,151.592777 144.176971,149.427228 L144.176971,139.314858 C144.176971,137.043875 145.679399,136.009887 147.075468,136.009887 C147.693272,136.009887 148.32726,136.194858 148.958936,136.559713 L155.102289,140.106072 C156.983445,141.192777 158.401711,143.646418 158.401711,145.814742 L158.401711,155.926187 C158.401711,156.82191 158.15385,157.605725 157.68541,158.193008 C157.152231,158.860754 156.377665,159.227921 155.504139,159.227921" id="Fill-93" fill="#000000"></path>
                <path d="M151.289572,140.400592 C150.85489,140.400592 150.501133,140.048684 150.501133,139.612152 L150.501133,125.337008 C150.501133,124.904176 150.85489,124.550418 151.289572,124.550418 C151.724254,124.550418 152.076162,124.904176 152.076162,125.337008 L152.076162,139.612152 C152.076162,140.048684 151.724254,140.400592 151.289572,140.400592" id="Fill-95" fill="#000000"></path>
                <path d="M151.289757,125.243829 C151.238428,125.243829 151.194497,125.286835 151.194497,125.337239 L151.194497,139.611921 C151.194497,139.716892 151.382705,139.718742 151.382705,139.611921 L151.382705,125.337239 C151.382705,125.286835 151.340162,125.243829 151.289757,125.243829 M151.289757,141.094002 C150.472185,141.094002 149.807214,140.429493 149.807214,139.611921 L149.807214,125.337239 C149.807214,124.521054 150.472185,123.856546 151.289757,123.856546 C152.106405,123.856546 152.769988,124.521054 152.769988,125.337239 L152.769988,139.611921 C152.769988,140.429493 152.106405,141.094002 151.289757,141.094002" id="Fill-97" fill="#000000"></path>
                <path d="M118.140254,175.762072 C113.911353,178.206002 112.463954,183.609008 114.906497,187.833748 C117.347653,192.063112 122.750197,193.511898 126.979561,191.071667 C131.205688,188.630511 132.653087,183.225193 130.211931,178.999066 C127.772162,174.769702 122.364994,173.325077 118.140254,175.762072" id="Fill-99" fill="#000000"></path>
                <path d="M118.603237,176.562904 L118.603237,176.562904 C116.771561,177.621401 115.461503,179.328222 114.914451,181.369378 C114.368324,183.410072 114.64948,185.541401 115.707052,187.370765 C117.887399,191.150187 122.736416,192.450534 126.517225,190.271112 C128.34659,189.214002 129.655723,187.507181 130.202775,185.465563 C130.749364,183.423944 130.468208,181.29169 129.411098,179.461401 C128.354913,177.63065 126.648092,176.321054 124.606012,175.774002 C122.565318,175.2288 120.433064,175.508106 118.603237,176.562904 M122.579191,193.17747 C119.201156,193.17747 115.911908,191.425794 114.105202,188.296083 C112.800694,186.038973 112.45341,183.409147 113.128092,180.890765 C113.802775,178.372846 115.418497,176.26695 117.677457,174.961517 L117.678382,174.961054 C119.935029,173.658395 122.56578,173.313424 125.085087,173.987181 C127.604855,174.662326 129.710289,176.278048 131.012948,178.537008 C132.316994,180.794118 132.663815,183.424869 131.989133,185.944176 C131.314913,188.46302 129.700116,190.568453 127.441618,191.872499 C125.909133,192.757586 124.233295,193.17747 122.579191,193.17747" id="Fill-101" fill="#000000"></path>
                <path d="M122.549318,175.177239 C121.113017,175.177239 119.691052,175.559667 118.440185,176.281517 C116.534058,177.382557 115.171283,179.160592 114.600647,181.284985 C114.031399,183.409378 114.325503,185.628569 115.425618,187.535158 C116.893827,190.078048 119.629549,191.658164 122.567353,191.658164 L122.56874,191.658164 C124.003653,191.658164 125.427468,191.275736 126.67926,190.552499 C128.584462,189.452846 129.946775,187.674811 130.516486,185.549031 C131.085734,183.423251 130.795329,181.20406 129.692902,179.29747 C128.225618,176.757355 125.488971,175.177239 122.549318,175.177239 M122.56874,192.855852 L122.567353,192.855852 C119.202266,192.855852 116.067468,191.046835 114.387006,188.134002 C113.125503,185.952268 112.790243,183.409378 113.443653,180.975158 C114.095214,178.540939 115.655908,176.505794 117.839954,175.244291 C119.274867,174.416546 120.904,173.978626 122.549318,173.978626 C125.915792,173.978626 129.05059,175.787181 130.731052,178.700014 C131.99163,180.881748 132.327815,183.424638 131.674867,185.860245 C131.021457,188.294465 129.461225,190.329147 127.278104,191.589725 C125.843191,192.41747 124.215908,192.855852 122.56874,192.855852" id="Fill-103" fill="#000000"></path>
                <path d="M122.549225,176.102326 C121.274312,176.102326 120.013272,176.440823 118.90252,177.08221 C117.211884,178.058858 116.001249,179.637124 115.493965,181.525216 C114.988994,183.408222 115.249341,185.379089 116.226451,187.073424 C117.530035,189.330534 119.960092,190.73354 122.56726,190.73354 C123.843561,190.73354 125.104601,190.393655 126.217202,189.751806 C127.907376,188.775621 129.116624,187.19828 129.622983,185.309725 C130.128879,183.42117 129.869457,181.44984 128.892347,179.760129 C127.588763,177.503482 125.158705,176.102326 122.549225,176.102326 M122.56911,193.780476 L122.56726,193.780476 C118.872462,193.780476 115.430613,191.794349 113.585988,188.596199 C112.201017,186.201285 111.832925,183.409147 112.55015,180.735389 C113.266451,178.062557 114.980671,175.827644 117.377434,174.443598 C118.95385,173.534002 120.741595,173.05354 122.549225,173.05354 C126.24541,173.05354 129.687723,175.040129 131.532347,178.23828 C132.917318,180.635043 133.284948,183.427181 132.567723,186.100014 C131.850497,188.773309 130.136277,191.007297 127.740902,192.390881 C126.163561,193.300014 124.375353,193.780476 122.56911,193.780476" id="Fill-105" fill="#000000"></path>
                <path d="M66.7228208,205.450765 L66.7228208,205.450765 C65.5907977,206.098164 64.8902197,207.499783 64.8888324,209.491459 C64.8902197,213.476199 67.6888324,218.321054 71.1431676,220.315505 C72.8666358,221.311574 74.430104,221.40406 75.5607399,220.756199 L75.5607399,220.758973 L126.694613,191.236661 L126.694613,191.233887 C127.828023,190.583251 128.527214,189.182095 128.529988,187.191806 C128.529988,183.208453 125.727676,178.36221 122.275653,176.367759 C120.550798,175.375389 118.987329,175.277817 117.856694,175.927991 L66.7228208,205.450765 Z" id="Fill-107" fill="#DD784B"></path>
                <path d="M119.478751,176.115228 C118.984879,176.115228 118.539561,176.226673 118.153896,176.447251 L67.0214104,205.968638 C66.0332023,206.536499 65.4889249,207.787366 65.4889249,209.4928 C65.4889249,213.277771 68.1603699,217.902048 71.4431445,219.796152 C72.3180578,220.301586 73.1795607,220.569332 73.9360925,220.569332 C74.4299653,220.569332 74.8766705,220.457887 75.2618728,220.235921 C75.2785202,220.22621 75.2984046,220.21465 75.3178266,220.206326 L126.348578,190.745517 C126.363838,190.733956 126.379098,190.722858 126.395746,190.714534 C127.384416,190.14806 127.928694,188.897193 127.931468,187.191759 C127.931468,183.406326 125.260023,178.783898 121.975861,176.88702 C121.097711,176.381586 120.235283,176.115228 119.478751,176.115228 M73.9360925,221.76702 L73.9360925,221.76702 C72.9562081,221.76702 71.9148208,221.453956 70.8429133,220.834303 C67.2308902,218.749216 64.291237,213.660661 64.2889249,209.491413 C64.291237,207.339274 65.0491561,205.718927 66.4239538,204.930025 L117.556902,175.4091 C118.915052,174.62991 120.723607,174.783436 122.574243,175.847482 C126.189503,177.93673 129.128694,183.024361 129.128694,187.191759 C129.125919,189.318927 128.386497,190.925401 127.043607,191.723551 C127.029734,191.73465 127.011699,191.744823 126.99459,191.755921 L75.8607168,221.278233 C75.8399075,221.289332 75.8186358,221.300892 75.7978266,221.309216 C75.2424509,221.613493 74.6167861,221.76702 73.9360925,221.76702" id="Fill-109" fill="#000000"></path>
                <path d="M119.478844,177.040268 C119.148208,177.040268 118.856879,177.110557 118.613642,177.25021 L67.4839306,206.769748 C66.7930636,207.166511 66.4138728,208.133447 66.4138728,209.492985 C66.4138728,212.926048 68.9290173,217.277493 71.9056647,218.995413 C73.0538728,219.658072 74.1271676,219.823621 74.8,219.434719 C74.8282081,219.418534 74.8559538,219.403274 74.883237,219.389401 L125.854335,189.962349 C125.893642,189.935991 125.932948,189.912407 125.973179,189.891598 C126.623815,189.517493 127.003931,188.55102 127.006243,187.190095 C127.006243,183.759806 124.490636,179.407898 121.513064,177.687667 C120.777341,177.264546 120.073526,177.040268 119.478844,177.040268 M73.936185,222.69206 C72.7893642,222.69206 71.5926012,222.336453 70.3801156,221.635413 C66.5146821,219.403736 63.366474,213.956337 63.3636994,209.49206 C63.3669364,206.992176 64.2904046,205.087898 65.9639306,204.127898 L117.094566,174.607898 C118.743121,173.662696 120.907746,173.822696 123.034913,175.045355 C126.906358,177.28258 130.053642,182.731366 130.053642,187.191482 C130.050405,189.635413 129.163931,191.516106 127.556994,192.494141 L127.45711,192.557031 L76.323237,222.079343 C76.2793064,222.103389 76.243237,222.121887 76.2104046,222.137609 C75.5260116,222.505239 74.7611561,222.69206 73.936185,222.69206" id="Fill-111" fill="#000000"></path>
                <path d="M66.7228208,205.450765 C57.8025896,210.599436 56.0536879,217.509956 53.4691792,221.638511 L54.1891792,222.890303 L54.9119538,224.13932 C59.7831676,223.966372 66.6391214,225.909493 75.5607399,220.758973 C76.692763,220.106025 77.3947283,218.707644 77.3947283,216.714118 C77.3947283,212.730765 74.5975029,207.884985 71.1431676,205.889147 C69.4164624,204.895389 67.8534566,204.797355 66.7228208,205.450765" id="Fill-113" fill="#FFFFFF"></path>
                <path d="M55.582104,223.528268 C56.4644162,223.528268 57.4077688,223.578673 58.4098497,223.634164 C59.5261503,223.695667 60.718289,223.759944 61.9913526,223.759944 C65.3300809,223.759944 69.8549364,223.359482 75.2588671,220.239944 C76.2498497,219.668846 76.7959769,218.417054 76.7959769,216.714395 C76.7959769,212.926187 74.1259191,208.303759 70.8431445,206.408268 C69.3915838,205.570811 67.9932023,205.408962 67.0216416,205.968499 C60.1989827,209.907459 57.6810636,214.87347 55.6574798,218.862372 C55.150659,219.857517 54.6720462,220.800869 54.1666127,221.648037 L55.2528555,223.531043 C55.361526,223.529655 55.4729711,223.528268 55.582104,223.528268 M61.9913526,224.957632 L61.9913526,224.957632 C60.6974798,224.957632 59.4817572,224.893355 58.3427977,224.830465 C57.1159769,224.762025 55.9686936,224.699135 54.9342428,224.737054 C54.6623353,224.721794 54.5032601,224.627921 54.3941272,224.438326 L52.9499653,221.937054 C52.8380578,221.746072 52.8436069,221.508846 52.9610636,221.320176 C53.5095029,220.443875 54.0329711,219.413586 54.5883468,218.319482 C56.6831445,214.188152 59.2921618,209.047806 66.4227977,204.931736 C67.7823353,204.148384 69.5895029,204.303297 71.4429133,205.371043 C75.0553988,207.456592 77.9945896,212.545147 77.9945896,216.714395 C77.9945896,218.863759 77.2357457,220.485493 75.8590983,221.278557 C70.2091561,224.538673 65.4808324,224.957632 61.9913526,224.957632" id="Fill-115" fill="#000000"></path>
                <path d="M55.7857572,222.604291 C56.606104,222.610765 57.4541965,222.654696 58.4613642,222.71065 C59.518474,222.768915 60.7170867,222.835043 61.9910751,222.835043 C65.2141965,222.835043 69.582289,222.448915 74.7966243,219.438511 C75.4898035,219.039436 75.8713064,218.072037 75.8713064,216.714349 C75.8713064,213.280823 73.3566243,208.927991 70.3809017,207.208684 C69.2359306,206.548337 68.152,206.384176 67.4828671,206.770303 C60.9006705,210.570534 58.4516532,215.399204 56.4835607,219.278973 L56.4424046,219.358973 C56.0331561,220.163135 55.6419422,220.930765 55.2354682,221.64984 L55.7857572,222.604291 Z M61.9910751,225.882441 C60.7230983,225.882441 59.5656416,225.824176 58.2916532,225.754349 C57.1522312,225.690534 55.9744277,225.622557 54.968185,225.661401 L54.9256416,225.662788 L54.8826358,225.660476 C54.1538497,225.619783 53.7788208,225.223482 53.5924624,224.898395 L52.1492254,222.399898 C51.8657572,221.916199 51.8754682,221.313655 52.1760462,220.830881 C52.7059884,219.984176 53.2192832,218.972384 53.7635607,217.900939 C55.9133873,213.661401 58.5894566,208.3851 65.9600925,204.130303 C67.6067977,203.182326 69.7737341,203.341863 71.9046012,204.569609 C75.7732717,206.803135 78.9196301,212.250534 78.9196301,216.714349 C78.9196301,219.208222 77.9966243,221.113887 76.3212486,222.079436 C70.4803237,225.450072 65.5947746,225.882441 61.9910751,225.882441 L61.9910751,225.882441 Z" id="Fill-117" fill="#000000"></path>
                <path d="M53.4689942,221.638372 C53.8680694,221.410858 54.5145434,221.782187 54.9122312,222.473054 C55.3099191,223.165309 55.3099191,223.910742 54.9122312,224.139644 C54.5145434,224.369933 49.7145434,226.395366 49.3150058,225.705424 C48.9187052,225.01317 53.0699191,221.870048 53.4689942,221.638372" id="Fill-119" fill="#000000"></path>
                <path d="M53.776185,222.542418 C53.2582659,222.901725 52.1387283,223.791436 51.2827746,224.569702 C52.3847399,224.216407 53.7146821,223.690626 54.2825434,223.421956 C54.2705202,223.310511 54.2252023,223.133401 54.1100578,222.933632 C53.9958382,222.735251 53.865896,222.608083 53.776185,222.542418 M49.740578,226.771783 C49.1690173,226.771783 48.7602312,226.592823 48.5151445,226.168777 C47.9852023,225.243921 48.8369942,224.233979 50.4878613,222.800915 C51.4816185,221.937563 52.7001156,221.015482 53.0048555,220.838372 L53.0117919,220.834673 C53.8806936,220.3408 55.0427746,220.845309 55.7132948,222.012014 C56.387052,223.182881 56.2404624,224.442072 55.3734104,224.941031 C55.0737572,225.114441 53.667052,225.710048 52.4166474,226.141493 C51.3012717,226.526696 50.409711,226.771783 49.740578,226.771783" id="Fill-121" fill="#000000"></path>
                <path d="M53.7327168,222.171644 C53.254104,222.459274 51.0178035,224.240083 50.1863584,225.197771 C51.5412717,224.94621 54.2423121,223.82991 54.6131792,223.62043 C54.6330636,223.570025 54.6455491,223.210257 54.3930636,222.770488 C54.1498266,222.351528 53.8386127,222.171644 53.7327168,222.171644 M49.7368786,226.448176 C49.283237,226.448176 48.966474,226.298811 48.7958382,226.004245 C47.9852023,224.589216 53.1144509,221.151066 53.1690173,221.119158 C53.8598844,220.725632 54.8716763,221.20147 55.4312139,222.171644 C55.7706358,222.763551 55.8904046,223.419274 55.7521387,223.924707 C55.6642775,224.251181 55.4774566,224.505054 55.2106358,224.65858 C54.8295954,224.879158 51.1602312,226.448176 49.7368786,226.448176" id="Fill-123" fill="#000000"></path>
                <path d="M49.7367399,227.373077 C48.7471445,227.373077 48.257896,226.87828 48.0382428,226.537008 L47.752,226.590187 L47.9439075,226.369147 C46.7818266,223.968684 52.641711,220.356199 52.7027514,220.320592 C53.857896,219.660707 55.4047168,220.273424 56.2324624,221.709725 C56.6995145,222.524985 56.849341,223.420245 56.6444855,224.168453 C56.4937341,224.726603 56.1478382,225.186257 55.6715376,225.460476 C55.3210173,225.663944 51.4565087,227.373077 49.7367399,227.373077" id="Fill-125" fill="#000000"></path>
                <path d="M96.6892486,188.152083 C97.822659,187.487574 99.3912139,187.57821 101.12763,188.580754 C104.581965,190.57243 107.380578,195.41821 107.380578,199.401563 C107.381965,201.405725 106.668902,202.807343 105.524393,203.451967 L105.524393,203.457517 L126.694798,191.236476 L126.694798,191.233702 C127.828208,190.583528 128.527399,189.18191 128.530173,187.191621 C128.530173,183.208268 125.727399,178.362488 122.275838,176.367574 C120.55052,175.375667 118.987514,175.277632 117.856879,175.928268 L96.6878613,188.149309 L96.6892486,188.152083 Z" id="Fill-127" fill="#FFFFFF"></path>
                <path d="M99.4373642,187.253077 C100.080601,187.399667 100.747884,187.669262 101.426266,188.062788 C105.040139,190.1451 107.979329,195.231343 107.979329,199.401517 C107.979329,200.181632 107.881757,200.892384 107.687538,201.517586 L126.348347,190.745332 C126.364069,190.734233 126.379329,190.723135 126.395977,190.714349 C127.384185,190.147875 127.928462,188.89747 127.931237,187.191574 C127.931237,183.406603 125.259792,178.783713 121.97563,176.886835 C120.521295,176.051228 119.12985,175.888915 118.154127,176.447528 L99.4373642,187.253077 Z M105.524301,204.057702 C105.44615,204.057702 105.365225,204.042441 105.291237,204.010534 C105.116902,203.937933 104.989734,203.787181 104.943491,203.60406 L104.943491,203.598511 C104.876439,203.337702 104.993896,203.063944 105.228347,202.92984 C106.231815,202.366141 106.783029,201.111574 106.780254,199.401517 C106.780254,195.613771 104.111584,190.990881 100.827422,189.099551 C99.3661503,188.255158 97.9677688,188.098858 96.9920462,188.669956 C96.8496185,188.753655 96.6766705,188.775852 96.5189827,188.726835 C96.3599075,188.679667 96.2271908,188.569147 96.1532023,188.420245 C96.0107746,188.138164 96.113896,187.789031 96.3876532,187.629956 L117.556671,175.408915 C118.914821,174.630187 120.723838,174.783713 122.574474,175.847297 C126.189272,177.936546 129.128925,183.024176 129.128925,187.191574 C129.12615,189.318742 128.386266,190.925216 127.043838,191.723829 C127.029503,191.734927 127.011468,191.744638 126.994821,191.755736 L105.824416,203.976777 C105.731931,204.029956 105.630197,204.057702 105.524301,204.057702 L105.524301,204.057702 Z" id="Fill-129" fill="#000000"></path>
                <path d="M101.574243,187.087204 C101.679676,187.143158 101.784647,187.201424 101.890081,187.262465 C105.756439,189.490441 108.904185,194.936915 108.904185,199.401655 C108.904185,199.519112 108.902335,199.635644 108.898173,199.750788 L125.854474,189.96258 C125.89378,189.935759 125.933087,189.912176 125.973318,189.891366 C126.623954,189.517725 127.004069,188.550788 127.006382,187.190326 C127.006382,183.760037 124.490775,179.408129 121.513202,177.687898 C120.368694,177.029863 119.284763,176.865239 118.61378,177.250441 L101.574243,187.087204 Z M105.524301,204.982696 C105.318058,204.982696 105.109965,204.93969 104.923145,204.859228 C104.495399,204.681193 104.163838,204.294141 104.046844,203.829863 L104.018636,203.687898 C103.921064,203.069632 104.217017,202.44258 104.769618,202.126742 C105.464185,201.736915 105.857711,200.745008 105.855399,199.403505 C105.855399,195.965355 103.341642,191.614372 100.366382,189.901077 C99.2163237,189.236569 98.1296185,189.075181 97.4595607,189.467783 C97.0928555,189.683274 96.6493873,189.735991 96.2461503,189.610673 C95.8489249,189.492291 95.5099653,189.206048 95.3236069,188.828707 C94.9643006,188.117031 95.2255723,187.235181 95.9229133,186.830095 L117.094705,174.608129 C118.742798,173.662002 120.907884,173.822465 123.035052,175.045124 C126.906035,177.282811 130.05378,182.730673 130.05378,187.191713 C130.050543,189.636106 129.164532,191.516337 127.556671,192.49391 L127.457249,192.5568 L106.286382,204.77784 C106.054705,204.911944 105.790659,204.982696 105.524301,204.982696 L105.524301,204.982696 Z" id="Fill-131" fill="#000000"></path>
                <path d="M89.2891098,190.905794 C87.7062197,191.820014 87.7062197,193.29932 89.2891098,194.214927 C90.8733873,195.127759 93.4398613,195.127759 95.0227514,194.217702 L116.251884,181.957817 C117.832,181.046372 117.832,179.564291 116.24911,178.649609 C114.664832,177.736777 112.097896,177.734465 110.518243,178.649609 L89.2891098,190.905794 Z" id="Fill-133" fill="#000000"></path>
                <path d="M89.7516301,191.706996 C89.2979884,191.96873 89.0274682,192.287806 89.0270058,192.559713 C89.0270058,192.832083 89.2984509,193.151621 89.7525549,193.41428 C91.0552139,194.165725 93.2577572,194.165725 94.561341,193.416129 L115.789549,181.15717 C116.241803,180.895898 116.511399,180.57821 116.511861,180.30584 C116.511861,180.032546 116.240416,179.713008 115.786312,179.450349 C114.481341,178.698441 112.280647,178.698441 110.981688,179.449887 L89.7516301,191.706996 Z M92.1585665,195.823528 C90.9599538,195.823528 89.761341,195.554395 88.8276994,195.016592 C87.777526,194.409424 87.1768324,193.513702 87.1772945,192.558788 C87.1777572,191.604337 87.7784509,190.710002 88.8267746,190.104684 L110.055445,177.848499 C111.915792,176.771043 114.839723,176.77058 116.710705,177.848037 C117.760416,178.454742 118.361572,179.350465 118.361572,180.306765 C118.36111,181.261216 117.760416,182.155089 116.713942,182.758557 L95.4848092,195.018441 C94.5520925,195.55532 93.3553295,195.823528 92.1585665,195.823528 L92.1585665,195.823528 Z" id="Fill-135" fill="#000000"></path>
                <path d="M113.379329,178.563366 C112.399445,178.563366 111.490775,178.778395 110.817942,179.169147 L89.587422,191.423482 C89.0251098,191.750418 88.7027977,192.163366 88.7027977,192.559667 C88.7027977,192.955967 89.0251098,193.369378 89.587422,193.695852 C90.2547052,194.079667 91.1929711,194.301632 92.1585202,194.301632 C93.1231445,194.301632 94.0581734,194.081054 94.7226821,193.697239 L115.953202,181.438742 C116.514127,181.11458 116.837827,180.701632 116.837827,180.305332 C116.837827,179.909031 116.51274,179.494233 115.94904,179.169147 C115.28037,178.783944 114.345341,178.563366 113.379329,178.563366 M92.1585202,195.49932 L92.1585202,195.49932 C90.9723931,195.49932 89.8473064,195.228337 88.9904277,194.732615 C88.0313526,194.179089 87.5037225,193.406835 87.5037225,192.559667 C87.5037225,191.712499 88.0313526,190.940707 88.9904277,190.386719 L110.219561,178.130534 C111.92222,177.143713 114.83089,177.142326 116.547884,178.130534 C117.507884,178.684522 118.035514,179.458164 118.035514,180.305332 C118.035514,181.153887 117.507884,181.924291 116.551584,182.476892 L95.321526,194.735852 C94.4669595,195.228337 93.3451098,195.49932 92.1585202,195.49932" id="Fill-137" fill="#000000"></path>
                <path d="M89.6450405,192.559574 C89.6908208,192.627089 89.8096647,192.755181 90.0519769,192.896222 C90.5745202,193.196337 91.3629595,193.377147 92.1587977,193.377147 C92.953711,193.377147 93.7393757,193.197262 94.2596069,192.896684 L115.491052,180.637725 C115.730127,180.499459 115.848971,180.372754 115.895676,180.305239 C115.848509,180.237725 115.72874,180.109632 115.48689,179.969979 C114.963422,179.668476 114.175445,179.488129 113.379145,179.488129 C112.560647,179.488129 111.816139,179.659228 111.28296,179.968592 L90.0501272,192.224314 C89.8092023,192.363967 89.6908208,192.49206 89.6450405,192.559574 M92.1587977,196.423621 C90.809896,196.423621 89.5197225,196.107783 88.5268902,195.533447 C87.2709364,194.807898 86.5791445,193.751713 86.5791445,192.559574 C86.5791445,191.367898 87.2709364,190.312176 88.5273526,189.585702 L109.756948,177.329054 C111.749549,176.174835 115.003191,176.173447 117.009202,177.328592 C118.267468,178.055066 118.960647,179.111713 118.960647,180.305239 C118.960647,181.496915 118.269318,182.552176 117.014751,183.277725 L95.7837688,195.536684 C94.7918613,196.10917 93.5044624,196.423621 92.1587977,196.423621" id="Fill-139" fill="#000000"></path>
            </g>
        </g>
    </g>
</svg>