<?xml version="1.0" encoding="UTF-8"?><svg id="Layer_1" xmlns="http://www.w3.org/2000/svg" viewBox="0 0 720 720"><defs><style>.cls-1{fill:#00af81;}.cls-1,.cls-2,.cls-3{stroke:#000;stroke-linecap:round;stroke-linejoin:round;stroke-width:15.52px;}.cls-2{fill:#f4d74b;}.cls-3{fill:#007f4e;}</style></defs><path class="cls-1" d="M649.25,203.1v327.26l-281.93,162.69c-.75.38-1.5,0-1.5-.94v-325.56l283.43-163.63h0v.19Z"/><path class="cls-3" d="M101.96,186.92v327.26l262.36,178.77c.75.38,1.5,0,1.5-.94v-325.56L101.96,186.92Z"/><polygon class="cls-1" points="385.06 26.81 101.96 186.92 365.82 366.54 649.25 202.91 385.06 26.81"/><polygon class="cls-2" points="482.35 299.74 220.51 119.78 292.36 78.4 552.88 258.55 482.35 299.74"/><polygon class="cls-2" points="552.88 350.44 552.88 258.55 482.35 299.74 482.35 391.06 552.88 350.44"/></svg>