<?xml version="1.0" encoding="UTF-8"?>
<svg width="167.884272px" height="181.638542px" viewBox="0 0 167.884272 181.638542" version="1.1" xmlns="http://www.w3.org/2000/svg" xmlns:xlink="http://www.w3.org/1999/xlink">
    <title>Group 170</title>
    <defs>
        <polygon id="path-1" points="0 0 102.197379 0 102.197379 129.354101 0 129.354101"></polygon>
        <polygon id="path-3" points="0 0 44.1545964 0 44.1545964 25.4388297 0 25.4388297"></polygon>
        <polygon id="path-5" points="0 0 7.92522499 0 7.92522499 74.8698075 0 74.8698075"></polygon>
    </defs>
    <g id="website" stroke="none" stroke-width="1" fill="none" fill-rule="evenodd">
        <g id="Hubs" transform="translate(-228.000000, -1743.000000)">
            <g id="Group-170" transform="translate(228.000000, 1743.000000)">
                <path d="M78.8720632,113.924266 C78.8720632,117.195185 79.0882899,119.067512 77.2582261,121.950697 C72.5238452,128.784443 61.6569815,131.290706 53.9082045,131.388008 C46.0537712,131.484819 35.508299,129.300438 30.2358086,123.080973 C28.7295934,121.338383 27.7609962,119.207076 27.6533743,116.904754 L27.6533743,113.849078 C27.869601,116.581888 28.9448372,118.647344 30.7739181,120.660217 C36.6916485,126.890494 47.9904741,128.794762 56.2763778,128.23503 C63.3779491,127.740658 72.9548242,125.113995 77.2582261,118.895513 C78.2273147,117.270373 78.7654242,115.839346 78.8720632,113.924266" id="Fill-1" fill="#000000"></path>
                <path d="M53.3707338,132.65775 C45.5158092,132.65775 34.7546017,130.376067 29.2678503,123.899096 C27.4377865,121.768281 26.4701722,119.369639 26.3625503,116.958712 L26.3625503,113.848979 C26.3625503,113.171797 26.9011513,112.601253 27.5463913,112.579631 C28.1911398,112.481837 28.8373627,113.063684 28.9449846,113.751186 C29.0516237,116.087417 29.9125989,117.884064 31.7431541,119.788824 C37.229414,125.534556 47.9906215,127.546447 56.1689033,126.965583 C63.2704746,126.481039 72.3087488,123.920227 76.1821545,118.185307 C77.0431297,116.786713 77.4736173,115.560119 77.6888611,113.816054 C77.6888611,113.138871 78.2269707,112.558499 78.9798326,112.653836 C79.625564,112.697081 80.1641649,113.246002 80.1641649,113.924167 L80.1641649,114.806274 C80.1641649,117.6585 80.2717868,119.723956 78.2269707,122.66169 C73.3849679,129.871375 62.0861423,132.550128 53.9078605,132.65775 L53.3707338,132.65775 Z M33.7869874,124.706506 C39.2742302,128.784344 47.6672644,130.236503 53.8017129,130.128881 C59.9341956,130.043865 67.8962508,128.471798 73.0621021,124.501091 C68.2191165,127.610332 61.7632766,129.128833 56.3826728,129.494452 C49.7120805,129.967694 40.4580711,128.859532 33.7869874,124.706506 L33.7869874,124.706506 Z" id="Fill-3" fill="#000000"></path>
                <path d="M40.4580711,126.342064 C28.1911398,122.262752 23.9938856,113.203346 31.0969312,106.123889 C38.198994,99.043449 53.9078605,96.6104077 66.0681527,100.710851 C78.3336097,104.788198 82.6389773,113.849078 75.5359316,120.929518 C68.4353432,128.009958 52.7250024,130.441034 40.4580711,126.342064" id="Fill-5" fill="#F8D754"></path>
                <path d="M53.15549,129.579616 C48.742992,129.579616 44.2238549,128.925039 40.0275835,127.546594 C32.7107684,125.104216 27.8697484,120.820471 26.6854161,115.806961 C25.7163275,112.137496 27.0087732,108.382524 30.235956,105.230038 C37.5527712,97.847863 53.9078605,95.2870514 66.4976575,99.5054369 C73.814964,101.947815 78.7655716,106.241389 79.9484297,111.244087 C80.8098963,114.924363 79.5179421,118.669998 76.3973983,121.821993 C71.4487564,126.793241 62.4094994,129.579616 53.15549,129.579616 M53.2621291,99.9786784 C44.7634387,99.9786784 36.4770436,102.496245 31.9569236,107.015382 C29.4835855,109.566365 28.4063837,112.395494 29.1602284,115.226098 C30.1288255,119.304427 34.431736,123.017629 40.8890502,125.14697 C52.7250024,129.085243 67.8962508,126.804052 74.5683174,120.035666 C77.1517345,117.485175 78.1198402,114.655554 77.4736173,111.825933 C76.5050202,107.747604 72.0944879,104.035877 65.745287,101.905061 C61.7632766,100.591976 57.4593833,99.9786784 53.2621291,99.9786784" id="Fill-7" fill="#000000"></path>
                <polygon id="Fill-9" fill="#000000" points="38.8444306 118.529402 35.4005297 116.539134 35.4005297 107.080201 38.8444306 109.07096"></polygon>
                <path d="M38.8444306,119.788971 C38.6282039,119.788971 38.413943,119.733932 38.1986991,119.627784 L34.7547982,117.637025 C34.3252935,117.409987 34.1090668,117.001122 34.1090668,116.539183 L34.1090668,107.08025 C34.1090668,106.628139 34.3252935,106.208955 34.7547982,105.993711 C35.0781554,105.757336 35.6157735,105.757336 36.0467525,105.993711 L39.3830315,107.97415 C39.8125363,108.199714 40.0277801,108.619882 40.0277801,109.070518 L40.0277801,118.529451 C40.0277801,118.981561 39.8125363,119.400746 39.3830315,119.627784 C39.2739353,119.733932 39.0601658,119.788971 38.8444306,119.788971 L38.8444306,119.788971 Z M36.5853534,115.817772 L37.5529677,116.333768 L37.5529677,109.791929 L36.5853534,109.27495 L36.5853534,115.817772 Z" id="Fill-11" fill="#000000"></path>
                <polygon id="Fill-13" fill="#F8D754" points="38.8444306 109.070714 61.7634731 95.8459973 61.7634731 105.304931 38.8444306 118.529156"></polygon>
                <path d="M38.8444306,119.788971 C38.6282039,119.788971 38.413943,119.733932 38.1986991,119.627784 C37.7682115,119.400746 37.5529677,118.981561 37.5529677,118.529451 L37.5529677,109.070518 C37.5529677,108.619882 37.7682115,108.199714 38.1986991,107.97415 L61.1187246,94.7499248 C61.440116,94.5228868 61.978717,94.5228868 62.4092046,94.7499248 C62.7320703,94.9749971 62.9473141,95.3956562 62.9473141,95.8462922 L62.9473141,105.304734 C62.9473141,105.757336 62.7320703,106.176521 62.4092046,106.403067 L39.3830315,119.627784 C39.2739353,119.733932 39.0601658,119.788971 38.8444306,119.788971 L38.8444306,119.788971 Z M40.0277801,109.791929 L40.0277801,116.345562 L60.4725017,104.572512 L60.4725017,98.0306728 L40.0277801,109.791929 Z" id="Fill-15" fill="#000000"></path>
                <path d="M6.34811974,128.084654 L3.11946264,126.201025 C1.61373884,124.942979 1.50611694,124.158175 1.29087313,122.219998 L1.29087313,62.2859005 C1.72037789,57.8198372 3.65806358,54.2265434 7.5324521,51.5900524 L93.290892,2.07119991 C95.1209558,1.25396144 95.8733263,0.940924218 97.70339,1.65054079 L100.930573,3.52335847 C99.1029662,2.82357039 98.3481386,3.13562477 96.6266796,3.94303475 L10.7596349,53.4722072 C6.88672068,56.109681 4.94952642,59.5530904 4.51805596,64.1572439 L4.51805596,124.092816 C4.73428261,126.029518 4.84092167,126.815306 6.34811974,128.084654" id="Fill-17" fill="#F8D754"></path>
                <g id="Group-21">
                    <mask id="mask-2" fill="white">
                        <use xlink:href="#path-1"></use>
                    </mask>
                    <g id="Clip-20"></g>
                    <path d="M6.34811974,129.354101 C6.13287593,129.354101 5.91763212,129.289233 5.70238832,129.183086 L2.47471407,127.298474 C0.322276001,125.577506 0.215145522,124.287026 -9.82848432e-05,122.339021 L-9.82848432e-05,62.2859988 C0.42940648,57.2823174 2.6904493,53.365175 6.7776245,50.557177 L92.6461434,0.973456501 C94.6904682,0.0259906134 95.8733263,-0.392211394 98.1328948,0.467780983 L101.576304,2.42708933 C102.114905,2.75880068 102.330149,3.46989152 102.114905,4.06156627 C101.791548,4.66405236 101.039178,4.94416417 100.501068,4.70778912 C99.1029662,4.17950809 98.7786262,4.34069523 97.1652805,5.09453998 L11.2977444,54.57113 C7.96195686,56.9383205 6.13287593,60.0367502 5.81001022,64.2649641 L5.81001022,124.092914 C5.91763212,125.78243 6.02525403,126.15837 7.10049021,127.105836 C7.63909115,127.525512 7.74671305,128.25626 7.42384734,128.805672 C7.10049021,129.161463 6.7776245,129.354101 6.34811974,129.354101 M95.981931,2.50080296 C95.4433301,2.50080296 94.905712,2.73865228 93.8290015,3.2118938 L8.06957876,52.6983123 C4.73428261,55.0325774 2.90421883,58.218972 2.58184455,62.3936207 L2.58184455,122.220096 C2.6904493,123.565616 2.6904493,124.071291 3.33618072,124.706211 C3.33618072,124.544533 3.22708454,124.382854 3.22708454,124.210364 L3.22708454,64.1573422 C3.65806358,59.0897757 5.91763212,55.2807466 10.0072644,52.4290119 L95.981931,2.84529134 C96.196192,2.74848077 96.3047967,2.66346438 96.5190577,2.57599087 C96.3047967,2.52242563 96.196192,2.50080296 95.981931,2.50080296" id="Fill-19" fill="#000000" mask="url(#mask-2)"></path>
                </g>
                <path d="M10.7598315,53.4720106 L96.6268761,3.94283818 C99.9626637,1.98500411 102.760342,3.58852132 102.760342,7.51549223 L102.760342,67.4397611 C102.760342,71.366732 99.9626637,76.1777751 96.5192542,78.1351177 L10.6531924,127.665273 C7.31691343,129.623599 4.51825253,128.021064 4.51825253,124.092619 L4.51825253,64.1575388 C4.51825253,60.2403963 7.31691343,55.4308275 10.7598315,53.4720106" id="Fill-22" fill="#F8D754"></path>
                <path d="M7.96176029,129.763556 C7.10029364,129.763556 6.34792317,129.569935 5.70219175,129.182693 C4.08835462,128.267661 3.22737939,126.459711 3.22737939,124.092521 L3.22737939,64.1574405 C3.22737939,59.7572281 6.24030126,54.5810568 10.1151812,52.3750535 L95.9817344,2.8448982 C98.0265506,1.66204011 99.962762,1.52198421 101.576599,2.42718762 C103.189945,3.33976239 104.051411,5.1482035 104.051411,7.51539395 L104.051411,67.4396628 C103.94379,71.851178 101.039472,77.0273493 97.1650839,79.2333526 L11.2980393,128.762525 C10.1151812,129.430371 9.0374879,129.763556 7.96176029,129.763556 L7.96176029,129.763556 Z M11.2980393,54.5707369 C8.39273933,56.3020244 5.81030507,60.6933912 5.81030507,64.1574405 L5.81030507,124.092521 C5.81030507,125.501925 6.24030126,126.556522 6.99414601,126.987009 C7.74651648,127.4288 8.82322694,127.266138 10.0075593,126.567333 L95.9817344,77.0376692 C98.9941649,75.3049074 101.468977,70.9155063 101.468977,67.4396628 L101.468977,7.51539395 C101.468977,6.1059893 101.039472,5.0509015 100.284645,4.62139674 C99.5322744,4.17960637 98.4555639,4.33096503 97.2727058,5.0405816 L11.2980393,54.5707369 Z" id="Fill-24" fill="#000000"></path>
                <path d="M125.787006,97.0955908 C124.818409,98.945803 124.496035,104.121974 126.325607,106.768785 C131.70572,114.494465 153.656656,124.479714 163.125418,117.819933 C164.631633,116.732902 165.815966,115.291064 166.354075,113.429549 C166.999807,111.137546 166.461206,108.812618 166.03121,107.17765 C165.384987,110.179761 163.23304,111.966088 160.543967,113.257059 C144.295517,118.367871 142.573075,108.081871 129.769017,103.207434 C127.294204,101.355747 126.217985,100.322774 125.787006,97.0955908" id="Fill-26" fill="#000000"></path>
                <g id="Group-30" transform="translate(123.729676, 95.823382)">
                    <mask id="mask-4" fill="white">
                        <use xlink:href="#path-3"></use>
                    </mask>
                    <g id="Clip-29"></g>
                    <path d="M31.2175591,25.4388297 C29.603722,25.4388297 27.9903763,25.2776425 26.1603125,24.9655882 C16.6910593,23.2972029 5.39321654,17.2079655 1.52030229,11.6661746 C-0.739757678,8.47044293 -0.093534834,2.74584224 0.982192774,0.691197592 C1.19743658,0.195841982 1.73456325,-0.084761245 2.27267277,0.0228606583 C2.81078228,0.120654077 3.24126989,0.561461599 3.34840037,1.12070236 C3.67077466,3.88643784 4.42560225,4.65109392 6.57804032,6.26443962 C11.096686,7.99720141 14.3238688,10.363409 17.1220383,12.4514705 C22.5021506,16.4772177 26.3765391,19.3815348 36.4915238,16.2280656 C39.1805971,14.8933574 40.578699,13.2800117 41.0106608,11.0966139 C41.1168085,10.5147677 41.6554094,10.0950914 42.3016323,10.0842801 C42.9473637,10.1167141 43.376377,10.4720138 43.4854732,11.0528772 C43.914978,12.7964503 44.5612008,15.3577533 43.8083389,17.9495246 C43.2702294,19.9727181 42.0863885,21.6833658 40.1491942,23.0175826 C37.8896257,24.6215912 34.8767038,25.4388297 31.2175591,25.4388297 M2.59553847,5.99563058 C2.59553847,7.55541104 2.91840418,9.16973959 3.67077466,10.224336 C6.6851708,14.6471539 16.9063031,20.7683339 26.5908001,22.4696446 C31.75616,23.3945049 35.9534142,22.8676982 38.6419961,20.9634293 C40.0415723,19.9623982 41.0106608,18.7141807 41.4401656,17.2620221 C41.5477875,16.669856 41.6554094,16.0668785 41.6554094,15.4643924 C40.364438,16.9489849 38.7510923,17.8969422 37.459138,18.5623306 C25.9450687,22.1895328 21.1030659,18.6173701 15.6158231,14.4751554 C12.7105231,12.3546599 9.80522315,10.1702793 5.60846034,8.56774492 C5.50083844,8.51270541 5.39321654,8.47044293 5.28559463,8.39525502 C4.10273654,7.55541104 3.24126989,6.82417181 2.59553847,5.99563058" id="Fill-28" fill="#000000" mask="url(#mask-4)"></path>
                </g>
                <path d="M125.034587,99.8070239 C124.388855,108.188264 135.040967,104.864271 139.561086,110.716642 C144.725955,117.346446 157.745257,119.638448 164.093966,114.354655 C165.815917,112.966382 166.56927,111.125998 166.354026,108.984371 C166.246404,107.199027 165.384938,105.347832 164.308719,103.508431 C161.40391,98.96718 156.454285,93.8023115 149.674597,90.8331263 C146.339301,89.3480424 143.541623,88.4757644 140.421079,88.8207442 C134.826214,89.4232303 125.573188,93.6843696 125.034587,99.8070239" id="Fill-31" fill="#05B173"></path>
                <path d="M154.73204,118.539673 C153.872048,118.539673 153.010581,118.48709 152.25821,118.389297 C146.555232,117.754868 141.389873,115.108549 138.592194,111.481838 C136.978357,109.340211 134.180188,108.58735 131.490132,107.855127 C127.723857,106.790211 123.313324,105.584256 123.742829,99.7097711 C124.38856,92.9733279 133.857322,88.2502498 140.207014,87.5607816 C143.649441,87.1848421 146.662854,88.1426279 150.212903,89.6807857 C158.821672,93.4578722 163.663675,100.140259 165.385134,102.840635 C166.783236,105.035827 167.429459,107.005455 167.644703,108.866479 C167.860929,111.448913 166.892332,113.677522 164.954647,115.333621 C162.371721,117.41038 158.821672,118.539673 154.73204,118.539673 M126.325263,99.914695 C126.002397,103.541406 128.046722,104.260851 132.243976,105.413241 C135.149768,106.219176 138.376951,107.134208 140.636028,109.943189 C143.003218,113.041619 147.52383,115.31249 152.472471,115.871731 C156.777348,116.366103 160.757884,115.462866 163.340809,113.38709 C164.631289,112.268117 165.277512,110.825787 165.062268,109.093516 C164.954647,107.661015 164.308424,106.004915 163.233188,104.174852 C161.61935,101.678416 157.206852,95.4908942 149.137667,91.9944109 C145.90901,90.5850063 143.326575,89.7677678 140.52988,90.0793307 C135.040672,90.6710055 126.755751,94.8033917 126.325263,99.914695" id="Fill-33" fill="#000000"></path>
                <path d="M139.56089,131.248149 L139.56089,135.14416 C139.238024,136.305395 138.484671,136.982578 137.408943,137.59735 L65.5297975,179.088296 C62.4092537,180.798452 57.9977385,180.788132 54.8776862,179.088296 L30.3433322,164.820285 C29.2676046,164.206497 28.5147427,163.529314 28.1913856,162.367587 L28.1913856,158.482879 C28.5147427,159.645097 29.2676046,160.32228 30.3433322,160.935577 L54.8776862,175.203588 C57.9977385,176.915218 62.4092537,176.915218 65.5297975,175.203588 L137.408943,133.713133 C138.484671,133.099344 139.238024,132.421178 139.56089,131.248149" id="Fill-35" fill="#000000"></path>
                <path d="M60.2572579,181.638542 C58.2129332,181.638542 56.0600037,181.153998 54.3395275,180.197195 L29.6975516,165.917881 C28.6223155,165.261339 27.4379831,164.390535 26.9008564,162.723133 L26.9008564,162.367341 L26.9008564,158.483124 C26.9008564,157.847222 27.3303612,157.320415 27.9760926,157.233924 C28.6223155,157.137114 29.160425,157.524356 29.3746859,158.127333 C29.5899297,158.826139 30.0204174,159.267929 30.9895059,159.860095 L55.522877,174.105992 C58.2129332,175.592059 62.1949436,175.592059 64.9916388,174.096163 L136.870785,132.615045 C137.732251,132.055804 138.161265,131.592391 138.377,130.893586 C138.484622,130.301911 139.130353,129.924989 139.775102,130.000177 C140.420833,130.085193 140.851812,130.624777 140.851812,131.248394 L140.851812,135.143914 C140.851812,135.250553 140.851812,135.368986 140.74419,135.486928 C140.313211,137.155805 139.130353,138.038403 138.053643,138.672831 L66.1759712,180.186384 C64.4545122,181.153998 62.4092046,181.638542 60.2572579,181.638542 L60.2572579,181.638542 Z M29.4832907,162.1634 C29.6975516,162.775715 30.1290221,163.217505 30.9895059,163.744312 L55.522877,177.9907 C58.3195722,179.486595 62.1949436,179.486595 64.9916388,177.979397 L136.870785,136.499754 C137.624629,135.982775 138.053643,135.541968 138.269869,134.93899 L138.269869,134.66969 C138.269869,134.702124 138.161265,134.75618 138.053643,134.788614 L66.1759712,176.300692 C62.6244484,178.238378 57.7824456,178.228058 54.3395275,176.311995 L29.6975516,162.033664 C29.5899297,161.979608 29.4832907,161.947174 29.4832907,161.8941 L29.4832907,162.1634 Z" id="Fill-37" fill="#000000"></path>
                <path d="M30.3434305,154.770316 L102.114954,113.268067 C105.126893,111.578059 109.862257,111.589362 112.87567,113.278387 L137.409042,127.546889 C140.420981,129.236405 140.420981,132.012952 137.409042,133.71328 L65.5298958,175.203735 C62.6245958,176.89276 57.8902149,176.89276 54.8777845,175.203735 L30.3434305,160.935233 C27.3300172,159.235397 27.3300172,156.470153 30.3434305,154.770316" id="Fill-39" fill="#05B173"></path>
                <path d="M60.2572579,177.753785 C58.1053113,177.753785 55.9533646,177.269732 54.3395275,176.300643 L29.6975516,162.033615 C27.869945,160.990322 26.7922517,159.461992 26.7922517,157.847172 C26.7922517,156.212204 27.869945,154.73744 29.6975516,153.683826 L101.469076,112.181577 C104.912485,110.243891 110.077845,110.243891 113.41265,112.181577 L138.053643,126.449096 C139.883706,127.492881 140.959434,129.009908 140.959434,130.624728 C140.959434,132.238565 139.883706,133.765912 138.053643,134.799377 L66.1759712,176.300643 C64.5611512,177.269732 62.4092046,177.753785 60.2572579,177.753785 L60.2572579,177.753785 Z M107.494919,113.268116 C105.772477,113.268116 104.05151,113.633244 102.760538,114.364975 L30.881884,155.868207 C29.9127954,156.44907 29.3746859,157.16999 29.3746859,157.847172 C29.3746859,158.535658 29.9127954,159.26788 30.881884,159.838915 L55.522877,174.105943 C58.1053113,175.580707 62.4092046,175.580707 64.9916388,174.105943 L136.870785,132.614996 C137.838399,132.034133 138.377,131.31223 138.377,130.624728 C138.377,129.93526 137.838399,129.215323 136.870785,128.644288 L112.2293,114.375786 C110.939312,113.633244 109.21687,113.268116 107.494919,113.268116 L107.494919,113.268116 Z" id="Fill-41" fill="#000000"></path>
                <path d="M6.67132944,57.6154539 L3.44267234,55.7426362 C2.04309618,57.8420005 1.50596951,59.8209658 1.2907257,62.2859496 L1.2907257,122.220047 C1.50596951,124.158224 1.61359141,124.943029 3.11980663,126.200583 L6.34797231,128.084704 C4.84077424,126.815355 4.73462661,126.029568 4.51790853,124.092865 L4.51790853,64.1572931 C4.73462661,61.7041034 5.27273612,59.7246466 6.67132944,57.6154539" id="Fill-43" fill="#000000"></path>
                <g id="Group-47" transform="translate(0.000000, 54.484294)">
                    <mask id="mask-6" fill="white">
                        <use xlink:href="#path-5"></use>
                    </mask>
                    <g id="Clip-46"></g>
                    <path d="M6.34811974,74.8698075 C6.13287593,74.8698075 5.91763212,74.8049395 5.70238832,74.6987919 L2.47471407,72.81418 C0.42940648,71.1467777 0.215145522,69.9737481 -9.82848432e-05,67.8547269 L-9.82848432e-05,7.80170484 C0.322276001,4.80991421 0.96800742,2.67909881 2.36709216,0.570888925 C2.6904493,0.0116481671 3.44281977,-0.161333157 4.08855119,0.162023977 L7.31671686,2.04467015 C7.63909115,2.21716005 7.8553178,2.50759176 7.8553178,2.84028595 C7.96195686,3.1862486 7.96195686,3.54007404 7.74671305,3.83050575 C6.56336354,5.5848902 6.02525403,7.31716056 5.81001022,9.78067015 L5.81001022,69.6086199 C5.91763212,71.2981363 6.02525403,71.6740759 7.10049021,72.6215418 C7.63909115,73.041218 7.74671305,73.7719658 7.42384734,74.3213781 C7.10049021,74.6771692 6.7776245,74.8698075 6.34811974,74.8698075 L6.34811974,74.8698075 Z M3.87330738,2.98083328 C3.11946264,4.4118606 2.6904493,5.91905867 2.58184455,7.90932674 L2.58184455,67.7358022 C2.6904493,69.0700189 2.6904493,69.5869972 3.33618072,70.2219173 C3.33618072,70.0602387 3.22708454,69.8985602 3.22708454,69.7260703 L3.22708454,9.67304825 C3.44281977,7.2306699 3.98092929,5.34802373 4.94952642,3.5941307 L3.87330738,2.98083328 Z" id="Fill-45" fill="#000000" mask="url(#mask-6)"></path>
                </g>
                <path d="M64.2381381,151.9949 L67.7896609,149.916667 C68.5420314,149.498465 69.7263637,149.498465 70.479717,149.916667 L74.0312398,151.9949 C74.7836103,152.413102 74.7836103,153.10257 74.0312398,153.510943 L70.479717,155.598513 C69.7263637,156.006887 68.5420314,156.006887 67.7896609,155.598513 L64.2381381,153.510943 C63.4857676,153.091267 63.4857676,152.413102 64.2381381,151.9949" id="Fill-48" fill="#FFFFFF"></path>
                <path d="M69.1878611,157.170088 C68.4354906,157.170088 67.7892677,157.00841 67.1435363,156.685544 L63.5934878,154.608785 C62.839643,154.178297 62.4091554,153.499641 62.4091554,152.74727 C62.4091554,152.004728 62.839643,151.326563 63.5934878,150.897058 L67.2511582,148.820299 C68.3278687,148.174076 69.9412144,148.174076 71.1255467,148.820299 L74.6760867,150.897058 C75.42944,151.326563 75.8589448,152.004728 75.8589448,152.758573 C75.8589448,153.499641 75.42944,154.178297 74.6760867,154.608785 L71.0164506,156.685544 C70.4798153,157.00841 69.8350667,157.170088 69.1878611,157.170088 L69.1878611,157.170088 Z M65.4220773,152.758573 L68.4354906,154.501163 C68.7573734,154.695276 69.5117096,154.695276 69.8350667,154.501163 L72.8465143,152.758573 L69.8350667,151.014508 C69.5117096,150.82187 68.7573734,150.82187 68.4354906,151.014508 L65.4220773,152.758573 Z M64.2382364,151.9949 L64.7763459,153.113873 C64.7763459,153.10257 64.8839678,153.091759 64.8839678,153.081439 L64.2382364,151.9949 Z" id="Fill-50" fill="#000000"></path>
                <path d="M50.1422733,160.150429 L46.4831286,162.226204 C45.83838,162.646864 45.83838,163.324046 46.4831286,163.744705 L50.1422733,165.821464 C50.7880047,166.250969 51.9713542,166.250969 52.725199,165.821464 L56.2762304,163.755025 C57.0286008,163.335349 57.0286008,162.657675 56.2762304,162.226204 L52.725199,160.150429 C51.9713542,159.730261 50.7880047,159.730261 50.1422733,160.150429" id="Fill-52" fill="#FFFFFF"></path>
                <path d="M51.4342767,167.402572 C50.6809234,167.402572 50.0347005,167.252196 49.4975739,166.929331 L45.8384292,164.841269 C45.0850758,164.411764 44.6545882,163.733599 44.6545882,162.981229 C44.6545882,162.237212 45.0850758,161.56003 45.8384292,161.139371 L49.4975739,159.052783 C50.5733015,158.406561 52.2942691,158.406561 53.3709795,159.052783 L56.9210281,161.139371 C57.6748728,161.571333 58.1053604,162.249007 58.1053604,162.991057 C58.1053604,163.74441 57.6748728,164.411764 56.9210281,164.841269 L53.3709795,166.919011 C52.83287,167.252196 52.0804995,167.402572 51.4342767,167.402572 L51.4342767,167.402572 Z M47.6675101,162.991057 L50.6809234,164.733647 C51.0028062,164.92776 51.7571424,164.92776 52.0804995,164.733647 L55.0924386,162.991057 L52.0804995,161.248467 C51.7571424,161.054354 51.111411,161.054354 50.6809234,161.248467 L47.6675101,162.991057 Z" id="Fill-54" fill="#000000"></path>
                <path d="M58.9652545,165.273084 L55.3075841,167.34886 C54.6613612,167.769519 54.6613612,168.45653 55.3075841,168.877189 L58.9652545,170.952473 C59.7190993,171.373132 60.9019574,171.373132 61.5481802,170.952473 L65.2068335,168.877189 C65.8530563,168.45653 65.8530563,167.769519 65.2068335,167.359671 L61.5481802,165.273084 C60.9019574,164.852425 59.7190993,164.852425 58.9652545,165.273084" id="Fill-56" fill="#FFFFFF"></path>
                <path d="M60.2572579,172.536235 C59.6110351,172.536235 58.8586646,172.362271 58.3195722,172.051691 L54.6614104,169.96363 C54.0166618,169.533142 53.5851913,168.855959 53.5851913,168.112435 C53.5851913,167.360064 54.0166618,166.69271 54.6614104,166.25092 L58.3195722,164.174161 C59.3972655,163.540224 61.1187246,163.540224 62.1949436,164.174161 L65.8531055,166.262222 C66.6054759,166.69271 67.0359636,167.369893 67.0359636,168.112435 C67.0359636,168.865788 66.6054759,169.54297 65.8531055,169.974932 L62.1949436,172.051691 C61.6568341,172.362271 61.0106112,172.536235 60.2572579,172.536235 L60.2572579,172.536235 Z M56.5990961,168.112435 L59.6110351,169.856008 C59.9343922,170.05012 60.5786494,170.05012 61.0106112,169.856008 L63.9159112,168.112435 L61.0106112,166.369844 C60.5786494,166.187034 59.9343922,166.175732 59.6110351,166.369844 L56.5990961,168.112435 Z" id="Fill-58" fill="#000000"></path>
                <path d="M52.7251007,155.587702 L56.2766235,153.510943 C57.028994,153.091759 57.028994,152.413102 56.2766235,151.9949 L52.7251007,149.906838 C51.9712559,149.487653 50.7883978,149.487653 50.142175,149.906838 L46.4835217,151.9949 C45.8387731,152.403273 45.8387731,153.081439 46.4835217,153.510943 L50.142175,155.587702 C50.7883978,156.006887 51.9712559,156.006887 52.7251007,155.587702" id="Fill-60" fill="#FFFFFF"></path>
                <path d="M51.4342767,157.158638 C50.6809234,157.158638 50.0347005,157.008262 49.4975739,156.685396 L45.8384292,154.597335 C45.0850758,154.16783 44.6545882,153.489665 44.6545882,152.747123 C44.6545882,151.994752 45.0850758,151.326415 45.8384292,150.896911 L49.4975739,148.820152 C50.5733015,148.163118 52.2942691,148.17442 53.3709795,148.820152 L56.9210281,150.896911 C57.6748728,151.326415 58.1053604,152.004581 58.1053604,152.747123 C58.1053604,153.499985 57.6748728,154.17815 56.9210281,154.608638 L53.3709795,156.685396 C52.83287,157.008262 52.0804995,157.158638 51.4342767,157.158638 L51.4342767,157.158638 Z M47.6675101,152.747123 L50.7880539,154.491187 C51.111411,154.683826 51.7571424,154.683826 52.0804995,154.491187 L55.0924386,152.758425 L52.0804995,151.00355 C51.7571424,150.81042 51.111411,150.81042 50.7880539,151.00355 L47.6675101,152.747123 Z" id="Fill-62" fill="#000000"></path>
                <path d="M61.6568832,150.476595 L65.2069318,148.389517 C65.9593022,147.96984 65.9593022,147.291675 65.2069318,146.87249 L61.6568832,144.79524 C60.9020556,144.376055 59.7187061,144.376055 58.9653528,144.79524 L55.3076824,146.87249 C54.6614595,147.280372 54.6614595,147.96984 55.3076824,148.389517 L58.9653528,150.476595 C59.7187061,150.88546 60.9020556,150.88546 61.6568832,150.476595" id="Fill-64" fill="#FFFFFF"></path>
                <path d="M60.2572579,152.047531 C59.6110351,152.047531 58.8586646,151.885853 58.3195722,151.562987 L54.7690323,149.487702 C54.0166618,149.045912 53.5851913,148.379541 53.5851913,147.624713 C53.5851913,146.883154 54.0166618,146.20548 54.7690323,145.774501 L58.3195722,143.697742 C59.5039046,143.05152 61.1187246,143.05152 62.1949436,143.697742 L65.8531055,145.774501 C66.6054759,146.20548 67.0359636,146.883154 67.0359636,147.624713 C67.0359636,148.379541 66.6054759,149.056723 65.8531055,149.487702 L62.1949436,151.562987 C61.6568341,151.885853 61.0106112,152.047531 60.2572579,152.047531 L60.2572579,152.047531 Z M56.5990961,147.624713 L59.6110351,149.379589 C59.9343922,149.561416 60.6877455,149.561416 61.0106112,149.379589 L63.9159112,147.636016 L61.0106112,145.882123 C60.6877455,145.688502 59.9343922,145.688502 59.6110351,145.882123 L56.5990961,147.624713 Z" id="Fill-66" fill="#000000"></path>
                <path d="M47.4522171,158.622345 L43.9021686,160.710406 C43.1483239,161.129591 41.9654658,161.129591 41.211621,160.710406 L37.6605896,158.622345 C36.9067449,158.202669 36.9067449,157.524012 37.6605896,157.10581 L41.211621,155.028068 C41.9654658,154.608392 43.1483239,154.608392 43.9021686,155.028068 L47.4522171,157.10581 C48.2055705,157.524012 48.2055705,158.213971 47.4522171,158.622345" id="Fill-68" fill="#FFFFFF"></path>
                <path d="M42.5036736,162.281195 C41.8574507,162.281195 41.1040974,162.120008 40.5659879,161.796651 L37.0144651,159.719892 C36.2620946,159.289404 35.831607,158.610747 35.831607,157.86968 C35.831607,157.116326 36.2620946,156.448972 37.0144651,156.007182 L40.5659879,153.931406 C41.748846,153.285183 43.3636659,153.295503 44.5470155,153.931406 L48.0980468,156.007182 C48.8518916,156.448972 49.2823792,157.126155 49.2823792,157.86968 C49.2823792,158.610747 48.8518916,159.289404 48.0980468,159.719892 L44.5470155,161.796651 C43.9022669,162.120008 43.256044,162.281195 42.5036736,162.281195 L42.5036736,162.281195 Z M38.8445289,157.86968 L41.8574507,159.61227 C42.1803164,159.806382 42.9326869,159.806382 43.256044,159.61227 L46.2679831,157.86968 L43.256044,156.126106 C42.9326869,155.932977 42.1803164,155.932977 41.8574507,156.126106 L38.8445289,157.86968 Z M47.4523154,158.622542 L46.9137145,157.51438 C46.9137145,157.51438 46.9137145,157.524208 46.8060926,157.546814 L47.4523154,158.622542 L46.8060926,157.546814 L47.4523154,158.622542 Z" id="Fill-70" fill="#000000"></path>
                <path d="M55.3075349,157.106006 L58.9652054,155.027773 C59.7190501,154.608589 60.9019082,154.618908 61.6567358,155.027773 L65.2067843,157.116326 C65.9596462,157.535511 65.9596462,158.214168 65.2067843,158.633353 L61.6567358,160.710112 C60.9019082,161.129788 59.7190501,161.129788 58.9652054,160.710112 L55.3075349,158.633353 C54.6618035,158.214168 54.6618035,157.524208 55.3075349,157.106006" id="Fill-72" fill="#FFFFFF"></path>
                <path d="M60.2572579,162.291072 C59.6110351,162.291072 58.8586646,162.130868 58.3195722,161.808002 L54.6614104,159.729769 C54.0166618,159.289453 53.5851913,158.610796 53.5851913,157.869729 C53.5851913,157.116375 54.0166618,156.449021 54.6614104,156.018042 L58.3195722,153.931455 C59.3972655,153.295552 61.1187246,153.295552 62.1949436,153.931455 L65.8531055,156.018042 C66.6054759,156.449021 67.0359636,157.126204 67.0359636,157.869729 C67.0359636,158.622591 66.6054759,159.289453 65.8531055,159.729769 L62.1949436,161.808002 C61.6568341,162.130868 61.0106112,162.291072 60.2572579,162.291072 L60.2572579,162.291072 Z M56.5990961,157.869729 L59.6110351,159.623622 C59.9343922,159.806432 60.5786494,159.806432 61.0106112,159.623622 L63.9159112,157.869729 L61.0106112,156.126156 C60.6877455,155.933026 59.9343922,155.933026 59.6110351,156.126156 L56.5990961,157.869729 Z M55.3076332,157.106056 L55.9533646,158.235348 L55.9533646,158.192594 L55.3076332,157.106056 Z M55.3076332,157.106056 L55.4152551,157.106056 L55.3076332,157.106056 Z" id="Fill-74" fill="#000000"></path>
                <path d="M81.9929018,141.761187 L85.5444247,139.673125 C86.2967951,139.253941 87.4811275,139.253941 88.233498,139.673125 L91.7860036,141.761187 C92.5383741,142.181846 92.5383741,142.859029 91.7860036,143.278214 L88.1268589,145.354972 C87.4811275,145.774649 86.2967951,145.774649 85.5444247,145.354972 L81.9929018,143.278214 C81.2395485,142.859029 81.2395485,142.170052 81.9929018,141.761187" id="Fill-76" fill="#FFFFFF"></path>
                <path d="M86.8350029,146.937506 C86.1902544,146.937506 85.4364096,146.774844 84.8983001,146.451979 L81.3482516,144.3649 C80.593424,143.934412 80.1639192,143.268532 80.1639192,142.513705 C80.1639192,141.761334 80.593424,141.09398 81.3482516,140.663493 L84.8983001,138.586734 C85.9735363,137.941494 87.6964696,137.941494 88.7717058,138.575431 L92.4308505,140.663493 C93.1842038,141.09398 93.6137086,141.772146 93.6137086,142.513705 C93.6137086,143.268532 93.1842038,143.934412 92.4308505,144.376203 L88.7717058,146.451979 C88.2335962,146.774844 87.5888477,146.937506 86.8350029,146.937506 L86.8350029,146.937506 Z M83.1758582,142.513705 L86.1902544,144.257278 C86.5116458,144.451391 87.1578686,144.46171 87.5888477,144.257278 L90.6012781,142.513705 L87.5888477,140.772097 C87.2654905,140.577002 86.5116458,140.577002 86.1902544,140.772097 L83.1758582,142.513705 Z M81.9930001,141.761334 L82.5311096,142.880307 L82.5311096,142.847873 L81.9930001,141.761334 Z" id="Fill-78" fill="#000000"></path>
                <path d="M90.8158831,146.8834 L94.3674059,144.795338 C95.1207592,144.387456 96.3046001,144.387456 97.057462,144.805658 L100.607511,146.8834 C101.362338,147.302093 101.362338,147.980259 100.607511,148.399935 L97.057462,150.476694 C96.3046001,150.897353 95.1207592,150.897353 94.3674059,150.476694 L90.8158831,148.399935 C90.0635126,147.980259 90.0635126,147.302093 90.8158831,146.8834" id="Fill-80" fill="#FFFFFF"></path>
                <path d="M95.7667855,152.058588 C95.0134322,152.058588 94.3672093,151.897401 93.7224607,151.574535 L90.1699551,149.49876 C89.4175846,149.067289 88.9880798,148.389124 88.9880798,147.636262 C88.9880798,146.89372 89.4175846,146.215063 90.1699551,145.785558 L93.7224607,143.709291 C94.9053188,143.063068 96.519156,143.063068 97.7034883,143.709291 L101.253537,145.785558 C102.007382,146.215063 102.437869,146.89372 102.437869,147.636262 C102.437869,148.389124 102.007382,149.067289 101.253537,149.49876 L97.7034883,151.574535 C97.1653788,151.897401 96.4115341,152.058588 95.7667855,152.058588 L95.7667855,152.058588 Z M92.0000189,147.636262 L95.0134322,149.390155 C95.3358064,149.572473 96.0881769,149.583776 96.4115341,149.390155 L99.4244559,147.647073 L96.4115341,145.892197 C96.0881769,145.71037 95.3358064,145.699067 95.0134322,145.892197 L92.0000189,147.636262 Z M90.8156865,146.8834 L91.4619094,147.991561 L91.4619094,147.969939 L90.8156865,146.8834 L91.4619094,147.969939 L90.8156865,146.8834 Z" id="Fill-82" fill="#000000"></path>
                <path d="M70.4798645,145.35512 L74.0308958,143.278361 C74.7837577,142.847873 74.7837577,142.170199 74.0308958,141.74954 L70.4798645,139.673273 C69.7260197,139.254088 68.5416874,139.254088 67.8964474,139.673273 L64.2382855,141.74954 C63.485915,142.170199 63.485915,142.847873 64.2382855,143.268532 L67.7893169,145.35512 C68.5416874,145.764476 69.7260197,145.764476 70.4798645,145.35512" id="Fill-84" fill="#FFFFFF"></path>
                <path d="M69.1878611,146.926105 C68.4354906,146.926105 67.7892677,146.764917 67.2511582,146.442052 L63.5934878,144.365293 C62.839643,143.934314 62.4091554,143.257131 62.4091554,142.503287 C62.4091554,141.761236 62.839643,141.082579 63.5934878,140.653074 L67.2511582,138.575333 C68.3278687,137.930584 69.9412144,137.941887 71.1255467,138.575333 L74.6760867,140.663394 C75.42944,141.093882 75.8589448,141.772539 75.8589448,142.513607 C75.8589448,143.268434 75.42944,143.934314 74.6760867,144.365293 L71.1255467,146.45188 C70.4798153,146.764917 69.8350667,146.926105 69.1878611,146.926105 L69.1878611,146.926105 Z M65.4220773,142.513607 L68.4354906,144.257671 C68.7573734,144.451292 69.5117096,144.439989 69.8350667,144.257671 L72.8465143,142.513607 L69.8350667,140.771999 C69.5117096,140.576904 68.8649953,140.576904 68.4354906,140.771999 L65.4220773,142.513607 Z" id="Fill-86" fill="#000000"></path>
                <path d="M79.3028457,140.232612 L82.9619904,138.156836 C83.6077218,137.736668 83.6077218,137.048183 82.9619904,136.638827 L79.3028457,134.563051 C78.5499838,134.142392 77.4737648,134.142392 76.71992,134.551748 L73.0622496,136.628998 C72.4165182,137.048183 72.4165182,137.736668 73.0622496,138.156836 L76.71992,140.232612 C77.4737648,140.653271 78.5499838,140.653271 79.3028457,140.232612" id="Fill-88" fill="#FFFFFF"></path>
                <path d="M78.0120217,141.803941 C77.2586684,141.803941 76.6124455,141.653565 76.074336,141.331682 L72.4161742,139.253941 C71.6628208,138.813133 71.2333161,138.134968 71.2333161,137.392426 C71.2333161,136.649884 71.6628208,135.97221 72.4161742,135.542213 L76.074336,133.464963 C77.1520293,132.819232 78.8720141,132.819232 79.9487245,133.464963 L83.6078692,135.542213 C84.3602397,135.97221 84.7907273,136.649884 84.7907273,137.392426 C84.7907273,138.145779 84.3602397,138.822962 83.6078692,139.253941 L79.9487245,141.331682 C79.4111064,141.653565 78.6567703,141.803941 78.0120217,141.803941 L78.0120217,141.803941 Z M74.3538598,137.392426 L77.2586684,139.135016 C77.6886646,139.32962 78.3334131,139.32962 78.6567703,139.135016 L81.670675,137.403237 L78.6567703,135.649835 C78.3334131,135.465551 77.6886646,135.465551 77.2586684,135.649835 L74.3538598,137.392426 Z" id="Fill-90" fill="#000000"></path>
                <path d="M73.0622987,146.872294 L76.7199692,144.795535 C77.4738139,144.37635 78.5500329,144.37635 79.3028948,144.795535 L82.9615481,146.883596 C83.607771,147.301798 83.607771,147.980455 82.9615481,148.39964 L79.3028948,150.476399 C78.5500329,150.897058 77.4738139,150.897058 76.7199692,150.476399 L73.0622987,148.39964 C72.3089454,147.970135 72.3089454,147.291479 73.0622987,146.872294" id="Fill-92" fill="#FFFFFF"></path>
                <path d="M78.0120217,152.047531 C77.2586684,152.047531 76.6124455,151.897155 76.074336,151.562987 L72.4161742,149.487702 C71.6628208,149.056723 71.2333161,148.389369 71.2333161,147.636016 C71.2333161,146.883154 71.6628208,146.215309 72.4161742,145.785804 L76.074336,143.697742 C77.1520293,143.063314 78.8720141,143.05152 79.9487245,143.709045 L83.6078692,145.785804 C84.3602397,146.215309 84.7907273,146.893474 84.7907273,147.636016 C84.7907273,148.379541 84.3602397,149.056723 83.6078692,149.498514 L79.9487245,151.562987 C79.4111064,151.897155 78.6567703,152.047531 78.0120217,152.047531 L78.0120217,152.047531 Z M74.3538598,147.636016 L77.2586684,149.379589 C77.5810427,149.572719 78.3334131,149.572719 78.6567703,149.379589 L81.670675,147.636016 L78.6567703,145.892443 C78.3334131,145.699313 77.6886646,145.688502 77.2586684,145.892443 L74.3538598,147.636016 Z M73.062397,146.872343 L73.7081284,147.991316 L73.7081284,147.958882 L73.062397,146.872343 Z M73.062397,146.872343 L73.1700189,146.872343 L73.062397,146.872343 Z" id="Fill-94" fill="#000000"></path>
                <path d="M64.2381381,162.226204 L85.5443264,149.917011 C86.2966968,149.498809 87.4810292,149.498809 88.1267606,149.917011 L91.7859053,151.994752 C92.5382758,152.424257 92.5382758,153.102422 91.7859053,153.522099 L70.479717,165.832275 C69.7263637,166.250969 68.5420314,166.250969 67.7896609,165.832275 L64.2381381,163.755025 C63.4857676,163.335349 63.4857676,162.657675 64.2381381,162.226204" id="Fill-96" fill="#FFFFFF"></path>
                <path d="M69.1878611,167.41358 C68.4354906,167.41358 67.7892677,167.252393 67.1435363,166.929527 L63.5934878,164.840974 C62.839643,164.422772 62.4091554,163.744607 62.4091554,163.002556 C62.4091554,162.248712 62.839643,161.571529 63.5934878,161.139567 L84.8982018,148.820054 C85.9739294,148.184642 87.6963713,148.184642 88.7716075,148.820054 L92.4307522,150.908115 C93.1841055,151.33762 93.6136103,152.016277 93.6136103,152.758327 C93.6136103,153.510698 93.1841055,154.189355 92.4307522,154.618859 L71.0164506,166.929527 C70.4798153,167.252393 69.8350667,167.41358 69.1878611,167.41358 L69.1878611,167.41358 Z M65.4220773,162.990762 L68.4354906,164.733352 C68.7573734,164.927956 69.5117096,164.927956 69.8350667,164.733352 L90.6016713,152.758327 L87.5887494,151.014754 C87.1577704,150.822116 86.5120389,150.822116 86.1901561,151.014754 L65.4220773,162.990762 Z M64.2382364,162.226106 L64.7763459,163.34557 C64.7763459,163.34557 64.7763459,163.335251 64.8839678,163.314119 L64.2382364,162.226106 L64.8839678,163.314119 L64.2382364,162.226106 Z" id="Fill-98" fill="#000000"></path>
                <path d="M111.368325,124.727637 L115.02747,122.650879 C115.673201,122.231202 116.964172,122.231202 117.609904,122.650879 L121.267574,124.737466 C122.021419,125.146822 122.021419,125.83629 121.267574,126.255475 L117.609904,128.332725 C116.856551,128.75191 115.673201,128.75191 115.02747,128.332725 L111.368325,126.244664 C110.722102,125.825479 110.722102,125.146822 111.368325,124.727637" id="Fill-100" fill="#FFFFFF"></path>
                <path d="M116.319227,129.902433 C115.5644,129.902433 114.920143,129.742228 114.381542,129.430665 L110.722397,127.342604 C110.077648,126.911625 109.647161,126.233459 109.647161,125.492392 C109.647161,124.737564 110.077648,124.071193 110.83051,123.629403 L114.381542,121.553627 C115.457761,120.908387 117.17922,120.918215 118.25593,121.553627 L121.913601,123.640705 C122.558349,124.071193 122.990311,124.748375 122.990311,125.492392 C122.990311,126.233459 122.558349,126.911625 121.913601,127.342604 L118.25593,129.419363 C117.717821,129.742228 116.963976,129.902433 116.319227,129.902433 L116.319227,129.902433 Z M112.660574,125.492392 L115.673004,127.234982 C115.996362,127.438923 116.64111,127.428603 116.963976,127.234982 L119.977389,125.492392 L116.963976,123.748327 C116.64111,123.554215 115.996362,123.554215 115.673004,123.748327 L112.660574,125.492392 Z M111.368128,124.727736 L112.014351,125.846709 L112.014351,125.815257 L111.368128,124.727736 Z M111.368128,124.727736 L111.47575,124.727736 L111.368128,124.727736 Z" id="Fill-102" fill="#000000"></path>
                <path d="M120.298928,129.848622 L123.850451,127.772846 C124.604296,127.352187 125.787154,127.352187 126.540507,127.772846 L130.09203,129.859924 C130.8444,130.280584 130.8444,130.957766 130.09203,131.377442 L126.540507,133.454201 C125.787154,133.873386 124.604296,133.873386 123.850451,133.454201 L120.298928,131.377442 C119.546558,130.946463 119.546558,130.280584 120.298928,129.848622" id="Fill-104" fill="#FFFFFF"></path>
                <path d="M125.141029,135.036047 C124.496281,135.036047 123.742927,134.874859 123.204818,134.541674 L119.654278,132.463932 C118.900924,132.034427 118.469945,131.366582 118.469945,130.61372 C118.469945,129.871178 118.900924,129.193995 119.654278,128.762525 L123.204818,126.674955 C124.388659,126.040526 126.002496,126.040526 127.186828,126.674955 L130.736877,128.762525 C131.49023,129.193995 131.921209,129.871178 131.921209,130.61372 C131.921209,131.366582 131.49023,132.044747 130.736877,132.474744 L127.077732,134.551994 C126.540605,134.874859 125.895857,135.036047 125.141029,135.036047 L125.141029,135.036047 Z M121.483359,130.61372 L124.496281,132.35631 C124.818163,132.549931 125.572991,132.549931 125.895857,132.35631 L128.907796,130.61372 L125.895857,128.87113 C125.572991,128.687337 124.818163,128.675543 124.496281,128.87113 L121.483359,130.61372 Z M120.299026,129.848573 L120.837136,130.967545 C120.837136,130.957717 120.944758,130.946414 120.944758,130.935111 L120.299026,129.848573 L120.944758,130.935111 L120.299026,129.848573 Z" id="Fill-106" fill="#000000"></path>
                <path d="M108.785891,123.210119 L112.336922,121.133361 C113.089784,120.713684 113.089784,120.02569 112.336922,119.616334 L108.785891,117.529255 C108.03352,117.110071 106.849679,117.110071 106.203456,117.529255 L102.544312,119.606014 C101.791941,120.02569 101.791941,120.713684 102.544312,121.133361 L106.203456,123.210119 C106.849679,123.629304 108.03352,123.629304 108.785891,123.210119" id="Fill-108" fill="#FFFFFF"></path>
                <path d="M107.495018,124.781399 C106.742647,124.781399 106.095933,124.619721 105.558806,124.307666 L101.89917,122.220096 C101.146308,121.790591 100.716312,121.112426 100.716312,120.369884 C100.716312,119.616039 101.146308,118.938857 101.89917,118.508369 L105.558806,116.43161 C106.634042,115.795707 108.247388,115.795707 109.43172,116.43161 L112.981769,118.519672 C113.735614,118.949177 114.166593,119.616039 114.166593,120.369884 C114.166593,121.112426 113.735614,121.790591 112.981769,122.220096 L109.43172,124.296855 L109.43172,124.307666 C108.893611,124.619721 108.14124,124.781399 107.495018,124.781399 L107.495018,124.781399 Z M103.728742,120.369884 L106.849286,122.113457 C107.172152,122.306587 107.818375,122.306587 108.14124,122.113457 L111.153179,120.369884 L108.14124,118.625819 C107.818375,118.433181 107.172152,118.433181 106.849286,118.625819 L103.728742,120.369884 Z" id="Fill-110" fill="#000000"></path>
                <path d="M102.544164,129.848622 L106.203309,127.772846 C106.849532,127.352187 108.033373,127.352187 108.785743,127.772846 L112.337266,129.848622 C113.089637,130.280584 113.089637,130.946463 112.337266,131.377442 L108.785743,133.443881 C108.033373,133.873386 106.849532,133.873386 106.203309,133.443881 L102.544164,131.366631 C101.791794,130.946463 101.791794,130.269281 102.544164,129.848622" id="Fill-112" fill="#FFFFFF"></path>
                <path d="M107.495018,135.02499 C106.742647,135.02499 106.095933,134.874614 105.558806,134.541428 L101.89917,132.463686 C101.146308,132.034182 100.716312,131.356016 100.716312,130.603154 C100.716312,129.860121 101.146308,129.182938 101.89917,128.762279 L105.558806,126.675201 C106.634042,126.029469 108.247388,126.029469 109.43172,126.675201 L112.981769,128.762279 C113.735614,129.182938 114.166593,129.871424 114.166593,130.613966 C114.166593,131.356016 113.735614,132.034182 112.981769,132.463686 L109.43172,134.541428 C108.893611,134.874614 108.14124,135.02499 107.495018,135.02499 L107.495018,135.02499 Z M103.728742,130.603154 L106.849286,132.356556 C107.172152,132.550177 107.818375,132.550177 108.14124,132.356556 L111.153179,130.613966 L108.14124,128.870884 C107.818375,128.675789 107.172152,128.66596 106.849286,128.870884 L103.728742,130.603154 Z M102.54441,129.848818 L103.190141,130.967791 L103.190141,130.935357 L102.54441,129.848818 Z" id="Fill-114" fill="#000000"></path>
                <path d="M111.368325,134.971179 L115.02747,132.89442 C115.673201,132.474744 116.856551,132.474744 117.609904,132.89442 L121.267574,134.971179 C122.021419,135.391838 122.021419,136.07934 121.267574,136.499508 L117.609904,138.575284 C116.856551,138.995943 115.673201,138.995943 115.02747,138.575284 L111.368325,136.488205 C110.722102,136.07934 110.722102,135.391838 111.368325,134.971179" id="Fill-116" fill="#FFFFFF"></path>
                <path d="M116.319227,140.157473 C115.5644,140.157473 114.920143,139.984983 114.381542,139.67342 L110.722397,137.586342 C109.970026,137.155854 109.647161,136.478671 109.647161,135.723844 C109.647161,134.982285 110.077648,134.303628 110.83051,133.873632 L114.381542,131.796382 C115.457761,131.163427 117.17922,131.163427 118.25593,131.796382 L121.913601,133.884443 C122.558349,134.313948 122.990311,134.982285 122.990311,135.734655 C122.990311,136.478671 122.558349,137.155854 121.913601,137.597644 L118.25593,139.67342 C117.717821,139.984983 116.963976,140.157473 116.319227,140.157473 L116.319227,140.157473 Z M112.660574,135.734655 L115.673004,137.47872 C115.996362,137.672832 116.64111,137.672832 116.963976,137.47872 L119.977389,135.734655 L116.963976,133.992065 C116.64111,133.798444 115.996362,133.798444 115.673004,133.992065 L112.660574,135.734655 Z M111.368128,134.970982 L112.014351,136.090446 L112.014351,136.058012 L111.368128,134.970982 Z M111.368128,134.970982 L111.47575,134.970982 L111.368128,134.970982 Z" id="Fill-118" fill="#000000"></path>
                <path d="M91.0311269,133.443734 L94.6902716,131.366975 C95.336003,130.946316 95.336003,130.269133 94.6902716,129.848474 L91.0311269,127.761887 C90.3863783,127.352531 89.202046,127.342702 88.4486926,127.761887 L84.7905308,129.848474 C84.1457822,130.258322 84.1457822,130.946316 84.7905308,131.366975 L88.4486926,133.443734 C89.202046,133.862919 90.3863783,133.862919 91.0311269,133.443734" id="Fill-120" fill="#FFFFFF"></path>
                <path d="M89.7402538,135.02499 C89.0945223,135.02499 88.3421519,134.863802 87.8040423,134.541428 L84.2525195,132.453858 C83.4991662,132.02337 83.06917,131.356016 83.06917,130.603154 C83.06917,129.860121 83.4991662,129.182938 84.2525195,128.751959 L87.8040423,126.675201 C88.8792785,126.029469 90.6017204,126.029469 91.6769566,126.675201 L95.3361013,128.751959 C96.0884718,129.182938 96.5189594,129.860121 96.5189594,130.603154 C96.5189594,131.356016 96.0884718,132.034182 95.3361013,132.463686 L91.6769566,134.541428 C91.1388471,134.863802 90.4926242,135.02499 89.7402538,135.02499 L89.7402538,135.02499 Z M91.0312252,133.443586 L91.1388471,133.443586 L91.0312252,133.443586 Z M86.0825833,130.603154 L89.0945223,132.356556 C89.417388,132.540349 90.0636109,132.540349 90.3864766,132.356556 L93.3993985,130.603154 L90.3864766,128.859581 C90.0636109,128.66596 89.417388,128.66596 89.0945223,128.859581 L86.0825833,130.603154 Z" id="Fill-122" fill="#000000"></path>
                <path d="M99.8552875,128.332627 L103.513449,126.244566 C104.266803,125.825381 104.266803,125.147215 103.513449,124.727539 L99.9629094,122.65078 C99.2090647,122.231595 98.026698,122.231595 97.2728533,122.65078 L93.7223133,124.727539 C92.9679771,125.147215 92.9679771,125.825381 93.7223133,126.244566 L97.2728533,128.332627 C98.026698,128.741001 99.2090647,128.741001 99.8552875,128.332627" id="Fill-124" fill="#FFFFFF"></path>
                <path d="M98.67125,129.902433 C97.9183881,129.902433 97.2726567,129.742228 96.6269253,129.419363 L93.0763853,127.342604 C92.323032,126.911625 91.892053,126.233459 91.892053,125.492392 C91.892053,124.737564 92.323032,124.060382 93.0763853,123.629403 L96.6269253,121.553627 C97.8097834,120.918215 99.4246033,120.908387 100.501314,121.553627 L104.158984,123.629403 C104.912829,124.071193 105.343317,124.748375 105.343317,125.492392 C105.343317,126.244762 104.912829,126.911625 104.158984,127.342604 L100.501314,129.419363 C99.9627129,129.742228 99.3169814,129.902433 98.67125,129.902433 L98.67125,129.902433 Z M99.855091,128.332824 L99.9627129,128.332824 L99.855091,128.332824 Z M94.9054663,125.492392 L97.9183881,127.234982 C98.2417453,127.428603 98.9941157,127.417792 99.3169814,127.234982 L102.329903,125.492392 L99.3169814,123.748327 C98.9941157,123.554215 98.2417453,123.554215 97.9183881,123.748327 L94.9054663,125.492392 Z" id="Fill-126" fill="#000000"></path>
                <path d="M93.7223625,134.971179 L97.2729024,132.89442 C98.0262557,132.474744 99.2091138,132.474744 99.8553367,132.89442 L103.513499,134.971179 C104.26636,135.391838 104.26636,136.07934 103.513499,136.488205 L99.8553367,138.575284 C99.2091138,138.98464 98.0262557,138.98464 97.2729024,138.564964 L93.7223625,136.488205 C92.9680263,136.06902 92.9680263,135.391838 93.7223625,134.971179" id="Fill-128" fill="#FFFFFF"></path>
                <path d="M98.67125,140.147596 C97.9183881,140.147596 97.1650348,139.984934 96.6269253,139.663051 L93.0763853,137.586293 C92.323032,137.155805 91.892053,136.478622 91.892053,135.723795 C91.892053,134.982236 92.323032,134.30407 93.0763853,133.873583 L96.6269253,131.796332 C97.8097834,131.151584 99.4246033,131.163378 100.501314,131.796332 L104.158984,133.873583 C104.912829,134.313899 105.343317,134.982236 105.343317,135.734606 C105.343317,136.478622 104.912829,137.155805 104.158984,137.586293 L100.501314,139.663051 C99.9627129,139.984934 99.3169814,140.147596 98.67125,140.147596 L98.67125,140.147596 Z M94.9054663,135.723795 L97.9183881,137.478671 C98.2417453,137.66148 98.9941157,137.66148 99.3169814,137.478671 L102.329903,135.734606 L99.3169814,133.982187 C98.9941157,133.798395 98.2417453,133.798395 97.9183881,133.992016 L94.9054663,135.723795 Z M93.7221167,134.971424 L94.2597348,136.090397 L94.2597348,136.057963 L93.7221167,134.971424 Z" id="Fill-130" fill="#000000"></path>
                <path d="M102.544164,140.093686 L106.203309,138.015453 C106.849532,137.597743 108.033373,137.597743 108.785743,138.015453 L112.337266,140.093686 C113.089637,140.511888 113.089637,141.190545 112.337266,141.610713 L108.785743,143.686489 C108.033373,144.117959 106.849532,144.117959 106.203309,143.686489 L102.544164,141.610713 C101.791794,141.190545 101.791794,140.511888 102.544164,140.093686" id="Fill-132" fill="#FFFFFF"></path>
                <path d="M107.495018,145.269759 C106.742647,145.269759 106.095933,145.107098 105.558806,144.784232 L101.89917,142.708456 C101.146308,142.276986 100.716312,141.599803 100.716312,140.857261 C100.716312,140.103908 101.146308,139.425251 101.89917,138.996238 L105.558806,136.918988 C106.634042,136.284067 108.247388,136.273256 109.43172,136.918988 L112.981769,139.007049 C113.735614,139.425251 114.166593,140.103908 114.166593,140.84645 C114.166593,141.599803 113.735614,142.276986 112.981769,142.708456 L109.43172,144.784232 C108.893611,145.107098 108.14124,145.269759 107.495018,145.269759 L107.495018,145.269759 Z M103.728742,140.84645 L106.849286,142.599852 C107.172152,142.782661 107.818375,142.782661 108.14124,142.599852 L111.153179,140.857261 L108.14124,139.113688 C107.818375,138.92105 107.172152,138.92105 106.849286,139.113688 L103.728742,140.84645 Z M102.54441,140.093588 L103.190141,141.213052 L103.190141,141.180127 L102.54441,140.093588 L103.190141,141.180127 L102.54441,140.093588 Z" id="Fill-134" fill="#000000"></path>
                <path d="M144.832643,99.9359737 C144.509286,99.9359737 144.295517,99.817049 143.972651,99.6131079 C140.313506,96.3633196 136.332479,94.243807 131.382854,92.9518527 C130.736631,92.7695343 130.307618,92.0805576 130.521387,91.403375 C130.630483,90.7247182 131.382854,90.327156 132.028585,90.498663 C137.301076,91.8869364 141.711608,94.243807 145.693618,97.7078563 C146.231728,98.1707779 146.231728,98.9673765 145.80124,99.4941833 C145.478375,99.7851064 145.155509,99.9359737 144.832643,99.9359737" id="Fill-136" fill="#000000"></path>
                <path d="M11.1902208,58.1858991 L96.0881769,9.16141936 C97.7034883,8.27931289 98.8863464,9.00023222 98.8863464,10.765428 L98.8863464,68.4836936 C98.8863464,70.2488894 97.7034883,72.3895332 96.0881769,73.2721311 L11.0825989,122.295137 C9.57638369,123.167906 8.39254276,122.457798 8.39254276,120.692602 L8.39254276,62.9856394 C8.39254276,61.2096323 9.68302275,59.0571943 11.1902208,58.1858991" id="Fill-138" fill="#F4D9DC"></path>
                <path d="M9.89861055,123.931284 C9.46910579,123.931284 8.93050485,123.813343 8.60763914,123.576968 C7.63904201,123.048687 7.10044107,121.994582 7.10044107,120.692799 L7.10044107,62.985836 C7.10044107,60.7788499 8.60763914,58.1860957 10.544342,57.088254 L95.5504114,8.0652485 C96.6266304,7.41902566 97.8099799,7.35415766 98.7790685,7.87015309 C99.6400437,8.4082626 100.178153,9.4633504 100.178153,10.7651331 L100.178153,68.4838901 C100.178153,70.689402 98.6714466,73.2718363 96.7342523,74.3686951 L11.7286743,123.381872 C11.0824515,123.748475 10.4367201,123.931284 9.89861055,123.931284 L9.89861055,123.931284 Z M97.3804752,10.0555166 C97.2728533,10.0555166 97.057118,10.0977791 96.7342523,10.2599491 L11.8362962,59.2726346 C10.6529467,59.9291774 9.68287532,61.6614478 9.68287532,62.985836 L9.68287532,120.692799 C9.68287532,121.133115 9.7919715,121.358679 9.7919715,121.391113 C9.89861055,121.424038 10.1148372,121.424038 10.544342,121.198474 L95.4437723,72.1739946 C96.6266304,71.5282632 97.595719,69.7959928 97.595719,68.4838901 L97.7033409,10.7651331 C97.7033409,10.3135143 97.4871142,10.0977791 97.4871142,10.0653451 C97.4871142,10.0555166 97.3804752,10.0555166 97.3804752,10.0555166 L97.3804752,10.0555166 Z" id="Fill-140" fill="#000000"></path>
                <path d="M141.820557,97.4824891 C141.174334,97.4824891 140.636224,97.0741156 140.529585,96.4711381 C140.420981,95.7600472 139.560988,94.9428088 138.484278,94.4042078 C137.30142,93.7810819 136.224709,93.738328 135.794222,93.9422691 C135.149473,94.2327008 134.394645,93.9422691 134.072763,93.3078404 C133.857519,92.671446 134.072763,91.9308698 134.717511,91.6399466 C136.117087,91.0482719 137.947151,91.2409102 139.66861,92.1446393 C141.4972,93.0498427 142.680549,94.48087 143.003415,95.9551427 C143.21915,96.6323252 142.789154,97.3109821 142.034818,97.4500551 C141.928179,97.4711864 141.928179,97.4824891 141.820557,97.4824891" id="Fill-142" fill="#000000"></path>
                <polygon id="Fill-144" fill="#FFFFFF" points="21.7344645 65.6958931 85.5439332 28.8641396 85.5439332 72.8412012 21.7344645 109.673938"></polygon>
                <path d="M21.7344645,110.932377 C21.5202035,110.932377 21.3054512,110.879303 21.0897159,110.76087 C20.6592283,110.535306 20.4439845,110.124967 20.4439845,109.673839 L20.4439845,65.6957949 C20.4439845,65.2451588 20.6592283,64.8249911 21.0897159,64.5994274 L84.8982018,27.766691 C85.2215589,27.539653 85.759177,27.539653 86.1901561,27.766691 C86.5115475,27.9932376 86.728757,28.4114396 86.728757,28.8640413 L86.728757,72.8411029 C86.728757,73.2819105 86.5115475,73.7025696 86.1901561,73.9276419 L22.3806873,110.76087 C22.1664264,110.879303 21.9506912,110.932377 21.7344645,110.932377 L21.7344645,110.932377 Z M23.0264188,66.4280169 L23.0264188,107.47963 L84.2524704,72.1088809 L84.2524704,31.0489134 L23.0264188,66.4280169 Z" id="Fill-146" fill="#000000"></path>
                <polygon id="Fill-148" fill="#F8D754" points="21.7344645 65.6958931 85.5439332 28.8641396 85.5439332 22.5262415 21.7344645 59.3594693"></polygon>
                <path d="M21.7344645,66.9665687 C21.5202035,66.9665687 21.3054512,66.9012093 21.0897159,66.7935874 C20.6592283,66.5572124 20.4439845,66.147856 20.4439845,65.6957457 L20.4439845,59.3593219 C20.4439845,58.8959088 20.6592283,58.4875353 21.0897159,58.2604973 L84.8982018,21.4287438 C85.2215589,21.2031801 85.759177,21.2031801 86.1901561,21.4287438 C86.5115475,21.6538161 86.728757,22.0744752 86.728757,22.5265855 L86.728757,28.8644836 C86.728757,29.3165939 86.5115475,29.7357787 86.1901561,29.9623253 L22.3806873,66.7935874 C22.1664264,66.9012093 21.9506912,66.9665687 21.7344645,66.9665687 L21.7344645,66.9665687 Z M23.0264188,60.0802412 L23.0264188,63.5015366 L84.2524704,28.1317701 L84.2524704,24.7109661 L23.0264188,60.0802412 Z" id="Fill-150" fill="#000000"></path>
                <path d="M37.8755877,67.6224726 L37.8755877,67.6224726 C38.4141887,67.3418694 38.8441849,67.5787359 38.8441849,68.1281481 C38.8441849,68.6977088 38.4141887,69.3763657 37.8755877,69.6564775 C37.4465744,69.9360978 37.0141211,69.7105341 37.0141211,69.1394992 C37.0141211,68.5910698 37.4465744,67.9016016 37.8755877,67.6224726" id="Fill-152" fill="#B5EBF6"></path>
                <path d="M37.5527712,71.0336938 C37.229414,71.0336938 36.9070397,70.9688258 36.6917959,70.8081301 C36.0465559,70.4842816 35.7241817,69.8822869 35.7241817,69.1397449 C35.7241817,68.1382223 36.3684388,67.0418549 37.229414,66.535688 L37.229414,66.5248766 C37.8756369,66.159257 38.6280073,66.1376344 39.1666083,66.47082 C39.7057006,66.7936857 40.0275835,67.4074745 40.0275835,68.1279024 C40.0275835,69.1397449 39.3828349,70.2488894 38.5213683,70.7530906 C38.198994,70.9472032 37.8756369,71.0336938 37.5527712,71.0336938 M37.768015,68.5377502 C37.768015,68.5800127 37.8756369,68.6237495 37.8756369,68.6566749 C37.9832588,68.6979545 37.9832588,68.7200686 38.0908807,68.7416913 C37.9832588,68.6979545 37.9832588,68.6566749 37.8756369,68.6237495 C37.8756369,68.5800127 37.768015,68.5588815 37.768015,68.5377502" id="Fill-154" fill="#000000"></path>
                <path d="M37.8755877,77.3292312 L37.8755877,77.3292312 C38.4141887,77.0486279 38.8441849,77.2741917 38.8441849,77.8452266 C38.8441849,78.3931646 38.4141887,79.0826328 37.8755877,79.3622532 C37.4465744,79.6428564 37.0141211,79.4050071 37.0141211,78.8565776 C37.0141211,78.2968455 37.4465744,77.6083601 37.8755877,77.3292312" id="Fill-156" fill="#B5EBF6"></path>
                <path d="M37.5527712,80.7502808 C37.229414,80.7502808 36.9070397,80.6642816 36.6917959,80.5124315 C36.0465559,80.1807202 35.7241817,79.5890454 35.7241817,78.8568233 C35.7241817,77.8449809 36.3684388,76.7471392 37.229414,76.2316352 C37.8756369,75.8645413 38.6280073,75.8434101 39.1666083,76.1775785 C39.7057006,76.5004442 40.0275835,77.1024389 40.0275835,77.8449809 C40.0275835,78.8450292 39.3828349,79.9531908 38.5213683,80.4490378 C38.198994,80.6529789 37.8756369,80.7502808 37.5527712,80.7502808 M37.768015,78.2430345 C37.768015,78.2857884 37.8756369,78.3290337 37.8756369,78.3609763 C37.9832588,78.3934103 37.9832588,78.4258443 38.0908807,78.4484498 C37.9832588,78.4042216 37.9832588,78.3609763 37.8756369,78.3182224 C37.8756369,78.2857884 37.768015,78.2641657 37.768015,78.2430345" id="Fill-158" fill="#000000"></path>
                <path d="M37.8755877,87.6369032 L37.8755877,87.6369032 C38.4141887,87.3563 38.8441849,87.5931665 38.8441849,88.1425788 C38.8441849,88.7023109 38.4141887,89.3903048 37.8755877,89.6709081 C37.4465744,89.9505284 37.0141211,89.7249647 37.0141211,89.1539298 C37.0141211,88.6055004 37.4465744,87.9160322 37.8755877,87.6369032" id="Fill-160" fill="#B5EBF6"></path>
                <path d="M37.5527712,91.0580021 C37.229414,91.0580021 36.9070397,90.9828142 36.6917959,90.821627 C36.0465559,90.4987613 35.7241817,89.8962752 35.7241817,89.1537332 C35.7241817,88.1423822 36.3684388,87.0445405 37.229414,86.5501677 C37.8756369,86.1737368 38.6280073,86.1619426 39.1666083,86.4852997 C39.7057006,86.8189768 40.0275835,87.4101601 40.0275835,88.1423822 C40.0275835,89.1537332 39.3828349,90.2618948 38.5213683,90.7675703 C38.198994,90.9616829 37.8756369,91.0580021 37.5527712,91.0580021 M37.768015,88.561567 C37.768015,88.5944925 37.8756369,88.6382292 37.8756369,88.6795089 C37.9832588,88.7119429 37.9832588,88.7335655 38.0908807,88.756171 C37.9832588,88.7119429 37.9832588,88.6696804 37.8756369,88.6382292 C37.8756369,88.5944925 37.768015,88.5733612 37.768015,88.561567" id="Fill-162" fill="#000000"></path>
                <path d="M43.9021195,76.1336452 C43.4711404,76.1336452 43.0406528,75.8972701 42.825409,75.4992165 C42.5035261,74.8854277 42.7177871,74.1104517 43.2558966,73.7664547 L68.2187725,59.359371 C68.8649953,59.0148826 69.6188401,59.2188237 69.9412144,59.8208184 C70.2640801,60.43559 70.1564582,61.1992633 69.5117096,61.5535801 L44.546868,75.9621381 C44.3311328,76.0687772 44.1173633,76.1336452 43.9021195,76.1336452" id="Fill-164" fill="#000000"></path>
                <path d="M43.9021195,66.4281644 C43.4711404,66.4281644 43.0406528,66.1917893 42.825409,65.7937357 C42.5035261,65.1912496 42.7177871,64.4049709 43.2558966,64.0609739 L68.2187725,49.6524159 C68.8649953,49.308419 69.6188401,49.5133429 69.9412144,50.1158289 C70.2640801,50.7291264 70.1564582,51.5026281 69.5117096,51.8480993 L44.546868,66.2556745 C44.3311328,66.3741077 44.1173633,66.4281644 43.9021195,66.4281644" id="Fill-166" fill="#000000"></path>
                <path d="M43.9021195,86.4314888 C43.4711404,86.4314888 43.0406528,86.2059251 42.825409,85.7965687 C42.5035261,85.2053854 42.7177871,84.419598 43.2558966,84.0751097 L63.4858659,72.4322871 C64.0229925,72.076496 64.8839678,72.2819113 65.2068335,72.8848888 C65.5296992,73.4976948 65.3144554,74.2731623 64.7763459,74.6166678 L44.546868,86.2599817 C44.3311328,86.378415 44.1173633,86.4314888 43.9021195,86.4314888" id="Fill-168" fill="#000000"></path>
            </g>
        </g>
    </g>
</svg>