<?xml version="1.0" encoding="UTF-8"?>
<svg width="160px" height="213.230055px" viewBox="0 0 160 213.230055" version="1.1" xmlns="http://www.w3.org/2000/svg" xmlns:xlink="http://www.w3.org/1999/xlink">
    <title>Group 91</title>
    <defs>
        <polygon id="path-1" points="0 0 118.721329 0 118.721329 73.8610743 0 73.8610743"></polygon>
        <polygon id="path-3" points="0 0 96.6214994 0 96.6214994 71.6741978 0 71.6741978"></polygon>
    </defs>
    <g id="website" stroke="none" stroke-width="1" fill="none" fill-rule="evenodd">
        <g id="Hubs" transform="translate(-885.000000, -1303.000000)">
            <g id="Group-91" transform="translate(885.000000, 1303.000000)">
                <path d="M42.5458887,166.050331 L28.5423464,158.338741 C28.242665,158.076632 28.2440231,157.905515 28.2459132,157.474101 L28.261678,154.975247 C28.2671103,154.01192 28.7732188,153.311607 29.478964,152.784675 C67.5452946,131.10621 105.71167,109.397868 143.678408,87.7492803 C144.080851,87.5908385 144.281393,87.5215768 144.682024,87.6641744 L158.585069,95.3653531 C158.185343,95.202837 158.08394,95.2616869 157.681045,95.4305406 C119.61562,117.109006 81.5492896,138.78747 43.4838644,160.466388 C42.6767164,161.022745 42.2711053,161.723511 42.1647229,162.686385 L42.1493314,165.183881 C42.2475654,165.6162 42.1461626,165.776906 42.5458887,166.050331" id="Fill-1" fill="#05B173"></path>
                <path d="M42.6838237,167.519947 C42.5833263,167.519947 42.3818788,167.490069 42.1817894,167.390477 L28.2316646,159.762182 C27.3289988,159.130678 27.2285014,158.498269 27.2285014,158.096732 L27.2285014,155.367911 C27.3289988,153.972717 27.9306251,152.969101 29.0351911,152.205864 C49.9092241,140.12309 70.7837099,128.100976 91.5572456,116.047626 L142.939934,86.4221715 C143.441515,86.1813399 143.943097,85.9214953 144.846215,86.2519597 L158.996882,93.9092273 C159.498464,94.2102668 159.799503,94.8725537 159.498464,95.4443024 C159.197877,96.0069973 158.595345,96.2777065 157.993719,96.076259 L44.2890658,161.789785 C43.8879816,162.091277 43.5864894,162.492361 43.5864894,163.094893 L43.5864894,165.492797 L43.5864894,165.52358 C43.8879816,165.924211 43.988479,166.556621 43.6874395,166.988941 C43.3868527,167.320763 43.0849078,167.519947 42.6838237,167.519947 L42.6838237,167.519947 Z M29.5367727,157.866765 L41.2786709,164.158717 L41.2786709,162.994848 C41.3791683,161.590601 41.9817,160.566161 42.9844105,159.793418 L155.584498,94.772509 L144.043594,88.5199414 L92.7614036,118.115066 C71.8873705,130.13718 51.1138348,142.15024 30.239349,154.173259 C29.8378121,154.473846 29.6363647,154.865424 29.5367727,155.467956 L29.5367727,157.866765 Z" id="Fill-3" fill="#000000"></path>
                <path d="M43.4866711,166.285911 C42.8841394,166.486906 42.3821051,166.426246 42.3821051,165.492797 L42.3821051,162.994848 C42.3821051,162.161897 42.9846368,161.158281 43.6876659,160.767156 C81.6218107,138.859177 119.556861,116.951197 157.490553,95.0436709 C158.192677,94.6412286 158.795661,94.9730511 158.795661,95.8060025 L158.795661,98.274979 C158.795661,99.0368579 158.495074,99.6000055 158.093085,100.00109 C157.490553,100.561974 155.986261,101.365953 155.484227,101.69687 L45.4943555,165.152373 C44.9914158,165.45296 43.8877553,166.1157 43.4866711,166.285911" id="Fill-5" fill="#05B173"></path>
                <g id="Group-9" transform="translate(41.278671, 93.689973)">
                    <mask id="mask-2" fill="white">
                        <use xlink:href="#path-1"></use>
                    </mask>
                    <g id="Clip-8"></g>
                    <path d="M1.70573956,73.8610743 C1.30465536,73.8610743 1.00361587,73.7605769 0.703029068,73.5591294 C0.200994788,73.228665 0,72.5958031 0,71.8026885 L0,69.3047397 C0,68.0697988 0.802621081,66.6750579 1.80623695,66.042196 L115.610482,0.349041218 C116.312606,-0.0819205808 117.11568,-0.112250875 117.718211,0.249449206 C118.319385,0.620655797 118.721374,1.28294268 118.721374,2.11589405 L118.721374,4.58532327 C118.721374,5.57852724 118.319385,6.44090353 117.617261,7.1439326 C117.11568,7.70617478 116.112516,8.27747078 115.108448,8.84061834 L114.707364,9.04070774 L4.81708456,72.4962111 C3.81346869,73.0978373 3.01039492,73.5292518 2.60931072,73.700369 C2.20777384,73.8298386 2.00677905,73.8610743 1.70573956,73.8610743 L1.70573956,73.8610743 Z M116.312606,2.64780594 L3.01039492,68.0996764 C2.60931072,68.3006712 2.30736585,68.9032029 2.30736585,69.3047397 L2.30736585,71.2313925 C2.60931072,71.0303977 3.01039492,70.799978 3.31233979,70.5985305 L3.61292659,70.4690609 L113.904743,6.78223252 C114.505916,6.48164572 115.610482,5.84878375 115.911522,5.47757716 C116.212108,5.21727985 116.312606,4.94702335 116.312606,4.58532327 L116.312606,2.64780594 Z" id="Fill-7" fill="#000000" mask="url(#mask-2)"></path>
                </g>
                <polygon id="Fill-10" fill="#05B173" points="30.7413833 152.537506 30.7413833 65.7086626 35.1573837 67.7358127 35.1573837 154.534778"></polygon>
                <path d="M35.1574289,155.738936 C34.9559815,155.738936 34.7549867,155.699552 34.6553947,155.638439 L30.2389416,153.600877 C29.8378574,153.400335 29.5368179,152.96892 29.5368179,152.537506 L29.5368179,65.7086626 C29.5368179,65.3084838 29.7382654,64.9060415 30.1388969,64.7054994 C30.4403891,64.4741743 30.9424234,64.4442967 31.2434629,64.6457442 L35.6581051,66.6421114 C36.0605474,66.8431062 36.3615869,67.2745207 36.3615869,67.7358127 L36.3615869,154.534778 C36.3615869,154.934957 36.0605474,155.337852 35.7590552,155.537489 C35.5576078,155.668317 35.3575183,155.738936 35.1574289,155.738936 L35.1574289,155.738936 Z M31.9455865,151.774722 L33.9528183,152.707718 L33.9528183,68.467814 L31.9455865,67.5357233 L31.9455865,151.774722 Z" id="Fill-12" fill="#000000"></path>
                <polygon id="Fill-14" fill="#05B173" points="35.1574289 67.735858 30.7414286 65.7082552 142.538442 1.18892811 146.85304 3.21653094"></polygon>
                <path d="M35.1574289,68.900315 C34.9559815,68.900315 34.7549867,68.8704374 34.6553947,68.8102295 L30.2389416,66.7722148 C29.8378574,66.572578 29.6364099,66.1805477 29.5368179,65.7491332 C29.5368179,65.3082122 29.7382654,64.9057699 30.1388969,64.6758029 L141.93591,0.156475829 C142.237855,-0.0449716506 142.638034,-0.0449716506 143.039571,0.116639024 L147.355074,2.15329567 C147.756611,2.32350748 148.057198,2.71508516 148.057198,3.14649965 C148.057198,3.58877872 147.858013,4.01974052 147.455571,4.221188 L35.7590552,68.7396097 C35.5576078,68.8401071 35.3575183,68.900315 35.1574289,68.900315 L35.1574289,68.900315 Z M33.3502866,65.5793741 L35.0555735,66.4118728 L144.345132,3.31761684 L142.538442,2.52495496 L33.3502866,65.5793741 Z" id="Fill-16" fill="#000000"></path>
                <polygon id="Fill-18" fill="#05B173" points="146.852994 3.21648567 146.852994 90.0453289 35.1573837 154.534778 35.1573837 67.7358127"></polygon>
                <path d="M35.1574289,155.738936 C34.9559815,155.738936 34.7549867,155.668317 34.5548973,155.567819 C34.152455,155.36773 33.9528183,154.965287 33.9528183,154.534778 L33.9528183,67.7358127 C33.9528183,67.3043983 34.152455,66.9123679 34.5548973,66.7127312 L146.251413,2.18344489 C146.652045,1.9824501 147.054487,1.9824501 147.455571,2.18344489 C147.858013,2.38489237 148.057198,2.78461849 148.057198,3.21648567 L148.057198,90.0453289 C148.057198,90.4477711 147.858013,90.84795 147.455571,91.0493974 L35.7590552,155.567819 C35.5576078,155.668317 35.3575183,155.738936 35.1574289,155.738936 L35.1574289,155.738936 Z M36.3615869,68.4089642 L36.3615869,152.507628 L145.648882,89.3432052 L145.648882,5.24363582 L36.3615869,68.4089642 Z" id="Fill-20" fill="#000000"></path>
                <polygon id="Fill-22" fill="#F4D9DC" points="142.136317 11.3354981 39.7729302 70.4361144 39.7729302 146.415313 142.136317 87.3160551"></polygon>
                <path d="M39.7727491,147.609965 C39.5726597,147.609965 39.3721176,147.539345 39.1711228,147.449259 C38.869178,147.248265 38.5681385,146.847633 38.5681385,146.415313 L38.5681385,70.4361144 C38.5681385,70.0037945 38.869178,69.6330406 39.1711228,69.4012628 L141.635007,10.3124165 C141.936046,10.1114218 142.33713,10.1114218 142.738667,10.3124165 C143.141109,10.512506 143.340293,10.9040836 143.340293,11.3354981 L143.340293,87.3160551 C143.340293,87.7470169 143.141109,88.1490064 142.738667,88.3490958 L40.3752808,147.449259 C40.1751914,147.539345 39.9737439,147.609965 39.7727491,147.609965 L39.7727491,147.609965 Z M40.9769071,71.1083604 L40.9769071,144.378657 L141.03338,86.6533155 L141.03338,13.3735129 L40.9769071,71.1083604 Z" id="Fill-24" fill="#000000"></path>
                <path d="M142.589777,93.6229003 C142.087743,93.3915752 141.686206,93.220458 141.18553,93.4517831 L125.128581,102.715198 C125.529213,102.514204 125.930297,102.573959 126.332739,102.745076 C127.636489,103.377485 128.840647,105.434513 128.539608,106.869091 C128.440016,107.200008 128.338613,107.5015 128.038026,107.671712 L143.995383,98.4490387 C144.596556,98.0773794 144.596556,97.2448807 144.596556,96.6532136 C144.396467,95.5187701 143.593393,94.2553096 142.589777,93.6527779 L142.589777,93.6229003 Z" id="Fill-26" fill="#F4D9DC"></path>
                <path d="M128.037845,108.866408 C127.636761,108.866408 127.234771,108.666319 127.034682,108.304619 C126.633598,107.772707 126.833687,107.040253 127.335721,106.708883 C127.537169,105.774982 126.73319,104.239454 125.830524,103.838823 C125.227992,104.109984 124.425824,103.838823 124.123879,103.276128 C123.923337,102.745121 124.023834,102.012215 124.525868,101.681297 L140.582817,92.4273887 C141.185349,92.1268019 142.088014,91.9864677 143.09163,92.588094 C143.09163,92.588094 143.191222,92.588094 143.191222,92.6288362 C144.497236,93.3916205 145.399449,94.917189 145.700941,96.4518114 C145.902389,97.486663 145.700941,98.7795484 144.596828,99.4526998 L128.639471,108.705703 C128.440287,108.806201 128.239292,108.866408 128.037845,108.866408 L128.037845,108.866408 Z M127.937348,102.443629 C128.740874,103.206413 129.3425,104.310979 129.643993,105.373898 L143.39267,97.4151378 L143.39267,96.853801 C143.191222,95.9810128 142.690546,95.0570706 141.987064,94.6555337 L142.589596,93.6229456 L141.987064,94.6555337 C141.786975,94.526064 141.686478,94.526064 141.686478,94.526064 L127.937348,102.443629 Z" id="Fill-28" fill="#000000"></path>
                <path d="M127.937212,104.380694 C127.636625,103.738325 127.134591,103.176536 126.531606,102.874591 C125.930433,102.544126 125.429304,102.514249 125.128717,102.714791 C124.726275,102.945211 124.526185,103.37753 124.526185,104.04027 C124.526185,104.670869 124.726275,105.405133 125.128717,106.036637 C125.429304,106.678553 125.930433,107.240795 126.531606,107.572165 C127.134591,107.873204 127.636625,107.902629 127.937212,107.702993 C128.338749,107.471668 128.539743,107.040253 128.539743,106.368007 C128.539743,105.745104 128.338749,105.013103 127.937212,104.380694" id="Fill-30" fill="#F4D9DC"></path>
                <path d="M127.435313,109.006652 C126.934637,109.006652 126.43215,108.866318 125.930116,108.575238 C125.227992,108.173701 124.525868,107.471577 124.023834,106.639078 C123.62275,105.775344 123.32171,104.872226 123.32171,104.04018 C123.32171,102.97545 123.723247,102.142499 124.525868,101.710179 C125.227992,101.278765 126.231155,101.31 127.134274,101.841912 C127.837756,102.242996 128.539879,102.945573 129.041461,103.778071 L129.041461,103.808402 C129.44345,104.641806 129.744037,105.574349 129.744037,106.368369 C129.744037,107.440341 129.3425,108.274651 128.539879,108.705613 C128.239292,108.90706 127.837756,109.006652 127.435313,109.006652 M125.629529,103.778071 C125.730479,103.808402 125.629529,103.908446 125.629529,104.04018 C125.629529,104.440358 125.830524,104.97227 126.131563,105.434468 C126.43215,105.936049 126.73319,106.338039 127.134274,106.537676 C127.234771,106.609201 127.335721,106.639078 127.335721,106.639078 L127.335721,106.368369 C127.335721,105.976339 127.234771,105.434468 126.934637,104.97227 C126.633598,104.470689 126.332558,104.109894 125.930116,103.878569 C125.830524,103.808402 125.730479,103.778071 125.629529,103.778071" id="Fill-32" fill="#000000"></path>
                <polygon id="Fill-34" fill="#05B173" points="122.280204 108.348802 113.348612 103.180429 97.4917525 112.302604 106.524295 117.47143"></polygon>
                <path d="M106.52425,118.664814 C106.222758,118.664814 106.023574,118.595099 105.921718,118.494602 L96.890081,113.336188 C96.5894942,113.105316 96.2875493,112.704232 96.2875493,112.302695 C96.2875493,111.871281 96.5894942,111.470196 96.890081,111.268749 L112.746035,102.146573 C113.148477,101.95599 113.549561,101.95599 113.950193,102.146573 L122.882691,107.314946 C123.18373,107.545818 123.485222,107.907066 123.485222,108.348892 C123.485222,108.779854 123.18373,109.142007 122.882691,109.371974 L107.026284,118.494602 C106.925334,118.595099 106.725698,118.664814 106.52425,118.664814 L106.52425,118.664814 Z M99.9009286,112.302695 L106.52425,116.095793 L119.972793,108.348892 L113.348566,104.545383 L99.9009286,112.302695 Z" id="Fill-36" fill="#000000"></path>
                <polygon id="Fill-38" fill="#000000" points="106.52425 117.471294 97.4917073 112.302469 97.4917073 119.326874 106.52425 124.4957"></polygon>
                <path d="M106.52425,125.660293 C106.222758,125.660293 106.023574,125.61955 105.921718,125.519958 L96.890081,120.331215 C96.5894942,120.131125 96.2875493,119.728683 96.2875493,119.327146 L96.2875493,112.30274 C96.2875493,111.871326 96.5894942,111.470242 96.890081,111.268794 C97.2920706,111.078211 97.6931547,111.078211 98.0942389,111.268794 L107.026284,116.467044 C107.427821,116.668492 107.627458,117.068671 107.627458,117.471113 L107.627458,124.495971 C107.627458,124.928291 107.427821,125.288633 107.026284,125.519958 C106.925334,125.61955 106.725698,125.660293 106.52425,125.660293 L106.52425,125.660293 Z M98.6967706,118.634981 L105.320092,122.458862 L105.320092,118.162372 L98.6967706,114.339397 L98.6967706,118.634981 Z" id="Fill-40" fill="#000000"></path>
                <polygon id="Fill-42" fill="#05B173" points="122.280204 115.373298 122.280204 108.348892 106.524295 117.471068 106.524295 124.495926"></polygon>
                <path d="M106.52425,125.660293 C106.222758,125.660293 106.023574,125.61955 105.921718,125.519958 C105.52154,125.288633 105.320092,124.928291 105.320092,124.495971 L105.320092,117.471113 C105.320092,117.068671 105.52154,116.668492 105.921718,116.467044 L121.677627,107.314991 C122.08007,107.114902 122.480701,107.114902 122.882691,107.314991 C123.18373,107.545864 123.485222,107.907111 123.485222,108.348937 L123.485222,115.373343 C123.485222,115.775785 123.18373,116.166458 122.882691,116.366547 L107.026284,125.519958 C106.925334,125.61955 106.725698,125.660293 106.52425,125.660293 L106.52425,125.660293 Z M107.627458,118.162372 L107.627458,122.458862 L121.075096,114.671219 L121.075096,110.376088 L107.627458,118.162372 Z" id="Fill-44" fill="#000000"></path>
                <path d="M91.2797008,48.3093043 C77.1322027,56.470417 65.6569395,76.3340439 65.6510515,92.6739242 C65.6442641,109.014257 77.1091155,115.645275 91.2566135,107.484162 C105.405017,99.3230491 116.879828,79.4594223 116.88662,63.1195419 C116.892503,46.7792088 105.427651,40.1481916 91.2797008,48.3093043" id="Fill-46" fill="#F4D9DC"></path>
                <path d="M72.1356715,66.8286201 C76.8699136,58.635819 83.4294057,51.4710791 90.6896634,47.283235 C94.9852479,44.8052046 99.0744054,43.6313769 102.716304,43.6322818 C105.410268,43.6340931 107.862948,44.2732927 109.9829,45.4978218 C112.09923,46.7214455 113.878758,48.5290405 115.225061,50.8635678 C117.047142,54.0233507 118.071129,58.1550612 118.069321,63.119723 C118.067508,71.503107 115.135881,80.7674276 110.401639,88.9620394 C105.667397,97.158462 99.1060938,104.322749 91.8467415,108.511046 C87.552515,110.989529 83.4651683,112.162451 79.8219114,112.161094 C77.1284001,112.161094 74.6743624,111.520083 72.5548633,110.295554 C70.4376277,109.072383 68.6576468,107.263882 67.3113439,104.93026 C65.4897154,101.770478 64.4643704,97.6378617 64.4661788,92.6750107 C64.4702554,84.2907213 67.400524,75.0254954 72.1356715,66.8286201 M91.8698287,49.3357358 C84.9834938,53.3076463 78.7300208,60.157766 74.1890777,68.0178392 C69.6494927,75.8774598 66.8378291,84.718967 66.8346596,92.6750107 C66.8337549,97.2091634 67.7450218,100.9416 69.3647501,103.750095 C70.4955721,105.710247 71.9822092,107.224951 73.7431771,108.243506 C75.5045976,109.259797 77.5575512,109.792614 79.8219114,109.792614 C83.0609152,109.792614 86.7426508,108.720189 90.6665761,106.458093 C97.5529111,102.484824 103.807742,95.6356096 108.348233,87.7737256 C112.88827,79.9150105 115.699481,71.0735032 115.70084,63.119723 C115.701745,58.5842122 114.790478,54.8522279 113.171655,52.0437331 C112.039927,50.0822232 110.555554,48.5684246 108.793228,47.551228 C107.031807,46.5335787 104.98157,46.0016668 102.716304,46.0016668 C99.4786585,46.0016668 95.793754,47.072281 91.8698287,49.3357358" id="Fill-48" fill="#000000"></path>
                <path d="M111.939339,83.4358597 C115.045705,76.7487088 116.88363,69.6527779 116.886799,63.1195419 L116.886799,63.1068666 L91.2681119,77.8967331 L111.939339,83.4358597 Z" id="Fill-50" fill="#000000"></path>
                <path d="M116.773355,73.3163606 C115.90962,76.869532 114.636653,80.439453 113.035033,83.8903162 C112.811856,84.43264 112.213851,84.738659 111.631691,84.5838387 L90.9627266,79.0447121 C90.6698355,78.9645858 90.4063694,78.7740029 90.2420425,78.4915237 C89.9142943,77.92566 90.1089514,77.1986383 90.6743624,76.8704374 L116.219714,62.1204077 C116.409844,61.9918434 116.638905,61.9162441 116.884717,61.9162441 C117.541571,61.9162441 118.073936,62.449514 118.073936,63.1059159 L118.073936,63.1194966 C118.068051,66.4264041 117.612644,69.8654974 116.773355,73.3163606 L116.773355,73.3163606 Z M111.27497,82.0283982 C112.632138,78.9772611 113.716785,75.8541462 114.46961,72.7581927 C115.090702,70.2041102 115.490881,67.6640612 115.638006,65.1959901 L94.3438754,77.4915294 L111.27497,82.0283982 Z" id="Fill-52" fill="#000000"></path>
                <path d="M91.2797008,48.3093043 L91.2679308,48.3160947 L91.2679308,77.8967331 L116.886618,63.1068666 C116.886618,46.7751346 105.423577,40.1513604 91.2797008,48.3093043" id="Fill-54" fill="#F8D754"></path>
                <path d="M92.4578743,49.0046829 L92.4578743,75.840656 L115.694049,62.4242539 C115.605774,58.2024579 114.708541,54.7081364 113.171655,52.0445027 C112.039927,50.0820874 110.554196,48.5687415 108.791417,47.5510922 C107.030449,46.5338956 104.977948,46.0019837 102.710872,46.0019837 C99.6303099,46.0065106 96.1545487,46.9730058 92.4578743,49.0046829 M90.5728691,47.3546243 L90.6896634,47.2830992 C94.9879641,44.803258 99.0744054,43.6280723 102.710872,43.6280723 C105.405289,43.6339573 107.860232,44.2722515 109.981089,45.497686 C112.09923,46.7213097 113.877853,48.5279993 115.225061,50.8643374 C117.036278,54.0046546 118.060717,58.1096563 118.069318,63.036292 C118.094669,63.4695173 117.880093,63.9000264 117.479462,64.1322569 L91.9336581,78.8822866 C91.7439806,79.0108508 91.5158244,79.0864502 91.2691078,79.0864502 C90.6127059,79.0864502 90.0798886,78.5536329 90.0798886,77.8967783 L90.0798886,48.3170453 C90.0812467,47.9499129 90.2514585,47.5868548 90.5728691,47.3546243" id="Fill-56" fill="#000000"></path>
                <path d="M95.2744269,171.633414 L95.2744269,158.258207 C95.2744269,147.567457 82.0938768,143.684274 72.9789442,142.896139 C72.2025792,144.473314 71.4262142,146.060449 70.6036747,147.567457 C77.7530231,160.40532 71.6312832,187.886378 63.7503862,199.50107 C81.6140244,189.175642 95.2635623,175.550096 95.2744269,171.633414 M26.6881242,155.346046 L26.2535409,154.889733 C26.3907063,155.037763 26.5387362,155.197563 26.6881242,155.346046 M42.415061,174.556892 L42.415061,174.556892 C46.7092875,184.425555 44.6318887,195.138034 54.3968855,204.378362 C38.3385789,211.837351 20.4169963,215.376942 6.25455945,207.211302 C1.87930127,204.687098 1.37817237,203.625085 1.37817237,199.604283 C1.37817237,195.606117 1.27450614,191.472596 1.42344147,187.487104 C2.17717193,180.519285 5.74120789,175.801792 10.2518207,170.708566 C15.3002303,165.214256 21.6279446,160.771094 26.2073664,154.854876 L26.2200418,154.854876 C31.3024032,160.611294 39.5599391,167.989704 42.415061,174.556892" id="Fill-58" fill="#000000"></path>
                <g id="Group-62" transform="translate(0.000000, 141.555857)">
                    <mask id="mask-4" fill="white">
                        <use xlink:href="#path-3"></use>
                    </mask>
                    <g id="Clip-61"></g>
                    <path d="M24.8038886,71.6741978 C18.2136135,71.6741978 11.6337504,70.3152195 5.59213676,66.8208979 C0.96699317,64.1486632 0.0299228728,62.6747014 0.0299228728,58.0486524 L0.0181529077,54.4963864 C-0.00402894959,51.6181773 -0.0271161888,48.7060163 0.0869619343,45.8739816 C0.897278761,38.2207882 4.88412809,33.1836958 9.24671092,28.2724515 C11.4282287,25.8854121 13.850578,23.7038943 16.179673,21.5916382 C19.3208956,18.7473809 22.5639737,15.8121327 25.146123,12.476253 C25.3964611,12.1566532 25.7631408,11.9742187 26.1741842,11.9511315 C26.5168712,11.8945451 26.9392319,12.0996141 27.202698,12.3848094 L27.2131099,12.3965794 L27.6590105,12.8528919 C27.7278196,12.9343762 27.7844059,13.0135972 27.8409923,13.0928181 C28.9944489,14.3725754 30.2855235,15.7324591 31.6223199,17.1253892 C36.2239236,21.9338726 41.4321331,27.3820084 43.6480554,32.4643698 C45.2125554,36.0619049 45.9554213,39.7522417 46.6865172,43.3262369 C48.0233136,49.9169646 49.2799837,56.14056 55.3098274,61.8517092 C55.6416498,62.1495799 55.7896798,62.5941224 55.7213234,63.0391176 C55.6525144,63.4737009 55.3682245,63.8507925 54.9562757,64.0449969 C46.4470436,67.9969891 35.6195811,71.6741978 24.8038886,71.6741978 L24.8038886,71.6741978 Z M26.2755869,15.3671375 C23.7522875,18.3594248 20.8288093,21.0094777 17.9845519,23.5780462 C15.6998206,25.6572558 13.3245511,27.7930518 11.2453415,30.0660131 C7.19058855,34.6228004 3.4907453,39.2945711 2.7591967,46.0677333 C2.66820582,48.7734672 2.67997578,51.6412645 2.70215764,54.4846164 L2.71347491,58.0486524 C2.71347491,61.4180313 2.839323,62.1251346 6.92893318,64.4908975 C21.2620345,72.7706153 39.0799509,68.145019 52.0780666,62.4008233 C46.6181608,56.4836997 45.3162216,50.0763118 44.0477815,43.863581 C43.317591,40.2646879 42.6326696,36.8613572 41.1808897,33.5381528 C39.1591718,28.9012393 34.1234375,23.6350853 29.6920457,18.9882125 C28.4915092,17.730637 27.3280934,16.5205941 26.2755869,15.3671375 L26.2755869,15.3671375 Z M63.7502504,59.2935526 C63.3858342,59.2935526 63.0191545,59.1328473 62.7570464,58.8594219 C62.3346857,58.4026567 62.288964,57.706418 62.6420629,57.1930665 C70.2160354,46.0328761 76.2685136,18.9529026 69.4274478,6.66370099 C69.2101561,6.26306949 69.2101561,5.7714471 69.4274478,5.3604037 C70.2382173,3.87603003 71.015035,2.31107736 71.77963,0.757894664 C72.0195562,0.255860384 72.5682177,-0.0411048886 73.0933392,0.00461689886 C84.4699159,0.986956293 96.6214994,5.88643061 96.6214994,16.7025758 L96.6097295,30.0777831 C96.6097295,34.8056875 82.2417709,48.8083244 64.4138953,59.1106654 C64.2070156,59.2247435 63.9788593,59.2935526 63.7502504,59.2935526 L63.7502504,59.2935526 Z M72.1223171,6.01137331 C78.2906842,18.1869495 73.9606951,41.0410529 67.4971735,54.1075249 C83.0068187,44.2968063 93.9261837,32.8645487 93.9261837,30.0660131 L93.9261837,16.7025758 C93.9374947,5.87511333 78.7008222,3.31695669 73.7782606,2.77915982 C73.2305046,3.86426007 72.6822958,4.96113027 72.1223171,6.01137331 L72.1223171,6.01137331 Z" id="Fill-60" fill="#000000" mask="url(#mask-4)"></path>
                </g>
                <path d="M26.2072759,154.854831 C26.9048727,153.963482 28.9256851,151.897401 29.475252,150.96033 C30.5712168,149.10973 30.525495,148.401721 30.7536512,146.231521 C40.0618829,157.001944 61.9340995,163.318341 70.3414761,148.04817 C72.7158402,153.712692 65.9440361,164.64382 57.2510115,167.886446 C50.8671635,170.274391 41.1248012,168.800429 36.1904697,164.300228 L27.8410376,156.693662 L26.2072759,154.854831 Z" id="Fill-63" fill="#F4D9DC"></path>
                <path d="M50.3989,170.353611 C44.767877,170.353611 38.8172543,168.515233 35.2876229,165.294337 L26.9395488,157.675096 L25.2138908,155.745727 C24.7797602,155.254557 24.7575783,154.534778 25.1568518,154.021427 C25.4198652,153.67874 25.8888531,153.152713 26.3908873,152.592734 C27.087126,151.816369 28.0350609,150.743492 28.3211616,150.275409 C29.142343,148.881121 29.1889702,148.390404 29.3496755,146.757095 L29.4180318,146.095261 C29.4750709,145.557464 29.8399398,145.111563 30.3428795,144.952216 C30.856231,144.780646 31.4153043,144.952216 31.7593495,145.352395 C37.7095195,152.227865 48.1490259,156.556044 56.5441798,155.676918 C62.1516628,155.084345 66.5146983,152.227865 69.1638458,147.3972 C69.415542,146.940435 69.9406635,146.699603 70.4096514,146.699603 C70.9239083,146.734008 71.3806735,147.04229 71.5861952,147.522143 C72.5567646,149.852143 72.2942039,152.969826 70.8428766,156.317023 C68.3997035,161.981997 63.1226849,167.133168 57.7202709,169.154433 C55.5161186,169.977425 52.9914611,170.353611 50.3989,170.353611 M27.9897918,154.832649 L28.8467358,155.802766 L37.0925017,163.307024 C41.5238936,167.349554 50.7293644,168.902737 56.7827479,166.630228 C61.5455096,164.860207 66.2059631,160.280785 68.3879335,155.242787 C68.913055,154.031839 69.2448775,152.878835 69.3929075,151.829044 C66.296954,155.574609 62.0144974,157.800944 56.8176052,158.35051 C48.4686257,159.217866 38.3491719,155.448761 31.713175,149.178992 C31.5307405,149.908729 31.2215526,150.640278 30.6280748,151.646157 C30.2170314,152.341491 29.2921837,153.380869 28.3904233,154.374978 C28.2528053,154.534778 28.1156399,154.682808 27.9897918,154.832649" id="Fill-65" fill="#000000"></path>
                <path d="M65.1896266,155.346136 C68.6957181,151.954576 71.5748326,145.787114 74.3158764,140.166503 C78.0614415,132.491128 77.8672371,123.731557 77.9138642,116.672295 L76.6341069,112.480829 C76.176889,110.744759 76.1438426,108.905928 76.0972154,107.146771 C76.0623582,104.862945 76.0179945,102.738014 74.8305861,101.664684 C72.9451282,99.9286138 69.9528409,102.567349 66.4354321,105.685485 C64.0474873,107.798646 61.4436089,110.082019 58.6215334,111.727098 C54.9447774,113.84026 47.3377584,115.09693 44.7003808,117.312852 C42.0607398,119.538734 42.176176,121.343613 42.2205397,124.518787 C42.2667142,127.522844 42.4265141,130.48118 40.586778,136.87725 C40.3133527,134.946976 39.8230884,132.937028 38.9426044,131.200958 C38.2803176,129.899472 37.3323827,128.631484 36.0535307,127.900389 C35.1400003,127.374814 34.1001692,127.145753 33.0616961,127.306005 C32.021865,127.477575 31.0847947,128.014014 30.3428342,128.745563 C29.314773,129.784941 28.6742153,131.177871 28.4125599,132.605206 C28.1726337,133.999947 28.25276,135.461233 28.5610425,136.831981 C29.0513069,138.967325 30.2518433,141.44626 31.2332773,143.272868 C31.5537825,143.867252 31.141381,145.477021 30.8561857,146.357505 C37.5723089,153.975388 47.3377584,159.195368 55.1163472,159.184069 C58.5771697,159.184069 62.6541045,157.767128 65.1896266,155.346136" id="Fill-67" fill="#F4D9DC"></path>
                <path d="M55.0818069,160.519715 C47.0071582,160.519715 36.8646171,155.185657 29.8397587,147.248174 C29.5310235,146.89417 29.4287153,146.39123 29.5767453,145.945329 C29.9434249,144.82673 30.0448277,144.004191 29.9877887,143.776034 C28.6070812,141.229648 27.6704636,138.944916 27.2594202,137.12872 C26.8823286,135.506728 26.8252896,133.862555 27.0987149,132.366411 C27.429632,130.550215 28.217767,128.973492 29.3938581,127.796496 C30.3884202,126.815062 31.5758286,126.18718 32.843816,125.981205 C34.1806124,125.787001 35.5160507,126.038244 36.7269991,126.734483 C38.0755654,127.512206 39.2512039,128.84855 40.1430051,130.584167 C40.2679478,130.83541 40.3820259,131.087107 40.496104,131.360532 C40.9537746,128.666115 40.9189174,126.815062 40.8845129,125.011088 L40.8731956,124.542101 C40.8279265,121.103913 40.7939747,118.854039 43.8310784,116.283659 C45.4770627,114.902499 48.4684446,113.966334 51.6214372,112.960455 C53.9736194,112.218494 56.4186033,111.452541 57.9486988,110.561646 C60.667108,108.984923 63.2601219,106.702002 65.5439478,104.680285 C69.3578692,101.299136 72.9789442,98.1239613 75.7435279,100.670801 C77.3537497,102.132992 77.3994715,104.554889 77.445646,107.124816 C77.4795978,108.837346 77.502685,110.561646 77.9359103,112.137915 L79.2038977,116.283659 C79.2378495,116.409055 79.2618421,116.546673 79.2618421,116.684744 L79.2491668,117.940056 C79.2156676,124.770257 79.1808104,133.256402 75.5153717,140.761565 L74.9667102,141.880165 C72.3166573,147.34007 69.5756135,152.981505 66.1152438,156.304709 C63.4538736,158.863772 59.1361072,160.519715 55.1166641,160.519715 L55.0818069,160.519715 Z M32.3526463,146.014138 C38.8637004,153.120029 47.9093713,157.83571 55.0818069,157.83571 L55.1039888,157.83571 C58.4271931,157.83571 62.0948953,156.443233 64.2533259,154.375341 C67.3714612,151.372189 69.9984269,145.957099 72.5565835,140.714938 L73.1047923,139.583211 C76.4968057,132.628519 76.5316629,124.816884 76.5656147,117.929644 L76.576932,116.877137 L75.3428964,112.880781 C74.8304503,110.938737 74.7955931,109.04332 74.7616412,107.193172 C74.726784,105.297302 74.6919268,103.343941 73.9386491,102.658114 C72.9223578,101.721949 69.9404825,104.370644 67.3252868,106.690232 C64.9391527,108.791624 62.2429253,111.178663 59.2854952,112.880781 C57.5027982,113.919707 54.922007,114.731382 52.431754,115.519517 C49.667623,116.398643 46.8011838,117.300856 45.5680536,118.340687 C43.5001613,120.088074 43.5114785,121.286347 43.5572003,124.188096 L43.5689703,124.964461 C43.6142394,127.934114 43.6721838,130.994758 41.8781695,137.243704 C41.7079577,137.848499 41.1131218,138.247772 40.496104,138.212915 C39.8682217,138.168551 39.3421948,137.687794 39.2629738,137.060364 C38.9651032,134.97029 38.4522043,133.199363 37.7441957,131.806433 C37.2869778,130.914631 36.5101601,129.716358 35.3906553,129.065389 C34.7057339,128.666115 33.9510981,128.528497 33.2666293,128.642123 C32.5703906,128.745336 31.8610239,129.122881 31.2915386,129.694176 C30.5138156,130.469636 29.9656068,131.590046 29.7374506,132.845358 C29.5310235,133.975728 29.5885152,135.255485 29.8746159,136.53479 C30.2390321,138.111512 31.0846589,140.166277 32.4105907,142.64476 C32.5586207,142.920448 32.9800759,143.696813 32.3526463,146.014138 L32.3526463,146.014138 Z" id="Fill-69" fill="#000000"></path>
                <path d="M22.2900051,97.5987945 C16.0772743,108.963148 19.9835447,140.086105 30.6964764,146.837085 C30.9142207,146.265789 31.6222294,144.004145 31.2333679,143.273049 C30.2519338,141.446441 29.0513974,138.967053 28.5611331,136.832162 C26.2315854,126.575996 38.4524307,121.76706 40.5868686,136.877431 C42.4266046,130.481361 42.2668047,127.523025 42.2206303,124.518968 C42.1762665,121.343794 42.0608303,119.538915 44.7004714,117.312581 C46.3890087,115.895658 48.4799882,115.325267 50.7864487,114.707797 L50.7982187,114.707797 C53.1861635,114.056827 55.7895892,113.348819 58.6216239,111.72728 C61.4436994,110.082201 64.0475778,107.798375 66.4355227,105.685213 C69.9529315,102.567078 72.9452187,99.9287949 74.8302239,101.664865 C76.018085,102.738195 76.0624487,104.863126 76.0973059,107.146952 C76.1434804,108.906109 76.1769795,110.744487 76.6341974,112.480557 L77.9139548,116.672023 C78.2792764,111.143761 78.153881,104.737731 77.3883806,99.4828943 C75.9026488,89.3294887 71.3576315,88.9406271 58.8393683,82.3154948 C56.8294204,81.2543872 54.2472711,79.5070001 50.3649934,79.3920166 C40.930461,79.0959567 26.939594,90.0827664 22.2900051,97.5987945" id="Fill-71" fill="#000000"></path>
                <path d="M30.6966574,148.172931 C30.4463193,148.172931 30.1946232,148.104122 29.9768788,147.967862 C18.7261503,140.862877 14.5926291,108.883882 21.1140951,96.9473269 C21.1249597,96.9364624 21.136277,96.9142805 21.136277,96.8898352 C25.9800703,89.0886118 40.3702107,77.5649106 50.3986736,78.044763 C54.0767877,78.1601992 56.7141653,79.6214856 58.6344803,80.6717287 L59.466979,81.1289466 C61.5348714,82.2249114 63.3967893,83.1502117 65.0522801,83.9840685 C73.5157904,88.199074 77.3767917,90.1284429 78.7126827,99.2886446 C79.4437786,104.313967 79.649753,110.687403 79.2617968,116.752557 C79.2156224,117.404432 78.7126827,117.929553 78.0730304,118.009227 C77.4216081,118.065813 76.8285829,117.688722 76.6339258,117.072609 L75.3428512,112.880691 C74.830405,110.938647 74.7955478,109.04323 74.761596,107.193082 C74.7267388,105.297664 74.6918816,103.34385 73.9386038,102.658023 C72.9223126,101.721859 69.9404372,104.371006 67.3252415,106.690142 C64.9391074,108.791533 62.24288,111.178573 59.2854499,112.880691 C56.3148918,114.605443 53.573848,115.347404 51.1533095,115.999279 C48.9373872,116.593209 47.0292948,117.106561 45.5680083,118.340597 C43.500116,120.088436 43.5114333,121.286709 43.5571551,124.188006 L43.568925,124.964823 C43.6141941,127.934023 43.6721386,130.994667 41.8781243,137.243613 C41.7079125,137.848408 41.1130765,138.247682 40.4960588,138.212825 C39.8681764,138.168461 39.3421495,137.687703 39.2629286,137.060273 C38.6341408,132.628429 37.0121491,129.613054 34.831084,128.802285 C33.6998093,128.379924 32.4897664,128.642032 31.4965624,129.499882 C30.1946232,130.641115 29.0864357,133.086099 29.8745707,136.534699 C30.2389869,138.111422 31.0846136,140.166639 32.4105454,142.644669 C33.140736,144.01587 32.147532,146.768684 31.942463,147.305123 C31.8043922,147.693079 31.4965624,147.978274 31.1077008,148.104122 C30.9714409,148.150297 30.8329174,148.172931 30.6966574,148.172931 M23.4554128,98.2732588 C17.8366125,108.632186 20.9420725,136.340495 29.9316097,144.552761 C29.9877434,144.210527 30.0226006,143.923974 30.0004187,143.775944 C28.6070359,141.229557 27.6704183,138.944826 27.2593749,137.129082 C26.3793437,133.280304 27.328184,129.590872 29.7256353,127.489028 C31.4499352,125.969797 33.7124847,125.523897 35.7677016,126.27808 C37.0587763,126.769702 39.0578596,128.037237 40.4960588,131.349124 C40.9537293,128.654708 40.9188721,126.814971 40.8849203,125.010998 L40.8731503,124.54201 C40.8278812,121.103822 40.7939294,118.854401 43.8310331,116.283569 C45.7622128,114.661577 48.0351741,114.056782 50.4443954,113.406265 C52.8196649,112.765707 55.2646488,112.10342 57.9486535,110.562008 C60.6670628,108.985285 63.2600766,106.701912 65.5439025,104.680194 C69.3578239,101.299045 72.9788989,98.1238708 75.7434827,100.67071 C75.9376871,100.853597 76.1088043,101.047802 76.2686042,101.252871 C76.2007005,100.716885 76.1318915,100.180446 76.0626298,99.6775062 C74.9209432,91.89937 72.1341776,90.5055345 63.8540072,86.3828779 C62.174071,85.5490211 60.3008358,84.6128562 58.2103089,83.5042161 L57.3320884,83.0248163 C55.560256,82.0420242 53.3447864,80.8197586 50.3303173,80.7283151 L49.9763129,80.7283151 C41.0220857,80.7283151 27.8066783,91.2601704 23.4554128,98.2732588" id="Fill-73" fill="#000000"></path>
                <path d="M58.3944183,165.294382 C42.8494633,163.88923 34.3166913,163.512138 26.2071853,154.854876 C31.2918103,160.599977 39.5484408,167.989704 42.41488,174.556892 C46.7091064,184.426008 44.6317076,195.138034 54.3971571,204.378362 L63.7506578,199.50107 C71.0149897,189.119508 78.2222826,161.262264 70.6034936,147.567457 L70.3418383,148.048215 C71.1182033,155.403085 65.1897624,158.909176 59.4795186,164.666047 L58.3944183,165.294382 Z" id="Fill-75" fill="#F4D74B"></path>
                <path d="M54.3970213,205.726793 C54.0538815,205.726793 53.7220591,205.600945 53.4708156,205.349701 C46.8244068,199.067709 45.4197068,192.123429 44.0476005,185.419529 C43.3174099,181.820636 42.6324885,178.416852 41.1807086,175.093648 C39.1594434,170.44587 34.1232564,165.180621 29.6800946,160.531485 C28.0807374,158.85336 26.527102,157.24178 25.2138456,155.745636 C24.7235812,155.185657 24.7575331,154.351801 25.3175118,153.861536 C25.8426333,153.358597 26.6995773,153.404318 27.1898416,153.930345 C34.5800216,161.832972 42.3463878,162.518798 56.440921,163.763246 L58.0850946,163.911728 L58.6563906,163.580359 C59.7414908,162.496617 60.838361,161.478967 61.8895095,160.50885 C66.1710606,156.555953 69.5639794,153.427406 69.0040007,148.185244 C68.9818188,147.922231 69.0388579,147.647447 69.1638006,147.408879 L69.4277194,146.916352 C69.6558756,146.494444 70.1008709,146.220113 70.5915879,146.220113 L70.6038105,146.220113 C71.0945275,146.220113 71.5399754,146.482221 71.7799017,146.916352 C80.0034857,161.707576 71.8487107,190.261964 64.8473922,200.266887 C64.7215441,200.449774 64.5504269,200.597804 64.3675398,200.688795 L55.0131337,205.566088 C54.8189293,205.669301 54.6020903,205.726793 54.3970213,205.726793 M35.6420346,162.941612 C38.9543744,166.584869 42.0607398,170.399243 43.6478743,174.019865 C45.212827,177.606536 45.9556929,181.30819 46.6867888,184.882185 C47.9665461,191.221216 49.1888117,197.217561 54.6360421,202.734053 L62.824769,198.462461 C68.9130098,189.519098 75.3208504,166.846977 71.2660974,152.718492 C70.078689,156.613445 66.9605536,159.480789 63.7165702,162.483941 C62.6423345,163.466733 61.5345997,164.494794 60.4377295,165.602077 C60.3471913,165.693973 60.2562005,165.762329 60.1525342,165.819821 L59.0561167,166.459021 C58.8161905,166.584869 58.5201306,166.653225 58.2684344,166.630138 L56.2136701,166.447251 C47.7035327,165.693973 41.2051539,165.111812 35.6420346,162.941612" id="Fill-77" fill="#000000"></path>
                <path d="M54.9220975,177.275754 C54.7618449,177.275754 54.5916331,177.240897 54.4417924,177.183858 L39.2979216,171.312909 C38.6120948,171.050801 38.2694077,170.274436 38.5319685,169.576839 C38.8062992,168.89237 39.5935288,168.550136 40.2680383,168.812244 L54.0886935,174.169389 L56.93114,165.432001 C57.1488844,164.734404 57.9021622,164.357312 58.587989,164.563287 C58.7133844,164.33513 58.9080415,164.140926 59.1479677,164.015078 C59.8102546,163.684161 60.6205714,163.946269 60.9632585,164.609008 L63.4304242,169.417492 C64.4245336,167.817682 65.5327211,166.105152 66.6295913,164.414351 C68.8898773,160.90826 71.2316476,157.28809 72.0655044,155.472347 C72.363375,154.797837 73.1619219,154.490007 73.8350734,154.808702 C74.5104883,155.116984 74.8178654,155.905572 74.5104883,156.580081 C73.5965052,158.590482 71.300004,162.130978 68.8781073,165.875638 C67.3249246,168.275352 65.7377901,170.741613 64.4702554,172.844362 C64.2303292,173.266723 63.7957458,173.58587 63.2706243,173.506649 C62.79213,173.494879 62.3462294,173.208779 62.128485,172.774195 L59.216324,167.087491 L56.1891796,176.350001 C56.0877768,176.704458 55.8360806,176.989654 55.5047108,177.149906 C55.3100537,177.230485 55.1167547,177.275754 54.9220975,177.275754" id="Fill-79" fill="#000000"></path>
                <path d="M54.3970213,204.378498 L63.750522,199.501206 C63.5907221,198.130457 63.5558649,197.868349 63.4082876,196.577275 C62.6197,189.987452 62.3906384,182.916872 61.5916388,175.882055 C61.5694569,175.574677 61.900374,172.889767 62.2774656,170.125184 L59.4793828,164.665731 L58.3942825,165.294518 L56.0751467,172.387733 C56.6690772,174.385911 57.2403732,176.487755 57.1951041,176.944973 C56.3838819,185.190286 55.5382552,193.333744 54.7279384,201.191554 C54.6020903,202.379415 54.5228694,203.133598 54.3970213,204.378498" id="Fill-81" fill="#000000"></path>
                <path d="M54.3970213,205.726793 C54.1340078,205.726793 53.8718998,205.646214 53.6428381,205.486867 C53.2313421,205.212536 53.0140504,204.744001 53.0606776,204.241514 L53.6541554,198.497318 C54.3843459,191.438055 55.1272118,184.161953 55.8691723,176.819306 C55.8465378,176.658601 55.6070642,175.516461 54.7840721,172.774512 C54.7048511,172.513309 54.715263,172.238526 54.7967474,171.975513 L57.1149778,164.871886 C57.217286,164.563151 57.434125,164.288367 57.7202257,164.129926 L58.8044205,163.50159 C59.124473,163.306933 59.5015646,163.260306 59.8555689,163.37529 C60.2095733,163.478051 60.5069912,163.717977 60.6776557,164.048894 L63.4770967,169.508347 C63.6024921,169.760043 63.6482139,170.033468 63.6024921,170.308252 C63.1452742,173.654543 62.9402052,175.516461 62.9402052,175.824744 C63.3172968,179.182805 63.5794048,182.631858 63.8188783,186.035189 C64.0814391,189.656264 64.3444526,193.071364 64.731956,196.417656 L65.0873184,199.352904 C65.1443575,199.901566 64.8578041,200.438457 64.3675398,200.688795 L55.0131337,205.566088 C54.8189293,205.669301 54.6020903,205.726793 54.3970213,205.726793 L54.3970213,205.726793 Z M57.4802995,172.410096 C58.6215334,176.259327 58.5658524,176.762267 58.5423125,177.081414 C57.800352,184.436737 57.0461688,191.711481 56.3263902,198.770744 L55.9841558,202.026497 L62.3114174,198.736339 L62.0723966,196.737708 C61.6713124,193.322608 61.4087516,189.88442 61.1457382,186.241163 C60.8944947,182.87269 60.6437039,179.456684 60.2679704,176.042488 C60.2435251,175.836514 60.1991614,175.448558 60.8836301,170.353521 L59.2163693,167.087808 L57.4802995,172.410096 Z" id="Fill-83" fill="#000000"></path>
                <path d="M59.3538516,177.948906 C58.5426293,177.948906 57.6168763,177.755607 56.6005851,177.366292 C55.9038937,177.092867 55.5603013,176.326914 55.8359901,175.630675 C56.0980981,174.933984 56.8640512,174.590844 57.5716072,174.853858 C59.810164,175.710802 60.2212074,175.047609 60.4842209,174.613931 C60.872177,173.974732 61.6951692,173.780527 62.3343689,174.168936 C62.9622512,174.556892 63.1673202,175.379884 62.7793641,176.018631 C61.9912291,177.309706 60.8382252,177.948906 59.3538516,177.948906" id="Fill-85" fill="#000000"></path>
                <path d="M78.0587706,113.628808 L64.8841055,121.235374 L64.8841055,127.608358 C64.8841055,128.119446 64.9651371,128.542259 65.1113563,128.864575 C65.2313194,129.129399 65.397457,129.324509 65.5930195,129.436776 C65.7863185,129.550855 66.0380147,129.596576 66.3277369,129.567604 C66.6808359,129.533652 67.086447,129.392413 67.5282734,129.137095 L76.6395844,123.880448 C76.9293066,123.71431 77.2172181,123.475289 77.4879273,123.189188 C77.7735753,122.887244 78.034778,122.533239 78.2561439,122.154337 L78.2688192,122.132155 C78.4879216,121.750989 78.6680926,121.338588 78.7907719,120.923923 C78.898965,120.559507 78.9614364,120.191016 78.9614364,119.847424 L78.9614364,113.108666 L78.0587706,113.628808 Z M60.9959428,128.559914 L60.9959428,123.480269 L47.6981457,131.160171 C47.3436886,131.36524 47.1232281,131.51327 47.0390276,131.653604 C46.9507529,131.798918 46.9181591,132.072343 46.9181591,132.555364 L46.9181591,139.640431 C46.9181591,139.905255 46.9530163,140.118925 47.0145823,140.27782 L47.0372169,140.323541 C47.0833913,140.42585 47.139525,140.49828 47.195206,140.532232 L47.2042598,140.538117 C47.2680892,140.574785 47.3649651,140.589271 47.4826648,140.578859 C47.6619304,140.561204 47.8796747,140.481531 48.1259386,140.339838 L57.2318174,135.082285 C57.7152913,134.805691 58.1860899,134.41864 58.6238421,133.958254 C59.0982622,133.457125 59.5242444,132.879039 59.8809649,132.261115 C60.2336112,131.652699 60.5201646,130.995844 60.7175378,130.336273 C60.8972561,129.731931 60.9959428,129.127588 60.9959428,128.559914 L60.9959428,128.559914 Z M61.4803221,120.627863 L77.9976573,111.091475 C78.7355436,110.671831 79.2534221,110.395236 79.9175197,110.572239 C80.6698921,110.776402 81.0528686,111.371238 81.190034,112.641942 C81.3113552,114.935274 81.1990878,117.521498 81.1990878,119.847424 C81.1990878,120.398801 81.1031173,120.981867 80.9324528,121.558596 C80.7753691,122.087339 80.5472128,122.61925 80.2665444,123.125359 L80.1583513,123.32228 C79.8586699,123.828388 79.5014967,124.30824 79.104034,124.72698 C78.6961595,125.157489 78.2384889,125.530506 77.74913,125.81208 L68.6464201,131.067369 C67.9230199,131.488372 67.210937,131.722413 66.5463867,131.788053 C65.7831497,131.861389 65.0792153,131.715623 64.4780417,131.369314 C63.900408,131.036586 63.4350417,130.53093 63.1167999,129.874076 C63.0543286,130.23985 62.9669592,130.607435 62.8578607,130.972757 C62.6170291,131.784884 62.2571398,132.604255 61.8121446,133.375188 C61.3721289,134.142046 60.8411224,134.86092 60.254435,135.481559 L60.2349692,135.50193 C59.6623152,136.102651 59.0258317,136.621887 58.3495114,137.011654 L49.2449907,142.271471 C48.7167003,142.576584 48.1906734,142.749965 47.691808,142.79795 C47.1182485,142.853179 46.5822624,142.743175 46.1191596,142.483783 L46.0666474,142.453 C45.6053553,142.181385 45.2391283,141.769889 45.0001075,141.241146 L44.9693245,141.165999 C44.7837212,140.725531 44.680055,140.212179 44.680055,139.640431 L44.680055,132.555364 C44.680055,131.649077 44.8018289,131.035681 45.1245975,130.498789 C45.4509877,129.959182 45.9041314,129.618758 46.5795463,129.228991 L61.4803221,120.627863 Z" id="Fill-87" fill="#000000"></path>
                <path d="M31.7414229,127.526647 C31.6119533,128.130084 31.0148539,128.513513 30.4123222,128.383591 C29.8088852,128.254121 29.4259086,127.65838 29.5553783,127.054943 L29.7332858,126.239194 C29.7776495,126.037294 29.842837,125.843995 29.9220579,125.668803 C30.2240028,125.001537 30.7382597,124.562426 31.3652367,124.335176 C31.9202359,124.133728 32.549929,124.110641 33.1696629,124.246901 C33.4503313,124.307109 33.7355266,124.403079 34.0130262,124.528475 L45.7381749,129.832202 C46.2999644,130.084804 46.5516605,130.747543 46.2981536,131.309333 C46.0446466,131.872027 45.3819071,132.122818 44.8205703,131.869311 L33.0940635,126.566489 C32.9627831,126.506281 32.8274285,126.460107 32.6966009,126.432946 C32.4716134,126.383602 32.2692606,126.381791 32.1262102,126.433851 C32.0537797,126.459202 31.9926664,126.511261 31.9587146,126.587766 L31.9193305,126.71135 L31.7414229,127.526647 Z" id="Fill-89" fill="#000000"></path>
            </g>
        </g>
    </g>
</svg>