<?xml version="1.0" encoding="UTF-8"?><svg id="Layer_1" xmlns="http://www.w3.org/2000/svg" viewBox="0 0 720 720"><defs><style>.cls-1{fill:#00af81;}</style></defs><path class="cls-1" d="M207.86,391.72c0,50.42-40.87,91.29-91.29,91.29v125.8s125.8,0,125.8,0h0c0-50.42,40.87-91.29,91.29-91.29,50.42,0,91.29,40.87,91.29,91.29h125.8s0-125.8,0-125.8c50.42,0,91.29-40.87,91.29-91.29,0-50.42-40.87-91.29-91.29-91.29v-125.8s-125.8,0-125.8,0c0-50.42-40.87-91.29-91.29-91.29-50.42,0-91.29,40.87-91.29,91.29h-125.8s0,125.8,0,125.8c50.42,0,91.29,40.87,91.29,91.29Z"/></svg>