<?xml version="1.0" encoding="UTF-8"?>
<svg width="236px" height="210px" viewBox="0 0 236 210" version="1.1" xmlns="http://www.w3.org/2000/svg" xmlns:xlink="http://www.w3.org/1999/xlink">
    <title>Group 134</title>
    <defs>
        <polygon id="path-1" points="0 0 182.964002 0 182.964002 168.186233 0 168.186233"></polygon>
        <polygon id="path-3" points="0 0 183.000465 0 183.000465 99.7044776 0 99.7044776"></polygon>
        <polygon id="path-5" points="0 0 139.908753 0 139.908753 74.8088339 0 74.8088339"></polygon>
        <polygon id="path-7" points="0 0 62.9570078 0 62.9570078 62.9562571 0 62.9562571"></polygon>
    </defs>
    <g id="Illustraties" stroke="none" stroke-width="1" fill="none" fill-rule="evenodd">
        <g transform="translate(-1155, -717)" id="Group-134">
            <g transform="translate(1155, 717)">
                <g id="Group-133" transform="translate(-0, -0)">
                    <g id="Group-4" transform="translate(162.4507, 132.2001)">
                        <path d="M14.1789088,48.0471319 L0,54.7457029 L0,11.0243143 C0,8.54488212 1.34531969,6.26114188 3.51394701,5.05946309 L13.1779269,0" id="Fill-1" fill="#DD784B"></path>
                        <path d="M14.1789088,48.0471319 L0,54.7457029 L0,11.0243143 C0,8.54488212 1.34531969,6.26114188 3.51394701,5.05946309 L13.1779269,0" id="Stroke-3" stroke="#000000" stroke-width="4"></path>
                    </g>
                    <path d="M54.1763444,65.5004028 L233.245002,42.9783097 C233.677426,42.9783097 234.027771,43.3291538 234.027771,43.761578 L233.909654,148.327152 C234.288526,149.831628 233.624875,151.328596 231.78507,152.391138 L124.259593,207.519216 C120.906804,209.455115 115.050059,209.212377 111.178261,206.977185 L56.581704,175.455263 C54.5697303,174.294124 53.5121929,172.825183 53.4095923,171.408293 L53.3935766,66.2831706 C53.3935766,65.8512469 53.7439202,65.5004028 54.1763444,65.5004028" id="Fill-5" fill="#3D68EC"></path>
                    <g id="Group-9" transform="translate(52.228, 41.8138)">
                        <mask id="mask-2" fill="white">
                            <use xlink:href="#path-1"></use>
                        </mask>
                        <g id="Clip-8"></g>
                        <path d="M2.3302859,24.852379 L2.34379916,129.509543 C2.42137525,130.588101 3.36580169,131.726217 4.93584183,132.634108 L59.5338999,164.156029 C63.015315,166.1655 68.4706665,166.413243 71.4495886,164.69756 L178.974566,109.565979 C179.880454,109.044968 180.888443,108.141582 180.551613,106.798765 L180.515077,106.657626 L180.633693,2.3302859 L2.3302859,24.852379 Z M58.3682565,166.172007 L3.77069888,134.650586 C1.48795962,133.330791 0.154651706,131.564559 0.0155152197,129.594126 L0,24.4700039 C0,23.3959503 0.873857212,22.5220931 1.94791081,22.5220931 L181.016068,0 C181.539582,0 182.028561,0.204700802 182.399425,0.575564601 C182.766285,0.944426437 182.966481,1.43390659 182.964002,1.95041326 L182.845863,106.379854 C183.287296,108.412347 182.285814,110.348747 180.139708,111.584459 L72.6147316,166.714039 C70.905555,167.701507 68.6683604,168.186483 66.3360725,168.186483 C63.572862,168.186483 60.6760203,167.505815 58.3682565,166.172007 L58.3682565,166.172007 Z" id="Fill-7" fill="#14100D" mask="url(#mask-2)"></path>
                    </g>
                    <path d="M158.092081,129.227616 L168.531822,123.200204 C169.550321,122.612627 170.37563,121.03508 170.37563,119.677748 L170.37563,101.971379 C170.37563,100.614048 169.550321,99.9899354 168.531822,100.577512 L158.092081,106.604924 C157.074082,107.193001 156.248272,108.770048 156.248272,110.12788 L156.248272,127.833749 C156.248272,129.191581 157.074082,129.815693 158.092081,129.227616" id="Fill-10" fill="#F8D754"></path>
                    <path d="M169.115194,101.58525 L158.673952,107.613664 C158.077867,107.957501 157.413215,109.106628 157.413215,110.128631 L157.413215,127.833999 C157.413215,128.050211 157.445246,128.186345 157.442744,128.25241 C157.461262,128.243401 157.483784,128.231889 157.506306,128.218376 L167.950051,122.191964 C168.546136,121.848628 169.210788,120.6995 169.210788,119.677498 L169.210788,101.97213 C169.210788,101.683347 169.156234,101.537203 169.128707,101.537203 C169.119698,101.537203 169.115194,101.553219 169.115194,101.58525 M156.305128,130.334952 C155.528866,129.886512 155.082929,128.976119 155.082929,127.833999 L155.082929,110.128631 C155.082929,108.341878 156.124951,106.393967 157.508809,105.597186 L167.950051,99.5687722 C168.760346,99.0978102 169.624694,99.0662793 170.321377,99.4711765 C171.097138,99.9196164 171.541074,100.830009 171.541074,101.97213 L171.541074,119.677498 C171.541074,121.46375 170.499051,123.412161 169.115194,124.208443 L158.676454,130.234854 C158.241527,130.487602 157.788583,130.612725 157.354157,130.612725 C156.985295,130.612725 156.625943,130.521636 156.305128,130.334952" id="Fill-12" fill="#14100D"></path>
                    <path d="M163.74938,120.533187 C164.767379,119.94511 165.593189,118.368063 165.593189,117.010732 L165.593189,102.274276 L168.532072,100.577612 C169.550071,99.989535 170.37538,100.613647 170.37538,101.971479 L170.37538,119.677348 C170.37538,121.03518 169.550071,122.612227 168.532072,123.200304 L158.091831,129.227716 C157.073832,129.815293 156.248522,129.191681 156.248522,127.833849 L156.248522,124.863936 L163.74938,120.533187 Z" id="Fill-14" fill="#3D68EC"></path>
                    <path d="M169.115194,101.58525 L166.757381,102.948588 L166.757381,117.010382 C166.757381,118.796634 165.714858,120.745045 164.331501,121.541326 L157.413215,125.537747 L157.413215,127.833999 C157.413215,128.215874 157.511311,128.346001 157.508809,128.218376 L167.950051,122.191964 C168.546136,121.848628 169.210788,120.6995 169.210788,119.677498 L169.210788,101.97213 C169.210788,101.683347 169.156234,101.537203 169.128707,101.537203 C169.119698,101.537203 169.115194,101.553219 169.115194,101.58525 M156.305128,130.334952 C155.528866,129.886512 155.082929,128.976119 155.082929,127.833999 L155.082929,124.190425 L163.166358,119.524848 L163.166358,119.522846 C163.762443,119.181511 164.427095,118.034386 164.427095,117.010382 L164.427095,101.601266 L167.950051,99.5687722 C168.760346,99.0978102 169.624694,99.0662793 170.321377,99.4711765 C171.097138,99.9196164 171.541074,100.830009 171.541074,101.97213 L171.541074,119.677498 C171.541074,121.46375 170.499051,123.412161 169.115194,124.208443 L158.676454,130.234854 C158.241527,130.487602 157.788583,130.612725 157.354157,130.612725 C156.985295,130.612725 156.625943,130.521636 156.305128,130.334952" id="Fill-16" fill="#14100D"></path>
                    <path d="M135.953564,141.661213 L146.393305,135.6338 C147.411804,135.046224 148.237114,133.468676 148.237114,132.111345 L148.237114,114.404976 C148.237114,113.047644 147.411804,112.423532 146.393305,113.011109 L135.953564,119.038521 C134.935565,119.626598 134.109755,121.203645 134.109755,122.561477 L134.109755,140.267346 C134.109755,141.625178 134.935565,142.24929 135.953564,141.661213" id="Fill-18" fill="#F8D754"></path>
                    <path d="M145.811434,134.62476 C146.408019,134.280923 147.072171,133.134298 147.072171,132.112296 L147.072171,114.404425 C147.072171,114.022551 146.979079,113.890421 146.976577,114.020048 L136.537837,120.04646 C135.941252,120.391799 135.274598,121.541426 135.274598,122.560926 L135.274598,140.268297 C135.274598,140.484509 135.306629,140.621143 135.304127,140.687207 C135.322645,140.678199 135.345167,140.666687 135.370192,140.653174 L145.811434,134.62476 Z M134.164009,142.767248 C133.388248,142.318808 132.944312,141.408915 132.944312,140.268297 L132.944312,122.560926 C132.944312,120.778678 133.986334,118.830767 135.370192,118.029982 L145.808932,112.00357 C146.617225,111.532608 147.481572,111.498575 148.180258,111.903472 C148.956519,112.351912 149.402457,113.262305 149.402457,114.404425 L149.402457,132.112296 C149.402457,133.896546 148.360435,135.844457 146.976577,136.641239 L136.535335,142.669152 C136.100909,142.9219 135.650467,143.047022 135.218042,143.047022 C134.846678,143.047022 134.487326,142.953931 134.164009,142.767248 L134.164009,142.767248 Z" id="Fill-20" fill="#14100D"></path>
                    <path d="M141.610864,132.966734 C142.628862,132.378657 143.454672,130.80161 143.454672,129.443778 L143.454672,114.707823 L146.393555,113.011159 C147.411554,112.423082 148.236863,113.047194 148.236863,114.405026 L148.236863,132.110894 C148.236863,133.468726 147.411554,135.046274 146.393555,135.63385 L135.953314,141.661263 C134.935315,142.248839 134.110006,141.625228 134.110006,140.267396 L134.110006,137.297482 L141.610864,132.966734 Z" id="Fill-22" fill="#3D68EC"></path>
                    <path d="M146.976677,114.022451 L144.618864,115.380783 L144.618864,129.445079 C144.618864,131.231832 143.576842,133.177241 142.192985,133.974022 L135.274698,137.969942 L135.274698,140.266194 C135.274698,140.651072 135.372794,140.780699 135.370292,140.653074 L145.811534,134.62466 C146.407619,134.281324 147.072271,133.131696 147.072271,132.110194 L147.072271,114.404826 C147.072271,114.118044 147.017717,113.972401 146.99019,113.972401 C146.981182,113.972401 146.976677,113.988417 146.976677,114.022451 M134.164109,142.767148 C133.388348,142.319208 132.944412,141.408815 132.944412,140.266194 L132.944412,136.623121 L141.027842,131.957544 L141.027842,131.955042 C141.623926,131.613707 142.288578,130.467082 142.288578,129.445079 L142.288578,114.033962 L145.809032,112.003971 C146.616824,111.532508 147.481672,111.498475 148.180358,111.903372 C148.956619,112.351812 149.402557,113.262205 149.402557,114.404826 L149.402557,132.110194 C149.402557,133.896446 148.360535,135.844357 146.976677,136.641138 L136.535435,142.669552 C136.101009,142.9223 135.650066,143.047423 135.217642,143.047423 C134.846778,143.047423 134.487426,142.953831 134.164109,142.767148" id="Fill-24" fill="#14100D"></path>
                    <path d="M135.953564,177.833196 L146.393305,171.805783 C147.411804,171.217706 148.237114,169.640659 148.237114,168.282827 L148.237114,150.576959 C148.237114,149.219627 147.411804,148.595515 146.393305,149.183092 L135.953564,155.210504 C134.935565,155.798581 134.109755,157.375628 134.109755,158.73346 L134.109755,176.439329 C134.109755,177.797161 134.935565,178.421273 135.953564,177.833196" id="Fill-26" fill="#F8D754"></path>
                    <path d="M146.976677,150.19083 L136.535435,156.219244 C135.93935,156.563081 135.274698,157.712208 135.274698,158.734211 L135.274698,176.439579 C135.274698,176.655791 135.306729,176.791924 135.304227,176.857989 C135.322745,176.84898 135.345267,176.837469 135.367789,176.823956 L145.811534,170.797544 C146.407619,170.454207 147.072271,169.30458 147.072271,168.283078 L147.072271,150.57771 C147.072271,150.288926 147.017717,150.142783 146.99019,150.142783 C146.981182,150.142783 146.976677,150.158799 146.976677,150.19083 M134.166611,178.940532 C133.39035,178.492092 132.944412,177.581699 132.944412,176.439579 L132.944412,158.734211 C132.944412,156.947458 133.986434,154.999547 135.370292,154.202766 L145.811534,148.174352 C146.619327,147.70339 147.484175,147.669357 148.18286,148.076756 C148.958621,148.525196 149.402557,149.435589 149.402557,150.57771 L149.402557,168.283078 C149.402557,170.06933 148.360535,172.017741 146.976677,172.814022 L136.537937,178.840434 C136.103011,179.093182 135.650066,179.217804 135.21564,179.217804 C134.846778,179.217804 134.487426,179.126715 134.166611,178.940532" id="Fill-28" fill="#14100D"></path>
                    <path d="M141.610864,169.138767 C142.628862,168.55069 143.454672,166.973643 143.454672,165.616312 L143.454672,150.879856 L146.393555,149.183192 C147.411554,148.595115 148.236863,149.219227 148.236863,150.577059 L148.236863,168.282928 C148.236863,169.64076 147.411554,171.217807 146.393555,171.805883 L135.953314,177.833296 C134.935315,178.420872 134.110006,177.797261 134.110006,176.439429 L134.110006,173.469515 L141.610864,169.138767 Z" id="Fill-30" fill="#3D68EC"></path>
                    <path d="M146.976677,150.19083 L144.618864,151.554167 L144.618864,165.615961 C144.618864,167.402214 143.576842,169.350124 142.192985,170.146906 L135.274698,174.143326 L135.274698,176.439579 C135.274698,176.821453 135.372794,176.951581 135.370292,176.823956 L145.811534,170.797544 C146.407619,170.454207 147.072271,169.30458 147.072271,168.283078 L147.072271,150.57771 C147.072271,150.288926 147.017717,150.142783 146.99019,150.142783 C146.981182,150.142783 146.976677,150.158799 146.976677,150.19083 M134.166611,178.940532 C133.39035,178.492092 132.944412,177.581699 132.944412,176.439579 L132.944412,172.796005 L141.027842,168.130428 L141.027842,168.128426 C141.623926,167.787091 142.288578,166.639966 142.288578,165.615961 L142.288578,150.206846 L145.811534,148.174352 C146.619327,147.70339 147.484175,147.669357 148.18286,148.076756 C148.958621,148.525196 149.402557,149.435589 149.402557,150.57771 L149.402557,168.283078 C149.402557,170.06933 148.360535,172.017741 146.976677,172.814022 L136.537937,178.840434 C136.103011,179.093182 135.650066,179.217804 135.21564,179.217804 C134.846778,179.217804 134.487426,179.126715 134.166611,178.940532" id="Fill-32" fill="#14100D"></path>
                    <path d="M53.4095422,171.417052 L53.3935265,66.2924297 C53.3935265,65.859505 53.7438702,65.5091614 54.1767949,65.5091614 L62.4594197,65.5091614 L118.185584,99.1141262 L118.188587,208.81724 C115.73468,208.757681 113.190184,208.147583 111.178211,206.985943 L56.5816539,175.464522 C54.5696803,174.302883 53.5121429,172.833942 53.4095422,171.417052" id="Fill-34" fill="#14100D"></path>
                    <path d="M124.25644,101.611476 L231.782418,46.4828975 C235.135206,44.547499 234.714794,41.1661821 230.842996,38.9309894 L176.245939,7.40956843 C172.374641,5.17387533 166.517896,4.93113721 163.165107,6.86703624 L55.6396298,61.9956147 C52.2863404,63.9310133 52.7072533,67.3123302 56.5785509,69.5475228 L111.175608,101.068944 C115.046906,103.304637 120.903651,103.546875 124.25644,101.611476" id="Fill-36" fill="#3D68EC"></path>
                    <path d="M111.175057,100.801481 L59.2361078,70.8145657 L163.164056,17.7635252 C166.516845,15.8276261 172.37309,16.0703643 176.244888,18.3055569 L228.184338,48.2924726 L124.255889,101.344014 C120.903601,103.279412 115.046355,103.036674 111.175057,100.801481" id="Fill-38" fill="#DD784B"></path>
                    <g id="Group-42" transform="translate(52.2098, 4.3868)">
                        <mask id="mask-4" fill="white">
                            <use xlink:href="#path-3"></use>
                        </mask>
                        <g id="Clip-41"></g>
                        <path d="M111.537413,3.48859439 L4.01243601,58.6176734 C3.24518337,59.0616089 2.3302859,59.8148478 2.3302859,60.8889014 C2.3302859,61.9859775 3.31124818,63.205674 4.95185754,64.1521024 L59.5474132,95.6740239 C63.0313307,97.6834951 68.4886841,97.9312381 71.4631019,96.2155551 L178.990581,41.0884781 C179.757333,40.6450431 180.670229,39.8913037 180.670229,38.8152482 C180.670229,37.7206744 179.691269,36.5004775 178.050659,35.5520471 L123.453102,4.03012561 C121.527713,2.91953617 118.999733,2.34647402 116.619398,2.34647402 C114.694009,2.34647402 112.868719,2.72184224 111.537413,3.48859439 M58.3822702,97.6900015 L3.78671459,66.1685805 C1.38135504,64.780719 0,62.8573323 0,60.8889014 C0,59.1822272 1.01249321,57.6597337 2.84679257,56.6016958 L110.37227,1.47211632 C114.104431,-0.684999708 120.36257,-0.443763066 124.618245,2.01364754 L179.215802,33.535569 C181.621162,34.9234305 183.000515,36.8488192 183.000515,38.8152482 C183.000515,40.5219223 181.990024,42.0444158 180.155724,43.1049562 L72.6282448,98.2320332 C70.9215707,99.2195019 68.6843761,99.7044776 66.3515877,99.7044776 C63.5888777,99.7044776 60.692036,99.0238099 58.3822702,97.6900015" id="Fill-40" fill="#14100D" mask="url(#mask-4)"></path>
                    </g>
                    <path d="M75.4580708,48.6641873 L211.969482,26.1420941 C212.257765,26.1420941 212.491995,26.3763239 212.491995,26.6651072 L212.412917,40.5377156 C212.665665,41.5417004 212.22273,42.5411809 210.994526,43.2503766 L122.243465,87.5393219 C120.004769,88.8315896 116.095434,88.6694305 113.510899,87.1774669 L77.0636458,66.1343246 C75.720328,65.3590641 75.0146358,64.3786023 74.9460685,63.4326744 L74.9350577,49.1872003 C74.9350577,48.898417 75.1692875,48.6641873 75.4580708,48.6641873" id="Fill-43" fill="#3D68EC"></path>
                    <path d="M76.1007012,49.830181 L76.10971,63.3479413 C76.1507503,63.9310133 76.7238124,64.5931628 77.6457168,65.1256852 L114.093971,86.169328 C116.31565,87.4525868 119.774543,87.6192503 121.661394,86.531183 L210.411454,42.2392347 C211.123652,41.8298331 211.41744,41.3518642 211.282808,40.8213438 L211.248775,40.6782034 L211.321847,27.3080879 L76.1007012,49.830181 Z M112.929328,88.1858061 L76.4805738,67.1441652 C74.8419664,66.1997388 73.8865292,64.9114751 73.7814261,63.4325243 L73.7704153,49.1860492 C73.7704153,48.255136 74.5281586,47.4998951 75.4590718,47.4998951 L211.970483,24.977802 C212.900896,24.977802 213.656637,25.7355453 213.656637,26.6729649 L213.579061,40.4094397 C213.888865,41.9249264 213.149139,43.3543285 211.576597,44.2577147 L122.826537,88.547661 C121.631865,89.2393395 120.068331,89.5781719 118.441235,89.5781719 C116.524855,89.5781719 114.522391,89.1072099 112.929328,88.1858061 L112.929328,88.1858061 Z" id="Fill-45" fill="#14100D"></path>
                    <path d="M74.9460185,63.4385302 L74.9350077,49.193056 C74.9350077,48.9042728 75.1692374,48.670043 75.4580207,48.670043 L80.9874448,48.670043 L118.188437,71.1035492 L118.190439,88.4060221 C116.552332,88.3664833 114.853666,87.9585832 113.510849,87.1833227 L77.0635957,66.1406809 C75.7207785,65.3649199 75.0145857,64.3844581 74.9460185,63.4385302" id="Fill-47" fill="#14100D"></path>
                    <path d="M122.241363,72.7709849 L210.992924,28.4820395 C213.23112,27.1897719 212.950344,24.9325577 210.365809,23.4400936 L173.918556,2.39745179 C171.334021,0.905488241 167.424185,0.743329171 165.18599,2.03559682 L76.4344285,46.3245422 C74.196233,47.6168098 74.4770084,49.874024 77.0615437,51.3659876 L113.508797,72.4091299 C116.093332,73.9010935 120.002667,74.0632525 122.241363,72.7709849" id="Fill-49" fill="#3D68EC"></path>
                    <path d="M173.914802,10.1295366 L208.625852,30.169695 L122.237609,73.094302 C119.999414,74.3865697 116.089578,74.2244106 113.505043,72.7319466 L78.7939932,52.6922886 L165.182736,9.76718114 C167.420932,8.47541398 171.330267,8.63707256 173.914802,10.1295366" id="Fill-51" fill="#DD784B"></path>
                    <g id="Group-55" transform="translate(73.7589, 0)">
                        <mask id="mask-6" fill="white">
                            <use xlink:href="#path-5"></use>
                        </mask>
                        <g id="Clip-54"></g>
                        <path d="M47.8999923,71.7638469 L136.650052,27.4744011 C136.998394,27.2737042 137.578968,26.8527913 137.578968,26.29074 C137.580965,25.7081685 136.98488,25.0029767 136.024438,24.4474318 L99.5781862,3.40579092 C97.3595098,2.12203161 93.8956118,1.9563691 92.0092614,3.04393596 L3.25870135,47.3358842 C2.91086013,47.5340787 2.33029062,47.9524891 2.33029062,48.5125385 C2.33029062,49.09511 2.92637535,49.8028042 3.88481554,50.3583491 L40.3330695,71.39999 C42.551746,72.6812468 46.0181463,72.8469093 47.8999923,71.7613445 L47.8999923,71.7638469 Z M39.1679266,73.4159676 L2.71967259,52.3743267 C0.989975835,51.3753468 -0.00249773385,49.9664647 -1.15689691e-14,48.5125385 C-1.15689691e-14,47.2292797 0.744234775,46.0931652 2.0935584,45.3174042 L90.843618,1.02745789 C93.44517,-0.472013022 97.7939359,-0.312856898 100.743329,1.38981334 L137.189581,22.4314542 C138.919278,23.4279317 139.911251,24.8363132 139.908753,26.29074 C139.908753,27.5744993 139.167021,28.7121152 137.815195,29.4903787 L49.0651353,73.780325 L49.0651353,73.7823269 C47.8704634,74.469501 46.3069296,74.8088339 44.682336,74.8088339 C42.7659561,74.8088339 40.7634918,74.3378719 39.1679266,73.4159676 L39.1679266,73.4159676 Z" id="Fill-53" fill="#14100D" mask="url(#mask-6)"></path>
                    </g>
                    <path d="M66.7541326,102.559256 C66.6880678,102.598294 66.5539362,102.828019 66.5539362,103.294477 L66.5539362,121.001847 C66.5539362,122.041867 67.2115814,123.332633 67.9603158,123.765058 L78.4015582,129.793471 C78.5902433,129.90458 78.7083592,129.907083 78.7338842,129.891067 C78.7859353,129.861538 78.9340806,129.661342 78.9340806,129.158348 L78.9340806,111.450978 C78.9340806,110.410958 78.2764355,109.11819 77.527701,108.685766 L67.0839562,102.657352 C66.9453202,102.577273 66.845222,102.554751 66.7926704,102.554751 C66.7746528,102.554751 66.760639,102.557254 66.7541326,102.559256 M77.527701,131.308958 L67.0864586,125.280544 C65.8072037,124.540819 64.8062218,122.663477 64.8062218,121.001847 L64.8062218,103.294477 C64.8062218,102.258961 65.1976057,101.439657 65.8822774,101.045771 C66.4903739,100.69793 67.2456147,100.733965 67.9603158,101.143867 L78.4035602,107.172281 C79.6803126,107.912007 80.681795,109.791851 80.681795,111.450978 L80.681795,129.158348 C80.681795,130.191362 80.2904111,131.010665 79.6077414,131.404552 C79.3299689,131.563708 79.020165,131.645788 78.6993503,131.645788 C78.3174757,131.645788 77.9165825,131.531676 77.527701,131.308958" id="Fill-56" fill="#3D68EC"></path>
                    <path d="M72.0201984,122.039765 C70.741444,121.30004 69.7399616,119.420196 69.7399616,117.759066 L69.7399616,104.191257 L67.0863585,102.659254 L67.0843566,102.657252 C66.8976734,102.550147 66.7815595,102.552649 66.7540325,102.559156 C66.6879677,102.598194 66.5538361,102.827919 66.5538361,103.294377 L66.5538361,121.002247 C66.5538361,122.042268 67.2114813,123.332533 67.9602157,123.764958 L78.4014581,129.793371 C78.5901432,129.90448 78.7087595,129.906983 78.7337841,129.890967 C78.7858352,129.861438 78.9339805,129.661242 78.9339805,129.158248 L78.9339805,126.029179 L72.0201984,122.039765 Z M77.5276009,131.308858 L67.0863585,125.280444 C65.8076041,124.540719 64.8061217,122.663377 64.8061217,121.002247 L64.8061217,103.294377 C64.8061217,102.258861 65.1975056,101.439557 65.8826778,101.046171 C66.4852689,100.69783 67.2435127,100.734366 67.9602157,101.143767 L71.487676,103.180765 L71.487676,117.759066 C71.487676,118.799086 72.1453211,120.091854 72.8940556,120.524279 L80.6816949,125.018687 L80.6816949,129.158248 C80.6816949,130.191762 80.290311,131.010565 79.6076413,131.404452 C79.3298688,131.563608 79.0205654,131.645688 78.6997507,131.645688 C78.3173756,131.645688 77.9164824,131.532077 77.5276009,131.308858 L77.5276009,131.308858 Z" id="Fill-58" fill="#3D68EC"></path>
                    <path d="M90.8339037,150.796224 C90.7813522,150.825753 90.6337074,151.025949 90.6337074,151.528943 L90.6337074,169.236813 C90.6337074,170.274331 91.2913525,171.567099 92.0400869,172.001525 L102.481329,178.027937 C102.672517,178.137044 102.786128,178.144051 102.813155,178.125533 C102.865706,178.096004 103.013852,177.895807 103.013852,177.392814 L103.013852,159.685444 C103.013852,158.645424 102.356207,157.352655 101.606972,156.920231 L91.1662297,150.89432 C91.0250913,150.81224 90.9249931,150.789217 90.8724415,150.789217 C90.8544239,150.789217 90.8404101,150.791719 90.8339037,150.796224 M101.606972,179.543424 L91.1662297,173.517012 L91.1637273,173.51501 C89.8869748,172.775284 88.8854924,170.895941 88.8854924,169.236813 L88.8854924,151.528943 C88.8854924,150.495929 89.2773769,149.676626 89.9600465,149.282739 C90.5651401,148.934398 91.3228834,148.968931 92.0400869,149.378333 L102.483331,155.406747 C103.760084,156.146472 104.761566,158.026316 104.761566,159.685444 L104.761566,177.392814 C104.761566,178.426328 104.370182,179.245631 103.687513,179.639017 C103.40974,179.798173 103.099936,179.880254 102.779121,179.880254 C102.396746,179.880254 101.996354,179.766643 101.606972,179.543424" id="Fill-60" fill="#3D68EC"></path>
                    <path d="M96.1023218,170.274431 C94.8230669,169.536707 93.822085,167.657364 93.822085,165.993732 L93.822085,152.425923 L91.1684819,150.89392 C90.9792964,150.784813 90.858678,150.775804 90.834154,150.796324 C90.7816024,150.825853 90.6334571,151.026049 90.6334571,151.529043 L90.6334571,169.236913 C90.6334571,170.276934 91.2911022,171.569201 92.0423392,172.001625 L102.483582,178.030039 C102.670265,178.137144 102.785878,178.134642 102.813405,178.128135 C102.87947,178.089097 103.013601,177.859372 103.013601,177.392914 L103.013601,174.263845 L96.1023218,170.274431 Z M101.607222,179.543524 L91.1684819,173.51511 C89.8872251,172.775384 88.8857427,170.89554 88.8857427,169.236913 L88.8857427,151.529043 C88.8857427,150.495529 89.2771266,149.676225 89.9597963,149.282839 C90.5673923,148.934498 91.3231336,148.966529 92.0423392,149.378433 L95.5697994,151.415431 L95.5697994,165.993732 C95.5697994,167.036255 96.2274445,168.328522 96.976179,168.758944 L104.761316,173.253353 L104.761316,177.392914 C104.761316,178.42843 104.369932,179.247733 103.68476,179.641119 C103.407488,179.800776 103.100186,179.880354 102.779372,179.880354 C102.396997,179.880354 101.994101,179.766743 101.607222,179.543524 L101.607222,179.543524 Z" id="Fill-62" fill="#3D68EC"></path>
                    <path d="M66.7541326,137.783459 C66.6880678,137.821997 66.5539362,138.04972 66.5539362,138.51818 L66.5539362,156.224048 C66.5539362,157.263568 67.2115814,158.556336 67.9603158,158.98876 L78.4015582,165.017174 C78.5902433,165.126782 78.7083592,165.133288 78.7338842,165.11527 C78.7859353,165.085741 78.9340806,164.885545 78.9340806,164.380049 L78.9340806,146.674681 C78.9340806,145.634661 78.2764355,144.342393 77.527701,143.909468 L67.0839562,137.881555 C66.9453202,137.799475 66.845222,137.776452 66.7906685,137.776452 C66.7721503,137.776452 66.760639,137.780957 66.7541326,137.783459 M77.527701,166.533161 L67.0864586,160.504247 C65.8072037,159.765022 64.8062218,157.885178 64.8062218,156.224048 L64.8062218,138.51818 C64.8062218,137.483164 65.1976057,136.663861 65.8802754,136.269974 C66.4878714,135.921633 67.2431123,135.958168 67.9603158,136.368071 L78.4015582,142.393982 C79.6803126,143.133707 80.681795,145.013551 80.681795,146.674681 L80.681795,164.380049 C80.681795,165.415565 80.2904111,166.234868 79.6077414,166.628755 C79.3299689,166.787911 79.020165,166.867489 78.6993503,166.867489 C78.3174757,166.867489 77.9145805,166.75588 77.527701,166.533161" id="Fill-64" fill="#3D68EC"></path>
                    <path d="M72.0178961,157.261716 C70.7411437,156.521991 69.7396613,154.642147 69.7396613,152.983019 L69.7396613,139.41521 L67.0860582,137.883707 L67.0840563,137.881205 C66.8998756,137.772098 66.7812592,137.776602 66.7542327,137.783609 C66.6881679,137.822147 66.5540363,138.04987 66.5540363,138.51833 L66.5540363,156.224198 C66.5540363,157.263718 67.2116815,158.556486 67.9604159,158.988911 L78.4011578,165.017324 C78.5903434,165.126431 78.7084593,165.133438 78.7339843,165.11542 C78.7860353,165.085891 78.9341807,164.885695 78.9341807,164.380199 L78.9341807,161.253132 L72.0178961,157.261716 Z M77.5278011,166.532811 L67.0860582,160.504397 C65.8073038,159.765172 64.8063219,157.884827 64.8063219,156.224198 L64.8063219,138.51833 C64.8063219,137.482814 65.1972054,136.66351 65.8803755,136.270125 C66.492476,135.919781 67.2477168,135.956317 67.9604159,136.36772 L71.4873757,138.404718 L71.4873757,152.983019 C71.4873757,154.02354 72.1455213,155.315807 72.8942558,155.748232 L80.6818951,160.24264 L80.6818951,164.380199 C80.6818951,165.415715 80.2900107,166.235019 79.607341,166.628405 C79.330069,166.788061 79.0202651,166.867639 78.6994504,166.867639 C78.3175758,166.867639 77.9146806,166.75603 77.5278011,166.532811 L77.5278011,166.532811 Z" id="Fill-66" fill="#3D68EC"></path>
                    <path d="M202.699989,103.302935 L213.13973,97.2755227 C214.158229,96.6879463 214.983539,95.1103988 214.983539,93.7530673 L214.983539,76.0466982 C214.983539,74.6893667 214.158229,74.0652545 213.13973,74.6528309 L202.699989,80.6802435 C201.68199,81.2683204 200.85618,82.8453674 200.85618,84.2031993 L200.85618,101.909068 C200.85618,103.2669 201.68199,103.891012 202.699989,103.302935" id="Fill-68" fill="#F8D754"></path>
                    <path d="M213.723102,75.6606195 L203.28186,81.6890331 C202.685775,82.0328703 202.021123,83.1819976 202.021123,84.2040001 L202.021123,101.909368 C202.021123,102.12558 202.053155,102.261714 202.050652,102.327779 C202.06867,102.31877 202.091692,102.307259 202.114214,102.293745 L212.557959,96.2673337 C213.154044,95.9239969 213.818696,94.7748696 213.818696,93.7528671 L213.818696,76.047499 C213.818696,75.7587157 213.764142,75.6125723 213.736615,75.6125723 C213.727607,75.6125723 213.723102,75.628588 213.723102,75.6606195 M200.913036,104.410322 C200.136775,103.961882 199.690837,103.051489 199.690837,101.909368 L199.690837,84.2040001 C199.690837,82.4172474 200.732859,80.4693366 202.116717,79.672555 L212.557959,73.6441414 C213.368254,73.1731794 214.232602,73.1416485 214.929285,73.5465457 C215.705046,73.9949856 216.148982,74.9053786 216.148982,76.047499 L216.148982,93.7528671 C216.148982,95.5391193 215.10696,97.4875306 213.723102,98.2838117 L203.284362,104.310223 C202.849436,104.562971 202.396491,104.688094 201.962065,104.688094 C201.593203,104.688094 201.233851,104.597005 200.913036,104.410322" id="Fill-70" fill="#14100D"></path>
                    <path d="M208.357289,94.6085064 C209.375287,94.0204296 210.201097,92.4433826 210.201097,91.0860511 L210.201097,76.3495953 L213.13998,74.652931 C214.157979,74.0648541 214.983288,74.6889663 214.983288,76.0467983 L214.983288,93.7526669 C214.983288,95.1104989 214.157979,96.6875459 213.13998,97.2756228 L202.700239,103.303035 C201.68174,103.890612 200.856431,103.267 200.856431,101.909168 L200.856431,98.9392547 L208.357289,94.6085064 Z" id="Fill-72" fill="#3D68EC"></path>
                    <path d="M213.723102,75.6606195 L211.365289,77.0239568 L211.365289,91.0857508 C211.365289,92.872003 210.322767,94.8204143 208.93941,95.6166954 L202.021123,99.6131157 L202.021123,101.909368 C202.021123,102.291243 202.119219,102.42137 202.116717,102.293745 L212.557959,96.2673337 C213.154044,95.9239969 213.818696,94.7748696 213.818696,93.7528671 L213.818696,76.047499 C213.818696,75.7587157 213.764142,75.6125723 213.736615,75.6125723 C213.727607,75.6125723 213.723102,75.628588 213.723102,75.6606195 M200.913036,104.410322 C200.136775,103.961882 199.690837,103.051489 199.690837,101.909368 L199.690837,98.2657941 L207.774267,93.6002174 L207.774267,93.5982154 C208.370351,93.2568806 209.035003,92.1097553 209.035003,91.0857508 L209.035003,75.6766352 L212.557959,73.6441414 C213.368254,73.1731794 214.232602,73.1416485 214.929285,73.5465457 C215.705046,73.9949856 216.148982,74.9053786 216.148982,76.047499 L216.148982,93.7528671 C216.148982,95.5391193 215.10696,97.4875306 213.723102,98.2838117 L203.284362,104.310223 C202.849436,104.562971 202.396491,104.688094 201.962065,104.688094 C201.593203,104.688094 201.233851,104.597005 200.913036,104.410322" id="Fill-74" fill="#14100D"></path>
                    <path d="M180.561472,115.736532 L191.001213,109.709119 C192.019712,109.121543 192.845022,107.543996 192.845022,106.186664 L192.845022,88.480295 C192.845022,87.1229635 192.019712,86.4988513 191.001213,87.0864276 L180.561472,93.1138402 C179.543474,93.7019171 178.717664,95.2789641 178.717664,96.6367961 L178.717664,114.342665 C178.717664,115.700497 179.543474,116.324609 180.561472,115.736532" id="Fill-76" fill="#F8D754"></path>
                    <path d="M190.419342,108.70013 C191.015928,108.356292 191.680079,107.209668 191.680079,106.187665 L191.680079,88.4797945 C191.680079,88.0979199 191.586988,87.9657903 191.584485,88.0954174 L181.145745,94.121829 C180.54916,94.4671678 179.882506,95.6167955 179.882506,96.6362956 L179.882506,114.343666 C179.882506,114.559878 179.914538,114.696512 179.912035,114.762577 C179.930553,114.753568 179.953075,114.742056 179.9781,114.728543 L190.419342,108.70013 Z M178.771917,116.842617 C177.996156,116.394177 177.55222,115.484285 177.55222,114.343666 L177.55222,96.6362956 C177.55222,94.8540473 178.594242,92.9061365 179.9781,92.105351 L190.41684,86.0789393 C191.225133,85.6079773 192.089481,85.573944 192.788166,85.9788411 C193.564427,86.427281 194.010365,87.3376741 194.010365,88.4797945 L194.010365,106.187665 C194.010365,107.971915 192.968343,109.919826 191.584485,110.716608 L181.143243,116.744521 C180.708817,116.997269 180.258375,117.122391 179.825951,117.122391 C179.454586,117.122391 179.095234,117.0293 178.771917,116.842617 L178.771917,116.842617 Z" id="Fill-78" fill="#14100D"></path>
                    <path d="M186.218822,107.042103 C187.23682,106.454026 188.06263,104.876979 188.06263,103.519147 L188.06263,88.7831921 L191.001513,87.0865277 C192.019512,86.4984509 192.844822,87.1225631 192.844822,88.4803951 L192.844822,106.186264 C192.844822,107.544096 192.019512,109.121643 191.001513,109.70922 L180.561272,115.736632 C179.543273,116.324209 178.717964,115.700597 178.717964,114.342765 L178.717964,111.372851 L186.218822,107.042103 Z" id="Fill-80" fill="#3D68EC"></path>
                    <path d="M191.584585,88.0977697 L189.226772,89.4561022 L189.226772,103.520399 C189.226772,105.307151 188.18425,107.25256 186.800893,108.049341 L179.882606,112.045261 L179.882606,114.341514 C179.882606,114.726391 179.980702,114.856018 179.9782,114.728393 L190.419442,108.69998 C191.015527,108.356643 191.680179,107.207015 191.680179,106.185513 L191.680179,88.4801448 C191.680179,88.1933635 191.625626,88.0477206 191.598099,88.0477206 C191.58909,88.0477206 191.584585,88.0637363 191.584585,88.0977697 M178.772017,116.842467 C177.996256,116.394527 177.55232,115.484134 177.55232,114.341514 L177.55232,110.69844 L185.63575,106.032863 L185.63575,106.030361 C186.231835,105.689026 186.896487,104.542401 186.896487,103.520399 L186.896487,88.109281 L190.41694,86.0792897 C191.224732,85.6078272 192.089581,85.5737938 192.788266,85.978691 C193.564528,86.4271309 194.010465,87.337524 194.010465,88.4801448 L194.010465,106.185513 C194.010465,107.971765 192.968443,109.919676 191.584585,110.716458 L181.143343,116.744871 C180.708917,116.997619 180.257974,117.122742 179.82555,117.122742 C179.454687,117.122742 179.095334,117.02915 178.772017,116.842467" id="Fill-82" fill="#14100D"></path>
                    <path d="M202.641532,141.552957 L213.081273,135.525544 C214.099772,134.937467 214.925081,133.36042 214.925081,132.002588 L214.925081,114.29672 C214.925081,112.939388 214.099772,112.315276 213.081273,112.902852 L202.641532,118.930265 C201.623533,119.518342 200.797723,121.095389 200.797723,122.453221 L200.797723,140.159089 C200.797723,141.516921 201.623533,142.141034 202.641532,141.552957" id="Fill-84" fill="#F8D754"></path>
                    <path d="M213.664645,113.910641 L203.223402,119.939055 C202.627318,120.282892 201.962666,121.432019 201.962666,122.454022 L201.962666,140.15939 C201.962666,140.375602 201.994697,140.511735 201.992195,140.5778 C202.010212,140.568791 202.033235,140.55728 202.055757,140.543767 L212.499502,134.517355 C213.095587,134.174018 213.760239,133.024391 213.760239,132.002889 L213.760239,114.29752 C213.760239,114.008737 213.705685,113.862594 213.678158,113.862594 C213.669149,113.862594 213.664645,113.878609 213.664645,113.910641 M200.854579,142.660343 C200.078317,142.211903 199.63238,141.30151 199.63238,140.15939 L199.63238,122.454022 C199.63238,120.667269 200.674402,118.719358 202.05826,117.922576 L212.499502,111.894163 C213.307294,111.423201 214.172143,111.389167 214.870828,111.796567 C215.646589,112.245007 216.090525,113.1549 216.090525,114.29752 L216.090525,132.002889 C216.090525,133.789141 215.048502,135.737552 213.664645,136.533833 L203.225905,142.560245 C202.790978,142.812993 202.338034,142.937615 201.903608,142.937615 C201.534746,142.937615 201.175393,142.846526 200.854579,142.660343" id="Fill-86" fill="#14100D"></path>
                    <path d="M208.298881,132.858528 C209.31688,132.270451 210.14269,130.693404 210.14269,129.335572 L210.14269,114.599617 L213.081573,112.902952 C214.099571,112.314876 214.924881,112.938988 214.924881,114.29682 L214.924881,132.002688 C214.924881,133.36052 214.099571,134.937567 213.081573,135.525644 L202.641331,141.553057 C201.623333,142.140633 200.798023,141.517021 200.798023,140.159189 L200.798023,137.189276 L208.298881,132.858528 Z" id="Fill-88" fill="#3D68EC"></path>
                    <path d="M213.664645,113.910641 L211.306832,115.273978 L211.306832,129.335772 C211.306832,131.122024 210.264309,133.069935 208.880952,133.866717 L201.962666,137.863137 L201.962666,140.15939 C201.962666,140.541264 202.060762,140.671392 202.05826,140.543767 L212.499502,134.517355 C213.095587,134.174018 213.760239,133.024391 213.760239,132.002889 L213.760239,114.29752 C213.760239,114.008737 213.705685,113.862594 213.678158,113.862594 C213.669149,113.862594 213.664645,113.878609 213.664645,113.910641 M200.854579,142.660343 C200.078317,142.211903 199.63238,141.30151 199.63238,140.15939 L199.63238,136.515816 L207.715809,131.850239 L207.715809,131.848237 C208.311894,131.506902 208.976546,130.359777 208.976546,129.335772 L208.976546,113.926657 L212.499502,111.894163 C213.307294,111.423201 214.172143,111.389167 214.870828,111.796567 C215.646589,112.245007 216.090525,113.1549 216.090525,114.29752 L216.090525,132.002889 C216.090525,133.789141 215.048502,135.737552 213.664645,136.533833 L203.225905,142.560245 C202.790978,142.812993 202.338034,142.937615 201.903608,142.937615 C201.534746,142.937615 201.175393,142.846526 200.854579,142.660343" id="Fill-90" fill="#14100D"></path>
                    <path d="M162.450706,186.945735 L162.450706,143.224346 C162.450706,140.745415 163.796026,138.461174 165.964653,137.259495 L183.726577,127.416339 C185.932741,126.19364 188.641398,127.789205 188.641398,130.31168 L188.641398,174.392921 L162.450706,186.945735 Z" id="Fill-92" fill="#000000"></path>
                    <path d="M162.450706,186.945735 L162.450706,143.224346 C162.450706,140.745415 163.796026,138.461174 165.964653,137.259495 L183.726577,127.416339 C185.932741,126.19364 188.641398,127.789205 188.641398,130.31168 L188.641398,174.392921 L162.450706,186.945735 Z" id="Stroke-94" stroke="#000000" stroke-width="4"></path>
                    <polygon id="Fill-96" fill="#FFFFFF" points="55.7688566 181.470314 55.7688566 181.447291 55.7688566 181.454298 55.7688566 181.474318 55.7688566 181.498842 55.7688566 181.510353 55.7688566 181.488331"></polygon>
                    <polygon id="Fill-98" fill="#000000" points="55.5188113 181.510453 55.5188113 181.447391 56.0193023 181.499442"></polygon>
                    <polygon id="Fill-100" fill="#FFFFFF" points="55.7688566 180.096766 55.7688566 180.073744 55.7688566 180.081752 55.7688566 180.102772 55.7688566 180.124293 55.7688566 180.135805 55.7688566 180.114784"></polygon>
                    <polygon id="Fill-102" fill="#000000" points="55.5188113 180.135604 55.5188113 180.073544 56.0193023 180.124594"></polygon>
                    <polygon id="Fill-104" fill="#FFFFFF" points="55.7688566 181.126176 55.7688566 181.103154 55.7688566 181.112162 55.7688566 181.133183 55.7688566 181.154204 55.7688566 181.167717 55.7688566 181.144194"></polygon>
                    <polygon id="Fill-106" fill="#000000" points="55.5188113 181.167867 55.5188113 181.102803 56.0193023 181.154854"></polygon>
                    <polygon id="Fill-108" fill="#FFFFFF" points="55.7688566 181.98607 55.7688566 181.989573 55.7688566 182.015098 55.7688566 182.025108 55.7688566 182.002586"></polygon>
                    <polygon id="Fill-110" fill="#000000" points="55.5188113 182.025108 56.0193023 181.98607 56.0193023 182.002586"></polygon>
                    <polygon id="Fill-112" fill="#FFFFFF" points="55.7688566 182.66979 55.7688566 182.678299 55.7688566 182.699319 55.7688566 182.710831 55.7688566 182.691812"></polygon>
                    <polygon id="Fill-114" fill="#000000" points="55.5188113 182.710881 56.0193023 182.66984 56.0193023 182.691862"></polygon>
                    <path d="M27.6051293,176.199994 C27.6051293,178.339092 29.33883,180.073794 31.4784288,180.073794 C33.6170267,180.073794 35.3512279,178.339092 35.3512279,176.199994 L35.3512279,129.258947 C35.3512279,127.119849 33.6170267,125.385647 31.4784288,125.385647 C29.33883,125.385647 27.6051293,127.119849 27.6051293,129.258947 L27.6051293,176.199994 Z" id="Fill-116" fill="#000000"></path>
                    <path d="M31.4781285,126.386579 C29.8945752,126.386579 28.6063114,127.674843 28.6063114,129.258897 L28.6063114,176.199944 C28.6063114,177.783998 29.8945752,179.072762 31.4781285,179.072762 C33.0616819,179.072762 34.3499457,177.783998 34.3499457,176.199944 L34.3499457,129.258897 C34.3499457,127.674843 33.0616819,126.386579 31.4781285,126.386579 M31.4781285,181.074726 C28.7904921,181.074726 26.6043476,178.88758 26.6043476,176.199944 L26.6043476,129.258897 C26.6043476,126.57126 28.7904921,124.384615 31.4781285,124.384615 C34.165765,124.384615 36.3519095,126.57126 36.3519095,129.258897 L36.3519095,176.199944 C36.3519095,178.88758 34.165765,181.074726 31.4781285,181.074726" id="Fill-118" fill="#000000"></path>
                    <path d="M1.50147287,120.646348 C1.50147287,137.201588 14.9221379,150.623254 31.4783788,150.623254 C48.0336187,150.623254 61.4552847,137.201588 61.4552847,120.646348 C61.4552847,104.090608 48.0336187,90.6699429 31.4783788,90.6699429 C14.9221379,90.6699429 1.50147287,104.090608 1.50147287,120.646348" id="Fill-120" fill="#05B173"></path>
                    <g id="Group-124" transform="translate(0, 89.1684)">
                        <mask id="mask-8" fill="white">
                            <use xlink:href="#path-7"></use>
                        </mask>
                        <g id="Clip-123"></g>
                        <path d="M31.4781285,3.00294575 C15.7767262,3.00294575 3.0026955,15.776476 3.0026955,31.4783788 C3.0026955,47.1797811 15.7767262,59.9533113 31.4781285,59.9533113 C47.1795309,59.9533113 59.9540621,47.1797811 59.9540621,31.4783788 C59.9540621,15.776476 47.1795309,3.00294575 31.4781285,3.00294575 M31.4781285,62.9562571 C14.1211021,62.9562571 -0.000250245479,48.8349047 -0.000250245479,31.4783788 C-0.000250245479,14.1213524 14.1211021,0 31.4781285,0 C48.8356555,0 62.9570078,14.1213524 62.9570078,31.4783788 C62.9570078,48.8349047 48.8356555,62.9562571 31.4781285,62.9562571" id="Fill-122" fill="#000000" mask="url(#mask-8)"></path>
                    </g>
                    <path d="M29.4579468,161.377704 C29.9924712,161.912729 30.8603225,161.91373 31.3953473,161.377704 C31.9303722,160.84368 31.9303722,159.975829 31.3953473,159.440804 L18.7894816,146.833937 C18.2539563,146.298912 17.3861049,146.298912 16.8515806,146.833937 C16.3160553,147.368962 16.3160553,148.236813 16.8515806,148.771838 L29.4579468,161.377704 Z" id="Fill-125" fill="#000000"></path>
                    <path d="M17.8202308,147.434076 C17.7631748,147.434076 17.6535673,147.447589 17.559475,147.541681 C17.4648822,147.636274 17.451369,147.745882 17.451369,147.802938 C17.451369,147.859994 17.4653827,147.969601 17.559475,148.064194 L30.1663417,160.67056 C30.2599336,160.764652 30.3695411,160.778666 30.426597,160.778666 C30.483653,160.778666 30.5932605,160.764652 30.6873528,160.67056 C30.7814451,160.576468 30.7959594,160.46686 30.7959594,160.409804 C30.7959594,160.352748 30.7814451,160.24264 30.6873528,160.147547 L18.0814871,147.542182 C17.9873948,147.44809 17.8772868,147.434076 17.8202308,147.434076 M30.426597,162.78063 L30.4260966,162.78063 C29.792475,162.78013 29.1968908,162.533388 28.7499523,162.084948 L16.1435861,149.479582 C15.6956467,149.031643 15.4494051,148.436059 15.4494051,147.802938 C15.4494051,147.169316 15.6961472,146.573732 16.1440866,146.126293 C16.591025,145.678854 17.1866092,145.432112 17.8202308,145.432112 C18.4533519,145.432112 19.0489361,145.678354 19.4968755,146.126293 L32.1032418,158.732659 C32.5516816,159.1816 32.7979232,159.776683 32.7979232,160.409804 C32.7979232,161.043426 32.5511812,161.63901 32.1027413,162.085949 C31.6563033,162.533888 31.0602186,162.78063 30.426597,162.78063" id="Fill-127" fill="#000000"></path>
                    <path d="M10.4297311,153.255436 C13.97621,156.801915 19.7258501,156.801915 23.272329,153.255436 C26.818808,149.708957 26.818808,143.959317 23.2728295,140.413339 C19.7258501,136.865859 13.97621,136.866359 10.4297311,140.413339 C6.88375263,143.959317 6.88375263,149.708957 10.4297311,153.255436" id="Fill-129" fill="#05B173"></path>
                    <path d="M11.4912724,152.193645 C14.4476725,155.149044 19.2563896,155.148043 22.2107877,152.193645 C25.1656863,149.238746 25.1656863,144.430029 22.2112882,141.47463 C20.7793836,140.042725 18.8760165,139.253951 16.8515305,139.253951 C14.8270446,139.253951 12.923177,140.043226 11.4912724,141.47463 C8.53687427,144.429528 8.53737476,149.238246 11.4912724,152.193645 M16.8510301,157.411263 C14.141372,157.411263 11.4312135,156.379751 9.36818975,154.316727 C5.24264278,150.19068 5.24264278,143.477595 9.36818975,139.351547 C11.3671506,137.352586 14.0247576,136.251006 16.8510301,136.251006 C19.677803,136.251006 22.33541,137.352086 24.3343709,139.351547 C28.4599178,143.477595 28.4599178,150.19118 24.3338704,154.316727 C22.2708466,156.379751 19.5611886,157.411263 16.8510301,157.411263" id="Fill-131" fill="#000000"></path>
                </g>
            </g>
        </g>
    </g>
</svg>