<?xml version="1.0" encoding="UTF-8"?><svg id="Layer_1" xmlns="http://www.w3.org/2000/svg" xmlns:xlink="http://www.w3.org/1999/xlink" viewBox="0 0 720 720"><defs><style>.cls-1{mask:url(#mask);}.cls-2{mask:url(#mask-2-2);}.cls-3{fill:#fff;}.cls-3,.cls-4,.cls-5,.cls-6,.cls-7{fill-rule:evenodd;}.cls-4{fill:#f8d754;}.cls-8{mask:url(#mask-1);}.cls-5{fill:#f4d9dc;}.cls-7{fill:#05b173;}</style><mask id="mask" x="356.73" y="439.2" width="218.33" height="208.72" maskUnits="userSpaceOnUse"><g id="mask-2"><polygon id="path-1" class="cls-3" points="356.73 439.2 575.06 439.2 575.06 647.92 356.73 647.92 356.73 439.2"/></g></mask><mask id="mask-1" x="356.73" y="339.54" width="218.33" height="208.73" maskUnits="userSpaceOnUse"><g id="mask-4"><polygon id="path-3" class="cls-3" points="356.73 339.54 575.06 339.54 575.06 548.27 356.73 548.27 356.73 339.54"/></g></mask><mask id="mask-2-2" x="356.73" y="237.91" width="218.33" height="208.71" maskUnits="userSpaceOnUse"><g id="mask-6"><polygon id="path-5" class="cls-3" points="356.73 237.91 575.06 237.91 575.06 446.62 356.73 446.62 356.73 237.91"/></g></mask></defs><g id="website"><g id="Hubs"><g id="Group-2"><g id="Group-70"><path id="Fill-1" class="cls-6" d="M568.2,443.74l-212.12-122.43c-2.61-1.24-4.58-.59-7.19.72l-189.89,109.66c-3.27,2.12-5.23,4.31-7.19,7.64l212.12,122.4c1.96-3.37,3.92-5.52,6.87-7.65l190.22-109.66c2.28-1.31,4.57-1.96,7.19-.69"/><path id="Fill-3" class="cls-6" d="M363.92,565.59c-.66,0-1.31-.2-1.96-.53l-212.12-122.4c-.98-.52-1.63-1.37-1.96-2.39,0-1.01,0-2.06.65-2.97,1.96-3.56,4.25-6.28,8.5-8.86l189.89-109.75c3.27-1.67,6.54-2.81,10.78-.85l212.45,122.56c1.64,1.02,2.29,3.27,1.31,5.1-.98,1.83-2.94,2.55-4.91,1.7-.98-.49-1.63-.52-3.92.62l-189.89,109.59c-2.29,1.54-3.92,3.1-5.56,6.34-.98,1.18-1.96,1.83-3.27,1.83M157.36,438.09l205.25,118.55c1.63-2.16,3.6-3.98,6.21-5.78l188.59-108.84-203.29-117.37c-.65-.3-1.31-.36-3.6.82l-189.57,109.52c-1.31.95-2.62,1.86-3.6,3.1"/><path id="Fill-5" class="cls-7" d="M571.14,450.34c0-3.27-.98-5.56-2.94-6.6-1.96-1.08-4.58-.95-7.19.69l-190.22,109.66c-2.62,1.63-5.23,4.45-6.87,7.65v.03c-1.96,3.21-3.27,6.84-3.27,10.1v64.88c0,3.27,1.31,5.56,3.27,6.64,1.63,1.08,4.25.91,6.87-.72l190.22-109.62c5.55-3.3,10.13-11.24,10.13-17.78v-64.91Z"/><g id="Group-9"><g class="cls-1"><path id="Fill-7" class="cls-6" d="M366.54,647.92c-1.63,0-3.27-.42-4.57-1.21-3.27-1.83-5.23-5.46-5.23-9.97v-64.88c0-3.82,1.31-8.1,3.6-12.02,2.29-3.96,5.56-7.16,8.83-9.09l189.9-109.66c3.92-2.25,7.84-2.52,11.11-.69,2.94,1.8,4.9,5.43,4.9,9.94v64.91c0,7.87-5.23,17.15-12.09,21.08l-190.22,109.66c-1.96,1.28-4.25,1.93-6.21,1.93M565.58,446.88c-.65,0-1.63.26-2.61.88l-190.22,109.65c-1.96,1.21-4.25,3.5-5.56,6.24-1.64,2.74-2.62,5.75-2.62,8.2v64.88c0,1.67.33,2.91.98,3.3.66.33,1.64.29,3.6-.69l189.9-109.65c4.24-2.58,8.17-9.32,8.17-14.44v-64.91c0-1.96-.33-2.98-.98-3.27-.33-.13-.33-.2-.66-.2"/></g></g><polygon id="Fill-10" class="cls-4" points="541.07 514.34 559.37 503.75 559.37 482.6 541.07 493.19 541.07 514.34"/><path id="Fill-12" class="cls-6" d="M541.07,518.2c-.66,0-1.31-.2-1.96-.53-.98-.68-1.64-1.96-1.64-3.33v-21.15c0-1.37.66-2.65,1.64-3.33l18.3-10.56c1.31-.68,2.94-.72,3.92,0,1.31.69,1.96,1.93,1.96,3.3v21.15c0,1.41-.65,2.65-1.96,3.33l-18.3,10.59c-.66.33-1.3.53-1.96.53h0ZM544.99,495.42v12.29l10.79-6.15v-12.28l-10.79,6.14Z"/><path id="Fill-14" class="cls-5" d="M363.92,561.73l-212.12-122.4v.04c-1.96,3.46-2.94,6.11-2.94,10.1v64.88c0,2.84.33,4.94,2.94,6.63l212.12,122.4c-2.62-1.7-2.94-3.79-3.27-6.64v-64.88c.33-3.98,1.31-6.63,3.27-10.1v-.03Z"/><path id="Fill-16" class="cls-6" d="M363.92,647.2c-.66,0-1.31-.13-1.96-.49l-212.12-122.4c-4.25-2.84-4.9-6.37-4.9-9.8v-65.04c0-5.03,1.31-8.27,3.27-11.96.65-.88,1.31-1.57,2.61-1.86.98-.3,1.96-.13,2.94.36l211.79,122.4c1.96,1.05,2.62,3.34,1.64,5.16-1.96,3.33-2.29,5.4-2.62,8.47v64.71c0,2.39.65,2.85,1.31,3.47,1.63,1.18,2.29,3.49,1.31,5.23-.98,1.14-2.29,1.76-3.27,1.76h0ZM153.44,444.75c-.66,1.57-.66,3.04-.98,4.87v64.71c.33,2.35.65,2.84,1.63,3.46l202.64,117.17v-63.11c.33-3.46.98-6.11,1.96-8.59l-205.25-118.52Z"/><polygon id="Fill-18" class="cls-4" points="510.67 531.89 528.98 521.33 528.98 500.16 510.67 510.74 510.67 531.89"/><path id="Fill-20" class="cls-6" d="M510.67,535.75c-.65,0-1.31-.17-1.96-.52-.98-.68-1.96-1.93-1.96-3.33v-21.15c0-1.37.98-2.65,1.96-3.33l18.63-10.56c.98-.69,2.28-.69,3.6,0,1.3.69,1.96,1.93,1.96,3.3v21.18c0,1.37-.66,2.65-1.96,3.34l-18.3,10.55c-.66.36-1.31.52-1.96.52h0ZM514.6,512.97v12.29l10.79-6.15v-12.29l-10.79,6.14Z"/><path id="Fill-22" class="cls-6" d="M568.2,344.06l-212.12-122.37c-2.61-1.31-4.58-.62-7.19.69l-189.89,109.65c-3.27,2.13-5.23,4.28-7.19,7.65l212.12,122.4c1.96-3.36,3.92-5.52,6.87-7.65l190.22-109.65c2.28-1.31,4.57-1.96,7.19-.72"/><path id="Fill-24" class="cls-6" d="M363.92,465.93c-.66,0-1.31-.16-1.96-.52l-212.12-122.4c-.98-.52-1.63-1.4-1.96-2.38,0-1.02,0-2.06.65-2.98,1.96-3.53,4.25-6.27,8.5-8.86l189.89-109.75c3.27-1.67,6.54-2.84,10.78-.85l212.45,122.53c1.64,1.04,2.29,3.3,1.31,5.13-.98,1.83-3.27,2.58-4.91,1.7-.98-.46-1.63-.52-3.92.65l-189.89,109.56c-2.29,1.57-3.92,3.1-5.56,6.34-.98,1.17-1.96,1.83-3.27,1.83M157.36,338.43l205.25,118.55c1.63-2.16,3.6-3.99,6.21-5.79l188.59-108.87-203.29-117.33c-.65-.3-1.31-.36-3.6.78l-189.57,109.55c-1.31.95-2.62,1.87-3.6,3.11"/><path id="Fill-26" class="cls-7" d="M571.14,350.72c0-3.27-.98-5.59-2.94-6.67-1.96-1.05-4.58-.92-7.19.72l-190.22,109.65c-2.62,1.64-5.23,4.45-6.87,7.65-1.96,3.24-3.27,6.87-3.27,10.13v64.88c0,3.27,1.31,5.56,3.27,6.64,1.63,1.08,4.25.95,6.87-.69l190.22-109.69c2.61-1.63,5.23-4.41,7.19-7.65,1.96-3.2,2.94-6.83,2.94-10.1v-64.88Z"/><g id="Group-30"><g class="cls-8"><path id="Fill-28" class="cls-6" d="M366.54,548.27c-1.63,0-3.27-.43-4.57-1.21-3.27-1.8-5.23-5.46-5.23-9.97v-64.88c0-3.82,1.31-8.1,3.6-12.06,2.29-3.92,5.56-7.13,8.83-9.06l189.9-109.65c3.92-2.26,7.84-2.52,11.11-.72,2.94,1.83,4.9,5.46,4.9,10v64.88c0,3.82-1.31,8.1-3.59,12.03-2.29,3.92-5.23,7.16-8.5,9.05l-190.22,109.66c-1.96,1.27-4.25,1.93-6.21,1.93M565.58,347.23c-.65,0-1.63.23-2.61.88l-190.22,109.66c-1.96,1.21-4.25,3.5-5.56,6.24-1.64,2.75-2.62,5.72-2.62,8.2v64.88c0,1.67.33,2.91.98,3.3.66.32,1.64.29,3.6-.69l189.9-109.66c1.96-1.24,4.24-3.53,5.88-6.24,1.63-2.75,2.29-5.72,2.29-8.2v-64.88c0-1.67-.33-2.94-.98-3.33-.33-.1-.33-.16-.66-.16"/></g></g><polygon id="Fill-31" class="cls-4" points="541.07 414.68 559.37 404.13 559.37 382.95 541.07 393.54 541.07 414.68"/><path id="Fill-33" class="cls-6" d="M541.07,418.54c-.66,0-1.31-.2-1.96-.52-.98-.68-1.64-1.96-1.64-3.33v-21.15c0-1.37.66-2.65,1.64-3.33l18.3-10.56c1.31-.72,2.94-.72,3.92,0,1.31.66,1.96,1.93,1.96,3.3v21.18c0,1.34-.65,2.61-1.96,3.3l-18.3,10.59c-.66.33-1.3.52-1.96.52h0ZM544.99,395.76v12.26l10.79-6.11v-12.28l-10.79,6.14Z"/><path id="Fill-35" class="cls-5" d="M363.92,462.08l-212.12-122.4c-1.96,3.5-2.94,6.15-2.94,10.1v64.91c0,2.84.33,4.94,2.94,6.64l212.12,122.4c-2.62-1.7-2.94-3.8-3.27-6.64v-64.88c.33-3.99,1.31-6.63,3.27-10.13"/><path id="Fill-37" class="cls-6" d="M363.92,547.58c-.66,0-1.31-.16-1.96-.52l-212.12-122.4c-4.25-2.85-4.9-6.38-4.9-9.81v-65.07c0-5,1.31-8.27,3.27-11.93.65-.92,1.31-1.57,2.61-1.86.98-.3,1.96-.16,2.94.39l211.79,122.37c1.96,1.05,2.62,3.33,1.64,5.17-1.96,3.33-2.29,5.39-2.62,8.46v64.71c0,2.39.65,2.84,1.31,3.5,1.63,1.14,2.29,3.43,1.31,5.2-.98,1.14-2.29,1.8-3.27,1.8h0ZM153.44,345.1c-.66,1.57-.66,3.04-.98,4.87v64.71c.33,2.39.65,2.84,1.63,3.46l202.64,117.18v-63.12c.33-3.46.98-6.08,1.96-8.6l-205.25-118.51Z"/><polygon id="Fill-39" class="cls-4" points="510.67 432.24 528.98 421.68 528.98 400.5 510.67 411.09 510.67 432.24"/><path id="Fill-41" class="cls-6" d="M510.67,436.09c-.65,0-1.31-.16-1.96-.52-.98-.68-1.96-1.96-1.96-3.33v-21.14c0-1.38.98-2.65,1.96-3.34l18.63-10.56c.98-.68,2.28-.68,3.6,0,1.3.69,1.96,1.96,1.96,3.3v21.18c0,1.38-.66,2.64-1.96,3.34l-18.3,10.55c-.66.36-1.31.52-1.96.52h0ZM514.6,413.31v12.29l10.79-6.14v-12.29l-10.79,6.14Z"/><path id="Fill-43" class="cls-5" d="M568.2,242.44l-212.12-122.43c-2.61-1.24-4.58-.59-7.19.72l-189.89,109.65c-3.27,2.12-5.23,4.32-7.19,7.65l212.12,122.4c1.96-3.37,3.92-5.52,6.87-7.65l190.22-109.66c2.28-1.31,4.57-1.96,7.19-.68"/><path id="Fill-45" class="cls-6" d="M363.92,364.29c-.66,0-1.31-.16-1.96-.52l-212.12-122.4c-.98-.52-1.63-1.37-1.96-2.39,0-1.02,0-2.06.65-2.94,1.96-3.56,4.25-6.31,8.5-8.9l189.89-109.72c3.27-1.67,6.54-2.88,10.78-.85l212.45,122.53c1.64,1.02,2.29,3.27,1.31,5.1-.98,1.83-3.27,2.55-4.91,1.7-.98-.46-1.63-.52-3.92.62l-189.89,109.59c-2.29,1.57-3.92,3.14-5.56,6.34-.98,1.18-1.96,1.83-3.27,1.83M157.36,236.79l205.25,118.55c1.63-2.16,3.6-3.99,6.21-5.79l188.59-108.83-203.29-117.37c-.65-.29-1.31-.36-3.6.82l-189.57,109.53c-1.31.95-2.62,1.86-3.6,3.1"/><path id="Fill-47" class="cls-7" d="M571.14,249.08c0-3.27-.98-5.59-2.94-6.64-1.96-1.08-4.58-.92-7.19.68l-190.22,109.66c-2.62,1.63-5.23,4.44-6.87,7.65v.03c-1.96,3.2-3.27,6.83-3.27,10.1v64.88c0,3.27,1.31,5.56,3.27,6.63,1.63,1.08,4.25.92,6.87-.69l190.22-109.65c2.61-1.63,5.23-4.45,7.19-7.68,1.96-3.2,2.94-6.83,2.94-10.1v-64.88Z"/><g id="Group-51"><g class="cls-2"><path id="Fill-49" class="cls-6" d="M366.54,446.62c-1.63,0-3.27-.43-4.57-1.21-3.27-1.8-5.23-5.46-5.23-9.97v-64.87c0-3.82,1.31-8.11,3.6-12.03,2.29-3.92,5.56-7.15,8.83-9.09l189.9-109.65c3.92-2.26,7.84-2.48,11.11-.69,2.94,1.8,4.9,5.46,4.9,9.97v64.88c0,3.82-1.31,8.11-3.59,12.03-2.29,3.96-5.23,7.16-8.5,9.06l-190.22,109.65c-1.96,1.27-4.25,1.93-6.21,1.93M565.58,245.58c-.65,0-1.63.23-2.61.88l-190.22,109.66c-1.96,1.24-4.25,3.49-5.56,6.24-1.64,2.75-2.62,5.75-2.62,8.2v64.87c0,1.99.65,3.01.98,3.3.66.29,1.64.29,3.6-.69l189.9-109.65c1.96-1.24,4.24-3.5,5.88-6.24,1.63-2.74,2.29-5.76,2.29-8.2v-64.88c0-2-.33-3.01-.98-3.3-.33-.13-.33-.2-.66-.2"/></g></g><polygon id="Fill-52" class="cls-4" points="541.07 313.04 559.37 302.48 559.37 281.3 541.07 291.89 541.07 313.04"/><path id="Fill-54" class="cls-6" d="M541.07,316.89c-.66,0-1.31-.16-1.96-.52-.98-.69-1.64-1.96-1.64-3.34v-21.15c0-1.37.66-2.64,1.64-3.33l18.3-10.56c1.31-.72,2.94-.72,3.92,0,1.31.69,1.96,1.93,1.96,3.3v21.18c0,1.37-.65,2.65-1.96,3.34l-18.3,10.56c-.66.36-1.3.52-1.96.52h0ZM544.99,294.11v12.29l10.79-6.14v-12.29l-10.79,6.14Z"/><path id="Fill-56" class="cls-5" d="M363.92,360.43l-212.12-122.4v.03c-1.96,3.46-2.94,6.11-2.94,10.1v64.88c0,2.84.33,4.94,2.94,6.64l212.12,122.4c-2.62-1.7-2.94-3.79-3.27-6.63v-64.88c.33-3.96,1.31-6.64,3.27-10.1v-.03Z"/><path id="Fill-58" class="cls-6" d="M363.92,445.93c-.66,0-1.31-.16-1.96-.52l-212.12-122.4c-4.25-2.84-4.9-6.37-4.9-9.8v-65.04c0-5.04,1.31-8.27,3.27-11.96.65-.88,1.31-1.57,2.61-1.86.98-.29,1.96-.13,2.94.39l211.79,122.4c1.96,1.02,2.62,3.3,1.64,5.13-1.96,3.33-2.29,5.39-2.62,8.46v64.72c0,2.38.65,2.85,1.31,3.5,1.63,1.14,2.29,3.46,1.31,5.19-.98,1.15-2.29,1.8-3.27,1.8h0ZM153.44,243.46c-.66,1.57-.66,3.04-.98,4.87v64.71c.33,2.35.65,2.84,1.63,3.46l202.64,117.18v-63.11c.33-3.47.98-6.08,1.96-8.6l-205.25-118.51Z"/><polygon id="Fill-60" class="cls-4" points="510.67 330.62 528.98 320.03 528.98 298.89 510.67 309.44 510.67 330.62"/><path id="Fill-62" class="cls-6" d="M510.67,334.44c-.65,0-1.31-.16-1.96-.52-.98-.69-1.96-1.93-1.96-3.3v-21.18c0-1.37.98-2.65,1.96-3.3l18.63-10.59c.98-.69,2.28-.69,3.6,0,1.3.68,1.96,1.96,1.96,3.33v21.14c0,1.37-.66,2.65-1.96,3.33l-18.3,10.56c-.66.36-1.31.52-1.96.52h0ZM514.6,311.67v12.29l10.79-6.14v-12.26l-10.79,6.11Z"/><path id="Fill-64" class="cls-6" d="M379.29,396.12c-1.31,0-2.62-.68-3.27-1.92-.98-1.83-.32-4.18,1.31-5.23l114.39-66.02c1.63-1.04,4.25-.42,5.22,1.41.98,1.87.33,4.19-1.31,5.26l-114.39,65.99c-.66.36-1.31.52-1.96.52"/><path id="Fill-66" class="cls-6" d="M379.29,497.77c-1.31,0-2.62-.68-3.27-1.93-.98-1.83-.32-4.19,1.31-5.23l114.39-65.99c1.63-1.08,4.25-.46,5.22,1.37.98,1.86.33,4.21-1.31,5.26l-114.39,65.99c-.66.36-1.31.52-1.96.52"/><path id="Fill-68" class="cls-6" d="M379.29,597.42c-1.31,0-2.62-.69-3.27-1.93-.98-1.83-.32-4.19,1.31-5.23l114.39-66.02c1.63-1.05,4.25-.42,5.22,1.44.98,1.83.33,4.19-1.31,5.23l-114.39,65.99c-.66.36-1.31.52-1.96.52"/></g></g></g></g></svg>