<?xml version="1.0" encoding="UTF-8"?><svg id="Layer_1" xmlns="http://www.w3.org/2000/svg" viewBox="0 0 720 720"><defs><style>.cls-1{fill:#f4d74b;stroke:#000;stroke-miterlimit:10;stroke-width:11.38px;}</style></defs><path d="M624.99,417.23l-277.02-107c-9.81-74.7-59.05-147.06-119.76-170.51-69.37-26.8-127.46,20.4-129.75,105.43-2.28,85.02,52.1,175.67,121.48,202.46,60.72,23.45,112.79-9.78,126.37-75.44l147.87,57.11-2.77,103.28c-.44,16.3,9.99,33.67,23.28,38.81,13.3,5.14,24.43-3.91,24.87-20.21l2.77-103.28,28.08,10.84-1.37,50.86c-.44,16.3,9.99,33.67,23.28,38.81,13.3,5.14,24.43-3.91,24.87-20.21l1.37-50.86,4.78,1.84c13.95,5.39,25.64-4.1,26.1-21.21h0c.46-17.1-10.48-35.34-24.44-40.73ZM221.57,386.77c-41.96-16.21-74.85-71.03-73.47-122.45,1.38-51.42,36.52-79.97,78.47-63.76,41.96,16.21,74.85,71.03,73.47,122.45-1.38,51.42-36.52,79.97-78.47,63.76Z"/><path class="cls-1" d="M597.16,432.22l-277.02-107c-9.81-74.7-59.05-147.06-119.76-170.51-69.37-26.8-127.46,20.4-129.75,105.43-2.28,85.02,52.1,175.67,121.48,202.46,60.72,23.45,112.79-9.78,126.37-75.44l147.87,57.11-2.77,103.28c-.44,16.3,9.99,33.67,23.28,38.81,13.3,5.14,24.43-3.91,24.87-20.21l2.77-103.28,28.08,10.84-1.37,50.86c-.44,16.3,9.99,33.67,23.28,38.81,13.3,5.14,24.43-3.91,24.87-20.21l1.37-50.86,4.78,1.84c13.95,5.39,25.64-4.1,26.1-21.21h0c.46-17.1-10.48-35.34-24.44-40.73ZM193.74,401.76c-41.96-16.21-74.85-71.03-73.47-122.45,1.38-51.42,36.52-79.97,78.47-63.76,41.96,16.21,74.85,71.03,73.47,122.45-1.38,51.42-36.52,79.97-78.47,63.76Z"/></svg>