<?xml version="1.0" encoding="UTF-8"?><svg id="Layer_1" xmlns="http://www.w3.org/2000/svg" viewBox="0 0 720 720"><defs><style>.cls-1{fill:#1c1c1c;}.cls-2{fill:#151110;stroke-linecap:round;stroke-linejoin:round;}.cls-2,.cls-3{stroke:#1c1c1c;stroke-width:9.58px;}.cls-3{fill:#f3d64b;stroke-miterlimit:10;}</style></defs><path class="cls-3" d="M511.63,266.5l-75.91-44.81c-10.05-8.11-24.77-10.16-37.32-2.32l-201.38,125.72c-21.97,13.71-35.31,37.78-35.31,63.67v148.68c0,10.57,4.9,19.45,12.18,25.2h0c2.26,1.78,4.74,3.27,7.38,4.4l78.75,46.97,85.35-124.67,49.13-27.56c32.81-18.4,53.12-53.09,53.12-90.7v-31.08l64.02-93.51Z"/><polygon class="cls-1" points="169.79 374.88 284.75 435.41 323.26 367.17 229.38 324.89 197.02 345.09 169.79 374.88"/><polygon class="cls-1" points="387.56 227.29 502.52 287.82 530.52 277.88 445.76 226.53 414.43 214.44 387.56 227.29"/><path class="cls-3" d="M292.52,634.63l184.88-103.71c32.81-18.4,53.12-53.09,53.12-90.7v-144.43c0-25.26-27.78-40.67-49.21-27.29l-201.38,125.72c-21.97,13.71-35.31,37.78-35.31,63.67v148.68c0,24.59,26.47,40.09,47.91,28.06Z"/><path class="cls-2" d="M427.18,479l-12.65-43.17c.33-.39.66-.77.98-1.16,12.62-15.56,15.44-34.18,6.3-41.58-9.14-7.41-26.77-.8-39.39,14.75-12.62,15.56-15.44,34.18-6.3,41.58,2.46,2,5.54,2.96,8.97,3.02l-8.27,57.9,50.35-31.33Z"/><path class="cls-3" d="M459.21,123.88c-4.8-47.07-45.93-71.09-95.98-71.09h0c-42.8,0-130.7,39.76-130.7,156.26v29.3h0v94.36c0,16.34,13.25,23.2,29.59,23.2s29.59-6.86,29.59-23.2v-134.46c0-46.12,37.39-83.5,83.5-83.5h0c13.97,0,25.29,11.32,25.29,25.29v106.52c0,16.34,13.25,23.2,29.59,23.2h0c16.34,0,29.59-6.86,29.59-23.2v-122.67h-.47Z"/></svg>