<?xml version="1.0" encoding="UTF-8"?><svg id="Layer_1" xmlns="http://www.w3.org/2000/svg" viewBox="0 0 720 720"><defs><style>.cls-1,.cls-2,.cls-3,.cls-4,.cls-5,.cls-6{fill-rule:evenodd;}.cls-1,.cls-4{fill:#3d68ec;}.cls-1,.cls-5,.cls-6{stroke:#000;stroke-miterlimit:10;}.cls-1,.cls-6{stroke-width:20.64px;}.cls-2{fill:#fff;}.cls-5{stroke-width:9.78px;}</style></defs><path id="Fill-7" class="cls-5" d="M472.55,212.97c-6.29,15.71,24.13,42.57,36.03,31.03l40.79-46.1c-13.47,12.51-46.57-20.33-34.2-33.9-3.03,3.1-41.37,45.77-42.68,48.95"/><path id="Fill-11" class="cls-5" d="M551.32,185.96h0c-1.44-5.23-4.84-10.49-9.2-14.87h0c-4.37-4.32-9.71-7.7-14.97-9.09-5.26-1.38-9.45-.51-11.91,2.02-2.52,2.51-3.33,6.73-1.89,11.96,1.44,5.23,4.83,10.55,9.2,14.87,4.37,4.32,9.71,7.7,14.97,9.09,5.26,1.38,9.39.49,11.91-2.02,2.52-2.51,3.33-6.73,1.89-11.96"/><path id="Fill-7-2" class="cls-4" d="M398.91,165.6c-149.66-18.58-312.23,304.49-185.79,380.87l109.93,63.48c-138.31-87.73,69.67-447.44,214.69-371.58-33.55-19.1-108.38-69.15-138.83-73.28"/><path id="Fill-9" class="cls-3" d="M386.52,173.34c-78.96,0-161.02,98.06-194.56,194.05-27.87,81.02-18.58,145.54,25.29,171.86l65.03,37.67c-28.9-58.32-6.71-147.08,34.58-218.3,41.29-71.74,107.86-135.73,173.4-138.83-33.03-20.13-73.8-43.35-92.38-45.93-3.61,0-7.74-.52-11.35-.52h0ZM318.91,617.17l-109.93-63.48c-51.61-30.96-63.48-102.7-33.03-191.98,19.1-54.7,52.12-107.86,90.31-146.05,43.35-42.83,90.83-63.99,133.15-58.32h0c25.8,3.1,75.35,33.55,115.09,57.8,10.32,6.19,19.61,11.87,26.84,16l-8.26,14.45c-38.71-20.64-78.96-4.13-105.8,13.42-35.61,22.71-69.67,61.41-96.51,107.86-26.84,46.45-42.83,95.48-44.9,137.79-1.55,32,4.13,74.83,41.29,98.57l-8.77,14.45.52-.52Z"/><path id="Fill-11-2" class="cls-2" d="M430.39,599.62h0c41.8-24.26,79.48-65.54,107.35-113.02h0c27.35-47.48,44.38-101.15,44.38-149.66s-17.03-82.57-44.38-98.06c-27.35-16-65.54-13.42-107.35,10.84-41.8,24.26-79.99,65.54-107.35,113.02-27.35,47.48-44.38,101.15-44.38,149.66s17.03,82.06,44.38,98.06c27.35,16,65.54,13.42,107.35-10.84"/><path id="Fill-11-3" class="cls-3" d="M447.66,472.34h0c13.32-7.73,25.32-20.88,34.2-36h0c8.71-15.13,14.14-32.22,14.14-47.68s-5.43-26.3-14.14-31.24c-8.71-5.1-20.88-4.27-34.2,3.45-13.32,7.73-25.48,20.88-34.2,36-8.71,15.13-14.14,32.22-14.14,47.68s5.43,26.14,14.14,31.24c8.71,5.1,20.88,4.27,34.2-3.45"/><path id="Fill-13" class="cls-3" d="M497.99,236.82c-19.1,0-40.77,6.71-63.48,19.61-39.22,22.71-76.38,61.93-104.25,109.93-27.87,48.51-43.35,100.12-43.35,145.54s14.45,75.86,40.25,90.83c25.8,14.97,60.9,11.35,99.09-10.84h0c39.22-22.71,75.86-61.93,103.73-109.93l2.06-3.61c26.84-47.48,41.29-97.54,41.29-141.92s-14.45-75.86-40.25-90.83c-10.32-6.19-22.19-8.77-35.61-8.77M362.78,628.52c-16,0-30.45-3.61-43.87-11.35-31.48-18.06-48.51-55.74-48.51-105.28s16-102.7,45.42-153.79c29.42-50.58,68.64-91.86,110.44-116.12,43.35-24.77,84.12-28.9,115.6-10.84,31.48,18.06,48.51,55.74,48.51,105.28s-16,102.7-45.42,153.79l-15.48,26.84v-2.58c-26.84,39.22-59.87,71.22-94.44,91.35h0c-25.29,14.45-49.54,22.19-71.74,22.19"/><path d="M448.41,272.34h0c6.9,0,12.5,5.6,12.5,12.5v139.38h-25.01v-139.38c0-6.9,5.6-12.5,12.5-12.5Z" transform="translate(14.8 -18.27) rotate(2.37)"/><path id="Fill-7-3" class="cls-6" d="M314.13,178.85c22.08,51.55,156.31,43.21,157.14-11.72l.27-29.83c-2.25,60.86-156.76,61.49-159.57.69.15,14.35-2.38,30.4,2,40.95"/><path id="Fill-11-4" class="cls-1" d="M448.11,104.77h0c-15.62-8.88-35.95-13.24-56.42-13.29h0c-20.37.11-40.8,4.7-56.38,13.8-15.58,9.09-23.33,20.95-23.17,32.63-.01,11.78,7.98,23.56,23.6,32.44,15.62,8.88,36.04,13.41,56.42,13.29,20.37-.11,40.8-4.7,56.38-13.8,15.58-9.09,23.16-20.85,23.17-32.63.01-11.78-7.98-23.56-23.6-32.44"/></svg>