<?xml version="1.0" encoding="UTF-8"?><svg id="Layer_1" xmlns="http://www.w3.org/2000/svg" viewBox="0 0 720 720"><defs><style>.cls-1{fill:#ecf0fd;opacity:.18;}.cls-2{fill:#dd784b;}.cls-2,.cls-3{stroke:#000;stroke-miterlimit:10;stroke-width:7.3px;}.cls-3{fill:none;}</style></defs><path d="M314.53,402.34l3.65,239.04c.11,7.11,9.08,10.15,13.49,4.57l38.65-48.94c3.12-3.95,9.15-3.81,12.08.29l39.79,55.64c4.31,6.03,13.82,2.9,13.71-4.51l-3.62-236.74c-.06-3.86-3.01-7.05-6.86-7.41l-102.64-9.58c-4.48-.42-8.33,3.14-8.26,7.64Z"/><path class="cls-2" d="M282.39,399.35l3.65,239.04c.11,7.11,9.08,10.15,13.49,4.57l38.65-48.94c3.12-3.95,9.15-3.81,12.08.29l39.79,55.64c4.31,6.03,13.82,2.9,13.71-4.51l-3.62-236.74c-.06-3.86-3.01-7.05-6.86-7.41l-102.64-9.58c-4.48-.42-8.33,3.14-8.26,7.64Z"/><path d="M336.04,144.4l-3.76,8.03c-6.19,13.23-19.77,21.41-34.36,20.7l-3.75-.18c-12.72-.62-23.08,10.11-22,22.8l3.3,38.89c.77,9.1-1.94,18.15-7.59,25.32l-19.26,24.45c-5.61,7.13-6.03,17.05-1.03,24.62l23.06,34.91c4.38,6.63,6.44,14.52,5.87,22.45l-3.27,45.05c-.76,10.41,6.23,19.8,16.42,22.07l16.21,3.6c11.32,2.52,20.73,10.33,25.28,20.98l9.78-5.24c5.8,13.56,23.39,17.1,33.99,6.84h0c11.53-11.16,29.05,14.78,42.97,22.77h0c12.79,7.35,28.97-.4,31.27-14.97l3.87-24.58c1.8-11.45,9.01-21.33,19.36-26.54l14.83-7.47c9.32-4.7,13.79-15.51,10.51-25.42l-14.22-42.87c-2.5-7.54-2.44-15.7.18-23.2l13.79-39.5c2.99-8.57.16-18.08-7.04-23.62l-24.67-18.98c-7.24-5.57-12.09-13.68-13.57-22.68l-6.34-38.52c-2.07-12.57-14.74-20.43-26.92-16.71l-3.59,1.1c-13.97,4.27-29.14-.32-38.39-11.63l-5.61-6.86c-9.81-12-28.78-9.63-35.35,4.4Z"/><path class="cls-2" d="M291.15,144.65l-3.76,8.03c-6.19,13.23-19.77,21.41-34.36,20.7l-3.75-.18c-12.72-.62-23.08,10.11-22,22.8l3.3,38.89c.77,9.1-1.94,18.15-7.59,25.32l-19.26,24.45c-5.61,7.13-6.03,17.05-1.03,24.62l23.06,34.91c4.38,6.63,6.44,14.52,5.87,22.45l-3.27,45.05c-.76,10.41,6.23,19.8,16.42,22.07l16.21,3.6c11.32,2.52,20.73,10.33,25.28,20.98l9.78,22.88c5.8,13.56,23.39,17.1,33.99,6.84h0c11.53-11.16,29.05-13.35,42.97-5.35h0c12.79,7.35,28.97-.4,31.27-14.97l3.87-24.58c1.8-11.45,9.01-21.33,19.36-26.54l14.83-7.47c9.32-4.7,13.79-15.51,10.51-25.42l-14.22-42.87c-2.5-7.54-2.44-15.7.18-23.2l13.79-39.5c2.99-8.57.16-18.08-7.04-23.62l-24.67-18.98c-7.24-5.57-12.09-13.68-13.57-22.68l-6.34-38.52c-2.07-12.57-14.74-20.43-26.92-16.71l-3.59,1.1c-13.97,4.27-29.14-.32-38.39-11.63l-5.61-6.86c-9.81-12-28.78-9.63-35.35,4.4Z"/><path class="cls-1" d="M445.59,254.53l-12.91-9.93-133.82,241.33c7.42,9.53,21.97,11.07,31.21,2.13h0c1.71-1.65,3.56-3.09,5.5-4.34l118.18-213.12c-.18-6.19-3.04-12.14-8.15-16.07Z"/><path class="cls-1" d="M407.35,212.87l-6.34-38.52c-2.07-12.57-14.74-20.43-26.92-16.71l-3.59,1.1c-2.2.67-4.43,1.1-6.67,1.34l-134.85,243.19-.61,8.41c-.76,10.41,6.23,19.8,16.42,22.07l16.21,3.6c10.73,2.39,19.7,9.57,24.49,19.4l127.44-229.82c-2.8-4.21-4.74-8.99-5.58-14.07Z"/><path class="cls-3" d="M291.15,144.65l-3.76,8.03c-6.19,13.23-19.77,21.41-34.36,20.7l-3.75-.18c-12.72-.62-23.08,10.11-22,22.8l3.3,38.89c.77,9.1-1.94,18.15-7.59,25.32l-19.26,24.45c-5.61,7.13-6.03,17.05-1.03,24.62l23.06,34.91c4.38,6.63,6.44,14.52,5.87,22.45l-3.27,45.05c-.76,10.41,6.23,19.8,16.42,22.07l16.21,3.6c11.32,2.52,20.73,10.33,25.28,20.98l9.78,22.88c5.8,13.56,23.39,17.1,33.99,6.84h0c11.53-11.16,29.05-13.35,42.97-5.35h0c12.79,7.35,28.97-.4,31.27-14.97l3.87-24.58c1.8-11.45,9.01-21.33,19.36-26.54l14.83-7.47c9.32-4.7,13.79-15.51,10.51-25.42l-14.22-42.87c-2.5-7.54-2.44-15.7.18-23.2l13.79-39.5c2.99-8.57.16-18.08-7.04-23.62l-24.67-18.98c-7.24-5.57-12.09-13.68-13.57-22.68l-6.34-38.52c-2.07-12.57-14.74-20.43-26.92-16.71l-3.59,1.1c-13.97,4.27-29.14-.32-38.39-11.63l-5.61-6.86c-9.81-12-28.78-9.63-35.35,4.4Z"/></svg>