<?xml version="1.0" encoding="UTF-8"?><svg id="Layer_1" xmlns="http://www.w3.org/2000/svg" viewBox="0 0 720 720"><defs><style>.cls-1{stroke-linecap:round;stroke-linejoin:round;stroke-width:5.55px;}.cls-1,.cls-2,.cls-3{stroke:#000;}.cls-2{fill:none;}.cls-2,.cls-3{stroke-miterlimit:10;stroke-width:7.35px;}.cls-3{fill:#f4d74b;}</style></defs><path d="M325.28,368.2l3.68,240.57c.11,7.16,9.14,10.22,13.58,4.6l38.9-49.25c3.14-3.97,9.21-3.83,12.16.29l40.04,55.99c4.34,6.07,13.91,2.92,13.8-4.54l-3.64-238.25c-.06-3.88-3.03-7.1-6.9-7.46l-103.29-9.64c-4.51-.42-8.38,3.16-8.31,7.69Z"/><path class="cls-3" d="M292.93,365.19l3.68,240.57c.11,7.16,9.14,10.22,13.58,4.6l38.9-49.25c3.14-3.97,9.21-3.83,12.16.29l40.04,55.99c4.34,6.07,13.91,2.92,13.8-4.54l-3.64-238.25c-.06-3.88-3.03-7.1-6.9-7.46l-103.29-9.64c-4.51-.42-8.38,3.16-8.31,7.69Z"/><path d="M346.93,108.61l-3.78,8.08c-6.23,13.32-19.9,21.55-34.58,20.83l-3.78-.18c-12.8-.63-23.22,10.17-22.14,22.95l3.33,39.14c.78,9.16-1.95,18.26-7.64,25.48l-19.38,24.61c-5.65,7.17-6.07,17.16-1.03,24.78l23.21,35.14c4.41,6.67,6.48,14.62,5.9,22.59l-3.29,45.34c-.76,10.48,6.27,19.93,16.53,22.21l16.32,3.63c11.39,2.53,20.86,10.39,25.45,21.12l9.85-5.28c5.84,13.65,23.54,17.21,34.2,6.89h0c11.6-11.23,29.24,14.87,43.24,22.91h0c12.87,7.39,29.16-.4,31.47-15.07l3.9-24.73c1.82-11.52,9.07-21.47,19.49-26.71l14.93-7.52c9.38-4.73,13.88-15.61,10.57-25.58l-14.32-43.15c-2.52-7.59-2.45-15.8.18-23.35l13.88-39.76c3.01-8.62.16-18.2-7.08-23.77l-24.83-19.1c-7.28-5.6-12.16-13.76-13.66-22.83l-6.38-38.76c-2.08-12.65-14.83-20.56-27.09-16.81l-3.61,1.11c-14.06,4.3-29.33-.33-38.63-11.71l-5.65-6.9c-9.87-12.07-28.97-9.69-35.58,4.43Z"/><path class="cls-3" d="M301.75,108.87l-3.78,8.08c-6.23,13.32-19.9,21.55-34.58,20.83l-3.78-.18c-12.8-.63-23.22,10.17-22.14,22.95l3.33,39.14c.78,9.16-1.95,18.26-7.64,25.48l-19.38,24.61c-5.65,7.17-6.07,17.16-1.03,24.78l23.21,35.14c4.41,6.67,6.48,14.62,5.9,22.59l-3.29,45.34c-.76,10.48,6.27,19.93,16.53,22.21l16.32,3.63c11.39,2.53,20.86,10.39,25.45,21.12l9.85,23.02c5.84,13.65,23.54,17.21,34.2,6.89h0c11.6-11.23,29.24-13.43,43.24-5.39h0c12.87,7.39,29.16-.4,31.47-15.07l3.9-24.73c1.82-11.52,9.07-21.47,19.49-26.71l14.93-7.52c9.38-4.73,13.88-15.61,10.57-25.58l-14.32-43.15c-2.52-7.59-2.45-15.8.18-23.35l13.88-39.76c3.01-8.62.16-18.2-7.08-23.77l-24.83-19.1c-7.28-5.6-12.16-13.76-13.66-22.83l-6.38-38.76c-2.08-12.65-14.83-20.56-27.09-16.81l-3.61,1.11c-14.06,4.3-29.33-.33-38.63-11.71l-5.65-6.9c-9.87-12.07-28.97-9.69-35.58,4.43Z"/><path class="cls-2" d="M301.75,108.87l-3.78,8.08c-6.23,13.32-19.9,21.55-34.58,20.83l-3.78-.18c-12.8-.63-23.22,10.17-22.14,22.95l3.33,39.14c.78,9.16-1.95,18.26-7.64,25.48l-19.38,24.61c-5.65,7.17-6.07,17.16-1.03,24.78l23.21,35.14c4.41,6.67,6.48,14.62,5.9,22.59l-3.29,45.34c-.76,10.48,6.27,19.93,16.53,22.21l16.32,3.63c11.39,2.53,20.86,10.39,25.45,21.12l9.85,23.02c5.84,13.65,23.54,17.21,34.2,6.89h0c11.6-11.23,29.24-13.43,43.24-5.39h0c12.87,7.39,29.16-.4,31.47-15.07l3.9-24.73c1.82-11.52,9.07-21.47,19.49-26.71l14.93-7.52c9.38-4.73,13.88-15.61,10.57-25.58l-14.32-43.15c-2.52-7.59-2.45-15.8.18-23.35l13.88-39.76c3.01-8.62.16-18.2-7.08-23.77l-24.83-19.1c-7.28-5.6-12.16-13.76-13.66-22.83l-6.38-38.76c-2.08-12.65-14.83-20.56-27.09-16.81l-3.61,1.11c-14.06,4.3-29.33-.33-38.63-11.71l-5.65-6.9c-9.87-12.07-28.97-9.69-35.58,4.43Z"/><polygon class="cls-1" points="275.08 273.02 286.26 253.99 325.96 306.41 380.43 213.22 395.95 230.31 328.1 341.82 275.08 273.02"/></svg>