<?xml version="1.0" encoding="UTF-8"?>
<svg width="220px" height="165px" viewBox="0 0 220 165" version="1.1" xmlns="http://www.w3.org/2000/svg" xmlns:xlink="http://www.w3.org/1999/xlink">
    <title>Group 127</title>
    <defs>
        <polygon id="path-1" points="0 0 54.3364523 0 54.3364523 72.1224984 0 72.1224984"></polygon>
        <polygon id="path-3" points="0 0 55.0802063 0 55.0802063 70.3443076 0 70.3443076"></polygon>
    </defs>
    <g id="Illustraties" stroke="none" stroke-width="1" fill="none" fill-rule="evenodd">
        <g transform="translate(-1173, -1884)" id="Group-127">
            <g transform="translate(1173, 1884)">
                <path d="M100.493065,3.73657578 C102.149046,3.37804962 103.9093,3.3542431 105.530524,3.88703297 L105.823344,3.99463843 L119.19737,11.7131876 C118.227968,11.3727544 117.385218,11.21087 116.354395,11.1956339 C111.83449,11.1313563 107.262686,14.1881131 104.142128,17.2096364 C98.4004721,22.7727434 93.8220027,31.5921059 93.4772843,39.6468031 C93.3268271,43.1149365 93.9757928,47.1363335 96.5816542,49.6588721 L96.8116251,49.8721785 L83.4375997,42.1493442 C83.3276136,42.0669736 82.8838601,41.6041749 82.7695888,41.4770481 C79.7047377,38.0060579 79.7328294,32.3272512 80.5779608,28.0444586 C82.3777335,18.9460837 90.3610111,5.94772513 100.493065,3.73657578" id="Fill-1" fill="#3D68EC"></path>
                <path d="M103.094689,4.8288188 C102.335737,4.80501229 101.54917,4.89166801 100.781648,5.05736137 C96.5145674,5.98676782 92.6112508,9.0359066 89.4559349,12.8878011 C85.5764248,17.621013 82.8491502,23.5288384 81.9073643,28.3053781 C81.4607541,30.5598553 81.2503044,33.2128536 81.6507301,35.6568307 C81.9506922,37.5194526 82.6077521,39.2587568 83.7823657,40.5843037 L84.2246908,41.0499592 L92.8997858,46.056946 L92.8526489,45.9017275 C92.2165387,43.8500818 92.042275,41.6236963 92.1284546,39.5868106 C92.3070035,35.4906612 93.5168507,31.2192958 95.3999463,27.2659855 C97.3892189,23.0784191 100.137443,19.2141451 103.204675,16.2411872 C105.013018,14.4933127 107.290826,12.7259168 109.778131,11.4998812 C111.046066,10.874722 112.375898,10.3881168 113.723347,10.1114851 L105.277747,5.23210121 L105.107768,5.17210879 C104.446423,4.95594561 103.77127,4.84834015 103.094689,4.8288188 M100.208387,2.41674244 C101.161124,2.20629283 102.161473,2.10440093 103.169917,2.13249262 C104.118845,2.15867979 105.060155,2.30961311 105.952899,2.60671845 L106.273811,2.72098974 L106.495688,2.82431002 L119.869713,10.5471443 L118.749379,12.9868363 C118.322766,12.8363791 117.93472,12.7259168 117.555244,12.6578302 C117.164817,12.5864106 116.764391,12.5473679 116.337302,12.5430828 C114.5461,12.5192763 112.712046,13.0620649 110.975122,13.9157666 C108.761116,15.0065812 106.717565,16.5968566 105.083961,18.1790377 C102.240987,20.9310712 99.6894046,24.5206179 97.8396382,28.4153642 C96.1027147,32.0744259 94.9842845,35.9848845 94.8266853,39.6982251 C94.7509806,41.4699062 94.8933436,43.379665 95.4304186,45.110875 C95.8503656,46.4640374 96.5102822,47.7057854 97.499205,48.6709016 L97.7320327,48.884208 L96.1436619,51.0382217 L82.6315586,43.2292078 C82.519668,43.1468373 82.3620688,42.995904 82.2116116,42.8454468 L81.7497652,42.3588415 C80.2109119,40.6119193 79.3643521,38.4093403 78.9891614,36.0920139 C78.5301717,33.279988 78.7563337,30.2989359 79.2538899,27.7878244 C80.2737611,22.6194294 83.2091047,16.2483292 87.3647704,11.1746841 C90.8714705,6.89332001 95.2851988,3.49232091 100.208387,2.41674244" id="Fill-3" fill="#000000"></path>
                <path d="M112.628056,4.91942641 C115.139168,3.50769992 117.575051,2.40450589 120.406598,1.78363191 C123.163393,1.18227928 126.085881,1.14752176 128.782207,2.03740939 L129.271669,2.21024471 L138.110553,7.31198143 C136.500756,6.7468147 135.0976,6.47351588 133.381626,6.44970936 C125.868289,6.34638908 118.264011,11.4286045 113.076095,16.4546365 C103.525873,25.7077537 95.9092153,40.370664 95.3354782,53.7670676 C95.0916995,59.5368152 96.1672779,66.2269228 100.500064,70.4149654 L100.883349,70.7706348 L92.0463697,65.6703264 C91.8563937,65.5284396 91.1169633,64.7609175 90.9317486,64.5504678 C85.8300119,58.7778634 85.8776249,49.3352463 87.2850662,42.2137646 C90.04567,28.2536227 99.6896903,12.756532 111.952904,5.31842365 L112.628056,4.91942641 Z" id="Fill-5" fill="#3D68EC"></path>
                <g id="Group-9" transform="translate(85.1218, 0)">
                    <mask id="mask-2" fill="white">
                        <use xlink:href="#path-1"></use>
                    </mask>
                    <g id="Clip-8"></g>
                    <path d="M31.7932048,4.30288522 C30.5752633,4.80520274 29.3811284,5.4132212 28.1674721,6.09837278 L27.5189826,6.48213384 C21.7254285,9.99311906 16.5217998,15.3862476 12.3885123,21.5673718 C8.02811049,28.0875008 4.87231852,35.4827575 3.49106437,42.4699704 C2.73258872,46.3094855 2.38072839,50.8289148 3.06159479,55.0126722 C3.59057561,58.2632142 4.74519172,61.3080678 6.81683488,63.657771 L7.70719864,64.56718 L11.0091626,66.4726537 C10.6254016,65.6465675 10.3016329,64.7890568 10.0283341,63.9139292 C9.00465385,60.6010142 8.72802211,57.0100391 8.86609991,53.7166454 C9.15511104,47.0208243 11.1400985,40.0412294 14.2201857,33.5577624 C17.4816786,26.692915 21.9863479,20.3565723 27.0166651,15.4852827 C29.9629597,12.6308812 33.6791571,9.75172097 37.7248367,7.75816318 C40.5482897,6.36738642 43.5417212,5.4022702 46.5661012,5.16087211 L43.6002852,3.4491835 L43.2374739,3.32205669 C42.0633365,2.93448659 40.8482518,2.74070153 39.6388807,2.70118271 C38.2895273,2.66118776 36.9139867,2.81593013 35.5693946,3.10446512 C34.2371819,3.39728529 32.9916249,3.80485287 31.7932048,4.30288522 L31.7932048,4.30288522 Z M26.8462104,3.74057527 C28.1393804,3.01400035 29.4244563,2.36122564 30.756669,1.80700991 C32.1141166,1.24660449 33.5048934,0.787614828 35.0004188,0.462417798 C36.5264166,0.130554943 38.116692,-0.0398997235 39.7098241,0.0077133117 C41.2010644,0.0524695648 42.6756401,0.28958248 44.0830814,0.751428922 L44.6006351,0.93807202 C44.7163348,0.977114709 44.8182267,1.03282196 44.9129766,1.09567117 L53.6609196,6.14598581 C54.3056001,6.51689136 54.5260484,7.3396446 54.159428,7.9843251 C53.8270891,8.55758604 53.1424136,8.79469896 52.541061,8.58567774 C51.7944886,8.3247583 51.105528,8.13097325 50.4179957,8.00384644 C49.7218932,7.87671964 49.0143635,7.80577622 48.2430323,7.79863426 C45.1067617,7.75387801 41.9238303,8.69566385 38.9189716,10.1745247 C35.1465908,12.0338137 31.666078,14.737758 28.894047,17.4226571 C24.094177,22.0777835 19.7875779,28.1351139 16.6641628,34.7071411 C13.7264385,40.8925505 11.8319159,47.5117147 11.5629022,53.8185373 C11.4314902,56.8486309 11.6814587,60.1296451 12.6061038,63.1192676 C13.3455343,65.5070613 14.5287182,67.7101165 16.3003992,69.4298993 L16.6798751,69.783188 C17.2250444,70.2921714 17.2569451,71.1473015 16.7508185,71.6929469 C16.2918289,72.186694 15.5485894,72.2576375 15.0072292,71.8910171 L6.13358782,66.7569035 C5.99122485,66.6621536 5.7583971,66.4402768 5.52509323,66.2031639 L4.8013751,65.4404031 C2.35311283,62.6726573 1.0051878,59.157387 0.400026122,55.4478554 C-0.339404315,50.8960492 0.0276921867,46.0442809 0.838066046,41.9552735 C2.28597845,34.6290557 5.58794244,26.8895569 10.1468906,20.0651805 C14.4853903,13.5755238 19.9856482,7.89766938 26.1348717,4.1676642 L26.8462104,3.74057527 Z" id="Fill-7" fill="#000000" mask="url(#mask-2)"></path>
                </g>
                <path d="M120.900488,9.83132996 C106.431363,18.1750383 94.6995109,38.4872352 94.6914162,55.1956015 C94.6885599,71.9020633 106.408032,78.6845402 120.876682,70.3394035 C135.345807,61.9961713 147.074802,41.6834983 147.083373,24.9756081 C147.086229,8.26867015 135.366757,1.48762167 120.900488,9.83132996" id="Fill-10" fill="#3D68EC"></path>
                <path d="M101.204451,28.7015185 C106.05622,20.302103 112.782989,12.9587446 120.22824,8.66357266 C124.641968,6.11770367 128.845247,4.91118936 132.593345,4.91118936 C135.373946,4.91547453 137.904103,5.57634346 140.091446,6.83761276 C142.274503,8.10269111 144.113319,9.96531304 145.501239,12.3769133 C147.374812,15.6274552 148.430869,19.8754902 148.426597,24.9753224 C148.426597,33.5728082 145.421725,43.0716087 140.569957,51.4691197 C135.718188,59.8685352 128.991419,67.2118937 121.549025,71.5070656 C117.13244,74.0529346 112.933446,75.2594489 109.18392,75.2556488 C106.405223,75.2556488 103.873162,74.5942948 101.682962,73.3330255 C99.4999047,72.0679471 97.6610893,70.2015161 96.2731693,67.793725 C94.3995964,64.543183 93.3435393,60.2956242 93.3478114,55.1953158 C93.3478114,46.5978301 96.3526831,37.0995057 101.204451,28.7015185 M121.568547,10.9975636 C114.550385,15.0470523 108.172619,22.0333129 103.540823,30.0532526 C98.9109315,38.0689071 96.0441506,47.0849114 96.0398654,55.1953158 C96.0398654,59.805686 96.9649867,63.6018733 98.6066842,66.4529419 C99.7536822,68.4341203 101.255873,69.9686884 103.034696,70.9966538 C104.818757,72.0246193 106.8904,72.5616943 109.18392,72.5616943 C112.470648,72.5616943 116.214461,71.4708797 120.204433,69.1692655 C127.224023,65.1250143 133.601789,58.1373253 138.233585,50.1173856 C142.867762,42.1017312 145.730257,33.0857268 145.734543,24.9753224 C145.734543,20.360667 144.809421,16.569241 143.167724,13.7176963 C142.020726,11.7327089 140.518535,10.202426 138.738283,9.1739844 C136.959936,8.14601897 134.884008,7.60894393 132.593345,7.60894393 C129.30376,7.60894393 125.559947,8.69594952 121.568547,10.9975636" id="Fill-12" fill="#000000"></path>
                <path d="M188.24008,42.5887649 C174.370879,37.7174753 159.115186,56.5389081 154.13772,69.4510871 C150.954312,77.7038545 148.676504,90.7874404 155.967965,97.598009 C152.590772,95.6477791 107.653589,70.166711 106.119021,68.5607233 C96.6049846,58.6157887 104.763002,37.4551274 112.85817,27.1154807 C118.354619,20.0958909 129.133734,10.9108603 138.619679,14.0342754 L188.24008,42.5887649 Z" id="Fill-14" fill="#000000"></path>
                <path d="M169.484258,46.1794543 C173.394716,43.0993671 177.649417,40.9705883 181.96411,40.5325484 L138.098221,15.2871648 C134.448682,14.1249306 130.530129,14.9872027 126.840595,16.862204 C121.6722,19.4875868 116.962319,24.0589143 113.916989,27.9455664 C109.468503,33.6286583 105.000496,42.6641839 103.616385,51.1973921 C102.576992,57.5837285 103.284522,63.6491531 107.092613,67.6319835 C108.226755,68.8132629 138.869552,86.2958171 151.476056,93.4811003 C150.506654,91.2632851 149.997671,88.8150228 149.834358,86.291532 C149.443931,80.2927657 151.008972,73.8159645 152.879688,68.9641962 C155.76599,61.48276 162.022343,52.0591881 169.484258,46.1794543 L169.484258,46.1794543 Z M187.796707,43.862604 C182.272167,41.9204683 176.411954,44.158281 171.152619,48.3025196 C164.074465,53.8784821 158.134739,62.8273521 155.394608,69.9364544 C153.63864,74.4925457 152.167873,80.5536851 152.527828,86.1210773 C152.793032,90.1710421 154.038589,93.9472319 156.888705,96.6088006 L155.304144,98.7685279 L151.077058,96.3593083 C139.039531,89.4944609 106.577916,70.9925115 105.142383,69.4898441 C100.663424,64.7999601 99.788773,57.9198766 100.951959,50.762209 C102.414156,41.7781054 107.116419,32.2645448 111.793924,26.2852998 C115.033038,22.1491555 120.061927,17.2764374 125.622654,14.4529845 C129.940204,12.2627848 134.59533,11.2862415 139.043816,12.7493901 L139.292356,12.8684226 L188.911328,41.422436 L187.796707,43.862604 Z" id="Fill-16" fill="#000000"></path>
                <path d="M188.24008,42.5887649 C173.94379,37.5541626 158.071508,57.5640167 153.366388,71.5784375 L152.769321,73.4924815 L103.71123,44.9617986 L104.000241,44.0076333 C108.286843,30.1760466 123.581578,10.3485504 137.746456,13.7847831 C140.526581,14.4613643 184.352476,40.3471432 188.24008,42.5887649" id="Fill-18" fill="#3D68EC"></path>
                <path d="M166.430548,48.8243584 C171.165188,44.293502 176.558317,41.0429601 182.035244,40.520169 C169.258286,33.0273056 139.522517,15.6037915 137.429925,15.0971888 C131.644941,13.6940327 125.547139,16.5927143 120.184959,21.3930605 C113.281069,27.5813266 107.646543,36.8511085 105.312552,44.3325447 L151.986658,71.4710225 L152.271384,70.6044653 C154.785352,63.4720326 160.021834,54.9497754 166.430548,48.8243584 L166.430548,48.8243584 Z M187.809277,43.8649847 L187.611207,43.8021355 C181.138215,41.6276482 174.205281,45.108161 168.290313,50.766018 C162.196797,56.5948058 157.217902,64.6966399 154.825347,71.4834019 L154.058301,73.8911931 L152.092835,74.6582391 L103.034744,46.1280323 L102.42244,44.5696576 L102.710975,43.621206 C105.154953,35.7155376 111.101821,25.9129659 118.389472,19.3842665 C124.368717,14.0344659 131.284986,10.831537 138.063178,12.4760912 C140.585717,13.088871 171.900334,31.4494096 184.25306,38.6937329 L188.915328,41.422436 L187.809277,43.8649847 Z" id="Fill-20" fill="#000000"></path>
                <path d="M173.319155,44.7719178 C160.780738,52.0076707 150.609641,69.6125905 150.601546,84.0926668 C150.59869,98.5784566 160.761216,104.454381 173.299633,97.2214851 C185.839002,89.9895412 196.010099,72.3846214 196.012961,57.90026 C196.021526,43.4144702 185.862809,37.5390216 173.319155,44.7719178" id="Fill-22" fill="#FFFFFF"></path>
                <path d="M156.094949,61.0391493 C160.313463,53.736262 166.16701,47.3413552 172.648096,43.6042081 C176.502372,41.3821077 180.177146,40.3303358 183.455303,40.3303358 C185.897852,40.3303358 188.124237,40.911691 190.046852,42.0239315 C191.96899,43.1342674 193.581643,44.7721559 194.799109,46.8866507 C196.441282,49.7339103 197.362118,53.4472509 197.362118,57.900498 C197.357833,65.3814581 194.747687,73.6499378 190.524887,80.9542536 C186.305419,88.2614261 180.453301,94.6477625 173.972215,98.3887187 C170.116035,100.611295 166.443166,101.665924 163.165008,101.665924 C160.721031,101.663067 158.494646,101.081236 156.57346,99.9694714 C154.651321,98.8591355 153.038668,97.221247 151.816441,95.106276 C150.174744,92.2590165 149.253908,88.5456759 149.253908,84.0929048 C149.258193,76.6114686 151.87072,68.3472741 156.094949,61.0391493 M173.991736,45.9424843 C167.934406,49.4339481 162.429863,55.4631868 158.427511,62.3923118 C154.429445,69.3157232 151.95071,77.09855 151.95071,84.0929048 C151.95071,88.0590707 152.741562,91.3177068 154.153289,93.7616839 C155.125547,95.4538512 156.407766,96.7594006 157.925194,97.6369088 C159.44024,98.5101319 161.211921,98.9691216 163.165008,98.9691216 C165.984176,98.9691216 169.199484,98.0316209 172.627147,96.0552038 C178.685905,92.5589786 184.190448,86.5259309 188.1928,79.6010911 C192.189438,72.6819648 194.665316,64.8948529 194.669601,57.900498 C194.669601,53.9329038 193.874464,50.6756961 192.467022,48.231719 C191.490479,46.5395517 190.20826,45.2335262 188.695118,44.3564941 C187.180071,43.4818426 185.40839,43.0238052 183.455303,43.0238052 C180.636135,43.0238052 177.420351,43.9598775 173.991736,45.9424843" id="Fill-24" fill="#000000"></path>
                <path d="M197.765163,43.0671807 C181.754804,37.4483664 164.184641,59.1570537 158.423464,74.0570769 C154.746309,83.5711136 152.131878,98.6806342 160.535578,106.525834 C156.565127,104.232314 150.519224,101.322682 148.616607,99.1672394 C137.817495,86.9287848 148.05144,61.8019578 158.399658,49.7187217 C164.667437,42.3991698 176.273591,33.2950813 186.468494,36.6532287 L197.765163,43.0671807 Z" id="Fill-26" fill="#3D68EC"></path>
                <path d="M176.265306,47.3652094 C180.916148,43.6990057 185.992649,41.2117007 191.130572,40.8522223 L185.938371,37.9030709 C181.951255,36.6294222 177.681318,37.4483664 173.631829,39.3300335 C168.036345,41.935895 162.891281,46.5462652 159.423623,50.5962299 C153.76529,57.2044431 148.137906,67.8088183 146.129112,77.9646787 C144.583593,85.7655984 145.19304,93.248463 149.624861,98.2730666 C150.63759,99.4238737 153.181078,100.923684 155.877405,102.413496 C154.552334,99.6933634 153.872896,96.6327975 153.666255,93.4646262 C153.220121,86.5802574 155.015133,79.1350071 157.166289,73.5704717 C160.49206,64.9615588 167.684485,54.1238797 176.265306,47.3652094 M197.323123,44.3408294 C190.869653,42.0782579 184.043848,44.6731684 177.933667,49.4882746 C169.736607,55.9460306 162.865094,66.306627 159.681686,74.5441583 C157.6448,79.8144451 155.940254,86.8383201 156.363058,93.2955999 C156.668257,98.0207175 158.127597,102.430161 161.457176,105.53834 C162.002822,106.047323 162.03377,106.902453 161.524311,107.448098 C161.081033,107.926609 160.364933,108.00898 159.827858,107.677117 C158.802749,107.083859 157.696699,106.482506 156.561128,105.861632 C153.014909,103.932828 149.182536,101.84452 147.605116,100.057127 C142.527186,94.3026156 141.779661,85.9998545 143.475637,77.4499818 C145.572515,66.8365601 151.460819,55.7522455 157.375787,48.8397851 C161.050085,44.5541358 166.514157,39.6618964 172.493402,36.8789145 C177.151385,34.711093 182.134089,33.801684 186.891107,35.3681529 C187.009664,35.4071956 187.123935,35.4629028 187.22297,35.5343224 L198.433459,41.8968523 C199.077664,42.261092 199.308111,43.086702 198.939586,43.7356677 C198.616293,44.3089286 197.924,44.5503267 197.323123,44.3408294" id="Fill-28" fill="#000000"></path>
                <path d="M180.216141,55.0601424 C190.225353,49.2832529 198.342899,53.9693278 198.342899,65.5283444 C198.342899,77.0859325 190.225353,91.1403483 180.216141,96.9172378 C170.208357,102.697936 162.093667,98.0123376 162.093667,86.4547495 C162.093667,74.8957329 170.208357,60.8422694 180.216141,55.0601424 M180.556574,45.5865768 C166.087449,53.9302851 154.354168,74.2429582 154.347022,90.9508484 C154.338456,107.661595 166.063642,114.438359 180.532767,106.09465 C194.997608,97.7514182 206.729459,77.4387451 206.738031,60.7308549 C206.741839,44.0243931 195.020938,37.2419163 180.556574,45.5865768" id="Fill-30" fill="#F8D754"></path>
                <path d="M166.233859,67.9163761 C169.606766,62.0756851 174.280462,56.9587122 179.464093,53.940998 L179.539321,53.8938611 C182.66845,52.0912316 185.649502,51.2322925 188.311071,51.2322925 C190.3032,51.2322925 192.12678,51.7108035 193.708485,52.6244976 C195.258289,53.5186704 196.566695,54.835647 197.560379,56.5278142 L197.603231,56.6030428 C198.939729,58.9160841 199.695824,61.9247518 199.695824,65.5281063 C199.695824,71.5378236 197.590851,78.1822227 194.198423,84.0619564 C190.805518,89.9378811 186.099922,95.0786605 180.892484,98.0873282 C177.76764,99.8913861 174.786588,100.745088 172.12502,100.745088 C170.167648,100.745088 168.372636,100.286098 166.80712,99.4000195 L166.723797,99.3571678 C165.173516,98.4601382 163.869395,97.1460185 162.876187,95.449566 L162.828574,95.3786226 C161.492553,93.0655813 160.740267,90.0564375 160.740267,86.4545114 C160.740267,80.4671722 162.82048,73.85515 166.190531,67.9944615 L166.233859,67.9163761 Z M180.82154,56.2668948 L180.892484,56.2302328 C183.585001,54.6766194 186.104207,53.940998 188.311071,53.940998 C189.828974,53.940998 191.193564,54.2900016 192.355322,54.9608693 C193.506129,55.6222143 194.482673,56.607328 195.230197,57.8833574 L195.271144,57.9547769 C196.370053,59.8573938 196.990927,62.407548 196.990927,65.5281063 C196.990927,71.0721681 195.029746,77.2366278 191.86586,82.7173643 C188.697689,88.2009575 184.341096,92.9789256 179.539321,95.7509565 C176.851089,97.305046 174.331884,98.0401913 172.12502,98.0401913 C170.635208,98.0401913 169.28633,97.7040432 168.139332,97.0593627 L168.076483,97.02032 C166.926152,96.3561182 165.949609,95.3714806 165.201608,94.0978319 L165.162565,94.0268885 C164.06318,92.1209387 163.445163,89.5698323 163.445163,86.4545114 C163.445163,80.9333038 165.387299,74.7964597 168.527379,69.3323878 L168.566421,69.2681102 C171.726022,63.8040383 176.055952,59.0384496 180.82154,56.2668948 L180.82154,56.2668948 Z M160.858823,64.4553846 C165.71202,56.0573975 172.437361,48.714039 179.88404,44.4188671 C184.29634,41.8729981 188.501047,40.6664838 192.245336,40.6707576 C195.025461,40.6707576 197.556094,41.3302095 199.746294,42.5929072 C201.929351,43.8579856 203.767691,45.7206075 205.156087,48.1326839 C207.030612,51.3827497 208.086669,55.6307847 208.082397,60.7306169 C208.082397,69.3281026 205.076573,78.8269032 200.224805,87.2244142 C195.37256,95.6238297 188.647219,102.971473 181.204825,107.260932 C176.787288,109.808229 172.584009,111.015219 168.83972,111.015219 C166.059595,111.010934 163.524677,110.349589 161.337334,109.08832 C159.15142,107.823242 157.31689,105.956811 155.924684,103.549019 C154.050159,100.298478 152.997911,96.0509186 152.997911,90.9506103 C153.002196,82.3531245 156.007055,72.8548001 160.858823,64.4553846 L160.858823,64.4553846 Z M181.224823,46.7571433 C174.205233,50.8009184 167.826991,57.7886074 163.197099,65.8085471 C158.565779,73.8242015 155.694707,82.8402059 155.694707,90.9506103 C155.691857,95.5652657 156.616978,99.3571678 158.261532,102.208236 C159.403769,104.189415 160.910721,105.723983 162.690497,106.751948 C164.470748,107.779914 166.546676,108.316989 168.83972,108.316989 C172.12502,108.316989 175.870737,107.230459 179.860233,104.928369 C186.878395,100.87888 193.258065,93.8926198 197.887957,85.8726801 C202.517848,77.8570256 205.388914,68.8414974 205.388914,60.7306169 C205.388914,56.1159615 204.464269,52.3245355 202.819239,49.4729908 C201.677002,47.4880034 200.174335,45.9577204 198.394083,44.929755 C196.614308,43.9013134 194.53838,43.36281 192.245336,43.36281 C188.958608,43.36281 185.218604,44.455053 181.224823,46.7571433 L181.224823,46.7571433 Z" id="Fill-32" fill="#000000"></path>
                <path d="M184.201542,48.3500374 C186.712654,46.9383109 189.149489,45.8351169 191.980084,45.2185281 C194.736402,44.6171754 197.65889,44.5781327 200.355693,45.466592 L200.845155,45.6408557 L209.684039,50.7468776 C208.074242,50.1774257 206.671086,49.908412 204.950827,49.8846055 C197.441299,49.7774762 189.837497,54.8592154 184.649581,59.8852474 C175.099358,69.1426499 167.484129,83.801275 166.908964,97.1976786 C166.664709,102.971711 167.736479,109.657534 172.074978,113.849862 L172.456835,114.205531 L163.61557,109.100937 C163.429879,108.961431 162.690449,108.191528 162.505234,107.981079 C157.403498,102.208474 157.451111,92.7653811 158.858552,85.6429472 C161.619156,71.6842337 171.263176,56.187143 183.526389,48.7490346 L184.201542,48.3500374 Z" id="Fill-34" fill="#3D68EC"></path>
                <path d="M188.488382,47.7334486 C187.27044,48.2357661 186.076305,48.8437846 184.862649,49.5289361 L184.21416,49.9126972 C178.420606,53.4236824 173.213168,58.8168109 169.085118,64.9979351 C164.723288,71.5223494 161.567496,78.9133208 160.188146,85.9048189 C159.427766,89.7400489 159.076382,94.2594782 159.756772,98.4475208 C160.285753,101.693778 161.440845,104.742916 163.51344,107.088334 L164.398091,107.997743 L167.70434,109.903217 C167.320579,109.077131 166.99681,108.222477 166.723511,107.344969 C165.699355,104.034434 165.423675,100.440602 165.561277,97.1457804 C165.850288,90.4513876 167.835276,83.4717928 170.915363,76.9868974 C174.178284,70.1263352 178.681525,63.7914208 183.711842,58.9201312 C186.658137,56.0600162 190.370049,53.1822843 194.420014,51.1887265 C197.243467,49.7969975 200.236898,48.8328336 203.261278,48.5914355 L200.288796,46.8754617 L199.933127,46.7530962 C198.758514,46.3650499 197.543429,46.1712649 196.329773,46.1360312 C194.98518,46.0955602 193.60964,46.2464935 192.264572,46.5393137 C190.928074,46.8278486 189.686802,47.2354162 188.488382,47.7334486 L188.488382,47.7334486 Z M183.541864,47.1716148 C184.835034,46.4445637 186.119633,45.791789 187.451846,45.2380494 C188.805009,44.6771678 190.201499,44.2219872 191.695596,43.8972663 C193.217309,43.5611183 194.811869,43.3906636 196.405001,43.4382767 C197.891956,43.4854136 199.370817,43.7201458 200.778258,44.1862775 L201.289146,44.367207 C201.394847,44.4033929 201.498168,44.4552911 201.588632,44.5138551 L210.356573,49.5765492 C211.000777,49.9474547 211.222654,50.770208 210.85032,51.4148885 C210.522266,51.9881494 209.837591,52.2252623 209.237666,52.0162411 C208.489666,51.7553217 207.802133,51.5615366 207.113173,51.4344098 C206.41707,51.307283 205.709541,51.2406247 204.933924,51.2296738 C201.802415,51.1844414 198.616151,52.1262272 195.614149,53.6093733 C191.841768,55.4672339 188.361255,58.1683214 185.5897,60.8532204 C180.789354,65.5073946 176.483231,71.5656772 173.35934,78.1377045 C170.41733,84.3231139 168.527093,90.942278 168.258079,97.2533858 C168.128096,100.281575 168.376636,103.564494 169.301281,106.554116 C170.04214,108.94191 171.21961,111.144965 172.991291,112.860463 L173.375052,113.216132 C173.920221,113.722735 173.952598,114.577865 173.44171,115.12351 C172.983197,115.617257 172.24091,115.688201 171.702406,115.320152 L162.809244,110.179373 C162.671166,110.073672 162.440719,109.859889 162.22027,109.638012 L161.496552,108.875252 C159.04829,106.107506 157.700841,102.58795 157.095203,98.8784187 C156.355773,94.3266126 156.722869,89.4748443 157.534672,85.3858368 C158.981156,78.0596191 162.28312,70.3201202 166.842068,63.4957439 C171.180567,57.0060872 176.681301,51.3272805 182.830525,47.5982276 L183.541864,47.1716148 Z" id="Fill-36" fill="#000000"></path>
                <path d="M192.134921,62.7353637 C182.125709,68.5174907 174.012448,82.5709542 174.012448,94.1299707 C174.012448,105.687559 182.125709,110.373158 192.134921,104.592459 C202.14699,98.8155695 210.257395,84.7611538 210.257395,73.2035656 C210.257395,61.6445491 202.14699,56.9584741 192.134921,62.7353637" id="Fill-38" fill="#F4D9DC"></path>
                <path d="M178.151449,75.5958826 C181.524356,69.7509064 186.203289,64.6339335 191.383112,61.6166954 L191.45834,61.5690824 C194.58604,59.766929 197.567093,58.9075137 200.228661,58.9075137 C202.186033,58.9075137 203.977235,59.3745976 205.543704,60.256391 L205.626075,60.2997189 C207.177308,61.1938917 208.481429,62.5108682 209.477493,64.2030355 L209.52225,64.2782641 C210.858747,66.5913054 211.613414,69.6004492 211.613414,73.2033276 C211.613414,79.21733 209.50987,85.8645859 206.116965,91.741939 C202.724537,97.6135785 198.01894,102.753882 192.810074,105.763026 C189.686659,107.566607 186.705607,108.420309 184.039753,108.420309 C182.047624,108.420309 180.224521,107.946083 178.642339,107.032389 C177.092535,106.135359 175.786986,104.825525 174.790921,103.129072 L174.747593,103.053844 C173.411095,100.740803 172.659285,97.7316588 172.659285,94.1297327 C172.659285,88.1190631 174.75902,81.4760924 178.151449,75.5958826 L178.151449,75.5958826 Z M192.739131,63.9421161 C187.97497,66.714147 183.640756,71.4749744 180.489725,76.9366657 C177.325839,82.4202589 175.364182,88.5847186 175.364182,94.1297327 C175.364182,97.2450536 175.980771,99.8004452 177.080156,101.70211 L177.120627,101.773053 C177.871008,103.050987 178.843266,104.034196 179.99455,104.695541 C181.157736,105.368314 182.52185,105.715413 184.039753,105.715413 C186.250902,105.715413 188.76868,104.980267 191.45834,103.426178 C196.258686,100.654147 200.616707,95.8780833 203.784403,90.3925855 C206.94686,84.9075639 208.904232,78.7431042 208.904232,73.2033276 C208.904232,70.0870544 208.287644,67.5330912 207.188259,65.6299982 L207.149216,65.5590548 C206.401691,64.2825493 205.425148,63.2974356 204.274341,62.6379951 L204.211492,62.5970478 C203.06497,61.9528435 201.719901,61.6166954 200.228661,61.6166954 C198.021797,61.6166954 195.50402,62.3518407 192.810074,63.9059302 L192.739131,63.9421161 Z" id="Fill-40" fill="#000000"></path>
                <path d="M179.319064,105.86606 L170.48018,100.760514 C187.018091,109.844605 211.604987,68.9488172 197.282509,57.1722091 L196.112181,56.3618352 C205.128185,61.5692729 212.94577,63.6294889 209.572386,79.328935 C206.338985,94.3908426 190.557168,112.034805 179.319064,105.86606" id="Fill-42" fill="#3D68EC"></path>
                <path d="M177.523671,103.271388 L179.96622,104.683114 C180.741836,105.110203 181.545544,105.403023 182.358775,105.577287 C186.013551,106.364331 190.085894,104.782149 193.917791,101.828713 C197.903479,98.7557676 201.597298,94.220626 204.313145,89.2698226 C206.144819,85.9354817 207.52893,82.4159261 208.252648,79.0511129 C210.585211,68.1815331 207.132313,64.3301147 201.739661,61.0667173 C203.498486,65.3733163 203.222331,70.8697651 201.561112,76.469058 C200.304128,80.717093 198.252006,85.0346431 195.708994,88.9179622 C193.15884,92.8088995 190.093989,96.2922691 186.811546,98.8671821 C183.830494,101.20403 180.662322,102.792877 177.523671,103.271388 L177.523671,103.271388 Z M178.590679,107.00425 C175.711519,105.344459 172.600959,103.674194 169.803694,101.930605 C169.159013,101.555414 168.939041,100.729804 169.309946,100.085124 C169.677995,99.4518701 170.488369,99.2257082 171.128764,99.5789969 C175.4506,101.951554 180.500438,100.389371 185.156041,96.7426884 C188.18423,94.3672741 191.04244,91.1043528 193.447375,87.4352923 C195.855166,83.7567092 197.793016,79.6886515 198.9762,75.7101063 C201.075459,68.6238582 200.795018,61.8423336 196.465089,58.2432643 L195.349039,57.4719331 C194.736736,57.0491294 194.581517,56.2068548 195.005749,55.5988363 C195.416174,54.9974837 196.230833,54.8398845 196.835994,55.2260262 C197.764925,55.7602445 198.758609,56.3058899 199.726582,56.8315378 C207.884599,61.2928792 214.100481,64.6895931 210.893743,79.6091377 C210.11527,83.2434407 208.632124,87.0110602 206.681894,90.5701345 C203.795592,95.8261375 199.853232,100.658384 195.566631,103.960348 C191.13481,107.380869 186.298277,109.187784 181.797893,108.222191 C180.7266,107.993649 179.679113,107.605602 178.666384,107.047578 L178.590679,107.00425 Z" id="Fill-44" fill="#000000"></path>
                <polygon id="Fill-46" fill="#FFFFFF" points="204.950779 61.4659526 196.111895 56.3618352 195.803839 56.1913805 195.484356 56.0337814 195.159159 55.8871332 203.998042 60.9917267 204.321811 61.1378988 204.642723 61.2969263"></polygon>
                <path d="M196.784429,55.1954111 L205.599507,60.2800071 C206.250853,60.6361526 206.492251,61.4589058 206.136582,62.1116806 C205.780912,62.7630269 204.961968,63.0049011 204.306337,62.6487556 C203.974474,62.4673499 203.661656,62.324987 203.321223,62.1592936 L194.538523,57.0899337 C193.906698,56.7604515 193.629114,55.9891204 193.926219,55.3334889 C194.234275,54.6526225 195.03227,54.3483752 195.713136,54.6569076 C195.965485,54.7687983 196.59493,55.0444777 196.784429,55.1954111" id="Fill-48" fill="#000000"></path>
                <path d="M192.134921,62.7396013 C202.14699,56.9627117 210.26168,61.6445015 210.26168,73.203518 C210.26168,84.7611062 202.14699,98.8155219 192.134921,104.592411 C182.125709,110.373586 174.012448,105.687511 174.012448,94.1299231 C174.012448,82.5709066 182.125709,68.5174431 192.134921,62.7396013 M192.473926,53.2617505 C178.004801,61.6097439 166.272949,81.9181319 166.264376,98.626022 C166.257713,115.336769 177.980994,122.113532 192.45012,113.7703 C206.919245,105.426592 218.64824,85.1167756 218.656811,68.4060286 C218.659667,51.6995668 206.940195,44.9170899 192.473926,53.2617505" id="Fill-50" fill="#3D68EC"></path>
                <path d="M178.151449,75.5958826 C181.524356,69.7509064 186.203289,64.6339335 191.383112,61.6166954 L191.45834,61.5690824 C194.58604,59.766929 197.567093,58.9117989 200.228661,58.9117989 C202.186033,58.9117989 203.977235,59.3745976 205.54799,60.256391 L205.626075,60.3040041 C207.201114,61.2091279 208.524756,62.5541961 209.525106,64.2868345 C210.858747,66.5993996 211.613414,69.6085434 211.613414,73.2033276 C211.613414,79.2130449 209.50987,85.8574439 206.116965,91.7376538 C202.724537,97.6135785 198.01894,102.753882 192.810074,105.763026 C189.686659,107.566607 186.705607,108.424594 184.039753,108.424594 C182.047624,108.424594 180.224521,107.946083 178.642339,107.032389 C177.068729,106.12298 175.747943,104.782197 174.747593,103.050987 C173.411095,100.732232 172.659285,97.7235646 172.659285,94.1297327 C172.659285,88.1190631 174.75902,81.4760924 178.151449,75.5958826 M192.739131,63.9421161 L192.810074,63.9059302 C195.50402,62.3518407 198.021797,61.6166954 200.228661,61.6166954 C201.719901,61.6166954 203.06497,61.9528435 204.211492,62.5970478 L204.274341,62.6379951 C205.444669,63.3126718 206.433592,64.321592 207.188259,65.6271414 C208.287644,67.528806 208.904232,70.0827692 208.904232,73.2033276 C208.904232,78.7473894 206.94686,84.9118491 203.784403,90.3925855 C200.616707,95.8780833 196.258686,100.654147 191.45834,103.426178 C188.76868,104.980267 186.250902,105.719698 184.039753,105.719698 C182.52185,105.719698 181.157736,105.368314 179.99455,104.695541 C178.823745,104.01896 177.836251,103.014801 177.080156,101.706395 C175.980771,99.8033019 175.364182,97.2493387 175.364182,94.1297327 C175.364182,88.5847186 177.321554,82.4202589 180.48544,76.9366657 C183.640756,71.4792596 187.970685,66.717956 192.739131,63.9421161 M172.777842,72.1306059 C177.62961,63.7326187 184.35638,56.3892603 191.803059,52.0940884 C196.215358,49.5482194 200.418637,48.3417051 204.168164,48.3459789 C206.943051,48.3459789 209.474637,49.0059069 211.664836,50.2724137 C213.847894,51.5332069 215.686709,53.3958288 217.074629,55.8079052 C218.948202,59.0579709 220.004259,63.3088627 219.999987,68.4058381 C219.997117,77.0033239 216.995115,86.5021244 212.143347,94.9039206 C207.291579,103.299051 200.564809,110.642409 193.119559,114.938057 C188.705831,117.48345 184.503028,118.690441 180.75731,118.690441 C177.978614,118.686156 175.443696,118.024811 173.256353,116.764017 C171.070438,115.498463 169.23448,113.636317 167.84656,111.224241 C165.972987,107.973699 164.91693,103.72614 164.91693,98.6258316 C164.921215,90.032631 167.926074,80.5300214 172.777842,72.1306059 M193.143365,54.4323646 C186.123776,58.4761396 179.74601,65.4638287 175.11469,73.4837683 C170.484322,81.4994228 167.613732,90.5197123 167.613732,98.6258316 C167.613732,103.240487 168.538377,107.032389 170.180551,109.883934 C171.322788,111.868921 172.82974,113.399204 174.609515,114.42717 C176.388338,115.455135 178.463791,115.99221 180.75731,115.99221 C184.044038,115.99221 187.788327,114.905681 191.779252,112.604066 C198.801699,108.554102 205.175656,101.567841 209.806976,93.5521866 C214.436867,85.5322469 217.303648,76.5167187 217.307933,68.4058381 C217.307933,63.7954679 216.382812,59.9997568 214.738258,57.1482121 C213.594116,55.1632247 212.091925,53.6329417 210.313102,52.6049763 C208.529042,51.5765347 206.457398,51.0380313 204.168164,51.0380313 C200.877627,51.0380313 197.133338,52.1307504 193.143365,54.4323646" id="Fill-52" fill="#000000"></path>
                <path d="M21.5399397,49.5568374 C23.1816372,49.1997396 24.9171323,49.1759331 26.52312,49.7058662 L26.8159401,49.8091865 L40.0461742,57.4482218 C39.0891522,57.1135022 38.2549718,56.9501895 37.2308155,56.9349533 C32.7628082,56.8749609 28.2386176,59.8964841 25.1504362,62.8861066 C19.4682965,68.3949348 14.9402969,77.1176428 14.5970069,85.0904455 C14.4503588,88.521917 15.0907541,92.5004622 17.6689999,94.9949091 L17.8989709,95.2053587 L4.66349937,87.564895 C4.55303713,87.4825244 4.11356882,87.02782 4.00358271,86.9011693 C0.969203973,83.4649365 0.997295663,77.848979 1.83576121,73.6109428 C3.61553647,64.6058894 11.5126345,51.747037 21.5399397,49.5568374" id="Fill-54" fill="#3D68EC"></path>
                <path d="M24.1152812,50.6476996 C23.3634713,50.6281783 22.587855,50.7143579 21.824618,50.8762422 C17.6103883,51.7985067 13.7503995,54.8114596 10.6269844,58.6200262 C6.79461122,63.301816 4.09399986,69.1453638 3.16078437,73.8714337 C2.72131606,76.100676 2.51229483,78.7236781 2.90700689,81.1395635 C3.20839741,82.9783789 3.85260177,84.6981618 5.01055079,86.006568 L5.44573393,86.4617486 L13.9998918,91.4011248 L13.9637059,91.2868536 C13.3347377,89.250444 13.1642831,87.0473889 13.2523672,85.0300246 C13.4266309,80.973394 14.6236226,76.7467849 16.4871968,72.8310889 C18.4555197,68.6878025 21.1761285,64.8630474 24.2128879,61.9205618 C26.0012335,60.1855428 28.2585675,58.4371922 30.7220659,57.2235359 C31.9676229,56.6112323 33.2693633,56.1327213 34.5930057,55.8551373 L26.2664381,51.0466969 L26.1002686,50.9909896 C25.4517791,50.7772071 24.7790069,50.667221 24.1152812,50.6476996 M21.2556423,48.2356233 C22.2012372,48.0294588 23.1887315,47.9275669 24.1890814,47.9537541 C25.1308672,47.9818458 26.0597975,48.1280178 26.9458761,48.4213141 L27.2625028,48.5355854 L27.4843795,48.6431908 L40.7184227,56.2822262 L39.5999925,58.7219181 C39.1809978,58.57527 38.7977128,58.469569 38.4210937,58.3981495 C38.0344759,58.3272061 37.6426206,58.286735 37.2155317,58.2838782 C35.4481358,58.2600717 33.633603,58.7971467 31.9162009,59.6441826 C29.7302864,60.7197611 27.7048279,62.2928958 26.0916983,63.8555556 C23.2796724,66.5799735 20.7576099,70.1300014 18.9273648,73.9818959 C17.2099627,77.6004866 16.1039119,81.4676173 15.9448843,85.1404868 C15.8691796,86.8883614 16.0115426,88.7785989 16.5414757,90.4917159 C16.9576136,91.8282138 17.6103883,93.0571062 18.5869316,94.0069863 L18.8154742,94.2202927 L17.2266272,96.3757348 L3.87212312,88.6600424 C3.76213701,88.581957 3.60310947,88.4272147 3.44122515,88.2696155 L2.98652066,87.7953897 C1.46052288,86.0584662 0.622057333,83.8725517 0.246866615,81.5747466 C-0.207837871,78.7903363 0.0164195251,75.8373759 0.507309918,73.3529277 C1.51908692,68.2359548 4.42205367,61.9291322 8.53439152,56.9069092 C12.0106192,52.6674446 16.3800675,49.2988223 21.2556423,48.2356233" id="Fill-56" fill="#000000"></path>
                <path d="M33.6834539,50.4970044 C36.1945654,49.0852779 38.6318766,47.9816077 41.4619954,47.3650189 C44.2187902,46.7641424 47.1412783,46.7250997 49.8376045,47.6149873 L50.3270665,47.7878227 L59.1659503,52.8938446 C57.5561536,52.3243927 56.1529975,52.055379 54.4370237,52.0315725 C46.9236867,51.923967 39.3194089,57.0061824 34.1314925,62.0322144 C24.5812699,71.2896168 16.9660411,85.948242 16.3927801,99.3484546 C16.1470969,105.118202 17.2183902,111.804501 21.5568899,115.996829 L21.940651,116.352498 L13.097482,111.247904 C12.9117911,111.109827 12.1723607,110.338495 11.987146,110.128998 C6.88540928,104.355441 6.93302231,94.9123481 8.34046363,87.7908665 C11.1010674,73.8312007 20.7450877,58.33411 33.008301,50.8960016 L33.6834539,50.4970044 Z" id="Fill-58" fill="#3D68EC"></path>
                <path d="M37.9745311,49.8804632 C36.7523045,50.3827807 35.5624547,50.9907992 34.3449894,51.6759507 L33.6960237,52.0592357 C27.9024696,55.570697 22.6993171,60.9638255 18.5674579,67.1449497 C14.2051516,73.6650788 11.0498358,81.0603354 9.67001003,88.0518335 C8.90962985,91.8865874 8.55824565,96.4064928 9.23863593,100.594535 C9.76761675,103.829365 10.915567,106.87041 12.9786398,109.211542 C13.2567,109.528169 13.5799925,109.847653 13.881383,110.144758 L17.1862038,112.050232 C16.8024427,111.224145 16.4791502,110.370444 16.2053752,109.491507 C15.181695,106.182877 14.9055394,102.587617 15.0479024,99.2942234 C15.3321522,92.5998306 17.3171396,85.6188074 20.397703,79.1348643 C23.6606243,72.274302 28.163389,65.9384354 33.1937062,61.0671458 C36.1400008,58.2084592 39.8561982,55.3292989 43.9018778,53.3357411 C46.7253308,51.9449644 49.7192385,50.9798482 52.7436185,50.7384501 L49.7778025,49.0296182 L49.4149912,48.8996346 C48.2403776,48.5120645 47.0267213,48.3178034 45.8159218,48.2830458 C44.4684729,48.2425748 43.091504,48.3935081 41.7507209,48.6863282 C40.414223,48.9748632 39.168666,49.3824308 37.9745311,49.8804632 L37.9745311,49.8804632 Z M33.0237277,49.3181532 C34.3168977,48.5915783 35.6014974,47.9388036 36.9351385,47.3845879 C38.2911578,46.8241824 39.6833629,46.3690018 41.1774599,46.0442809 C42.7034577,45.7081329 44.2937331,45.5391066 45.8868653,45.5867197 C47.3781055,45.6338566 48.8526812,45.8671604 50.2605987,46.3328159 L50.7752956,46.51565 C50.8895669,46.5546927 50.9966962,46.6103999 51.0919223,46.6775343 L59.8384368,51.7230876 C60.4831173,52.0944693 60.7049941,52.9215077 60.332184,53.5619031 C60.0046063,54.135164 59.3194548,54.3765621 58.7195305,54.1632557 C57.9720059,53.9023363 57.2839975,53.7080751 56.5950369,53.5814244 C55.8989343,53.4542976 55.1914046,53.3876393 54.4162644,53.3762122 C51.2842789,53.3328844 48.1022998,54.2732418 45.0960127,55.7559117 C41.3241081,57.6156769 37.8435952,60.3162882 35.0715643,63.000235 C30.2712181,67.6553615 25.9650952,73.7126918 22.8416801,80.2861475 C19.8996706,86.4701285 18.0094331,93.0935778 17.7399434,99.4004004 C17.6104359,102.430018 17.8584998,105.711508 18.7836211,108.700655 C19.5268606,111.097495 20.7100445,113.304359 22.4898198,115.024142 L22.8526311,115.364575 C23.3997049,115.866893 23.4301772,116.720594 22.9278597,117.26624 C22.4926765,117.733324 21.8008591,117.824264 21.2680693,117.520017 L12.299678,112.332101 C12.1601718,112.228781 11.9268679,112.011189 11.6983253,111.780742 L10.9465155,110.987033 C8.51920297,108.222144 7.18270507,104.719253 6.57706726,101.025433 C5.83763682,96.4750556 6.20473332,91.6218589 7.01653557,87.5328514 C8.46301958,80.2104427 11.7654597,72.4671348 16.3282169,65.6465675 C20.6667166,59.1531018 26.1631654,53.4752473 32.3123889,49.7466705 L33.0237277,49.3181532 Z" id="Fill-60" fill="#000000"></path>
                <path d="M41.9572186,55.4088603 C27.4880934,63.7563776 15.7548131,84.0647655 15.7467183,100.773132 C15.7438621,117.483403 27.464763,124.262071 41.9334121,115.918362 C56.401109,107.573702 68.1301041,87.2653138 68.1386756,70.5531384 C68.1429596,53.8462005 56.4220587,47.065152 41.9572186,55.4088603" id="Fill-62" fill="#3D68EC"></path>
                <path d="M22.2598488,74.2790965 C27.1116171,65.8796809 33.8383867,58.5363225 41.2850654,54.242579 C45.6973654,51.6952816 49.9006441,50.4887673 53.6458855,50.4925674 C56.4250583,50.4925674 58.9566434,51.1539214 61.146843,52.4194759 C63.3299007,53.6802691 65.1687161,55.5467 66.5566361,57.9544912 C68.430209,61.2050331 69.4862662,65.4530681 69.481994,70.5529003 C69.481994,79.1503861 66.4771223,88.6491866 61.625354,97.0509828 C56.7735858,105.446113 50.0511013,112.789472 42.6044226,117.088929 C38.1921226,119.630513 33.9888439,120.837027 30.2393174,120.837027 C27.4606206,120.833218 24.9299878,120.176158 22.7383598,118.910603 C20.5524454,117.64981 18.7164867,115.782903 17.3285667,113.371303 C15.4549938,110.120761 14.3989367,105.874154 14.3989367,100.772894 C14.407507,92.175408 17.4080805,82.6770836 22.2598488,74.2790965 M42.6253723,56.5751416 C35.6057826,60.6246302 29.2280165,67.6108909 24.5962204,75.6308306 C19.9663289,83.646485 17.099548,92.6624894 17.0952629,100.772894 C17.0952629,105.387549 18.0175274,109.179451 19.6620816,112.03052 C20.8090796,114.015507 22.3112709,115.546266 24.0915223,116.574232 C25.8741543,117.602197 27.9500826,118.140701 30.2393174,118.140701 C33.5298542,118.140701 37.2741433,117.048458 41.2612589,114.750653 C48.2837055,110.702592 54.6571863,103.714903 59.2889824,95.6992488 C63.9231591,87.6793091 66.7856548,78.6633048 66.78994,70.5529003 C66.78994,65.9425301 65.8648187,62.146819 64.2202645,59.2952743 C63.0761232,57.314572 61.573932,55.7800039 59.795109,54.7515624 C58.0110485,53.7235969 55.9394054,53.1865219 53.6458855,53.1865219 C50.3591577,53.1865219 46.6153447,54.2735275 42.6253723,56.5751416" id="Fill-64" fill="#000000"></path>
                <path d="M109.295477,88.1663429 C95.4277047,83.2950532 80.172012,102.117914 75.1931169,115.032474 C72.0097094,123.284289 69.7319018,136.369304 77.023362,143.175587 C73.6461694,141.225357 28.7089868,115.744289 27.1758471,114.142586 C17.660382,104.193367 25.8183994,83.0341338 33.9135677,72.6968677 C39.4100165,65.6748973 50.1891315,56.4884383 59.6765049,59.6161385 L109.295477,88.1663429 Z" id="Fill-66" fill="#000000"></path>
                <path d="M90.5438928,91.7570323 C94.4500662,88.676945 98.7061954,86.5495946 103.01946,86.1101263 L59.1535709,60.8661712 C55.5040318,59.7025086 51.5897642,60.5690658 47.8959449,62.443591 C42.7232647,65.0651647 38.0176685,69.6407774 34.9737671,73.5269534 C30.528138,79.2105214 26.0558456,88.2417619 24.6717347,96.7749701 C23.6323422,103.161306 24.3398719,109.222446 28.1522476,113.21337 C29.3059114,114.40322 59.9291873,131.873395 72.5271203,139.058678 C71.5634324,136.840863 71.0530207,134.39641 70.8911364,131.86911 C70.4992811,125.874629 72.06575,119.393542 73.9350377,114.545583 C76.8184831,107.064623 83.0776927,97.636766 90.5438928,91.7570323 L90.5438928,91.7570323 Z M108.852057,89.443991 C103.327517,87.5023315 97.4673042,89.739668 92.2122535,93.8800975 C85.1298146,99.4603453 79.1910407,108.409215 76.4499582,115.514032 C74.6949418,120.070124 73.2232228,126.131263 73.5831774,131.70294 C73.8440968,135.752429 75.093939,139.52481 77.9454837,142.186379 L76.3594935,144.349915 L71.9690955,141.84166 C59.8063457,134.905869 27.6375507,116.574375 26.2020177,115.071707 C21.7187743,110.386108 20.8441228,103.50174 22.0073093,96.3397869 C23.470934,87.3556833 28.1717689,77.8416466 32.8492735,71.867163 C36.0883883,67.7310186 41.1187055,62.8540154 46.6780035,60.0305624 C50.9969819,57.8403628 55.6506799,56.8638194 60.0991658,58.3312532 L60.3477059,58.4498096 L109.968107,87.0000139 L108.852057,89.443991 Z" id="Fill-68" fill="#000000"></path>
                <path d="M109.295477,88.1663429 C94.9991873,83.1360257 79.1269059,103.14588 74.4217858,117.156015 L73.8247183,119.069583 L24.7666275,90.5393765 L25.0556386,89.5890203 C29.3422402,75.7579097 44.6369755,55.9261283 58.8018534,59.3666462 C61.5819786,60.0389423 105.407397,85.9247212 109.295477,88.1663429" id="Fill-70" fill="#3D68EC"></path>
                <path d="M87.4874692,94.4019364 C92.2206811,89.87108 97.6138096,86.6233948 103.090261,86.0972708 C90.3109222,78.6048836 60.5780101,61.1813695 58.4854172,60.6761952 C52.7004334,59.2716106 46.602632,62.1702922 41.244261,66.9749236 C34.3360858,73.160333 28.7063205,82.4286864 26.3680443,89.9101227 L73.0421505,117.05241 C73.1173791,116.811488 73.2359355,116.364877 73.3340184,116.171092 C75.8417969,109.049611 81.0773263,100.531639 87.4874692,94.4019364 L87.4874692,94.4019364 Z M108.856199,89.443991 L108.670509,89.3759044 C102.197993,87.2095113 95.2617256,90.685739 89.345806,96.343596 C83.2560988,102.171908 78.2776798,110.271361 75.8851248,117.06098 L75.7022907,117.59377 L75.1137936,119.468771 L73.1483275,120.235817 L24.0916651,91.7094193 L23.4779331,90.1515207 L23.7664681,89.1983078 C26.2147303,81.2974007 32.1530281,71.4943529 39.4463928,64.9661296 C45.4213526,59.6120438 52.3442879,56.4091149 59.1186706,58.0579544 C61.6450182,58.6674012 93.0896189,77.1093581 105.388066,84.3189239 L109.967964,87.0000139 L108.856199,89.443991 Z" id="Fill-72" fill="#000000"></path>
                <path d="M97.2188594,31.6979021 C100.374651,31.0103698 105.138336,30.7213587 108.235087,31.7455151 L108.797397,31.9435853 L138.632677,49.1690292 C136.785292,48.5162545 135.175495,48.207722 133.207172,48.1801065 C124.590165,48.06155 114.45573,54.1350688 108.504577,59.9005312 C101.920171,66.2830586 96.0247245,75.2514499 92.2875774,84.5517041 L62.4751515,67.3429247 C68.4510635,52.7233423 81.4441847,35.1379439 97.2188594,31.6979021" id="Fill-74" fill="#3D68EC"></path>
                <path d="M103.264905,32.4259013 C101.240875,32.4180016 99.1482824,32.6632087 97.5032521,33.0231633 C90.6664964,34.5144035 84.338724,38.8038619 78.9179799,44.3674451 C72.5397377,50.9085238 67.4260977,59.1808126 64.172699,66.7698542 L91.6263751,82.6183291 C93.4342421,78.3831497 95.6715786,74.2355782 98.2064966,70.3841598 C101.026141,66.0970821 104.209548,62.1828144 107.567219,58.9313203 C110.89299,55.70887 115.491933,52.3873847 120.419406,50.0505369 C124.174646,48.2664765 128.148906,47.0485351 131.929381,46.8585591 L108.23523,33.1769534 L107.812426,33.0317336 C106.534969,32.6075015 104.922315,32.430381 103.264905,32.4259013 M96.9299911,30.3768308 C98.7211935,29.9902129 101.023284,29.7211993 103.276333,29.7295706 C105.21085,29.7364355 107.112515,29.950218 108.658034,30.4606297 L109.243674,30.669651 C109.346995,30.706313 109.437935,30.7491647 109.524115,30.8053481 L139.308925,48.0012719 C139.953606,48.3736058 140.174054,49.2039772 139.802673,49.8438964 C139.47081,50.4171573 138.785658,50.6561747 138.18621,50.4409638 C137.319653,50.1371927 136.52023,49.9153159 135.722712,49.7662871 C134.911862,49.6153538 134.088632,49.53584 133.19065,49.5286981 C129.482547,49.477276 125.424488,50.6628406 121.568785,52.494514 C116.919372,54.6999498 112.580872,57.8290785 109.444601,60.8658379 C106.222151,63.989253 103.16587,67.7502066 100.456689,71.8630206 C97.7446502,75.9863095 95.3763778,80.4824084 93.5375624,85.054212 C93.2599784,85.7460294 92.4729349,86.0821775 91.7811175,85.8060219 L91.5397194,85.6788951 L61.8039505,68.5091584 C61.1987889,68.1620594 60.965485,67.4140586 61.2459258,66.7893756 C64.5869325,58.6356433 70.0681451,49.5805963 76.9801294,42.4857779 C82.749877,36.5708105 89.5309255,31.9909127 96.9299911,30.3768308" id="Fill-76" fill="#000000"></path>
                <path d="M97.2188594,31.6979021 C100.374651,31.0103698 105.138336,30.7213587 108.235087,31.7455151 L108.797397,31.9435853 L137.884677,48.7381312 L137.710413,48.8328812 L137.675655,48.8562116 C136.20346,48.4172194 134.828396,48.2034368 133.207172,48.1801065 C124.590165,48.06155 114.45573,54.1350688 108.504577,59.9005312 C105.728261,62.5887632 103.075263,65.7416984 100.650807,69.1860253 L70.8869464,52.0039093 C77.6527587,42.3584606 86.8344564,33.9633303 97.2188594,31.6979021" id="Fill-78" fill="#3D68EC"></path>
                <path d="M103.264905,32.4259013 C101.240875,32.4180016 99.1482824,32.6632087 97.5032521,33.0231633 C92.8486018,34.0358925 88.4277314,36.3489338 84.3791951,39.4723489 C80.0840232,42.7824071 76.193562,47.0094924 72.8525554,51.5808199 L100.262904,67.4059644 C101.283727,66.0066173 102.346926,64.6534548 103.439169,63.36457 C104.767573,61.786674 106.151208,60.3040041 107.567219,58.9313203 C110.89299,55.70887 115.491933,52.3873847 120.419406,50.0505369 C124.174646,48.2664765 128.148906,47.0485351 131.929381,46.8585591 L108.23523,33.1769534 L107.812426,33.0317336 C106.534969,32.6075015 104.922315,32.430381 103.264905,32.4259013 M96.9299911,30.3768308 C98.7211935,29.9902129 101.023284,29.7211993 103.276333,29.7295706 C105.21085,29.7364355 107.112515,29.950218 108.658034,30.4606297 L109.243674,30.669651 C109.346995,30.706313 109.437935,30.7491647 109.524115,30.8053481 L138.561401,47.5718023 C139.20132,47.9427079 139.423197,48.7683179 139.050863,49.4129984 C138.91707,49.6472545 138.719,49.824375 138.498552,49.9391224 L138.351903,50.0224452 C138.015755,50.2167064 137.631994,50.2486072 137.287752,50.149572 C136.619265,49.9472166 135.96649,49.8010446 135.294194,49.6991527 C134.606662,49.5915473 133.914368,49.53584 133.19065,49.5286981 C129.482547,49.477276 125.424488,50.6628406 121.568785,52.494514 C116.919372,54.6999498 112.580872,57.8290785 109.444601,60.8658379 C108.101438,62.170435 106.776367,63.5931125 105.498433,65.1081593 C104.206215,66.6317764 102.952564,68.2596661 101.758429,69.9642128 C101.33134,70.5698506 100.49716,70.7160226 99.8877129,70.3003608 L70.2186023,53.1696669 C69.5743979,52.7987613 69.348236,51.9755319 69.7205699,51.3313276 L69.7877043,51.2294357 C73.4520035,45.9967631 77.8300221,41.1169031 82.7303556,37.3407133 C87.0912335,33.9759001 91.8677732,31.4847861 96.9299911,30.3768308" id="Fill-80" fill="#000000"></path>
                <path d="M118.38252,51.7818897 C107.159652,58.2520251 97.3723162,71.0047004 92.2082064,84.5087095 C95.2768666,83.3617115 98.1674539,82.9184341 100.781886,83.1245986 C104.52189,74.6066266 110.836806,66.7809481 117.99495,62.6486128 C125.081198,58.5600814 131.336599,59.0428776 135.093267,63.1233147 C136.746392,58.7343451 138.873742,54.4991657 141.199163,50.7467823 C135.690335,46.4992235 127.512796,46.515888 118.38252,51.7818897" id="Fill-82" fill="#3D68EC"></path>
                <path d="M102.208801,64.3689669 C106.752513,58.6873035 112.050415,53.8783869 117.714462,50.6111804 C122.383396,47.9191394 126.844737,46.5393137 130.87042,46.3564796 C135.160354,46.1626945 138.96035,47.3177868 142.025201,49.6822501 C142.563229,50.0979119 142.712734,50.865434 142.345637,51.4539311 C141.191021,53.3203621 140.079257,55.3182051 139.047958,57.4050844 C138.06713,59.3986422 137.160578,61.4631434 136.371154,63.5628783 C136.298306,63.7676143 136.176892,63.9613994 136.006914,64.1166179 C135.461268,64.6227444 134.602329,64.5865585 134.100012,64.036628 C132.439745,62.2330462 130.205265,61.2369815 127.595119,61.1617529 C124.9545,61.0908095 121.917264,61.9416544 118.667199,63.8195125 C115.293815,65.7654573 112.102313,68.5803399 109.29981,71.9146808 C106.392558,75.3742439 103.900968,79.396117 102.051202,83.5951106 C101.844561,84.1488502 101.290821,84.5197557 100.678518,84.4721427 C99.4562912,84.3773927 98.1716915,84.4331 96.8394788,84.6468825 C95.5339293,84.8559037 94.1693397,85.2201435 92.7661836,85.7415062 C92.4495569,85.8838692 92.0781752,85.9048189 91.7296478,85.7738831 C91.0335452,85.5086785 90.6816849,84.7263963 90.9468895,84.0298176 C93.6198853,77.0383195 97.5189168,70.2377497 102.208801,64.3689669 M119.054769,52.9494566 C113.692589,56.0404948 108.653701,60.6246779 104.312345,66.0497071 C100.393792,70.9533736 97.0404058,76.5526665 94.5378646,82.372884 C95.1696896,82.2109996 95.7986578,82.0838728 96.4152466,81.9848377 C97.6289029,81.7881959 98.8035165,81.7048731 99.9309931,81.7324886 C101.840752,77.5877739 104.344721,73.6301784 107.239118,70.1820424 C110.239691,66.6148738 113.673067,63.5904938 117.326416,61.4826648 C121.023092,59.346744 124.546932,58.3816278 127.666062,58.4692358 C130.289064,58.5406553 132.625436,59.346744 134.551859,60.8103687 C135.19654,59.2477089 135.892642,57.7064749 136.627788,56.2109495 C137.493869,54.4587898 138.423275,52.7556715 139.391248,51.1258773 C137.018215,49.6279712 134.170955,48.9080622 130.984691,49.0547103 C127.378956,49.2165946 123.337561,50.4773878 119.054769,52.9494566" id="Fill-84" fill="#000000"></path>
                <path d="M112.612773,72.6302095 C108.405685,70.2014685 104.541411,69.1454114 106.340708,61.4030558 C107.918604,54.6024859 115.206255,45.996906 120.805548,48.9317734 L124.922171,51.3076639 C116.357062,47.2619843 104.827089,67.2356526 112.612773,72.6302095" id="Fill-86" fill="#000000"></path>
                <path d="M107.653542,61.7045415 C106.804125,65.3731259 107.444521,67.2957402 108.804349,68.6322381 C108.575806,67.1490921 108.677222,65.519774 109.041462,63.8580791 C109.4895,61.823098 110.343202,59.7109837 111.470203,57.757897 C112.597679,55.8033819 114.000835,54.0040853 115.542069,52.600453 C116.859046,51.3982239 118.283628,50.4692936 119.749633,49.9322185 C119.596319,49.87175 119.43872,49.8246131 119.279217,49.7898556 C117.643233,49.4103797 115.792038,50.1731405 114.0594,51.5572514 C112.16202,53.068013 110.442237,55.2901134 109.211916,57.6312463 C108.504387,58.9910746 107.959217,60.3875649 107.653542,61.7045415 M111.893006,73.7682562 L110.623643,73.0640594 C106.491784,70.8067254 103.189344,68.9960017 105.023874,61.1031889 C105.379543,59.5686207 106.004702,57.947873 106.823647,56.3852132 C108.219661,53.7193594 110.192269,51.1844414 112.379612,49.440852 C114.724554,47.5715643 117.349936,46.5702621 119.880569,47.1559025 C120.402408,47.2787441 120.924247,47.4725291 121.43085,47.7377337 L125.59461,50.1412398 C126.23929,50.5097647 126.461167,51.3353747 126.092642,51.97577 C125.741258,52.589502 124.978021,52.8223298 124.349053,52.5252244 C122.163138,51.4929738 119.604414,52.549031 117.361364,54.598296 C116.013915,55.8271884 114.787403,57.3941334 113.802765,59.0986801 C112.821937,60.8017984 112.074412,62.648708 111.683985,64.4318162 C111.03502,67.4014412 111.394974,70.1468088 113.379962,71.5223494 C113.992265,71.9451531 114.147484,72.7836187 113.723251,73.3973507 C113.309018,73.9944181 112.498168,74.1563025 111.893006,73.7682562" id="Fill-88" fill="#000000"></path>
                <path d="M118.770328,72.0204293 C113.961888,74.7967454 110.065237,72.5465534 110.065237,66.9943973 C110.065237,61.4422413 113.961888,54.6930935 118.770328,51.9172536 C123.57496,49.1409375 127.473991,51.3911296 127.473991,56.9432856 C127.473991,62.4940132 123.57496,69.2445894 118.770328,72.0204293" id="Fill-90" fill="#3D68EC"></path>
                <path d="M114.882438,71.8587355 C115.80756,71.8587355 116.875996,71.5463939 118.026803,70.8936192 L118.093462,70.8541004 C120.268425,69.596164 122.260554,67.4212006 123.717037,64.9186594 L123.75608,64.8472399 C125.215419,62.3170832 126.120543,59.4807747 126.120543,56.943476 C126.120543,55.5707922 125.859624,54.4671221 125.393968,53.6567482 C125.104957,53.1544307 124.736908,52.7668606 124.314105,52.5097502 L124.245542,52.4735643 C123.799408,52.21693 123.262333,52.0788522 122.656695,52.0788522 C121.715385,52.0788522 120.62457,52.4026209 119.445672,53.0834873 C117.266423,54.3442804 115.278579,56.5149587 113.819239,59.0189282 L113.778768,59.0903478 C112.319905,61.6205045 111.41859,64.4553846 111.41859,66.9945878 C111.41859,68.3348947 111.664273,69.4190435 112.106122,70.220847 L112.145165,70.2808395 C112.434176,70.783157 112.802701,71.1707271 113.225029,71.4278375 L113.289306,71.462595 C113.735917,71.7206576 114.27442,71.8587355 114.882438,71.8587355 L114.882438,71.8587355 Z M119.363301,73.2314193 C117.777311,74.1365431 116.250837,74.563632 114.882438,74.563632 C113.802575,74.563632 112.80651,74.3027125 111.936144,73.800395 L111.858058,73.7489729 C111.026735,73.2509406 110.330632,72.5353167 109.808793,71.6325735 L109.76118,71.5463939 C109.088884,70.3394035 108.709408,68.8067399 108.709408,66.9945878 C108.709408,63.9811588 109.757371,60.6639586 111.446682,57.7371853 L111.49001,57.6662419 C113.173607,54.7713694 115.507598,52.2407366 118.093462,50.7509247 C119.706591,49.8177092 121.260205,49.3739557 122.656695,49.3739557 C123.736558,49.3739557 124.732623,49.6391603 125.598704,50.1414778 L125.681075,50.1886147 C126.512398,50.6909323 127.208501,51.402271 127.726531,52.3050142 C128.430728,53.5229556 128.82544,55.0879961 128.82544,56.943476 C128.82544,59.9564289 127.781762,63.2736291 126.092928,66.2008785 L126.045315,66.2718219 C124.361718,69.1662183 122.027727,71.6968511 119.445672,73.186663 L119.363301,73.2314193 Z" id="Fill-92" fill="#000000"></path>
                <path d="M94.3758851,90.3536857 C81.83604,97.5851535 71.6649434,115.190549 71.6582762,129.674435 C71.6539924,144.155939 81.8165187,150.036149 94.3549354,142.798968 C106.89478,135.567024 117.065401,117.962104 117.06969,103.477743 C117.076828,88.9962381 106.918587,83.1165043 94.3758851,90.3536857" id="Fill-94" fill="#FFFFFF"></path>
                <path d="M77.150346,106.616537 C81.3688609,99.3136495 87.2224075,92.923504 93.7034938,89.1820717 C97.557769,86.9594952 101.232543,85.9077233 104.510701,85.9077233 C106.954678,85.9077233 109.179635,86.4895546 111.102249,87.601319 C113.024387,88.7116549 114.637041,90.3495434 115.854506,92.4683234 C117.49668,95.3117739 118.417516,99.0251145 118.417516,103.477886 C118.413231,110.963607 115.804512,119.227325 111.580284,126.535926 C107.361769,133.838814 101.508699,140.228959 95.0276123,143.966582 C91.172861,146.192968 87.4985631,147.24474 84.2161204,147.24474 C81.7764285,147.24474 79.550043,146.662908 77.628857,145.551144 C75.7067188,144.440808 74.0940653,142.799111 72.8718386,140.68414 C71.2301412,137.841165 70.3093051,134.127349 70.3093051,129.674578 C70.3135903,122.188856 72.9261175,113.925138 77.150346,106.616537 M95.0471337,91.5198718 C88.9898033,95.0113356 83.4852603,101.044859 79.4829086,107.969699 C75.484842,114.893111 73.0061074,122.675937 73.0061074,129.674578 C73.0061074,133.637887 73.7969599,136.895094 75.2086864,139.343357 C76.1809446,141.031239 77.4631636,142.337264 78.9805911,143.214296 C80.4956378,144.088948 82.2630337,144.546509 84.2161204,144.546509 C87.0352882,144.546509 90.2505965,143.610913 93.6839725,141.632591 C99.7413028,138.141127 105.245846,132.107604 109.248198,125.182764 C113.246264,118.259352 115.720714,110.476526 115.724999,103.477886 C115.724999,99.5117197 114.929861,96.2530836 113.52242,93.8091065 C112.545876,92.1169392 111.263657,90.8151988 109.750515,89.9381667 C108.235468,89.0606585 106.463787,88.605954 104.510701,88.605954 C101.695342,88.605954 98.4800335,89.5391695 95.0471337,91.5198718" id="Fill-96" fill="#000000"></path>
                <path d="M118.82056,88.6489962 C102.810201,83.0258967 85.2414671,104.734584 79.4788615,119.634607 C75.8017068,129.148644 73.1887034,144.258165 81.5909757,152.10765 C77.6205247,149.81413 71.5746215,146.900212 69.6729569,144.74477 C58.8728921,132.506315 69.1068379,107.383773 79.455055,95.296252 C85.7228349,87.9767001 97.3289884,78.8740401 107.523891,82.230759 L118.82056,88.6489962 Z" id="Fill-98" fill="#3D68EC"></path>
                <path d="M97.3207037,92.9427873 C101.971545,89.2808688 107.049475,86.790707 112.185969,86.4307525 L106.993768,83.4844579 C103.010938,82.2112853 98.7367154,83.0254682 94.688179,84.9118967 C89.0917428,87.5134729 83.9509634,92.1238431 80.4804493,96.1733318 C74.8206878,102.78583 69.1947315,113.390681 67.1816524,123.546066 C65.6389901,131.343176 66.2441518,138.826041 70.6802582,143.850645 C71.6929875,145.001452 74.2364758,146.501262 76.932802,147.991074 C75.6077313,145.270465 74.9282932,142.214185 74.7216527,139.046489 C74.2755185,132.157835 76.07053,124.71687 78.2216869,119.151859 C81.5474574,110.543422 88.7398825,99.7014577 97.3207037,92.9427873 M118.378521,89.9226925 C111.92505,87.6558359 105.10353,90.2545553 98.9904929,95.0658526 C90.7920043,101.523609 83.9204911,111.88849 80.7370835,120.121736 C78.7001979,125.392023 76.9956512,132.420183 77.4198834,138.876035 C77.7236545,143.602105 79.1829941,148.012024 82.5125736,151.120203 C83.058219,151.624901 83.0891675,152.480031 82.579708,153.025676 C82.1207183,153.519424 81.3812879,153.590367 80.8399277,153.226603 C79.909569,152.693337 78.7797117,152.076749 77.6208104,151.443495 C74.0703064,149.50993 70.2379331,147.422098 68.6605133,145.63899 C63.5825831,139.880194 62.8350584,131.581718 64.5286541,123.02756 C66.632198,112.414138 72.5119317,101.330776 78.4311842,94.4187914 C82.1054822,90.1317137 87.5695541,85.2394743 93.5487991,82.4607776 C98.2067823,80.2886709 103.189486,79.3835471 107.946505,80.950016 C108.065061,80.9890587 108.179333,81.0447659 108.278368,81.1119003 L119.488857,87.4744302 C120.133061,87.842479 120.363508,88.66428 119.994983,89.3132456 C119.671691,89.8865066 118.983682,90.1317137 118.378521,89.9226925" id="Fill-100" fill="#000000"></path>
                <path d="M101.271348,100.641767 C111.28056,94.8610689 119.398106,99.5466677 119.398106,111.105684 C119.398106,122.663272 111.28056,136.718164 101.271348,142.498863 C91.2635638,148.275752 83.1488742,143.589678 83.1488742,132.032089 C83.1488742,120.473073 91.2635638,106.419609 101.271348,100.641767 M101.611781,91.1667735 C87.1426556,99.5119102 75.4108037,119.820298 75.4027048,136.528188 C75.3941392,153.238935 87.1193252,160.019984 101.587974,151.672466 C116.052814,143.328758 127.784666,123.02037 127.793238,106.308195 C127.797522,89.601733 116.076621,82.8206845 101.611781,91.1667735" id="Fill-102" fill="#F8D754"></path>
                <path d="M87.2892085,113.502239 C90.6816373,107.621077 95.3872336,102.480297 100.594671,99.4716295 C103.7238,97.669 106.704852,96.8138699 109.366421,96.8138699 C111.35855,96.8138699 113.182129,97.2895241 114.763834,98.2060751 C116.317924,99.104533 117.622045,100.42151 118.615729,102.109392 L118.662866,102.180335 C119.999364,104.497662 120.751174,107.50252 120.751174,111.105875 C120.751174,117.115116 118.650486,123.759991 115.254725,129.639725 C111.865153,135.515649 107.155271,140.655953 101.947834,143.665097 C98.8244186,145.472964 95.8419381,146.326665 93.1775126,146.326665 C91.2229975,146.326665 89.4279861,145.86339 87.8624695,144.977788 L87.7791467,144.93446 C86.2288662,144.041716 84.9247452,142.724739 83.9272521,141.031143 L83.8839243,140.957343 C82.5479025,138.642874 81.7932359,135.634206 81.7932359,132.03228 C81.7932359,126.021134 83.8967798,119.378163 87.2892085,113.502239 M101.947834,101.80943 C104.636066,100.253912 107.159557,99.5187664 109.366421,99.5187664 C110.884324,99.5187664 112.248914,99.871579 113.414957,100.540066 C114.561479,101.199983 115.539451,102.18462 116.285547,103.461126 L116.326494,103.532069 C117.425403,105.439447 118.046277,107.989125 118.046277,111.105875 C118.046277,116.64946 116.085096,122.81392 112.92121,128.298942 C109.754467,133.780154 105.396446,138.556694 100.594671,141.332534 C97.9064393,142.882338 95.3872336,143.621769 93.1775126,143.621769 C91.6862723,143.621769 90.3416802,143.285621 89.1946822,142.637131 L89.131833,142.598088 C87.9815021,141.933887 87.0049587,140.953058 86.2569579,139.6756 L86.2179153,139.604181 C85.1185303,137.698707 84.5005131,135.15141 84.5005131,132.03228 C84.5005131,126.491075 86.4593133,120.32233 89.6217711,114.843022 C92.7899425,109.358 97.1479636,104.580984 101.947834,101.80943 M81.9156014,110.034105 C86.7673697,101.638975 93.4927109,94.2918074 100.93939,89.9966355 C105.353118,87.4545756 109.556397,86.2480613 113.304495,86.2480613 C116.080811,86.2480613 118.615729,86.9094063 120.803072,88.1744847 C122.98851,89.435754 124.820184,91.302185 126.211436,93.7099762 C128.085962,96.9605181 129.142019,101.208077 129.137747,106.308385 C129.133925,114.905871 126.132875,124.404195 121.281107,132.806468 C116.42791,141.205407 109.702569,148.548766 102.256366,152.842985 C97.8440662,155.385997 93.6436442,156.592512 89.89507,156.592512 C87.1149448,156.592512 84.5800268,155.927358 82.3941124,154.666088 C80.2110547,153.40101 78.3722393,151.534103 76.9843193,149.126312 C75.1097941,145.876246 74.0532609,141.628211 74.0532609,136.528379 C74.0575461,127.930893 77.0624047,118.432092 81.9156014,110.034105 M102.280173,92.3344356 C95.2615352,96.3829719 88.8823407,103.370185 84.2524492,111.386315 C79.6220815,119.405779 76.7514768,128.421783 76.7514768,136.528379 C76.7472064,141.143034 77.6723277,144.93446 79.3168819,147.786005 C80.4634038,149.766707 81.9660712,151.301275 83.7458465,152.329717 C85.5260978,153.357682 87.6020262,153.894757 89.89507,153.894757 C93.1817978,153.894757 96.9260869,152.807752 100.915583,150.506137 C107.935173,146.456173 114.313415,139.470388 118.943307,131.454734 C123.574627,123.434794 126.441407,114.41879 126.445693,106.308385 C126.445693,101.698015 125.519619,97.9018278 123.874589,95.0507592 C122.732352,93.0652957 121.229685,91.5350127 119.449433,90.5070473 C117.669658,89.4790818 115.59373,88.9420068 113.304495,88.9420068 C110.015386,88.9420068 106.273954,90.0328214 102.280173,92.3344356" id="Fill-104" fill="#000000"></path>
                <path d="M105.258273,93.9276153 C107.769384,92.5158888 110.204791,91.4126948 113.035386,90.7956299 C115.791705,90.1947534 118.714669,90.1557107 121.410995,91.0484551 L121.901885,91.2184336 L130.739341,96.3244555 C129.129544,95.7550036 127.726388,95.48599 126.006129,95.4621835 C118.497077,95.354578 110.892799,100.441079 105.704883,105.462825 C96.1546605,114.720228 88.5394316,129.38171 87.9656945,142.779066 C87.7204874,148.548813 88.7917807,155.235112 93.1302805,159.427439 L93.5135654,159.783109 L84.6708725,154.678515 C84.4851817,154.540438 83.7462274,153.773392 83.5605365,153.560085 C78.4587998,147.786052 78.5064128,138.347244 79.9138542,131.224334 C82.6744579,117.266097 92.3199066,101.769006 104.581692,94.3266126 L105.258273,93.9276153 Z" id="Fill-106" fill="#3D68EC"></path>
                <path d="M109.543779,93.3110265 C108.325838,93.8133441 107.131703,94.4213625 105.918047,95.1065141 L105.269557,95.4902752 C99.476003,99.0012604 94.2728505,104.394389 90.1405152,110.575513 C85.778685,117.095642 82.622893,124.490899 81.2435434,131.482397 C80.4831632,135.317627 80.131779,139.841341 80.8121693,144.025099 C81.3425785,147.264214 82.4891004,150.300973 84.547888,152.646391 C84.8297572,152.958733 85.1535258,153.278216 85.4549164,153.575321 L88.7568804,155.48508 C88.3759761,154.658994 88.0522074,153.799579 87.7789086,152.92207 C86.7552284,149.613441 86.4790727,146.01818 86.6166744,142.724787 C86.9056855,136.033251 88.890673,129.049371 91.9707602,122.568284 C95.2336815,115.703437 99.7369224,109.368999 104.762954,104.497709 C107.713534,101.639023 111.426875,98.7598623 115.475411,96.7663045 C118.298864,95.3755277 121.292296,94.4104115 124.318104,94.1690134 L121.344194,92.4530396 L120.988525,92.3344832 C119.813911,91.9469131 118.600255,91.7488428 117.38517,91.7136092 C116.04153,91.6731381 114.665037,91.8240714 113.319969,92.1168916 C111.983471,92.4097118 110.746485,92.8129942 109.543779,93.3110265 L109.543779,93.3110265 Z M104.597261,92.7487166 C105.890431,92.0221417 107.175031,91.369367 108.508672,90.8151512 C109.864691,90.2547458 111.261181,89.7995652 112.750993,89.4748443 C114.274134,89.1429814 115.867266,88.9725268 117.460399,89.0201398 C118.951639,89.0629915 120.426215,89.2977238 121.833656,89.7633793 L122.344544,89.9462133 C122.451673,89.985256 122.553565,90.0328691 122.64403,90.0957183 L131.41197,95.1579362 C132.056175,95.5250327 132.278051,96.3520711 131.905717,96.9924664 C131.577664,97.5657274 130.894417,97.8071254 130.293064,97.593819 C129.545063,97.3328996 128.857531,97.1429236 128.16857,97.0162729 C127.473896,96.884861 126.764938,96.8182027 125.99075,96.8067756 C122.859241,96.7639238 119.671548,97.7080903 116.669546,99.1869512 C112.897165,101.044812 109.418081,103.745899 106.645098,106.430798 C101.844751,111.085925 97.5386286,117.14754 94.4109283,123.719568 C91.4727279,129.900692 89.5824904,136.524141 89.3134767,142.830964 C89.1834931,145.859153 89.4320332,149.142072 90.3581067,152.131218 C91.1003939,154.528058 92.2835779,156.734922 94.0633531,158.455181 L94.4261645,158.795138 C94.9727621,159.297456 95.0037106,160.151158 94.5013931,160.696803 C94.0662099,161.166744 93.3743925,161.254828 92.8416026,160.949152 L83.8732113,155.761236 C83.7308484,155.659344 83.5004013,155.441752 83.2756677,155.211305 L82.5195727,154.420453 C80.0965454,151.656992 78.7519533,148.149816 78.1506006,144.455997 C77.4111702,139.908476 77.7796951,135.052422 78.5900689,130.963415 C80.036553,123.641006 83.3385169,115.897698 87.8974651,109.077131 C92.2359648,102.583665 97.7366988,96.9058107 103.885922,93.1758055 L104.597261,92.7487166 Z" id="Fill-108" fill="#000000"></path>
                <path d="M113.190271,108.317179 C103.181059,114.095021 95.0677977,128.15277 95.0677977,139.711786 C95.0677977,151.269374 103.181059,155.951164 113.190271,150.174275 C123.20234,144.3931 131.312745,130.338684 131.312745,118.781096 C131.312745,107.222079 123.20234,102.536004 113.190271,108.317179" id="Fill-110" fill="#F4D9DC"></path>
                <path d="M99.2081796,121.169175 C102.580135,115.328484 107.254783,110.215797 112.438414,107.193797 L112.513642,107.14666 C115.641343,105.344507 118.623823,104.489377 121.283963,104.489377 C123.241335,104.489377 125.033966,104.952176 126.599007,105.833969 L126.682805,105.877297 C128.23261,106.775755 129.536731,108.088446 130.530415,109.784423 L130.577552,109.855842 C131.91405,112.172692 132.664431,115.181836 132.664431,118.780906 C132.664431,124.766816 130.584694,131.379315 127.215595,137.239527 L127.172267,137.319041 C123.803645,143.15878 119.128997,148.275276 113.941081,151.29299 L113.866805,151.340604 C110.741961,153.144185 107.760909,154.002172 105.095055,154.002172 C103.099117,153.993602 101.275538,153.519376 99.6976416,152.609967 C98.1478374,151.712937 96.8422879,150.400246 95.8505084,148.70665 L95.8028954,148.63285 C94.4663975,146.318381 93.7145876,143.309237 93.7145876,139.711596 C93.7145876,133.724257 95.7948012,127.108902 99.1634234,121.251546 L99.2081796,121.169175 Z M113.798718,109.519694 C109.030273,112.291249 104.700343,117.056838 101.540742,122.520909 L101.5017,122.589472 C98.3616199,128.049259 96.4194842,134.190388 96.4194842,139.711596 C96.4194842,142.826917 97.036073,145.378023 98.135458,147.279688 L98.175929,147.350631 C98.9220253,148.628565 99.899997,149.609394 101.049376,150.273119 C102.221133,150.9497 103.584294,151.301085 105.095055,151.301085 C107.306205,151.297276 109.82541,150.557845 112.513642,149.003756 L112.585062,148.96757 C117.350174,146.195539 121.684389,141.431855 124.839705,135.965878 L124.879224,135.903029 C128.019303,130.437529 129.960963,124.301161 129.960963,118.780906 C129.960963,115.664632 129.342946,113.114478 128.243561,111.207576 L128.204518,111.136157 C127.456993,109.864412 126.48045,108.879299 125.329643,108.215097 L125.266794,108.174626 C124.120272,107.530421 122.775204,107.193797 121.283963,107.193797 C119.078528,107.193797 116.559322,107.930847 113.866805,109.484937 L113.798718,109.519694 Z" id="Fill-112" fill="#000000"></path>
                <path d="M100.374413,151.443638 L91.5355295,146.341901 C108.073441,155.422183 132.661765,114.530204 118.339288,102.749787 L117.167531,101.943222 C126.183535,107.146851 134.002072,109.211352 130.629164,124.910798 C127.394335,139.968421 111.608233,157.612383 100.374413,151.443638" id="Fill-114" fill="#3D68EC"></path>
                <path d="M98.5790686,148.848966 L101.023046,150.260692 C101.797234,150.688733 102.600942,150.984887 103.415601,151.15915 C107.064664,151.941432 111.140816,150.359727 114.973189,147.406291 C118.959828,144.333346 122.652695,139.798204 125.369971,134.847401 C127.200216,131.51306 128.584327,127.994932 129.308045,124.628691 C131.640608,113.76292 128.189615,109.911502 122.795058,106.644295 C124.555312,110.950894 124.277728,116.447343 122.617938,122.046636 C121.359525,126.294671 119.307403,130.612221 116.764391,134.49554 C114.214237,138.386477 111.149386,141.869847 107.871229,144.44476 C104.885891,146.785893 101.719148,148.370455 98.5790686,148.848966 L98.5790686,148.848966 Z M99.6460767,152.581828 C96.7683449,150.922037 93.6520717,149.256057 90.8562343,147.509611 C90.215839,147.132992 89.9939622,146.307382 90.3653439,145.666987 C90.7333927,145.029448 91.5437665,144.807571 92.1841619,145.156099 C96.5031403,147.529132 101.555836,145.971234 106.210962,142.320266 C109.239627,139.944376 112.097838,136.681931 114.502772,133.01287 C116.910563,129.334287 118.848414,125.266229 120.031598,121.287684 C122.130856,114.205245 121.850416,107.424197 117.520486,103.825127 L116.40158,103.050939 C115.792133,102.626707 115.636915,101.788718 116.061147,101.175938 C116.473,100.575062 117.283373,100.417462 117.891392,100.805033 C118.820322,101.337822 119.814006,101.883468 120.779122,102.409116 C128.939997,106.870457 135.155878,110.267171 131.948664,125.191001 C131.170667,128.821019 129.691806,132.588638 127.737291,136.148665 C124.850989,141.403715 120.904821,146.240248 116.622028,149.542212 C112.190207,152.961304 107.34939,154.765362 102.853291,153.799769 C101.781997,153.57075 100.734511,153.18318 99.7217815,152.629441 L99.6460767,152.581828 Z" id="Fill-116" fill="#000000"></path>
                <polygon id="Fill-118" fill="#FFFFFF" points="126.006177 107.044864 117.167293 101.943127 116.859236 101.768863 116.539753 101.611264 116.214556 101.468901 125.05344 106.569209 125.377208 106.715858 125.69812 106.874885"></polygon>
                <path d="M125.329691,108.211097 C125.013064,108.028263 124.700246,107.898756 124.376954,107.736872 L115.593777,102.667512 C114.961952,102.338029 114.684368,101.568127 114.981474,100.911067 C115.28953,100.2302 116.088953,99.9302383 116.768391,100.234486 C120.102732,101.73382 123.503731,104.038767 126.682853,105.877106 C127.314678,106.241346 127.54084,107.047435 127.191836,107.689259 C126.836167,108.340605 126.017223,108.582003 125.361591,108.226334 L125.329691,108.211097 Z" id="Fill-120" fill="#000000"></path>
                <path d="M113.190271,108.317179 C123.20234,102.54029 131.31703,107.222079 131.31703,118.781096 C131.31703,130.338684 123.20234,144.3931 113.190271,150.174275 C103.181059,155.951164 95.0677977,151.265089 95.0677977,139.707501 C95.0677977,128.148485 103.181059,114.095021 113.190271,108.317179 M113.530704,98.8436136 C99.0615791,107.187322 87.3282988,127.49571 87.3211527,144.207885 C87.3130627,160.914347 99.0377726,167.692539 113.506898,159.347878 C127.976023,151.00417 139.70359,130.695782 139.70788,113.983607 C139.716445,97.2771448 127.995544,90.4960963 113.530704,98.8436136" id="Fill-122" fill="#3D68EC"></path>
                <g id="Group-126" transform="translate(85.9765, 93.9235)">
                    <mask id="mask-4" fill="white">
                        <use xlink:href="#path-3"></use>
                    </mask>
                    <g id="Clip-125"></g>
                    <path d="M13.2316755,27.2498923 C16.6036306,21.4049161 21.2820875,16.2879432 26.4619096,13.2745142 L26.5371382,13.2273773 C29.6648384,11.4209388 32.647319,10.5658086 35.3074593,10.5658086 C37.2648311,10.5658086 39.0574619,11.0286073 40.6267875,11.9146859 L40.7063013,11.9580138 C42.2799121,12.8674228 43.6035545,14.2082058 44.6053328,15.9408442 C45.9375455,18.2534093 46.6922121,21.2625531 46.6922121,24.8573373 C46.6922121,30.8670546 44.5929534,37.5157388 41.1957633,43.3916635 C37.8033346,49.2671121 33.0977383,54.4078915 27.8903006,57.4170353 C24.7654571,59.2206171 21.784405,60.078604 19.1185511,60.078604 C17.1264218,60.078604 15.3076038,59.600093 13.7211375,58.6863988 C12.1475267,57.7765137 10.8267411,56.4362068 9.8263912,54.7049968 C8.4898933,52.3881465 7.73808347,49.3813833 7.73808347,45.7837424 C7.73808347,39.7730728 9.83781833,33.129626 13.2316755,27.2498923 M27.822214,15.600411 L27.8903006,15.5613683 C30.5828178,14.0072788 33.1020235,13.2707052 35.3074593,13.2707052 C36.7986995,13.2707052 38.1437678,13.6068532 39.2902896,14.2553427 L39.3531389,14.2920048 C40.5234673,14.9666815 41.5166752,15.9756017 42.2670566,17.2840079 C43.3664416,19.1871009 43.9873156,21.736779 43.9873156,24.8573373 C43.9873156,30.4013991 42.0261346,36.5658588 38.8632007,42.0508804 C35.6955055,47.5320931 31.3374844,52.3124418 26.5371382,55.0844727 C23.8489062,56.6385622 21.3297005,57.3737074 19.1185511,57.3737074 C17.6006476,57.3737074 16.2365341,57.0218471 15.0728715,56.3538362 C13.9025431,55.677255 12.9150488,54.6688109 12.1589538,53.3604047 C11.063854,51.4573117 10.44298,48.9076336 10.44298,45.7837424 C10.44298,40.2401567 12.4003519,34.0742686 15.5642381,28.5944844 C18.7195539,23.1332693 23.0537685,18.3719658 27.822214,15.600411 M7.85663993,23.786044 C12.7084082,15.3909136 19.4351778,8.04327004 26.8818565,3.74809813 C31.2941565,1.20651431 35.4974353,0 39.2426766,0 C42.0232779,0 44.5539107,0.661345059 46.7436342,1.9264234 C48.927168,3.18721658 50.7616982,5.05412369 52.1534272,7.46191488 C54.0284286,10.7119807 55.0830573,14.9643008 55.0802063,20.064133 C55.0763915,28.6616188 52.0743896,38.1604193 47.2226213,46.5579303 C42.3703769,54.9573459 35.6440834,62.3007043 28.2016899,66.5944478 C23.7846286,69.13746 19.581826,70.3444505 15.8375369,70.3444505 C13.0574118,70.3444505 10.5224938,69.6831054 8.33515093,68.4180271 C6.14923649,67.1567578 4.31327785,65.2903268 2.92535787,62.8782504 C1.05178494,59.6277085 -0.00427218288,55.3801496 -3.1974418e-14,50.2841265 C-3.1974418e-14,41.6866407 3.00487164,32.1883163 7.85663993,23.786044 M28.2221635,6.08637429 C21.2025737,10.1344345 14.8248076,17.1178384 10.1949161,25.1377781 C5.56359615,33.1577177 2.69253013,42.1737221 2.69253013,50.2841265 C2.69253013,54.8944967 3.61717528,58.6863988 5.25934886,61.5374674 C6.40587075,63.5229309 7.90853814,65.0532139 9.68831339,66.0811793 C11.4671364,67.1091447 13.5425886,67.6476482 15.8375369,67.6476482 C19.1228363,67.6476482 22.8685538,66.5596903 26.85805,64.2580762 C33.8762114,60.2095398 40.2544536,53.2261359 44.8857735,45.2061963 C49.5156651,37.1905418 52.3824459,28.1707284 52.3867311,20.064133 C52.3867311,15.4494777 51.4616098,11.6580517 49.8170556,8.80650699 C48.6729144,6.82151955 47.1707231,5.2912366 45.3876149,4.258986 C43.6078397,3.23054444 41.5319113,2.6934694 39.2426766,2.6934694 C35.9564249,2.6934694 32.216421,3.78428404 28.2221635,6.08637429" id="Fill-124" fill="#000000" mask="url(#mask-4)"></path>
                </g>
            </g>
        </g>
    </g>
</svg>