<?xml version="1.0" encoding="UTF-8"?>
<svg width="155px" height="220px" viewBox="0 0 155 220" version="1.1" xmlns="http://www.w3.org/2000/svg" xmlns:xlink="http://www.w3.org/1999/xlink">
    <title>Group 73</title>
    <defs>
        <polygon id="path-1" points="0 0 45.6836813 0 45.6836813 27.7269667 0 27.7269667"></polygon>
        <polygon id="path-3" points="0 0 140.719316 0 140.719316 212.251983 0 212.251983"></polygon>
        <polygon id="path-5" points="0 0 16.2729345 0 16.2729345 140.054904 0 140.054904"></polygon>
        <polygon id="path-7" points="0 0 45.8031856 0 45.8031856 27.7207667 0 27.7207667"></polygon>
    </defs>
    <g id="Illustraties" stroke="none" stroke-width="1" fill="none" fill-rule="evenodd">
        <g transform="translate(-226, -1278)" id="Group-73">
            <g transform="translate(226, 1278)">
                <polygon id="Fill-1" fill="#000000" points="123.117212 142.365402 109.740539 134.60874 109.740539 148.006656 123.117212 155.749485"></polygon>
                <g id="Group-72">
                    <path d="M123.117212,157.178695 C122.876128,157.178695 122.633563,157.106568 122.395937,156.985038 L109.13536,149.236774 C108.655169,148.984328 108.412604,148.51303 108.412604,148.006656 L108.412604,134.60874 C108.412604,134.113235 108.655169,133.641442 109.13536,133.384056 C109.497479,133.130128 110.0992,133.130128 110.461319,133.384056 L123.839968,141.130344 C124.323617,141.383778 124.561242,141.859028 124.561242,142.365402 L124.561242,155.749485 C124.561242,156.260799 124.323617,156.732592 123.839968,156.985038 C123.602343,157.106568 123.359777,157.178695 123.117212,157.178695 L123.117212,157.178695 Z M111.184075,147.184601 L121.670217,153.283814 L121.670217,143.187457 L111.184075,137.074411 L111.184075,147.184601 Z" id="Fill-2" fill="#000000"></path>
                    <polygon id="Fill-4" fill="#000000" points="123.117212 26.296176 109.740539 18.5498885 109.740539 29.7602684 123.117212 37.5065559"></polygon>
                    <path d="M123.117212,38.93211 C122.876128,38.93211 122.633563,38.8738152 122.395937,38.7419109 L109.13536,30.9951294 C108.655169,30.7416954 108.412604,30.2664448 108.412604,29.7600708 L108.412604,18.5501849 C108.412604,18.0438109 108.655169,17.5720185 109.13536,17.3195725 C109.497479,17.0607043 110.0992,17.0607043 110.461319,17.3195725 L123.839968,25.0762346 C124.323617,25.3197881 124.561242,25.7866403 124.561242,26.2959784 L124.561242,37.5063583 C124.561242,38.0280471 124.323617,38.4998394 123.839968,38.7419109 C123.602343,38.8738152 123.359777,38.93211 123.117212,38.93211 L123.117212,38.93211 Z M111.184075,28.9385098 L121.670217,35.0461216 L121.670217,27.1195155 L111.184075,21.0099276 L111.184075,28.9385098 Z" id="Fill-6" fill="#000000"></path>
                    <polygon id="Fill-8" fill="#000000" points="123.117212 37.5063583 109.740539 29.7600708 30.9773939 75.4419242 44.3545606 83.1985862"></polygon>
                    <path d="M44.3544124,84.62251 C44.1167871,84.62251 43.8757037,84.5503825 43.6331382,84.433793 L30.2564655,76.677131 C29.7713345,76.4335774 29.5337092,75.9568448 29.5337092,75.4420724 C29.5337092,74.9411326 29.7713345,74.4723044 30.2564655,74.2149182 L109.135706,28.5251604 C109.497825,28.2707383 110.099052,28.2707383 110.461171,28.5251604 L123.83982,36.2813284 C124.323469,36.525376 124.561094,37.010507 124.561094,37.5065065 C124.561094,38.0281953 124.323469,38.4999876 123.83982,38.7415651 L45.0806269,84.433793 C44.8395434,84.5503825 44.5969779,84.62251 44.3544124,84.62251 L44.3544124,84.62251 Z M33.8687649,75.4420724 L44.3544124,81.5496842 L120.347568,37.5065065 L109.740391,31.403835 L33.8687649,75.4420724 Z" id="Fill-10" fill="#000000"></path>
                    <polygon id="Fill-12" fill="#000000" points="152.768844 9.17362005 139.270642 1.41547596 109.740391 18.5501849 123.117063 26.2959784"></polygon>
                    <g id="Group-16" transform="translate(108.4126, 0)">
                        <mask id="mask-2" fill="white">
                            <use xlink:href="#path-1"></use>
                        </mask>
                        <g id="Clip-15"></g>
                        <path d="M14.7046077,27.7269667 C14.4635242,27.7269667 14.2209587,27.6637317 13.9833334,27.5313334 L0.722756292,19.7850459 C0.242565509,19.5311179 0,19.0613016 0,18.5499873 C0,18.0436133 0.242565509,17.5718209 0.722756292,17.3198689 L30.2515253,0.190100219 C30.6156206,-0.0618517346 31.2168471,-0.0618517346 31.5789663,0.180219751 L44.956133,7.93836384 C45.441264,8.19031579 45.6838295,8.6626022 45.6838295,9.17342244 C45.6838295,9.67831439 45.441264,10.1412144 44.956133,10.4089751 L15.427364,27.5313334 C15.1897387,27.6637317 14.9471732,27.7269667 14.7046077,27.7269667 L14.7046077,27.7269667 Z M4.21896017,18.5499873 L14.7046077,24.6625393 L41.4653633,9.17342244 L30.8581861,3.0603764 L4.21896017,18.5499873 Z" id="Fill-14" fill="#000000" mask="url(#mask-2)"></path>
                    </g>
                    <polygon id="Fill-17" fill="#05B173" points="44.3544124 201.43119 44.3544124 188.057482 123.117063 142.365254 123.117063 155.749831 152.768844 138.625497 152.768844 9.17357064 123.117063 26.295929 123.117063 37.5063089 44.3544124 83.1985368 44.3544124 71.9777824 14.8241613 89.1174316 14.8241613 218.569358"></polygon>
                    <g id="Group-21" transform="translate(13.377, 7.748)">
                        <mask id="mask-4" fill="white">
                            <use xlink:href="#path-3"></use>
                        </mask>
                        <g id="Clip-20"></g>
                        <path d="M1.44699465,212.251983 C1.2098634,212.251983 0.968779964,212.178374 0.726214456,212.05635 C0.242565509,211.804398 0,211.327172 0,210.821292 L0,81.3693656 C0,80.8585454 0.242565509,80.386259 0.726214456,80.134307 L30.2564655,63.0099725 C30.7396205,62.7525863 31.2198112,62.7525863 31.7034602,63.0099725 C32.183651,63.2624185 32.4262165,63.7342109 32.4262165,64.2302104 L32.4262165,72.9798596 L108.292902,28.9470564 L108.292902,18.548357 C108.292902,18.0385248 108.655021,17.5721667 109.019116,17.3281191 L138.670897,0.190446036 C139.028076,-0.0634820119 139.634243,-0.0634820119 139.991422,0.190446036 C140.477047,0.44239799 140.719613,0.914684398 140.719613,1.42550463 L140.719613,130.877431 C140.719613,131.372936 140.477047,131.844728 139.991422,132.098656 L110.463147,149.236824 C109.982956,149.488776 109.499307,149.488776 109.019116,149.236824 C108.655021,148.984872 108.292902,148.512585 108.292902,148.001765 L108.292902,137.087799 L32.4262165,181.121096 L32.4262165,193.683124 C32.4262165,194.202837 32.183651,194.664749 31.7034602,194.918677 L2.16975094,212.05635 C1.93212567,212.178374 1.68956016,212.251983 1.44699465,212.251983 L1.44699465,212.251983 Z M2.8959654,82.1914206 L2.8959654,208.35068 L29.5351913,192.869962 L29.5351913,180.309416 C29.5351913,179.787727 29.7708405,179.315935 30.2564655,179.074357 L109.019116,133.382129 C109.499307,133.130177 109.982956,133.130177 110.463147,133.382129 C110.946302,133.636057 111.183927,134.111308 111.183927,134.617188 L111.183927,145.536094 L137.942707,130.055376 L137.942707,3.88080113 L111.183927,19.3714001 L111.183927,29.7582429 C111.183927,30.2799316 110.946302,30.751724 110.463147,30.9937955 L31.7034602,76.6860234 C31.2198112,76.9379754 30.7396205,76.9379754 30.2564655,76.6860234 C29.7708405,76.4316013 29.5351913,75.960303 29.5351913,75.4504708 L29.5351913,66.6953874 L2.8959654,82.1914206 Z" id="Fill-19" fill="#000000" mask="url(#mask-4)"></path>
                    </g>
                    <polygon id="Fill-22" fill="#F8D754" points="46.8882586 92.0446193 119.983473 49.6895197 119.983473 133.903719 46.8882586 176.258819"></polygon>
                    <path d="M46.8882586,177.674196 C46.6456931,177.674196 46.4080679,177.615901 46.1655023,177.478563 C45.8033832,177.226611 45.4392879,176.754818 45.4392879,176.258819 L45.4392879,92.0446193 C45.4392879,91.533305 45.8033832,91.0615127 46.1655023,90.8090667 L119.262692,48.4594014 C119.740907,48.2020152 120.226038,48.2020152 120.585193,48.4594014 C121.068348,48.7217278 121.310914,49.1836397 121.310914,49.6895197 L121.310914,133.903719 C121.310914,134.413552 121.068348,134.88485 120.585193,135.139272 L47.6095329,177.478563 C47.3719076,177.615901 47.1293421,177.674196 46.8882586,177.674196 L46.8882586,177.674196 Z M48.3303131,92.8661803 L48.3303131,173.788208 L118.536478,133.082158 L118.536478,52.160131 L48.3303131,92.8661803 Z" id="Fill-24" fill="#000000"></path>
                    <polygon id="Fill-26" fill="#000000" points="66.2419727 100.837347 106.86305 100.506352 66.2419727 147.243439"></polygon>
                    <path d="M66.2419727,148.36176 C66.0522677,148.36176 65.9618614,148.332613 65.8640447,148.284692 C65.3947225,148.123641 65.1141172,147.710143 65.1141172,147.243291 L65.1141172,100.837199 C65.1141172,100.230044 65.5824514,99.7291045 66.2419727,99.7291045 L106.86305,99.3877343 C107.144643,99.4376307 107.617918,99.6362281 107.802683,100.039845 C107.992388,100.43951 107.992388,100.900928 107.7103,101.236864 L67.0892229,147.972469 C66.8091116,148.220963 66.522084,148.36176 66.2419727,148.36176 L66.2419727,148.36176 Z M67.3747684,101.94233 L67.3747684,144.282114 L104.315371,101.630107 L67.3747684,101.94233 Z" id="Fill-28" fill="#000000"></path>
                    <path d="M145.537922,124.560106 C145.537922,126.715036 143.967915,129.341759 142.161766,130.4212 L133.603304,135.372303 C131.675624,136.44631 130.226653,135.576334 130.226653,133.421404 L130.226653,125.616822 C130.226653,123.446577 131.675624,120.82183 133.603304,119.745847 C136.495811,118.097291 139.270741,116.439843 142.161766,114.796227 C143.967915,113.715303 145.537922,114.590219 145.537922,116.755524 L145.537922,124.560106 Z" id="Fill-30" fill="#000000"></path>
                    <path d="M132.034532,137.244256 C131.554341,137.244256 130.949657,137.113834 130.469466,136.835699 C129.384591,136.204337 128.784846,134.969278 128.784846,133.421503 L128.784846,125.616921 C128.784846,122.966485 130.590502,119.843763 132.881782,118.510394 L141.440739,113.560773 C142.763239,112.796024 144.088704,112.69969 145.174074,113.331052 C146.258949,113.948581 146.86561,115.194014 146.86561,116.755622 L146.86561,124.560205 C146.86561,127.21064 145.052544,130.324964 142.882793,131.650923 L134.325813,136.60252 C133.603057,137.039731 132.760747,137.244256 132.034532,137.244256 M143.610489,115.753743 C143.489454,115.753743 143.125358,115.822412 142.882793,116.031384 L134.325813,120.976065 C132.881782,121.80306 131.675871,123.968365 131.675871,125.616921 L131.675871,133.421503 C131.675871,133.966905 131.796907,134.29296 131.918437,134.365088 C132.034532,134.44759 132.396651,134.413502 132.881782,134.136849 L141.440739,129.185746 C142.882793,128.363691 144.088704,126.208761 144.088704,124.560205 L144.088704,116.755622 C144.088704,116.201328 143.967668,115.870332 143.848115,115.78783 C143.726585,115.763623 143.726585,115.753743 143.610489,115.753743" id="Fill-32" fill="#000000"></path>
                    <path d="M145.537922,36.1117301 C145.537922,38.2562859 143.967915,40.8914069 142.161766,41.9723302 L133.603304,46.921951 C131.675624,47.9979341 130.226653,47.1264767 130.226653,44.9577138 L130.226653,44.9715465 L130.226653,37.1565897 C130.226653,34.9982013 131.675624,32.3611042 133.603304,31.2954956 C136.495811,29.638047 139.270741,27.994925 142.161766,26.3458748 C143.967915,25.2703858 145.537922,26.1418431 145.537922,28.2947973 L145.537922,36.1117301 Z" id="Fill-34" fill="#000000"></path>
                    <path d="M132.034532,48.809417 C131.554341,48.809417 130.949657,48.6636801 130.469466,48.3855449 C129.384591,47.7680156 128.784846,46.5087498 128.784846,44.9575162 L128.784846,37.1563921 C128.784846,34.5024982 130.590502,31.379776 132.881782,30.0602394 L141.440739,25.1106186 C142.763239,24.3369779 144.088704,24.254476 145.174074,24.8823798 C146.258949,25.5004031 146.86561,26.7438601 146.86561,28.2950937 L146.86561,36.1115325 C146.86561,38.7624623 145.052544,41.8743159 142.882793,43.2076852 L134.325813,48.157306 C133.603057,48.5900706 132.760747,48.809417 132.034532,48.809417 M143.610489,27.3030946 C143.489454,27.3030946 143.125358,27.3855965 142.882793,27.5812298 L134.325813,32.5308506 C132.881782,33.3543877 131.675871,35.5078359 131.675871,37.1563921 L131.675871,44.9713489 C131.675871,45.5068703 131.796907,45.8428062 131.918437,45.9307424 C132.034532,46.0023758 132.396651,45.96483 132.881782,45.6866948 L141.440739,40.737074 C142.882793,39.9135369 144.088704,37.744774 144.088704,36.1115325 L144.088704,28.2950937 C144.088704,27.7511739 143.967668,27.4251184 143.848115,27.3376762 C143.726585,27.3134691 143.726585,27.3030946 143.610489,27.3030946" id="Fill-36" fill="#000000"></path>
                    <path d="M145.537922,95.0796029 C145.537922,97.2345331 143.967915,99.8592797 142.161766,100.935263 C139.270741,102.583819 136.495811,104.241268 133.603304,105.884884 C131.675624,106.965807 130.226653,106.080517 130.226653,103.925587 L130.226653,103.940901 L130.226653,96.1190282 C130.226653,93.9660741 131.675624,91.3289769 133.603304,90.2653445 C136.495811,88.6064138 139.270741,86.9573635 142.161766,85.3137475 C143.967915,84.2348004 145.537922,85.1047756 145.537922,87.2597059 L145.537922,95.0796029 Z" id="Fill-38" fill="#000000"></path>
                    <path d="M132.034532,107.763556 C131.554341,107.763556 130.949657,107.631652 130.469466,107.350058 C129.384591,106.722154 128.784846,105.476721 128.784846,103.925488 L128.784846,96.1194234 C128.784846,93.4704697 130.590502,90.3477476 132.881782,89.0301871 L141.440739,84.0785901 C142.763239,83.2995152 144.088704,83.2175073 145.174074,83.8350366 C146.258949,84.4629404 146.86561,85.7118316 146.86561,87.2596071 L146.86561,95.0795041 C146.86561,97.7304339 145.052544,100.852662 142.882793,102.170717 L134.325813,107.120337 C133.603057,107.544209 132.760747,107.763556 132.034532,107.763556 M143.610489,86.2661259 C143.489454,86.2661259 143.125358,86.3397354 142.882793,86.5437671 L134.325813,91.4854836 C132.881782,92.3070445 131.675871,94.4723493 131.675871,96.1194234 L131.675871,103.940803 C131.675871,104.479782 131.796907,104.810778 131.918437,104.882905 C132.034532,104.980722 132.396651,104.932802 132.881782,104.649726 L141.440739,99.7050456 C142.882793,98.8780503 144.088704,96.7231201 144.088704,95.0795041 L144.088704,87.2596071 C144.088704,86.7137112 143.967668,86.3876557 143.848115,86.3056478 C143.726585,86.2814407 143.726585,86.2661259 143.610489,86.2661259" id="Fill-40" fill="#000000"></path>
                    <path d="M145.537922,65.5972227 C145.537922,67.7521529 143.967915,70.3788756 142.161766,71.4528825 C139.270741,73.1019328 136.495811,74.7608635 133.603304,76.4044794 C131.675624,77.4784864 130.226653,76.5981366 130.226653,74.4535809 L130.226653,66.6386241 C130.226653,64.4836939 131.675624,61.8431386 133.603304,60.7676495 C136.495811,59.1190933 139.270741,57.4754774 142.161766,55.8264271 C143.967915,54.7524202 145.537922,55.6223954 145.537922,57.7773257 L145.537922,65.5972227 Z" id="Fill-42" fill="#000000"></path>
                    <path d="M132.034532,78.2813733 C131.554341,78.2813733 130.949657,78.1460109 130.469466,77.8678757 C129.384591,77.2503464 128.784846,76.0044193 128.784846,74.4536797 L128.784846,66.6387229 C128.784846,63.9877931 130.590502,60.865565 132.881782,59.5425702 L141.440739,54.5964076 C142.763239,53.8193087 144.088704,53.7368068 145.174074,54.3543361 C146.258949,54.9807578 146.86561,56.2261909 146.86561,57.7774245 L146.86561,65.5973215 C146.86561,68.2477572 145.052544,71.3704794 142.882793,72.6880399 L134.325813,77.6396368 C133.603057,78.0620269 132.760747,78.2813733 132.034532,78.2813733 M143.610489,56.7854254 C143.489454,56.7854254 143.125358,56.8575528 142.882793,57.0531861 L134.325813,62.002807 C132.881782,62.824862 131.675871,64.9901667 131.675871,66.6387229 L131.675871,74.4536797 C131.675871,74.9990816 131.796907,75.3285952 131.918437,75.4125792 C132.034532,75.4950811 132.396651,75.4451847 132.881782,75.1690256 L141.440739,70.2174287 C142.882793,69.4111824 144.088704,67.2409375 144.088704,65.5973215 L144.088704,57.7774245 C144.088704,57.2335047 143.967668,56.8921345 143.848115,56.8200071 C143.726585,56.7957999 143.726585,56.7854254 143.610489,56.7854254" id="Fill-44" fill="#000000"></path>
                    <polygon id="Fill-46" fill="#000000" points="14.8239637 89.117481 1.43345841 81.3539027 1.43345841 210.812745 14.8239637 218.569407"></polygon>
                    <g id="Group-50" transform="translate(0, 79.9451)">
                        <mask id="mask-6" fill="white">
                            <use xlink:href="#path-5"></use>
                        </mask>
                        <g id="Clip-49"></g>
                        <path d="M14.8239637,140.054904 C14.5868325,140.054904 14.345749,139.981294 14.1031835,139.859271 L0.721076612,132.103103 C0.274973446,131.845716 -0.000197609376,131.387263 -0.000197609376,130.86755 L-0.000197609376,1.40920186 C-0.000197609376,0.904803929 0.274973446,0.441409943 0.721076612,0.188963965 C1.15680529,-0.0629879885 1.67454185,-0.0629879885 2.12064501,0.188963965 L15.54672,7.93722759 C15.9088392,8.18917954 16.2729345,8.66146595 16.2729345,9.17228618 L16.2729345,138.624212 C16.2729345,139.130092 15.9088392,139.607319 15.54672,139.859271 C15.3090947,139.981294 15.0665292,140.054904 14.8239637,140.054904 L14.8239637,140.054904 Z M2.83253279,130.05587 L13.3769691,136.153601 L13.3769691,9.99434119 L2.83253279,3.87981308 L2.83253279,130.05587 Z" id="Fill-48" fill="#000000" mask="url(#mask-6)"></path>
                    </g>
                    <polygon id="Fill-51" fill="#000000" points="44.3544124 71.9780294 30.9772457 64.2317419 1.43365602 81.3541003 14.8241613 89.1176786"></polygon>
                    <g id="Group-55" transform="translate(0, 62.8208)">
                        <mask id="mask-8" fill="white">
                            <use xlink:href="#path-7"></use>
                        </mask>
                        <g id="Clip-54"></g>
                        <path d="M14.8239637,27.7207667 C14.5868325,27.7207667 14.345749,27.6520975 14.1031835,27.5320498 L0.721076612,19.7739057 C0.274973446,19.5318342 -0.000197609376,19.0442331 -0.000197609376,18.5334128 C-0.000197609376,18.0290149 0.274973446,17.5656209 0.721076612,17.3131749 L30.2562679,0.189334483 C30.7349766,-0.0631114944 31.2201077,-0.0631114944 31.6983223,0.189334483 L45.0804293,7.93710408 C45.56062,8.18955006 45.8031856,8.66134244 45.8031856,9.15734197 C45.8031856,9.6785367 45.56062,10.1503291 45.0804293,10.3924006 L15.54672,27.5320498 C15.3090947,27.6520975 15.0665292,27.7207667 14.8239637,27.7207667 L14.8239637,27.7207667 Z M4.28002147,18.5334128 L14.8239637,24.6479409 L41.4631896,9.15734197 L30.9775421,3.05961066 L4.28002147,18.5334128 Z" id="Fill-53" fill="#000000" mask="url(#mask-8)"></path>
                    </g>
                    <path d="M37.1234901,98.931306 C37.1234901,101.075862 35.6760015,103.710983 33.747334,104.786966 L25.190354,109.736587 C23.3827222,110.81751 21.819138,109.946053 21.819138,107.77729 L21.819138,99.9727075 C21.819138,97.8177772 23.3827222,95.1910546 25.190354,94.1170476 C28.0863194,92.4684914 30.8563088,90.8090667 33.747334,89.1654507 C35.6760015,88.0865035 37.1234901,88.9564788 37.1234901,91.111409 L37.1234901,98.931306 Z" id="Fill-56" fill="#000000"></path>
                    <path d="M23.7464717,111.615259 C23.1398109,111.615259 22.6615962,111.483355 22.1764652,111.201761 C21.0910957,110.573858 20.4913512,109.328425 20.4913512,107.777191 L20.4913512,99.9726086 C20.4913512,97.3216789 22.1764652,94.1994507 24.4677459,92.8818902 L33.0262079,87.9302933 C34.3536489,87.1566526 35.7957033,87.0692104 36.8805788,87.6867397 C37.9659483,88.3195838 38.5721151,89.5635348 38.5721151,91.1113102 L38.5721151,98.9312072 C38.5721151,101.582137 36.7644833,104.694485 34.4697444,106.02242 L25.9167166,110.963642 C25.1905022,111.395419 24.4677459,111.615259 23.7464717,111.615259 M35.3174887,90.1198052 C35.0749231,90.1198052 34.8323576,90.2072473 34.4697444,90.3855898 L25.9167166,95.3371867 C24.4677459,96.1587477 23.2613406,98.3275106 23.2613406,99.9726086 L23.2613406,107.777191 C23.2613406,108.336919 23.3823764,108.662481 23.5039062,108.744983 C23.6254359,108.818592 23.9840969,108.784505 24.4677459,108.50637 L33.0262079,103.556749 C34.4697444,102.735188 35.6761497,100.564449 35.6761497,98.9312072 L35.6761497,91.1113102 C35.6761497,90.5654143 35.5600542,90.2309604 35.4385244,90.157351 C35.4385244,90.1331438 35.3174887,90.1198052 35.3174887,90.1198052" id="Fill-58" fill="#000000"></path>
                    <path d="M37.1234901,187.381608 C37.1234901,189.534563 35.6760015,192.161285 33.747334,193.240726 L25.190354,198.186889 C23.3827222,199.26633 21.819138,198.396355 21.819138,196.235991 L21.819138,188.421034 C21.819138,186.266598 23.3827222,183.641357 25.190354,182.565374 C28.0863194,180.916818 30.8563088,179.259369 33.747334,177.615753 C35.6760015,176.53483 37.1234901,177.406781 37.1234901,179.559735 L37.1234901,187.381608 Z" id="Fill-60" fill="#000000"></path>
                    <path d="M23.7464717,200.063882 C23.1398109,200.063882 22.6615962,199.93346 22.1764652,199.650384 C21.0910957,199.032855 20.4913512,197.788904 20.4913512,196.236188 L20.4913512,188.421231 C20.4913512,185.770302 22.1764652,182.658448 24.4677459,181.325079 L33.0262079,176.380398 C34.3536489,175.601817 35.7957033,175.519315 36.8805788,176.147219 C37.9659483,176.764748 38.5721151,178.01364 38.5721151,179.559933 L38.5721151,187.381806 C38.5721151,190.030266 36.7644833,193.139155 34.4697444,194.472524 L25.9167166,199.408313 C25.1905022,199.846017 24.4677459,200.063882 23.7464717,200.063882 M35.3174887,178.567934 C35.0749231,178.567934 34.8323576,178.65587 34.4697444,178.846069 L25.9167166,183.79569 C24.4677459,184.619227 23.2613406,186.772675 23.2613406,188.421231 L23.2613406,196.236188 C23.2613406,196.787024 23.3823764,197.11308 23.5039062,197.185207 C23.6254359,197.267215 23.9840969,197.229669 24.4677459,196.951534 L33.0262079,192.001913 C34.4697444,191.178376 35.6761497,189.024928 35.6761497,187.381806 L35.6761497,179.559933 C35.6761497,179.016013 35.5600542,178.679583 35.4385244,178.607456 C35.4385244,178.583743 35.3174887,178.567934 35.3174887,178.567934" id="Fill-62" fill="#000000"></path>
                    <path d="M37.1234901,157.883765 C37.1234901,160.04907 35.6760015,162.679251 33.747334,163.75474 C30.8563088,165.398356 28.0863194,167.047406 25.190354,168.706337 C23.3827222,169.780344 21.819138,168.899994 21.819138,166.745558 L21.819138,158.940481 C21.819138,156.785551 23.3827222,154.14549 25.190354,153.069507 C28.0863194,151.420951 30.8563088,149.777335 33.747334,148.118404 C35.6760015,147.038963 37.1234901,147.924253 37.1234901,150.079183 L37.1234901,157.883765 Z" id="Fill-64" fill="#000000"></path>
                    <path d="M23.7464717,170.583379 C23.1398109,170.583379 22.6615962,170.44604 22.1764652,170.169881 C21.0910957,169.541977 20.4913512,168.29605 20.4913512,166.745311 L20.4913512,158.940728 C20.4913512,156.289799 22.1764652,153.167571 24.4677459,151.844576 L33.0262079,146.892979 C34.3536489,146.119338 35.7957033,146.036836 36.8805788,146.65486 C37.9659483,147.282763 38.5721151,148.528196 38.5721151,150.078936 L38.5721151,157.884012 C38.5721151,160.549763 36.7644833,163.65717 34.4697444,164.974731 L25.9167166,169.926328 C25.1905022,170.364032 24.4677459,170.583379 23.7464717,170.583379 M35.3174887,149.087431 C35.0749231,149.087431 34.8323576,149.159558 34.4697444,149.353216 L25.9167166,154.299872 C24.4677459,155.126867 23.2613406,157.291678 23.2613406,158.940728 L23.2613406,166.745311 C23.2613406,167.290713 23.3823764,167.625166 23.5039062,167.69927 C23.7464717,167.786712 24.1051327,167.74719 24.4677459,167.471031 L33.0262079,162.519434 C34.4697444,161.697873 35.6761497,159.532568 35.6761497,157.884012 L35.6761497,150.078936 C35.6761497,149.533534 35.5600542,149.19414 35.4385244,149.120036 C35.4385244,149.095829 35.3174887,149.087431 35.3174887,149.087431" id="Fill-66" fill="#000000"></path>
                    <path d="M37.1234901,128.413489 C37.1234901,130.566443 35.6760015,133.193165 33.747334,134.258774 C30.8563088,135.916223 28.0863194,137.575153 25.190354,139.224204 C23.3827222,140.298211 21.819138,139.417861 21.819138,137.264907 L21.819138,137.273305 L21.819138,129.443033 C21.819138,127.298478 23.3827222,124.662863 25.190354,123.583915 C28.0863194,121.9403 30.8563088,120.291743 33.747334,118.632319 C35.6760015,117.558312 37.1234901,118.44212 37.1234901,120.59705 L37.1234901,128.413489 Z" id="Fill-68" fill="#000000"></path>
                    <path d="M23.7464717,141.09596 C23.1398109,141.09596 22.6615962,140.965537 22.1764652,140.687402 C21.0910957,140.05604 20.4913512,138.810607 20.4913512,137.264808 L20.4913512,129.442935 C20.4913512,126.793981 22.1764652,123.680151 24.4677459,122.362097 L33.0262079,117.412476 C34.3536489,116.62352 35.7957033,116.556333 36.8805788,117.168922 C37.9659483,117.800284 38.5721151,119.045717 38.5721151,120.596951 L38.5721151,128.41339 C38.5721151,131.062344 36.7644833,134.176667 34.4697444,135.494228 L25.9167166,140.443849 C25.1905022,140.878095 24.4677459,141.09596 23.7464717,141.09596 M35.3174887,119.605446 C35.0749231,119.605446 34.8323576,119.677079 34.4697444,119.867772 L25.9167166,124.818875 C24.4677459,125.645871 23.2613406,127.809693 23.2613406,129.442935 L23.2613406,137.273206 C23.2613406,137.803293 23.3823764,138.144664 23.5039062,138.216791 C23.7464717,138.299293 24.1051327,138.266687 24.4677459,137.988552 L33.0262079,133.037449 C34.4697444,132.215394 35.6761497,130.047125 35.6761497,128.41339 L35.6761497,120.596951 C35.6761497,120.053031 35.5600542,119.711661 35.4385244,119.639534 C35.4385244,119.615326 35.3174887,119.605446 35.3174887,119.605446" id="Fill-70" fill="#000000"></path>
                </g>
            </g>
        </g>
    </g>
</svg>