<?xml version="1.0" encoding="UTF-8"?>
<svg width="160px" height="120.114552px" viewBox="0 0 160 120.114552" version="1.1" xmlns="http://www.w3.org/2000/svg" xmlns:xlink="http://www.w3.org/1999/xlink">
    <title>Group 191</title>
    <defs>
        <polygon id="path-1" points="1.0456826e-14 0 115.489102 0 115.489102 69.6518856 1.0456826e-14 69.6518856"></polygon>
        <polygon id="path-3" points="0 0 84.7139301 0 84.7139301 99.0780966 0 99.0780966"></polygon>
    </defs>
    <g id="website" stroke="none" stroke-width="1" fill="none" fill-rule="evenodd">
        <g id="Hubs" transform="translate(-551.000000, -1352.000000)">
            <g id="Group-191" transform="translate(551.000000, 1352.000000)">
                <path d="M107.16605,93.7224045 L107.117485,93.7503661 L107.116749,93.7488945 C106.957809,93.8412416 106.775322,93.8979008 106.578119,93.8975329 C106.355897,93.897165 106.149863,93.8291004 105.977678,93.7128386 L100.068198,90.2890044 C99.7252991,90.0892255 99.5336144,89.7282991 99.5325107,89.3581747 L99.562312,70.1455564 C99.5626799,69.7478383 99.7819583,69.4045718 100.103886,69.2184059 L100.102046,69.2154626 L100.102046,69.2154626 L100.102046,69.2150947 L100.102046,69.2154626 L104.65796,66.5951587 C105.005642,66.3939082 105.420652,66.4100965 105.743315,66.6003096 L108.97105,68.4715347 C109.504897,68.0877974 110.039848,67.7025885 110.579214,67.3125966 L110.596506,56.3567684 C110.554564,55.4373442 110.340436,54.5293254 109.985764,53.6775979 L83.7264346,68.7853678 C83.9703634,69.3008193 84.1786044,69.8280442 84.3349691,70.3571086 C84.5800017,71.1863932 84.7153951,72.0230361 84.7139234,72.8225195 L84.6458588,115.490941 L109.787089,101.02813 C110.073697,100.820256 110.24441,100.599506 110.341908,100.355945 C110.461849,100.043584 110.508574,99.6576392 110.531017,99.2047336 L110.541319,91.7805393 L107.182974,93.7124707 C107.177823,93.7161499 107.171568,93.7187253 107.16605,93.7224045" id="Fill-1" fill="#F8D754"></path>
                <path d="M111.702832,70.0629959 C111.718653,70.0721938 111.734473,70.0821275 111.749926,70.0920613 C116.56375,66.6189262 121.589494,62.9117959 126.473223,59.1921565 C131.122588,55.6524284 135.635824,52.1057099 139.698362,48.7561948 C143.966565,45.2355984 147.7241,41.9372238 150.603786,39.0939623 C153.165591,36.5649018 155.02541,34.4096449 155.91393,32.8029519 C156.702007,31.3780099 157.207157,29.9666809 157.45219,28.5792664 C157.573602,27.8901581 157.629526,27.205097 157.627035,26.5262903 L157.627035,26.4346791 C157.618488,25.7411558 157.54748,25.0538871 157.416502,24.3750805 C157.010322,22.2724356 156.024305,20.2518363 154.571033,18.3482344 C153.005547,16.3000413 150.897383,14.3839303 148.378256,12.6403723 C145.99158,10.9891615 143.231835,9.48695692 140.214917,8.17202207 C137.128463,6.82618221 133.768278,5.66945161 130.25504,4.74230113 C123.096482,2.85268015 115.28855,1.90676591 107.843385,2.20183523 C101.063413,2.47078245 94.5877081,3.77357604 89.1966224,6.3350132 C83.521137,9.03221169 78.3419714,10.4361824 73.4486772,11.1889403 C68.5877596,11.9372832 64.0399394,12.0373566 59.5598158,12.1352225 C57.0377457,12.1907779 54.5337036,12.2459654 51.9509272,12.4166789 C50.3909598,12.5207993 48.823634,12.6672302 47.2375444,12.8817258 L48.3791904,13.5425044 C50.2268689,13.3206506 52.0429065,13.1870968 53.8442274,13.0995325 C55.71766,13.0082892 57.6418652,12.9641391 59.576372,12.9229325 C64.1451636,12.823227 68.7827556,12.7202103 73.7007002,11.9571507 C78.5822211,11.2007136 83.7797825,9.78239416 89.5351059,7.04693232 C94.8816737,4.50573059 101.310285,3.22354034 108.048314,2.97482854 C115.342634,2.70477757 123.011493,3.64627681 130.055629,5.50536069 C133.503378,6.41521908 136.807271,7.55024258 139.846265,8.87143202 C142.842947,10.1742256 145.575834,11.6584022 147.930502,13.2868022 C150.315339,14.9372773 152.315703,16.734919 153.80503,18.6370492 C155.262717,20.4994443 156.245423,22.4740541 156.642405,24.5288697 C156.890749,25.8125316 156.905465,27.1407115 156.658593,28.4986926 C156.423862,29.793392 155.952193,31.1061194 155.22335,32.4239976 C154.327472,34.0439355 152.445945,36.2087583 149.853235,38.7437054 C147.031681,41.497931 143.360974,44.7098452 139.194684,48.1450849 C135.11191,51.5115241 130.535025,55.1060718 125.798831,58.7094495 C120.922829,62.4213627 115.867651,66.1479926 111.007102,69.6520327 L111.706144,70.0571092 L111.702832,70.0629959 Z" id="Fill-3" fill="#F8D754"></path>
                <path d="M60.0968272,15.0588002 C59.9389909,15.0624794 59.7804187,15.0661585 59.6229503,15.0694698 C57.7381123,15.1110444 55.8665192,15.1529869 53.9412103,15.2460699 C53.150557,15.2843332 52.3599036,15.334002 51.5692503,15.3932366 L60.0883651,20.3303129 L60.0968272,15.0588002 Z" id="Fill-5" fill="#000000"></path>
                <path d="M106.909869,49.9445295 L47.9258065,15.7632138 L47.9221273,15.7635817 L41.0744587,11.7941267 L41.0759304,11.7937588 L33.6454815,7.48802784 C33.2183301,7.26690981 32.8448945,7.09950764 32.5137693,7.05020678 C32.2499729,7.01194343 31.9688844,7.0483672 31.6395988,7.19663769 L6.3938799,21.7197877 C6.41705866,21.7326648 6.43950159,21.7418627 6.46231244,21.7554757 L79.7741613,64.2377315 C80.457015,64.6328742 81.1104353,65.1707686 81.7053569,65.8006423 C82.0364821,66.1475879 82.346636,66.5291176 82.6358186,66.9316187 L108.911705,51.8146508 C108.354311,51.0817605 107.679183,50.441953 106.909869,49.9445295" id="Fill-7" fill="#F8D754"></path>
                <polygon id="Fill-9" fill="#F8D754" points="110.058722 89.5781522 110.08558 72.8460293 107.683083 74.2275571 107.660272 90.9578404"></polygon>
                <path d="M127.774949,60.9028963 C126.850006,61.6070891 125.916601,62.3120178 124.980621,63.0165786 L124.961857,74.7601168 L125.688861,74.2115528 L129.091356,71.6158993 L131.202463,69.9661601 L131.220859,58.2583099 C130.085467,59.1365274 128.935359,60.01916 127.774949,60.9028963" id="Fill-11" fill="#F8D754"></path>
                <path d="M117.390717,68.6477669 L117.371953,80.4188988 C118.946637,79.2606965 120.582027,78.0498822 122.275549,76.7875594 L123.612191,75.7787314 L123.630954,64.0304103 C121.555903,65.5833874 119.467239,67.1279023 117.390717,68.6477669" id="Fill-13" fill="#F8D754"></path>
                <path d="M77.4105898,25.6999123 L79.3035221,25.2414879 L81.290641,24.6837259 L82.8252222,24.1903494 L82.8447218,12.014141 C80.7030778,12.6969947 78.6294984,13.2187008 76.6092669,13.6215698 L76.5897673,25.8676824 L77.4105898,25.6999123 Z" id="Fill-15" fill="#000000"></path>
                <path d="M85.3080356,23.3065028 L87.3632191,22.4683882 C88.3437176,22.0243125 89.3624793,21.610774 90.4106745,21.2248292 L90.430174,9.00741409 C88.2830113,10.0269117 86.2083281,10.8676017 84.1932475,11.5648042 L84.1737479,23.7185696 L85.3080356,23.3065028 Z" id="Fill-17" fill="#000000"></path>
                <path d="M152.899734,32.0917687 C153.067504,31.8434248 153.215774,31.6064863 153.338291,31.3842645 C153.957863,30.2661652 154.354109,29.1738201 154.545794,28.1160591 C154.742262,27.0336477 154.729016,25.9670567 154.528134,24.9287954 C154.20032,23.2308591 153.36147,21.5638278 152.110184,19.9655969 C150.750732,18.2282935 148.910043,16.5770827 146.706957,15.0524352 C144.462297,13.500194 141.85303,12.084082 138.992477,10.8397872 C136.069745,9.56973822 132.867765,8.47187431 129.50942,7.58409094 C122.658808,5.77541166 115.205548,4.85856285 108.121309,5.12125549 C105.10807,5.23310222 102.165103,5.56201989 99.3641519,6.12382893 L99.3439165,18.7775934 C117.605102,15.2798078 140.691517,19.0380785 152.899734,32.0917687" id="Fill-19" fill="#000000"></path>
                <polygon id="Fill-21" fill="#F8D754" points="102.787066 70.1515902 106.612298 72.3679214 109.017738 70.9849219 105.192875 68.767487"></polygon>
                <path d="M97.9950597,19.0518018 L98.0152952,6.41496154 C95.8247182,6.92342263 93.7338467,7.58420131 91.7791044,8.40723132 L91.7596048,20.7497381 C93.7448842,20.082337 95.8320765,19.5150092 97.9950597,19.0518018" id="Fill-23" fill="#000000"></path>
                <path d="M71.1452233,26.7378425 L71.8530953,26.6591083 L73.6610388,26.4048778 L75.2408738,26.1333551 L75.2603733,13.8747334 C74.8472027,13.9475809 74.4351358,14.0171172 74.0260123,14.0807668 C72.3232931,14.3449311 70.6617805,14.52705 69.0263901,14.6624434 L69.009098,25.4998023 L71.1452233,26.7378425 Z" id="Fill-25" fill="#000000"></path>
                <path d="M132.570966,57.2094525 L132.552202,68.9110482 L133.40209,68.2469582 C134.726591,67.2024423 136.147118,66.0692584 137.67986,64.8348973 C138.052192,64.5306301 138.422316,64.225627 138.793176,63.9209918 L138.811572,52.2580275 C136.815991,53.8739183 134.725855,55.5310158 132.570966,57.2094525" id="Fill-27" fill="#F8D754"></path>
                <path d="M67.6623016,24.7194139 L67.678122,14.7639516 C65.5655434,14.9063354 63.4938036,14.9777113 61.4448746,15.027748 L61.4349408,21.1108853 L67.6623016,24.7194139 Z" id="Fill-29" fill="#000000"></path>
                <polygon id="Fill-31" fill="#F8D754" points="101.687179 88.7421715 105.505788 90.9540877 105.532646 74.2227006 101.714037 72.0100487"></polygon>
                <path d="M112.236569,72.3880096 L112.221117,84.1764337 C113.522071,83.2341986 114.787705,82.3125669 116.022434,81.4089631 L116.041198,69.6330482 C114.763054,70.5646137 113.493741,71.4833021 112.236569,72.3880096" id="Fill-33" fill="#F8D754"></path>
                <path d="M79.9131603,110.50817 C79.9124245,111.022149 79.799474,111.478734 79.6000631,111.858792 L79.5481868,111.954451 C79.3462004,112.299557 79.0673194,112.579909 78.7262605,112.776009 C78.3811545,112.973948 77.9966814,113.076233 77.5923408,113.076233 C77.1364918,113.076233 76.6501057,112.941204 76.1655592,112.660851 L55.8572845,100.891927 C55.6814202,100.790014 55.5165935,100.678903 55.3653796,100.558962 C55.2645704,100.47986 55.1586104,100.385305 55.0474995,100.276034 C54.9639824,100.205394 54.8874556,100.126292 54.8212306,100.03836 C54.7215251,99.9265129 54.6273384,99.8087795 54.540878,99.6888386 C54.4282954,99.5258514 54.3164487,99.3544021 54.213432,99.1741229 C52.2329355,95.8864178 50.3444183,92.4511781 48.4235244,89.1185872 C48.142068,88.6237391 47.8304424,88.1914368 47.5022606,87.8316141 L47.438243,87.7687003 C47.1060141,87.4180755 46.7579648,87.128525 46.4062362,86.9151332 L36.8963213,81.4070499 C36.5777053,81.2197802 36.2907302,81.1130843 36.0504805,81.0895377 C35.9378979,81.0788681 35.8396641,81.088066 35.7627695,81.1200748 C33.9883065,82.185562 31.6391573,83.6517107 29.8179689,84.5361828 C29.4176753,84.7414804 28.998618,84.8257333 28.5420332,84.7808475 C28.1476264,84.7425841 27.7580024,84.6053512 27.3536618,84.371356 L7.03876457,72.6035353 C6.38387256,72.2231093 5.80219601,71.5943394 5.39564788,70.8857315 C4.98909976,70.1778595 4.73634087,69.361452 4.73744102,68.6064866 L4.79815091,30.5914773 C4.79888674,30.1827217 4.87467761,29.8070786 5.00675976,29.4770571 L5.04943812,29.3718329 C5.25804698,28.9126727 5.57776673,28.557265 5.97842819,28.3247415 L5.98983361,28.3199586 C6.39491007,28.0878031 6.8647399,27.990673 7.36584266,28.0429172 C7.74847619,28.0833881 8.14766598,28.2151023 8.5409691,28.4424749 L77.6670279,68.4997907 C78.0084547,68.6980979 78.3241274,68.9526964 78.5996971,69.2440865 C78.8734273,69.5336371 79.1173561,69.8643943 79.317135,70.2102362 C79.5202251,70.5682193 79.684316,70.9460699 79.7939552,71.3187697 C79.9091132,71.7124407 79.9738681,72.1127343 79.9738681,72.4931603 L79.9131603,110.50817 Z M81.5779841,116.755766 L81.582767,116.749511 C81.7027079,116.485715 81.7711404,116.121477 81.7718763,115.665996 L81.8399507,72.8180309 C81.8410446,72.2926456 81.7494333,71.733412 81.5838708,71.1719708 C81.401384,70.556078 81.1339084,69.9401852 80.8005758,69.3632916 L80.7556899,69.2757274 C80.4352343,68.7319462 80.051865,68.2183343 79.6291285,67.7694757 C79.2317783,67.343428 78.7935893,66.9832374 78.3329574,66.7168656 L5.02221227,24.2349777 C4.63258832,24.0090768 4.28453897,23.8854567 3.99094132,23.8563913 C3.79815289,23.8376275 3.63222238,23.8597025 3.5060269,23.9200409 L3.46960313,23.9413801 C3.33862473,24.016803 3.22236301,24.1547719 3.13553463,24.3475603 C3.0126504,24.6176113 2.94237828,24.9847923 2.94164244,25.4384338 L2.94164244,25.4380659 L2.87320584,68.2856631 C2.87173824,69.3802158 3.26945636,70.6215672 3.91367878,71.7400345 C4.54244869,72.8423134 5.39123288,73.7930105 6.30918544,74.3448858 L79.6902027,116.865037 C80.0794587,117.091674 80.427876,117.215294 80.7214736,117.243991 C80.9378087,117.264963 81.1184559,117.234426 81.2494343,117.159371 C81.3759977,117.087259 81.4889482,116.94929 81.5779841,116.755766 L81.5779841,116.755766 Z" id="Fill-35" fill="#F8D754"></path>
                <path d="M76.8354254,71.6408441 C76.7412387,71.4837436 76.6352786,71.3373127 76.5204886,71.2159001 C76.4222548,71.1121476 76.3254926,71.0301021 76.2375605,70.9789617 L7.67110327,31.2465165 L7.61149977,68.6110488 C7.61149977,68.8671189 7.7152533,69.1769049 7.87934421,69.4646159 C8.0449068,69.7537985 8.25977024,69.9966237 8.47904869,70.1242908 L28.7291925,81.8619423 C30.616606,80.774748 32.5088024,79.6415641 34.4138759,78.5922652 C34.9981279,78.2861584 35.6467653,78.1691608 36.3358736,78.239065 C36.9797281,78.3034505 37.6533838,78.5352381 38.3314546,78.9278054 L47.8597654,84.4502374 C48.4532153,84.8049093 49.0117131,85.2614941 49.5172308,85.7960773 L49.5963329,85.8865848 C50.0922849,86.4252151 50.5404076,87.0355892 50.9178903,87.6971037 C52.5481299,90.8696507 54.9138353,94.9844329 56.8612192,98.0083415 C58.3122833,99.7379187 73.8600818,108.014208 77.040723,109.856736 L77.1003302,72.4885245 C77.1003302,72.3755741 77.0793543,72.2493786 77.0425626,72.1239189 C76.9939976,71.9587243 76.9226217,71.7927938 76.8354254,71.6408441" id="Fill-37" fill="#F4D9DC"></path>
                <path d="M152.117028,40.6217738 C149.175164,43.5261095 145.369432,46.86937 141.068484,50.4171922 C140.770472,50.6625928 140.464733,50.9120404 140.161569,51.1600164 L140.142806,62.8060566 C141.640227,61.5647051 143.124404,60.3141557 144.588345,59.038588 C146.834109,57.0820061 149.039035,55.0643501 151.190613,52.9326398 L152.133952,51.962443 C153.567356,50.4216072 154.693181,49.165907 155.55006,47.8035109 C156.386335,46.4742273 156.996709,44.9937298 157.44152,42.9521592 L157.57397,41.8708516 L157.607819,40.850986 L157.616649,34.1582105 C156.575076,35.9032401 154.665588,38.1055904 152.117028,40.6217738" id="Fill-39" fill="#F8D754"></path>
                <path d="M108.911852,51.8144669 L109.898605,51.2467712 L110.97329,53.1095342 L109.985801,53.6775979 C110.340473,54.5293254 110.554601,55.4373442 110.596543,56.3567684 L110.579251,67.3125966 C111.304047,66.7883151 112.033626,66.2585148 112.766149,65.7250354 C112.838629,62.5881762 112.99021,58.9406485 112.747753,56.3137221 C112.679688,54.6702375 112.191831,53.0587617 111.376895,51.6426497 C110.563063,50.2283773 109.41553,48.9980633 108.028484,48.1117516 L74.1679914,28.4896419 C73.152173,28.6507895 72.1124399,28.7935412 71.0344435,28.91385 L70.8019201,26.7758851 L70.8015522,26.7758851 L70.8015522,26.7755172 L70.8019201,26.7758851 L71.1451865,26.7379897 L69.0090612,25.4999495 L69.0083254,25.939978 L68.9914012,25.9440251 L67.660278,25.9418176 L67.6624855,24.7192299 L61.4351248,21.1107014 L61.4329173,22.510625 L60.0848699,22.5084175 L60.0885491,20.3303497 L51.5694343,15.3932734 C50.4748816,15.4753189 49.379961,15.5783356 48.282833,15.7170402 L47.9255857,15.7630298 L106.910016,49.9443455 C107.678963,50.442137 108.35409,51.0815765 108.911852,51.8144669" id="Fill-41" fill="#000000"></path>
                <path d="M4.26555446,21.0062866 C4.94656857,21.0725116 5.66584602,21.3094501 6.39395348,21.7196774 L31.6396724,7.19652732 C31.9685901,7.04825682 32.2500465,7.01183306 32.5138429,7.05009641 C32.844968,7.09976518 33.2184037,7.26679944 33.6455551,7.48791747 L41.076004,11.7936485 L43.9005017,11.2480278 C44.0311122,11.2226415 44.1613547,11.2005665 44.2919652,11.176284 L34.6341477,5.57953273 C34.017887,5.25834131 33.4487196,5.0136766 32.8287797,4.92132947 C32.1473977,4.82015233 31.4597611,4.90403738 30.6930223,5.26422798 L3.2710752,21.0364557 C3.59005911,20.9875228 3.92081637,20.9724382 4.26555446,21.0062866" id="Fill-43" fill="#000000"></path>
                <path d="M112.213391,90.2002628 C112.212655,90.6255747 111.965415,90.9931236 111.606328,91.1678841 L110.541209,91.7804657 L110.530907,99.20466 C110.508464,99.6579335 110.461738,100.04351 110.341798,100.355872 C110.2443,100.599433 110.073586,100.820551 109.786979,101.028056 L84.6461163,115.490868 L84.6457484,115.670779 C84.6442768,116.530233 84.4823933,117.293292 84.1884278,117.936779 C84.1192594,118.089832 84.0375819,118.230744 83.9536968,118.369081 L110.965785,102.82533 C111.661515,102.344462 112.080941,101.790748 112.341058,101.148733 C112.570638,100.571471 112.646797,99.9548425 112.679173,99.2543288 L112.703824,86.4828309 C112.542308,86.5998284 112.378585,86.7179297 112.217806,86.8341915 L112.213391,90.2002628 Z" id="Fill-45" fill="#000000"></path>
                <path d="M109.514095,52.7173716 C109.333448,52.4031707 109.130726,52.1022147 108.911815,51.8145037 L82.6355611,66.9314715 C82.865877,67.2519271 83.0836838,67.5845239 83.2812552,67.9288941 C83.4435065,68.208143 83.5888337,68.4954861 83.7264346,68.7854046 L109.985764,53.6776346 C109.848531,53.3483491 109.692535,53.0267897 109.514095,52.7173716" id="Fill-47" fill="#000000"></path>
                <path d="M109.898752,51.246808 L108.911999,51.8145037 C109.13091,52.1022147 109.333632,52.4031707 109.514279,52.7173716 C109.692351,53.0267897 109.848715,53.3483491 109.985948,53.6776346 L110.973437,53.109571 L109.898752,51.246808 Z" id="Fill-49" fill="#000000"></path>
                <path d="M159.781655,26.4075636 L159.781288,26.4075636 C159.781288,26.414554 159.781655,26.4211765 159.781655,26.4281669 C159.781655,26.4215444 159.781655,26.4141861 159.781655,26.4075636" id="Fill-51" fill="#000000"></path>
                <path d="M159.573341,28.9536954 C159.288573,30.5688504 158.706161,32.2020333 157.798878,33.8425746 C157.741483,33.9455913 157.680409,34.0511835 157.616759,34.1582473 L157.607561,40.8506549 L157.574081,41.8708884 L157.441631,42.952196 C156.996819,44.9937666 156.386077,46.4742641 155.55017,47.8031798 C154.692924,49.1659438 153.567466,50.421644 152.133694,51.9624798 L151.190723,52.9326766 C149.039146,55.0643869 146.833852,57.0820429 144.588455,59.0386248 C143.124514,60.3141925 141.63997,61.5647419 140.142916,62.8060934 L140.139237,65.2093263 L140.123048,65.2144771 L138.791189,65.2122696 L138.793397,63.9212494 C138.422537,64.2258845 138.052044,64.5305197 137.679713,64.8347869 C136.147339,66.069148 134.726812,67.2023319 133.402311,68.2468479 L132.552423,68.9113057 L132.549112,70.8513313 L132.53182,70.8561142 L131.201065,70.8542746 L131.202168,69.9661233 L129.091061,71.6158625 L125.688566,74.211516 L124.961931,74.76008 L124.958619,76.8744982 L124.941695,76.8800169 L123.610572,76.8778094 L123.612411,75.7788418 L122.27577,76.7873019 C120.58188,78.0499925 118.946858,79.2608069 117.371806,80.4190092 L117.368127,82.8549867 L116.020079,82.8531471 L116.022287,81.4087055 C114.787558,82.3126773 113.522292,83.2339411 112.221338,84.1765441 L112.21913,85.9480637 L112.705148,85.9487996 L112.704045,86.4826469 C114.367765,85.2799267 116.078946,84.0341602 117.840532,82.7427721 C119.840896,81.2766234 121.743394,79.8697093 123.564214,78.5102565 L126.990256,75.9219614 L130.40894,73.3171101 C131.613499,72.3833371 133.040281,71.2663415 134.730491,69.9330108 C136.270959,68.7170456 137.70841,67.5720884 139.024817,66.5113841 L139.032543,66.502922 C141.396409,64.5702547 143.726794,62.6372195 145.999784,60.6567231 C148.294482,58.6581987 150.535831,56.6074302 152.703597,54.4587957 C153.01044,54.1365006 153.413677,53.7737345 153.689247,53.4429773 C155.207272,51.8083227 156.405945,50.470577 157.367679,48.9422504 C158.347442,47.3841225 159.055314,45.6766203 159.556049,43.3521216 C160.402258,38.4334412 159.777903,31.4062292 159.78195,26.4529645 C159.789676,27.2800416 159.721611,28.1141091 159.573341,28.9536954" id="Fill-53" fill="#000000"></path>
                <path d="M99.3438429,18.7775934 L99.3420033,19.9067302 L99.3250792,19.9115132 L97.9935881,19.9093057 L97.9950597,19.0516915 C95.8320765,19.5148988 93.7448842,20.0825945 91.7596048,20.7499957 L91.7566615,22.461177 L91.7408411,22.4659599 L90.4086141,22.4637524 L90.4108216,21.2246084 C89.3622586,21.6109211 88.3438647,22.0244597 87.3633663,22.4681674 L85.3081827,23.3066499 L84.1738951,23.7187168 L84.1713196,25.3945781 L84.1543955,25.399361 L82.8232723,25.3971535 L82.8251119,24.1903862 L81.2908986,24.6833948 L79.3034117,25.2415247 L77.4104795,25.6999491 L76.589657,25.8677192 L76.5867136,27.616428 L76.5690536,27.6212109 L75.2382983,27.6190034 L75.2408738,26.1333551 L73.6610388,26.4048778 L71.8530953,26.6591083 L71.1452233,26.7378425 L74.1680282,28.4894947 C79.9218799,27.5755892 84.8181175,25.9817734 90.413765,23.4471942 L92.4873444,22.5476375 L94.5690179,21.8026058 L96.8088958,21.1499213 L99.1602524,20.6028289 L101.514184,20.1804604 L103.933606,19.868099 L106.473704,19.651028 L109.004972,19.5410209 L111.538447,19.5296155 L114.121224,19.6197551 L116.754404,19.8037135 L119.319889,20.075972 L121.894203,20.4391059 L124.492432,20.8923795 L127.019285,21.4221798 L129.478073,22.0296105 L130.736349,22.3706694 L131.942748,22.7235017 L133.147676,23.1031919 L134.355915,23.5012779 L135.526258,23.9155523 L136.651348,24.3360813 L137.775702,24.7867794 L138.90116,25.2558734 L139.957817,25.7282787 L141.00822,26.2249664 L142.042802,26.7418896 L143.043904,27.2705862 L143.983563,27.7974431 L144.936836,28.3636671 L145.834185,28.9298912 L146.658687,29.4817665 L148.236682,30.6443837 L149.659784,31.8382739 L150.91107,33.0509279 L151.572952,33.8081008 C152.105328,33.1837459 152.550139,32.6097956 152.89966,32.0917687 C140.691811,19.0380785 117.605028,15.2798078 99.3438429,18.7775934" id="Fill-55" fill="#000000"></path>
                <path d="M157.62695,26.4347894 L157.62695,26.5264007 C157.626583,26.4958636 157.627318,26.4653265 157.62695,26.4347894" id="Fill-57" fill="#000000"></path>
                <path d="M70.8017361,26.7759955 L71.0342596,28.9139604 C72.1126239,28.7936516 73.151989,28.6508998 74.1678074,28.4893843 L71.1453705,26.7377322 L70.8017361,26.7759955 Z" id="Fill-59" fill="#000000"></path>
                <path d="M112.218946,85.9480269 L112.217842,86.8343386 C112.378622,86.7180769 112.541977,86.5996077 112.703861,86.4826101 L112.704964,85.9487628 L112.218946,85.9480269 Z" id="Fill-61" fill="#000000"></path>
                <polygon id="Fill-63" fill="#000000" points="70.8013682 26.7759955 70.8017361 26.7759955 70.8017361 26.7756276"></polygon>
                <g id="Group-67" transform="translate(44.291965, 0.000000)">
                    <mask id="mask-2" fill="white">
                        <use xlink:href="#path-1"></use>
                    </mask>
                    <g id="Clip-66"></g>
                    <path d="M9.64935542,15.2461802 C11.5746643,15.1530973 13.4462574,15.1111548 15.3307275,15.0695802 C15.4885639,15.065901 15.647136,15.0622218 15.8049724,15.0589106 L15.806812,13.8617091 L17.1548593,13.8639166 L17.1530197,15.0280055 C19.2019487,14.9779689 21.2736885,14.9062251 23.3862671,14.7638412 L23.3881067,13.5868752 L24.7361541,13.5890827 L24.7343145,14.6626641 C26.3700729,14.5269028 28.0312175,14.3447839 29.7339367,14.0806196 C30.1430602,14.01697 30.5551271,13.9474337 30.9682977,13.8749541 L30.9705052,12.6067447 L32.3189205,12.6089522 L32.3170809,13.6218273 C34.3376803,13.2189584 36.4112597,12.6968843 38.5525358,12.0140307 L38.5558471,9.95075291 L39.9038945,9.95296041 L39.901319,11.5648042 C41.9160318,10.8676017 43.9910828,10.0265438 46.1382456,9.00741409 L46.140821,7.49453997 L47.4888684,7.49674747 L47.4873967,8.4073417 C49.4417711,7.58394377 51.5326426,6.92316509 53.7232195,6.414704 L53.7261629,4.60712847 L55.0745782,4.60933598 L55.0720027,6.12368176 C57.8733217,5.56187272 60.8162886,5.23295505 63.8291598,5.12110832 C70.9137668,4.85841569 78.3666586,5.7752645 85.2176384,7.58431169 C88.5759835,8.47172715 91.777596,9.56959105 94.7003275,10.83964 C97.561249,12.0839349 100.170147,13.5000468 102.415176,15.0522881 C104.617894,16.5769355 106.45895,18.2285143 107.818035,19.9654498 C109.069688,21.5640485 109.908539,23.2307119 110.236353,24.9286482 C110.437235,25.9669096 110.45048,27.0338684 110.253645,28.1162798 C110.06196,29.1740408 109.665714,30.266018 109.046142,31.3844853 C108.923625,31.6063392 108.775355,31.8432776 108.607585,32.0916215 C108.858504,32.3598329 109.105008,32.6313555 109.346362,32.9072932 L107.727895,34.3186222 L107.281244,33.8079536 C106.419951,34.8189892 105.33386,35.9598993 104.055349,37.209345 C101.302963,39.8984493 97.6745674,43.0698926 93.5336631,46.4852648 C89.4361731,49.8620057 84.8865132,53.4370538 80.2047712,56.9999607 C76.320305,59.9558047 72.351218,62.9009791 68.4741101,65.7251089 C68.4560822,66.5010456 68.4428372,67.247181 68.4417334,67.937393 L66.2861086,67.9340818 L66.2872123,67.3123023 C65.7478462,67.7022941 65.2128951,68.087871 64.6790477,68.4716083 L66.7150996,69.6518856 C71.5756492,66.1478454 76.6308268,62.4212156 81.506829,58.7096703 C86.2430227,55.1062926 90.8202763,51.511377 94.9026817,48.1453056 C99.0689722,44.710066 102.740047,41.4981518 105.561233,38.7435583 C108.153943,36.2086111 110.03547,34.0437883 110.931348,32.4238504 C111.660191,31.1063401 112.132228,29.7936128 112.366591,28.4989134 C112.613463,27.1409323 112.598747,25.8123845 112.350403,24.5287226 C111.953421,22.4742748 110.971083,20.4996651 109.513028,18.6372699 C108.024069,16.7347719 106.023705,14.9371301 103.6385,13.287023 C101.283832,11.658623 98.5509453,10.1744464 95.5542625,8.87128485 C92.5152693,7.55046333 89.2113759,6.41543983 85.763627,5.50558144 C78.7194908,3.64612964 71.0506319,2.7046304 63.7563123,2.97468138 C57.0186508,3.22376109 50.5896717,4.50595134 45.2431039,7.04678516 C39.4877805,9.78261491 34.290219,11.2005665 29.4086982,11.9573715 C24.4907535,12.720431 19.8531616,12.8230798 15.28437,12.9231532 C13.3498632,12.9643599 11.425658,13.008142 9.55222537,13.0997533 C7.75090444,13.1873175 5.93486683,13.3208713 4.08755629,13.5427252 L2.94591028,12.8819465 C4.53163193,12.6670831 6.09895775,12.5210201 7.65892522,12.4168996 C10.2417016,12.2458183 12.7457437,12.1909987 15.2678138,12.1354432 C19.7479373,12.0372094 24.2961255,11.937136 29.1566751,11.1891611 C34.0503373,10.4360352 39.2291349,9.03243244 44.9046204,6.33486604 C50.296074,3.77342887 56.7714107,2.47063528 63.5513826,2.20205598 C70.9965481,1.90698666 78.8044796,2.8529009 85.9630379,4.74215396 C89.476276,5.66930444 92.8364607,6.82640296 95.9229152,8.17187491 C98.9398334,9.48717767 101.699578,10.9890143 104.086254,12.6402251 C106.605381,14.3837831 108.713545,16.300262 110.279031,18.3484552 C111.732303,20.2516891 112.71832,22.2722885 113.1245,24.3749333 C113.255478,25.0537399 113.326486,25.7413765 113.334948,26.4348998 L113.334948,26.4039948 L115.489102,26.407674 C115.4788,25.5861156 115.394547,24.7715477 115.23855,23.9661777 C114.767249,21.5320398 113.643263,19.2126919 111.989844,17.0467653 C110.28455,14.8157175 108.011559,12.7439777 105.31105,10.8745921 C102.813998,9.14795833 99.9295298,7.57879293 96.7772181,6.20278389 C93.5851715,4.81132233 90.1190268,3.61890379 86.5046116,2.66379163 C79.152529,0.723398125 71.1260548,-0.248638212 63.4693371,0.0545252783 C56.4016543,0.334877924 49.636767,1.70132113 43.9804132,4.38858586 C38.5010275,6.99196554 33.5216407,8.34442791 28.8307008,9.06554495 C24.1059125,9.7932845 19.6302039,9.89225413 15.2214562,9.98901627 C12.6276424,10.0456755 10.0522244,10.1030705 7.51838098,10.2701047 C5.04524387,10.432724 2.54892799,10.7046146 1.0456826e-14,11.176284 L7.27739544,15.393347 C8.06804877,15.3341124 8.8587021,15.2844436 9.64935542,15.2461802" id="Fill-65" fill="#000000" mask="url(#mask-2)"></path>
                </g>
                <path d="M159.781729,26.4282037 C159.781729,26.4362979 159.781729,26.44476 159.781729,26.4528541 C159.781729,26.44476 159.781729,26.4362979 159.781729,26.4282037" id="Fill-68" fill="#000000"></path>
                <polygon id="Fill-70" fill="#000000" points="47.9222745 15.7636553 47.9255857 15.7632874 41.0760776 11.7938324 41.074238 11.7938324"></polygon>
                <path d="M157.452153,28.5794136 C157.20712,29.9664601 156.701971,31.3777892 155.913893,32.8027312 C155.025374,34.4094241 153.165554,36.565049 150.603749,39.0941095 C147.724063,41.9373709 143.966529,45.2357456 139.698325,48.755974 C135.635787,52.105857 131.122551,55.6525755 126.473186,59.1923036 C121.589457,62.9115751 116.563713,66.6190733 111.749889,70.0922085 C111.887858,70.1819802 112.009638,70.3008173 112.097203,70.4535028 C112.193965,70.6231125 112.239586,70.806703 112.238483,70.9884539 L112.236643,72.3880096 C113.493447,71.4833021 114.763128,70.5646137 116.041271,69.6330482 L116.044215,67.6937585 L117.392262,67.695966 L117.39079,68.6477669 C119.467313,67.1279023 121.555977,65.5833874 123.631028,64.0304103 L123.634707,61.76625 L124.982387,61.7684575 L124.980547,63.0164314 C125.916528,62.3122386 126.849933,61.6073099 127.774876,60.9027491 C128.935285,60.0193807 130.085394,59.1367482 131.221153,58.2581627 L131.224832,55.8424206 L132.573247,55.8446281 L132.57104,57.2095997 C134.725929,55.531163 136.815697,53.8740655 138.811646,52.2581746 L138.815693,49.7648021 L140.16374,49.7670096 L140.161532,51.1599428 C140.464696,50.9119668 140.770435,50.6625192 141.068448,50.4171187 C145.369396,46.8696643 149.175128,43.5260359 152.116991,40.6217002 C154.665551,38.1055169 156.575039,35.9031665 157.616612,34.1581369 L157.626999,26.5264375 C157.629489,27.2052441 157.573566,27.8899374 157.452153,28.5794136" id="Fill-72" fill="#000000"></path>
                <path d="M110.578147,67.9339346 L112.733772,67.9372458 C112.734876,67.2474017 112.748121,66.5012663 112.766149,65.7249618 C112.033626,66.2588091 111.304047,66.7882415 110.579251,67.312523 L110.578147,67.9339346 Z" id="Fill-74" fill="#000000"></path>
                <path d="M41.0759304,11.793722 L47.9258065,15.763177 L48.2830537,15.7171874 C49.3798139,15.5784828 50.4747344,15.475466 51.5692871,15.3934206 L44.2918917,11.1763575 C44.1612812,11.2002721 44.0314065,11.2227151 43.9004281,11.2481013 L41.0759304,11.793722 Z" id="Fill-76" fill="#000000"></path>
                <path d="M157.62695,26.4347894 C157.627318,26.4653265 157.626583,26.4958636 157.62695,26.5264007 L157.616649,34.1581001 C157.680298,34.0514042 157.74174,33.9458121 157.798768,33.8424274 C158.706051,32.2018862 159.288463,30.5690712 159.573231,28.9535482 C159.721501,28.113962 159.789566,27.2798944 159.781839,26.4528174 C159.781839,26.4447232 159.781839,26.4362611 159.781839,26.4281669 C159.781839,26.4211765 159.781104,26.414554 159.781104,26.4075636 L157.62695,26.4042523 L157.62695,26.4347894 Z" id="Fill-78" fill="#000000"></path>
                <path d="M152.019824,34.3187694 L153.63829,32.9070724 C153.396937,32.6315027 153.150432,32.35998 152.899881,32.0917687 C152.549992,32.6097956 152.105181,33.1837459 151.573173,33.8081008 L152.019824,34.3187694 Z" id="Fill-80" fill="#000000"></path>
                <path d="M104.657887,66.5951219 L100.101972,69.2154258 L100.103812,69.2183691 C100.262752,69.1263899 100.445239,69.0700986 100.641706,69.0704665 C100.873494,69.0708345 101.087622,69.1444178 101.263854,69.2691417 L102.78703,70.1517742 L105.192838,68.767671 L109.017702,70.984738 L109.635802,70.6293303 L108.388196,68.891291 C108.581352,68.7529543 108.777452,68.6109384 108.970976,68.4714979 L105.743242,66.6006407 C105.420578,66.4100598 105.005568,66.3942393 104.657887,66.5951219" id="Fill-82" fill="#000000"></path>
                <path d="M110.632857,70.0558215 C110.977227,69.858986 111.382671,69.8777497 111.702759,70.0631798 L111.70607,70.0572931 L111.007028,69.6518488 C110.571782,69.9656818 110.136169,70.2798828 109.704234,70.5896688 L110.632857,70.0558215 Z" id="Fill-84" fill="#000000"></path>
                <polygon id="Fill-86" fill="#000000" points="100.101972 69.2154258 100.101972 69.2154258 100.101972 69.2150579"></polygon>
                <path d="M109.635912,70.6291831 L109.704345,70.589816 C110.136279,70.28003 110.571893,69.965829 111.007138,69.6519959 L108.971087,68.4717187 C108.777194,68.6107912 108.581463,68.7528071 108.388306,68.8911439 L109.635912,70.6291831 Z" id="Fill-88" fill="#000000"></path>
                <path d="M111.728182,72.7545652 L110.849964,71.52977 L110.625167,71.9164506 L109.017738,70.9848851 L106.612298,72.3678846 L107.146513,72.6776706 C107.490883,72.8759778 107.684408,73.23764 107.683672,73.6085002 L107.682936,74.2273364 L110.085433,72.8458086 L110.058575,89.5782994 L107.660493,90.9579876 L107.657918,92.8214865 C107.657182,93.1923466 107.468808,93.5190568 107.182937,93.7125811 L110.541282,91.7806497 L110.549376,85.9454883 L111.384548,85.9465921 L110.831936,85.181325 C111.299191,84.8439452 111.76203,84.5091409 112.22119,84.1765441 L112.236643,72.38812 C112.067401,72.5095326 111.896688,72.6335206 111.728182,72.7545652" id="Fill-90" fill="#000000"></path>
                <path d="M107.117632,93.7502558 L107.166197,93.7222941 C107.150376,93.7325958 107.133084,93.7395862 107.116896,93.749152 L107.117632,93.7502558 Z" id="Fill-92" fill="#000000"></path>
                <path d="M111.639771,70.171421 C111.676563,70.1449309 111.712987,70.1184409 111.749779,70.0919509 C111.734326,70.0820172 111.718874,70.0720834 111.702685,70.0628855 L111.639771,70.171421 Z" id="Fill-94" fill="#000000"></path>
                <path d="M111.384584,85.9466656 L110.549413,85.9455619 L110.541319,91.7803553 L111.606438,91.1677738 C111.965525,90.9933812 112.212765,90.6258322 112.213501,90.2001524 L112.217916,86.8340811 C112.175974,86.8642503 112.133295,86.8955232 112.091353,86.9256924 L111.384584,85.9466656 Z" id="Fill-96" fill="#000000"></path>
                <path d="M111.384584,85.9466656 L112.21902,85.9481373 L112.221227,84.1762497 C111.762067,84.5092145 111.299228,84.8436509 110.831973,85.1813986 L111.384584,85.9466656 Z" id="Fill-98" fill="#000000"></path>
                <path d="M112.091426,86.925582 C112.133369,86.8954128 112.176047,86.8645078 112.21799,86.8343386 L112.219093,85.9480269 L111.384658,85.9465553 L112.091426,86.925582 Z" id="Fill-100" fill="#000000"></path>
                <path d="M110.850038,71.5298436 L111.728255,72.7546388 C111.896761,72.6335941 112.067475,72.5096062 112.236717,72.3881936 L112.238188,70.98827 C112.23966,70.806519 112.19367,70.6232964 112.097276,70.4533189 C112.009712,70.3006334 111.887931,70.1817962 111.749963,70.0920245 C111.713171,70.1185145 111.676379,70.1450045 111.639588,70.1714945 L110.850038,71.5298436 Z" id="Fill-102" fill="#000000"></path>
                <path d="M110.477301,71.0093884 C110.862142,70.7327149 111.251766,70.4512585 111.639919,70.1712738 L111.702832,70.0631062 C111.382745,69.8780441 110.9773,69.8589124 110.63293,70.0557479 L109.704308,70.5899632 C109.683337,70.6050478 109.66163,70.6205003 109.640658,70.6355849 L109.635876,70.6293303 L109.017775,70.984738 L110.625204,71.9166714 L110.850001,71.5299907 L110.476933,71.0093884 L110.477301,71.0093884 Z" id="Fill-104" fill="#000000"></path>
                <path d="M109.704345,70.589816 L109.635912,70.6291831 L109.640695,70.6358056 C109.661666,70.6203531 109.683374,70.6049006 109.704345,70.589816" id="Fill-106" fill="#000000"></path>
                <path d="M110.477301,71.0093884 L110.476933,71.0093884 L110.850001,71.5299907 L111.639919,70.1712738 C111.251766,70.4512585 110.862142,70.7327149 110.477301,71.0093884" id="Fill-108" fill="#000000"></path>
                <path d="M107.183084,93.7126179 L107.16616,93.7225516 C107.171679,93.7188725 107.177565,93.716297 107.183084,93.7126179" id="Fill-110" fill="#000000"></path>
                <path d="M105.505751,90.9540509 L101.687142,88.7421347 L101.714,72.0100119 L105.532609,74.2226638 L105.505751,90.9540509 Z M101.176842,71.0780785 L100.103996,69.2186267 C99.7820687,69.4044247 99.5627902,69.7476911 99.5620544,70.1454092 L99.5326211,89.3580275 C99.5337248,89.7285198 99.7254095,90.0894462 100.068308,90.2892251 L105.977421,93.7130594 C106.149606,93.8289532 106.356007,93.8970178 106.578229,93.8973875 C106.775064,93.8977536 106.957919,93.8410944 107.116859,93.7491152 L106.042542,91.8885597 L107.660272,90.95773 L107.683083,74.2274468 L107.143717,74.5376007 L106.077126,72.6759414 L106.612445,72.367995 L102.787214,70.1516638 L101.176842,71.0780785 Z" id="Fill-112" fill="#000000"></path>
                <path d="M102.787066,70.1515902 L101.263891,69.2689577 C101.087658,69.1442339 100.873531,69.0706487 100.641743,69.0706487 C100.445276,69.0702826 100.262789,69.1265739 100.103849,69.2185531 L101.177062,71.0780049 L102.787066,70.1515902 Z" id="Fill-114" fill="#000000"></path>
                <path d="M107.14368,74.5376375 L107.683046,74.2274836 L107.683784,73.6086474 C107.684518,73.2377872 107.490994,72.8761249 107.146624,72.6774498 L106.612408,72.3680318 L106.077089,72.6756103 L107.14368,74.5376375 Z" id="Fill-116" fill="#000000"></path>
                <path d="M107.116896,93.7490049 C107.133084,93.7398069 107.150376,93.7324486 107.166197,93.7225148 L107.183121,93.7125811 C107.468992,93.5190568 107.657366,93.1923466 107.657734,92.8214865 L107.660309,90.9579876 L106.042579,91.8884493 L107.116896,93.7490049 Z" id="Fill-118" fill="#000000"></path>
                <g id="Group-122" transform="translate(0.000000, 21.036456)">
                    <mask id="mask-4" fill="white">
                        <use xlink:href="#path-3"></use>
                    </mask>
                    <g id="Clip-121"></g>
                    <path d="M80.7212897,96.2076828 C80.427692,96.1789853 80.0796427,96.0553653 79.6900187,95.8283606 L6.3093694,53.3085772 C5.39104892,52.756334 4.54263265,51.8060048 3.91349482,50.7037259 C3.2692724,49.5852586 2.87155428,48.3439072 2.87338751,47.2489866 L2.94145848,4.40138937 L2.94145848,4.40175728 C2.94256224,3.94848372 3.01283436,3.58093477 3.13535067,3.31125172 C3.22217905,3.11809537 3.33844077,2.98012655 3.46941918,2.90507151 L3.50584294,2.88336441 C3.63240634,2.82302605 3.79796893,2.80131895 3.99112528,2.82008271 C4.28435501,2.84878023 4.63277228,2.97276821 5.02239623,3.19830124 L78.3327734,45.680557 C78.7937733,45.9469288 79.2315943,46.3071194 79.6293124,46.7331672 C80.0520489,47.1820257 80.4354183,47.6956377 80.7558739,48.2394188 L80.8007597,48.326983 C81.1337245,48.9035087 81.4012,49.5197694 81.5840547,50.1356623 C81.7492494,50.6971034 81.8401292,51.256337 81.8401292,51.7817223 L81.7716923,94.6296874 C81.7709565,95.0851685 81.7025239,95.4494062 81.582583,95.7128347 L81.5778001,95.7194572 C81.4887642,95.9129814 81.3758138,96.0505823 81.2496183,96.122694 C81.1186399,96.198117 80.9379927,96.2286541 80.7212897,96.2076828 L80.7212897,96.2076828 Z M80.7970806,96.6683147 L84.6458588,94.4541911 L84.7139301,51.7857694 C84.7150272,50.986654 84.5800017,50.1496431 84.3349691,49.3207264 C84.1786044,48.791662 83.9703634,48.2644371 83.7264346,47.7489856 L82.5137806,48.446556 L81.4387276,46.5837929 L82.6355611,45.8950526 C82.3463784,45.4929194 82.0365924,45.1110217 81.7054673,44.7640761 C81.1101778,44.1342025 80.4567575,43.596676 79.7739038,43.2011653 L6.46242281,0.71890954 C6.43961197,0.705664533 6.41680112,0.696466611 6.39399028,0.683589521 L2.66552084,2.82817688 L1.59046778,0.966517585 L3.27111199,0 C2.87081845,0.0614421152 2.49076033,0.179543426 2.14197515,0.365709356 L2.03675093,0.421264802 C1.38553809,0.796539997 0.866039491,1.37380155 0.522037229,2.1280311 C0.232118745,2.76599894 0.0698674113,3.5290585 0.0683957438,4.39697436 L-4.58445429e-05,47.2445716 C-0.00261220969,48.844642 0.544480158,50.5981338 1.43189562,52.1352904 C2.29539648,53.6352874 3.50179586,54.9619956 4.85278656,55.7717806 L78.2488884,98.3077523 C79.0005425,98.7429979 79.7444704,98.9887664 80.4468237,99.0575668 C81.2654387,99.1381406 82.0218758,98.9803043 82.6708811,98.6065008 C83.193323,98.3073843 83.6259933,97.8743462 83.9538072,97.3327726 L81.8710299,98.5310778 L80.7970806,96.6683147 Z" id="Fill-120" fill="#000000" mask="url(#mask-4)"></path>
                </g>
                <path d="M77.0408702,109.856699 C73.859861,108.014172 58.3120626,99.7378819 56.8613664,98.0083047 C54.9136145,94.9843961 52.5482771,90.8696139 50.9180375,87.6970669 C50.5405548,87.0355524 50.092432,86.4251783 49.5964801,85.886548 L49.5170101,85.7960405 C49.0114923,85.2614573 48.4533624,84.8048725 47.8599125,84.4502006 L38.3312338,78.9277686 C37.653531,78.5352013 36.9798752,78.3034137 36.3360207,78.2390282 C35.6469125,78.1694919 34.998275,78.2861216 34.4140231,78.5922284 C32.5089496,79.6415273 30.6167532,80.7747112 28.7293397,81.8619055 L8.47882794,70.124254 C8.25991741,69.9969548 8.04468605,69.7537617 7.87949138,69.4645791 C7.71540046,69.1768681 7.61164694,68.86745 7.61164694,68.611012 L7.67125044,31.2464797 L76.2377077,70.9789249 C76.3252719,71.0300653 76.422034,71.1121108 76.5206357,71.2158633 C76.6354258,71.3372759 76.7413859,71.4837068 76.8355726,71.6408073 C76.922401,71.792757 76.9941447,71.9586875 77.0427098,72.1242501 C77.0791335,72.2493418 77.1004727,72.3755373 77.1004727,72.4884877 L77.0408702,109.856699 Z M79.3171718,70.2099786 C79.1173929,69.8645047 78.8730961,69.5337475 78.5997339,69.243829 C78.3241642,68.9528067 78.0084915,68.6978404 77.6670647,68.4999011 L8.54063797,28.4425853 C8.14770277,28.2152127 7.74851298,28.0831305 7.36587945,28.0430276 C6.86477669,27.9907834 6.39494686,28.0875455 5.9898704,28.320069 L5.97846498,28.324484 C5.57780352,28.5573754 5.25808377,28.912783 5.04947491,29.3719433 L5.00679656,29.4771675 C4.8747144,29.8071889 4.79892353,30.182832 4.7981877,30.5915877 L4.73747782,68.6062291 C4.73637767,69.3615624 4.98913655,70.1779699 5.39568467,70.885474 C5.8022328,71.5944498 6.38390935,72.2232197 7.03843344,72.6036457 L27.3536986,84.3714664 C27.7580392,84.6054615 28.1476631,84.7426945 28.54207,84.7809579 C28.9986548,84.8258437 29.4177121,84.7415908 29.8180057,84.5362932 C31.6388262,83.6514531 33.9883433,82.1853044 35.7628063,81.1198172 C35.8397009,81.0881764 35.9379347,81.0789784 36.0505172,81.089648 C36.290767,81.1131947 36.5777421,81.2198906 36.8963581,81.4071603 L46.406273,86.9152436 C46.7580016,87.1286353 47.105683,87.417818 47.4382798,87.7684428 L47.5022974,87.8317245 C47.8301113,88.1915471 48.1421048,88.6238494 48.4235612,89.1186976 C50.3444551,92.4512885 52.2329723,95.8865282 54.2134688,99.1742333 C54.3164855,99.3541446 54.4283322,99.5259618 54.5409148,99.6889489 C54.6273752,99.8088898 54.7215619,99.9266232 54.8208995,100.03847 C54.8874924,100.126402 54.9640191,100.205504 55.0475363,100.276144 C55.1586472,100.385416 55.2646072,100.47997 55.3650485,100.559072 C55.5166303,100.679013 55.681457,100.790124 55.8573213,100.892037 L76.165596,112.660962 C76.6501425,112.941314 77.1365286,113.076344 77.5923776,113.076344 C77.9967182,113.076344 78.3811913,112.974059 78.7262973,112.775752 C79.0673562,112.579652 79.3462372,112.299667 79.5482236,111.954561 L79.6000998,111.858535 C79.7995108,111.478845 79.9124613,111.02226 79.9131971,110.50828 L79.9739049,72.4929027 C79.9739049,72.1128446 79.9087821,71.7125511 79.793992,71.31888 C79.6843528,70.9458124 79.5202619,70.5683297 79.3171718,70.2099786 L79.3171718,70.2099786 Z" id="Fill-123" fill="#000000"></path>
                <path d="M2.66552084,23.864743 L6.39399028,21.7197877 C5.66588282,21.3091925 4.94623744,21.0722541 4.26559126,21.0063969 C3.92085316,20.9725486 3.58972799,20.9876332 3.27111199,21.0365661 L1.59046778,22.0030837 L2.66552084,23.864743 Z" id="Fill-125" fill="#000000"></path>
                <path d="M84.6456748,115.670595 L84.6460428,115.490684 L80.7968966,117.704807 L81.8708459,119.56757 L83.9539911,118.369265 C84.0375083,118.23056 84.1191858,118.089648 84.1883542,117.936595 C84.4823198,117.293108 84.6442032,116.530049 84.6456748,115.670595" id="Fill-127" fill="#000000"></path>
                <path d="M82.6357083,66.9315819 L81.4388747,67.6203223 L82.5139278,69.4830853 L83.7262138,68.7855149 C83.5889808,68.4952285 83.4432858,68.2082534 83.2814023,67.9290045 C83.083831,67.5846343 82.8660242,67.2520375 82.6357083,66.9315819" id="Fill-129" fill="#000000"></path>
                <path d="M138.811719,52.2582114 L138.793323,63.9211758 C139.244389,63.5503156 139.693984,63.1783517 140.142842,62.8060198 L140.161606,51.1599796 C139.716795,51.5234814 139.266832,51.8899266 138.811719,52.2582114" id="Fill-131" fill="#000000"></path>
                <path d="M138.791079,65.212196 L140.123306,65.2144035 L140.139126,65.2092527 L140.142806,62.8060198 C139.694315,63.1783517 139.244353,63.5503156 138.793286,63.9211758 L138.791079,65.212196 Z" id="Fill-133" fill="#000000"></path>
                <path d="M140.163777,49.7670464 L138.815729,49.7648389 L138.811682,52.2582114 C139.266795,51.8899266 139.716758,51.5234814 140.161569,51.1599796 L140.163777,49.7670464 Z" id="Fill-135" fill="#000000"></path>
                <path d="M131.221042,58.2582363 L131.202279,69.9660866 L132.552166,68.9112689 L132.570929,57.2093054 C132.122807,57.5584585 131.674316,57.9076115 131.221042,58.2582363" id="Fill-137" fill="#000000"></path>
                <polygon id="Fill-139" fill="#000000" points="131.200917 70.8541643 132.532041 70.8563718 132.549333 70.8512209 132.552276 68.9111953 131.202389 69.966013"></polygon>
                <path d="M132.573137,55.8446649 L131.224722,55.8424574 L131.221042,58.2581995 C131.674316,57.9075748 132.122807,57.5584217 132.570929,57.2092686 L132.573137,55.8446649 Z" id="Fill-141" fill="#000000"></path>
                <path d="M123.630954,64.0302999 L123.612191,75.778621 L124.96171,74.7602272 L124.980474,63.0163211 C124.531247,63.3548046 124.082021,63.6929202 123.630954,64.0302999" id="Fill-143" fill="#000000"></path>
                <polygon id="Fill-145" fill="#000000" points="123.610462 76.8779198 124.941585 76.8801273 124.958509 76.8746086 124.96182 74.7601904 123.612301 75.7785842"></polygon>
                <path d="M124.982534,61.7682735 L123.634486,61.766066 L123.630807,64.0302264 C124.081873,63.6928466 124.5311,63.354731 124.980694,63.0166154 L124.982534,61.7682735 Z" id="Fill-147" fill="#000000"></path>
                <path d="M116.041124,69.6331954 L116.02236,81.4087423 C116.205215,81.2751885 116.390277,81.1397951 116.57166,81.0069771 C116.835089,80.8138208 117.104772,80.6155136 117.371879,80.4186781 L117.390643,68.647914 C116.939945,68.9775675 116.490351,69.3061173 116.041124,69.6331954" id="Fill-149" fill="#000000"></path>
                <path d="M116.02236,81.4088895 L116.020153,82.8529632 L117.367832,82.8551707 L117.371879,80.4188252 C117.104772,80.6152928 116.835089,80.8139679 116.57166,81.0071243 C116.390277,81.1399423 116.205215,81.2749678 116.02236,81.4088895" id="Fill-151" fill="#000000"></path>
                <path d="M117.392262,67.6960763 L116.044215,67.6938688 L116.041271,69.6331586 C116.49013,69.3060805 116.940092,68.9775308 117.39079,68.6478772 L117.392262,67.6960763 Z" id="Fill-153" fill="#000000"></path>
                <path d="M99.3438429,18.7775934 L99.3640784,6.12382893 C98.9108048,6.21470439 98.4608425,6.31146653 98.0152952,6.41485116 L97.9950597,19.0516915 C98.4417108,18.9560331 98.8909373,18.8644218 99.3438429,18.7775934" id="Fill-155" fill="#000000"></path>
                <path d="M99.3251527,19.9115132 L99.3420769,19.9067302 L99.3439165,18.7775934 C98.8910109,18.8644218 98.4417844,18.9560331 97.9951333,19.0516915 L97.9936616,19.9093057 L99.3251527,19.9115132 Z" id="Fill-157" fill="#000000"></path>
                <path d="M99.3664698,4.60937277 L98.0180545,4.60716527 L98.0151112,6.41474079 C98.4610264,6.31135615 98.9106208,6.21459402 99.3638944,6.12371855 L99.3664698,4.60937277 Z" id="Fill-159" fill="#000000"></path>
                <path d="M91.7595312,20.7499221 L91.7790308,8.40741528 C91.3327477,8.59542079 90.8905116,8.78894506 90.4585772,8.99424267 C90.4490114,8.99865767 90.4398135,9.00270475 90.4302476,9.00711976 L90.410748,21.2249028 C90.8548237,21.0611798 91.3044181,20.9029755 91.7595312,20.7499221" id="Fill-161" fill="#000000"></path>
                <path d="M91.7408411,22.4658127 L91.7566615,22.4613977 L91.7596048,20.7498485 C91.3044917,20.9029019 90.8548973,21.0611062 90.4108216,21.2248292 L90.4086141,22.4636052 L91.7408411,22.4658127 Z" id="Fill-163" fill="#000000"></path>
                <path d="M91.779178,8.4073049 L91.7806497,7.49671068 L90.4326023,7.4948711 L90.4303948,9.0073773 C90.4395927,9.0029623 90.4491586,8.99854729 90.4583565,8.99413229 C90.8902909,8.78883469 91.3325269,8.59531042 91.779178,8.4073049" id="Fill-165" fill="#000000"></path>
                <path d="M83.2611301,24.0503939 L84.1739318,23.7185328 L84.1934314,11.5647674 C83.7408937,11.7215 83.2909314,11.87161 82.8446482,12.0139939 L82.8251486,24.1905702 L83.2611301,24.0503939 Z" id="Fill-167" fill="#000000"></path>
                <polygon id="Fill-169" fill="#000000" points="84.1543587 25.3991771 84.1712828 25.3943941 84.1738583 23.7185328 83.2610565 24.0503939 82.8250751 24.1905702 82.8232355 25.3969696"></polygon>
                <path d="M84.1958597,9.95288683 L82.8478123,9.95067933 L82.8445011,12.014325 C83.2911521,11.8719412 83.7407465,11.7214632 84.1932843,11.5650985 L84.1958597,9.95288683 Z" id="Fill-171" fill="#000000"></path>
                <path d="M75.545141,26.0812213 L76.589657,25.8678295 L76.6091565,13.6217169 C76.1569867,13.7118566 75.7073923,13.7961095 75.2603733,13.8748437 L75.2408738,26.1334655 L75.545141,26.0812213 Z" id="Fill-173" fill="#000000"></path>
                <polygon id="Fill-175" fill="#000000" points="76.5689432 27.6211741 76.5869712 27.6163912 76.5895466 25.8676824 75.5450306 26.0810742 75.2407634 26.1336863 75.2385559 27.6189666"></polygon>
                <path d="M76.6107754,12.6088786 L75.2623601,12.6066711 L75.2605205,13.8748805 C75.7075395,13.7961463 76.1571339,13.7118934 76.6093037,13.6217537 L76.6107754,12.6088786 Z" id="Fill-177" fill="#000000"></path>
                <path d="M69.0090244,25.4998759 L69.0263165,14.6625169 C68.5748825,14.7000445 68.1256561,14.7338928 67.6782692,14.7636941 L67.6624487,24.7195242 L69.0090244,25.4998759 Z" id="Fill-179" fill="#000000"></path>
                <polygon id="Fill-181" fill="#000000" points="67.6603516 25.941744 68.9914748 25.9439515 69.008399 25.9399045 69.0091348 25.4998759 67.6621912 24.7195242"></polygon>
                <path d="M69.0280825,13.5891195 L67.6800352,13.586912 L67.6781956,14.763878 C68.1255825,14.7337089 68.574809,14.7002284 69.0262429,14.6627009 L69.0280825,13.5891195 Z" id="Fill-183" fill="#000000"></path>
                <path d="M61.4351248,21.1107382 L61.4446906,15.0279688 C60.9943604,15.0390063 60.5455018,15.04894 60.0970112,15.0588738 L60.0885491,20.3303865 L61.4351248,21.1107382 Z" id="Fill-185" fill="#000000"></path>
                <polygon id="Fill-187" fill="#000000" points="60.0849067 22.5083071 61.4329541 22.5105146 61.4351616 21.110591 60.0885859 20.3302393"></polygon>
                <path d="M61.4467142,13.8639902 L60.0986668,13.8617827 L60.0968272,15.0589841 C60.5456858,15.0490504 60.9945444,15.0387487 61.4448746,15.0280791 L61.4467142,13.8639902 Z" id="Fill-189" fill="#000000"></path>
            </g>
        </g>
    </g>
</svg>